<?xml version="1.0" encoding="iso-8859-1"?>
<!-- Generator: Adobe Illustrator 16.0.0, SVG Export Plug-In . SVG Version: 6.00 Build 0)  -->
<!DOCTYPE svg PUBLIC "-//W3C//DTD SVG 1.1//EN" "http://www.w3.org/Graphics/SVG/1.1/DTD/svg11.dtd">
<svg version="1.1" id="Capa_1" xmlns="http://www.w3.org/2000/svg" xmlns:xlink="http://www.w3.org/1999/xlink" x="0px" y="0px"
	 width="650.25px" height="650.25px" viewBox="0 0 650.25 650.25" style="enable-background:new 0 0 650.25 650.25;"
	 xml:space="preserve">
<g>
	<g id="Sunrise">
		<g>
			<path d="M487.688,191.25c7.918,0,15.09-3.213,20.292-8.415l38.25-38.25c5.183-5.183,8.396-12.354,8.396-20.272
				c0-15.835-12.852-28.688-28.688-28.688c-7.918,0-15.09,3.213-20.292,8.415l-38.25,38.25c-5.183,5.183-8.396,12.354-8.396,20.272
				C459,178.398,471.852,191.25,487.688,191.25z M334.688,114.75c15.836,0,28.688-12.852,28.688-28.688V28.688
				C363.375,12.852,350.523,0,334.688,0C318.852,0,306,12.852,306,28.688v57.375C306,101.898,318.852,114.75,334.688,114.75z
				 M314.415,429.146L229.5,514.061l40.564,40.564L306,518.689V650.25h57.375V518.689l35.936,35.936l40.564-40.564l-84.915-84.896
				C343.771,417.938,325.604,417.938,314.415,429.146z M602.438,325.125H496.562c0.191-3.213,0.688-6.311,0.688-9.562
				C497.25,225.809,424.46,153,334.688,153c-89.773,0-162.562,72.809-162.562,162.562c0,3.251,0.497,6.35,0.688,9.562H47.812
				c-15.835,0-28.688,12.852-28.688,28.688S31.977,382.5,47.812,382.5h554.625c15.836,0,28.688-12.852,28.688-28.688
				S618.273,325.125,602.438,325.125z M439.282,325.125H230.093c-0.287-3.175-0.593-6.311-0.593-9.562
				c0-58.006,47.181-105.188,105.188-105.188c58.006,0,105.188,47.181,105.188,105.188
				C439.875,318.814,439.569,321.95,439.282,325.125z M161.396,182.835c5.202,5.202,12.374,8.415,20.292,8.415
				c15.835,0,28.688-12.852,28.688-28.688c0-7.918-3.213-15.09-8.396-20.292l-38.25-38.25c-5.202-5.183-12.374-8.396-20.292-8.396
				c-15.835,0-28.688,12.852-28.688,28.688c0,7.918,3.213,15.09,8.396,20.272L161.396,182.835z"/>
		</g>
	</g>
</g>
<g>
</g>
<g>
</g>
<g>
</g>
<g>
</g>
<g>
</g>
<g>
</g>
<g>
</g>
<g>
</g>
<g>
</g>
<g>
</g>
<g>
</g>
<g>
</g>
<g>
</g>
<g>
</g>
<g>
</g>
</svg>
