<?xml version="1.0" encoding="iso-8859-1"?>
<!-- Generator: Adobe Illustrator 16.0.0, SVG Export Plug-In . SVG Version: 6.00 Build 0)  -->
<!DOCTYPE svg PUBLIC "-//W3C//DTD SVG 1.1//EN" "http://www.w3.org/Graphics/SVG/1.1/DTD/svg11.dtd">
<svg version="1.1" id="Capa_1" xmlns="http://www.w3.org/2000/svg" xmlns:xlink="http://www.w3.org/1999/xlink" x="0px" y="0px"
	 width="92.925px" height="92.925px" viewBox="0 0 92.925 92.925" style="enable-background:new 0 0 92.925 92.925;"
	 xml:space="preserve">
<g>
	<g>
		<g>
			<path d="M55.513,72.889c6.368,0,11.662-4.466,12.963-10.435c6.338-1.01,11.194-6.447,11.194-13.072
				c0-2.738-0.832-5.284-2.263-7.4c0.746-1.651,1.171-3.474,1.171-5.4c0-5.701-3.607-10.526-8.662-12.412
				c1.058-1.903,1.711-4.062,1.711-6.393c0-7.33-5.943-13.276-13.284-13.276c-2.614,0-5.048,0.787-7.108,2.094
				C48.928,2.667,44.71,0,39.822,0c-6.283,0-11.51,4.374-12.898,10.229c-5.713,0.887-10.402,5.407-11.151,11.432
				c-0.39,3.164,0.406,6.167,1.987,8.668c-2.736,2.437-4.504,5.944-4.504,9.897c0,4.702,2.461,8.807,6.148,11.168
				c-0.561,1.469-0.905,3.053-0.905,4.716c0,5.729,3.645,10.568,8.73,12.43c2.431,2.655,5.889,4.35,9.77,4.35
				c2.334,0,4.492-0.654,6.398-1.701v19.391h-25.42v2.347h55.136v-2.347h-25.44V70.277C49.876,71.899,52.576,72.889,55.513,72.889z"
				/>
		</g>
	</g>
</g>
<g>
</g>
<g>
</g>
<g>
</g>
<g>
</g>
<g>
</g>
<g>
</g>
<g>
</g>
<g>
</g>
<g>
</g>
<g>
</g>
<g>
</g>
<g>
</g>
<g>
</g>
<g>
</g>
<g>
</g>
</svg>
