ply
format ascii 1.0
comment Created by Blender 2.78 (sub 0) - www.blender.org, source file: 'soult.blend'
element vertex 338
property float x
property float y
property float z
property float nx
property float ny
property float nz
property float s
property float t
element face 294
property list uchar uint vertex_indices
end_header
-15.232483 0.001757 -10.114895 0.560564 0.320780 -0.763421 0.925356 0.753956
-15.242273 0.060456 -10.097533 0.507859 0.204047 -0.836879 0.925356 0.759423
-15.226316 0.061146 -10.042905 0.954466 0.165746 0.247932 0.919194 0.759423
-15.210701 0.001759 -10.038636 0.908750 0.264931 0.322398 0.919194 0.753956
-15.273579 0.059954 -10.010274 0.041322 0.162999 0.985748 0.913461 0.759423
-15.276114 0.000902 -9.993708 -0.043641 0.269448 0.962004 0.913461 0.753956
-15.276114 0.000902 -9.993708 -0.043641 0.269448 0.962004 0.943056 0.753956
-15.273579 0.059954 -10.010274 0.041322 0.162999 0.985748 0.943056 0.759423
-15.319086 0.058303 -10.044562 -0.924467 0.194647 0.327799 0.936816 0.759423
-15.338659 0.000059 -10.041978 -0.913694 0.320383 0.249886 0.936816 0.753956
-15.305134 0.308380 -10.065097 -0.868587 0.107913 -0.483596 0.930679 0.784634
-15.299587 0.058556 -10.098463 -0.620869 0.221015 -0.752068 0.930679 0.759423
-15.313776 0.172327 -10.037726 -0.960540 -0.178045 0.213660 0.936816 0.772608
-15.310280 0.255456 -10.033053 -0.913236 0.374340 0.160741 0.936816 0.779878
-15.296158 0.311093 -10.024235 -0.638630 0.035585 0.768639 0.936816 0.784634
-15.311546 0.000568 -10.116747 -0.535600 0.348796 -0.769036 0.930679 0.753956
-15.207495 0.545430 -10.056005 -0.859859 0.510269 -0.014496 0.926285 0.766647
-15.241772 0.517559 -10.055311 -0.168187 0.901486 0.398694 0.924071 0.761578
-15.243872 0.512789 -10.051724 -0.110508 0.797235 0.593432 0.924264 0.761053
-15.237194 0.507403 -10.038783 -0.154973 0.955657 0.250282 0.925793 0.761110
-15.232458 0.501386 -10.025644 0.407514 0.241096 0.880764 0.927324 0.761123
-15.207808 0.543662 -10.039814 -0.474197 0.328806 0.816675 0.927686 0.766745
-15.268276 0.176400 -10.016741 0.386792 -0.168950 0.906552 0.913461 0.771034
-15.235603 0.315374 -10.066916 0.978790 -0.204810 -0.002716 0.919194 0.784634
-15.252417 0.315491 -10.025301 0.528123 -0.050600 0.847621 0.913461 0.784634
-15.265959 0.259951 -10.023238 0.438520 0.171636 0.882168 0.913461 0.779208
-15.267782 0.311328 -10.091105 -0.004456 -0.085177 -0.996338 0.925356 0.784634
-15.265959 0.259951 -10.023238 0.438520 0.171636 0.882168 0.943056 0.779878
-15.252417 0.315491 -10.025301 0.528123 -0.050600 0.847621 0.943056 0.784634
-15.268276 0.176400 -10.016741 0.386792 -0.168950 0.906552 0.943056 0.772608
-15.279249 0.253121 -10.010755 0.139531 0.506424 0.850887 0.942187 0.779365
-15.280300 0.184739 -10.005224 0.110233 -0.350383 0.930082 0.941571 0.773056
-15.284712 0.246700 -10.012490 -0.522721 -0.309458 0.794336 0.941532 0.778677
-15.311781 0.244043 -10.018135 0.051607 -0.286203 0.956755 0.938557 0.778614
-15.310614 0.243914 -10.020822 0.349437 -0.561388 0.750114 0.938743 0.778402
-15.283564 0.246570 -10.015199 -0.735710 -0.558214 0.383526 0.941170 0.778310
-15.317766 0.181276 -10.022502 -0.803217 -0.410199 0.431898 0.937297 0.773131
-15.315952 0.249399 -10.019471 -0.779443 0.418867 0.465804 0.938211 0.779004
-15.255022 0.479188 -10.087210 -0.228309 -0.404065 -0.885739 0.925478 0.769771
-15.281132 0.468764 -10.048166 -0.799768 -0.469924 -0.373516 0.931501 0.764229
-15.269096 0.492655 -10.072874 -0.685507 -0.381085 -0.620319 0.929637 0.769907
-15.486361 0.564037 -10.109694 0.124699 0.178899 -0.975921 0.928683 0.775827
-15.264219 0.504752 -10.073956 -0.710593 0.464400 -0.528550 0.928700 0.755690
-15.269096 0.492655 -10.072874 -0.685507 -0.381085 -0.620319 0.929359 0.755690
-15.281132 0.468764 -10.048166 -0.799768 -0.469924 -0.373516 0.931011 0.755690
-15.509548 0.550780 -10.108108 -0.745842 -0.505417 -0.433821 0.931180 0.775827
-15.264423 0.469450 -10.012748 -0.300882 -0.089572 0.949431 0.936816 0.798434
-15.281132 0.468764 -10.048166 -0.799768 -0.469924 -0.373516 0.930679 0.798434
-15.225080 0.475291 -10.027926 0.667592 -0.149449 0.729331 0.913461 0.798434
-15.223267 0.398486 -10.070364 0.989807 0.100467 -0.100833 0.919194 0.790601
-15.218697 0.478732 -10.073727 0.793664 -0.238929 -0.559435 0.919194 0.798434
-15.191690 0.528125 -10.071335 0.811029 -0.223518 -0.540605 0.931910 0.767038
-15.218697 0.478732 -10.073727 0.793664 -0.238929 -0.559435 0.933433 0.760992
-15.244183 0.487902 -10.088425 0.449171 -0.260018 -0.854732 0.936463 0.760125
-15.243795 0.500467 -10.084629 0.456008 0.285623 -0.842891 0.936801 0.761148
-15.207178 0.542934 -10.071931 -0.311472 0.413434 -0.855556 0.933887 0.767176
-15.253656 0.332588 -10.101504 0.003296 -0.202673 -0.979217 0.923802 0.785269
-15.228582 0.334453 -10.084361 0.856227 -0.278695 -0.434950 0.920222 0.785147
-15.243263 0.395831 -10.090732 0.484909 0.779687 -0.396100 0.926436 0.795257
-15.251320 0.379838 -10.095458 -0.139988 0.052828 -0.988739 0.924792 0.796031
-15.243654 0.421433 -10.122664 -0.115665 -0.376965 -0.918943 0.925252 0.792545
-15.239923 0.430111 -10.120378 0.627766 0.774346 -0.078921 0.925698 0.792295
-15.250198 0.395164 -10.093822 -0.767327 0.635151 -0.088076 0.924200 0.790158
-15.258627 0.394163 -10.086911 -0.486984 0.282479 -0.826441 0.925356 0.790601
-15.223333 0.397161 -10.081039 0.717826 0.604633 -0.345134 0.920843 0.790030
-15.243263 0.395831 -10.090732 0.484909 0.779687 -0.396100 0.923348 0.790140
-15.251320 0.379838 -10.095458 -0.139988 0.052828 -0.988739 0.924257 0.788818
-15.225080 0.475291 -10.027926 0.667592 -0.149449 0.729331 0.943056 0.798434
-15.239929 0.484791 -10.022434 0.291574 0.009033 0.956481 0.939648 0.798434
-15.247696 0.483618 -10.019499 0.118564 0.040071 0.992126 0.938735 0.798434
-15.183332 0.624592 -10.034998 -0.987152 0.043611 0.153539 0.928751 0.774784
-15.180454 0.628343 -10.041993 -0.680013 0.682455 0.267891 0.928643 0.775039
-15.255432 0.520272 -10.052032 0.018799 0.895016 0.445631 0.927064 0.755690
-15.484863 0.564425 -10.092723 0.727744 0.678030 -0.103061 0.927054 0.775827
-15.241772 0.517559 -10.055311 -0.168187 0.901486 0.398694 0.934869 0.772424
-15.255432 0.520272 -10.052032 0.018799 0.895016 0.445631 0.932894 0.772276
-15.251091 0.514572 -10.050152 0.226478 0.796136 0.561083 0.933539 0.771618
-15.243872 0.512789 -10.051724 -0.110508 0.797235 0.593432 0.934596 0.771655
-15.225080 0.475291 -10.027926 0.667592 -0.149449 0.729331 0.929451 0.760167
-15.194777 0.524164 -10.042484 0.762383 -0.253578 0.595355 0.929513 0.766872
-15.178137 0.616258 -10.034181 0.536546 -0.403729 0.740989 0.929060 0.774676
-15.181858 0.661872 -9.965673 0.089938 -0.314127 0.945097 0.928775 0.774471
-15.186253 0.666143 -9.966362 -0.704123 0.347972 0.618915 0.928780 0.774463
-15.168797 0.617623 -10.054346 0.879574 -0.161290 -0.447554 0.930423 0.774917
-15.173948 0.620820 -10.039971 0.959014 -0.031648 0.281533 0.929195 0.774892
-15.179537 0.626305 -10.058922 -0.658803 0.113651 -0.743645 0.931830 0.775130
-15.134327 0.870703 -10.120441 -0.577685 0.394665 -0.714469 0.929621 0.791397
-15.124342 0.870888 -10.121677 0.695364 0.382092 -0.608631 0.929519 0.791383
-15.178686 0.665523 -9.969465 0.877438 0.359355 0.317698 0.928775 0.774456
-15.183247 0.668815 -9.971245 -0.101535 0.994812 0.001404 0.928776 0.774461
-15.130674 0.873914 -10.112509 -0.407636 0.821680 0.398267 0.929638 0.791490
-15.124363 0.872816 -10.113799 0.601672 0.665365 0.441847 0.929527 0.791425
-15.179537 0.626305 -10.058922 -0.658803 0.113651 -0.743645 0.927297 0.774962
-15.509346 0.873610 -9.975853 -0.884579 0.452193 -0.114017 0.929974 0.784652
-15.503784 0.878372 -9.982325 0.102420 0.836756 -0.537889 0.929317 0.784593
-15.243795 0.500467 -10.084629 0.456008 0.285623 -0.842891 0.921027 0.761672
-15.207178 0.542934 -10.071931 -0.311472 0.413434 -0.855556 0.924850 0.766547
-15.264423 0.469450 -10.012748 -0.300882 -0.089572 0.949431 0.934113 0.755690
-15.504335 0.553791 -10.080159 -0.581988 -0.497269 0.643422 0.934025 0.775827
-15.490740 0.564896 -10.075843 0.415662 0.158513 0.895566 0.924906 0.775827
-15.252388 0.500279 -10.018953 -0.228339 -0.076205 0.970580 0.924828 0.755690
-15.250576 0.507744 -10.034569 -0.102664 0.993042 -0.057649 0.925840 0.755690
-15.251091 0.514572 -10.050152 0.226478 0.796136 0.561083 0.926829 0.755690
-15.497629 0.879361 -9.977985 0.707205 0.686514 0.168828 0.928743 0.785458
-15.500628 0.874923 -9.965457 -0.414197 0.151646 0.897427 0.931152 0.785710
-15.497549 0.879929 -9.970286 0.193213 0.622669 0.758232 0.929363 0.797726
-15.490740 0.564896 -10.075843 0.415662 0.158513 0.895566 0.935536 0.775827
-15.255022 0.479188 -10.087210 -0.228309 -0.404065 -0.885739 0.925356 0.798434
-15.247696 0.483618 -10.019499 0.118564 0.040071 0.992126 0.935423 0.755690
-15.252388 0.500279 -10.018953 -0.228339 -0.076205 0.970580 0.935701 0.755690
-15.264219 0.504752 -10.073956 -0.710593 0.464400 -0.528550 0.929357 0.772733
-15.243795 0.500467 -10.084629 0.456008 0.285623 -0.842891 0.926056 0.773663
-15.248373 0.501662 -10.090163 0.227393 0.686972 -0.690146 0.926497 0.772688
-15.265722 0.505178 -10.081168 -0.499893 0.802637 -0.325266 0.928256 0.771926
-15.250576 0.507744 -10.034569 -0.102664 0.993042 -0.057649 0.933852 0.769458
-15.237194 0.507403 -10.038783 -0.154973 0.955657 0.250282 0.935831 0.769797
-15.270494 0.543992 -10.108153 -0.876858 -0.263588 -0.401990 0.929632 0.779130
-15.254215 0.540093 -10.113837 0.447707 -0.321635 -0.834284 0.927547 0.779349
-15.255022 0.479188 -10.087210 -0.228309 -0.404065 -0.885739 0.936957 0.758910
-15.269817 0.495031 -10.080259 -0.941740 -0.003662 -0.336283 0.928463 0.770773
-15.248655 0.491126 -10.093330 0.241951 -0.024995 -0.969939 0.925778 0.771916
-15.257881 0.483775 -10.092310 -0.390606 -0.443007 -0.806909 0.926348 0.770793
-15.244183 0.487902 -10.088425 0.449171 -0.260018 -0.854732 0.924728 0.772202
-15.267582 0.560900 -10.096647 -0.608997 0.357402 0.708029 0.932143 0.780155
-15.267372 0.685739 -10.134480 -0.431257 0.349284 0.831843 0.931917 0.795229
-15.271406 0.679384 -10.142402 -0.936918 -0.201025 -0.285867 0.931046 0.795029
-15.256960 0.559412 -10.097762 0.804254 0.407819 0.432234 0.933606 0.780113
-15.241772 0.517559 -10.055311 -0.168187 0.901486 0.398694 0.921842 0.774374
-15.256960 0.559412 -10.097762 0.804254 0.407819 0.432234 0.925162 0.781075
-15.262005 0.685041 -10.135634 0.776208 0.326273 0.539415 0.929691 0.795396
-15.263468 0.678127 -10.146194 0.572680 -0.264016 -0.776086 0.930275 0.795128
-15.276724 0.744123 -10.187618 0.320536 0.117069 -0.939940 0.931344 0.797013
-15.275368 0.751085 -10.177066 0.584796 0.810175 0.039918 0.930882 0.796552
-15.262005 0.685041 -10.135634 0.776208 0.326273 0.539415 0.932316 0.795251
-15.284744 0.745315 -10.183804 -0.835719 0.225684 -0.500626 0.939239 0.760662
-15.280727 0.751756 -10.175901 -0.447157 0.845912 0.290536 0.939290 0.760840
-15.275368 0.751085 -10.177066 0.584796 0.810175 0.039918 0.939613 0.760985
-15.276724 0.744123 -10.187618 0.320536 0.117069 -0.939940 0.939166 0.760510
-15.267372 0.685739 -10.134480 -0.431257 0.349284 0.831843 0.938539 0.762277
-15.262005 0.685041 -10.135634 0.776208 0.326273 0.539415 0.938141 0.762242
-15.280727 0.751756 -10.175901 -0.447157 0.845912 0.290536 0.931209 0.796687
-15.284744 0.745315 -10.183804 -0.835719 0.225684 -0.500626 0.931266 0.796864
-15.232458 0.501386 -10.025644 0.407514 0.241096 0.880764 0.931283 0.768120
-15.252388 0.500279 -10.018953 -0.228339 -0.076205 0.970580 0.932954 0.768733
-15.247696 0.483618 -10.019499 0.118564 0.040071 0.992126 0.932210 0.769740
-15.239929 0.484791 -10.022434 0.291574 0.009033 0.956481 0.931582 0.769460
-15.289108 0.560765 -9.970573 -0.697714 0.716239 0.011902 0.934407 0.764940
-15.278614 0.559821 -9.971465 0.318888 0.947752 0.007202 0.936559 0.757425
-15.239929 0.484791 -10.022434 0.291574 0.009033 0.956481 0.927660 0.759549
-15.291637 0.552542 -9.962850 -0.649617 -0.119541 0.750755 0.933966 0.764978
-15.276335 0.552166 -9.964192 0.558184 0.123569 0.820429 0.933518 0.764671
-15.237194 0.507403 -10.038783 -0.154973 0.955657 0.250282 0.928981 0.767843
-15.241283 0.388635 -10.090134 0.615009 -0.382122 -0.689718 0.923016 0.789578
-15.228514 0.389535 -10.083770 0.238350 -0.238289 -0.941465 0.921333 0.789441
-15.230265 0.388483 -10.079683 -0.248268 -0.466140 -0.849147 0.921623 0.789112
-15.243019 0.387570 -10.086036 0.684927 -0.579974 -0.440931 0.922817 0.789143
-15.243906 0.429724 -10.121923 -0.485794 0.772729 -0.408490 0.925441 0.791157
-15.250198 0.395164 -10.093822 -0.767327 0.635151 -0.088076 0.927375 0.794717
-15.250198 0.395164 -10.093822 -0.767327 0.635151 -0.088076 0.923906 0.794903
-15.312668 0.187149 -10.020844 -0.064425 0.304788 0.950224 0.937972 0.773712
-15.285425 0.189832 -10.007277 -0.641499 0.329417 0.692770 0.941188 0.773505
-15.311607 0.186992 -10.023615 0.324534 0.591723 0.737907 0.938336 0.774045
-15.284369 0.189683 -10.010050 -0.755669 0.589740 0.284860 0.940985 0.773741
-15.248785 0.340372 -10.097457 0.740684 0.314463 -0.593677 0.923298 0.785819
-15.232494 0.341572 -10.086778 0.099734 0.389752 -0.915494 0.920940 0.785831
-15.246511 0.378153 -10.093212 0.891232 -0.160497 -0.424146 0.923733 0.788658
-15.234825 0.340504 -10.082966 -0.239875 0.660329 -0.711600 0.921460 0.786324
-15.251118 0.339291 -10.093645 0.743950 0.651845 -0.146825 0.923011 0.786167
-15.248375 0.377081 -10.089164 0.938810 -0.182470 -0.292032 0.923231 0.788488
-16.041550 -0.000068 -10.420921 -0.649190 0.364086 0.667806 0.925356 0.753956
-16.026407 0.057169 -10.437471 -0.673238 0.207801 0.709586 0.925356 0.759423
-16.035727 0.057947 -10.493619 -0.882992 0.213233 -0.418104 0.919194 0.759423
-16.054096 0.000086 -10.499237 -0.854213 0.314676 -0.413800 0.919194 0.753956
-15.983666 0.058209 -10.519957 0.098148 0.172155 -0.980163 0.913461 0.759423
-15.982446 0.000144 -10.535601 0.139653 0.257302 -0.956175 0.913461 0.753956
-15.982446 0.000144 -10.535601 0.139653 0.257302 -0.956175 0.943056 0.753956
-15.983666 0.058209 -10.519957 0.098148 0.172155 -0.980163 0.943056 0.759423
-15.942159 0.057701 -10.480121 0.966063 0.147862 -0.211646 0.936816 0.759423
-15.925588 0.000111 -10.479838 0.950896 0.277718 -0.136479 0.936816 0.753956
-15.962329 0.294199 -10.427427 0.412793 -0.033692 0.910184 0.930679 0.784634
-15.968558 0.056885 -10.429226 0.506546 0.175451 0.844142 0.930679 0.759423
-15.944337 0.170429 -10.487991 0.972564 -0.214637 -0.089633 0.936816 0.772608
-15.948487 0.249969 -10.485710 0.924436 0.377636 -0.052858 0.936816 0.779878
-15.950643 0.299205 -10.466547 0.995972 0.082461 0.034913 0.936816 0.784634
-15.962083 -0.000167 -10.409146 0.413739 0.340251 0.844417 0.930679 0.753956
-15.972699 0.514220 -10.503772 -0.414136 0.500137 0.760460 0.926285 0.766647
-15.996364 0.482434 -10.460186 0.243873 0.930113 0.274545 0.924071 0.761578
-15.994599 0.478115 -10.455226 0.350200 0.882443 0.314005 0.924264 0.761053
-15.976056 0.474642 -10.452254 0.011414 0.994293 0.106052 0.925793 0.761110
-15.958846 0.471106 -10.448536 0.935911 0.302774 0.179815 0.927324 0.761123
-15.955279 0.514891 -10.496990 0.163549 0.181921 0.969604 0.927686 0.766745
-15.987363 0.171847 -10.514888 -0.235389 -0.114444 -0.965117 0.913461 0.771034
-16.020821 0.296915 -10.467052 -0.754753 -0.199408 -0.624928 0.919194 0.784634
-15.981711 0.300663 -10.489579 0.297891 0.153264 -0.942198 0.913461 0.784634
-15.987864 0.251578 -10.503597 -0.308176 0.362651 -0.879482 0.913461 0.779208
-16.008148 0.292822 -10.423157 -0.577074 -0.168859 0.799036 0.925356 0.784634
-15.987864 0.251578 -10.503597 -0.308176 0.362651 -0.879482 0.943056 0.779878
-15.981711 0.300663 -10.489579 0.297891 0.153264 -0.942198 0.943056 0.784634
-15.987363 0.171847 -10.514888 -0.235389 -0.114444 -0.965117 0.943056 0.772608
-15.975011 0.246782 -10.515353 -0.086489 0.572192 -0.815516 0.942187 0.779365
-15.973874 0.180959 -10.524694 -0.008393 -0.327769 -0.944700 0.941571 0.773056
-15.971131 0.241074 -10.514045 0.650716 -0.208075 -0.730247 0.941532 0.778677
-15.945989 0.240363 -10.504806 0.153813 -0.203467 -0.966918 0.938557 0.778614
-15.947417 0.240017 -10.502150 -0.222968 -0.538224 -0.812738 0.938743 0.778402
-15.972564 0.240741 -10.511415 0.799768 -0.512803 -0.312021 0.941170 0.778310
-15.938468 0.179795 -10.502529 0.863613 -0.369335 -0.343120 0.937297 0.773131
-15.941861 0.245616 -10.501491 0.790216 0.516526 -0.329691 0.938211 0.779004
-16.036694 0.441409 -10.453180 -0.881008 -0.468123 0.068331 0.925478 0.769771
-16.012888 0.437954 -10.412222 -0.401013 -0.183660 0.897458 0.931501 0.764229
-16.030140 0.457769 -10.437984 -0.849879 -0.014069 0.526749 0.929637 0.769907
-16.009281 0.664224 -10.331938 -0.570605 0.294259 -0.766656 0.928683 0.775827
-16.028193 0.469065 -10.446280 -0.802210 0.509079 0.311838 0.928700 0.755690
-16.030140 0.457769 -10.437984 -0.849879 -0.014069 0.526749 0.929359 0.755690
-16.012888 0.437954 -10.412222 -0.401013 -0.183660 0.897458 0.931011 0.755690
-16.014763 0.658390 -10.309639 -0.752373 -0.427198 0.501389 0.931180 0.775827
-15.970962 0.442773 -10.413431 0.796777 -0.184790 0.575274 0.936816 0.798434
-16.012888 0.437954 -10.412222 -0.401013 -0.183660 0.897458 0.930679 0.798434
-15.955060 0.445195 -10.455711 0.912595 -0.087985 -0.399213 0.913461 0.798434
-16.011269 0.368869 -10.477574 -0.306864 0.145756 -0.940489 0.919194 0.790601
-15.997991 0.442215 -10.485638 -0.301859 -0.279214 -0.911527 0.919194 0.798434
-15.979842 0.495649 -10.523294 -0.061403 -0.229163 -0.971435 0.931910 0.767038
-15.997991 0.442215 -10.485638 -0.301859 -0.279214 -0.911527 0.933433 0.760992
-16.030138 0.449524 -10.467684 -0.505264 -0.416639 -0.755699 0.936463 0.760125
-16.024784 0.462095 -10.469055 -0.576586 0.122410 -0.807794 0.936801 0.761148
-15.990445 0.509437 -10.509463 -0.768670 0.520127 -0.372234 0.933887 0.767176
-16.030542 0.310057 -10.423302 -0.694479 -0.277139 0.663991 0.923802 0.785269
-16.036301 0.312306 -10.459809 -0.834651 -0.360057 -0.416730 0.920222 0.785147
-16.035259 0.364707 -10.449113 -0.603900 0.708945 -0.364208 0.926436 0.795257
-16.037109 0.350698 -10.435143 -0.762261 -0.002503 0.647237 0.924792 0.796031
-16.068598 0.386341 -10.446994 -0.822199 -0.295236 0.486587 0.925252 0.792545
-16.065962 0.394083 -10.456462 -0.078188 0.573901 -0.815149 0.925698 0.792295
-16.037811 0.364064 -10.439872 0.123051 0.738182 0.663228 0.924200 0.790158
-16.030008 0.363761 -10.431684 -0.522874 0.258522 0.812220 0.925356 0.790601
-16.023773 0.366874 -10.475919 -0.573138 0.562273 -0.596088 0.920843 0.790030
-16.035259 0.364707 -10.449113 -0.603900 0.708945 -0.364208 0.923348 0.790140
-16.037109 0.350698 -10.435143 -0.762261 -0.002503 0.647237 0.924257 0.788818
-15.955060 0.445195 -10.455711 0.912595 -0.087985 -0.399213 0.943056 0.798434
-15.962478 0.455249 -10.439459 0.987426 0.083071 0.134342 0.939648 0.798434
-15.965869 0.454822 -10.430405 0.991028 0.007263 0.133305 0.938735 0.798434
-15.910407 0.596719 -10.482059 0.212317 0.183477 0.959807 0.928751 0.774784
-15.914618 0.599086 -10.486259 -0.221809 0.464980 0.857051 0.928643 0.775039
-16.003195 0.486274 -10.447083 0.581622 0.780908 -0.227668 0.927064 0.755690
-15.993064 0.663719 -10.320595 0.535905 0.514420 -0.669454 0.927054 0.775827
-15.996364 0.482434 -10.460186 0.243873 0.930113 0.274545 0.934869 0.772424
-16.003195 0.486274 -10.447083 0.581622 0.780908 -0.227668 0.932894 0.772276
-15.998385 0.480449 -10.448318 0.694693 0.702780 -0.153233 0.933539 0.771618
-15.994599 0.478115 -10.455226 0.350200 0.882443 0.314005 0.934596 0.771655
-15.955060 0.445195 -10.455711 0.912595 -0.087985 -0.399213 0.929451 0.760167
-15.948073 0.494942 -10.506462 0.875210 -0.345286 -0.338755 0.929513 0.766872
-15.904496 0.588902 -10.487150 0.893338 -0.358898 0.270363 0.929060 0.774676
-15.880719 0.640046 -10.528095 0.834407 -0.515030 -0.196173 0.928775 0.774471
-15.884398 0.644612 -10.526725 0.565935 0.317209 0.760949 0.928780 0.774463
-15.914872 0.587079 -10.503080 0.332469 -0.144688 -0.931913 0.930423 0.774917
-15.906186 0.592277 -10.490687 0.324137 -0.329234 -0.886837 0.929195 0.774892
-15.930642 0.594324 -10.498203 -0.969878 0.211737 0.120243 0.931830 0.775130
-15.964747 0.815634 -10.619945 -0.919767 0.343516 -0.189642 0.929621 0.791397
-15.956817 0.814783 -10.627258 0.047670 0.216193 -0.975158 0.929519 0.791383
-15.882203 0.642844 -10.528331 0.723960 -0.653249 -0.221595 0.928775 0.774456
-15.885684 0.646455 -10.525055 -0.769921 0.623829 0.134098 0.928776 0.774461
-15.955609 0.819173 -10.616999 -0.017182 0.905728 0.423475 0.929638 0.791490
-15.951314 0.817386 -10.621902 0.719596 0.644887 -0.257424 0.929527 0.791425
-15.930642 0.594324 -10.498203 -0.969878 0.211737 0.120243 0.927297 0.774962
-16.129950 0.865943 -10.257247 -0.892819 0.127476 0.431959 0.929974 0.784652
-16.130476 0.869585 -10.266300 -0.623432 0.698325 -0.351604 0.929317 0.784593
-16.024784 0.462095 -10.469055 -0.576586 0.122410 -0.807794 0.921027 0.761672
-15.990445 0.509437 -10.509463 -0.768670 0.520127 -0.372234 0.924850 0.766547
-15.970962 0.442773 -10.413431 0.796777 -0.184790 0.575274 0.934113 0.755690
-15.987731 0.654855 -10.288003 0.433058 -0.181555 0.882870 0.934025 0.775827
-15.979081 0.658899 -10.293830 0.945433 0.324076 0.032563 0.924906 0.775827
-15.969262 0.471559 -10.427941 0.852504 -0.219062 0.474593 0.924828 0.755690
-15.983085 0.476050 -10.438503 0.165471 0.885464 -0.434217 0.925840 0.755690
-15.998385 0.480449 -10.448318 0.694693 0.702780 -0.153233 0.926829 0.755690
-16.122210 0.870374 -10.267106 0.304086 0.896207 -0.322977 0.928743 0.785458
-16.113619 0.867344 -10.254590 0.065859 0.286447 0.955809 0.931152 0.785710
-16.114864 0.871602 -10.260761 0.431867 0.875332 0.217383 0.929363 0.797726
-15.979081 0.658899 -10.293830 0.945433 0.324076 0.032563 0.935536 0.775827
-16.036694 0.441409 -10.453180 -0.881008 -0.468123 0.068331 0.925356 0.798434
-15.965869 0.454822 -10.430405 0.991028 0.007263 0.133305 0.935423 0.755690
-15.969262 0.471559 -10.427941 0.852504 -0.219062 0.474593 0.935701 0.755690
-16.028193 0.469065 -10.446280 -0.802210 0.509079 0.311838 0.929357 0.772733
-16.024784 0.462095 -10.469055 -0.576586 0.122410 -0.807794 0.926056 0.773663
-16.031204 0.462931 -10.467468 -0.463515 0.603107 -0.649129 0.926497 0.772688
-16.034271 0.469068 -10.448565 -0.531388 0.842860 0.084628 0.928256 0.771926
-15.983085 0.476050 -10.438503 0.165471 0.885464 -0.434217 0.933852 0.769458
-15.976056 0.474642 -10.452254 0.011414 0.994293 0.106052 0.935831 0.769797
-16.049015 0.508512 -10.469540 -0.897427 -0.126591 0.422590 0.929632 0.779130
-16.042435 0.501968 -10.483970 -0.353923 -0.352824 -0.866146 0.927547 0.779349
-16.036694 0.441409 -10.453180 -0.881008 -0.468123 0.068331 0.936957 0.758910
-16.036179 0.459694 -10.441412 -0.759331 0.216956 0.613422 0.928463 0.770773
-16.035664 0.452385 -10.466128 -0.747337 -0.106052 -0.655873 0.925778 0.771916
-16.041662 0.445644 -10.453833 -0.928007 -0.372204 0.015473 0.926348 0.770793
-16.030138 0.449524 -10.467684 -0.505264 -0.416639 -0.755699 0.924728 0.772202
-16.037432 0.527623 -10.466578 0.215522 0.455580 0.863704 0.932143 0.780155
-16.069334 0.642627 -10.500148 0.482040 0.503708 0.716849 0.931917 0.795229
-16.076906 0.636013 -10.503307 -0.658254 -0.437971 0.612232 0.931046 0.795029
-16.032816 0.524278 -10.474763 0.871364 0.331034 -0.362072 0.933606 0.780113
-15.996364 0.482434 -10.460186 0.243873 0.930113 0.274545 0.921842 0.774374
-16.032816 0.524278 -10.474763 0.871364 0.331034 -0.362072 0.925162 0.781075
-16.066229 0.641403 -10.504094 0.779199 0.469253 -0.415418 0.929691 0.795396
-16.073160 0.633866 -10.511139 -0.176641 -0.179662 -0.967711 0.930275 0.795128
-16.159924 0.697554 -10.492591 -0.814814 0.000275 -0.579669 0.931344 0.797013
-16.149885 0.705180 -10.491643 0.083560 0.877743 -0.471755 0.930882 0.796552
-16.066229 0.641403 -10.504094 0.779199 0.469253 -0.415418 0.932316 0.795251
-16.158401 0.699701 -10.484571 -0.826746 -0.009644 0.562456 0.939239 0.760662
-16.150589 0.706399 -10.485670 -0.076724 0.765740 0.638508 0.939290 0.760840
-16.149885 0.705180 -10.491643 0.083560 0.877743 -0.471755 0.939613 0.760985
-16.159924 0.697554 -10.492591 -0.814814 0.000275 -0.579669 0.939166 0.760510
-16.069334 0.642627 -10.500148 0.482040 0.503708 0.716849 0.938539 0.762277
-16.066229 0.641403 -10.504094 0.779199 0.469253 -0.415418 0.938141 0.762242
-16.150589 0.706399 -10.485670 -0.076724 0.765740 0.638508 0.931209 0.796687
-16.158401 0.699701 -10.484571 -0.826746 -0.009644 0.562456 0.931266 0.796864
-15.958846 0.471106 -10.448536 0.935911 0.302774 0.179815 0.931283 0.768120
-15.969262 0.471559 -10.427941 0.852504 -0.219062 0.474593 0.932954 0.768733
-15.965869 0.454822 -10.430405 0.991028 0.007263 0.133305 0.932210 0.769740
-15.962478 0.455249 -10.439459 0.987426 0.083071 0.134342 0.931582 0.769460
-15.935151 0.547757 -10.374480 -0.378704 0.808740 0.449995 0.934407 0.764940
-15.928905 0.545948 -10.382833 0.183294 0.900021 -0.395367 0.936559 0.757425
-15.962478 0.455249 -10.439459 0.987426 0.083071 0.134342 0.927660 0.759549
-15.930425 0.540690 -10.366159 0.227424 -0.018159 0.973601 0.933966 0.764978
-15.921050 0.539173 -10.378256 0.986785 0.156682 0.041108 0.933518 0.764671
-15.976056 0.474642 -10.452254 0.011414 0.994293 0.106052 0.928981 0.767843
-16.034616 0.358460 -10.450375 -0.771783 -0.460250 -0.438734 0.923016 0.789578
-16.028646 0.359831 -10.468026 -0.989380 -0.122257 -0.078555 0.921333 0.789441
-16.024372 0.359141 -10.466916 -0.663961 -0.473037 0.579089 0.921623 0.789112
-16.030144 0.357754 -10.449443 -0.617298 -0.672445 -0.408277 0.922817 0.789143
-16.067665 0.393735 -10.451668 -0.552629 0.791009 0.262337 0.925441 0.791157
-16.037811 0.364064 -10.439872 0.123051 0.738182 0.663228 0.927375 0.794717
-16.037811 0.364064 -10.439872 0.123051 0.738182 0.663228 0.923906 0.794903
-15.943471 0.185260 -10.504863 0.209815 0.346019 -0.914457 0.937972 0.773712
-15.969081 0.186245 -10.521984 0.692526 0.357524 -0.626514 0.941188 0.773505
-15.944892 0.184980 -10.502265 -0.258339 0.606586 -0.751823 0.938336 0.774045
-15.970500 0.185974 -10.519382 0.762963 0.625904 -0.161565 0.940985 0.773741
-16.033098 0.316736 -10.431358 -0.968902 0.097995 -0.227058 0.923298 0.785819
-16.035362 0.318234 -10.455233 -0.865383 0.430921 0.255745 0.920940 0.785831
-16.036089 0.349262 -10.441353 -0.748344 -0.360485 -0.556749 0.923733 0.788658
-16.030926 0.317512 -10.455666 -0.558763 0.683828 0.469161 0.921460 0.786324
-16.028717 0.316013 -10.432044 -0.491409 0.577654 -0.651753 0.923011 0.786167
-16.031607 0.348547 -10.440787 -0.610645 -0.346721 -0.711936 0.923231 0.788488
4 0 1 2 3
4 3 2 4 5
4 6 7 8 9
3 10 11 8
3 8 12 13
3 13 14 10
3 8 13 10
4 9 8 11 15
4 1 0 15 11
3 16 17 18
3 19 20 21
3 16 18 19
3 19 21 16
3 22 4 2
3 2 23 24
3 24 25 22
3 2 24 22
4 1 11 10 26
4 2 1 26 23
4 13 27 28 14
4 8 7 29 12
4 29 27 30 31
4 32 33 34 35
4 13 12 36 37
4 12 29 31 36
4 27 13 37 30
3 38 39 40
3 41 42 43
3 43 44 45
3 43 45 41
4 10 14 46 47
3 48 24 23
3 23 49 50
3 23 50 48
3 51 52 53
3 53 54 55
3 53 55 51
4 23 26 56 57
4 58 59 60 61
3 62 63 49
3 49 64 65
3 49 65 62
3 56 26 63
3 63 62 66
3 63 66 56
4 49 23 57 64
3 46 14 28
3 28 67 68
3 68 69 46
3 28 68 46
4 16 21 70 71
4 72 42 41 73
4 74 75 76 77
4 78 52 51 79
4 70 80 81 82
3 80 79 51
3 51 83 84
3 51 84 80
4 21 79 80 70
4 51 55 85 83
4 83 85 86 87
4 88 89 82 81
4 71 70 82 89
4 84 71 89 88
4 80 84 88 81
4 87 86 90 91
4 92 71 90 86
4 84 83 87 91
4 71 84 91 90
4 41 45 93 94
4 95 17 16 96
4 44 97 98 45
3 99 100 101
3 101 102 72
3 72 73 99
3 101 72 99
3 103 94 93
3 93 104 105
3 93 105 103
4 98 106 105 104
4 45 98 104 93
4 73 41 94 103
3 63 26 10
3 10 47 107
3 10 107 63
3 98 97 108
3 108 109 106
3 108 106 98
4 96 16 71 92
4 99 73 103 105
4 110 111 112 113
4 76 114 115 77
4 111 110 116 117
3 52 118 53
4 49 63 107 50
3 119 113 112
3 112 120 121
3 112 121 119
4 38 40 119 121
4 111 122 120 112
4 40 110 113 119
4 122 38 121 120
4 116 123 124 125
4 110 75 123 116
4 75 74 126 123
4 127 111 117 128
4 129 130 131 132
4 117 116 125 130
4 128 117 130 129
4 123 126 133 124
4 134 135 136 137
4 138 139 136 135
4 125 124 140 141
4 130 125 141 131
4 142 143 144 145
4 115 114 146 147
3 21 20 148
3 148 78 79
3 148 79 21
4 146 149 150 147
4 114 143 149 146
4 143 142 150 149
4 142 151 147 150
4 152 153 154 155
3 61 60 156
4 157 58 61 156
4 59 158 156 60
4 159 33 37 36
4 32 160 31 30
4 160 159 36 31
4 33 32 30 37
4 161 162 35 34
4 160 32 35 162
4 159 160 162 161
4 33 159 161 34
4 163 164 57 56
4 164 153 64 57
4 153 152 65 64
4 165 163 56 66
4 152 165 66 65
3 154 166 167
3 167 168 155
3 167 155 154
4 164 163 167 166
4 163 165 168 167
4 153 164 166 154
4 165 152 155 168
4 169 170 171 172
4 172 171 173 174
4 175 176 177 178
3 179 180 177
3 177 181 182
3 182 183 179
3 177 182 179
4 178 177 180 184
4 184 180 170 169
3 185 186 187
3 188 189 190
3 185 187 188
3 188 190 185
3 191 173 171
3 171 192 193
3 194 191 171
3 171 193 194
4 170 180 179 195
4 171 170 195 192
4 182 196 197 183
4 177 176 198 181
4 198 196 199 200
4 201 202 203 204
4 182 181 205 206
4 181 198 200 205
4 196 182 206 199
3 207 208 209
3 210 211 212
3 212 213 214
3 212 214 210
4 179 183 215 216
3 217 193 192
3 192 218 219
3 192 219 217
3 220 221 222
3 222 223 224
3 222 224 220
4 192 195 225 226
4 227 228 229 230
3 231 232 218
3 218 233 234
3 218 234 231
3 225 195 232
3 232 231 235
3 232 235 225
4 218 192 226 233
3 215 183 197
3 197 236 237
3 237 238 215
3 197 237 215
4 185 190 239 240
4 241 211 210 242
4 243 244 245 246
4 247 221 220 248
4 239 249 250 251
3 249 248 220
3 220 252 253
3 220 253 249
4 190 248 249 239
4 220 224 254 252
4 252 254 255 256
4 257 258 251 250
4 240 239 251 258
4 253 240 258 257
4 249 253 257 250
4 256 255 259 260
4 261 240 259 255
4 253 252 256 260
4 240 253 260 259
4 210 214 262 263
4 264 186 185 265
4 213 266 267 214
3 268 269 270
3 270 271 241
3 241 242 268
3 270 241 268
3 272 263 262
3 262 273 274
3 262 274 272
4 267 275 274 273
4 214 267 273 262
4 242 210 263 272
3 232 195 179
3 179 216 276
3 179 276 232
3 267 266 277
3 277 278 275
3 277 275 267
4 265 185 240 261
4 268 242 272 274
4 279 280 281 282
4 245 283 284 246
4 280 279 285 286
3 221 287 222
4 218 232 276 219
3 288 282 281
3 281 289 290
3 281 290 288
4 207 209 288 290
4 280 291 289 281
4 209 279 282 288
4 291 207 290 289
4 285 292 293 294
4 279 244 292 285
4 244 243 295 292
4 296 280 286 297
4 298 299 300 301
4 286 285 294 299
4 297 286 299 298
4 292 295 302 293
4 303 304 305 306
4 307 308 305 304
4 294 293 309 310
4 299 294 310 300
4 311 312 313 314
4 284 283 315 316
3 190 189 317
3 317 247 248
3 317 248 190
4 315 318 319 316
4 283 312 318 315
4 312 311 319 318
4 311 320 316 319
4 321 322 323 324
3 230 229 325
4 326 227 230 325
4 228 327 325 229
4 328 202 206 205
4 201 329 200 199
4 329 328 205 200
4 202 201 199 206
4 330 331 204 203
4 329 201 204 331
4 328 329 331 330
4 202 328 330 203
4 332 333 226 225
4 333 322 233 226
4 322 321 234 233
4 334 332 225 235
4 321 334 235 234
3 323 335 336
3 336 337 324
3 336 324 323
4 333 332 336 335
4 332 334 337 336
4 322 333 335 323
4 334 321 324 337
