ply
format ascii 1.0
comment Created by Blender 2.78 (sub 0) - www.blender.org, source file: 'soult.blend'
element vertex 80
property float x
property float y
property float z
property float nx
property float ny
property float nz
property float s
property float t
element face 20
property list uchar uint vertex_indices
end_header
-35.020626 -0.000000 -9.039711 0.000000 -0.000000 -1.000000 0.000100 0.000100
-36.460629 -0.000000 -9.039711 0.000000 -0.000000 -1.000000 0.999900 0.000100
-36.460629 1.600000 -9.039711 0.000000 -0.000000 -1.000000 0.999900 0.999900
-35.020626 1.600000 -9.039711 0.000000 -0.000000 -1.000000 0.000100 0.999900
-35.740627 -0.000000 -9.759710 1.000000 0.000000 0.000000 0.000100 0.000100
-35.740627 1.600000 -9.759711 1.000000 0.000000 0.000000 0.000100 0.999900
-35.740627 1.600000 -8.319712 1.000000 0.000000 0.000000 0.999900 0.999900
-35.740627 -0.000000 -8.319711 1.000000 0.000000 0.000000 0.999900 0.000100
-34.971401 -0.000000 -9.294258 -0.000000 0.000000 1.000000 0.000100 0.000100
-34.971401 1.600000 -9.294258 -0.000000 0.000000 1.000000 0.000100 0.999900
-36.411404 1.600000 -9.294258 -0.000000 0.000000 1.000000 0.999900 0.999900
-36.411404 -0.000000 -9.294258 -0.000000 0.000000 1.000000 0.999900 0.000100
-35.691402 -0.000000 -10.014257 -1.000000 -0.000000 0.000000 0.000100 0.000100
-35.691402 -0.000000 -8.574258 -1.000000 -0.000000 0.000000 0.999900 0.000100
-35.691402 1.600000 -8.574259 -1.000000 -0.000000 0.000000 0.999900 0.999900
-35.691402 1.600000 -10.014258 -1.000000 -0.000000 0.000000 0.000100 0.999900
-34.613003 -0.000000 -9.430771 0.000000 -0.000000 -1.000000 0.000100 0.000100
-36.053005 -0.000000 -9.430771 0.000000 -0.000000 -1.000000 0.999900 0.000100
-36.053005 1.600000 -9.430771 0.000000 -0.000000 -1.000000 0.999900 0.999900
-34.613003 1.600000 -9.430771 0.000000 -0.000000 -1.000000 0.000100 0.999900
-35.333004 -0.000000 -10.150770 1.000000 0.000000 0.000000 0.000100 0.000100
-35.333004 1.600000 -10.150771 1.000000 0.000000 0.000000 0.000100 0.999900
-35.333004 1.600000 -8.710772 1.000000 0.000000 0.000000 0.999900 0.999900
-35.333004 -0.000000 -8.710771 1.000000 0.000000 0.000000 0.999900 0.000100
-34.408138 -0.000000 -8.862381 -0.000000 0.000000 1.000000 0.000100 0.000100
-34.408138 1.600000 -8.862381 -0.000000 0.000000 1.000000 0.000100 0.999900
-35.848141 1.600000 -8.862381 -0.000000 0.000000 1.000000 0.999900 0.999900
-35.848141 -0.000000 -8.862381 -0.000000 0.000000 1.000000 0.999900 0.000100
-35.128139 -0.000000 -9.582380 1.000000 0.000000 0.000000 0.000100 0.000100
-35.128139 1.600000 -9.582381 1.000000 0.000000 0.000000 0.000100 0.999900
-35.128139 1.600000 -8.142382 1.000000 0.000000 0.000000 0.999900 0.999900
-35.128139 -0.000000 -8.142381 1.000000 0.000000 0.000000 0.999900 0.000100
-34.715328 -0.000000 -8.828781 -0.000000 0.000000 1.000000 0.000100 0.000100
-34.715328 1.600000 -8.828781 -0.000000 0.000000 1.000000 0.000100 0.999900
-36.155331 1.600000 -8.828781 -0.000000 0.000000 1.000000 0.999900 0.999900
-36.155331 -0.000000 -8.828781 -0.000000 0.000000 1.000000 0.999900 0.000100
-35.435329 -0.000000 -9.548780 1.000000 0.000000 0.000000 0.000100 0.000100
-35.435329 1.600000 -9.548781 1.000000 0.000000 0.000000 0.000100 0.999900
-35.435329 1.600000 -8.108782 1.000000 0.000000 0.000000 0.999900 0.999900
-35.435329 -0.000000 -8.108781 1.000000 0.000000 0.000000 0.999900 0.000100
-29.719910 -0.000001 -14.413788 -0.000000 0.000000 1.000000 0.000100 0.000100
-29.719910 1.599999 -14.413788 -0.000000 0.000000 1.000000 0.000100 0.999900
-31.159908 1.599999 -14.413788 -0.000000 0.000000 1.000000 0.999900 0.999900
-31.159908 -0.000001 -14.413788 -0.000000 0.000000 1.000000 0.999900 0.000100
-30.439909 -0.000001 -15.133788 1.000000 0.000000 0.000000 0.000100 0.000100
-30.439909 1.599999 -15.133788 1.000000 0.000000 0.000000 0.000100 0.999900
-30.439909 1.599999 -13.693788 1.000000 0.000000 0.000000 0.999900 0.999900
-30.439909 -0.000001 -13.693788 1.000000 0.000000 0.000000 0.999900 0.000100
-29.412659 -0.000001 -14.919708 -0.000000 0.000000 1.000000 0.000100 0.000100
-29.412659 1.599999 -14.919708 -0.000000 0.000000 1.000000 0.000100 0.999900
-30.852657 1.599999 -14.919708 -0.000000 0.000000 1.000000 0.999900 0.999900
-30.852657 -0.000001 -14.919708 -0.000000 0.000000 1.000000 0.999900 0.000100
-30.132658 -0.000001 -15.639709 1.000000 0.000000 0.000000 0.000100 0.000100
-30.132658 1.599999 -15.639709 1.000000 0.000000 0.000000 0.000100 0.999900
-30.132658 1.599999 -14.199708 1.000000 0.000000 0.000000 0.999900 0.999900
-30.132658 -0.000001 -14.199708 1.000000 0.000000 0.000000 0.999900 0.000100
-29.971863 -0.000001 -13.941681 -0.000000 0.000000 1.000000 0.000100 0.000100
-29.971863 1.599999 -13.941681 -0.000000 0.000000 1.000000 0.000100 0.999900
-31.411861 1.599999 -13.941681 -0.000000 0.000000 1.000000 0.999900 0.999900
-31.411861 -0.000001 -13.941681 -0.000000 0.000000 1.000000 0.999900 0.000100
-30.691862 -0.000001 -14.661681 1.000000 0.000000 0.000000 0.000100 0.000100
-30.691862 1.599999 -14.661681 1.000000 0.000000 0.000000 0.000100 0.999900
-30.691862 1.599999 -13.221681 1.000000 0.000000 0.000000 0.999900 0.999900
-30.691862 -0.000001 -13.221681 1.000000 0.000000 0.000000 0.999900 0.000100
-30.231628 -0.000001 -13.479393 -0.000000 0.000000 1.000000 0.000100 0.000100
-30.231628 1.599999 -13.479393 -0.000000 0.000000 1.000000 0.000100 0.999900
-31.671627 1.599999 -13.479393 -0.000000 0.000000 1.000000 0.999900 0.999900
-31.671627 -0.000001 -13.479393 -0.000000 0.000000 1.000000 0.999900 0.000100
-30.951628 -0.000001 -14.199393 -1.000000 -0.000000 0.000000 0.000100 0.000100
-30.951628 -0.000000 -12.759393 -1.000000 -0.000000 0.000000 0.999900 0.000100
-30.951628 1.599999 -12.759393 -1.000000 -0.000000 0.000000 0.999900 0.999900
-30.951628 1.599999 -14.199393 -1.000000 -0.000000 0.000000 0.000100 0.999900
-31.237549 -0.000001 -19.719711 -0.000000 0.000000 1.000000 0.000100 0.000100
-31.237549 1.599999 -19.719711 -0.000000 0.000000 1.000000 0.000100 0.999900
-32.677547 1.599999 -19.719711 -0.000000 0.000000 1.000000 0.999900 0.999900
-32.677547 -0.000001 -19.719711 -0.000000 0.000000 1.000000 0.999900 0.000100
-31.957548 -0.000001 -20.439711 1.000000 0.000000 0.000000 0.000100 0.000100
-31.957548 1.599999 -20.439713 1.000000 0.000000 0.000000 0.000100 0.999900
-31.957548 1.599999 -18.999712 1.000000 0.000000 0.000000 0.999900 0.999900
-31.957548 -0.000001 -18.999710 1.000000 0.000000 0.000000 0.999900 0.000100
4 0 1 2 3
4 4 5 6 7
4 8 9 10 11
4 12 13 14 15
4 16 17 18 19
4 20 21 22 23
4 24 25 26 27
4 28 29 30 31
4 32 33 34 35
4 36 37 38 39
4 40 41 42 43
4 44 45 46 47
4 48 49 50 51
4 52 53 54 55
4 56 57 58 59
4 60 61 62 63
4 64 65 66 67
4 68 69 70 71
4 72 73 74 75
4 76 77 78 79
