ply
format ascii 1.0
comment Created by Blender 2.78 (sub 0) - www.blender.org, source file: 'soult.blend'
element vertex 507
property float x
property float y
property float z
property float nx
property float ny
property float nz
property float s
property float t
element face 441
property list uchar uint vertex_indices
end_header
-18.140568 0.001757 -11.628912 -0.931364 0.320811 -0.171941 0.925356 0.753956
-18.120674 0.060456 -11.627663 -0.974548 0.204047 -0.092502 0.925356 0.759423
-18.078455 0.061146 -11.665825 -0.192663 0.165777 -0.967132 0.919194 0.759423
-18.081417 0.001759 -11.681744 -0.105747 0.264992 -0.958403 0.919194 0.753956
-18.028492 0.059954 -11.637503 0.869259 0.163030 -0.466659 0.913461 0.759423
-18.012476 0.000902 -11.642441 0.884915 0.269478 -0.379833 0.913461 0.753956
-18.012476 0.000902 -11.642441 0.884915 0.269478 -0.379833 0.943056 0.753956
-18.028492 0.059954 -11.637503 0.869259 0.163030 -0.466659 0.943056 0.759423
-18.039530 0.058303 -11.581602 0.697806 0.194647 0.689291 0.936816 0.759423
-18.028675 0.000059 -11.565111 0.623005 0.320383 0.713553 0.936816 0.753956
-18.064091 0.308380 -11.585213 -0.056856 0.107913 0.992523 0.930679 0.784634
-18.096539 0.058556 -11.575668 -0.406415 0.221015 0.886532 0.930679 0.759423
-18.035688 0.172327 -11.589361 0.610828 -0.178045 0.771447 0.936816 0.772608
-18.033007 0.255456 -11.594542 0.542589 0.374310 0.751946 0.936816 0.779878
-18.031221 0.311093 -11.611097 0.970122 0.035585 0.239906 0.936816 0.784634
-18.107788 0.000568 -11.556940 -0.458846 0.348827 0.817164 0.930679 0.753956
-18.098448 0.545430 -11.677059 0.361522 0.510269 0.780297 0.926285 0.766647
-18.082888 0.517559 -11.646511 0.432234 0.901456 -0.022187 0.924071 0.761578
-18.078745 0.512789 -11.646181 0.582385 0.797174 -0.159093 0.924264 0.761053
-18.070005 0.507403 -11.657831 0.292764 0.955687 0.030488 0.925793 0.761110
-18.060244 0.501386 -11.667818 0.615223 0.241127 -0.750542 0.927324 0.761123
-18.083736 0.543662 -11.683832 0.941679 0.328837 0.071017 0.927686 0.766745
-18.036623 0.176400 -11.639458 0.647420 -0.168950 -0.743126 0.913461 0.771034
-18.096022 0.315374 -11.647005 -0.428907 -0.204779 -0.879818 0.919194 0.784634
-18.051237 0.315491 -11.650003 0.532823 -0.050600 -0.844691 0.913461 0.784634
-18.043482 0.259951 -11.638712 0.602924 0.171667 -0.779077 0.913461 0.779208
-18.103775 0.311328 -11.607504 -0.894864 -0.085177 0.438093 0.925356 0.784634
-18.043482 0.259951 -11.638712 0.602924 0.171667 -0.779077 0.943056 0.779878
-18.051237 0.315491 -11.650003 0.532823 -0.050600 -0.844691 0.943056 0.784634
-18.036623 0.176400 -11.639458 0.647420 -0.168950 -0.743126 0.943056 0.772608
-18.026455 0.253121 -11.632191 0.705069 0.506363 -0.496414 0.942187 0.779365
-18.021019 0.184739 -11.633654 0.789087 -0.350352 -0.504501 0.941571 0.773056
-18.025637 0.246700 -11.626514 0.942595 -0.309824 0.124363 0.941532 0.778677
-18.018925 0.244043 -11.599691 0.838527 -0.286416 -0.463454 0.938557 0.778614
-18.021851 0.243914 -11.599571 0.522935 -0.561388 -0.641346 0.938743 0.778402
-18.028576 0.246570 -11.626369 0.665670 -0.558184 0.495224 0.941170 0.778310
-18.020247 0.181276 -11.592402 0.738762 -0.410199 0.534715 0.937297 0.773131
-18.018309 0.249399 -11.595356 0.758965 0.418775 0.498550 0.938211 0.779004
-18.105827 0.479188 -11.620686 -0.697806 -0.404035 0.591418 0.925478 0.769771
-18.059309 0.468764 -11.614195 0.012238 -0.469924 0.882595 0.931501 0.764229
-18.086792 0.492655 -11.614262 -0.259713 -0.381115 0.887265 0.929637 0.769907
-18.025274 0.564037 -11.402662 -0.932737 0.178899 0.312967 0.928683 0.775827
-18.089891 0.504752 -11.618181 -0.166143 0.464431 0.869869 0.928700 0.755690
-18.086792 0.492655 -11.614262 -0.259713 -0.381115 0.887265 0.929359 0.755690
-18.059309 0.468764 -11.614195 0.012238 -0.469924 0.882595 0.931011 0.755690
-18.013742 0.550780 -11.382483 -0.065462 -0.505417 0.860347 0.931180 0.775827
-18.034710 0.469450 -11.644667 0.985656 -0.089541 -0.142827 0.936816 0.798434
-18.059309 0.468764 -11.614195 0.012238 -0.469924 0.882595 0.930679 0.798434
-18.065512 0.475291 -11.673464 0.365612 -0.149449 -0.918668 0.913461 0.798434
-18.104500 0.398486 -11.656609 -0.522019 0.100436 -0.846980 0.919194 0.790601
-18.109518 0.478732 -11.659256 -0.849330 -0.238929 -0.470626 0.919194 0.798434
-18.119131 0.528125 -11.684607 -0.839930 -0.223518 -0.494461 0.931910 0.767038
-18.109518 0.478732 -11.659256 -0.849330 -0.238929 -0.470626 0.933433 0.760992
-18.111643 0.487903 -11.629913 -0.965087 -0.259896 -0.031892 0.936463 0.760125
-18.108397 0.500467 -11.631914 -0.957366 0.285623 -0.043214 0.936801 0.761148
-18.112919 0.542934 -11.670408 -0.634388 0.413434 0.653127 0.933887 0.767176
-18.119289 0.332588 -11.615686 -0.882809 -0.202734 0.423688 0.923802 0.785269
-18.114782 0.334453 -11.645723 -0.764550 -0.278756 -0.581133 0.920222 0.785147
-18.114120 0.395831 -11.629736 -0.567797 0.779717 -0.263894 0.926436 0.795257
-18.114864 0.379838 -11.620424 -0.828883 0.052889 0.556871 0.924792 0.796031
-18.142693 0.421433 -11.615471 -0.776788 -0.377056 0.504379 0.925252 0.792545
-18.142260 0.430111 -11.619823 -0.344554 0.774163 -0.530961 0.925698 0.792295
-18.113880 0.395164 -11.622147 0.255043 0.635121 0.729057 0.924200 0.790158
-18.103989 0.394163 -11.617573 -0.531693 0.282479 0.798395 0.925356 0.790601
-18.114079 0.397161 -11.651897 -0.623402 0.604602 -0.495743 0.920843 0.790030
-18.114120 0.395831 -11.629736 -0.567797 0.779717 -0.263894 0.923348 0.790140
-18.114864 0.379838 -11.620424 -0.828883 0.052889 0.556871 0.924257 0.788818
-18.065512 0.475291 -11.673464 0.365612 -0.149449 -0.918668 0.943056 0.798434
-18.054100 0.484791 -11.662493 0.733848 0.009033 -0.679220 0.939648 0.798434
-18.048073 0.483618 -11.656782 0.841304 0.040071 -0.539018 0.938735 0.798434
-18.090065 0.624592 -11.707960 0.568255 0.043611 0.821650 0.928751 0.774784
-18.097616 0.628343 -11.707504 0.537370 0.682485 0.495407 0.928643 0.775039
-18.073986 0.520272 -11.635643 0.392956 0.894986 -0.211066 0.927064 0.755690
-18.010651 0.564425 -11.411404 -0.409803 0.678030 -0.610157 0.927054 0.775827
-18.082888 0.517559 -11.646511 0.432234 0.901456 -0.022187 0.934869 0.772424
-18.073986 0.520272 -11.635643 0.392956 0.894986 -0.211066 0.932894 0.772276
-18.074184 0.514572 -11.640369 0.406476 0.796106 -0.448286 0.933539 0.771618
-18.078745 0.512789 -11.646181 0.582385 0.797174 -0.159093 0.934596 0.771655
-18.065512 0.475291 -11.673464 0.365612 -0.149449 -0.918668 0.929451 0.760167
-18.091818 0.524164 -11.694399 0.203742 -0.253578 -0.945585 0.929513 0.766872
-18.091593 0.616258 -11.712994 0.433241 -0.403760 -0.805750 0.929060 0.774676
-18.028309 0.661872 -11.739492 0.811487 -0.314097 -0.492721 0.928775 0.774471
-18.027016 0.666143 -11.735237 0.863887 0.348094 0.364025 0.928780 0.774463
-18.113813 0.617623 -11.712616 -0.786035 -0.161321 -0.596698 0.930423 0.774917
-18.098631 0.620820 -11.714241 -0.164373 -0.031678 -0.985870 0.929195 0.774892
-18.113253 0.626305 -11.700954 -0.382305 0.113651 0.916990 0.931830 0.775130
-18.188324 0.870703 -11.714846 -0.391400 0.394665 0.831263 0.929621 0.791397
-18.193787 0.870888 -11.723293 -0.850795 0.382092 -0.360698 0.929519 0.791383
-18.033104 0.665523 -11.740696 -0.096347 0.359355 -0.928190 0.928775 0.774456
-18.032719 0.668815 -11.735813 0.045412 0.994812 0.090854 0.928776 0.774461
-18.182775 0.873914 -11.721588 0.536058 0.821711 0.193365 0.929638 0.791490
-18.186687 0.872816 -11.726707 0.135563 0.665334 -0.734092 0.929527 0.791425
-18.113253 0.626305 -11.700954 -0.382305 0.113651 0.916990 0.927297 0.774962
-17.894791 0.873610 -11.440285 0.282815 0.452223 0.845851 0.929974 0.784652
-17.903038 0.878372 -11.442471 -0.528764 0.836756 0.142094 0.929317 0.784593
-18.108397 0.500467 -11.631914 -0.957366 0.285623 -0.043214 0.921027 0.761672
-18.112919 0.542934 -11.670408 -0.634388 0.413434 0.653127 0.924850 0.766547
-18.034710 0.469450 -11.644667 0.985656 -0.089541 -0.142827 0.934113 0.755690
-17.990860 0.553791 -11.399351 0.832698 -0.497269 0.243477 0.934025 0.775827
-17.992897 0.564896 -11.413467 0.625019 0.158483 -0.764336 0.924906 0.775827
-18.045538 0.500279 -11.652796 0.973083 -0.076205 -0.217383 0.924828 0.755690
-18.060383 0.507744 -11.647623 -0.007172 0.993042 0.117527 0.925840 0.755690
-18.074184 0.514572 -11.640369 0.406476 0.796106 -0.448286 0.926829 0.755690
-17.901814 0.879361 -11.449903 -0.156102 0.686514 -0.710105 0.928743 0.785458
-17.889231 0.874923 -11.452663 0.988250 0.151646 -0.018189 0.931152 0.785710
-17.894918 0.879929 -11.453331 0.598224 0.622669 -0.504349 0.929363 0.797726
-17.992897 0.564896 -11.413467 0.625019 0.158483 -0.764336 0.935536 0.775827
-18.105827 0.479188 -11.620686 -0.697806 -0.404035 0.591418 0.925356 0.798434
-18.048073 0.483618 -11.656782 0.841304 0.040071 -0.539018 0.935423 0.755690
-18.045538 0.500279 -11.652796 0.973083 -0.076205 -0.217383 0.935701 0.755690
-18.089891 0.504752 -11.618181 -0.166143 0.464431 0.869869 0.929357 0.772733
-18.108397 0.500467 -11.631914 -0.957366 0.285623 -0.043214 0.926056 0.773663
-18.111383 0.501662 -11.625383 -0.720298 0.686972 0.096011 0.926497 0.772688
-18.095726 0.505178 -11.613688 -0.074953 0.802667 0.591693 0.928256 0.771926
-18.060383 0.507744 -11.647623 -0.007172 0.993042 0.117527 0.933852 0.769458
-18.070005 0.507403 -11.657831 0.292764 0.955687 0.030488 0.935831 0.769797
-18.117937 0.543992 -11.597635 0.020203 -0.263558 0.964415 0.929632 0.779130
-18.130146 0.540093 -11.609812 -0.946013 -0.321635 -0.039491 0.927547 0.779349
-18.105827 0.479188 -11.620686 -0.697806 -0.404035 0.591418 0.936957 0.758910
-18.093124 0.495031 -11.610397 0.107578 -0.003662 0.994171 0.928463 0.770773
-18.114111 0.491126 -11.623749 -0.978454 -0.024995 0.204810 0.925778 0.771916
-18.109173 0.483775 -11.615891 -0.556169 -0.443007 0.703116 0.926348 0.770793
-18.111643 0.487903 -11.629913 -0.965087 -0.259896 -0.031892 0.924728 0.772202
-18.108850 0.560900 -11.605270 0.902676 0.357402 0.239601 0.932143 0.780155
-18.142994 0.685739 -11.588974 0.936674 0.349254 0.025666 0.931917 0.795229
-18.148367 0.679384 -11.581892 0.150914 -0.201025 0.967864 0.931046 0.795029
-18.114481 0.559412 -11.614344 0.038667 0.407788 -0.912229 0.933606 0.780113
-18.082888 0.517559 -11.646511 0.432234 0.901456 -0.022187 0.921842 0.774374
-18.114481 0.559412 -11.614344 0.038667 0.407788 -0.912229 0.925162 0.781075
-18.146372 0.685041 -11.593304 0.147343 0.326212 -0.933714 0.929691 0.795396
-18.155239 0.678127 -11.587387 -0.948057 -0.264016 -0.177374 0.930275 0.795128
-18.186749 0.744123 -11.557405 -0.985717 0.117069 0.120945 0.931344 0.797013
-18.177841 0.751085 -11.563223 -0.218818 0.810175 -0.543809 0.930882 0.796552
-18.146372 0.685041 -11.593304 0.147343 0.326212 -0.933714 0.932316 0.795251
-18.179821 0.745315 -11.551847 -0.086459 0.225684 0.970336 0.939239 0.760662
-18.174459 0.751756 -11.558908 0.456343 0.845943 0.275826 0.939290 0.760840
-18.177841 0.751085 -11.563223 -0.218818 0.810175 -0.543809 0.939613 0.760985
-18.186749 0.744123 -11.557405 -0.985717 0.117069 0.120945 0.939166 0.760510
-18.142994 0.685739 -11.588974 0.936674 0.349254 0.025666 0.938539 0.762277
-18.146372 0.685041 -11.593304 0.147343 0.326212 -0.933714 0.938141 0.762242
-18.174459 0.751756 -11.558908 0.456343 0.845943 0.275826 0.931209 0.796687
-18.179821 0.745315 -11.551847 -0.086459 0.225684 0.970336 0.931266 0.796864
-18.060244 0.501386 -11.667818 0.615223 0.241127 -0.750542 0.931283 0.768120
-18.045538 0.500279 -11.652796 0.973083 -0.076205 -0.217383 0.932954 0.768733
-18.048073 0.483618 -11.656782 0.841304 0.040071 -0.539018 0.932210 0.769740
-18.054100 0.484791 -11.662493 0.733848 0.009033 -0.679220 0.931582 0.769460
-17.985991 0.560765 -11.640821 0.314737 0.716239 0.622822 0.934407 0.764940
-17.991365 0.559821 -11.649878 -0.132420 0.947752 -0.290139 0.936559 0.757425
-18.054100 0.484791 -11.662493 0.733848 0.009033 -0.679220 0.927660 0.759549
-17.977938 0.552542 -11.641911 0.958831 -0.119480 0.257576 0.933966 0.764978
-17.985813 0.552166 -11.655100 0.495224 0.123569 -0.859890 0.933518 0.764671
-18.070005 0.507403 -11.657831 0.292764 0.955687 0.030488 0.928981 0.767843
-18.114445 0.388635 -11.631779 -0.888760 -0.382122 -0.253059 0.923016 0.789578
-18.114281 0.389535 -11.646044 -0.951262 -0.238319 0.195563 0.921333 0.789441
-18.109838 0.388483 -11.646248 -0.656148 -0.466170 0.593402 0.921623 0.789112
-18.109999 0.387570 -11.632002 -0.695334 -0.580004 -0.424329 0.922817 0.789143
-18.141916 0.429724 -11.615566 -0.156224 0.772729 0.615192 0.925441 0.791157
-18.113880 0.395164 -11.622147 0.255043 0.635121 0.729057 0.927375 0.794717
-18.113880 0.395164 -11.622147 0.255043 0.635121 0.729057 0.923906 0.794903
-18.020977 0.187149 -11.597712 0.883297 0.304727 -0.356212 0.937972 0.773712
-18.020634 0.189832 -11.628145 0.903012 0.329508 0.275582 0.941188 0.773505
-18.023932 0.186992 -11.597460 0.522752 0.591754 -0.613605 0.938336 0.774045
-18.023590 0.189683 -11.627890 0.585559 0.589709 0.556169 0.940985 0.773741
-18.117769 0.340372 -11.621836 -0.857112 0.314341 -0.408032 0.923298 0.785819
-18.115253 0.341572 -11.641151 -0.867550 0.389599 0.309030 0.920940 0.785831
-18.114939 0.378153 -11.625731 -0.770104 -0.160466 -0.617359 0.923733 0.788658
-18.110807 0.340504 -11.640715 -0.536027 0.660298 0.525956 0.921460 0.786324
-18.113321 0.339291 -11.621397 -0.456221 0.651875 -0.605670 0.923011 0.786167
-18.110481 0.377081 -11.625816 -0.671834 -0.182531 -0.717795 0.923231 0.788488
-16.657465 -0.000000 -10.752248 0.000000 0.305704 0.952116 0.925356 0.753956
-16.657465 0.068304 -10.774180 0.088656 0.186590 0.978423 0.925356 0.759423
-16.712566 0.068304 -10.814214 -0.903134 0.186590 0.386639 0.919194 0.759423
-16.733425 -0.000000 -10.807436 -0.905515 0.305704 0.294198 0.919194 0.753956
-16.691519 0.068304 -10.878990 -0.621509 0.192633 -0.759331 0.913461 0.759423
-16.704412 -0.000000 -10.896733 -0.559648 0.305704 -0.770257 0.913461 0.753956
-16.704412 -0.000000 -10.896733 -0.559648 0.305704 -0.770257 0.943056 0.753956
-16.691519 0.068304 -10.878990 -0.621509 0.192633 -0.759331 0.943056 0.759423
-16.623409 0.068304 -10.878990 0.525773 0.184698 -0.830317 0.936816 0.759423
-16.610518 -0.000000 -10.896733 0.559648 0.305704 -0.770257 0.936816 0.753956
-16.612762 0.365551 -10.840397 0.998596 0.007141 -0.052248 0.930679 0.784634
-16.602364 0.068304 -10.814214 0.957915 0.186590 0.218024 0.930679 0.759423
-16.636513 0.206848 -10.878152 0.608356 -0.164800 -0.776330 0.936816 0.772608
-16.645885 0.305931 -10.877552 0.573687 0.331797 -0.748833 0.936816 0.779878
-16.651525 0.365551 -10.877191 0.185980 -0.013550 -0.982452 0.936816 0.784634
-16.581505 -0.000000 -10.807436 0.905515 0.305704 0.294198 0.930679 0.753956
-16.731621 0.615902 -10.824656 0.597674 0.747002 -0.291025 0.926285 0.766647
-16.662556 0.583588 -10.836288 -0.112186 0.884243 -0.453291 0.924071 0.761578
-16.659500 0.578345 -10.840794 -0.151036 0.802057 -0.577776 0.924264 0.761053
-16.673538 0.571858 -10.853743 0.023865 0.995483 -0.091708 0.925793 0.761110
-16.687578 0.565372 -10.866691 -0.580889 0.128727 -0.803705 0.927324 0.761123
-16.738758 0.614385 -10.842647 0.047761 0.424696 -0.904050 0.927686 0.766745
-16.694771 0.206848 -10.866268 -0.854854 -0.180364 -0.486465 0.913461 0.771034
-16.688765 0.365551 -10.799144 -0.844081 -0.124882 0.521409 0.919194 0.784634
-16.698496 0.365551 -10.851695 -0.874081 0.014191 -0.485549 0.913461 0.784634
-16.697098 0.305931 -10.857170 -0.894436 0.201300 -0.399274 0.913461 0.779208
-16.635777 0.365551 -10.792161 0.490677 -0.148900 0.858486 0.925356 0.784634
-16.697098 0.305931 -10.857170 -0.894436 0.201300 -0.399274 0.943056 0.779878
-16.698496 0.365551 -10.851695 -0.874081 0.014191 -0.485549 0.943056 0.784634
-16.694771 0.206848 -10.866268 -0.854854 -0.180364 -0.486465 0.943056 0.772608
-16.694410 0.298893 -10.878128 -0.667165 0.478256 -0.571062 0.942187 0.779365
-16.692497 0.217366 -10.885613 -0.628529 -0.383068 -0.676870 0.941571 0.773056
-16.688126 0.292179 -10.880192 -0.007294 -0.262978 -0.964751 0.941532 0.778677
-16.657793 0.292218 -10.893482 -0.573077 -0.305032 -0.760582 0.938557 0.778614
-16.656786 0.292095 -10.890069 -0.690176 -0.603656 -0.399030 0.938743 0.778402
-16.687119 0.292056 -10.876780 0.395550 -0.521409 -0.756066 0.941170 0.778310
-16.644562 0.217366 -10.895391 0.388348 -0.367229 -0.845149 0.937297 0.773131
-16.652273 0.298893 -10.894897 0.294168 0.477706 -0.827784 0.938211 0.779004
-16.632397 0.542111 -10.801542 0.489608 -0.385479 0.782067 0.925478 0.769771
-16.609539 0.534613 -10.850427 0.935911 -0.352184 -0.000031 0.931501 0.764229
-16.618959 0.559237 -10.820537 0.917722 -0.175024 0.356517 0.929637 0.769907
-16.479179 0.699571 -10.922526 0.296365 0.176092 0.938688 0.928683 0.775827
-16.626656 0.572188 -10.818645 0.787744 0.529099 0.315409 0.928700 0.755690
-16.618959 0.559237 -10.820537 0.917722 -0.175024 0.356517 0.929359 0.755690
-16.609539 0.534613 -10.850427 0.935911 -0.352184 -0.000031 0.931011 0.755690
-16.463774 0.688872 -10.944286 0.916044 -0.394391 -0.072695 0.931180 0.775827
-16.648563 0.533475 -10.886928 -0.033967 -0.198370 -0.979522 0.936816 0.798434
-16.609539 0.534613 -10.850427 0.935911 -0.352184 -0.000031 0.930679 0.798434
-16.695349 0.535035 -10.861134 -0.800897 -0.205908 -0.562273 0.913461 0.798434
-16.687000 0.451344 -10.803917 -0.854244 0.248421 0.456648 0.919194 0.790601
-16.685238 0.537137 -10.808690 -0.530412 -0.205512 0.822413 0.919194 0.798434
-16.745790 0.595075 -10.802137 -0.469161 -0.451857 0.758721 0.931910 0.767038
-16.685238 0.537137 -10.808690 -0.530412 -0.205512 0.822413 0.933433 0.760992
-16.647333 0.550399 -10.798316 -0.231544 -0.282449 0.930906 0.936463 0.760125
-16.649748 0.564362 -10.802947 -0.306314 0.232826 0.923002 0.936801 0.761148
-16.724483 0.612639 -10.806666 0.462172 0.531999 0.709464 0.933887 0.767176
-16.643080 0.387145 -10.774259 0.383068 -0.181036 0.905789 0.923802 0.785269
-16.683619 0.385882 -10.779424 -0.571947 -0.199438 0.795648 0.920222 0.785147
-16.652332 0.451223 -10.787717 -0.380139 0.798456 0.466781 0.926436 0.795257
-16.642582 0.435773 -10.783496 0.482833 0.048860 0.874325 0.924792 0.796031
-16.641794 0.480549 -10.753313 0.326945 -0.349132 0.878170 0.925252 0.792545
-16.647202 0.489117 -10.755653 -0.668691 0.720817 0.182195 0.925698 0.792295
-16.642420 0.451503 -10.786485 0.764428 0.637959 -0.092868 0.924200 0.790158
-16.633991 0.451213 -10.797117 0.719993 0.216407 0.659352 0.925356 0.790601
-16.682976 0.450360 -10.791524 -0.535081 0.638997 0.552568 0.920843 0.790030
-16.652332 0.451223 -10.787717 -0.380139 0.798456 0.466781 0.923348 0.790140
-16.642582 0.435773 -10.783496 0.482833 0.048860 0.874325 0.924257 0.788818
-16.695349 0.535035 -10.861134 -0.800897 -0.205908 -0.562273 0.943056 0.798434
-16.676552 0.547389 -10.871496 -0.461592 -0.029969 -0.886563 0.939648 0.798434
-16.667465 0.547159 -10.876506 -0.464797 -0.011811 -0.885311 0.938735 0.798434
-16.809410 0.706358 -10.815527 0.558092 0.217963 -0.800623 0.928751 0.774784
-16.807930 0.709647 -10.808095 0.530808 0.680013 -0.505722 0.928643 0.775039
-16.646545 0.588715 -10.842383 -0.320353 0.912015 -0.256050 0.927064 0.755690
-16.490866 0.697882 -10.936533 -0.698264 0.571032 0.431623 0.927054 0.775827
-16.662556 0.583588 -10.836288 -0.112186 0.884243 -0.453291 0.934869 0.772424
-16.646545 0.588715 -10.842383 -0.320353 0.912015 -0.256050 0.932894 0.772276
-16.650976 0.581429 -10.843850 -0.517991 0.752892 -0.405957 0.933539 0.771618
-16.659500 0.578345 -10.840794 -0.151036 0.802057 -0.577776 0.934596 0.771655
-16.695349 0.535035 -10.861134 -0.800897 -0.205908 -0.562273 0.929451 0.760167
-16.751616 0.590720 -10.835786 -0.762413 -0.472549 -0.442000 0.929513 0.766872
-16.817522 0.697023 -10.811726 -0.715995 -0.588397 -0.375591 0.929060 0.774676
-16.865612 0.748184 -10.865558 -0.686880 -0.368206 -0.626576 0.928775 0.774471
-16.860407 0.753626 -10.868547 0.088961 0.334941 -0.938017 0.928780 0.774463
-16.815331 0.696495 -10.788158 -0.553117 -0.332926 0.763665 0.930423 0.774917
-16.818851 0.701257 -10.804540 -0.962584 -0.204474 0.177679 0.929195 0.774892
-16.796177 0.706009 -10.792447 0.805750 0.311502 0.503677 0.931830 0.775130
-16.836807 0.968054 -10.748525 0.711539 0.571947 0.408094 0.929621 0.791397
-16.848133 0.966496 -10.745724 -0.500473 0.349803 0.791894 0.929519 0.791383
-16.866108 0.751801 -10.861140 -0.883694 0.358348 0.301065 0.928775 0.774456
-16.859873 0.756192 -10.863516 0.062990 0.997009 -0.044710 0.928776 0.774461
-16.842655 0.970861 -10.757254 0.147526 0.798090 -0.584155 0.929638 0.791490
-16.849522 0.968502 -10.754885 -0.780725 0.566546 -0.263527 0.929527 0.791425
-16.796177 0.706009 -10.792447 0.805750 0.311502 0.503677 0.927297 0.774962
-16.426502 1.035282 -10.967812 0.917936 0.375774 -0.126988 0.929974 0.784652
-16.432892 1.039886 -10.959556 0.251076 0.755669 0.604877 0.929317 0.784593
-16.649748 0.564362 -10.802947 -0.306314 0.232826 0.923002 0.921027 0.761672
-16.724483 0.612639 -10.806666 0.462172 0.531999 0.709464 0.924850 0.766547
-16.648563 0.533475 -10.886928 -0.033967 -0.198370 -0.979522 0.934113 0.755690
-16.486443 0.688211 -10.965489 0.145909 -0.336131 -0.930418 0.934025 0.775827
-16.500031 0.698049 -10.957998 -0.801752 0.295328 -0.519547 0.924906 0.775827
-16.663441 0.566742 -10.878399 -0.203162 0.038301 -0.978393 0.924828 0.755690
-16.657209 0.574086 -10.861124 -0.210761 0.976470 0.045351 0.925840 0.755690
-16.650976 0.581429 -10.843850 -0.517991 0.752892 -0.405957 0.926829 0.755690
-16.440718 1.039794 -10.963758 -0.582568 0.741966 0.331706 0.928743 0.785458
-16.438148 1.034943 -10.978704 0.101535 0.340068 -0.934874 0.931152 0.785710
-16.441952 1.040231 -10.972696 -0.468093 0.815027 -0.341441 0.929363 0.797726
-16.500031 0.698049 -10.957998 -0.801752 0.295328 -0.519547 0.935536 0.775827
-16.632397 0.542111 -10.801542 0.489608 -0.385479 0.782067 0.925356 0.798434
-16.667465 0.547159 -10.876506 -0.464797 -0.011811 -0.885311 0.935423 0.755690
-16.663441 0.566742 -10.878399 -0.203162 0.038301 -0.978393 0.935701 0.755690
-16.626656 0.572188 -10.818645 0.787744 0.529099 0.315409 0.929357 0.772733
-16.649748 0.564362 -10.802947 -0.306314 0.232826 0.923002 0.926056 0.773663
-16.643389 0.566541 -10.797302 -0.213202 0.683767 0.697836 0.926497 0.772688
-16.624008 0.573109 -10.810476 0.417493 0.868496 0.267159 0.928256 0.771926
-16.657209 0.574086 -10.861124 -0.210761 0.976470 0.045351 0.933852 0.769458
-16.673538 0.571858 -10.853743 0.023865 0.995483 -0.091708 0.935831 0.769797
-16.627853 0.620858 -10.779435 0.957579 -0.077883 0.277322 0.929632 0.779130
-16.645782 0.614067 -10.769760 -0.288095 -0.381085 0.878475 0.927547 0.779349
-16.632397 0.542111 -10.801542 0.489608 -0.385479 0.782067 0.936957 0.758910
-16.617550 0.562240 -10.812065 0.965636 0.123508 0.228553 0.928463 0.770773
-16.641361 0.554823 -10.793416 -0.108432 -0.035127 0.993469 0.925778 0.771916
-16.628828 0.547867 -10.796124 0.541551 -0.367107 0.756249 0.926348 0.770793
-16.647333 0.550399 -10.798316 -0.231544 -0.282449 0.930906 0.924728 0.772202
-16.640377 0.640520 -10.792031 0.347331 0.447401 -0.824091 0.932143 0.780155
-16.642658 0.778870 -10.749280 0.274453 0.385144 -0.881069 0.931917 0.795229
-16.635801 0.772438 -10.740614 0.990661 -0.049318 0.126957 0.931046 0.795029
-16.652695 0.637226 -10.788610 -0.931669 0.250771 -0.262795 0.933606 0.780113
-16.662556 0.583588 -10.836288 -0.112186 0.884243 -0.453291 0.921842 0.774374
-16.652695 0.637226 -10.788610 -0.931669 0.250771 -0.262795 0.925162 0.781075
-16.648579 0.777216 -10.747188 -0.882565 0.199713 -0.425611 0.929691 0.795396
-16.644390 0.769858 -10.735088 -0.366436 -0.317179 0.874691 0.930275 0.795128
-16.641218 0.850969 -10.689400 -0.256752 0.097171 0.961547 0.931344 0.797013
-16.645407 0.858326 -10.701498 -0.719047 0.694937 0.004486 0.930882 0.796552
-16.648579 0.777216 -10.747188 -0.882565 0.199713 -0.425611 0.932316 0.795251
-16.632629 0.853548 -10.694925 0.827723 0.381817 0.411145 0.939239 0.760662
-16.639486 0.859980 -10.703590 0.257729 0.900815 -0.349376 0.939290 0.760840
-16.645407 0.858326 -10.701498 -0.719047 0.694937 0.004486 0.939613 0.760985
-16.641218 0.850969 -10.689400 -0.256752 0.097171 0.961547 0.939166 0.760510
-16.642658 0.778870 -10.749280 0.274453 0.385144 -0.881069 0.938539 0.762277
-16.648579 0.777216 -10.747188 -0.882565 0.199713 -0.425611 0.938141 0.762242
-16.639486 0.859980 -10.703590 0.257729 0.900815 -0.349376 0.931209 0.796687
-16.632629 0.853548 -10.694925 0.827723 0.381817 0.411145 0.931266 0.796864
-16.687578 0.565372 -10.866691 -0.580889 0.128727 -0.803705 0.931283 0.768120
-16.663441 0.566742 -10.878399 -0.203162 0.038301 -0.978393 0.932954 0.768733
-16.667465 0.547159 -10.876506 -0.464797 -0.011811 -0.885311 0.932210 0.769740
-16.676552 0.547389 -10.871496 -0.461592 -0.029969 -0.886563 0.931582 0.769460
-16.694988 0.647510 -10.939664 0.424482 0.881741 -0.205725 0.934407 0.764940
-16.705564 0.645109 -10.935316 -0.465896 0.856929 0.220374 0.936559 0.757425
-16.676552 0.547389 -10.871496 -0.461592 -0.029969 -0.886563 0.927660 0.759549
-16.696524 0.638419 -10.948906 0.221473 0.044496 -0.974120 0.933966 0.764978
-16.712461 0.636184 -10.942385 -0.902402 0.027772 -0.429945 0.933518 0.764671
-16.673538 0.571858 -10.853743 0.023865 0.995483 -0.091708 0.928981 0.767843
-16.656237 0.443500 -10.786762 -0.365978 -0.316630 0.875088 0.923016 0.789578
-16.675829 0.442952 -10.789176 0.179144 -0.122898 0.976104 0.921333 0.789441
-16.675144 0.441827 -10.794383 0.497208 -0.439222 0.748192 0.921623 0.789112
-16.655552 0.442375 -10.791968 -0.460128 -0.566301 0.683767 0.922817 0.789143
-16.641705 0.489272 -10.754971 0.532609 0.804712 0.262123 0.925441 0.791157
-16.642420 0.451503 -10.786485 0.764428 0.637959 -0.092868 0.927375 0.794717
-16.642420 0.451503 -10.786485 0.764428 0.637959 -0.092868 0.923906 0.794903
-16.651152 0.224040 -10.893239 -0.518418 0.301798 -0.800073 0.937972 0.773712
-16.686718 0.224078 -10.887105 0.070070 0.347392 -0.935087 0.941188 0.773505
-16.650146 0.223917 -10.889826 -0.744316 0.548387 -0.381054 0.938336 0.774045
-16.685715 0.223955 -10.883693 0.387585 0.628773 -0.674062 0.940985 0.773741
-16.650229 0.394536 -10.776604 -0.423414 0.460250 0.780267 0.923298 0.785819
-16.676317 0.393718 -10.779953 0.186529 0.469161 0.863155 0.920940 0.785831
-16.649828 0.433345 -10.783988 -0.700095 -0.037904 0.713004 0.923733 0.788658
-16.675632 0.392593 -10.785160 0.499710 0.693258 0.519242 0.921460 0.786324
-16.649542 0.393411 -10.781811 -0.643086 0.667776 0.374798 0.923011 0.786167
-16.649143 0.432220 -10.789195 -0.808557 -0.093020 0.581011 0.923231 0.788488
-17.448799 -0.000068 -11.203441 -0.649190 0.364086 0.667806 0.925356 0.753956
-17.433657 0.057169 -11.219991 -0.673238 0.207801 0.709586 0.925356 0.759423
-17.442976 0.057947 -11.276138 -0.882992 0.213233 -0.418104 0.919194 0.759423
-17.461346 0.000086 -11.281756 -0.854213 0.314676 -0.413800 0.919194 0.753956
-17.390915 0.058209 -11.302476 0.098178 0.172155 -0.980163 0.913461 0.759423
-17.389694 0.000144 -11.318120 0.139653 0.257302 -0.956175 0.913461 0.753956
-17.389694 0.000144 -11.318120 0.139653 0.257302 -0.956175 0.943056 0.753956
-17.390915 0.058209 -11.302476 0.098178 0.172155 -0.980163 0.943056 0.759423
-17.349407 0.057701 -11.262640 0.966094 0.147862 -0.211646 0.936816 0.759423
-17.332836 0.000111 -11.262358 0.950896 0.277688 -0.136479 0.936816 0.753956
-17.369577 0.294199 -11.209947 0.412793 -0.033692 0.910184 0.930679 0.784634
-17.375807 0.056885 -11.211745 0.506546 0.175451 0.844142 0.930679 0.759423
-17.351585 0.170429 -11.270511 0.972564 -0.214637 -0.089633 0.936816 0.772608
-17.355736 0.249969 -11.268229 0.924436 0.377606 -0.052858 0.936816 0.779878
-17.357891 0.299205 -11.249066 0.995972 0.082461 0.034913 0.936816 0.784634
-17.369331 -0.000167 -11.191666 0.413739 0.340220 0.844417 0.930679 0.753956
-17.379948 0.514220 -11.286291 -0.414136 0.500137 0.760460 0.926285 0.766647
-17.403612 0.482434 -11.242705 0.243812 0.930113 0.274545 0.924071 0.761578
-17.401848 0.478115 -11.237745 0.350139 0.882473 0.313974 0.924264 0.761053
-17.383305 0.474642 -11.234774 0.011414 0.994263 0.106082 0.925793 0.761110
-17.366095 0.471106 -11.231055 0.935911 0.302805 0.179815 0.927324 0.761123
-17.362528 0.514891 -11.279510 0.163579 0.181921 0.969604 0.927686 0.766745
-17.394611 0.171847 -11.297407 -0.235389 -0.114444 -0.965117 0.913461 0.771034
-17.428070 0.296915 -11.249572 -0.754753 -0.199408 -0.624928 0.919194 0.784634
-17.388960 0.300663 -11.272099 0.297891 0.153264 -0.942198 0.913461 0.784634
-17.395113 0.251578 -11.286117 -0.308176 0.362651 -0.879452 0.913461 0.779208
-17.415398 0.292822 -11.205676 -0.577044 -0.168859 0.799036 0.925356 0.784634
-17.395113 0.251578 -11.286117 -0.308176 0.362651 -0.879452 0.943056 0.779878
-17.388960 0.300663 -11.272099 0.297891 0.153264 -0.942198 0.943056 0.784634
-17.394611 0.171847 -11.297407 -0.235389 -0.114444 -0.965117 0.943056 0.772608
-17.382259 0.246782 -11.297873 -0.086489 0.572222 -0.815516 0.942187 0.779365
-17.381123 0.180959 -11.307214 -0.008362 -0.327769 -0.944700 0.941571 0.773056
-17.378380 0.241074 -11.296564 0.650838 -0.208136 -0.730094 0.941532 0.778677
-17.353237 0.240363 -11.287325 0.153935 -0.203467 -0.966887 0.938557 0.778614
-17.354666 0.240017 -11.284669 -0.222999 -0.538194 -0.812738 0.938743 0.778402
-17.379812 0.240741 -11.293935 0.799768 -0.512894 -0.311899 0.941170 0.778310
-17.345716 0.179795 -11.285048 0.863643 -0.369304 -0.343059 0.937297 0.773131
-17.349110 0.245616 -11.284010 0.790246 0.516495 -0.329630 0.938211 0.779004
-17.443943 0.441409 -11.235700 -0.880978 -0.468184 0.068361 0.925478 0.769771
-17.420137 0.437954 -11.194741 -0.401013 -0.183660 0.897458 0.931501 0.764229
-17.437389 0.457769 -11.220503 -0.849879 -0.014100 0.526749 0.929637 0.769907
-17.416531 0.664224 -11.114457 -0.570605 0.294229 -0.766686 0.928683 0.775827
-17.435442 0.469065 -11.228799 -0.802210 0.509079 0.311838 0.928700 0.755690
-17.437389 0.457769 -11.220503 -0.849879 -0.014100 0.526749 0.929359 0.755690
-17.420137 0.437954 -11.194741 -0.401013 -0.183660 0.897458 0.931011 0.755690
-17.422012 0.658390 -11.092158 -0.752373 -0.427198 0.501389 0.931180 0.775827
-17.378210 0.442773 -11.195951 0.796777 -0.184790 0.575274 0.936816 0.798434
-17.420137 0.437954 -11.194741 -0.401013 -0.183660 0.897458 0.930679 0.798434
-17.362309 0.445195 -11.238231 0.912595 -0.087954 -0.399213 0.913461 0.798434
-17.418518 0.368869 -11.260094 -0.306894 0.145756 -0.940489 0.919194 0.790601
-17.405239 0.442215 -11.268157 -0.301859 -0.279183 -0.911527 0.919194 0.798434
-17.387091 0.495649 -11.305814 -0.061403 -0.229163 -0.971435 0.931910 0.767038
-17.405239 0.442215 -11.268157 -0.301859 -0.279183 -0.911527 0.933433 0.760992
-17.437387 0.449524 -11.250203 -0.505295 -0.416608 -0.755699 0.936463 0.760125
-17.432034 0.462095 -11.251575 -0.576617 0.122379 -0.807764 0.936801 0.761148
-17.397694 0.509437 -11.291983 -0.768700 0.520127 -0.372234 0.933887 0.767176
-17.437792 0.310057 -11.205821 -0.694418 -0.277139 0.664022 0.923802 0.785269
-17.443550 0.312306 -11.242329 -0.834681 -0.360027 -0.416700 0.920222 0.785147
-17.442509 0.364707 -11.231632 -0.603900 0.708945 -0.364208 0.926436 0.795257
-17.444359 0.350698 -11.217663 -0.762200 -0.002472 0.647328 0.924792 0.796031
-17.475847 0.386341 -11.229513 -0.822230 -0.295206 0.486557 0.925252 0.792545
-17.473211 0.394083 -11.238981 -0.078097 0.573870 -0.815180 0.925698 0.792295
-17.445061 0.364064 -11.222391 0.123081 0.738182 0.663259 0.924200 0.790158
-17.437258 0.363761 -11.214203 -0.522843 0.258522 0.812250 0.925356 0.790601
-17.431023 0.366874 -11.258438 -0.573168 0.562273 -0.596026 0.920843 0.790030
-17.442509 0.364707 -11.231632 -0.603900 0.708945 -0.364208 0.923348 0.790140
-17.444359 0.350698 -11.217663 -0.762200 -0.002472 0.647328 0.924257 0.788818
-17.362309 0.445195 -11.238231 0.912595 -0.087954 -0.399213 0.943056 0.798434
-17.369726 0.455249 -11.221978 0.987426 0.083102 0.134373 0.939648 0.798434
-17.373117 0.454822 -11.212924 0.991028 0.007294 0.133305 0.938735 0.798434
-17.317656 0.596719 -11.264578 0.212317 0.183477 0.959807 0.928751 0.774784
-17.321867 0.599086 -11.268778 -0.221839 0.465011 0.857021 0.928643 0.775039
-17.410444 0.486274 -11.229602 0.581622 0.780938 -0.227668 0.927064 0.755690
-17.400312 0.663719 -11.103114 0.535874 0.514420 -0.669454 0.927054 0.775827
-17.403612 0.482434 -11.242705 0.243812 0.930113 0.274545 0.934869 0.772424
-17.410444 0.486274 -11.229602 0.581622 0.780938 -0.227668 0.932894 0.772276
-17.405634 0.480449 -11.230837 0.694601 0.702841 -0.153264 0.933539 0.771618
-17.401848 0.478115 -11.237745 0.350139 0.882473 0.313974 0.934596 0.771655
-17.362309 0.445195 -11.238231 0.912595 -0.087954 -0.399213 0.929451 0.760167
-17.355322 0.494942 -11.288981 0.875210 -0.345256 -0.338755 0.929513 0.766872
-17.311745 0.588902 -11.269670 0.893368 -0.358867 0.270333 0.929060 0.774676
-17.287968 0.640046 -11.310615 0.834437 -0.514908 -0.196265 0.928775 0.774471
-17.291647 0.644612 -11.309244 0.566301 0.316935 0.760796 0.928780 0.774463
-17.322121 0.587079 -11.285600 0.332469 -0.144658 -0.931944 0.930423 0.774917
-17.313435 0.592277 -11.273207 0.324198 -0.329142 -0.886868 0.929195 0.774892
-17.337891 0.594324 -11.280723 -0.969878 0.211768 0.120243 0.931830 0.775130
-17.371996 0.815634 -11.402464 -0.919767 0.343608 -0.189581 0.929621 0.791397
-17.364065 0.814783 -11.409778 0.047700 0.216254 -0.975158 0.929519 0.791383
-17.289452 0.642844 -11.310850 0.724052 -0.652821 -0.222571 0.928775 0.774456
-17.292933 0.646455 -11.307574 -0.769799 0.624043 0.133885 0.928776 0.774461
-17.362858 0.819173 -11.399518 -0.017212 0.905698 0.423566 0.929638 0.791490
-17.358562 0.817386 -11.404422 0.719596 0.644917 -0.257302 0.929527 0.791425
-17.337891 0.594324 -11.280723 -0.969878 0.211768 0.120243 0.927297 0.774962
-17.537199 0.865943 -11.039766 -0.892819 0.127476 0.431989 0.929974 0.784652
-17.537725 0.869585 -11.048820 -0.623432 0.698325 -0.351604 0.929317 0.784593
-17.432034 0.462095 -11.251575 -0.576617 0.122379 -0.807764 0.921027 0.761672
-17.397694 0.509437 -11.291983 -0.768700 0.520127 -0.372234 0.924850 0.766547
-17.378210 0.442773 -11.195951 0.796777 -0.184790 0.575274 0.934113 0.755690
-17.394979 0.654855 -11.070522 0.433027 -0.181524 0.882900 0.934025 0.775827
-17.386330 0.658899 -11.076349 0.945433 0.324107 0.032594 0.924906 0.775827
-17.376511 0.471559 -11.210461 0.852504 -0.219001 0.474593 0.924828 0.755690
-17.390333 0.476050 -11.221023 0.165471 0.885464 -0.434217 0.925840 0.755690
-17.405634 0.480449 -11.230837 0.694601 0.702841 -0.153264 0.926829 0.755690
-17.529459 0.870374 -11.049625 0.304056 0.896207 -0.322977 0.928743 0.785458
-17.520868 0.867344 -11.037109 0.065859 0.286447 0.955809 0.931152 0.785710
-17.522114 0.871602 -11.043281 0.431867 0.875301 0.217383 0.929363 0.797726
-17.386330 0.658899 -11.076349 0.945433 0.324107 0.032594 0.935536 0.775827
-17.443943 0.441409 -11.235700 -0.880978 -0.468184 0.068361 0.925356 0.798434
-17.373117 0.454822 -11.212924 0.991028 0.007294 0.133305 0.935423 0.755690
-17.376511 0.471559 -11.210461 0.852504 -0.219001 0.474593 0.935701 0.755690
-17.435442 0.469065 -11.228799 -0.802210 0.509079 0.311838 0.929357 0.772733
-17.432034 0.462095 -11.251575 -0.576617 0.122379 -0.807764 0.926056 0.773663
-17.438454 0.462931 -11.249988 -0.463546 0.603076 -0.649129 0.926497 0.772688
-17.441521 0.469068 -11.231085 -0.531388 0.842860 0.084597 0.928256 0.771926
-17.390333 0.476050 -11.221023 0.165471 0.885464 -0.434217 0.933852 0.769458
-17.383305 0.474642 -11.234774 0.011414 0.994263 0.106082 0.935831 0.769797
-17.456264 0.508512 -11.252059 -0.897397 -0.126652 0.422590 0.929632 0.779130
-17.449684 0.501968 -11.266489 -0.353923 -0.352855 -0.866146 0.927547 0.779349
-17.443943 0.441409 -11.235700 -0.880978 -0.468184 0.068361 0.936957 0.758910
-17.443428 0.459694 -11.223931 -0.759301 0.216926 0.613483 0.928463 0.770773
-17.442913 0.452385 -11.248648 -0.747337 -0.106082 -0.655873 0.925778 0.771916
-17.448912 0.445644 -11.236352 -0.927946 -0.372295 0.015503 0.926348 0.770793
-17.437387 0.449524 -11.250203 -0.505295 -0.416608 -0.755699 0.924728 0.772202
-17.444681 0.527623 -11.249097 0.215491 0.455580 0.863704 0.932143 0.780155
-17.476583 0.642627 -11.282667 0.482009 0.503739 0.716849 0.931917 0.795229
-17.484156 0.636013 -11.285827 -0.658223 -0.438002 0.612262 0.931046 0.795029
-17.440065 0.524278 -11.257282 0.871334 0.331065 -0.362102 0.933606 0.780113
-17.403612 0.482434 -11.242705 0.243812 0.930113 0.274545 0.921842 0.774374
-17.440065 0.524278 -11.257282 0.871334 0.331065 -0.362102 0.925162 0.781075
-17.473478 0.641403 -11.286613 0.779168 0.469314 -0.415448 0.929691 0.795396
-17.480410 0.633866 -11.293658 -0.176641 -0.179693 -0.967711 0.930275 0.795128
-17.567173 0.697554 -11.275110 -0.814814 0.000275 -0.579699 0.931344 0.797013
-17.557135 0.705180 -11.274162 0.083560 0.877743 -0.471755 0.930882 0.796552
-17.473478 0.641403 -11.286613 0.779168 0.469314 -0.415448 0.932316 0.795251
-17.565651 0.699701 -11.267091 -0.826716 -0.009613 0.562487 0.939239 0.760662
-17.557838 0.706399 -11.268189 -0.076693 0.765770 0.638508 0.939290 0.760840
-17.557135 0.705180 -11.274162 0.083560 0.877743 -0.471755 0.939613 0.760985
-17.567173 0.697554 -11.275110 -0.814814 0.000275 -0.579699 0.939166 0.760510
-17.476583 0.642627 -11.282667 0.482009 0.503739 0.716849 0.938539 0.762277
-17.473478 0.641403 -11.286613 0.779168 0.469314 -0.415448 0.938141 0.762242
-17.557838 0.706399 -11.268189 -0.076693 0.765770 0.638508 0.931209 0.796687
-17.565651 0.699701 -11.267091 -0.826716 -0.009613 0.562487 0.931266 0.796864
-17.366095 0.471106 -11.231055 0.935911 0.302805 0.179815 0.931283 0.768120
-17.376511 0.471559 -11.210461 0.852504 -0.219001 0.474593 0.932954 0.768733
-17.373117 0.454822 -11.212924 0.991028 0.007294 0.133305 0.932210 0.769740
-17.369726 0.455249 -11.221978 0.987426 0.083102 0.134373 0.931582 0.769460
-17.342400 0.547757 -11.157000 -0.378765 0.808710 0.449995 0.934407 0.764940
-17.336153 0.545948 -11.165352 0.183264 0.900052 -0.395337 0.936559 0.757425
-17.369726 0.455249 -11.221978 0.987426 0.083102 0.134373 0.927660 0.759549
-17.337673 0.540690 -11.148679 0.227393 -0.018128 0.973601 0.933966 0.764978
-17.328299 0.539173 -11.160775 0.986785 0.156713 0.041108 0.933518 0.764671
-17.383305 0.474642 -11.234774 0.011414 0.994263 0.106082 0.928981 0.767843
-17.441866 0.358460 -11.232894 -0.771783 -0.460280 -0.438704 0.923016 0.789578
-17.435896 0.359831 -11.250546 -0.989380 -0.122227 -0.078555 0.921333 0.789441
-17.431622 0.359141 -11.249435 -0.663778 -0.473128 0.579241 0.921623 0.789112
-17.437393 0.357754 -11.231962 -0.617298 -0.672506 -0.408216 0.922817 0.789143
-17.474915 0.393735 -11.234187 -0.552660 0.790979 0.262459 0.925441 0.791157
-17.445061 0.364064 -11.222391 0.123081 0.738182 0.663259 0.927375 0.794717
-17.445061 0.364064 -11.222391 0.123081 0.738182 0.663259 0.923906 0.794903
-17.350719 0.185260 -11.287382 0.209967 0.346080 -0.914365 0.937972 0.773712
-17.376329 0.186245 -11.304503 0.692679 0.357555 -0.626362 0.941188 0.773505
-17.352140 0.184980 -11.284784 -0.258370 0.606616 -0.751823 0.938336 0.774045
-17.377748 0.185974 -11.301902 0.762963 0.625935 -0.161412 0.940985 0.773741
-17.440348 0.316736 -11.213878 -0.968932 0.098025 -0.227058 0.923298 0.785819
-17.442612 0.318234 -11.237752 -0.865291 0.431013 0.255806 0.920940 0.785831
-17.443338 0.349262 -11.223872 -0.748405 -0.360485 -0.556688 0.923733 0.788658
-17.438175 0.317512 -11.238185 -0.558580 0.683950 0.469222 0.921460 0.786324
-17.435966 0.316013 -11.214563 -0.491470 0.577654 -0.651692 0.923011 0.786167
-17.438856 0.348547 -11.223307 -0.610706 -0.346721 -0.711875 0.923231 0.788488
4 0 1 2 3
4 3 2 4 5
4 6 7 8 9
3 10 11 8
3 8 12 13
3 13 14 10
3 8 13 10
4 9 8 11 15
4 1 0 15 11
3 16 17 18
3 19 20 21
3 16 18 19
3 19 21 16
3 22 4 2
3 2 23 24
3 24 25 22
3 2 24 22
4 1 11 10 26
4 2 1 26 23
4 13 27 28 14
4 8 7 29 12
4 29 27 30 31
4 32 33 34 35
4 13 12 36 37
4 12 29 31 36
4 27 13 37 30
3 38 39 40
3 41 42 43
3 43 44 45
3 43 45 41
4 10 14 46 47
3 48 24 23
3 23 49 50
3 23 50 48
3 51 52 53
3 53 54 55
3 53 55 51
4 23 26 56 57
4 58 59 60 61
3 62 63 49
3 49 64 65
3 49 65 62
3 56 26 63
3 63 62 66
3 63 66 56
4 49 23 57 64
3 46 14 28
3 28 67 68
3 68 69 46
3 28 68 46
4 16 21 70 71
4 72 42 41 73
4 74 75 76 77
4 78 52 51 79
4 70 80 81 82
3 80 79 51
3 51 83 84
3 51 84 80
4 21 79 80 70
4 51 55 85 83
4 83 85 86 87
4 88 89 82 81
4 71 70 82 89
4 84 71 89 88
4 80 84 88 81
4 87 86 90 91
4 92 71 90 86
4 84 83 87 91
4 71 84 91 90
4 41 45 93 94
4 95 17 16 96
4 44 97 98 45
3 99 100 101
3 101 102 72
3 72 73 99
3 101 72 99
3 103 94 93
3 93 104 105
3 93 105 103
4 98 106 105 104
4 45 98 104 93
4 73 41 94 103
3 63 26 10
3 10 47 107
3 10 107 63
3 98 97 108
3 108 109 106
3 108 106 98
4 96 16 71 92
4 99 73 103 105
4 110 111 112 113
4 76 114 115 77
4 111 110 116 117
3 52 118 53
4 49 63 107 50
3 119 113 112
3 112 120 121
3 112 121 119
4 38 40 119 121
4 111 122 120 112
4 40 110 113 119
4 122 38 121 120
4 116 123 124 125
4 110 75 123 116
4 75 74 126 123
4 127 111 117 128
4 129 130 131 132
4 117 116 125 130
4 128 117 130 129
4 123 126 133 124
4 134 135 136 137
4 138 139 136 135
4 125 124 140 141
4 130 125 141 131
4 142 143 144 145
4 115 114 146 147
3 21 20 148
3 148 78 79
3 148 79 21
4 146 149 150 147
4 114 143 149 146
4 143 142 150 149
4 142 151 147 150
4 152 153 154 155
3 61 60 156
4 157 58 61 156
4 59 158 156 60
4 159 33 37 36
4 32 160 31 30
4 160 159 36 31
4 33 32 30 37
4 161 162 35 34
4 160 32 35 162
4 159 160 162 161
4 33 159 161 34
4 163 164 57 56
4 164 153 64 57
4 153 152 65 64
4 165 163 56 66
4 152 165 66 65
3 154 166 167
3 167 168 155
3 167 155 154
4 164 163 167 166
4 163 165 168 167
4 153 164 166 154
4 165 152 155 168
4 169 170 171 172
4 172 171 173 174
4 175 176 177 178
3 179 180 177
3 179 177 181
3 182 183 179
3 181 182 179
4 178 177 180 184
4 184 180 170 169
3 185 186 187
3 187 188 189
3 189 190 185
3 187 189 185
3 191 173 171
3 171 192 193
3 193 194 191
3 171 193 191
4 170 180 179 195
4 171 170 195 192
4 182 196 197 183
4 177 176 198 181
4 198 196 199 200
4 201 202 203 204
4 182 181 205 206
4 181 198 200 205
4 196 182 206 199
3 207 208 209
3 210 211 212
3 212 213 214
3 212 214 210
4 179 183 215 216
3 217 193 192
3 218 219 217
3 192 218 217
3 220 221 222
3 222 223 224
3 222 224 220
4 192 195 225 226
4 227 228 229 230
3 231 232 218
3 218 233 234
3 218 234 231
3 225 195 232
3 232 231 235
3 232 235 225
4 218 192 226 233
3 215 183 197
3 197 236 237
3 237 238 215
3 197 237 215
4 185 190 239 240
4 241 211 210 242
4 243 244 245 246
4 247 221 220 248
4 239 249 250 251
3 249 248 220
3 220 252 253
3 220 253 249
4 190 248 249 239
4 220 224 254 252
4 252 254 255 256
4 257 258 251 250
4 240 239 251 258
4 253 240 258 257
4 249 253 257 250
4 256 255 259 260
4 261 240 259 255
4 253 252 256 260
4 240 253 260 259
4 210 214 262 263
4 264 186 185 265
4 213 266 267 214
3 268 269 270
3 270 271 241
3 241 242 268
3 270 241 268
3 272 263 262
3 262 273 274
3 262 274 272
4 267 275 274 273
4 214 267 273 262
4 242 210 263 272
3 232 195 179
3 179 216 276
3 179 276 232
3 267 266 277
3 277 278 275
3 277 275 267
4 265 185 240 261
4 268 242 272 274
4 279 280 281 282
4 245 283 284 246
4 280 279 285 286
3 221 287 222
4 218 232 276 219
3 288 282 281
3 281 289 290
3 281 290 288
4 207 209 288 290
4 280 291 289 281
4 209 279 282 288
4 291 207 290 289
4 285 292 293 294
4 279 244 292 285
4 244 243 295 292
4 296 280 286 297
4 298 299 300 301
4 286 285 294 299
4 297 286 299 298
4 292 295 302 293
4 303 304 305 306
4 307 308 305 304
4 294 293 309 310
4 299 294 310 300
4 311 312 313 314
4 284 283 315 316
3 190 189 317
3 317 247 248
3 317 248 190
4 315 318 319 316
4 283 312 318 315
4 312 311 319 318
4 311 320 316 319
4 321 322 323 324
3 230 229 325
4 326 227 230 325
4 228 327 325 229
4 328 202 206 205
4 201 329 200 199
4 329 328 205 200
4 202 201 199 206
4 330 331 204 203
4 329 201 204 331
4 328 329 331 330
4 202 328 330 203
4 332 333 226 225
4 333 322 233 226
4 322 321 234 233
4 334 332 225 235
4 321 334 235 234
3 323 335 336
3 336 337 324
3 336 324 323
4 333 332 336 335
4 332 334 337 336
4 322 333 335 323
4 334 321 324 337
4 338 339 340 341
4 341 340 342 343
4 344 345 346 347
3 348 349 346
3 346 350 351
3 351 352 348
3 346 351 348
4 347 346 349 353
4 353 349 339 338
3 354 355 356
3 357 358 359
3 354 356 357
3 357 359 354
3 360 342 340
3 340 361 362
3 363 360 340
3 340 362 363
4 339 349 348 364
4 340 339 364 361
4 351 365 366 352
4 346 345 367 350
4 367 365 368 369
4 370 371 372 373
4 351 350 374 375
4 350 367 369 374
4 365 351 375 368
3 376 377 378
3 379 380 381
3 381 382 383
3 381 383 379
4 348 352 384 385
3 386 362 361
3 361 387 388
3 361 388 386
3 389 390 391
3 391 392 393
3 391 393 389
4 361 364 394 395
4 396 397 398 399
3 400 401 387
3 387 402 403
3 387 403 400
3 394 364 401
3 401 400 404
3 401 404 394
4 387 361 395 402
3 384 352 366
3 366 405 406
3 406 407 384
3 366 406 384
4 354 359 408 409
4 410 380 379 411
4 412 413 414 415
4 416 390 389 417
4 408 418 419 420
3 418 417 389
3 389 421 422
3 389 422 418
4 359 417 418 408
4 389 393 423 421
4 421 423 424 425
4 426 427 420 419
4 409 408 420 427
4 422 409 427 426
4 418 422 426 419
4 425 424 428 429
4 430 409 428 424
4 422 421 425 429
4 409 422 429 428
4 379 383 431 432
4 433 355 354 434
4 382 435 436 383
3 437 438 439
3 439 440 410
3 410 411 437
3 439 410 437
3 441 432 431
3 431 442 443
3 431 443 441
4 436 444 443 442
4 383 436 442 431
4 411 379 432 441
3 401 364 348
3 348 385 445
3 348 445 401
3 436 435 446
3 446 447 444
3 446 444 436
4 434 354 409 430
4 437 411 441 443
4 448 449 450 451
4 414 452 453 415
4 449 448 454 455
3 390 456 391
4 387 401 445 388
3 457 451 450
3 450 458 459
3 450 459 457
4 376 378 457 459
4 449 460 458 450
4 378 448 451 457
4 460 376 459 458
4 454 461 462 463
4 448 413 461 454
4 413 412 464 461
4 465 449 455 466
4 467 468 469 470
4 455 454 463 468
4 466 455 468 467
4 461 464 471 462
4 472 473 474 475
4 476 477 474 473
4 463 462 478 479
4 468 463 479 469
4 480 481 482 483
4 453 452 484 485
3 359 358 486
3 486 416 417
3 486 417 359
4 484 487 488 485
4 452 481 487 484
4 481 480 488 487
4 480 489 485 488
4 490 491 492 493
3 399 398 494
4 495 396 399 494
4 397 496 494 398
4 497 371 375 374
4 370 498 369 368
4 498 497 374 369
4 371 370 368 375
4 499 500 373 372
4 498 370 373 500
4 497 498 500 499
4 371 497 499 372
4 501 502 395 394
4 502 491 402 395
4 491 490 403 402
4 503 501 394 404
4 490 503 404 403
3 492 504 505
3 505 506 493
3 505 493 492
4 502 501 505 504
4 501 503 506 505
4 491 502 504 492
4 503 490 493 506
