ply
format ascii 1.0
comment Created by Blender 2.78 (sub 0) - www.blender.org, source file: 'soult.blend'
element vertex 57
property float x
property float y
property float z
property float nx
property float ny
property float nz
element face 21
property list uchar uint vertex_indices
end_header
-11.434806 0.000007 -11.298645 0.000002 1.000000 -0.000005
-10.596581 -0.000001 -12.570717 0.000002 1.000000 -0.000005
-12.224453 -0.000001 -13.126476 0.000002 1.000000 -0.000005
-12.224453 -0.000001 -13.126476 -0.000000 1.000000 -0.000000
-12.633333 -0.000001 -12.271540 -0.000000 1.000000 -0.000000
-12.162502 -0.000001 -12.054708 -0.000000 1.000000 -0.000000
-12.112943 -0.000001 -12.141443 -0.000000 1.000000 -0.000000
-12.846539 -0.000000 -9.718211 -0.000034 1.000000 -0.000026
-12.242778 0.000007 -10.224303 -0.000034 1.000000 -0.000026
-11.434806 0.000007 -11.298645 -0.000034 1.000000 -0.000026
-13.267250 -0.000000 -9.852661 -0.000000 1.000000 -0.000000
-12.925745 -0.000000 -9.646208 -0.000000 1.000000 -0.000000
-12.846539 -0.000000 -9.718211 -0.000000 1.000000 -0.000000
-13.364077 -0.000000 -9.933280 -0.000000 1.000000 -0.000000
-12.001427 -0.000001 -12.085686 0.000000 1.000000 -0.000000
-11.434806 0.000007 -11.298645 -0.000019 1.000000 0.000004
-12.224453 -0.000001 -13.126476 -0.000019 1.000000 0.000004
-12.001427 -0.000001 -12.085686 -0.000019 1.000000 0.000004
-13.364077 -0.000000 -9.933280 -0.000001 1.000000 0.000003
-12.846539 -0.000000 -9.718211 -0.000001 1.000000 0.000003
-11.434806 0.000007 -11.298645 -0.000001 1.000000 0.000003
-17.775826 0.000007 -15.146290 -0.000007 1.000000 0.000004
-18.362606 0.000004 -15.371589 -0.000007 1.000000 0.000004
-18.927685 -0.000008 -13.714580 -0.000007 1.000000 0.000004
-17.727894 0.000007 -15.140888 -0.000001 1.000000 0.000009
-17.775826 0.000007 -15.146290 -0.000001 1.000000 0.000009
-18.927685 -0.000008 -13.714580 -0.000001 1.000000 0.000009
-11.434806 0.000007 -11.298645 -0.000008 1.000000 -0.000004
-12.001427 -0.000001 -12.085686 -0.000008 1.000000 -0.000004
-12.664314 -0.000000 -10.555476 -0.000008 1.000000 -0.000004
-13.364077 -0.000000 -9.933280 -0.000019 1.000000 -0.000022
-11.434806 0.000007 -11.298645 -0.000019 1.000000 -0.000022
-12.664314 -0.000000 -10.555476 -0.000019 1.000000 -0.000022
-17.674206 -0.000054 -15.145018 0.001216 0.999999 0.001033
-17.727894 0.000007 -15.140888 0.001216 0.999999 0.001033
-18.927685 -0.000008 -13.714580 0.001216 0.999999 0.001033
-17.400879 -0.000001 -15.104387 0.000000 1.000000 0.000000
-17.602934 -0.000001 -15.195622 0.000000 1.000000 0.000000
-17.607410 -0.000001 -15.184309 0.000000 1.000000 0.000000
-17.607410 -0.000001 -15.184309 -0.001690 0.999997 -0.001514
-17.674206 -0.000054 -15.145018 -0.001690 0.999997 -0.001514
-18.927685 -0.000008 -13.714580 -0.001690 0.999997 -0.001514
-18.927685 -0.000008 -13.714580 -0.000001 1.000000 -0.000001
-13.364077 -0.000000 -9.933280 -0.000001 1.000000 -0.000001
-12.664314 -0.000000 -10.555476 -0.000001 1.000000 -0.000001
-18.927685 -0.000008 -13.714580 -0.000007 1.000000 0.000012
-12.664314 -0.000000 -10.555476 -0.000007 1.000000 0.000012
-13.401539 -0.000000 -10.995333 -0.000007 1.000000 0.000012
-17.400879 -0.000001 -15.104387 -0.000001 1.000000 0.000004
-17.607410 -0.000001 -15.184309 -0.000001 1.000000 0.000004
-18.927685 -0.000008 -13.714580 -0.000001 1.000000 0.000004
-18.927685 -0.000008 -13.714580 -0.000005 1.000000 0.000007
-13.401539 -0.000000 -10.995333 -0.000005 1.000000 0.000007
-17.876410 -0.000001 -14.056222 -0.000005 1.000000 0.000007
-17.876410 -0.000001 -14.056222 -0.000008 1.000000 -0.000004
-17.400879 -0.000001 -15.104387 -0.000008 1.000000 -0.000004
-18.927685 -0.000008 -13.714580 -0.000008 1.000000 -0.000004
3 0 1 2
3 3 4 5
3 3 5 6
3 7 8 9
3 10 11 12
3 13 10 12
3 3 6 14
3 15 16 17
3 18 19 20
3 21 22 23
3 24 25 26
3 27 28 29
3 30 31 32
3 33 34 35
3 36 37 38
3 39 40 41
3 42 43 44
3 45 46 47
3 48 49 50
3 51 52 53
3 54 55 56
