ply
format ascii 1.0
comment Created by Blender 2.78 (sub 0) - www.blender.org, source file: 'soult.blend'
element vertex 39
property float x
property float y
property float z
property float nx
property float ny
property float nz
element face 23
property list uchar uint vertex_indices
end_header
-34.975189 -0.000000 -7.123970 0.000000 1.000000 -0.000000
-34.199219 -0.000000 -6.444180 0.000000 1.000000 -0.000000
-34.457367 -0.000000 -6.791401 0.000000 1.000000 -0.000000
-34.677704 -0.000000 -7.093819 -0.000000 1.000000 -0.000000
-34.685791 -0.000000 -7.104179 -0.000000 1.000000 -0.000000
-34.695526 -0.000000 -7.112991 -0.000000 1.000000 -0.000000
-34.706696 -0.000000 -7.119957 -0.000000 1.000000 -0.000000
-34.716339 -0.000000 -7.124069 -0.000000 1.000000 -0.000000
-34.734833 -0.000000 -7.125427 -0.000000 1.000000 -0.000000
-34.753357 -0.000000 -7.126450 -0.000000 1.000000 -0.000000
-34.757172 -0.000000 -7.126663 -0.000000 1.000000 -0.000000
-34.965271 -0.000000 -7.120590 -0.000000 1.000000 -0.000000
-31.119991 -0.000001 -11.509005 -0.000000 1.000000 -0.000000
-31.119436 -0.000001 -11.924449 -0.000000 1.000000 -0.000000
-31.119781 -0.000001 -11.924583 -0.000000 1.000000 -0.000000
-31.119781 -0.000001 -11.924583 0.000000 1.000000 0.000001
-30.827505 -0.000000 -12.446095 0.000000 1.000000 0.000001
-31.325781 -0.000000 -12.656120 0.000000 1.000000 0.000001
-34.299522 -0.000000 -7.490853 0.000000 1.000000 -0.000000
-34.492809 -0.000000 -7.605573 0.000000 1.000000 -0.000000
-34.531807 -0.000000 -7.491617 0.000000 1.000000 -0.000000
-31.119781 -0.000001 -11.924583 0.000001 1.000000 0.000000
-31.325781 -0.000000 -12.656120 0.000001 1.000000 0.000000
-34.299522 -0.000000 -7.490853 0.000001 1.000000 0.000000
-31.119993 0.000000 -11.509003 0.258447 0.966025 0.000130
-31.119991 -0.000001 -11.509005 0.258447 0.966025 0.000130
-31.119781 -0.000001 -11.924583 0.258447 0.966025 0.000130
-33.890423 0.000000 -6.724168 -0.000000 1.000000 0.000000
-33.836044 0.000000 -6.678453 -0.000000 1.000000 0.000000
-31.119993 0.000000 -11.509003 -0.000000 1.000000 0.000000
-34.442608 -0.000000 -7.202603 -0.000007 1.000000 0.000009
-34.146900 -0.000000 -6.946388 -0.000007 1.000000 0.000009
-33.890423 0.000000 -6.724168 -0.000007 1.000000 0.000009
-34.524666 -0.000000 -7.366739 -0.000000 1.000000 0.000000
-34.503269 -0.000000 -7.288234 -0.000000 1.000000 0.000000
-34.442608 -0.000000 -7.202603 -0.000000 1.000000 0.000000
-31.119993 0.000000 -11.509003 -0.000002 1.000000 -0.000001
-31.119781 -0.000001 -11.924583 -0.000002 1.000000 -0.000001
-34.299522 -0.000000 -7.490853 -0.000002 1.000000 -0.000001
3 0 1 2
3 2 3 4
3 4 5 6
3 6 7 8
3 9 10 11
3 6 8 9
3 2 4 6
3 11 0 2
3 6 9 11
3 2 6 11
3 12 13 14
3 15 16 17
3 18 19 20
3 21 22 23
3 24 25 26
3 27 28 29
3 30 31 32
3 33 34 35
3 18 20 33
3 36 37 38
3 35 27 29
3 18 33 35
3 18 35 29
