ply
format ascii 1.0
comment Created by Blender 2.78 (sub 0) - www.blender.org, source file: 'soult.blend'
element vertex 45
property float x
property float y
property float z
property float nx
property float ny
property float nz
element face 33
property list uchar uint vertex_indices
end_header
-14.650432 -0.000000 -6.198513 0.000000 1.000000 -0.000000
-14.427068 -0.000000 -6.158738 0.000000 1.000000 -0.000000
-14.302047 -0.000000 -6.971276 0.000000 1.000000 -0.000000
-14.613736 -0.000000 -7.027779 -0.000000 1.000000 -0.000000
-18.830881 -0.000008 -6.873967 -0.000291 0.999998 0.001790
-14.758003 -0.000031 -6.198952 -0.000291 0.999998 0.001790
-14.650432 -0.000000 -6.198513 -0.000291 0.999998 0.001790
-21.457523 -0.000000 -7.722090 -0.000074 1.000000 0.000255
-20.890985 -0.000008 -7.528021 -0.000074 1.000000 0.000255
-20.179932 -0.000008 -7.321974 -0.000074 1.000000 0.000255
-20.179932 -0.000008 -7.321974 -0.000004 1.000000 0.000011
-18.830881 -0.000008 -6.873967 -0.000004 1.000000 0.000011
-14.650432 -0.000000 -6.198513 -0.000004 1.000000 0.000011
-15.220047 -0.000000 -7.145958 0.000000 1.000000 -0.000000
-16.744514 -0.000000 -7.518044 -0.000000 1.000000 -0.000000
-17.961624 -0.000000 -7.808472 -0.000000 1.000000 -0.000000
-19.209610 -0.000000 -8.123970 0.000000 1.000000 -0.000000
-20.536819 -0.000000 -8.449402 0.000000 1.000000 -0.000000
-20.971985 -0.000000 -8.549629 -0.000000 1.000000 -0.000000
-21.457523 -0.000000 -7.722090 -0.000015 1.000000 0.000067
-20.179932 -0.000008 -7.321974 -0.000015 1.000000 0.000067
-14.650432 -0.000000 -6.198513 -0.000015 1.000000 0.000067
-22.087173 -0.000000 -7.859917 0.000000 1.000000 -0.000000
-21.458836 -0.000000 -7.718599 0.000000 1.000000 -0.000000
-21.457523 -0.000000 -7.722090 0.000000 1.000000 -0.000000
-22.085941 -0.000000 -7.872500 0.000000 1.000000 -0.000000
-22.110001 -0.000000 -7.936024 0.000000 1.000000 -0.000000
-31.119991 -0.000001 -11.509005 -0.000000 1.000000 -0.000000
-25.908005 -0.000000 -9.423003 -0.000000 1.000000 -0.000000
-30.827501 -0.000001 -12.446093 -0.000000 1.000000 -0.000000
-31.119781 -0.000001 -11.924583 -0.000000 1.000000 -0.000000
-31.119436 -0.000001 -11.924449 -0.000000 1.000000 -0.000000
-21.885117 -0.000000 -8.811836 0.000000 1.000000 -0.000000
-29.817093 -0.000001 -12.042187 -0.000048 1.000000 0.000119
-30.608200 -0.000001 -12.358459 -0.000048 1.000000 0.000119
-30.827501 -0.000001 -12.446093 -0.000048 1.000000 0.000119
-24.330154 -0.000000 -9.787872 -0.000000 1.000000 0.000000
-25.143801 -0.000000 -10.130260 -0.000000 1.000000 0.000000
-29.817093 -0.000001 -12.042187 -0.000000 1.000000 0.000000
-22.654373 -0.000000 -9.118347 0.000000 1.000000 -0.000000
-23.895950 -0.000000 -9.618340 0.000000 1.000000 -0.000000
-22.037338 -0.000000 -8.869888 -0.000000 1.000000 -0.000000
-22.111893 -0.000000 -8.901230 -0.000000 1.000000 -0.000000
-21.912827 -0.000000 -8.820328 0.000000 1.000000 -0.000000
-21.926971 -0.000000 -8.826828 0.000000 1.000000 -0.000000
3 0 1 2
3 0 2 3
3 4 5 6
3 7 8 9
3 10 11 12
3 0 3 13
3 13 14 15
3 15 16 17
3 15 17 18
3 0 13 15
3 19 20 21
3 22 23 24
3 25 22 24
3 24 0 15
3 24 15 18
3 26 25 24
3 27 28 26
3 29 30 31
3 31 27 26
3 26 24 18
3 26 18 32
3 29 31 26
3 33 34 35
3 36 37 38
3 39 40 36
3 41 42 39
3 43 44 41
3 26 32 43
3 38 29 26
3 41 39 36
3 36 38 26
3 26 43 41
3 41 36 26
