ply
format ascii 1.0
comment Created by Blender 2.78 (sub 0) - www.blender.org, source file: 'soult.blend'
element vertex 51
property float x
property float y
property float z
property float nx
property float ny
property float nz
property float s
property float t
element face 28
property list uchar uint vertex_indices
end_header
-34.975189 -0.000000 -7.123970 0.000000 1.000000 -0.000000 0.781087 0.535610
-34.199219 -0.000000 -6.444180 0.000000 1.000000 -0.000000 0.744986 0.535610
-34.457367 -0.000000 -6.791401 0.000000 1.000000 -0.000000 0.759788 0.532423
-34.677704 -0.000000 -7.093819 -0.000000 1.000000 -0.000000 0.771837 0.529526
-34.685791 -0.000000 -7.104179 -0.000000 1.000000 -0.000000 0.772260 0.529438
-34.695526 -0.000000 -7.112991 -0.000000 1.000000 -0.000000 0.772692 0.529424
-34.706696 -0.000000 -7.119957 -0.000000 1.000000 -0.000000 0.773121 0.529486
-34.716339 -0.000000 -7.124069 -0.000000 1.000000 -0.000000 0.773450 0.529588
-34.734833 -0.000000 -7.125427 -0.000000 1.000000 -0.000000 0.773944 0.529948
-34.753357 -0.000000 -7.126450 -0.000000 1.000000 -0.000000 0.774431 0.530316
-34.757172 -0.000000 -7.126663 -0.000000 1.000000 -0.000000 0.774546 0.530403
-34.965271 -0.000000 -7.120590 -0.000000 1.000000 -0.000000 0.779664 0.535023
-31.119991 -0.000001 -11.509005 -0.000000 1.000000 -0.000000 0.145949 0.707453
-31.119436 -0.000001 -11.924449 -0.000000 1.000000 -0.000000 0.130591 0.698834
-31.119781 -0.000001 -11.924583 -0.000000 1.000000 -0.000000 0.130593 0.698818
-31.119781 -0.000001 -11.924583 0.000000 1.000000 0.000001 0.130593 0.698818
-30.827505 -0.000000 -12.446095 0.000000 1.000000 0.000001 0.105228 0.698732
-31.325781 -0.000000 -12.656120 0.000000 1.000000 0.000001 0.107871 0.676022
-31.325781 -0.000000 -12.656120 -0.000000 1.000000 -0.000000 0.107871 0.676022
-32.095856 -0.000000 -11.318533 -0.000000 1.000000 -0.000000 0.173355 0.675490
-31.435600 0.000000 -10.947691 -0.000000 1.000000 -0.000000 0.173271 0.707507
-31.119993 0.000000 -11.509003 0.258447 0.966025 0.000130 0.145949 0.707453
-31.119991 -0.000001 -11.509005 0.258447 0.966025 0.000130 0.145949 0.707453
-31.119781 -0.000001 -11.924583 0.258447 0.966025 0.000130 0.130593 0.698818
-31.119993 0.000000 -11.509003 -0.000000 1.000000 -0.000000 0.145949 0.707453
-31.119781 -0.000001 -11.924583 0.000007 1.000000 -0.000001 0.130593 0.698818
-31.325781 -0.000000 -12.656120 0.000007 1.000000 -0.000001 0.107871 0.676022
-31.119993 0.000000 -11.509003 0.000007 1.000000 -0.000001 0.145949 0.707453
-31.435600 0.000000 -10.947691 -0.000000 1.000000 -0.000000 0.003423 0.709214
-32.095856 -0.000000 -11.318533 -0.000000 1.000000 -0.000000 0.003507 0.677196
-32.745224 -0.000000 -10.190608 -0.000000 1.000000 -0.000000 0.058727 0.676748
-32.085732 0.000000 -9.791417 -0.000000 1.000000 -0.000000 0.059706 0.709326
-32.085732 0.000000 -9.791417 -0.000000 1.000000 -0.000000 0.006084 0.710208
-32.745224 -0.000000 -10.190608 -0.000000 1.000000 -0.000000 0.005105 0.677629
-33.385185 -0.000000 -9.079021 -0.000000 1.000000 -0.000000 0.059525 0.677187
-32.717896 0.000000 -8.667103 -0.000000 1.000000 -0.000000 0.060812 0.710317
-32.717896 0.000000 -8.667103 -0.000000 1.000000 -0.000000 0.005749 0.709702
-33.385185 -0.000000 -9.079021 -0.000000 1.000000 -0.000000 0.004463 0.676571
-34.029099 -0.000000 -7.960569 -0.000000 1.000000 -0.000000 0.059219 0.676127
-33.339935 0.000000 -7.560792 -0.000000 1.000000 -0.000000 0.059601 0.709810
-33.836044 0.000000 -6.678453 -0.000000 1.000000 -0.000000 0.105917 0.719825
-33.339935 0.000000 -7.560792 -0.000000 1.000000 -0.000000 0.062968 0.719739
-34.029099 -0.000000 -7.960569 -0.000000 1.000000 -0.000000 0.062586 0.686056
-34.299522 -0.000000 -7.490853 0.000000 1.000000 -0.000000 0.085583 0.685869
-34.492809 -0.000000 -7.605573 0.000000 1.000000 -0.000000 0.085380 0.676368
-34.531807 -0.000000 -7.491617 0.000000 1.000000 -0.000000 0.090403 0.677303
-34.146900 -0.000000 -6.946388 -0.000000 1.000000 -0.000000 0.102509 0.702810
-33.890423 0.000000 -6.724168 -0.000000 1.000000 -0.000000 0.105364 0.716873
-34.503269 -0.000000 -7.288234 -0.000000 1.000000 -0.000000 0.097320 0.682583
-34.442608 -0.000000 -7.202603 -0.000000 1.000000 -0.000000 0.099217 0.686596
-34.524666 -0.000000 -7.366739 0.000000 1.000000 0.000000 0.094867 0.680162
3 0 1 2
3 2 3 4
3 4 5 6
3 6 7 8
3 9 10 11
3 6 8 9
3 2 4 6
3 11 0 2
3 6 9 11
3 2 6 11
3 12 13 14
3 15 16 17
3 18 19 20
3 21 22 23
3 18 20 24
3 25 26 27
4 28 29 30 31
4 32 33 34 35
4 36 37 38 39
3 40 41 42
3 43 44 45
3 40 42 43
3 46 47 40
3 48 49 46
3 45 50 48
3 40 43 45
3 48 46 40
3 45 48 40
