ply
format ascii 1.0
comment Created by Blender 2.78 (sub 0) - www.blender.org, source file: 'soult.blend'
element vertex 77
property float x
property float y
property float z
property float nx
property float ny
property float nz
element face 25
property list uchar uint vertex_indices
end_header
-31.523010 1.103124 -15.742996 0.489281 0.000000 -0.872126
-31.424988 -0.000001 -15.688004 0.489281 0.000000 -0.872126
-31.523010 -0.000001 -15.742996 0.489281 0.000000 -0.872126
-29.985016 -0.000001 -15.824997 0.873734 0.000000 0.486403
-29.985016 0.699306 -15.824997 0.873734 0.000000 0.486403
-30.094391 0.614787 -15.628525 0.873734 0.000000 0.486403
-30.094391 0.614787 -15.628525 0.873722 0.000011 0.486425
-30.603151 1.037089 -14.714692 0.873722 0.000011 0.486425
-31.462006 0.625358 -13.171997 0.873722 0.000011 0.486425
-31.462006 0.625358 -13.171997 0.873723 -0.000000 0.486423
-31.462006 -0.000001 -13.171997 0.873723 -0.000000 0.486423
-29.985016 -0.000001 -15.824997 0.873723 -0.000000 0.486423
-30.094391 0.614787 -15.628525 0.873722 -0.000009 0.486425
-31.462006 0.625358 -13.171997 0.873722 -0.000009 0.486425
-29.985016 -0.000001 -15.824997 0.873722 -0.000009 0.486425
-35.062988 1.103124 -9.435997 0.000000 0.000000 0.000000
-35.062988 1.103124 -9.435997 0.000000 0.000000 0.000000
-35.062988 -0.000000 -9.435997 0.000000 0.000000 0.000000
-32.058990 -0.000001 -13.519997 0.869878 0.000000 0.493268
-32.058990 1.103124 -13.519997 0.869878 0.000000 0.493268
-32.640503 0.844670 -12.494499 0.869878 0.000000 0.493268
-32.640503 0.844670 -12.494499 0.869878 -0.000013 0.493266
-32.773643 0.965630 -12.259702 0.869878 -0.000013 0.493266
-34.170563 0.639673 -9.796235 0.869878 -0.000013 0.493266
-34.170563 0.639673 -9.796235 0.869877 -0.000000 0.493269
-34.540985 0.907996 -9.142998 0.869877 -0.000000 0.493269
-34.540985 -0.000000 -9.142998 0.869877 -0.000000 0.493269
-34.540985 -0.000000 -9.142998 0.869878 0.000000 0.493268
-32.640503 0.844670 -12.494499 0.869878 -0.000003 0.493267
-34.170563 0.639673 -9.796235 0.869878 -0.000003 0.493267
-34.540985 -0.000000 -9.142998 0.869878 -0.000003 0.493267
-31.714039 0.508276 -15.848242 -0.482551 0.000000 0.875868
-31.856995 0.646630 -15.927002 -0.482551 0.000000 0.875868
-31.856995 -0.000001 -15.927002 -0.482551 0.000000 0.875868
-31.462006 0.625358 -13.171997 -0.503611 0.000001 0.863931
-31.843981 0.427677 -13.394662 -0.503611 0.000001 0.863931
-32.058990 -0.000001 -13.519997 -0.503611 0.000001 0.863931
-31.462006 -0.000001 -13.171997 -0.503611 0.000001 0.863931
-30.037643 0.702265 -15.985263 0.950087 0.000000 -0.311986
-29.985016 0.699306 -15.824997 0.950087 0.000000 -0.311986
-29.985016 -0.000001 -15.824997 0.950087 0.000000 -0.311986
-31.187988 0.815194 -16.723007 0.490498 0.000000 -0.871442
-30.681374 0.647435 -16.437855 0.490498 0.000000 -0.871442
-30.074005 -0.000001 -16.095993 0.490498 0.000000 -0.871442
-31.187988 -0.000001 -16.723007 0.490498 0.000000 -0.871442
-32.869816 0.419689 -13.343463 -0.872032 0.000012 -0.489449
-32.427193 1.012399 -14.132052 -0.872032 0.000012 -0.489449
-31.523010 1.103124 -15.742996 -0.872032 0.000012 -0.489449
-35.062988 -0.000000 -9.435997 -0.872031 -0.000000 -0.489451
-35.062988 1.103124 -9.435997 -0.872031 -0.000000 -0.489451
-33.916817 0.745955 -11.478075 -0.872031 -0.000000 -0.489451
-33.916817 0.745955 -11.478075 -0.872031 -0.000009 -0.489451
-33.689396 1.012005 -11.883265 -0.872031 -0.000009 -0.489451
-33.196007 0.521337 -12.762303 -0.872031 -0.000009 -0.489451
-32.965267 0.291893 -13.173388 -0.872019 -0.000091 -0.489471
-32.869816 0.419689 -13.343463 -0.872019 -0.000091 -0.489471
-31.523010 1.103124 -15.742996 -0.872019 -0.000091 -0.489471
-33.916817 0.745955 -11.478075 -0.872033 -0.000038 -0.489447
-33.196007 0.521337 -12.762303 -0.872033 -0.000038 -0.489447
-32.965267 0.291893 -13.173388 -0.872033 -0.000038 -0.489447
-32.965267 0.291893 -13.173388 -0.872032 0.000000 -0.489450
-31.523010 1.103124 -15.742996 -0.872032 0.000000 -0.489450
-31.523010 -0.000001 -15.742996 -0.872032 0.000000 -0.489450
-35.062988 -0.000000 -9.435997 -0.872030 -0.000008 -0.489453
-33.916817 0.745955 -11.478075 -0.872030 -0.000008 -0.489453
-32.965267 0.291893 -13.173388 -0.872030 -0.000008 -0.489453
-31.523010 -0.000001 -15.742996 -0.872031 0.000022 -0.489451
-35.062988 -0.000000 -9.435997 -0.872031 0.000022 -0.489451
-32.965267 0.291893 -13.173388 -0.872031 0.000022 -0.489451
-34.540985 0.907996 -9.142998 -0.489465 0.000000 0.872023
-34.635685 0.903000 -9.196153 -0.489465 0.000000 0.872023
-35.062988 -0.000000 -9.435997 -0.489465 0.000000 0.872023
-34.540985 -0.000000 -9.142998 -0.489465 0.000000 0.872023
-30.074005 0.704309 -16.095993 0.950086 -0.000000 -0.311988
-30.037643 0.702265 -15.985263 0.950086 -0.000000 -0.311988
-29.985016 -0.000001 -15.824997 0.950086 -0.000000 -0.311988
-30.074005 -0.000001 -16.095993 0.950086 -0.000000 -0.311988
3 0 1 2
3 3 4 5
3 6 7 8
3 9 10 11
3 12 13 14
3 15 16 17
3 18 19 20
3 21 22 23
3 24 25 26
3 27 18 20
3 28 29 30
3 31 32 33
4 34 35 36 37
3 38 39 40
4 41 42 43 44
3 45 46 47
3 48 49 50
3 51 52 53
3 54 55 56
3 57 58 59
3 60 61 62
3 63 64 65
3 66 67 68
4 69 70 71 72
4 73 74 75 76
