ply
format ascii 1.0
comment Created by Blender 2.78 (sub 0) - www.blender.org, source file: 'soult.blend'
element vertex 83
property float x
property float y
property float z
property float nx
property float ny
property float nz
property float s
property float t
element face 30
property list uchar uint vertex_indices
end_header
-37.931404 -0.000000 -9.608263 -0.000000 1.000000 -0.000000 0.724620 0.877118
-37.390656 -0.000000 -10.249329 -0.000000 1.000000 -0.000000 0.724263 0.831112
-37.798676 -0.000000 -10.383583 -0.000000 1.000000 -0.000000 0.746188 0.839744
-38.233685 -0.000000 -9.862288 -0.000000 1.000000 -0.000000 0.746280 0.876990
-38.588337 -0.000000 -10.160325 -0.000000 1.000000 -0.000000 0.878446 0.213997
-38.233685 -0.000000 -9.862288 -0.000000 1.000000 -0.000000 0.849631 0.238212
-37.798676 -0.000000 -10.383583 -0.000000 1.000000 -0.000000 0.814286 0.195857
-37.956818 -0.000000 -10.489220 0.000000 1.000000 -0.000000 0.827135 0.187274
-38.170044 -0.000000 -10.671661 0.000000 1.000000 -0.000000 0.844460 0.172451
-37.467785 -0.000000 -9.218655 -0.000004 1.000000 0.000009 0.528310 0.790687
-37.306046 0.000000 -9.392008 -0.000004 1.000000 0.000009 0.548896 0.789758
-37.702721 0.000003 -9.737499 -0.000004 1.000000 0.000009 0.549772 0.836278
-37.869843 -0.000000 -9.556529 -0.000004 1.000000 0.000009 0.528246 0.837137
-34.975189 -0.000000 -7.123970 -0.000000 1.000000 -0.000000 0.832590 0.217610
-34.199219 -0.000000 -6.444180 -0.000000 1.000000 -0.000000 0.801867 0.197457
-33.843746 -0.000000 -6.684927 -0.000000 1.000000 -0.000000 0.806846 0.182846
-33.890427 -0.000000 -6.724171 -0.000000 1.000000 -0.000000 0.808649 0.184092
-35.791954 -0.000000 -8.106303 -0.000001 1.000000 0.000001 0.874532 0.236811
-35.945805 -0.000000 -7.939639 -0.000001 1.000000 0.000001 0.870167 0.243662
-34.975189 -0.000000 -7.123970 -0.000001 1.000000 0.000001 0.832590 0.217610
-36.549000 0.000000 -8.749156 0.000000 1.000000 0.000000 0.902818 0.256214
-36.170479 0.000000 -8.427730 0.000000 1.000000 0.000000 0.888675 0.246512
-35.791954 -0.000000 -8.106303 0.000000 1.000000 0.000000 0.874532 0.236811
-37.702721 0.000003 -9.737499 -0.000320 1.000000 0.000376 0.949305 0.287733
-37.306046 0.000000 -9.392008 -0.000320 1.000000 0.000376 0.931105 0.275617
-36.927521 0.000000 -9.070581 -0.000320 1.000000 0.000376 0.916962 0.265915
-36.927521 0.000000 -9.070581 -0.000000 1.000000 0.000000 0.916962 0.265915
-37.931404 -0.000000 -9.608263 -0.000010 1.000000 0.000012 0.946992 0.296889
-37.869843 -0.000000 -9.556529 -0.000010 1.000000 0.000012 0.944614 0.295245
-37.702721 0.000003 -9.737499 -0.000010 1.000000 0.000012 0.949305 0.287733
-37.702721 0.000003 -9.737499 -0.000320 1.000000 0.000377 0.949305 0.287733
-36.927521 0.000000 -9.070581 -0.000320 1.000000 0.000377 0.916962 0.265915
-35.791954 -0.000000 -8.106303 -0.000320 1.000000 0.000377 0.874532 0.236811
-35.791954 -0.000000 -8.106303 -0.000071 1.000000 0.000098 0.874532 0.236811
-33.890427 -0.000000 -6.724171 -0.000071 1.000000 0.000098 0.808649 0.184092
-34.442608 0.000007 -7.202603 -0.000071 1.000000 0.000098 0.830478 0.198706
-37.390656 -0.000000 -10.249329 -0.000032 1.000000 -0.000027 0.964097 0.272057
-37.931404 -0.000000 -9.608263 -0.000032 1.000000 -0.000027 0.946992 0.296889
-37.702721 0.000003 -9.737499 -0.000032 1.000000 -0.000027 0.949305 0.287733
-37.702721 0.000003 -9.737499 -0.000032 1.000000 0.000039 0.949305 0.287733
-35.791954 -0.000000 -8.106303 -0.000032 1.000000 0.000039 0.874532 0.236811
-34.442608 0.000007 -7.202603 -0.000032 1.000000 0.000039 0.830478 0.198706
-37.702721 0.000003 -9.737499 -0.000003 1.000000 0.000002 0.949305 0.287733
-34.442608 0.000007 -7.202603 -0.000003 1.000000 0.000002 0.830478 0.198706
-34.503269 0.000007 -7.288235 -0.000003 1.000000 0.000002 0.834023 0.199998
-37.257248 -0.000000 -10.246250 0.000000 1.000000 -0.000007 0.962725 0.267459
-37.390656 -0.000000 -10.249329 0.000000 1.000000 -0.000007 0.964097 0.272057
-37.702721 0.000003 -9.737499 0.000000 1.000000 -0.000007 0.949305 0.287733
-36.764458 -0.000000 -10.171848 -0.000000 1.000000 -0.000001 0.955472 0.251074
-36.970627 -0.000000 -10.293736 -0.000000 1.000000 -0.000001 0.961654 0.257068
-37.257248 -0.000000 -10.246250 -0.000000 1.000000 -0.000001 0.962725 0.267459
-34.531807 0.000015 -7.491619 0.000085 1.000000 -0.000102 0.841347 0.199059
-34.492809 -0.000000 -7.605574 0.000085 1.000000 -0.000102 0.844930 0.196626
-37.025505 0.000000 -9.711736 0.000085 1.000000 -0.000102 0.941990 0.264491
-37.025505 0.000000 -9.711736 -0.000000 1.000000 -0.000001 0.941990 0.264491
-37.702721 0.000003 -9.737499 -0.000002 1.000000 0.000000 0.949305 0.287733
-34.503269 0.000007 -7.288235 -0.000002 1.000000 0.000000 0.834023 0.199998
-34.524666 0.000007 -7.366733 -0.000002 1.000000 0.000000 0.836948 0.199995
-34.524666 0.000007 -7.366733 -0.000064 1.000000 0.000065 0.836948 0.199995
-34.531807 0.000015 -7.491619 -0.000064 1.000000 0.000065 0.841347 0.199059
-37.025505 0.000000 -9.711736 -0.000064 1.000000 0.000065 0.941990 0.264491
-37.025505 0.000000 -9.711736 0.000005 1.000000 -0.000003 0.941990 0.264491
-37.257248 -0.000000 -10.246250 0.000005 1.000000 -0.000003 0.962725 0.267459
-37.702721 0.000003 -9.737499 0.000005 1.000000 -0.000003 0.949305 0.287733
-34.524666 0.000007 -7.366733 0.000005 1.000000 -0.000009 0.836948 0.199995
-37.025505 0.000000 -9.711736 0.000005 1.000000 -0.000009 0.941990 0.264491
-37.702721 0.000003 -9.737499 0.000005 1.000000 -0.000009 0.949305 0.287733
-37.087288 -0.000000 -8.898901 -0.000001 1.000000 0.000002 0.528156 0.790861
-36.927521 0.000000 -9.070581 -0.000001 1.000000 0.000002 0.549092 0.789741
-37.306046 0.000000 -9.392008 -0.000001 1.000000 0.000002 0.549353 0.835969
-37.467785 -0.000000 -9.218655 -0.000001 1.000000 0.000002 0.528188 0.837129
-35.945805 -0.000000 -7.939639 -0.000001 1.000000 0.000001 0.528118 0.790868
-35.791954 -0.000000 -8.106303 -0.000001 1.000000 0.000001 0.548371 0.789870
-36.170479 0.000000 -8.427730 -0.000001 1.000000 0.000001 0.548632 0.836097
-36.326302 -0.000000 -8.259394 -0.000001 1.000000 0.000001 0.528150 0.837137
-36.326302 -0.000000 -8.259394 -0.000001 1.000000 0.000001 0.528089 0.790896
-36.170479 0.000000 -8.427730 -0.000001 1.000000 0.000001 0.548571 0.789857
-36.549000 0.000000 -8.749156 -0.000001 1.000000 0.000001 0.548832 0.836084
-36.706795 -0.000000 -8.579147 -0.000001 1.000000 0.000001 0.528122 0.837164
-36.706795 -0.000000 -8.579147 -0.000001 1.000000 0.000001 0.528122 0.790897
-36.549000 0.000000 -8.749156 -0.000001 1.000000 0.000001 0.548832 0.789817
-36.927521 0.000000 -9.070581 -0.000001 1.000000 0.000001 0.549092 0.836044
-37.087288 -0.000000 -8.898901 -0.000001 1.000000 0.000001 0.528156 0.837165
4 0 1 2 3
3 4 5 6
3 7 8 4
3 6 7 4
4 9 10 11 12
3 13 14 15
3 13 15 16
3 17 18 19
3 20 21 22
3 23 24 25
3 26 20 22
3 27 28 29
3 30 31 32
3 22 13 16
3 33 34 35
3 36 37 38
3 39 40 41
3 42 43 44
3 45 46 47
3 48 49 50
3 51 52 53
3 54 48 50
3 55 56 57
3 58 59 60
3 61 62 63
3 64 65 66
4 67 68 69 70
4 71 72 73 74
4 75 76 77 78
4 79 80 81 82
