ply
format ascii 1.0
comment Created by Blender 2.78 (sub 0) - www.blender.org, source file: 'soult.blend'
element vertex 229
property float x
property float y
property float z
property float nx
property float ny
property float nz
property float s
property float t
element face 76
property list uchar uint vertex_indices
end_header
-36.764458 -0.000000 -10.171848 -0.000001 1.000000 -0.000001 0.955472 0.251074
-36.534546 -0.000000 -10.577084 -0.000001 1.000000 -0.000001 0.967345 0.239258
-36.685150 -0.000000 -10.436134 -0.000001 1.000000 -0.000001 0.963885 0.245818
-34.759579 -0.481500 -8.370458 0.153454 0.983852 0.092125 0.000000 0.000000
-34.480698 -0.481432 -8.835723 0.153454 0.983852 0.092125 0.000000 0.000000
-35.616123 -0.240716 -9.515167 0.153454 0.983852 0.092125 0.000000 0.000000
-35.616123 -0.240716 -9.515167 0.155715 0.983844 0.088343 0.000000 0.000000
-36.751549 0.000000 -10.194613 0.155715 0.983844 0.088343 0.000000 0.000000
-37.019112 0.000000 -9.723001 0.155715 0.983844 0.088343 0.000000 0.000000
-35.616123 -0.240716 -9.515167 0.155343 0.983690 0.090677 0.000000 0.000000
-37.019112 0.000000 -9.723001 0.155343 0.983690 0.090677 0.000000 0.000000
-34.759579 -0.481500 -8.370458 0.155343 0.983690 0.090677 0.000000 0.000000
-31.644575 -0.158332 -17.306610 0.136566 0.986628 0.088967 0.000000 0.000000
-31.668505 -0.152166 -17.336819 0.136566 0.986628 0.088967 0.000000 0.000000
-32.286968 -0.080148 -17.187578 0.136566 0.986628 0.088967 0.000000 0.000000
-32.245796 -0.100476 -17.023905 0.136566 0.986628 0.088967 0.000000 0.000000
-32.286968 -0.080148 -17.187578 0.072528 0.973306 0.217751 0.000000 0.000000
-31.668505 -0.152166 -17.336819 0.072528 0.973306 0.217751 0.000000 0.000000
-31.673761 -0.065295 -17.458214 0.072528 0.973306 0.217751 0.000000 0.000000
-32.248188 -0.049934 -17.600697 0.072528 0.973306 0.217751 0.000000 0.000000
-31.610064 -0.000007 -17.629583 -0.067956 0.979192 0.191221 0.000000 0.000000
-32.207764 -0.000008 -17.982300 -0.067956 0.979192 0.191221 0.000000 0.000000
-32.248188 -0.049934 -17.600697 -0.067956 0.979192 0.191221 0.000000 0.000000
-31.673761 -0.065295 -17.458214 -0.067956 0.979192 0.191221 0.000000 0.000000
-30.310478 -0.481432 -15.859898 0.145700 0.985605 0.085760 0.000000 0.000000
-30.034975 -0.481500 -16.327173 0.145700 0.985605 0.085760 0.000000 0.000000
-30.545559 -0.380065 -16.625481 0.145700 0.985605 0.085760 0.000000 0.000000
-30.545559 -0.380065 -16.625481 0.006249 0.949907 0.312469 0.000000 0.000000
-31.056141 -0.278630 -16.923788 0.006249 0.949907 0.312469 0.000000 0.000000
-31.566725 -0.177194 -17.222095 0.006249 0.949907 0.312469 0.000000 0.000000
-31.566725 -0.177194 -17.222095 0.138417 0.986038 0.092574 0.000000 0.000000
-31.890097 -0.170493 -16.809967 0.138417 0.986038 0.092574 0.000000 0.000000
-30.310478 -0.481432 -15.859898 0.138417 0.986038 0.092574 0.000000 0.000000
-30.545559 -0.380065 -16.625481 0.145701 0.985605 0.085760 0.000000 0.000000
-31.566725 -0.177194 -17.222095 0.145701 0.985605 0.085760 0.000000 0.000000
-30.310478 -0.481432 -15.859898 0.145701 0.985605 0.085760 0.000000 0.000000
-31.566725 -0.177194 -17.222095 0.138471 0.986022 0.092666 0.000000 0.000000
-31.620646 -0.164498 -17.276400 0.138471 0.986022 0.092666 0.000000 0.000000
-32.067947 -0.135485 -16.916935 0.138471 0.986022 0.092666 0.000000 0.000000
-31.890097 -0.170493 -16.809967 0.138471 0.986022 0.092666 0.000000 0.000000
-31.620646 -0.164498 -17.276400 0.138338 0.986057 0.092485 0.000000 0.000000
-31.644575 -0.158332 -17.306610 0.138338 0.986057 0.092485 0.000000 0.000000
-32.245796 -0.100476 -17.023905 0.138338 0.986057 0.092485 0.000000 0.000000
-32.067947 -0.135485 -16.916935 0.138338 0.986057 0.092485 0.000000 0.000000
-34.242283 -0.481500 -8.008907 0.172722 0.793839 -0.583084 0.000000 0.000000
-34.492809 0.000000 -7.605574 0.172722 0.793839 -0.583084 0.000000 0.000000
-33.871758 -0.000000 -7.243611 0.172722 0.793839 -0.583084 0.000000 0.000000
-33.749825 -0.481500 -8.041024 0.172722 0.793839 -0.583084 0.000000 0.000000
-34.759579 -0.481500 -8.370458 0.156470 0.983683 0.088791 0.000000 0.000000
-37.019112 0.000000 -9.723001 0.156470 0.983683 0.088791 0.000000 0.000000
-37.025505 -0.000000 -9.711734 0.156470 0.983683 0.088791 0.000000 0.000000
-37.025505 -0.000000 -9.711734 0.457407 0.698738 -0.550040 0.000000 0.000000
-34.492809 0.000000 -7.605574 0.457407 0.698738 -0.550040 0.000000 0.000000
-34.242283 -0.481500 -8.008907 0.457407 0.698738 -0.550040 0.000000 0.000000
-34.563450 -0.481500 -8.201609 0.470829 0.692259 -0.546898 0.000000 0.000000
-34.759579 -0.481500 -8.370458 0.470829 0.692259 -0.546898 0.000000 0.000000
-37.025505 -0.000000 -9.711734 0.470829 0.692259 -0.546898 0.000000 0.000000
-37.025505 -0.000000 -9.711734 0.513618 -0.058461 -0.856025 0.000000 0.000000
-34.242283 -0.481500 -8.008907 0.513618 -0.058461 -0.856025 0.000000 0.000000
-34.563450 -0.481500 -8.201609 0.513618 -0.058461 -0.856025 0.000000 0.000000
-33.749825 -0.481500 -8.041024 -0.742157 0.536435 -0.401798 0.000000 0.000000
-33.871758 -0.000000 -7.243611 -0.742157 0.536435 -0.401798 0.000000 0.000000
-33.241638 -0.000000 -8.336845 -0.742157 0.536435 -0.401798 0.000000 0.000000
-33.567829 -0.481500 -8.447838 -0.742157 0.536435 -0.401798 0.000000 0.000000
-33.567829 -0.481500 -8.447838 -0.733629 0.484012 -0.476992 0.000000 0.000000
-33.241638 -0.000000 -8.336845 -0.733629 0.484012 -0.476992 0.000000 0.000000
-32.611523 -0.000000 -9.430080 -0.733629 0.484012 -0.476992 0.000000 0.000000
-32.979019 -0.481500 -9.229348 -0.733629 0.484012 -0.476992 0.000000 0.000000
-32.979019 -0.481500 -9.229348 -0.750367 0.543474 -0.376279 0.000000 0.000000
-32.611523 -0.000000 -9.430080 -0.750367 0.543474 -0.376279 0.000000 0.000000
-31.981407 -0.000000 -10.523314 -0.750367 0.543474 -0.376279 0.000000 0.000000
-32.507973 -0.481500 -10.332026 -0.750367 0.543474 -0.376279 0.000000 0.000000
-32.507973 -0.481500 -10.332026 -0.718785 0.531687 -0.447947 0.000000 0.000000
-31.981407 -0.000000 -10.523314 -0.718785 0.531687 -0.447947 0.000000 0.000000
-31.351292 -0.000000 -11.616549 -0.718785 0.531687 -0.447947 0.000000 0.000000
-31.876343 -0.481500 -11.263415 -0.718785 0.531687 -0.447947 0.000000 0.000000
-31.876343 -0.481500 -11.263415 -0.705883 0.609519 -0.360855 0.000000 0.000000
-31.351292 -0.000000 -11.616549 -0.705883 0.609519 -0.360855 0.000000 0.000000
-30.721176 -0.000000 -12.709784 -0.705883 0.609519 -0.360855 0.000000 0.000000
-31.383884 -0.481500 -12.366094 -0.705883 0.609519 -0.360855 0.000000 0.000000
-31.383884 -0.481500 -12.366094 -0.749670 0.364622 -0.552310 0.000000 0.000000
-30.721176 -0.000000 -12.709784 -0.749670 0.364622 -0.552310 0.000000 0.000000
-30.091059 -0.000000 -13.803018 -0.749670 0.364622 -0.552310 0.000000 0.000000
-30.688019 -0.481500 -13.072664 -0.749670 0.364622 -0.552310 0.000000 0.000000
-30.688019 -0.481500 -13.072664 -0.752913 0.550008 -0.361405 0.000000 0.000000
-30.091059 -0.000000 -13.803018 -0.752913 0.550008 -0.361405 0.000000 0.000000
-29.460941 -0.000000 -14.896252 -0.752913 0.550008 -0.361405 0.000000 0.000000
-30.109915 -0.481500 -14.496511 -0.752913 0.550008 -0.361405 0.000000 0.000000
-30.109915 -0.481500 -14.496511 -0.658714 0.666318 -0.349451 0.000000 0.000000
-29.460941 -0.000000 -14.896252 -0.658714 0.666318 -0.349451 0.000000 0.000000
-28.830826 -0.000000 -15.989486 -0.658714 0.666318 -0.349451 0.000000 0.000000
-29.660278 -0.481500 -15.438606 -0.658714 0.666318 -0.349451 0.000000 0.000000
-29.660278 -0.481500 -15.438606 -0.452593 0.886787 0.093640 0.000000 0.000000
-28.830826 -0.000000 -15.989486 -0.452593 0.886787 0.093640 0.000000 0.000000
-29.788746 -0.481500 -16.059532 -0.452593 0.886787 0.093640 0.000000 0.000000
-28.830826 -0.000000 -15.989486 -0.380437 0.663076 0.644669 0.000000 0.000000
-29.386673 -0.000001 -16.317505 -0.380437 0.663076 0.644669 0.000000 0.000000
-29.788746 -0.481500 -16.059532 -0.380437 0.663076 0.644669 0.000000 0.000000
-29.788746 -0.481500 -16.059532 -0.468604 0.618270 0.630993 0.000000 0.000000
-29.386673 -0.000001 -16.317505 -0.468604 0.618270 0.630993 0.000000 0.000000
-29.942522 -0.000003 -16.645523 -0.468604 0.618270 0.630993 0.000000 0.000000
-30.034975 -0.481500 -16.327173 -0.468604 0.618270 0.630993 0.000000 0.000000
-30.498369 -0.000004 -16.973543 -0.358845 0.606775 0.709263 0.000000 0.000000
-30.545559 -0.380065 -16.625481 -0.358845 0.606775 0.709263 0.000000 0.000000
-30.034975 -0.481500 -16.327173 -0.358845 0.606775 0.709263 0.000000 0.000000
-29.942522 -0.000003 -16.645523 -0.358845 0.606775 0.709263 0.000000 0.000000
-31.054216 -0.000006 -17.301563 -0.301576 0.716122 0.629461 0.000000 0.000000
-31.056141 -0.278630 -16.923788 -0.301576 0.716122 0.629461 0.000000 0.000000
-30.545559 -0.380065 -16.625481 -0.301576 0.716122 0.629461 0.000000 0.000000
-30.498369 -0.000004 -16.973543 -0.301576 0.716122 0.629461 0.000000 0.000000
-31.644575 -0.158332 -17.306610 0.145735 0.985602 0.085727 0.000000 0.000000
-31.620646 -0.164498 -17.276400 0.145735 0.985602 0.085727 0.000000 0.000000
-31.566725 -0.177194 -17.222095 0.145735 0.985602 0.085727 0.000000 0.000000
-31.566725 -0.177194 -17.222095 -0.183295 0.791599 0.582901 0.000000 0.000000
-31.056141 -0.278630 -16.923788 -0.183295 0.791599 0.582901 0.000000 0.000000
-31.054216 -0.000006 -17.301563 -0.183295 0.791599 0.582901 0.000000 0.000000
-31.054216 -0.000006 -17.301563 -0.173328 0.940049 0.293709 0.000000 0.000000
-31.610064 -0.000007 -17.629583 -0.173328 0.940049 0.293709 0.000000 0.000000
-31.673761 -0.065295 -17.458214 -0.173328 0.940049 0.293709 0.000000 0.000000
-31.673761 -0.065295 -17.458214 -0.480369 0.703275 0.524071 0.000000 0.000000
-31.668505 -0.152166 -17.336819 -0.480369 0.703275 0.524071 0.000000 0.000000
-31.644575 -0.158332 -17.306610 -0.480369 0.703275 0.524071 0.000000 0.000000
-31.644575 -0.158332 -17.306610 -0.238884 0.877481 0.415886 0.000000 0.000000
-31.566725 -0.177194 -17.222095 -0.238884 0.877481 0.415886 0.000000 0.000000
-31.054216 -0.000006 -17.301563 -0.238884 0.877481 0.415886 0.000000 0.000000
-31.644575 -0.158332 -17.306610 -0.222213 0.811342 0.540690 0.000000 0.000000
-31.054216 -0.000006 -17.301563 -0.222213 0.811342 0.540690 0.000000 0.000000
-31.673761 -0.065295 -17.458214 -0.222213 0.811342 0.540690 0.000000 0.000000
-33.567829 -0.481500 -8.447838 0.000000 1.000000 0.000000 0.000000 0.000000
-32.979019 -0.481500 -9.229348 0.000000 1.000000 0.000000 0.000000 0.000000
-32.507973 -0.481500 -10.332026 0.000000 1.000000 0.000000 0.000000 0.000000
-31.876343 -0.481500 -11.263415 0.000000 1.000000 0.000000 0.000000 0.000000
-31.383884 -0.481500 -12.366094 0.000000 1.000000 0.000000 0.000000 0.000000
-30.688019 -0.481500 -13.072664 0.000000 1.000000 0.000000 0.000000 0.000000
-30.109915 -0.481500 -14.496511 0.000000 1.000000 0.000000 0.000000 0.000000
-29.660278 -0.481500 -15.438606 0.000000 1.000000 -0.000000 0.000000 0.000000
-29.788746 -0.481500 -16.059532 0.000000 1.000000 -0.000000 0.000000 0.000000
-29.788746 -0.481500 -16.059532 0.000097 1.000000 -0.000089 0.000000 0.000000
-30.034975 -0.481500 -16.327173 0.000097 1.000000 -0.000089 0.000000 0.000000
-30.310478 -0.481432 -15.859898 0.000097 1.000000 -0.000089 0.000000 0.000000
-30.109915 -0.481500 -14.496511 0.000142 1.000000 0.000029 0.000000 0.000000
-29.788746 -0.481500 -16.059532 0.000142 1.000000 0.000029 0.000000 0.000000
-30.310478 -0.481432 -15.859898 0.000142 1.000000 0.000029 0.000000 0.000000
-31.383884 -0.481500 -12.366094 0.000067 1.000000 0.000040 0.000000 0.000000
-30.109915 -0.481500 -14.496511 0.000067 1.000000 0.000040 0.000000 0.000000
-30.310478 -0.481432 -15.859898 0.000067 1.000000 0.000040 0.000000 0.000000
-31.383884 -0.481500 -12.366094 0.000002 1.000000 0.000020 0.000000 0.000000
-30.310478 -0.481432 -15.859898 0.000002 1.000000 0.000020 0.000000 0.000000
-30.600454 -0.481432 -15.837296 0.000002 1.000000 0.000020 0.000000 0.000000
-34.242283 -0.481500 -8.008907 0.000000 1.000000 0.000000 0.000000 0.000000
-33.749825 -0.481500 -8.041024 0.000000 1.000000 0.000000 0.000000 0.000000
-33.567829 -0.481500 -8.447838 0.000059 1.000000 0.000033 0.000000 0.000000
-31.383884 -0.481500 -12.366094 0.000059 1.000000 0.000033 0.000000 0.000000
-30.600454 -0.481432 -15.837296 0.000059 1.000000 0.000033 0.000000 0.000000
-31.261442 -0.481432 -15.959702 -0.000000 1.000000 0.000000 0.000000 0.000000
-32.277405 -0.481432 -16.290195 -0.000000 1.000000 0.000000 0.000000 0.000000
-33.134239 -0.481432 -15.898499 -0.000000 1.000000 0.000000 0.000000 0.000000
-33.567829 -0.481500 -8.447838 -0.000002 1.000000 0.000009 0.000000 0.000000
-30.600454 -0.481432 -15.837296 -0.000002 1.000000 0.000009 0.000000 0.000000
-31.261442 -0.481432 -15.959702 -0.000002 1.000000 0.000009 0.000000 0.000000
-34.563450 -0.481500 -8.201609 0.000000 1.000000 0.000000 0.000000 0.000000
-34.480698 -0.481432 -8.835723 -0.000083 1.000000 0.000097 0.000000 0.000000
-34.759579 -0.481500 -8.370458 -0.000083 1.000000 0.000097 0.000000 0.000000
-34.563450 -0.481500 -8.201609 -0.000083 1.000000 0.000097 0.000000 0.000000
-35.949558 -0.481432 -10.451470 0.000000 1.000000 0.000000 0.000000 0.000000
-35.447697 -0.481432 -9.766002 0.000000 1.000000 0.000000 0.000000 0.000000
-34.480698 -0.481432 -8.835723 0.000000 1.000000 0.000000 0.000000 0.000000
-33.954353 -0.481432 -14.343953 0.000000 1.000000 0.000000 0.000000 0.000000
-35.655785 -0.481432 -11.528635 0.000000 1.000000 0.000000 0.000000 0.000000
-34.563450 -0.481500 -8.201609 0.000002 1.000000 0.000010 0.000000 0.000000
-33.567829 -0.481500 -8.447838 0.000002 1.000000 0.000010 0.000000 0.000000
-31.261442 -0.481432 -15.959702 0.000002 1.000000 0.000010 0.000000 0.000000
-34.480698 -0.481432 -8.835723 0.000335 1.000000 0.000151 0.000000 0.000000
-34.563450 -0.481500 -8.201609 0.000335 1.000000 0.000151 0.000000 0.000000
-31.261442 -0.481432 -15.959702 0.000335 1.000000 0.000151 0.000000 0.000000
-34.480698 -0.481432 -8.835723 0.436059 0.777430 -0.453271 0.000000 0.000000
-35.447697 -0.481432 -9.766002 0.436059 0.777430 -0.453271 0.000000 0.000000
-35.616123 -0.240716 -9.515167 0.436059 0.777430 -0.453271 0.000000 0.000000
-35.447697 -0.481432 -9.766002 0.425638 0.828230 -0.364509 0.000000 0.000000
-35.949558 -0.481432 -10.451470 0.425638 0.828230 -0.364509 0.000000 0.000000
-36.751549 0.000000 -10.194613 0.425638 0.828230 -0.364509 0.000000 0.000000
-35.616123 -0.240716 -9.515167 0.425638 0.828230 -0.364509 0.000000 0.000000
-35.655785 -0.481432 -11.528635 0.659291 0.693124 0.291401 0.000000 0.000000
-35.925041 -0.000000 -11.652069 0.659291 0.693124 0.291401 0.000000 0.000000
-36.751549 0.000000 -10.194613 0.659291 0.693124 0.291401 0.000000 0.000000
-35.949558 -0.481432 -10.451470 0.659291 0.693124 0.291401 0.000000 0.000000
-33.954353 -0.481432 -14.343953 0.706575 0.573369 0.414728 0.000000 0.000000
-34.527412 -0.000000 -14.116639 0.706575 0.573369 0.414728 0.000000 0.000000
-35.925041 -0.000000 -11.652069 0.706575 0.573369 0.414728 0.000000 0.000000
-35.655785 -0.481432 -11.528635 0.706575 0.573369 0.414728 0.000000 0.000000
-33.134239 -0.481432 -15.898499 0.699967 0.601703 0.384708 0.000000 0.000000
-33.415344 -0.000000 -16.077652 0.699967 0.601703 0.384708 0.000000 0.000000
-34.527412 -0.000000 -14.116639 0.699967 0.601703 0.384708 0.000000 0.000000
-33.954353 -0.481432 -14.343953 0.699967 0.601703 0.384708 0.000000 0.000000
-32.277405 -0.481432 -16.290195 0.418679 0.799296 0.431085 0.000000 0.000000
-32.859314 -0.000000 -17.058159 0.418679 0.799296 0.431085 0.000000 0.000000
-33.415344 -0.000000 -16.077652 0.418679 0.799296 0.431085 0.000000 0.000000
-33.134239 -0.481432 -15.898499 0.418679 0.799296 0.431085 0.000000 0.000000
-32.245796 -0.100476 -17.023905 0.156554 0.984188 0.082854 0.000000 0.000000
-32.286968 -0.080148 -17.187578 0.156554 0.984188 0.082854 0.000000 0.000000
-32.859314 -0.000000 -17.058159 0.156554 0.984188 0.082854 0.000000 0.000000
-32.859314 -0.000000 -17.058159 0.059374 0.865411 0.497532 0.000000 0.000000
-32.277405 -0.481432 -16.290195 0.059374 0.865411 0.497532 0.000000 0.000000
-32.067947 -0.135485 -16.916935 0.059374 0.865411 0.497532 0.000000 0.000000
-32.859314 -0.000000 -17.058159 0.158079 0.985617 0.059747 0.000000 0.000000
-32.067947 -0.135485 -16.916935 0.158079 0.985617 0.059747 0.000000 0.000000
-32.245796 -0.100476 -17.023905 0.158079 0.985617 0.059747 0.000000 0.000000
-30.600454 -0.481432 -15.837296 0.021685 0.960272 0.278224 0.000000 0.000000
-30.310478 -0.481432 -15.859898 0.021685 0.960272 0.278224 0.000000 0.000000
-31.890097 -0.170493 -16.809967 0.021685 0.960272 0.278224 0.000000 0.000000
-31.890097 -0.170493 -16.809967 -0.099567 0.884837 0.455137 0.000000 0.000000
-32.067947 -0.135485 -16.916935 -0.099567 0.884837 0.455137 0.000000 0.000000
-32.277405 -0.481432 -16.290195 -0.099567 0.884837 0.455137 0.000000 0.000000
-30.600454 -0.481432 -15.837296 0.000000 1.000000 0.000000 0.000000 0.000000
-31.890097 -0.170493 -16.809967 -0.119531 0.888724 0.442586 0.000000 0.000000
-32.277405 -0.481432 -16.290195 -0.119531 0.888724 0.442586 0.000000 0.000000
-30.600454 -0.481432 -15.837296 -0.119531 0.888724 0.442586 0.000000 0.000000
-32.248188 -0.049934 -17.600697 -0.071853 0.989938 0.121904 0.000000 0.000000
-32.207764 -0.000008 -17.982300 -0.071853 0.989938 0.121904 0.000000 0.000000
-32.303280 -0.000000 -18.038666 -0.071853 0.989938 0.121904 0.000000 0.000000
-32.303280 -0.000000 -18.038666 0.157961 0.983374 0.089578 0.000000 0.000000
-32.859314 -0.000000 -17.058159 0.157961 0.983374 0.089578 0.000000 0.000000
-32.286968 -0.080148 -17.187578 0.157961 0.983374 0.089578 0.000000 0.000000
-32.248188 -0.049934 -17.600697 0.182229 0.979245 0.088724 0.000000 0.000000
-32.303280 -0.000000 -18.038666 0.182229 0.979245 0.088724 0.000000 0.000000
-32.286968 -0.080148 -17.187578 0.182229 0.979245 0.088724 0.000000 0.000000
-36.970627 -0.000000 -10.293736 -0.000000 1.000000 -0.000001 0.961654 0.257068
-36.764458 -0.000000 -10.171848 -0.000000 1.000000 -0.000001 0.955472 0.251074
-36.685150 -0.000000 -10.436134 -0.000000 1.000000 -0.000001 0.963885 0.245818
3 0 1 2
3 3 4 5
3 6 7 8
3 9 10 11
4 12 13 14 15
4 16 17 18 19
4 20 21 22 23
3 24 25 26
3 27 28 29
3 30 31 32
3 33 34 35
4 36 37 38 39
4 40 41 42 43
4 44 45 46 47
3 48 49 50
3 51 52 53
3 54 55 56
3 57 58 59
4 60 61 62 63
4 64 65 66 67
4 68 69 70 71
4 72 73 74 75
4 76 77 78 79
4 80 81 82 83
4 84 85 86 87
4 88 89 90 91
3 92 93 94
3 95 96 97
4 98 99 100 101
4 102 103 104 105
4 106 107 108 109
3 110 111 112
3 113 114 115
3 116 117 118
3 119 120 121
3 122 123 124
3 125 126 127
3 128 129 130
3 130 131 132
3 132 133 134
3 134 135 136
3 137 138 139
3 140 141 142
3 128 130 132
3 143 144 145
3 146 147 148
3 149 150 128
3 151 152 153
3 154 155 156
3 157 158 159
3 160 149 128
3 161 162 163
3 164 165 166
3 167 168 164
3 154 156 167
3 169 170 171
3 167 164 166
3 172 173 174
3 154 167 166
3 175 176 177
4 178 179 180 181
4 182 183 184 185
4 186 187 188 189
4 190 191 192 193
4 194 195 196 197
3 198 199 200
3 201 202 203
3 204 205 206
3 207 208 209
3 210 211 212
3 155 154 213
3 214 215 216
3 217 218 219
3 220 221 222
3 223 224 225
3 226 227 228
