ply
format ascii 1.0
comment Created by Blender 2.78 (sub 0) - www.blender.org, source file: 'soult.blend'
element vertex 585
property float x
property float y
property float z
property float nx
property float ny
property float nz
property float s
property float t
element face 174
property list uchar uint vertex_indices
end_header
-36.764458 -0.000000 -10.171848 -0.000001 1.000000 -0.000001 0.641011 0.484836
-36.534546 -0.000000 -10.577084 -0.000001 1.000000 -0.000001 0.665380 0.460585
-36.685150 -0.000000 -10.436134 -0.000001 1.000000 -0.000001 0.658279 0.474048
-36.970627 -0.000000 -10.293736 -0.000000 1.000000 -0.000001 0.653699 0.497139
-36.764458 -0.000000 -10.171848 -0.000000 1.000000 -0.000001 0.641011 0.484836
-36.685150 -0.000000 -10.436134 -0.000000 1.000000 -0.000001 0.658279 0.474048
-35.137993 -0.000005 -8.380568 0.000019 1.000000 -0.000022 0.277191 0.283521
-35.043224 -0.000011 -8.540229 0.000019 1.000000 -0.000022 0.253534 0.283521
-37.019112 0.000000 -9.723001 0.000019 1.000000 -0.000022 0.253534 0.035972
-37.019112 0.000000 -9.723001 0.000000 1.000000 0.000000 0.253534 0.035972
-37.025505 0.000000 -9.711736 0.000000 1.000000 0.000000 0.257712 0.036388
-35.232758 -0.000000 -8.220906 0.000000 1.000000 0.000000 0.303352 0.283521
-35.232758 -0.000000 -8.220906 0.000019 1.000000 -0.000022 0.303352 0.283521
-34.496029 -0.000000 -8.316586 0.000000 1.000000 0.000000 0.102491 0.353184
-34.633945 -0.000000 -8.080234 0.000000 1.000000 0.000000 0.133443 0.353184
-34.131325 -0.000000 -7.783010 0.000000 1.000000 0.000000 0.133443 0.419528
-33.995098 -0.000000 -8.019627 0.000000 1.000000 0.000000 0.102491 0.419528
-34.087021 -0.000000 -9.021160 0.000000 1.000000 0.000000 0.135432 0.353184
-34.220192 -0.000000 -8.789293 0.000000 1.000000 0.000000 0.166384 0.353184
-33.722645 -0.000000 -8.492859 0.000000 1.000000 0.000000 0.166384 0.419528
-33.588619 -0.000000 -8.725657 0.000000 1.000000 0.000000 0.135432 0.419528
-31.958643 -0.000000 -12.726393 0.000000 1.000000 0.000000 0.135432 0.353184
-32.089420 -0.000000 -12.499163 0.000000 1.000000 0.000000 0.166384 0.353184
-31.578238 -0.000000 -12.217615 0.000000 1.000000 0.000000 0.166384 0.419528
-31.440327 -0.000000 -12.457163 0.000000 1.000000 0.000000 0.135432 0.419528
-32.089420 -0.000000 -12.499163 0.000000 1.000000 0.000000 0.069996 0.353184
-32.222595 -0.000000 -12.267296 0.000000 1.000000 0.000000 0.100949 0.353184
-31.712263 -0.000000 -11.984818 0.000000 1.000000 0.000000 0.100949 0.419528
-31.578238 -0.000000 -12.217615 0.000000 1.000000 0.000000 0.069996 0.419528
-32.222595 -0.000000 -12.267296 0.000000 1.000000 0.000000 0.135432 0.353184
-32.355770 -0.000000 -12.035429 0.000000 1.000000 0.000000 0.166384 0.353184
-31.846289 -0.000000 -11.752020 0.000000 1.000000 0.000000 0.166384 0.419528
-31.712263 -0.000000 -11.984818 0.000000 1.000000 0.000000 0.135432 0.419528
-32.355770 -0.000000 -12.035429 0.000000 1.000000 0.000000 0.102491 0.353184
-32.488941 -0.000000 -11.803562 0.000000 1.000000 0.000000 0.133443 0.353184
-31.980314 -0.000000 -11.519222 0.000000 1.000000 0.000000 0.133443 0.419528
-31.846289 -0.000000 -11.752020 0.000000 1.000000 0.000000 0.102491 0.419528
-32.488941 -0.000000 -11.803562 0.000000 1.000000 0.000000 0.069996 0.353184
-32.622116 -0.000000 -11.571693 0.000000 1.000000 0.000000 0.100949 0.353184
-32.114338 -0.000000 -11.286425 0.000000 1.000000 0.000000 0.100949 0.419528
-31.980314 -0.000000 -11.519222 0.000000 1.000000 0.000000 0.069996 0.419528
-32.622116 -0.000000 -11.571693 0.000000 1.000000 0.000000 0.135432 0.353184
-32.755287 -0.000000 -11.339827 0.000000 1.000000 0.000000 0.166384 0.353184
-32.248363 -0.000000 -11.053627 0.000000 1.000000 0.000000 0.166384 0.419528
-32.114338 -0.000000 -11.286425 0.000000 1.000000 0.000000 0.135432 0.419528
-32.755287 -0.000000 -11.339827 0.000000 1.000000 0.000000 0.102491 0.353184
-32.888458 -0.000000 -11.107961 0.000000 1.000000 0.000000 0.133443 0.353184
-32.382389 -0.000000 -10.820830 0.000000 1.000000 0.000000 0.133443 0.419528
-32.248363 -0.000000 -11.053627 0.000000 1.000000 0.000000 0.102491 0.419528
-32.888458 -0.000000 -11.107961 0.000000 1.000000 0.000000 0.135432 0.353184
-33.021637 -0.000000 -10.876095 0.000000 1.000000 0.000000 0.166384 0.353184
-32.516415 -0.000000 -10.588034 0.000000 1.000000 0.000000 0.166384 0.419528
-32.382389 -0.000000 -10.820830 0.000000 1.000000 0.000000 0.135432 0.419528
-33.021637 -0.000000 -10.876095 0.000000 1.000000 0.000000 0.069996 0.353184
-33.154808 -0.000000 -10.644228 0.000000 1.000000 0.000000 0.100949 0.353184
-32.650440 -0.000000 -10.355236 0.000000 1.000000 0.000000 0.100949 0.419528
-32.516415 -0.000000 -10.588034 0.000000 1.000000 0.000000 0.069996 0.419528
-33.154808 -0.000000 -10.644228 0.000000 1.000000 0.000000 0.102491 0.353184
-33.287979 -0.000000 -10.412360 0.000000 1.000000 0.000000 0.133443 0.353184
-32.784466 -0.000000 -10.122438 0.000000 1.000000 0.000000 0.133443 0.419528
-32.650440 -0.000000 -10.355236 0.000000 1.000000 0.000000 0.102491 0.419528
-33.287979 -0.000000 -10.412360 0.000000 1.000000 0.000000 0.135432 0.353184
-33.421158 -0.000000 -10.180494 0.000000 1.000000 0.000000 0.166384 0.353184
-32.918491 -0.000000 -9.889642 0.000000 1.000000 0.000000 0.166384 0.419528
-32.784466 -0.000000 -10.122438 0.000000 1.000000 0.000000 0.135432 0.419528
-33.421158 -0.000000 -10.180494 0.000000 1.000000 0.000000 0.069996 0.353184
-33.554329 -0.000000 -9.948627 0.000000 1.000000 0.000000 0.100949 0.353184
-33.052517 -0.000000 -9.656845 0.000000 1.000000 0.000000 0.100949 0.419528
-32.918491 -0.000000 -9.889642 0.000000 1.000000 0.000000 0.069996 0.419528
-33.554329 -0.000000 -9.948627 0.000000 1.000000 0.000000 0.102491 0.353184
-33.687500 -0.000000 -9.716761 0.000000 1.000000 0.000000 0.133443 0.353184
-33.186543 -0.000000 -9.424047 0.000000 1.000000 0.000000 0.133443 0.419528
-33.052517 -0.000000 -9.656845 0.000000 1.000000 0.000000 0.102491 0.419528
-33.687500 -0.000000 -9.716761 0.000000 1.000000 0.000000 0.102491 0.353184
-33.820671 -0.000000 -9.484894 0.000000 1.000000 0.000000 0.133443 0.353184
-33.320568 -0.000000 -9.191250 0.000000 1.000000 0.000000 0.133443 0.419528
-33.186543 -0.000000 -9.424047 0.000000 1.000000 0.000000 0.102491 0.419528
-33.820671 -0.000000 -9.484894 0.000000 1.000000 0.000000 0.135432 0.353184
-33.953850 -0.000000 -9.253027 0.000000 1.000000 0.000000 0.166384 0.353184
-33.454594 -0.000000 -8.958453 0.000000 1.000000 0.000000 0.166384 0.419528
-33.320568 -0.000000 -9.191250 0.000000 1.000000 0.000000 0.135432 0.419528
-33.953850 -0.000000 -9.253027 0.000000 1.000000 0.000000 0.069996 0.353184
-34.087021 -0.000000 -9.021160 0.000000 1.000000 0.000000 0.100949 0.353184
-33.588619 -0.000000 -8.725657 0.000000 1.000000 0.000000 0.100949 0.419528
-33.454594 -0.000000 -8.958453 0.000000 1.000000 0.000000 0.069996 0.419528
-36.450119 0.000000 -10.725897 0.000000 1.000000 0.000000 0.102491 0.353184
-36.579033 0.000000 -10.498682 0.000000 1.000000 0.000000 0.133443 0.353184
-36.080631 -0.000000 -10.203177 0.000000 1.000000 0.000000 0.133443 0.419528
-35.950867 -0.000000 -10.431323 0.000000 1.000000 0.000000 0.102491 0.419528
-35.950867 -0.000000 -10.431323 0.000000 1.000000 0.000000 0.168444 0.353184
-36.080631 -0.000000 -10.203177 0.000000 1.000000 0.000000 0.199396 0.353184
-35.582230 -0.000000 -9.907673 0.000000 1.000000 0.000000 0.199396 0.419528
-35.451611 -0.000000 -10.136749 0.000000 1.000000 0.000000 0.168444 0.419528
-35.451611 -0.000000 -10.136749 0.000000 1.000000 0.000000 0.115588 0.150614
-35.582230 -0.000000 -9.907673 0.000000 1.000000 0.000000 0.145432 0.150614
-35.083828 -0.000000 -9.612169 0.000000 1.000000 0.000000 0.145432 0.218100
-34.952354 -0.000000 -9.842175 0.000000 1.000000 0.000000 0.115588 0.218100
-34.585426 -0.000000 -9.316665 0.000000 1.000000 0.000000 0.145432 0.283521
-34.453102 -0.000000 -9.547602 0.000000 1.000000 0.000000 0.115588 0.283521
-34.453102 -0.000000 -9.547602 0.000000 1.000000 0.000000 0.200474 0.353184
-34.585426 -0.000000 -9.316665 0.000000 1.000000 0.000000 0.231426 0.353184
-34.087021 -0.000000 -9.021160 0.000000 1.000000 0.000000 0.231426 0.419528
-33.953850 -0.000000 -9.253027 0.000000 1.000000 0.000000 0.200474 0.419528
-36.321205 0.000000 -10.953112 0.000000 1.000000 0.000000 0.135432 0.353184
-36.450119 0.000000 -10.725897 0.000000 1.000000 0.000000 0.166384 0.353184
-35.950867 -0.000000 -10.431323 0.000000 1.000000 0.000000 0.166384 0.419528
-35.821098 -0.000000 -10.659468 0.000000 1.000000 0.000000 0.135432 0.419528
-35.821098 -0.000000 -10.659468 0.000000 1.000000 0.000000 0.200474 0.353184
-35.950867 -0.000000 -10.431323 0.000000 1.000000 0.000000 0.231426 0.353184
-35.451611 -0.000000 -10.136749 0.000000 1.000000 0.000000 0.231426 0.419528
-35.320992 -0.000000 -10.365824 0.000000 1.000000 0.000000 0.200474 0.419528
-35.320992 -0.000000 -10.365824 0.000000 1.000000 0.000000 0.135432 0.353184
-35.451611 -0.000000 -10.136749 0.000000 1.000000 0.000000 0.166384 0.353184
-34.952354 -0.000000 -9.842175 0.000000 1.000000 0.000000 0.166384 0.419528
-34.820885 -0.000000 -10.072180 0.000000 1.000000 0.000000 0.135432 0.419528
-34.820885 -0.000000 -10.072180 0.000000 1.000000 0.000000 0.069996 0.353184
-34.952354 -0.000000 -9.842175 0.000000 1.000000 0.000000 0.100949 0.353184
-34.453102 -0.000000 -9.547602 0.000000 1.000000 0.000000 0.100949 0.419528
-34.320778 -0.000000 -9.778537 0.000000 1.000000 0.000000 0.069996 0.419528
-34.320778 -0.000000 -9.778537 0.000000 1.000000 0.000000 0.200474 0.353184
-34.453102 -0.000000 -9.547602 0.000000 1.000000 0.000000 0.231426 0.353184
-33.953850 -0.000000 -9.253027 0.000000 1.000000 0.000000 0.231426 0.419528
-33.820671 -0.000000 -9.484894 0.000000 1.000000 0.000000 0.200474 0.419528
-36.192295 0.000000 -11.180326 0.000000 1.000000 0.000000 0.069996 0.353184
-36.321205 0.000000 -10.953112 0.000000 1.000000 0.000000 0.100949 0.353184
-35.821098 -0.000000 -10.659468 0.000000 1.000000 0.000000 0.100949 0.419528
-35.691338 -0.000000 -10.887612 0.000000 1.000000 0.000000 0.069996 0.419528
-35.691338 -0.000000 -10.887612 0.000000 1.000000 0.000000 0.232039 0.353184
-35.821098 -0.000000 -10.659468 0.000000 1.000000 0.000000 0.262992 0.353184
-35.320992 -0.000000 -10.365824 0.000000 1.000000 0.000000 0.262992 0.419528
-35.190380 -0.000000 -10.594899 0.000000 1.000000 0.000000 0.232039 0.419528
-35.190380 -0.000000 -10.594899 0.000000 1.000000 0.000000 0.102491 0.353184
-35.320992 -0.000000 -10.365824 0.000000 1.000000 0.000000 0.133443 0.353184
-34.820885 -0.000000 -10.072180 0.000000 1.000000 0.000000 0.133443 0.419528
-34.689423 -0.000000 -10.302186 0.000000 1.000000 0.000000 0.102491 0.419528
-34.689423 -0.000000 -10.302186 0.000000 1.000000 0.000000 0.102491 0.353184
-34.820885 -0.000000 -10.072180 0.000000 1.000000 0.000000 0.133443 0.353184
-34.320778 -0.000000 -9.778537 0.000000 1.000000 0.000000 0.133443 0.419528
-34.188461 -0.000000 -10.009473 0.000000 1.000000 0.000000 0.102491 0.419528
-34.188461 -0.000000 -10.009473 0.000000 1.000000 0.000000 0.232039 0.353184
-34.320778 -0.000000 -9.778537 0.000000 1.000000 0.000000 0.262992 0.353184
-33.820671 -0.000000 -9.484894 0.000000 1.000000 0.000000 0.262992 0.419528
-33.687500 -0.000000 -9.716761 0.000000 1.000000 0.000000 0.232039 0.419528
-36.063385 0.000000 -11.407539 0.000000 1.000000 0.000000 0.102491 0.353184
-36.192295 0.000000 -11.180326 0.000000 1.000000 0.000000 0.133443 0.353184
-35.691338 -0.000000 -10.887612 0.000000 1.000000 0.000000 0.133443 0.419528
-35.561573 -0.000000 -11.115757 0.000000 1.000000 0.000000 0.102491 0.419528
-35.561573 -0.000000 -11.115757 0.000000 1.000000 0.000000 0.168444 0.353184
-35.691338 -0.000000 -10.887612 0.000000 1.000000 0.000000 0.199396 0.353184
-35.190380 -0.000000 -10.594899 0.000000 1.000000 0.000000 0.199396 0.419528
-35.059761 -0.000000 -10.823975 0.000000 1.000000 0.000000 0.168444 0.419528
-34.696709 -0.000000 -10.329427 -0.868177 0.000000 -0.496254 0.008577 0.259890
-34.584953 -0.000000 -10.524939 -0.868177 0.000000 -0.496254 0.008577 0.198185
-34.584953 -0.012199 -10.524939 -0.868177 0.000000 -0.496254 0.016059 0.198185
-34.696709 -0.012199 -10.329427 -0.868177 0.000000 -0.496254 0.016059 0.259890
-34.557949 -0.000000 -10.532192 0.000000 1.000000 0.000000 0.135432 0.353184
-34.689423 -0.000000 -10.302186 0.000000 1.000000 0.000000 0.166384 0.353184
-34.188461 -0.000000 -10.009473 0.000000 1.000000 0.000000 0.166384 0.419528
-34.056137 -0.000000 -10.240410 0.000000 1.000000 0.000000 0.135432 0.419528
-34.056137 -0.000000 -10.240410 0.000000 1.000000 0.000000 0.200474 0.353184
-34.188461 -0.000000 -10.009473 0.000000 1.000000 0.000000 0.231426 0.353184
-33.687500 -0.000000 -9.716761 0.000000 1.000000 0.000000 0.231426 0.419528
-33.554329 -0.000000 -9.948627 0.000000 1.000000 0.000000 0.200474 0.419528
-35.934471 0.000000 -11.634754 0.000000 1.000000 0.000000 0.135432 0.353184
-36.063385 0.000000 -11.407539 0.000000 1.000000 0.000000 0.166384 0.353184
-35.561573 -0.000000 -11.115757 0.000000 1.000000 0.000000 0.166384 0.419528
-35.431808 -0.000000 -11.343903 0.000000 1.000000 0.000000 0.135432 0.419528
-35.431808 -0.000000 -11.343903 0.000000 1.000000 0.000000 0.200474 0.353184
-35.561573 -0.000000 -11.115757 0.000000 1.000000 0.000000 0.231426 0.353184
-35.059761 -0.000000 -10.823975 0.000000 1.000000 0.000000 0.231426 0.419528
-34.929146 -0.000000 -11.053050 0.000000 1.000000 0.000000 0.200474 0.419528
-34.929146 -0.000000 -11.053050 0.000000 1.000000 0.000000 0.135432 0.353184
-35.059761 -0.000000 -10.823975 0.000000 1.000000 0.000000 0.166384 0.353184
-34.557949 -0.000000 -10.532192 0.000000 1.000000 0.000000 0.166384 0.419528
-34.426483 -0.000000 -10.762197 0.000000 1.000000 0.000000 0.135432 0.419528
-34.426483 -0.000000 -10.762197 0.000000 1.000000 0.000000 0.069996 0.353184
-34.557949 -0.000000 -10.532192 0.000000 1.000000 0.000000 0.100949 0.353184
-34.056137 -0.000000 -10.240410 0.000000 1.000000 0.000000 0.100949 0.419528
-33.923820 -0.000000 -10.471346 0.000000 1.000000 0.000000 0.069996 0.419528
-33.923820 -0.000000 -10.471346 0.000000 1.000000 0.000000 0.168444 0.353184
-34.056137 -0.000000 -10.240410 0.000000 1.000000 0.000000 0.199396 0.353184
-33.554329 -0.000000 -9.948627 0.000000 1.000000 0.000000 0.199396 0.419528
-33.421158 -0.000000 -10.180494 0.000000 1.000000 0.000000 0.168444 0.419528
-35.805557 0.000000 -11.861969 0.000000 1.000000 0.000000 0.135432 0.353184
-35.934471 0.000000 -11.634754 0.000000 1.000000 0.000000 0.166384 0.353184
-35.431808 -0.000000 -11.343903 0.000000 1.000000 0.000000 0.166384 0.419528
-35.302040 -0.000000 -11.572047 0.000000 1.000000 0.000000 0.135432 0.419528
-35.302040 -0.000000 -11.572047 0.000000 1.000000 0.000000 0.168444 0.353184
-35.431808 -0.000000 -11.343903 0.000000 1.000000 0.000000 0.199396 0.353184
-34.929146 -0.000000 -11.053050 0.000000 1.000000 0.000000 0.199396 0.419528
-34.798527 -0.000000 -11.282125 0.000000 1.000000 0.000000 0.168444 0.419528
-34.798527 -0.000000 -11.282125 0.000000 1.000000 0.000000 0.102491 0.353184
-34.929146 -0.000000 -11.053050 0.000000 1.000000 0.000000 0.133443 0.353184
-34.426483 -0.000000 -10.762197 0.000000 1.000000 0.000000 0.133443 0.419528
-34.295013 -0.000000 -10.992204 0.000000 1.000000 0.000000 0.102491 0.419528
-34.295013 -0.000000 -10.992204 0.000000 1.000000 0.000000 0.069996 0.353184
-34.426483 -0.000000 -10.762197 0.000000 1.000000 0.000000 0.100949 0.353184
-33.923820 -0.000000 -10.471346 0.000000 1.000000 0.000000 0.100949 0.419528
-33.791496 -0.000000 -10.702282 0.000000 1.000000 0.000000 0.069996 0.419528
-33.791496 -0.000000 -10.702282 0.000000 1.000000 0.000000 0.232039 0.353184
-33.923820 -0.000000 -10.471346 0.000000 1.000000 0.000000 0.262992 0.353184
-33.421158 -0.000000 -10.180494 0.000000 1.000000 0.000000 0.262992 0.419528
-33.287979 -0.000000 -10.412360 0.000000 1.000000 0.000000 0.232039 0.419528
-35.676647 0.000000 -12.089183 0.000000 1.000000 0.000000 0.069996 0.353184
-35.805557 0.000000 -11.861969 0.000000 1.000000 0.000000 0.100949 0.353184
-35.302040 -0.000000 -11.572047 0.000000 1.000000 0.000000 0.100949 0.419528
-35.172279 -0.000000 -11.800192 0.000000 1.000000 0.000000 0.069996 0.419528
-35.172279 -0.000000 -11.800192 0.000000 1.000000 0.000000 0.232039 0.353184
-35.302040 -0.000000 -11.572047 0.000000 1.000000 0.000000 0.262992 0.353184
-34.798527 -0.000000 -11.282125 0.000000 1.000000 0.000000 0.262992 0.419528
-34.667912 -0.000000 -11.511201 0.000000 1.000000 0.000000 0.232039 0.419528
-34.667912 -0.000000 -11.511201 0.000000 1.000000 0.000000 0.069996 0.353184
-34.798527 -0.000000 -11.282125 0.000000 1.000000 0.000000 0.100949 0.353184
-34.295013 -0.000000 -10.992204 0.000000 1.000000 0.000000 0.100949 0.419528
-34.163544 -0.000000 -11.222210 0.000000 1.000000 0.000000 0.069996 0.419528
-34.163544 -0.000000 -11.222210 0.000000 1.000000 0.000000 0.102491 0.353184
-34.295013 -0.000000 -10.992204 0.000000 1.000000 0.000000 0.133443 0.353184
-33.791496 -0.000000 -10.702282 0.000000 1.000000 0.000000 0.133443 0.419528
-33.659176 -0.000000 -10.933219 0.000000 1.000000 0.000000 0.102491 0.419528
-33.659176 -0.000000 -10.933219 0.000000 1.000000 0.000000 0.232039 0.353184
-33.791496 -0.000000 -10.702282 0.000000 1.000000 0.000000 0.262992 0.353184
-33.287979 -0.000000 -10.412360 0.000000 1.000000 0.000000 0.262992 0.419528
-33.154808 -0.000000 -10.644228 0.000000 1.000000 0.000000 0.232039 0.419528
-35.547737 0.000000 -12.316398 0.000000 1.000000 0.000000 0.135432 0.353184
-35.676647 0.000000 -12.089183 0.000000 1.000000 0.000000 0.166384 0.353184
-35.172279 -0.000000 -11.800192 0.000000 1.000000 0.000000 0.166384 0.419528
-35.042519 -0.000000 -12.028337 0.000000 1.000000 0.000000 0.135432 0.419528
-35.042519 -0.000000 -12.028337 0.000000 1.000000 0.000000 0.114112 0.085366
-35.172279 -0.000000 -11.800192 0.000000 1.000000 0.000000 0.144370 0.085366
-34.667912 -0.000000 -11.511201 0.000000 1.000000 0.000000 0.144370 0.150614
-34.537296 -0.000000 -11.740276 0.000000 1.000000 0.000000 0.114112 0.150614
-34.537296 -0.000000 -11.740276 0.000000 1.000000 0.000000 0.135432 0.353184
-34.667912 -0.000000 -11.511201 0.000000 1.000000 0.000000 0.166384 0.353184
-34.163544 -0.000000 -11.222210 0.000000 1.000000 0.000000 0.166384 0.419528
-34.032074 -0.000000 -11.452215 0.000000 1.000000 0.000000 0.135432 0.419528
-34.032074 -0.000000 -11.452215 0.000000 1.000000 0.000000 0.135432 0.353184
-34.163544 -0.000000 -11.222210 0.000000 1.000000 0.000000 0.166384 0.353184
-33.659176 -0.000000 -10.933219 0.000000 1.000000 0.000000 0.166384 0.419528
-33.526855 -0.000000 -11.164155 0.000000 1.000000 0.000000 0.135432 0.419528
-33.526855 -0.000000 -11.164155 0.000000 1.000000 0.000000 0.114112 0.283521
-33.659176 -0.000000 -10.933219 0.000000 1.000000 0.000000 0.144370 0.283521
-33.154808 -0.000000 -10.644228 0.000000 1.000000 0.000000 0.144370 0.350575
-33.021637 -0.000000 -10.876095 0.000000 1.000000 0.000000 0.114112 0.350575
-35.418823 0.000000 -12.543612 0.000000 1.000000 0.000000 0.102491 0.353184
-35.547737 0.000000 -12.316398 0.000000 1.000000 0.000000 0.133443 0.353184
-35.042519 -0.000000 -12.028337 0.000000 1.000000 0.000000 0.133443 0.419528
-34.912750 -0.000000 -12.256482 0.000000 1.000000 0.000000 0.102491 0.419528
-34.912750 -0.000000 -12.256482 0.000000 1.000000 0.000000 0.083807 0.085366
-34.406677 -0.000000 -11.969352 0.000000 1.000000 0.000000 0.083807 0.150614
-34.406677 -0.000000 -11.969352 0.000000 1.000000 0.000000 0.069996 0.353184
-34.537296 -0.000000 -11.740276 0.000000 1.000000 0.000000 0.100949 0.353184
-34.032074 -0.000000 -11.452215 0.000000 1.000000 0.000000 0.100949 0.419528
-33.900604 -0.000000 -11.682221 0.000000 1.000000 0.000000 0.069996 0.419528
-33.900604 -0.000000 -11.682221 0.000000 1.000000 0.000000 0.102491 0.353184
-34.032074 -0.000000 -11.452215 0.000000 1.000000 0.000000 0.133443 0.353184
-33.526855 -0.000000 -11.164155 0.000000 1.000000 0.000000 0.133443 0.419528
-33.394531 -0.000000 -11.395091 0.000000 1.000000 0.000000 0.102491 0.419528
-33.394531 -0.000000 -11.395091 0.000000 1.000000 0.000000 0.083807 0.283521
-32.888458 -0.000000 -11.107961 0.000000 1.000000 0.000000 0.083807 0.350575
-35.289909 0.000000 -12.770827 0.000000 1.000000 0.000000 0.135432 0.353184
-35.418823 0.000000 -12.543612 0.000000 1.000000 0.000000 0.166384 0.353184
-34.912750 -0.000000 -12.256482 0.000000 1.000000 0.000000 0.166384 0.419528
-34.782986 -0.000000 -12.484627 0.000000 1.000000 0.000000 0.135432 0.419528
-34.782986 -0.000000 -12.484627 0.000000 1.000000 0.000000 0.200474 0.353184
-34.912750 -0.000000 -12.256482 0.000000 1.000000 0.000000 0.231426 0.353184
-34.406677 -0.000000 -11.969352 0.000000 1.000000 0.000000 0.231426 0.419528
-34.276062 -0.000000 -12.198427 0.000000 1.000000 0.000000 0.200474 0.419528
-34.276062 -0.000000 -12.198427 0.000000 1.000000 0.000000 0.102491 0.353184
-34.406677 -0.000000 -11.969352 0.000000 1.000000 0.000000 0.133443 0.353184
-33.900604 -0.000000 -11.682221 0.000000 1.000000 0.000000 0.133443 0.419528
-33.769138 -0.000000 -11.912228 0.000000 1.000000 0.000000 0.102491 0.419528
-33.769138 -0.000000 -11.912228 0.000000 1.000000 0.000000 0.069996 0.353184
-33.900604 -0.000000 -11.682221 0.000000 1.000000 0.000000 0.100949 0.353184
-33.394531 -0.000000 -11.395091 0.000000 1.000000 0.000000 0.100949 0.419528
-33.262215 -0.000000 -11.626027 0.000000 1.000000 0.000000 0.069996 0.419528
-33.262215 -0.000000 -11.626027 0.000000 1.000000 0.000000 0.168444 0.353184
-33.394531 -0.000000 -11.395091 0.000000 1.000000 0.000000 0.199396 0.353184
-32.888458 -0.000000 -11.107961 0.000000 1.000000 0.000000 0.199396 0.419528
-32.755287 -0.000000 -11.339827 0.000000 1.000000 0.000000 0.168444 0.419528
-35.160999 0.000000 -12.998042 0.000000 1.000000 0.000000 0.069996 0.353184
-35.289909 0.000000 -12.770827 0.000000 1.000000 0.000000 0.100949 0.353184
-34.782986 -0.000000 -12.484627 0.000000 1.000000 0.000000 0.100949 0.419528
-34.653221 -0.000000 -12.712772 0.000000 1.000000 0.000000 0.069996 0.419528
-34.653221 -0.000000 -12.712772 0.000000 1.000000 0.000000 0.168444 0.353184
-34.782986 -0.000000 -12.484627 0.000000 1.000000 0.000000 0.199396 0.353184
-34.276062 -0.000000 -12.198427 0.000000 1.000000 0.000000 0.199396 0.419528
-34.145443 -0.000000 -12.427503 0.000000 1.000000 0.000000 0.168444 0.419528
-34.145443 -0.000000 -12.427503 0.000000 1.000000 0.000000 0.069996 0.353184
-34.276062 -0.000000 -12.198427 0.000000 1.000000 0.000000 0.100949 0.353184
-33.769138 -0.000000 -11.912228 0.000000 1.000000 0.000000 0.100949 0.419528
-33.637665 -0.000000 -12.142233 0.000000 1.000000 0.000000 0.069996 0.419528
-33.269630 -0.000000 -11.653002 -0.867658 0.000000 -0.497162 0.008577 0.259890
-33.157059 -0.000000 -11.849464 -0.867658 0.000000 -0.497162 0.008577 0.198185
-33.157059 -0.012199 -11.849464 -0.867658 0.000000 -0.497162 0.016059 0.198185
-33.269630 -0.012199 -11.653002 -0.867658 0.000000 -0.497162 0.016059 0.259890
-33.129890 -0.000000 -11.856963 0.000000 1.000000 0.000000 0.232039 0.353184
-33.262215 -0.000000 -11.626027 0.000000 1.000000 0.000000 0.262992 0.353184
-32.755287 -0.000000 -11.339827 0.000000 1.000000 0.000000 0.262992 0.419528
-32.622116 -0.000000 -11.571693 0.000000 1.000000 0.000000 0.232039 0.419528
-35.032085 0.000000 -13.225257 0.000000 1.000000 0.000000 0.102491 0.353184
-35.160999 0.000000 -12.998042 0.000000 1.000000 0.000000 0.133443 0.353184
-34.653221 -0.000000 -12.712772 0.000000 1.000000 0.000000 0.133443 0.419528
-34.523457 -0.000000 -12.940918 0.000000 1.000000 0.000000 0.102491 0.419528
-34.523457 -0.000000 -12.940918 0.000000 1.000000 0.000000 0.232039 0.353184
-34.653221 -0.000000 -12.712772 0.000000 1.000000 0.000000 0.262992 0.353184
-34.145443 -0.000000 -12.427503 0.000000 1.000000 0.000000 0.262992 0.419528
-34.014828 -0.000000 -12.656579 0.000000 1.000000 0.000000 0.232039 0.419528
-34.014828 -0.000000 -12.656579 0.000000 1.000000 0.000000 0.102491 0.353184
-34.145443 -0.000000 -12.427503 0.000000 1.000000 0.000000 0.133443 0.353184
-33.637665 -0.000000 -12.142233 0.000000 1.000000 0.000000 0.133443 0.419528
-33.506199 -0.000000 -12.372240 0.000000 1.000000 0.000000 0.102491 0.419528
-33.506199 -0.000000 -12.372240 0.000000 1.000000 0.000000 0.069996 0.353184
-33.637665 -0.000000 -12.142233 0.000000 1.000000 0.000000 0.100949 0.353184
-33.129890 -0.000000 -11.856963 0.000000 1.000000 0.000000 0.100949 0.419528
-32.997570 -0.000000 -12.087901 0.000000 1.000000 0.000000 0.069996 0.419528
-32.997570 -0.000000 -12.087901 0.000000 1.000000 0.000000 0.168444 0.353184
-33.129890 -0.000000 -11.856963 0.000000 1.000000 0.000000 0.199396 0.353184
-32.622116 -0.000000 -11.571693 0.000000 1.000000 0.000000 0.199396 0.419528
-32.488941 -0.000000 -11.803562 0.000000 1.000000 0.000000 0.168444 0.419528
-34.903172 0.000000 -13.452472 0.000000 1.000000 0.000000 0.135432 0.353184
-35.032085 0.000000 -13.225257 0.000000 1.000000 0.000000 0.166384 0.353184
-34.523457 -0.000000 -12.940918 0.000000 1.000000 0.000000 0.166384 0.419528
-34.393692 -0.000000 -13.169064 0.000000 1.000000 0.000000 0.135432 0.419528
-34.393692 -0.000000 -13.169064 0.000000 1.000000 0.000000 0.168444 0.353184
-34.523457 -0.000000 -12.940918 0.000000 1.000000 0.000000 0.199396 0.353184
-34.014828 -0.000000 -12.656579 0.000000 1.000000 0.000000 0.199396 0.419528
-33.884212 -0.000000 -12.885654 0.000000 1.000000 0.000000 0.168444 0.419528
-33.884212 -0.000000 -12.885654 0.000000 1.000000 0.000000 0.069996 0.353184
-34.014828 -0.000000 -12.656579 0.000000 1.000000 0.000000 0.100949 0.353184
-33.506199 -0.000000 -12.372240 0.000000 1.000000 0.000000 0.100949 0.419528
-33.374733 -0.000000 -12.602245 0.000000 1.000000 0.000000 0.069996 0.419528
-33.374733 -0.000000 -12.602245 0.000000 1.000000 0.000000 0.135432 0.353184
-33.506199 -0.000000 -12.372240 0.000000 1.000000 0.000000 0.166384 0.353184
-32.997570 -0.000000 -12.087901 0.000000 1.000000 0.000000 0.166384 0.419528
-32.865250 -0.000000 -12.318837 0.000000 1.000000 0.000000 0.135432 0.419528
-32.865250 -0.000000 -12.318837 0.000000 1.000000 0.000000 0.200474 0.353184
-32.997570 -0.000000 -12.087901 0.000000 1.000000 0.000000 0.231426 0.353184
-32.488941 -0.000000 -11.803562 0.000000 1.000000 0.000000 0.231426 0.419528
-32.355770 -0.000000 -12.035429 0.000000 1.000000 0.000000 0.200474 0.419528
-34.774258 0.000000 -13.679687 0.000000 1.000000 0.000000 0.069996 0.353184
-34.903172 0.000000 -13.452472 0.000000 1.000000 0.000000 0.100949 0.353184
-34.393692 -0.000000 -13.169064 0.000000 1.000000 0.000000 0.100949 0.419528
-34.263924 -0.000000 -13.397208 0.000000 1.000000 0.000000 0.069996 0.419528
-34.263924 -0.000000 -13.397208 0.000000 1.000000 0.000000 0.200474 0.353184
-34.393692 -0.000000 -13.169064 0.000000 1.000000 0.000000 0.231426 0.353184
-33.884212 -0.000000 -12.885654 0.000000 1.000000 0.000000 0.231426 0.419528
-33.753593 -0.000000 -13.114730 0.000000 1.000000 0.000000 0.200474 0.419528
-33.753593 -0.000000 -13.114730 0.000000 1.000000 0.000000 0.135432 0.353184
-33.884212 -0.000000 -12.885654 0.000000 1.000000 0.000000 0.166384 0.353184
-33.374733 -0.000000 -12.602245 0.000000 1.000000 0.000000 0.166384 0.419528
-33.243259 -0.000000 -12.832252 0.000000 1.000000 0.000000 0.135432 0.419528
-33.243259 -0.000000 -12.832252 0.000000 1.000000 0.000000 0.135432 0.353184
-33.374733 -0.000000 -12.602245 0.000000 1.000000 0.000000 0.166384 0.353184
-32.865250 -0.000000 -12.318837 0.000000 1.000000 0.000000 0.166384 0.419528
-32.732925 -0.000000 -12.549773 0.000000 1.000000 0.000000 0.135432 0.419528
-32.732925 -0.000000 -12.549773 0.000000 1.000000 0.000000 0.168444 0.353184
-32.865250 -0.000000 -12.318837 0.000000 1.000000 0.000000 0.199396 0.353184
-32.355770 -0.000000 -12.035429 0.000000 1.000000 0.000000 0.199396 0.419528
-32.222595 -0.000000 -12.267296 0.000000 1.000000 0.000000 0.168444 0.419528
-34.645344 0.000000 -13.906901 0.000000 1.000000 0.000000 0.084721 0.008823
-34.774258 0.000000 -13.679687 0.000000 1.000000 0.000000 0.115226 0.008823
-34.263924 -0.000000 -13.397208 0.000000 1.000000 0.000000 0.115226 0.085366
-34.134159 -0.000000 -13.625354 0.000000 1.000000 0.000000 0.084721 0.085366
-34.134159 -0.000000 -13.625354 0.000000 1.000000 0.000000 0.232039 0.353184
-34.263924 -0.000000 -13.397208 0.000000 1.000000 0.000000 0.262992 0.353184
-33.753593 -0.000000 -13.114730 0.000000 1.000000 0.000000 0.262992 0.419528
-33.622974 -0.000000 -13.343806 0.000000 1.000000 0.000000 0.232039 0.419528
-33.622974 -0.000000 -13.343806 0.000000 1.000000 0.000000 0.084721 0.150614
-33.753593 -0.000000 -13.114730 0.000000 1.000000 0.000000 0.115226 0.150614
-33.243259 -0.000000 -12.832252 0.000000 1.000000 0.000000 0.115226 0.218100
-33.111790 -0.000000 -13.062259 0.000000 1.000000 0.000000 0.084721 0.218100
-32.732925 -0.000000 -12.549773 0.000000 1.000000 0.000000 0.115226 0.283521
-32.600605 -0.000000 -12.780711 0.000000 1.000000 0.000000 0.084721 0.283521
-32.600605 -0.000000 -12.780711 0.000000 1.000000 0.000000 0.232039 0.353184
-32.732925 -0.000000 -12.549773 0.000000 1.000000 0.000000 0.262992 0.353184
-32.222595 -0.000000 -12.267296 0.000000 1.000000 0.000000 0.262992 0.419528
-32.089420 -0.000000 -12.499163 0.000000 1.000000 0.000000 0.232039 0.419528
-34.616879 0.000000 -13.957073 0.000000 1.000000 0.000000 0.081603 0.008823
-34.068359 -0.000000 -13.740248 0.000000 1.000000 0.000000 0.070026 0.085366
-33.519844 -0.000000 -13.523421 0.000000 1.000000 0.000000 0.058153 0.150614
-33.245586 -0.000000 -13.415009 0.000000 1.000000 0.000000 0.054561 0.176293
-32.983200 -0.000000 -13.285943 0.000000 1.000000 0.000000 0.054561 0.218100
-32.971329 -0.000000 -13.306595 0.000000 1.000000 0.000000 0.049137 0.218100
-32.469109 -0.000000 -13.009298 0.000000 1.000000 0.000000 0.054561 0.283521
-32.469109 -0.000000 -13.009298 0.000000 1.000000 0.000000 0.200474 0.353184
-32.600605 -0.000000 -12.780711 0.000000 1.000000 0.000000 0.231426 0.353184
-32.089420 -0.000000 -12.499163 0.000000 1.000000 0.000000 0.231426 0.419528
-31.958643 -0.000000 -12.726393 0.000000 1.000000 0.000000 0.200474 0.419528
-36.579033 0.000000 -10.498682 0.000000 1.000000 0.000000 0.069996 0.353184
-36.707943 0.000000 -10.271468 0.000000 1.000000 0.000000 0.100949 0.353184
-36.210392 -0.000000 -9.975033 0.000000 1.000000 0.000000 0.100949 0.419528
-36.080631 -0.000000 -10.203177 0.000000 1.000000 0.000000 0.069996 0.419528
-36.080631 -0.000000 -10.203177 0.000000 1.000000 0.000000 0.145432 0.085366
-36.210392 -0.000000 -9.975033 0.000000 1.000000 0.000000 0.177241 0.085366
-35.712841 -0.000000 -9.678598 0.000000 1.000000 0.000000 0.177241 0.150614
-35.215294 -0.000000 -9.382164 0.000000 1.000000 0.000000 0.177241 0.218100
-34.717743 -0.000000 -9.085729 0.000000 1.000000 0.000000 0.177241 0.283521
-34.220192 -0.000000 -8.789293 0.000000 1.000000 0.000000 0.177241 0.350575
-34.087021 -0.000000 -9.021160 0.000000 1.000000 0.000000 0.145432 0.350575
-34.131325 -0.000000 -7.783010 0.000000 1.000000 0.000000 0.277191 0.416206
-34.633945 -0.000000 -8.080234 0.000000 1.000000 0.000000 0.277191 0.350575
-34.774319 -0.000000 -7.839676 0.000000 1.000000 0.000000 0.314468 0.350575
-34.492809 -0.000000 -7.605574 0.000000 1.000000 0.000000 0.321073 0.387568
-34.299522 -0.000000 -7.490853 0.000000 1.000000 0.000000 0.320968 0.416206
-34.220192 -0.000000 -8.789293 0.000000 1.000000 0.000000 0.102491 0.353184
-34.358109 -0.000000 -8.552940 0.000000 1.000000 0.000000 0.133443 0.353184
-33.858871 -0.000000 -8.256243 0.000000 1.000000 0.000000 0.133443 0.419528
-33.722645 -0.000000 -8.492859 0.000000 1.000000 0.000000 0.102491 0.419528
-34.358109 -0.000000 -8.552940 0.000000 1.000000 0.000000 0.069996 0.353184
-34.496029 -0.000000 -8.316586 0.000000 1.000000 0.000000 0.100949 0.353184
-33.995098 -0.000000 -8.019627 0.000000 1.000000 0.000000 0.100949 0.419528
-33.858871 -0.000000 -8.256243 0.000000 1.000000 0.000000 0.069996 0.419528
-31.874298 -0.000000 -12.872944 0.000000 1.000000 0.000000 0.029113 0.350575
-31.958643 -0.000000 -12.726393 0.000000 1.000000 0.000000 0.054561 0.350575
-31.440327 -0.000000 -12.457163 0.000000 1.000000 0.000000 0.054561 0.416206
-31.325783 -0.000000 -12.656118 0.000000 1.000000 0.000000 0.019078 0.416206
-32.422813 -0.000000 -13.089769 0.000000 1.000000 0.000000 0.039130 0.283521
-36.707943 0.000000 -10.271468 -0.000002 1.000000 -0.000001 0.177241 0.035972
-36.751549 0.000000 -10.194613 -0.000002 1.000000 -0.000001 0.193923 0.035972
-34.765675 0.000004 -9.006245 -0.000002 1.000000 -0.000001 0.193923 0.283521
-34.765675 0.000004 -9.006245 0.000024 1.000000 -0.000040 0.193923 0.283521
-34.717743 -0.000000 -9.085729 0.000024 1.000000 -0.000040 0.177241 0.283521
-35.215294 -0.000000 -9.382164 0.000024 1.000000 -0.000040 0.177241 0.218100
-36.210392 -0.000000 -9.975033 0.000024 1.000000 -0.000040 0.177241 0.085366
-36.707943 0.000000 -10.271468 0.000024 1.000000 -0.000040 0.177241 0.035972
-34.633945 -0.000000 -8.080234 0.000003 1.000000 -0.000012 0.277191 0.350575
-35.137993 -0.000005 -8.380568 0.000003 1.000000 -0.000012 0.277191 0.283521
-35.232758 -0.000000 -8.220906 0.000003 1.000000 -0.000012 0.303352 0.283521
-34.774319 -0.000000 -7.839676 0.000003 1.000000 -0.000012 0.314468 0.350575
-34.633945 -0.000000 -8.080234 -0.000013 1.000000 -0.000007 0.277191 0.350575
-34.496029 -0.000000 -8.316586 -0.000013 1.000000 -0.000007 0.245713 0.350575
-35.001652 -0.000008 -8.610028 -0.000013 1.000000 -0.000007 0.245713 0.283521
-35.001652 -0.000008 -8.610028 -0.032316 0.999293 -0.019215 0.245713 0.283521
-35.043224 -0.000011 -8.540229 -0.032316 0.999293 -0.019215 0.253534 0.283521
-35.137993 -0.000005 -8.380568 -0.032316 0.999293 -0.019215 0.277191 0.283521
-35.001652 -0.000008 -8.610028 -0.000002 1.000000 -0.000015 0.245713 0.283521
-35.137993 -0.000005 -8.380568 -0.000002 1.000000 -0.000015 0.277191 0.283521
-34.633945 -0.000000 -8.080234 -0.000002 1.000000 -0.000015 0.277191 0.350575
-34.859509 -0.000001 -8.848693 -0.000014 1.000000 0.000008 0.211739 0.283521
-35.001652 -0.000008 -8.610028 -0.000014 1.000000 0.000008 0.245713 0.283521
-34.496029 -0.000000 -8.316586 -0.000014 1.000000 0.000008 0.245713 0.350575
-34.358109 -0.000000 -8.552940 -0.000014 1.000000 0.000008 0.211739 0.350575
-34.717743 -0.000000 -9.085729 0.011693 0.999907 0.006997 0.177241 0.283521
-34.765675 0.000004 -9.006245 0.011693 0.999907 0.006997 0.193923 0.283521
-34.859509 -0.000001 -8.848693 0.011693 0.999907 0.006997 0.211739 0.283521
-34.859509 -0.000001 -8.848693 -0.000001 1.000000 -0.000001 0.211739 0.283521
-34.358109 -0.000000 -8.552940 -0.000001 1.000000 -0.000001 0.211739 0.350575
-34.220192 -0.000000 -8.789293 -0.000001 1.000000 -0.000001 0.177241 0.350575
-34.859509 -0.000001 -8.848693 -0.000001 1.000000 0.000002 0.211739 0.283521
-34.220192 -0.000000 -8.789293 -0.000001 1.000000 0.000002 0.177241 0.350575
-34.717743 -0.000000 -9.085729 -0.000001 1.000000 0.000002 0.177241 0.283521
-37.007587 0.000000 -9.743317 -0.869807 0.000126 -0.493393 0.064338 0.515459
-37.019112 0.000000 -9.723001 -0.869807 0.000126 -0.493393 0.064338 0.520286
-37.019112 0.011212 -9.722998 -0.869807 0.000126 -0.493393 0.021908 0.520286
-37.007587 0.011212 -9.743314 -0.869807 0.000126 -0.493393 0.021908 0.515459
-34.744904 -0.476516 -8.392103 0.512744 0.000219 -0.858542 0.068685 0.428433
-37.007587 0.000000 -9.743317 0.512744 0.000219 -0.858542 0.322653 0.474195
-37.007587 0.011212 -9.743314 0.512744 0.000219 -0.858542 0.322653 0.493914
-37.007587 0.011212 -9.743314 0.512783 0.000035 -0.858518 0.322653 0.493914
-35.052074 0.011201 -8.575308 0.512783 0.000035 -0.858518 0.103572 0.493914
-35.052074 -0.059018 -8.575311 0.512783 0.000035 -0.858518 0.103572 0.468677
-35.052074 -0.059018 -8.575311 0.512243 0.000000 -0.858841 0.103572 0.468677
-34.744904 -0.059018 -8.392103 0.512243 0.000000 -0.858841 0.068685 0.468677
-34.744904 -0.476516 -8.392103 0.512243 0.000000 -0.858841 0.068685 0.428433
-37.007587 0.011212 -9.743314 0.512797 0.000553 -0.858510 0.322653 0.493914
-35.052074 -0.059018 -8.575311 0.512797 0.000553 -0.858510 0.103572 0.468677
-34.744904 -0.476516 -8.392103 0.512797 0.000553 -0.858510 0.068685 0.428433
-34.744904 -0.059018 -8.392103 -0.859165 0.000000 -0.511698 0.065367 0.468677
-34.493511 -0.059018 -8.814203 -0.859165 0.000000 -0.511698 0.016057 0.468677
-34.493511 -0.476502 -8.814203 -0.859165 0.000000 -0.511698 0.016057 0.427023
-34.744904 -0.476516 -8.392103 -0.859165 0.000000 -0.511698 0.065367 0.427022
-35.052074 0.011201 -8.575308 -0.000003 1.000000 0.000014 0.021656 0.589475
-37.007587 0.011212 -9.743314 -0.000003 1.000000 0.000014 0.302650 0.589475
-37.019112 0.011212 -9.722998 -0.000003 1.000000 0.000014 0.302650 0.592535
-34.765675 0.011216 -9.006242 -0.000009 1.000000 0.000011 0.018489 0.523727
-36.751549 0.011212 -10.194610 -0.000009 1.000000 0.000011 0.302650 0.523727
-36.765247 0.011211 -10.170458 -0.000009 1.000000 0.000011 0.302650 0.526861
-34.765675 0.011216 -9.006242 -0.000007 1.000000 0.000008 0.018489 0.523727
-36.765247 0.011211 -10.170458 -0.000007 1.000000 0.000008 0.302650 0.526861
-34.800682 0.011216 -8.997408 -0.000007 1.000000 0.000008 0.021649 0.526861
-35.052074 0.011201 -8.575308 -0.000001 1.000000 0.000011 0.021656 0.589475
-37.019112 0.011212 -9.722998 -0.000001 1.000000 0.000011 0.302650 0.592535
-35.043224 0.011201 -8.540226 -0.000001 1.000000 0.000011 0.018489 0.592535
-34.765675 0.011216 -9.006242 -0.000001 1.000000 0.000034 0.018489 0.523727
-34.800682 0.011216 -8.997408 -0.000001 1.000000 0.000034 0.021649 0.526861
-35.052074 0.011201 -8.575308 -0.000001 1.000000 0.000034 0.021656 0.589475
-35.052074 0.011201 -8.575308 -0.000025 1.000000 0.000017 0.021656 0.589475
-35.043224 0.011201 -8.540226 -0.000025 1.000000 0.000017 0.018489 0.592535
-34.765675 0.011216 -9.006242 -0.000025 1.000000 0.000017 0.018489 0.523727
-37.019112 0.000000 -9.723001 -0.513614 -0.000222 0.858021 0.322653 0.496302
-35.043224 -0.000011 -8.540229 -0.513614 -0.000222 0.858021 0.103572 0.496302
-35.043224 0.011201 -8.540226 -0.513614 -0.000222 0.858021 0.103572 0.515769
-37.019112 0.011212 -9.722998 -0.513614 -0.000222 0.858021 0.322653 0.515769
-36.751549 0.000000 -10.194613 -0.869828 0.000126 -0.493355 0.064338 0.509715
-36.765247 -0.000000 -10.170461 -0.869828 0.000126 -0.493355 0.064338 0.515453
-36.765247 0.011211 -10.170458 -0.869828 0.000126 -0.493355 0.021908 0.515453
-36.751549 0.011212 -10.194610 -0.869828 0.000126 -0.493355 0.021908 0.509716
-34.765675 0.000004 -9.006245 0.513492 0.000216 -0.858094 0.103572 0.496302
-36.751549 0.000000 -10.194613 0.513492 0.000216 -0.858094 0.322653 0.496302
-36.751549 0.011212 -10.194610 0.513492 0.000216 -0.858094 0.322653 0.515769
-34.765675 0.011216 -9.006242 0.513492 0.000216 -0.858094 0.103572 0.515769
-34.800682 -0.059018 -8.997411 -0.859166 0.000021 -0.511698 0.097272 0.472389
-35.052074 -0.059018 -8.575311 -0.859166 0.000021 -0.511698 0.097271 0.520242
-35.052074 0.011201 -8.575308 -0.859166 0.000021 -0.511698 0.071523 0.520242
-34.800682 0.011216 -8.997408 -0.859166 0.000021 -0.511698 0.071522 0.472389
-35.001652 -0.000008 -8.610028 -0.000097 1.000000 -0.000025 0.312293 0.452846
-34.859509 -0.000001 -8.848693 -0.000097 1.000000 -0.000025 0.278136 0.452846
-34.765675 0.000004 -9.006245 -0.000097 1.000000 -0.000025 0.255587 0.452845
-34.765675 0.000004 -9.006245 0.859164 -0.000131 0.511701 0.255587 0.452845
-34.765675 0.011216 -9.006242 0.859164 -0.000131 0.511701 0.255587 0.427597
-35.043224 0.011201 -8.540226 0.859164 -0.000131 0.511701 0.322282 0.427598
-35.043224 0.011201 -8.540226 0.859156 -0.000131 0.511714 0.322282 0.427598
-35.043224 -0.000011 -8.540229 0.859156 -0.000131 0.511714 0.322282 0.452846
-35.001652 -0.000008 -8.610028 0.859156 -0.000131 0.511714 0.312293 0.452846
-35.001652 -0.000008 -8.610028 0.859165 -0.000003 0.511699 0.312293 0.452846
-34.765675 0.000004 -9.006245 0.859165 -0.000003 0.511699 0.255587 0.452845
-35.043224 0.011201 -8.540226 0.859165 -0.000003 0.511699 0.322282 0.427598
-37.007587 0.000000 -9.743317 0.153528 0.984103 0.089274 0.325252 0.585079
-34.744904 -0.476516 -8.392103 0.153528 0.984103 0.089274 0.023146 0.585079
-34.493511 -0.476502 -8.814203 0.153528 0.984103 0.089274 0.023210 0.529771
-36.765247 -0.000000 -10.170461 0.153528 0.984103 0.089274 0.325252 0.529805
-35.052074 -0.059018 -8.575311 -0.000000 -1.000000 0.000000 0.063649 0.506758
-34.800682 -0.059018 -8.997411 -0.000000 -1.000000 0.000000 0.017753 0.506758
-34.493511 -0.059018 -8.814203 -0.000000 -1.000000 0.000000 0.017775 0.473346
-34.744904 -0.059018 -8.392103 -0.000000 -1.000000 0.000000 0.063670 0.473346
-36.765247 0.011211 -10.170458 -0.512643 -0.000219 0.858602 0.322653 0.493914
-36.765247 -0.000000 -10.170461 -0.512643 -0.000219 0.858602 0.322653 0.474195
-34.493511 -0.476502 -8.814203 -0.512643 -0.000219 0.858602 0.068685 0.428433
-34.493511 -0.476502 -8.814203 -0.512243 0.000000 0.858841 0.068685 0.428433
-34.493511 -0.059018 -8.814203 -0.512243 0.000000 0.858841 0.068685 0.468677
-34.800682 -0.059018 -8.997411 -0.512243 0.000000 0.858841 0.103572 0.468677
-34.800682 -0.059018 -8.997411 -0.512666 -0.000035 0.858588 0.103572 0.468677
-34.800682 0.011216 -8.997408 -0.512666 -0.000035 0.858588 0.103572 0.493914
-36.765247 0.011211 -10.170458 -0.512666 -0.000035 0.858588 0.322653 0.493914
-34.493511 -0.476502 -8.814203 -0.512677 -0.000433 0.858582 0.068685 0.428433
-34.800682 -0.059018 -8.997411 -0.512677 -0.000433 0.858582 0.103572 0.468677
-36.765247 0.011211 -10.170458 -0.512677 -0.000433 0.858582 0.322653 0.493914
-33.630211 -0.000000 -12.115284 0.000000 1.000000 0.000000 0.138656 0.014338
-33.157059 -0.000000 -11.849464 0.000000 1.000000 0.000000 0.138648 0.076262
-33.129890 -0.000000 -11.856963 0.000000 1.000000 0.000000 0.136394 0.078527
-33.637665 -0.000000 -12.142233 0.000000 1.000000 0.000000 0.136394 0.012073
-33.269630 -0.000000 -11.653002 0.000000 1.000000 0.000000 0.164352 0.076262
-33.742008 -0.000000 -11.919700 0.000000 1.000000 0.000000 0.164344 0.014339
-33.769138 -0.000000 -11.912228 0.000000 1.000000 0.000000 0.166606 0.012073
-33.262215 -0.000000 -11.626027 0.000000 1.000000 0.000000 0.166606 0.078527
-35.052437 -0.000000 -10.796760 0.000000 1.000000 0.000000 0.138667 0.014345
-34.584953 -0.000000 -10.524939 0.000000 1.000000 0.000000 0.138659 0.076255
-34.557949 -0.000000 -10.532192 0.000000 1.000000 0.000000 0.136394 0.078527
-35.059761 -0.000000 -10.823975 0.000000 1.000000 0.000000 0.136394 0.012073
-34.696709 -0.000000 -10.329427 0.000000 1.000000 0.000000 0.164341 0.076254
-35.163414 -0.000000 -10.602127 0.000000 1.000000 0.000000 0.164333 0.014346
-35.190380 -0.000000 -10.594899 0.000000 1.000000 0.000000 0.166606 0.012073
-34.689423 -0.000000 -10.302186 0.000000 1.000000 0.000000 0.166606 0.078527
-35.052437 -0.012199 -10.796760 0.000000 1.000000 0.000000 0.043004 0.008155
-35.163414 -0.012199 -10.602127 0.000000 1.000000 0.000000 0.068670 0.008156
-34.696709 -0.012199 -10.329427 0.000000 1.000000 0.000000 0.068679 0.070064
-34.584953 -0.012199 -10.524939 0.000000 1.000000 0.000000 0.042996 0.070065
-33.630211 -0.012199 -12.115284 0.000000 1.000000 0.000000 0.042993 0.008148
-33.742008 -0.012199 -11.919700 0.000000 1.000000 0.000000 0.068681 0.008149
-33.269630 -0.012199 -11.653002 0.000000 1.000000 0.000000 0.068689 0.070072
-33.157059 -0.012199 -11.849464 0.000000 1.000000 0.000000 0.042985 0.070072
-35.163414 -0.000000 -10.602127 0.504500 0.000000 -0.863412 0.008894 0.194880
-34.696709 -0.000000 -10.329427 0.504500 0.000000 -0.863412 0.008894 0.006414
-34.696709 -0.012199 -10.329427 0.504500 0.000000 -0.863412 0.015745 0.006414
-35.163414 -0.012199 -10.602127 0.504500 0.000000 -0.863412 0.015745 0.194880
-33.742008 -0.000000 -11.919700 0.491641 0.000000 -0.870798 0.008894 0.194880
-33.269630 -0.000000 -11.653002 0.491641 0.000000 -0.870798 0.008894 0.006414
-33.269630 -0.012199 -11.653002 0.491641 0.000000 -0.870798 0.015745 0.006414
-33.742008 -0.012199 -11.919700 0.491641 0.000000 -0.870798 0.015745 0.194880
-33.630211 -0.000000 -12.115284 0.868176 0.000000 0.496256 0.016059 0.198185
-33.742008 -0.000000 -11.919700 0.868176 0.000000 0.496256 0.016059 0.259890
-33.742008 -0.012199 -11.919700 0.868176 0.000000 0.496256 0.008577 0.259890
-33.630211 -0.012199 -12.115284 0.868176 0.000000 0.496256 0.008577 0.198185
-35.052437 -0.000000 -10.796760 0.868707 0.000000 0.495326 0.016059 0.198185
-35.163414 -0.000000 -10.602127 0.868707 0.000000 0.495326 0.016059 0.259890
-35.163414 -0.012199 -10.602127 0.868707 0.000000 0.495326 0.008577 0.259890
-35.052437 -0.012199 -10.796760 0.868707 0.000000 0.495326 0.008577 0.198185
-34.584953 -0.000000 -10.524939 -0.502660 0.000000 0.864484 0.015745 0.006414
-35.052437 -0.000000 -10.796760 -0.502660 0.000000 0.864484 0.015745 0.194880
-35.052437 -0.012199 -10.796760 -0.502660 0.000000 0.864484 0.008894 0.194880
-34.584953 -0.012199 -10.524939 -0.502660 0.000000 0.864484 0.008894 0.006414
-33.157059 -0.000000 -11.849464 -0.489801 0.000000 0.871834 0.015745 0.006414
-33.630211 -0.000000 -12.115284 -0.489801 0.000000 0.871834 0.015745 0.194880
-33.630211 -0.012199 -12.115284 -0.489801 0.000000 0.871834 0.008894 0.194880
-33.157059 -0.012199 -11.849464 -0.489801 0.000000 0.871834 0.008894 0.006414
3 0 1 2
3 3 4 5
3 6 7 8
3 9 10 11
3 8 12 6
4 13 14 15 16
4 17 18 19 20
4 21 22 23 24
4 25 26 27 28
4 29 30 31 32
4 33 34 35 36
4 37 38 39 40
4 41 42 43 44
4 45 46 47 48
4 49 50 51 52
4 53 54 55 56
4 57 58 59 60
4 61 62 63 64
4 65 66 67 68
4 69 70 71 72
4 73 74 75 76
4 77 78 79 80
4 81 82 83 84
4 85 86 87 88
4 89 90 91 92
4 93 94 95 96
4 96 95 97 98
4 99 100 101 102
4 103 104 105 106
4 107 108 109 110
4 111 112 113 114
4 115 116 117 118
4 119 120 121 122
4 123 124 125 126
4 127 128 129 130
4 131 132 133 134
4 135 136 137 138
4 139 140 141 142
4 143 144 145 146
4 147 148 149 150
4 151 152 153 154
4 155 156 157 158
4 159 160 161 162
4 163 164 165 166
4 167 168 169 170
4 171 172 173 174
4 175 176 177 178
4 179 180 181 182
4 183 184 185 186
4 187 188 189 190
4 191 192 193 194
4 195 196 197 198
4 199 200 201 202
4 203 204 205 206
4 207 208 209 210
4 211 212 213 214
4 215 216 217 218
4 219 220 221 222
4 223 224 225 226
4 227 228 229 230
4 231 232 233 234
4 235 236 237 238
4 239 240 241 242
4 243 244 245 246
4 247 227 230 248
4 249 250 251 252
4 253 254 255 256
4 257 239 242 258
4 259 260 261 262
4 263 264 265 266
4 267 268 269 270
4 271 272 273 274
4 275 276 277 278
4 279 280 281 282
4 283 284 285 286
4 287 288 289 290
4 291 292 293 294
4 295 296 297 298
4 299 300 301 302
4 303 304 305 306
4 307 308 309 310
4 311 312 313 314
4 315 316 317 318
4 319 320 321 322
4 323 324 325 326
4 327 328 329 330
4 331 332 333 334
4 335 336 337 338
4 339 340 341 342
4 343 344 345 346
4 347 348 349 350
4 351 352 353 354
4 355 356 357 358
4 359 360 361 362
4 363 364 365 366
4 367 368 369 370
4 370 369 371 372
4 373 374 375 376
4 377 359 362 378
4 378 362 367 379
3 380 381 382
4 381 370 372 383
4 384 385 386 387
4 388 389 390 391
4 392 393 394 94
4 94 394 395 95
4 95 395 396 97
4 97 396 397 398
3 399 400 401
3 401 402 403
3 401 403 399
4 404 405 406 407
4 408 409 410 411
4 412 413 414 415
4 416 383 413 412
4 382 381 383 416
3 380 379 367
3 367 370 381
3 367 381 380
3 417 418 419
3 420 421 422
3 395 394 393
3 423 424 420
3 420 422 423
4 425 426 427 428
3 429 430 431
3 432 433 434
3 435 436 437
4 438 439 440 441
3 442 443 444
3 445 446 447
3 448 449 450
4 451 452 453 454
3 455 456 457
3 458 459 460
3 461 462 463
3 464 465 466
4 467 468 469 470
3 471 472 473
3 474 475 476
3 477 478 479
3 480 481 482
3 483 484 485
3 486 487 488
4 489 490 491 492
4 493 494 495 496
4 497 498 499 500
4 501 502 503 504
3 505 506 507
3 508 509 510
3 511 512 513
3 514 515 516
4 517 518 519 520
4 521 522 523 524
3 525 526 527
3 528 529 530
3 531 532 533
3 534 535 536
4 537 538 539 540
4 541 542 543 544
4 545 546 547 548
4 549 550 551 552
4 550 545 548 551
4 546 549 552 547
4 542 537 540 543
4 538 541 544 539
4 553 554 555 556
4 557 558 559 560
4 561 562 563 564
4 565 566 567 568
4 569 570 571 572
4 573 574 575 576
4 577 578 579 580
4 581 582 583 584
