ply
format ascii 1.0
comment Created by Blender 2.78 (sub 0) - www.blender.org, source file: 'soult.blend'
element vertex 400
property float x
property float y
property float z
property float nx
property float ny
property float nz
property float s
property float t
element face 145
property list uchar uint vertex_indices
end_header
-18.751884 -0.000001 -12.082531 0.000000 1.000000 -0.000000 0.747601 0.826313
-18.735958 -0.000001 -12.078197 0.000000 1.000000 -0.000000 0.748173 0.825793
-19.351465 -0.000001 -12.493242 0.000000 1.000000 -0.000000 0.748054 0.850440
-19.963806 -0.000001 -12.906153 -0.000000 1.000000 -0.000000 0.747935 0.874960
-20.010569 -0.000001 -12.773006 -0.000000 1.000000 -0.000000 0.733313 0.873795
-20.010569 -0.000001 -12.773006 -0.000001 1.000000 -0.000002 0.733313 0.873795
-19.811771 -0.000000 -12.520230 -0.000001 1.000000 -0.000002 0.722816 0.863644
-19.774031 -0.000000 -12.535863 -0.000001 1.000000 -0.000002 0.726468 0.862891
-19.736288 -0.000000 -12.520230 0.000001 1.000000 -0.000000 0.727347 0.861561
-19.720655 -0.000000 -12.482489 0.000001 1.000000 -0.000000 0.724936 0.860433
-18.910828 -0.000001 -11.892204 0.000001 1.000000 -0.000000 0.721170 0.827189
-20.010569 -0.000001 -12.773006 0.000002 1.000000 -0.000005 0.733313 0.873795
-19.774031 -0.000000 -12.535863 0.000002 1.000000 -0.000005 0.726468 0.862891
-19.736288 -0.000000 -12.520230 0.000002 1.000000 -0.000005 0.727347 0.861561
-18.804047 -0.000001 -12.078175 -0.000000 1.000000 -0.000000 0.744083 0.827672
-20.010569 -0.000001 -12.773006 0.000016 1.000000 -0.000020 0.733313 0.873795
-19.736288 -0.000000 -12.520230 0.000016 1.000000 -0.000020 0.727347 0.861561
-18.910828 -0.000001 -11.892204 0.000016 1.000000 -0.000020 0.721170 0.827189
-18.910828 -0.000001 -11.892204 -0.000000 1.000000 -0.000000 0.721170 0.827189
-18.909290 -0.000001 -11.969631 -0.000000 1.000000 -0.000000 0.728133 0.828575
-18.851562 -0.000001 -12.056240 -0.000000 1.000000 -0.000000 0.739284 0.828579
-18.888710 -0.000001 -12.019382 -0.000000 1.000000 -0.000000 0.733783 0.828925
-13.560364 -0.000000 -9.706429 -0.000000 1.000000 -0.000000 0.878306 0.241369
-13.577530 -0.000000 -9.933540 -0.000000 1.000000 -0.000000 0.893205 0.238912
-13.889236 -0.000000 -10.000381 -0.000000 1.000000 -0.000000 0.902402 0.257942
-13.879494 -0.000000 -9.980040 0.000000 1.000000 -0.000000 0.900938 0.257633
-13.872158 -0.000000 -9.861916 -0.000000 1.000000 -0.000000 0.893214 0.259014
-13.860168 -0.000000 -9.657035 0.000000 1.000000 -0.000000 0.879828 0.261456
-13.626974 -0.000000 -9.579306 0.000000 1.000000 -0.000000 0.871162 0.247654
-13.297442 -0.000000 -9.562407 -0.000000 1.000000 0.000000 0.864904 0.226691
-12.925745 -0.000000 -9.646208 -0.000000 1.000000 0.000000 0.864470 0.201433
-13.267250 -0.000000 -9.852661 0.000000 1.000000 -0.000000 0.883127 0.220193
-13.285917 -0.000000 -9.797937 0.000000 1.000000 -0.000000 0.879895 0.222254
-13.313766 -0.000000 -9.773613 0.000000 1.000000 -0.000000 0.878765 0.224429
-13.549042 -0.000000 -9.700706 -0.000000 1.000000 -0.000000 0.877760 0.240729
-13.364077 -0.000000 -9.933280 0.000002 1.000000 -0.000005 0.863605 0.209496
-13.573351 -0.000001 -10.075513 0.000002 1.000000 -0.000005 0.876050 0.220746
-13.573711 -0.000000 -10.017752 0.000002 1.000000 -0.000005 0.872338 0.221679
-13.573711 -0.000000 -10.017752 -0.000000 1.000000 -0.000000 0.872338 0.221679
-13.889236 -0.000000 -10.000381 -0.000000 1.000000 -0.000000 0.876167 0.242273
-13.577530 -0.000000 -9.933540 -0.000000 1.000000 -0.000000 0.866971 0.223243
-13.364077 -0.000000 -9.933280 0.000000 1.000000 -0.000000 0.863605 0.209496
-17.934801 -0.000006 -13.039767 0.000006 1.000000 -0.000010 0.881861 0.211727
-18.331591 -0.000007 -13.309445 0.000006 1.000000 -0.000010 0.902621 0.230491
-18.372919 -0.000005 -13.182272 0.000006 1.000000 -0.000010 0.895078 0.235150
-18.372919 -0.000005 -13.182272 0.000000 1.000000 -0.000000 0.895078 0.235150
-18.395802 -0.000005 -13.029733 0.000000 1.000000 -0.000000 0.885608 0.239015
-18.289179 -0.000005 -12.882950 0.000000 1.000000 -0.000000 0.878498 0.239715
-18.289179 -0.000005 -12.882950 0.000001 1.000000 -0.000004 0.878498 0.239715
-17.855795 -0.000005 -12.603408 0.000001 1.000000 -0.000004 0.858169 0.220430
-17.934801 -0.000006 -13.039767 0.000001 1.000000 -0.000004 0.881861 0.211727
-18.372919 -0.000005 -13.182272 0.000003 1.000000 -0.000001 0.895078 0.235150
-18.289179 -0.000005 -12.882950 0.000003 1.000000 -0.000001 0.878498 0.239715
-17.934801 -0.000006 -13.039767 0.000003 1.000000 -0.000001 0.881861 0.211727
-13.889236 -0.000000 -10.000381 0.000000 1.000000 -0.000003 0.746702 0.878335
-13.573711 -0.000000 -10.017752 0.000000 1.000000 -0.000003 0.720314 0.877691
-13.573351 -0.000001 -10.075513 0.000000 1.000000 -0.000003 0.720206 0.874759
-13.901529 -0.000001 -10.298559 0.000000 1.000000 -0.000003 0.747358 0.863185
-13.889236 -0.000000 -10.000381 0.000023 1.000000 -0.000003 0.862853 0.197312
-13.901529 -0.000001 -10.298559 0.000023 1.000000 -0.000003 0.882253 0.193425
-14.254647 0.000007 -10.288165 0.000023 1.000000 -0.000003 0.887135 0.216348
-14.754203 -0.000000 -10.314116 0.000023 1.000000 0.000033 0.897217 0.248860
-14.760691 0.000003 -10.424408 0.000023 1.000000 0.000033 0.904771 0.248002
-15.090378 -0.000000 -10.083290 0.000023 1.000000 0.000033 0.887038 0.273385
-13.924513 -0.000000 -10.014671 -0.000022 1.000000 0.000055 0.864327 0.199360
-13.889236 -0.000000 -10.000381 -0.000022 1.000000 0.000055 0.862853 0.197312
-14.254647 0.000007 -10.288165 -0.000022 1.000000 0.000055 0.887135 0.216348
-15.021454 -0.000000 -10.067627 -0.000000 1.000000 -0.000000 0.884948 0.269191
-14.653702 -0.000000 -10.049377 -0.000000 1.000000 -0.000000 0.878002 0.245788
-13.924513 -0.000000 -10.014671 -0.000000 1.000000 -0.000000 0.864327 0.199360
-15.090378 -0.000000 -10.083290 0.000000 1.000000 -0.000000 0.887038 0.273385
-15.043723 -0.000000 -10.070930 0.000000 1.000000 -0.000000 0.885510 0.270574
-14.254647 0.000007 -10.288165 -0.000014 1.000000 -0.000021 0.887135 0.216348
-14.754203 -0.000000 -10.314116 -0.000014 1.000000 -0.000021 0.897217 0.248860
-15.090378 -0.000000 -10.083290 -0.000014 1.000000 -0.000021 0.887038 0.273385
-15.021454 -0.000000 -10.067627 -0.000001 1.000000 0.000030 0.884948 0.269191
-13.924513 -0.000000 -10.014671 -0.000001 1.000000 0.000030 0.864327 0.199360
-14.254647 0.000007 -10.288165 -0.000001 1.000000 0.000030 0.887135 0.216348
-14.254647 0.000007 -10.288165 -0.000004 1.000000 0.000019 0.887135 0.216348
-15.090378 -0.000000 -10.083290 -0.000004 1.000000 0.000019 0.887038 0.273385
-15.021454 -0.000000 -10.067627 -0.000004 1.000000 0.000019 0.884948 0.269191
-14.530040 -0.000002 -10.725725 0.000008 1.000000 -0.000013 0.873320 0.211341
-14.830066 -0.000002 -10.929637 0.000008 1.000000 -0.000013 0.889710 0.226155
-14.765563 0.000001 -10.610141 0.000008 1.000000 -0.000013 0.873580 0.233583
-14.734901 0.000001 -10.619641 0.000001 1.000000 -0.000030 0.869701 0.226202
-14.578548 0.000001 -10.612778 0.000001 1.000000 -0.000030 0.866805 0.216236
-14.530040 -0.000002 -10.725725 0.000001 1.000000 -0.000030 0.873320 0.211341
-14.765563 0.000001 -10.610141 -0.000025 1.000000 -0.000080 0.873580 0.233583
-14.734901 0.000001 -10.619641 -0.000025 1.000000 -0.000080 0.869701 0.226202
-14.530040 -0.000002 -10.725725 -0.000025 1.000000 -0.000080 0.873320 0.211341
-15.068892 -0.000003 -11.091955 0.000007 1.000000 -0.000013 0.499838 0.837527
-15.003274 0.000001 -10.763469 0.000007 1.000000 -0.000013 0.499838 0.788945
-14.765563 0.000001 -10.610141 0.000007 1.000000 -0.000013 0.521873 0.788945
-14.830066 -0.000002 -10.929637 0.000007 1.000000 -0.000013 0.521873 0.837527
-17.934801 -0.000006 -13.039767 0.000002 1.000000 -0.000005 0.499838 0.837527
-17.855795 -0.000005 -12.603408 0.000002 1.000000 -0.000005 0.499838 0.788945
-17.618084 -0.000004 -12.450080 0.000002 1.000000 -0.000005 0.521873 0.788945
-17.695974 -0.000006 -12.877450 0.000002 1.000000 -0.000005 0.521873 0.837527
-17.695974 -0.000006 -12.877450 0.000002 1.000000 -0.000005 0.499838 0.837527
-17.618084 -0.000004 -12.450080 0.000002 1.000000 -0.000005 0.499838 0.788945
-17.380373 -0.000004 -12.296752 0.000002 1.000000 -0.000005 0.521873 0.788945
-17.457150 -0.000006 -12.715132 0.000002 1.000000 -0.000005 0.521873 0.837527
-17.457150 -0.000006 -12.715132 0.000002 1.000000 -0.000006 0.499838 0.837527
-17.380373 -0.000004 -12.296752 0.000002 1.000000 -0.000006 0.499838 0.788945
-17.142662 -0.000003 -12.143424 0.000002 1.000000 -0.000006 0.521873 0.788945
-17.218323 -0.000005 -12.552814 0.000002 1.000000 -0.000006 0.521873 0.837527
-17.218323 -0.000005 -12.552814 0.000003 1.000000 -0.000006 0.499838 0.837527
-17.142662 -0.000003 -12.143424 0.000003 1.000000 -0.000006 0.499838 0.788945
-16.904953 -0.000003 -11.990096 0.000003 1.000000 -0.000006 0.521873 0.788945
-16.979498 -0.000005 -12.390497 0.000003 1.000000 -0.000006 0.521873 0.837527
-16.979498 -0.000005 -12.390497 0.000003 1.000000 -0.000007 0.499838 0.837527
-16.904953 -0.000003 -11.990096 0.000003 1.000000 -0.000007 0.499838 0.788945
-16.667242 -0.000002 -11.836768 0.000003 1.000000 -0.000007 0.521873 0.788945
-16.740673 -0.000005 -12.228179 0.000003 1.000000 -0.000007 0.521873 0.837527
-16.740673 -0.000005 -12.228179 0.000003 1.000000 -0.000008 0.499838 0.837527
-16.667242 -0.000002 -11.836768 0.000003 1.000000 -0.000008 0.499838 0.788945
-16.429531 -0.000002 -11.683440 0.000003 1.000000 -0.000008 0.521873 0.788945
-16.501846 -0.000005 -12.065861 0.000003 1.000000 -0.000008 0.521873 0.837527
-16.501846 -0.000005 -12.065861 0.000004 1.000000 -0.000008 0.499838 0.837527
-16.429531 -0.000002 -11.683440 0.000004 1.000000 -0.000008 0.499838 0.788945
-16.191822 -0.000001 -11.530111 0.000004 1.000000 -0.000008 0.521873 0.788945
-16.263020 -0.000004 -11.903543 0.000004 1.000000 -0.000008 0.521873 0.837527
-16.263020 -0.000004 -11.903543 0.000004 1.000000 -0.000009 0.499838 0.837527
-16.191822 -0.000001 -11.530111 0.000004 1.000000 -0.000009 0.499838 0.788945
-15.954114 -0.000001 -11.376782 0.000004 1.000000 -0.000009 0.521873 0.788945
-16.024195 -0.000004 -11.741226 0.000004 1.000000 -0.000009 0.521873 0.837527
-16.024195 -0.000004 -11.741226 0.000005 1.000000 -0.000010 0.499838 0.837527
-15.954114 -0.000001 -11.376782 0.000005 1.000000 -0.000010 0.499838 0.788945
-15.716404 -0.000000 -11.223454 0.000005 1.000000 -0.000010 0.521873 0.788945
-15.785369 -0.000004 -11.578908 0.000005 1.000000 -0.000010 0.521873 0.837527
-15.785369 -0.000004 -11.578908 0.000005 1.000000 -0.000010 0.499838 0.837527
-15.716404 -0.000000 -11.223454 0.000005 1.000000 -0.000010 0.499838 0.788945
-15.478694 0.000000 -11.070127 0.000005 1.000000 -0.000010 0.521873 0.788945
-15.546543 -0.000003 -11.416590 0.000005 1.000000 -0.000010 0.521873 0.837527
-15.546543 -0.000003 -11.416590 0.000006 1.000000 -0.000011 0.499838 0.837527
-15.478694 0.000000 -11.070127 0.000006 1.000000 -0.000011 0.499838 0.788945
-15.240984 0.000001 -10.916798 0.000006 1.000000 -0.000011 0.521873 0.788945
-15.307717 -0.000003 -11.254272 0.000006 1.000000 -0.000011 0.521873 0.837527
-15.307717 -0.000003 -11.254272 0.000006 1.000000 -0.000012 0.499838 0.837527
-15.240984 0.000001 -10.916798 0.000006 1.000000 -0.000012 0.499838 0.788945
-15.003274 0.000001 -10.763469 0.000006 1.000000 -0.000012 0.521873 0.788945
-15.068892 -0.000003 -11.091955 0.000006 1.000000 -0.000012 0.521873 0.837527
-19.174551 -0.000001 -15.153424 -0.000003 1.000000 0.000003 0.499838 0.837527
-18.596077 -0.000000 -14.933622 -0.000003 1.000000 0.000003 0.499838 0.788945
-18.526875 0.000001 -15.128254 -0.000003 1.000000 0.000003 0.521873 0.788945
-19.106766 -0.000001 -15.346431 -0.000003 1.000000 0.000003 0.521873 0.837527
-19.513475 -0.000001 -14.188393 0.000009 1.000000 0.000007 0.499838 0.837527
-18.942087 -0.000008 -13.960461 0.000009 1.000000 0.000007 0.499838 0.788945
-18.872885 -0.000007 -14.155093 0.000009 1.000000 0.000007 0.521873 0.788945
-19.445690 -0.000001 -14.381399 0.000009 1.000000 0.000007 0.521873 0.837527
-19.445690 -0.000001 -14.381399 0.000006 1.000000 0.000006 0.499838 0.837527
-18.872885 -0.000007 -14.155093 0.000006 1.000000 0.000006 0.499838 0.788945
-18.803682 -0.000005 -14.349726 0.000006 1.000000 0.000006 0.521873 0.788945
-19.377907 -0.000001 -14.574405 0.000006 1.000000 0.000006 0.521873 0.837527
-19.377907 -0.000001 -14.574405 0.000004 1.000000 0.000006 0.499838 0.837527
-18.803682 -0.000005 -14.349726 0.000004 1.000000 0.000006 0.499838 0.788945
-18.734480 -0.000003 -14.544357 0.000004 1.000000 0.000006 0.521873 0.788945
-19.310122 -0.000001 -14.767411 0.000004 1.000000 0.000006 0.521873 0.837527
-19.310122 -0.000001 -14.767411 0.000002 1.000000 0.000005 0.499838 0.837527
-18.734480 -0.000003 -14.544357 0.000002 1.000000 0.000005 0.499838 0.788945
-18.665277 -0.000002 -14.738990 0.000002 1.000000 0.000005 0.521873 0.788945
-19.242336 -0.000001 -14.960418 0.000002 1.000000 0.000005 0.521873 0.837527
-19.242336 -0.000001 -14.960418 -0.000001 1.000000 0.000004 0.499838 0.837527
-18.665277 -0.000002 -14.738990 -0.000001 1.000000 0.000004 0.499838 0.788945
-18.596077 -0.000000 -14.933622 -0.000001 1.000000 0.000004 0.521873 0.788945
-19.174551 -0.000001 -15.153424 -0.000001 1.000000 0.000004 0.521873 0.837527
-15.607437 -0.000000 -10.364883 -0.000004 1.000000 0.000007 0.895943 0.256515
-15.090378 -0.000000 -10.083290 -0.000004 1.000000 0.000007 0.869692 0.227625
-14.760691 0.000003 -10.424408 -0.000004 1.000000 0.000007 0.887425 0.202242
-15.194686 0.000000 -10.481747 0.000025 1.000000 -0.000042 0.898660 0.230210
-15.252031 0.000000 -10.516642 0.000025 1.000000 -0.000042 0.901850 0.233408
-15.260512 0.000001 -10.498247 0.000025 1.000000 -0.000042 0.900670 0.234081
-15.607437 -0.000000 -10.364883 -0.000005 1.000000 -0.000010 0.895943 0.256515
-14.760691 0.000003 -10.424408 -0.000005 1.000000 -0.000010 0.887425 0.202242
-15.194686 0.000000 -10.481747 -0.000005 1.000000 -0.000010 0.898660 0.230210
-15.260512 0.000001 -10.498247 -0.000006 1.000000 -0.000001 0.900670 0.234081
-15.445017 0.000000 -10.609505 -0.000006 1.000000 -0.000001 0.910869 0.244390
-15.607437 -0.000000 -10.364883 -0.000006 1.000000 -0.000001 0.895943 0.256515
-15.194686 0.000000 -10.481747 0.000007 1.000000 0.000031 0.898660 0.230210
-15.260512 0.000001 -10.498247 0.000007 1.000000 0.000031 0.900670 0.234081
-15.607437 -0.000000 -10.364883 0.000007 1.000000 0.000031 0.895943 0.256515
-14.254647 0.000007 -10.288165 0.000001 1.000000 -0.000031 0.252066 0.568394
-14.267623 -0.000004 -10.424408 0.000001 1.000000 -0.000031 0.253044 0.551784
-14.760691 0.000003 -10.424408 0.000001 1.000000 -0.000031 0.312950 0.549618
-14.754203 -0.000000 -10.314116 0.000001 1.000000 -0.000031 0.312646 0.563046
-18.735958 -0.000001 -12.078197 0.000004 1.000000 -0.000004 0.859392 0.231452
-18.367874 -0.000004 -12.513460 0.000004 1.000000 -0.000004 0.884523 0.204314
-18.772070 -0.000003 -12.818501 0.000004 1.000000 -0.000004 0.909669 0.224562
-19.351465 -0.000001 -12.493242 0.000004 1.000000 -0.000004 0.895785 0.264590
-17.829395 -0.000004 -12.383707 0.000002 1.000000 -0.000007 0.251810 0.549840
-18.283535 -0.000004 -12.630239 0.000002 1.000000 -0.000007 0.308754 0.550653
-18.367874 -0.000004 -12.513460 0.000002 1.000000 -0.000007 0.310558 0.566426
-17.900761 -0.000002 -12.260439 0.000002 1.000000 -0.000007 0.252016 0.565536
-17.829395 -0.000004 -12.383707 0.000005 1.000000 -0.000013 0.906206 0.258176
-17.900761 -0.000002 -12.260439 0.000005 1.000000 -0.000013 0.899503 0.261659
-17.829227 -0.000001 -12.084894 0.000005 1.000000 -0.000013 0.885879 0.258854
-17.829227 -0.000001 -12.084894 0.000003 1.000000 -0.000005 0.885879 0.258854
-17.117624 -0.000000 -11.651876 0.000003 1.000000 -0.000005 0.846300 0.219171
-16.904953 -0.000003 -11.990096 0.000003 1.000000 -0.000005 0.868793 0.204526
-17.142662 -0.000003 -12.143424 0.529999 0.000000 -0.847998 0.882745 0.217761
-17.380373 -0.000004 -12.296752 0.529999 0.000000 -0.847998 0.896696 0.230995
-17.618084 -0.000004 -12.450080 0.529999 0.000000 -0.847998 0.910648 0.244230
-17.829227 -0.000001 -12.084894 0.000003 1.000000 -0.000008 0.885879 0.258854
-16.904953 -0.000003 -11.990096 0.000003 1.000000 -0.000008 0.868793 0.204526
-17.142662 -0.000003 -12.143424 0.000003 1.000000 -0.000008 0.882745 0.217761
-17.618084 -0.000004 -12.450080 -0.000005 1.000000 -0.000013 0.910648 0.244230
-17.829395 -0.000004 -12.383707 -0.000005 1.000000 -0.000013 0.906206 0.258176
-17.829227 -0.000001 -12.084894 -0.000005 1.000000 -0.000013 0.885879 0.258854
-17.618084 -0.000004 -12.450080 0.000003 1.000000 -0.000008 0.910648 0.244230
-14.734901 0.000001 -10.619641 -0.000003 1.000000 -0.000010 0.898196 0.243156
-14.765563 0.000001 -10.610141 -0.000003 1.000000 -0.000010 0.902075 0.250537
-14.760691 0.000003 -10.424408 -0.000003 1.000000 -0.000010 0.886956 0.249087
-14.267623 -0.000004 -10.424408 0.000021 1.000000 -0.000086 0.878258 0.216080
-14.254647 0.000007 -10.288165 0.000021 1.000000 -0.000086 0.869319 0.217432
-13.901529 -0.000001 -10.298559 0.000021 1.000000 -0.000086 0.864438 0.194510
-14.734901 0.000001 -10.619641 0.000015 1.000000 -0.000008 0.898196 0.243156
-14.760691 0.000003 -10.424408 0.000015 1.000000 -0.000008 0.886956 0.249087
-14.267623 -0.000004 -10.424408 0.000015 1.000000 -0.000008 0.878258 0.216080
-13.901529 -0.000001 -10.298559 0.000015 1.000000 -0.000024 0.864438 0.194510
-14.530040 -0.000002 -10.725725 0.000015 1.000000 -0.000024 0.901815 0.228295
-14.578548 0.000001 -10.612778 0.000015 1.000000 -0.000024 0.895300 0.233190
-14.578548 0.000001 -10.612778 -0.000001 1.000000 0.000033 0.895300 0.233190
-14.734901 0.000001 -10.619641 -0.000001 1.000000 0.000033 0.898196 0.243156
-14.267623 -0.000004 -10.424408 -0.000001 1.000000 0.000033 0.878258 0.216080
-14.267623 -0.000004 -10.424408 -0.000044 1.000000 0.000103 0.878258 0.216080
-13.901529 -0.000001 -10.298559 -0.000044 1.000000 0.000103 0.864438 0.194510
-14.578548 0.000001 -10.612778 -0.000044 1.000000 0.000103 0.895300 0.233190
-15.841599 -0.000000 -10.492409 -0.000001 1.000000 0.000002 0.871024 0.236702
-15.607437 -0.000000 -10.364883 -0.000001 1.000000 0.000002 0.855991 0.220158
-15.445017 0.000000 -10.609505 -0.000001 1.000000 0.000002 0.874864 0.204826
-15.931154 0.000000 -10.902645 -0.000001 1.000000 0.000002 0.908801 0.239117
-16.107843 -0.000000 -10.638695 -0.000001 1.000000 0.000002 0.888221 0.255487
-15.003274 0.000001 -10.763469 -0.000002 1.000000 -0.000001 0.891278 0.225767
-15.240984 0.000001 -10.916798 -0.000002 1.000000 -0.000001 0.905229 0.239001
-15.433397 0.000000 -10.627005 -0.000002 1.000000 -0.000001 0.886719 0.252362
-15.433397 0.000000 -10.627005 -0.000000 1.000000 -0.000000 0.886719 0.252362
-15.252031 0.000000 -10.516642 -0.000000 1.000000 -0.000000 0.876632 0.242248
-15.194686 0.000000 -10.481747 -0.000000 1.000000 -0.000000 0.873443 0.239050
-15.194686 0.000000 -10.481747 -0.000005 1.000000 -0.000010 0.873443 0.239050
-14.760691 0.000003 -10.424408 -0.000005 1.000000 -0.000010 0.862207 0.211082
-14.765563 0.000001 -10.610141 -0.000005 1.000000 -0.000010 0.877326 0.212532
-14.765563 0.000001 -10.610141 -0.000002 1.000000 -0.000001 0.877326 0.212532
-15.433397 0.000000 -10.627005 -0.000002 1.000000 0.000002 0.886719 0.252362
-15.194686 0.000000 -10.481747 -0.000002 1.000000 0.000002 0.873443 0.239050
-14.765563 0.000001 -10.610141 -0.000002 1.000000 0.000002 0.877326 0.212532
-16.107843 -0.000000 -10.638695 -0.000001 1.000000 0.000001 0.854784 0.218880
-15.931154 0.000000 -10.902645 -0.000001 1.000000 0.000001 0.871059 0.205934
-16.426535 -0.000000 -11.201361 -0.000001 1.000000 0.000001 0.898406 0.233565
-16.625277 -0.000000 -10.922993 -0.000001 1.000000 0.000001 0.881215 0.247751
-15.478694 0.000000 -11.070127 -0.000000 1.000000 -0.000002 0.888560 0.220612
-15.716404 -0.000000 -11.223454 -0.000000 1.000000 -0.000002 0.902511 0.233846
-15.918193 0.000000 -10.922009 -0.000000 1.000000 -0.000002 0.883063 0.247774
-15.918193 0.000000 -10.922009 -0.000000 1.000000 0.000000 0.883063 0.247774
-15.433397 0.000000 -10.627005 -0.000000 1.000000 0.000000 0.856099 0.220738
-15.240984 0.000001 -10.916798 -0.000000 1.000000 0.000000 0.874608 0.207377
-15.240984 0.000001 -10.916798 -0.000000 1.000000 -0.000002 0.874608 0.207377
-16.878906 -0.000000 -11.062347 -0.000001 1.000000 0.000001 0.865655 0.234468
-16.625277 -0.000000 -10.922993 -0.000001 1.000000 0.000001 0.852699 0.220316
-16.426535 -0.000000 -11.201361 -0.000001 1.000000 0.000001 0.869890 0.206130
-16.426535 -0.000000 -11.201361 -0.000001 1.000000 0.000000 0.869890 0.206130
-17.133030 -0.000000 -11.627378 -0.000001 1.000000 0.000000 0.908890 0.245537
-17.331223 -0.000000 -11.312181 -0.000001 1.000000 0.000000 0.888845 0.259686
-17.331223 -0.000000 -11.312181 -0.000001 1.000000 0.000001 0.888845 0.259686
-15.954114 -0.000001 -11.376782 0.000001 1.000000 -0.000004 0.887946 0.219646
-16.191822 -0.000001 -11.530111 0.000001 1.000000 -0.000004 0.901897 0.232880
-16.411613 0.000000 -11.222260 0.000001 1.000000 -0.000004 0.881990 0.247855
-16.411613 0.000000 -11.222260 0.000001 1.000000 -0.000002 0.881990 0.247855
-15.918193 0.000000 -10.922009 0.000001 1.000000 -0.000002 0.854547 0.220339
-15.716404 -0.000000 -11.223454 0.000001 1.000000 -0.000002 0.873995 0.206411
-15.716404 -0.000000 -11.223454 0.000001 1.000000 -0.000004 0.873995 0.206411
-17.839127 -0.000001 -11.592720 -0.000000 1.000000 0.000001 0.876665 0.246074
-17.331223 -0.000000 -11.312181 -0.000000 1.000000 0.000001 0.850624 0.217758
-17.133030 -0.000000 -11.627378 -0.000000 1.000000 0.000001 0.870669 0.203609
-17.133030 -0.000000 -11.627378 -0.000000 1.000000 -0.000000 0.870669 0.203609
-17.849083 -0.000001 -12.059160 -0.000000 1.000000 -0.000000 0.910195 0.243545
-18.098492 -0.000001 -11.735920 -0.000000 1.000000 -0.000000 0.889958 0.260535
-18.098492 -0.000001 -11.735920 -0.000000 1.000000 0.000001 0.889958 0.260535
-16.667242 -0.000002 -11.836768 0.000002 1.000000 -0.000006 0.902325 0.228767
-16.904953 -0.000003 -11.990096 0.000002 1.000000 -0.000006 0.916277 0.242001
-17.117624 -0.000000 -11.651876 0.000002 1.000000 -0.000006 0.893784 0.256646
-17.117624 -0.000000 -11.651876 0.000002 1.000000 -0.000003 0.893784 0.256646
-16.411613 0.000000 -11.222260 0.000002 1.000000 -0.000003 0.854516 0.217273
-16.191822 -0.000001 -11.530111 0.000002 1.000000 -0.000003 0.874423 0.202298
-16.191822 -0.000001 -11.530111 -0.000001 1.000000 -0.000002 0.874423 0.202298
-16.429531 -0.000002 -11.683440 -0.000001 1.000000 -0.000002 0.888374 0.215533
-16.667242 -0.000002 -11.836768 -0.000001 1.000000 -0.000002 0.902325 0.228767
-16.191822 -0.000001 -11.530111 0.000002 1.000000 -0.000006 0.874423 0.202298
-18.701393 -0.000001 -12.068790 -0.000000 1.000000 -0.000000 0.887646 0.256565
-18.098492 -0.000001 -11.735920 -0.000000 1.000000 -0.000000 0.856745 0.222950
-17.849083 -0.000001 -12.059160 -0.000000 1.000000 -0.000000 0.876982 0.205961
-17.849083 -0.000001 -12.059160 -0.000009 1.000000 -0.000007 0.876982 0.205961
-17.829227 -0.000001 -12.084894 -0.000009 1.000000 -0.000007 0.878593 0.204608
-17.900761 -0.000002 -12.260439 -0.000009 1.000000 -0.000007 0.892217 0.207413
-17.900761 -0.000002 -12.260439 0.000000 1.000000 -0.000008 0.892217 0.207413
-18.367874 -0.000004 -12.513460 0.000000 1.000000 -0.000008 0.913925 0.231506
-18.735958 -0.000001 -12.078197 0.000000 1.000000 -0.000008 0.888794 0.258644
-18.735958 -0.000001 -12.078197 -0.000000 1.000000 -0.000000 0.888794 0.258644
-17.849083 -0.000001 -12.059160 0.000000 1.000000 -0.000010 0.876982 0.205961
-17.900761 -0.000002 -12.260439 0.000000 1.000000 -0.000010 0.892217 0.207413
-18.735958 -0.000001 -12.078197 0.000000 1.000000 -0.000010 0.888794 0.258644
-18.927685 -0.000008 -13.714580 0.000007 1.000000 -0.000006 0.902110 0.221891
-19.738449 -0.000001 -13.547817 0.000007 1.000000 -0.000006 0.904087 0.276735
-18.772070 -0.000003 -12.818501 0.000007 1.000000 -0.000006 0.843967 0.228324
-18.772070 -0.000003 -12.818501 0.000006 1.000000 0.000001 0.843967 0.228324
-18.395802 -0.000005 -13.029733 0.000006 1.000000 0.000001 0.849648 0.198372
-18.372919 -0.000005 -13.182272 0.000006 1.000000 0.000001 0.859118 0.194508
-18.372919 -0.000005 -13.182272 0.000006 1.000000 -0.000010 0.859118 0.194508
-18.331591 -0.000007 -13.309445 0.000006 1.000000 -0.000010 0.866660 0.189849
-18.927685 -0.000008 -13.714580 0.000006 1.000000 -0.000010 0.902110 0.221891
-18.772070 -0.000003 -12.818501 0.000001 1.000000 -0.000005 0.843967 0.228324
-18.372919 -0.000005 -13.182272 0.000001 1.000000 -0.000005 0.859118 0.194508
-18.927685 -0.000008 -13.714580 0.000001 1.000000 -0.000005 0.902110 0.221891
-19.351465 -0.000001 -12.493242 0.000002 1.000000 -0.000001 0.847991 0.232921
-18.772070 -0.000003 -12.818501 0.000002 1.000000 -0.000001 0.861874 0.192893
-19.738449 -0.000001 -13.547817 0.000002 1.000000 -0.000001 0.921995 0.241304
-19.963806 -0.000001 -12.906153 0.000002 1.000000 -0.000001 0.884196 0.265888
-18.289179 -0.000005 -12.882950 0.000004 1.000000 -0.000003 0.892836 0.232913
-18.395802 -0.000005 -13.029733 0.000004 1.000000 -0.000003 0.899945 0.232213
-18.772070 -0.000003 -12.818501 0.000004 1.000000 -0.000003 0.894265 0.262165
-18.772070 -0.000003 -12.818501 0.000002 1.000000 0.000001 0.894265 0.262165
-18.367874 -0.000004 -12.513460 0.000002 1.000000 0.000001 0.869119 0.241917
-18.283535 -0.000004 -12.630239 0.000002 1.000000 0.000001 0.876351 0.235936
-18.283535 -0.000004 -12.630239 -0.000001 1.000000 0.000002 0.876351 0.235936
-17.829395 -0.000004 -12.383707 -0.000001 1.000000 0.000002 0.854113 0.214341
-17.618084 -0.000004 -12.450080 -0.000001 1.000000 0.000002 0.858555 0.200395
-17.855795 -0.000005 -12.603408 0.000003 1.000000 -0.000008 0.872507 0.213629
-18.289179 -0.000005 -12.882950 0.000003 1.000000 -0.000008 0.892836 0.232913
-18.772070 -0.000003 -12.818501 0.000003 1.000000 -0.000008 0.894265 0.262165
-18.283535 -0.000004 -12.630239 0.000001 1.000000 -0.000004 0.876351 0.235936
-17.618084 -0.000004 -12.450080 0.000001 1.000000 -0.000004 0.858555 0.200395
-17.855795 -0.000005 -12.603408 0.000001 1.000000 -0.000004 0.872507 0.213629
-18.772070 -0.000003 -12.818501 -0.000000 1.000000 0.000006 0.894265 0.262165
-18.283535 -0.000004 -12.630239 -0.000000 1.000000 0.000006 0.876351 0.235936
-17.855795 -0.000005 -12.603408 -0.000000 1.000000 0.000006 0.872507 0.213629
-18.927685 -0.000008 -13.714580 -0.000009 1.000000 0.000004 0.878169 0.201034
-18.456097 0.000002 -15.097439 -0.000009 1.000000 0.000004 0.945432 0.270741
-18.526875 0.000001 -15.128254 -0.000009 1.000000 0.000004 0.942091 0.274536
-18.526875 0.000001 -15.128254 -0.000004 1.000000 0.000007 0.942091 0.274536
-18.596077 -0.000000 -14.933622 -0.000004 1.000000 0.000007 0.932456 0.264802
-18.665277 -0.000002 -14.738990 -0.000004 1.000000 0.000007 0.922821 0.255069
-18.665277 -0.000002 -14.738990 0.000023 -1.000000 0.000000 0.922821 0.255069
-18.734480 -0.000003 -14.544357 0.000023 -1.000000 0.000000 0.913185 0.245336
-18.803682 -0.000005 -14.349726 0.000023 -1.000000 0.000000 0.903551 0.235602
-18.803682 -0.000005 -14.349726 0.000000 0.000000 0.000000 0.903551 0.235602
-18.872885 -0.000007 -14.155093 0.000000 0.000000 0.000000 0.893915 0.225868
-18.942087 -0.000008 -13.960461 0.000000 0.000000 0.000000 0.884280 0.216135
-18.942087 -0.000008 -13.960461 0.000012 1.000000 0.000004 0.884280 0.216135
-19.513475 -0.000001 -14.188393 0.000012 1.000000 0.000004 0.856361 0.245975
-19.738449 -0.000001 -13.547817 0.000012 1.000000 0.000004 0.824811 0.213868
-18.927685 -0.000008 -13.714580 -0.000025 1.000000 -0.000001 0.878169 0.201034
-18.526875 0.000001 -15.128254 -0.000025 1.000000 -0.000001 0.942091 0.274536
-18.665277 -0.000002 -14.738990 -0.000025 1.000000 -0.000001 0.922821 0.255069
-18.665277 -0.000002 -14.738990 -0.000024 1.000000 -0.000001 0.922821 0.255069
-18.803682 -0.000005 -14.349726 -0.000024 1.000000 -0.000001 0.903551 0.235602
-18.942087 -0.000008 -13.960461 -0.000024 1.000000 -0.000001 0.884280 0.216135
-18.942087 -0.000008 -13.960461 0.000008 1.000000 -0.000003 0.884280 0.216135
-19.738449 -0.000001 -13.547817 0.000008 1.000000 -0.000003 0.824811 0.213868
-18.927685 -0.000008 -13.714580 0.000008 1.000000 -0.000003 0.878169 0.201034
-18.942087 -0.000008 -13.960461 -0.000025 1.000000 -0.000001 0.884280 0.216135
-18.526875 0.000001 -15.128254 -0.000009 1.000000 0.000004 0.861245 0.219814
-18.456097 0.000002 -15.097439 -0.000009 1.000000 0.000004 0.858190 0.215786
-18.362606 0.000004 -15.371589 -0.000009 1.000000 0.000004 0.874383 0.205463
-19.128134 -0.000001 -15.665519 -0.000076 1.000000 0.000199 0.905328 0.250165
-19.162535 -0.000001 -15.678728 -0.000076 1.000000 0.000199 0.906718 0.252173
-19.211100 -0.000001 -15.697374 -0.000076 1.000000 0.000199 0.908681 0.255009
-18.526875 0.000001 -15.128254 -0.000008 1.000000 0.000005 0.861245 0.219814
-18.362606 0.000004 -15.371589 -0.000008 1.000000 0.000005 0.874383 0.205463
-19.128134 -0.000001 -15.665519 -0.000008 1.000000 0.000005 0.905328 0.250165
-19.091883 -0.000001 -15.388807 -0.000003 1.000000 -0.000001 0.886934 0.252171
-19.106766 -0.000001 -15.346431 -0.000003 1.000000 -0.000001 0.884438 0.253794
-18.526875 0.000001 -15.128254 -0.000003 1.000000 -0.000001 0.861245 0.219814
-19.077856 -0.000001 -15.465949 -0.000003 1.000000 -0.000001 0.891683 0.250057
-19.128134 -0.000001 -15.665519 -0.000000 1.000000 0.000000 0.905328 0.250165
-19.211100 -0.000001 -15.697374 -0.000000 1.000000 0.000000 0.908681 0.255009
-19.147984 -0.000001 -15.648284 -0.000000 1.000000 0.000000 0.904529 0.251714
-19.098894 -0.000001 -15.571142 -0.000004 1.000000 0.000001 0.898789 0.249762
-19.077856 -0.000001 -15.465949 -0.000004 1.000000 0.000001 0.891683 0.250057
-18.526875 0.000001 -15.128254 -0.000004 1.000000 0.000001 0.861245 0.219814
-19.098894 -0.000001 -15.571142 -0.000000 1.000000 0.000000 0.898789 0.249762
-18.526875 0.000001 -15.128254 -0.000005 1.000000 0.000001 0.861245 0.219814
-19.128134 -0.000001 -15.665519 -0.000005 1.000000 0.000001 0.905328 0.250165
-19.098894 -0.000001 -15.571142 -0.000005 1.000000 0.000001 0.898789 0.249762
-17.133030 -0.000000 -11.627378 -0.000001 1.000000 0.000001 0.883589 0.446140
-16.426535 -0.000000 -11.201361 -0.000001 1.000000 0.000001 0.881899 0.398736
-16.411613 0.000000 -11.222260 -0.000001 1.000000 0.000001 0.884415 0.398624
-17.117624 -0.000000 -11.651876 -0.000001 1.000000 0.000001 0.886436 0.446112
-15.445017 0.000000 -10.609505 0.000009 1.000000 -0.000020 0.879551 0.332877
-15.260512 0.000001 -10.498247 0.000009 1.000000 -0.000020 0.879110 0.320497
-15.252031 0.000000 -10.516642 0.000009 1.000000 -0.000020 0.881096 0.320627
-15.433397 0.000000 -10.627005 0.000009 1.000000 -0.000020 0.881615 0.332826
-15.931154 0.000000 -10.902645 -0.000001 1.000000 0.000001 0.880714 0.365496
-15.918193 0.000000 -10.922009 -0.000001 1.000000 0.000001 0.883003 0.365435
-17.849083 -0.000001 -12.059160 -0.000000 1.000000 0.000000 0.885302 0.494187
-17.133030 -0.000000 -11.627378 -0.000000 1.000000 0.000000 0.883589 0.446140
-17.117624 -0.000000 -11.651876 -0.000000 1.000000 0.000000 0.886436 0.446112
-17.829227 -0.000001 -12.084894 -0.000000 1.000000 0.000000 0.888473 0.493976
-15.931154 0.000000 -10.902645 -0.000001 1.000000 0.000002 0.880714 0.365496
-15.445017 0.000000 -10.609505 -0.000001 1.000000 0.000002 0.879551 0.332877
-15.433397 0.000000 -10.627005 -0.000001 1.000000 0.000002 0.881615 0.332826
-15.918193 0.000000 -10.922009 -0.000001 1.000000 0.000002 0.883003 0.365435
3 0 1 2
3 2 3 4
3 5 6 7
3 8 9 10
3 11 12 13
3 0 2 4
3 14 0 4
3 15 16 17
3 4 18 19
3 20 14 4
3 4 19 21
3 4 21 20
3 22 23 24
3 22 24 25
3 22 25 26
3 26 27 28
3 28 29 30
3 30 31 32
3 30 32 33
3 22 26 28
3 30 33 34
3 34 22 28
3 28 30 34
3 35 36 37
3 38 39 40
3 41 38 40
3 42 43 44
3 45 46 47
3 48 49 50
3 51 52 53
4 54 55 56 57
3 58 59 60
3 61 62 63
3 64 65 66
3 67 68 69
3 70 71 67
3 72 73 74
3 75 76 77
3 78 79 80
3 81 82 83
3 84 85 86
3 87 88 89
4 90 91 92 93
4 94 95 96 97
4 98 99 100 101
4 102 103 104 105
4 106 107 108 109
4 110 111 112 113
4 114 115 116 117
4 118 119 120 121
4 122 123 124 125
4 126 127 128 129
4 130 131 132 133
4 134 135 136 137
4 138 139 140 141
4 142 143 144 145
4 146 147 148 149
4 150 151 152 153
4 154 155 156 157
4 158 159 160 161
4 162 163 164 165
3 166 167 168
3 169 170 171
3 172 173 174
3 175 176 177
3 178 179 180
4 181 182 183 184
4 185 186 187 188
4 189 190 191 192
3 193 194 195
3 196 197 198
3 199 200 201
3 202 203 204
3 205 206 207
3 202 204 208
3 209 210 211
3 212 213 214
3 215 216 217
3 218 219 220
3 221 222 223
3 224 225 226
3 227 228 229
3 229 230 231
3 229 231 227
3 232 233 234
3 235 236 237
3 238 239 240
3 241 232 234
3 242 243 244
4 245 246 247 248
3 249 250 251
3 252 253 254
3 251 255 249
3 256 257 258
3 259 260 261
3 258 262 256
3 263 264 265
3 266 267 268
3 265 269 263
3 270 271 272
3 273 274 275
3 272 276 270
3 277 278 279
3 280 281 282
3 283 284 285
3 279 286 277
3 287 288 289
3 290 291 292
3 293 294 295
3 296 287 289
3 297 298 299
3 300 301 302
3 303 304 305
3 306 307 308
3 309 310 311
4 312 313 314 315
3 316 317 318
3 319 320 321
3 322 323 324
3 325 326 327
3 328 329 330
3 331 332 333
3 334 335 336
3 337 338 339
3 340 341 342
3 343 344 345
3 346 347 348
3 349 350 351
3 352 353 354
3 355 356 357
3 349 351 358
3 359 360 361
3 362 363 364
3 365 366 367
3 368 369 370
3 371 368 370
3 372 373 374
3 375 376 377
3 372 374 378
3 379 380 381
4 382 383 384 385
4 386 387 388 389
4 383 390 391 384
4 392 393 394 395
4 396 397 398 399
