ply
format ascii 1.0
comment Created by Blender 2.78 (sub 0) - www.blender.org, source file: 'soult.blend'
element vertex 372
property float x
property float y
property float z
property float nx
property float ny
property float nz
property float s
property float t
element face 93
property list uchar uint vertex_indices
end_header
-16.053040 0.133909 -8.854003 0.484038 0.000000 -0.875047 0.820224 0.881988
-15.961092 0.133909 -8.803142 0.484038 0.000000 -0.875047 0.793995 0.881988
-15.961092 0.018834 -8.803142 0.484038 0.000000 -0.875047 0.793995 0.855759
-16.053040 0.018834 -8.854003 0.484038 0.000000 -0.875047 0.820224 0.855759
-16.076885 0.018834 -8.866452 0.484038 0.000000 -0.875047 0.793994 0.855759
-16.168833 0.018834 -8.917314 0.484038 0.000000 -0.875047 0.820225 0.855759
-16.168833 0.133909 -8.917314 0.484038 0.000000 -0.875047 0.820225 0.881988
-16.076885 0.133909 -8.866452 0.484038 0.000000 -0.875047 0.793994 0.881988
-16.199343 0.018834 -8.933928 0.484038 0.000000 -0.875047 0.793995 0.855759
-16.291290 0.018834 -8.984790 0.484038 0.000000 -0.875047 0.820224 0.855759
-16.291290 0.133909 -8.984790 0.484038 0.000000 -0.875047 0.820224 0.881988
-16.199343 0.133909 -8.933928 0.484038 0.000000 -0.875047 0.793995 0.881988
-16.323465 0.018834 -9.000571 0.484038 0.000000 -0.875047 0.793995 0.855759
-16.415413 0.018834 -9.051433 0.484038 0.000000 -0.875047 0.820224 0.855759
-16.415413 0.133909 -9.051433 0.484038 0.000000 -0.875047 0.820224 0.881988
-16.323465 0.133909 -9.000571 0.484038 0.000000 -0.875047 0.793995 0.881988
-16.444256 0.018834 -9.066381 0.484038 0.000000 -0.875047 0.793995 0.855759
-16.536203 0.018834 -9.117243 0.484038 0.000000 -0.875047 0.820224 0.855759
-16.536203 0.133909 -9.117243 0.484038 0.000000 -0.875047 0.820224 0.881988
-16.444256 0.133909 -9.066381 0.484038 0.000000 -0.875047 0.793995 0.881988
-16.567545 0.018834 -9.133024 0.484038 0.000000 -0.875047 0.793995 0.855759
-16.659492 0.018834 -9.183886 0.484038 0.000000 -0.875047 0.820224 0.855759
-16.659492 0.133909 -9.183886 0.484038 0.000000 -0.875047 0.820224 0.881988
-16.567545 0.133909 -9.133024 0.484038 0.000000 -0.875047 0.793995 0.881988
-16.690834 0.018834 -9.198834 0.484038 0.000000 -0.875047 0.793994 0.855759
-16.782782 0.018834 -9.249696 0.484038 0.000000 -0.875047 0.820224 0.855758
-16.782782 0.133909 -9.249696 0.484038 0.000000 -0.875047 0.820224 0.881988
-16.690834 0.133909 -9.198834 0.484038 0.000000 -0.875047 0.793994 0.881988
-16.814123 0.018834 -9.264645 0.484038 0.000000 -0.875047 0.793995 0.855759
-16.906071 0.018834 -9.315506 0.484038 0.000000 -0.875047 0.820224 0.855759
-16.906071 0.133909 -9.315506 0.484038 0.000000 -0.875047 0.820224 0.881988
-16.814123 0.133909 -9.264645 0.484038 0.000000 -0.875047 0.793995 0.881988
-16.946577 0.018834 -9.335453 0.484038 0.000000 -0.875047 0.793995 0.855759
-17.038525 0.018834 -9.386314 0.484038 0.000000 -0.875047 0.820224 0.855759
-17.038525 0.133909 -9.386314 0.484038 0.000000 -0.875047 0.820224 0.881988
-16.946577 0.133909 -9.335453 0.484038 0.000000 -0.875047 0.793995 0.881988
-17.072367 0.018834 -9.413758 0.484038 0.000000 -0.875047 0.793995 0.855759
-17.164314 0.018834 -9.464620 0.484038 0.000000 -0.875047 0.820224 0.855759
-17.164314 0.133909 -9.464620 0.484038 0.000000 -0.875047 0.820224 0.881988
-17.072367 0.133909 -9.413758 0.484038 0.000000 -0.875047 0.793995 0.881988
-17.195656 0.018834 -9.483733 0.484038 0.000000 -0.875047 0.793995 0.855759
-17.287603 0.018834 -9.534595 0.484038 0.000000 -0.875047 0.820224 0.855759
-17.287603 0.133909 -9.534595 0.484038 0.000000 -0.875047 0.820224 0.881988
-17.195656 0.133909 -9.483733 0.484038 0.000000 -0.875047 0.793995 0.881988
-17.322277 0.018834 -9.552876 0.484038 0.000000 -0.875047 0.793995 0.855758
-17.414225 0.018834 -9.603737 0.484038 0.000000 -0.875047 0.820224 0.855759
-17.414225 0.133909 -9.603737 0.484038 0.000000 -0.875047 0.820224 0.881988
-17.322277 0.133909 -9.552876 0.484038 0.000000 -0.875047 0.793995 0.881988
-17.444735 0.018834 -9.620352 0.484038 0.000000 -0.875047 0.793995 0.855759
-17.536682 0.018834 -9.671213 0.484038 0.000000 -0.875047 0.820224 0.855759
-17.536682 0.133909 -9.671213 0.484038 0.000000 -0.875047 0.820224 0.881988
-17.444735 0.133909 -9.620352 0.484038 0.000000 -0.875047 0.793995 0.881988
-17.572189 0.018834 -9.690327 0.484038 0.000000 -0.875047 0.793995 0.855759
-17.664137 0.018834 -9.741188 0.484038 0.000000 -0.875047 0.820224 0.855759
-17.664137 0.133909 -9.741188 0.484038 0.000000 -0.875047 0.820224 0.881988
-17.572189 0.133909 -9.690327 0.484038 0.000000 -0.875047 0.793995 0.881988
-17.692146 0.018834 -9.756969 0.484038 0.000000 -0.875047 0.793995 0.855758
-17.784094 0.018834 -9.807831 0.484038 0.000000 -0.875047 0.820224 0.855759
-17.784094 0.133909 -9.807831 0.484038 0.000000 -0.875047 0.820224 0.881988
-17.692146 0.133909 -9.756969 0.484038 0.000000 -0.875047 0.793995 0.881988
-17.812103 0.018834 -9.821114 0.484038 0.000000 -0.875047 0.793995 0.855759
-17.904051 0.018834 -9.871975 0.484038 0.000000 -0.875047 0.820224 0.855759
-17.904051 0.133909 -9.871975 0.484038 0.000000 -0.875047 0.820224 0.881988
-17.812103 0.133909 -9.821114 0.484038 0.000000 -0.875047 0.793995 0.881988
-17.930861 0.018834 -9.888289 0.484038 0.000000 -0.875047 0.793995 0.855758
-18.022808 0.018834 -9.939151 0.484038 0.000000 -0.875047 0.820224 0.855759
-18.022808 0.133909 -9.939151 0.484038 0.000000 -0.875047 0.820224 0.881988
-17.930861 0.133909 -9.888289 0.484038 0.000000 -0.875047 0.793995 0.881988
-18.050817 0.018834 -9.954267 0.484038 0.000000 -0.875047 0.793995 0.855759
-18.142765 0.018834 -10.005128 0.484038 0.000000 -0.875047 0.820224 0.855758
-18.142765 0.133909 -10.005128 0.484038 0.000000 -0.875047 0.820224 0.881988
-18.050817 0.133909 -9.954267 0.484038 0.000000 -0.875047 0.793995 0.881988
-18.169575 0.018834 -10.019044 0.484038 0.000000 -0.875047 0.793995 0.855759
-18.261522 0.018834 -10.069905 0.484038 0.000000 -0.875047 0.820224 0.855758
-18.261522 0.133909 -10.069905 0.484038 0.000000 -0.875047 0.820224 0.881988
-18.169575 0.133909 -10.019044 0.484038 0.000000 -0.875047 0.793995 0.881988
-18.293131 0.018834 -10.085021 0.484038 0.000000 -0.875047 0.793995 0.855759
-18.385078 0.018834 -10.135882 0.484038 0.000000 -0.875047 0.820224 0.855758
-18.385078 0.133909 -10.135882 0.484038 0.000000 -0.875047 0.820224 0.881988
-18.293131 0.133909 -10.085021 0.484038 0.000000 -0.875047 0.793995 0.881988
-18.410688 0.018834 -10.150998 0.484038 0.000000 -0.875047 0.793994 0.855759
-18.502636 0.018834 -10.201859 0.484038 0.000000 -0.875047 0.820225 0.855759
-18.502636 0.133909 -10.201859 0.484038 0.000000 -0.875047 0.820225 0.881988
-18.410688 0.133909 -10.150998 0.484038 0.000000 -0.875047 0.793994 0.881988
-18.529446 0.018834 -10.215775 0.484038 0.000000 -0.875047 0.793994 0.855759
-18.621393 0.018834 -10.266637 0.484038 0.000000 -0.875047 0.820225 0.855759
-18.621393 0.133909 -10.266637 0.484038 0.000000 -0.875047 0.820225 0.881988
-18.529446 0.133909 -10.215775 0.484038 0.000000 -0.875047 0.793994 0.881988
-18.648203 0.018834 -10.280553 0.484038 0.000000 -0.875047 0.793995 0.855759
-18.740150 0.018834 -10.331414 0.484038 0.000000 -0.875047 0.820225 0.855758
-18.740150 0.133909 -10.331414 0.484038 0.000000 -0.875047 0.820225 0.881988
-18.648203 0.133909 -10.280553 0.484038 0.000000 -0.875047 0.793995 0.881988
-18.772959 0.018834 -10.351328 0.484038 0.000000 -0.875047 0.793995 0.855759
-18.864906 0.018834 -10.402189 0.484038 0.000000 -0.875047 0.820224 0.855759
-18.864906 0.133909 -10.402189 0.484038 0.000000 -0.875047 0.820224 0.881988
-18.772959 0.133909 -10.351328 0.484038 0.000000 -0.875047 0.793995 0.881988
-18.890516 0.018834 -10.416105 0.484038 0.000000 -0.875047 0.793995 0.855759
-18.982464 0.018834 -10.466967 0.484038 0.000000 -0.875047 0.820224 0.855759
-18.982464 0.133909 -10.466967 0.484038 0.000000 -0.875047 0.820224 0.881988
-18.890516 0.133909 -10.416105 0.484038 0.000000 -0.875047 0.793995 0.881988
-19.009274 0.018834 -10.482082 0.484038 0.000000 -0.875047 0.793995 0.855759
-19.101221 0.018834 -10.532944 0.484038 0.000000 -0.875047 0.820224 0.855759
-19.101221 0.133909 -10.532944 0.484038 0.000000 -0.875047 0.820224 0.881988
-19.009274 0.133909 -10.482082 0.484038 0.000000 -0.875047 0.793995 0.881988
-19.132830 0.018834 -10.548059 0.484038 0.000000 -0.875047 0.793994 0.855758
-19.224777 0.018834 -10.598921 0.484038 0.000000 -0.875047 0.820225 0.855759
-19.224777 0.133909 -10.598921 0.484038 0.000000 -0.875047 0.820225 0.881988
-19.132830 0.133909 -10.548059 0.484038 0.000000 -0.875047 0.793994 0.881988
-19.245590 0.018834 -10.614037 0.484038 0.000000 -0.875047 0.793995 0.855759
-19.337538 0.018834 -10.664898 0.484038 0.000000 -0.875047 0.820224 0.855758
-19.337538 0.133909 -10.664898 0.484038 0.000000 -0.875047 0.820224 0.881988
-19.245590 0.133909 -10.614037 0.484038 0.000000 -0.875047 0.793995 0.881988
-19.365547 0.018834 -10.681212 0.484038 0.000000 -0.875047 0.793994 0.855758
-19.457495 0.018834 -10.732074 0.484038 0.000000 -0.875047 0.820225 0.855759
-19.457495 0.133909 -10.732074 0.484038 0.000000 -0.875047 0.820225 0.881988
-19.365547 0.133909 -10.681212 0.484038 0.000000 -0.875047 0.793994 0.881988
-19.493902 0.018834 -10.748388 0.484038 0.000000 -0.875047 0.793995 0.855759
-19.585850 0.018834 -10.799250 0.484038 0.000000 -0.875047 0.820224 0.855759
-19.585850 0.133909 -10.799250 0.484038 0.000000 -0.875047 0.820224 0.881988
-19.493902 0.133909 -10.748388 0.484038 0.000000 -0.875047 0.793995 0.881988
-19.616259 0.018834 -10.811966 0.484038 0.000000 -0.875047 0.793995 0.855759
-19.708206 0.018834 -10.862827 0.484038 0.000000 -0.875047 0.820224 0.855759
-19.708206 0.133909 -10.862827 0.484038 0.000000 -0.875047 0.820224 0.881988
-19.616259 0.133909 -10.811966 0.484038 0.000000 -0.875047 0.793995 0.881988
-19.730219 0.018834 -10.878942 0.484038 0.000000 -0.875047 0.793995 0.855759
-19.822166 0.018834 -10.929804 0.484038 0.000000 -0.875047 0.820224 0.855759
-19.822166 0.133909 -10.929804 0.484038 0.000000 -0.875047 0.820224 0.881988
-19.730219 0.133909 -10.878942 0.484038 0.000000 -0.875047 0.793995 0.881988
-19.852177 0.018834 -10.945919 0.484038 0.000000 -0.875047 0.793994 0.855759
-19.944124 0.018834 -10.996780 0.484038 0.000000 -0.875047 0.820225 0.855759
-19.944124 0.133909 -10.996780 0.484038 0.000000 -0.875047 0.820225 0.881988
-19.852177 0.133909 -10.945919 0.484038 0.000000 -0.875047 0.793994 0.881988
-19.973133 0.018834 -11.011896 0.484038 0.000000 -0.875047 0.793994 0.855758
-20.065081 0.018834 -11.062757 0.484038 0.000000 -0.875047 0.820225 0.855759
-20.065081 0.133909 -11.062757 0.484038 0.000000 -0.875047 0.820225 0.881988
-19.973133 0.133909 -11.011896 0.484038 0.000000 -0.875047 0.793994 0.881988
-20.093090 0.018834 -11.077873 0.484038 0.000000 -0.875047 0.793995 0.855759
-20.185038 0.018834 -11.128735 0.484038 0.000000 -0.875047 0.820224 0.855759
-20.185038 0.133909 -11.128735 0.484038 0.000000 -0.875047 0.820224 0.881988
-20.093090 0.133909 -11.077873 0.484038 0.000000 -0.875047 0.793995 0.881988
-20.212048 0.018834 -11.142850 0.484038 0.000000 -0.875047 0.793995 0.855759
-20.303995 0.018834 -11.193711 0.484038 0.000000 -0.875047 0.820224 0.855759
-20.303995 0.133909 -11.193711 0.484038 0.000000 -0.875047 0.820224 0.881988
-20.212048 0.133909 -11.142850 0.484038 0.000000 -0.875047 0.793995 0.881988
-20.334005 0.018834 -11.210826 0.484038 0.000000 -0.875047 0.793995 0.855758
-20.425953 0.018834 -11.261687 0.484038 0.000000 -0.875047 0.820224 0.855758
-20.425953 0.133909 -11.261687 0.484038 0.000000 -0.875047 0.820224 0.881988
-20.334005 0.133909 -11.210826 0.484038 0.000000 -0.875047 0.793995 0.881988
-20.452963 0.018834 -11.278802 0.484038 0.000000 -0.875047 0.793995 0.855758
-20.544910 0.018834 -11.329663 0.484038 0.000000 -0.875047 0.820224 0.855758
-20.544910 0.133909 -11.329663 0.484038 0.000000 -0.875047 0.820224 0.881988
-20.452963 0.133909 -11.278802 0.484038 0.000000 -0.875047 0.793995 0.881988
-20.577335 0.018834 -11.345134 0.484038 0.000000 -0.875047 0.793995 0.855758
-20.669283 0.018834 -11.395995 0.484038 0.000000 -0.875047 0.820224 0.855758
-20.669283 0.133909 -11.395995 0.484038 0.000000 -0.875047 0.820224 0.881988
-20.577335 0.133909 -11.345134 0.484038 0.000000 -0.875047 0.793995 0.881988
-20.701708 0.018834 -11.413538 0.484038 0.000000 -0.875047 0.793995 0.855759
-20.793655 0.018834 -11.464399 0.484038 0.000000 -0.875047 0.820224 0.855759
-20.793655 0.133909 -11.464399 0.484038 0.000000 -0.875047 0.820224 0.881988
-20.701708 0.133909 -11.413538 0.484038 0.000000 -0.875047 0.793995 0.881988
-20.826080 0.018834 -11.479870 0.484038 0.000000 -0.875047 0.793995 0.855759
-20.918028 0.018834 -11.530731 0.484038 0.000000 -0.875047 0.820224 0.855759
-20.918028 0.133909 -11.530731 0.484038 0.000000 -0.875047 0.820224 0.881988
-20.826080 0.133909 -11.479870 0.484038 0.000000 -0.875047 0.793995 0.881988
-21.256044 0.018834 -11.715475 0.480665 0.000000 -0.876904 0.793995 0.855759
-21.348186 0.018834 -11.765982 0.480665 0.000000 -0.876904 0.820224 0.855759
-21.348186 0.133909 -11.765982 0.480665 0.000000 -0.876904 0.820224 0.881988
-21.256044 0.133909 -11.715475 0.480665 0.000000 -0.876904 0.793995 0.881988
-21.380680 0.018834 -11.783399 0.480665 0.000000 -0.876904 0.793995 0.855758
-21.472822 0.018834 -11.833905 0.480665 0.000000 -0.876904 0.820224 0.855758
-21.472822 0.133909 -11.833905 0.480665 0.000000 -0.876904 0.820224 0.881988
-21.380680 0.133909 -11.783399 0.480665 0.000000 -0.876904 0.793995 0.881988
-21.380680 0.018834 -11.783399 0.480665 0.000000 -0.876904 0.793995 0.855758
-21.472822 0.018834 -11.833905 0.480665 0.000000 -0.876904 0.820224 0.855758
-21.472822 0.133909 -11.833905 0.480665 0.000000 -0.876904 0.820224 0.881988
-21.380680 0.133909 -11.783399 0.480665 0.000000 -0.876904 0.793995 0.881988
-21.497555 0.018834 -11.847924 0.480672 0.000000 -0.876901 0.793995 0.855759
-21.589697 0.018834 -11.898432 0.480672 0.000000 -0.876901 0.820224 0.855759
-21.589697 0.133909 -11.898432 0.480672 0.000000 -0.876901 0.820224 0.881988
-21.497555 0.133909 -11.847924 0.480672 0.000000 -0.876901 0.793995 0.881988
-21.614429 0.018834 -11.912451 0.480665 0.000000 -0.876904 0.793995 0.855759
-21.706572 0.018834 -11.962957 0.480665 0.000000 -0.876904 0.820224 0.855759
-21.706572 0.133909 -11.962957 0.480665 0.000000 -0.876904 0.820224 0.881988
-21.614429 0.133909 -11.912451 0.480665 0.000000 -0.876904 0.793995 0.881988
-21.731302 0.018834 -11.976976 0.480663 0.000000 -0.876905 0.793995 0.855759
-21.823448 0.018834 -12.027485 0.480663 0.000000 -0.876905 0.820225 0.855758
-21.823448 0.133909 -12.027485 0.480663 0.000000 -0.876905 0.820225 0.881988
-21.731302 0.133909 -11.976976 0.480663 0.000000 -0.876905 0.793995 0.881988
-21.848179 0.018834 -12.041503 0.480672 0.000000 -0.876901 0.793995 0.855759
-21.940321 0.018834 -12.092010 0.480672 0.000000 -0.876901 0.820224 0.855759
-21.940321 0.133909 -12.092010 0.480672 0.000000 -0.876901 0.820224 0.881988
-21.848179 0.133909 -12.041503 0.480672 0.000000 -0.876901 0.793995 0.881988
-21.965054 0.018834 -12.106030 0.480672 0.000000 -0.876901 0.793995 0.855759
-22.057196 0.018834 -12.156537 0.480672 0.000000 -0.876901 0.820224 0.855759
-22.057196 0.133909 -12.156537 0.480672 0.000000 -0.876901 0.820224 0.881988
-21.965054 0.133909 -12.106030 0.480672 0.000000 -0.876901 0.793995 0.881988
-22.081926 0.018834 -12.170555 0.480663 0.000000 -0.876905 0.793995 0.855759
-22.174072 0.018834 -12.221064 0.480663 0.000000 -0.876905 0.820225 0.855759
-22.174072 0.133909 -12.221064 0.480663 0.000000 -0.876905 0.820225 0.881988
-22.081926 0.133909 -12.170555 0.480663 0.000000 -0.876905 0.793995 0.881988
-22.198803 0.018834 -12.235082 0.480672 0.000000 -0.876901 0.793995 0.855759
-22.290945 0.018834 -12.285589 0.480672 0.000000 -0.876901 0.820224 0.855759
-22.290945 0.133909 -12.285589 0.480672 0.000000 -0.876901 0.820224 0.881988
-22.198803 0.133909 -12.235082 0.480672 0.000000 -0.876901 0.793995 0.881988
-22.315678 0.018834 -12.299608 0.480672 0.000000 -0.876901 0.793995 0.855758
-22.407820 0.018834 -12.350116 0.480672 0.000000 -0.876901 0.820224 0.855759
-22.407820 0.133909 -12.350116 0.480672 0.000000 -0.876901 0.820224 0.881988
-22.315678 0.133909 -12.299608 0.480672 0.000000 -0.876901 0.793995 0.881988
-22.432552 0.018834 -12.364135 0.480672 0.000000 -0.876900 0.793995 0.855758
-22.524693 0.018834 -12.414641 0.480672 0.000000 -0.876900 0.820224 0.855758
-22.524693 0.133909 -12.414641 0.480672 0.000000 -0.876900 0.820224 0.881988
-22.432552 0.133909 -12.364135 0.480672 0.000000 -0.876900 0.793995 0.881988
-22.549425 0.018834 -12.428661 0.480657 0.000000 -0.876909 0.793995 0.855759
-22.641569 0.018834 -12.479168 0.480657 0.000000 -0.876909 0.820224 0.855758
-22.641569 0.133909 -12.479168 0.480657 0.000000 -0.876909 0.820224 0.881988
-22.549425 0.133909 -12.428661 0.480657 0.000000 -0.876909 0.793995 0.881988
-22.666302 0.018834 -12.493187 0.480672 0.000000 -0.876900 0.793995 0.855759
-22.758442 0.018834 -12.543694 0.480672 0.000000 -0.876900 0.820224 0.855759
-22.758442 0.133909 -12.543694 0.480672 0.000000 -0.876900 0.820224 0.881988
-22.666302 0.133909 -12.493187 0.480672 0.000000 -0.876900 0.793995 0.881988
-22.783175 0.018834 -12.557714 0.480664 0.000000 -0.876905 0.793995 0.855759
-22.875319 0.018834 -12.608221 0.480664 0.000000 -0.876905 0.820224 0.855759
-22.875319 0.133909 -12.608221 0.480664 0.000000 -0.876905 0.820224 0.881988
-22.783175 0.133909 -12.557714 0.480664 0.000000 -0.876905 0.793995 0.881988
-22.900049 0.018834 -12.622239 0.480664 0.000000 -0.876905 0.793994 0.855759
-22.992193 0.018834 -12.672747 0.480664 0.000000 -0.876905 0.820224 0.855759
-22.992193 0.133909 -12.672747 0.480664 0.000000 -0.876905 0.820224 0.881988
-22.900049 0.133909 -12.622239 0.480664 0.000000 -0.876905 0.793994 0.881988
-23.016924 0.018834 -12.686766 0.480664 0.000000 -0.876905 0.793995 0.855759
-23.109068 0.018834 -12.737273 0.480664 0.000000 -0.876905 0.820224 0.855759
-23.109068 0.133909 -12.737273 0.480664 0.000000 -0.876905 0.820224 0.881988
-23.016924 0.133909 -12.686766 0.480664 0.000000 -0.876905 0.793995 0.881988
-23.133799 0.018834 -12.751291 0.480671 0.000000 -0.876901 0.793995 0.855759
-23.225943 0.018834 -12.801800 0.480671 0.000000 -0.876901 0.820225 0.855759
-23.225943 0.133909 -12.801800 0.480671 0.000000 -0.876901 0.820225 0.881988
-23.133799 0.133909 -12.751291 0.480671 0.000000 -0.876901 0.793995 0.881988
-23.250673 0.018834 -12.815818 0.480664 0.000000 -0.876905 0.793995 0.855759
-23.342817 0.018834 -12.866325 0.480664 0.000000 -0.876905 0.820224 0.855759
-23.342817 0.133909 -12.866325 0.480664 0.000000 -0.876905 0.820224 0.881988
-23.250673 0.133909 -12.815818 0.480664 0.000000 -0.876905 0.793995 0.881988
-23.367550 0.018834 -12.880345 0.480672 0.000000 -0.876900 0.793995 0.855759
-23.459690 0.018834 -12.930852 0.480672 0.000000 -0.876900 0.820224 0.855758
-23.459690 0.133909 -12.930852 0.480672 0.000000 -0.876900 0.820224 0.881988
-23.367550 0.133909 -12.880345 0.480672 0.000000 -0.876900 0.793995 0.881988
-23.484423 0.018834 -12.944871 0.480657 0.000000 -0.876909 0.793995 0.855759
-23.576567 0.018834 -12.995378 0.480657 0.000000 -0.876909 0.820224 0.855759
-23.576567 0.133909 -12.995378 0.480657 0.000000 -0.876909 0.820224 0.881988
-23.484423 0.133909 -12.944871 0.480657 0.000000 -0.876909 0.793995 0.881988
-23.601299 0.018834 -13.009398 0.480672 0.000000 -0.876900 0.793995 0.855759
-23.693439 0.018834 -13.059904 0.480672 0.000000 -0.876900 0.820224 0.855759
-23.693439 0.133909 -13.059904 0.480672 0.000000 -0.876900 0.820224 0.881988
-23.601299 0.133909 -13.009398 0.480672 0.000000 -0.876900 0.793995 0.881988
-23.718172 0.018834 -13.073923 0.480664 0.000000 -0.876905 0.793995 0.855759
-23.810316 0.018834 -13.124431 0.480664 0.000000 -0.876905 0.820224 0.855759
-23.810316 0.133909 -13.124431 0.480664 0.000000 -0.876905 0.820224 0.881988
-23.718172 0.133909 -13.073923 0.480664 0.000000 -0.876905 0.793995 0.881988
-23.835049 0.018834 -13.138450 0.480672 0.000000 -0.876900 0.793995 0.855759
-23.927189 0.018834 -13.188956 0.480672 0.000000 -0.876900 0.820224 0.855759
-23.927189 0.133909 -13.188956 0.480672 0.000000 -0.876900 0.820224 0.881988
-23.835049 0.133909 -13.138450 0.480672 0.000000 -0.876900 0.793995 0.881988
-23.951921 0.018834 -13.202975 0.480671 0.000000 -0.876901 0.793995 0.855758
-24.044065 0.018834 -13.253484 0.480671 0.000000 -0.876901 0.820224 0.855759
-24.044065 0.133909 -13.253484 0.480671 0.000000 -0.876901 0.820224 0.881988
-23.951921 0.133909 -13.202975 0.480671 0.000000 -0.876901 0.793995 0.881988
-24.068796 0.018834 -13.267502 0.480664 0.000000 -0.876905 0.793995 0.855759
-24.160940 0.018834 -13.318009 0.480664 0.000000 -0.876905 0.820225 0.855759
-24.160940 0.133909 -13.318009 0.480664 0.000000 -0.876905 0.820225 0.881988
-24.068796 0.133909 -13.267502 0.480664 0.000000 -0.876905 0.793995 0.881988
-24.185671 0.018834 -13.332028 0.480672 0.000000 -0.876901 0.793995 0.855759
-24.277813 0.018834 -13.382536 0.480672 0.000000 -0.876901 0.820224 0.855759
-24.277813 0.133909 -13.382536 0.480672 0.000000 -0.876901 0.820224 0.881988
-24.185671 0.133909 -13.332028 0.480672 0.000000 -0.876901 0.793995 0.881988
-24.302546 0.018834 -13.396554 0.480664 0.000000 -0.876905 0.793995 0.855759
-24.394690 0.018834 -13.447062 0.480664 0.000000 -0.876905 0.820224 0.855759
-24.394690 0.133909 -13.447062 0.480664 0.000000 -0.876905 0.820224 0.881988
-24.302546 0.133909 -13.396554 0.480664 0.000000 -0.876905 0.793995 0.881988
-24.419420 0.018834 -13.461082 0.480665 0.000000 -0.876905 0.793995 0.855758
-24.511562 0.018834 -13.511588 0.480665 0.000000 -0.876905 0.820224 0.855759
-24.511562 0.133909 -13.511588 0.480665 0.000000 -0.876905 0.820224 0.881988
-24.419420 0.133909 -13.461082 0.480665 0.000000 -0.876905 0.793995 0.881988
-24.536295 0.018834 -13.525607 0.480664 0.000000 -0.876905 0.793995 0.855758
-24.628439 0.018834 -13.576115 0.480664 0.000000 -0.876905 0.820224 0.855759
-24.628439 0.133909 -13.576115 0.480664 0.000000 -0.876905 0.820224 0.881988
-24.536295 0.133909 -13.525607 0.480664 0.000000 -0.876905 0.793995 0.881988
-24.653172 0.018834 -13.590134 0.480672 0.000000 -0.876900 0.793995 0.855759
-24.745312 0.018834 -13.640640 0.480672 0.000000 -0.876900 0.820224 0.855759
-24.745312 0.133909 -13.640640 0.480672 0.000000 -0.876900 0.820224 0.881988
-24.653172 0.133909 -13.590134 0.480672 0.000000 -0.876900 0.793995 0.881988
-24.770044 0.018834 -13.654660 0.480657 0.000000 -0.876909 0.793995 0.855759
-24.862188 0.018834 -13.705167 0.480657 0.000000 -0.876909 0.820224 0.855759
-24.862188 0.133909 -13.705167 0.480657 0.000000 -0.876909 0.820224 0.881988
-24.770044 0.133909 -13.654660 0.480657 0.000000 -0.876909 0.793995 0.881988
-24.886921 0.018834 -13.719186 0.480672 0.000000 -0.876900 0.793995 0.855759
-24.979061 0.018834 -13.769692 0.480672 0.000000 -0.876900 0.820224 0.855759
-24.979061 0.133909 -13.769692 0.480672 0.000000 -0.876900 0.820224 0.881988
-24.886921 0.133909 -13.719186 0.480672 0.000000 -0.876900 0.793995 0.881988
-25.003794 0.018834 -13.783712 0.480664 0.000000 -0.876905 0.793995 0.855759
-25.095938 0.018834 -13.834220 0.480664 0.000000 -0.876905 0.820224 0.855758
-25.095938 0.133909 -13.834220 0.480664 0.000000 -0.876905 0.820224 0.881988
-25.003794 0.133909 -13.783712 0.480664 0.000000 -0.876905 0.793995 0.881988
-25.120668 0.018834 -13.848238 0.480664 0.000000 -0.876905 0.793994 0.855759
-25.212812 0.018834 -13.898746 0.480664 0.000000 -0.876905 0.820224 0.855759
-25.212812 0.133909 -13.898746 0.480664 0.000000 -0.876905 0.820224 0.881988
-25.120668 0.133909 -13.848238 0.480664 0.000000 -0.876905 0.793994 0.881988
-25.237543 0.018834 -13.912765 0.480664 0.000000 -0.876905 0.793995 0.855758
-25.329687 0.018834 -13.963272 0.480664 0.000000 -0.876905 0.820224 0.855759
-25.329687 0.133909 -13.963272 0.480664 0.000000 -0.876905 0.820224 0.881988
-25.237543 0.133909 -13.912765 0.480664 0.000000 -0.876905 0.793995 0.881988
-25.354418 0.018834 -13.977290 0.480671 0.000000 -0.876901 0.793994 0.855759
-25.446562 0.018834 -14.027799 0.480671 0.000000 -0.876901 0.820225 0.855759
-25.446562 0.133909 -14.027799 0.480671 0.000000 -0.876901 0.820225 0.881988
-25.354418 0.133909 -13.977290 0.480671 0.000000 -0.876901 0.793994 0.881988
-25.471292 0.018834 -14.041817 0.480664 0.000000 -0.876905 0.793995 0.855758
-25.563437 0.018834 -14.092324 0.480664 0.000000 -0.876905 0.820224 0.855759
-25.563437 0.133909 -14.092324 0.480664 0.000000 -0.876905 0.820224 0.881988
-25.471292 0.133909 -14.041817 0.480664 0.000000 -0.876905 0.793995 0.881988
-25.588169 0.018834 -14.106344 0.480672 0.000000 -0.876900 0.793995 0.855759
-25.680309 0.018834 -14.156851 0.480672 0.000000 -0.876900 0.820224 0.855759
-25.680309 0.133909 -14.156851 0.480672 0.000000 -0.876900 0.820224 0.881988
-25.588169 0.133909 -14.106344 0.480672 0.000000 -0.876900 0.793995 0.881988
-25.705042 0.018834 -14.170870 0.480665 0.000000 -0.876904 0.793995 0.855759
-25.797184 0.018834 -14.221376 0.480665 0.000000 -0.876904 0.820224 0.855759
-25.797184 0.133909 -14.221376 0.480665 0.000000 -0.876904 0.820224 0.881988
-25.705042 0.133909 -14.170870 0.480665 0.000000 -0.876904 0.793995 0.881988
-25.821918 0.018834 -14.235396 0.480672 0.000000 -0.876900 0.793995 0.855759
-25.914059 0.018834 -14.285903 0.480672 0.000000 -0.876900 0.820224 0.855759
-25.914059 0.133909 -14.285903 0.480672 0.000000 -0.876900 0.820224 0.881988
-25.821918 0.133909 -14.235396 0.480672 0.000000 -0.876900 0.793995 0.881988
-25.938791 0.018834 -14.299922 0.480672 0.000000 -0.876901 0.793995 0.855759
-26.030933 0.018834 -14.350430 0.480672 0.000000 -0.876901 0.820224 0.855759
-26.030933 0.133909 -14.350430 0.480672 0.000000 -0.876901 0.820224 0.881988
-25.938791 0.133909 -14.299922 0.480672 0.000000 -0.876901 0.793995 0.881988
-26.055666 0.018834 -14.364449 0.480665 0.000000 -0.876904 0.793995 0.855758
-26.147808 0.018834 -14.414955 0.480665 0.000000 -0.876904 0.820224 0.855759
-26.147808 0.133909 -14.414955 0.480665 0.000000 -0.876904 0.820224 0.881988
-26.055666 0.133909 -14.364449 0.480665 0.000000 -0.876904 0.793995 0.881988
-26.172539 0.018834 -14.428974 0.480663 0.000000 -0.876905 0.793995 0.855759
-26.264685 0.018834 -14.479483 0.480663 0.000000 -0.876905 0.820225 0.855759
-26.264685 0.133909 -14.479483 0.480663 0.000000 -0.876905 0.820225 0.881988
-26.172539 0.133909 -14.428974 0.480663 0.000000 -0.876905 0.793995 0.881988
-26.289415 0.018834 -14.493501 0.480672 0.000000 -0.876901 0.793995 0.855759
-26.381557 0.018834 -14.544008 0.480672 0.000000 -0.876901 0.820224 0.855759
-26.381557 0.133909 -14.544008 0.480672 0.000000 -0.876901 0.820224 0.881988
-26.289415 0.133909 -14.493501 0.480672 0.000000 -0.876901 0.793995 0.881988
-26.406290 0.018834 -14.558027 0.480672 0.000000 -0.876901 0.793995 0.855759
-26.498432 0.018834 -14.608535 0.480672 0.000000 -0.876901 0.820224 0.855759
-26.498432 0.133909 -14.608535 0.480672 0.000000 -0.876901 0.820224 0.881988
-26.406290 0.133909 -14.558027 0.480672 0.000000 -0.876901 0.793995 0.881988
-26.523163 0.018834 -14.622553 0.480663 0.000000 -0.876905 0.793994 0.855759
-26.615309 0.018834 -14.673061 0.480663 0.000000 -0.876905 0.820224 0.855759
-26.615309 0.133909 -14.673061 0.480663 0.000000 -0.876905 0.820224 0.881988
-26.523163 0.133909 -14.622553 0.480663 0.000000 -0.876905 0.793994 0.881988
-26.640039 0.018834 -14.687080 0.480665 0.000000 -0.876904 0.793995 0.855759
-26.732182 0.018834 -14.737587 0.480665 0.000000 -0.876904 0.820224 0.855759
-26.732182 0.133909 -14.737587 0.480665 0.000000 -0.876904 0.820224 0.881988
-26.640039 0.133909 -14.687080 0.480665 0.000000 -0.876904 0.793995 0.881988
-26.756914 0.018834 -14.751606 0.480672 0.000000 -0.876901 0.793995 0.855759
-26.849056 0.018834 -14.802114 0.480672 0.000000 -0.876901 0.820224 0.855758
-26.849056 0.133909 -14.802114 0.480672 0.000000 -0.876901 0.820224 0.881988
-26.756914 0.133909 -14.751606 0.480672 0.000000 -0.876901 0.793995 0.881988
-26.873789 0.018834 -14.816133 0.480665 0.000000 -0.876904 0.793995 0.855758
-26.965931 0.018834 -14.866639 0.480665 0.000000 -0.876904 0.820224 0.855758
-26.965931 0.133909 -14.866639 0.480665 0.000000 -0.876904 0.820224 0.881988
-26.873789 0.133909 -14.816133 0.480665 0.000000 -0.876904 0.793995 0.881988
-26.990664 0.018834 -14.880659 0.480665 0.000000 -0.876904 0.793995 0.855758
-27.082806 0.018834 -14.931166 0.480665 0.000000 -0.876904 0.820224 0.855759
-27.082806 0.133909 -14.931166 0.480665 0.000000 -0.876904 0.820224 0.881988
-26.990664 0.133909 -14.880659 0.480665 0.000000 -0.876904 0.793995 0.881988
-27.107538 0.018834 -14.945185 0.480665 0.000000 -0.876904 0.793995 0.855759
-27.199680 0.018834 -14.995691 0.480665 0.000000 -0.876904 0.820224 0.855759
-27.199680 0.133909 -14.995691 0.480665 0.000000 -0.876904 0.820224 0.881988
-27.107538 0.133909 -14.945185 0.480665 0.000000 -0.876904 0.793995 0.881988
4 0 1 2 3
4 4 5 6 7
4 8 9 10 11
4 12 13 14 15
4 16 17 18 19
4 20 21 22 23
4 24 25 26 27
4 28 29 30 31
4 32 33 34 35
4 36 37 38 39
4 40 41 42 43
4 44 45 46 47
4 48 49 50 51
4 52 53 54 55
4 56 57 58 59
4 60 61 62 63
4 64 65 66 67
4 68 69 70 71
4 72 73 74 75
4 76 77 78 79
4 80 81 82 83
4 84 85 86 87
4 88 89 90 91
4 92 93 94 95
4 96 97 98 99
4 100 101 102 103
4 104 105 106 107
4 108 109 110 111
4 112 113 114 115
4 116 117 118 119
4 120 121 122 123
4 124 125 126 127
4 128 129 130 131
4 132 133 134 135
4 136 137 138 139
4 140 141 142 143
4 144 145 146 147
4 148 149 150 151
4 152 153 154 155
4 156 157 158 159
4 160 161 162 163
4 164 165 166 167
4 168 169 170 171
4 172 173 174 175
4 176 177 178 179
4 180 181 182 183
4 184 185 186 187
4 188 189 190 191
4 192 193 194 195
4 196 197 198 199
4 200 201 202 203
4 204 205 206 207
4 208 209 210 211
4 212 213 214 215
4 216 217 218 219
4 220 221 222 223
4 224 225 226 227
4 228 229 230 231
4 232 233 234 235
4 236 237 238 239
4 240 241 242 243
4 244 245 246 247
4 248 249 250 251
4 252 253 254 255
4 256 257 258 259
4 260 261 262 263
4 264 265 266 267
4 268 269 270 271
4 272 273 274 275
4 276 277 278 279
4 280 281 282 283
4 284 285 286 287
4 288 289 290 291
4 292 293 294 295
4 296 297 298 299
4 300 301 302 303
4 304 305 306 307
4 308 309 310 311
4 312 313 314 315
4 316 317 318 319
4 320 321 322 323
4 324 325 326 327
4 328 329 330 331
4 332 333 334 335
4 336 337 338 339
4 340 341 342 343
4 344 345 346 347
4 348 349 350 351
4 352 353 354 355
4 356 357 358 359
4 360 361 362 363
4 364 365 366 367
4 368 369 370 371
