ply
format ascii 1.0
comment Created by Blender 2.78 (sub 0) - www.blender.org, source file: 'soult.blend'
element vertex 48
property float x
property float y
property float z
property float nx
property float ny
property float nz
property float s
property float t
element face 12
property list uchar uint vertex_indices
end_header
-13.840221 -0.040665 -4.555811 0.000000 1.000000 -0.000000 0.416476 0.637026
-13.620968 -0.040665 -4.519992 0.000000 1.000000 -0.000000 0.416476 0.620628
-13.574807 -0.040665 -4.769634 0.000000 1.000000 -0.000000 0.469631 0.620628
-13.794600 -0.040665 -4.805723 0.000000 1.000000 -0.000000 0.469631 0.637027
-13.430265 -0.040665 -5.551295 -0.000000 1.000000 0.000000 0.416476 0.637026
-13.651752 -0.040665 -5.588230 -0.000000 1.000000 0.000000 0.416476 0.620628
-13.699768 -0.040665 -5.325205 -0.000000 1.000000 0.000000 0.469631 0.620628
-13.478849 -0.040665 -5.288554 -0.000000 1.000000 0.000000 0.469631 0.637027
-13.840221 -0.319556 -4.555811 -0.000000 -1.000000 0.000000 0.416476 0.637026
-13.794600 -0.319556 -4.805723 -0.000000 -1.000000 0.000000 0.469631 0.637027
-13.574807 -0.319556 -4.769634 -0.000000 -1.000000 0.000000 0.469631 0.620628
-13.620968 -0.319556 -4.519992 -0.000000 -1.000000 0.000000 0.416476 0.620628
-13.430265 -0.319556 -5.551295 0.000000 -1.000000 -0.000000 0.416476 0.637026
-13.478849 -0.319556 -5.288554 0.000000 -1.000000 -0.000000 0.469631 0.637027
-13.699768 -0.319556 -5.325205 0.000000 -1.000000 -0.000000 0.469631 0.620628
-13.651752 -0.319556 -5.588230 0.000000 -1.000000 -0.000000 0.416476 0.620628
-13.620968 -0.040665 -4.519992 0.983331 0.000000 0.181826 0.416476 0.620628
-13.620968 -0.319556 -4.519992 0.983331 0.000000 0.181826 0.416476 0.620628
-13.574807 -0.319556 -4.769634 0.983331 0.000000 0.181826 0.469631 0.620628
-13.574807 -0.040665 -4.769634 0.983331 0.000000 0.181826 0.469631 0.620628
-13.574807 -0.040665 -4.769634 0.162026 0.000000 -0.986786 0.469631 0.620628
-13.574807 -0.319556 -4.769634 0.162026 0.000000 -0.986786 0.469631 0.620628
-13.794600 -0.319556 -4.805723 0.162026 0.000000 -0.986786 0.469631 0.637027
-13.794600 -0.040665 -4.805723 0.162026 0.000000 -0.986786 0.469631 0.637027
-13.840221 -0.040665 -4.555811 -0.161231 0.000000 0.986917 0.416476 0.637026
-13.840221 -0.319556 -4.555811 -0.161231 0.000000 0.986917 0.416476 0.637026
-13.620968 -0.319556 -4.519992 -0.161231 0.000000 0.986917 0.416476 0.620628
-13.620968 -0.040665 -4.519992 -0.161231 0.000000 0.986917 0.416476 0.620628
-13.651752 -0.040665 -5.588230 -0.983743 0.000000 -0.179583 0.416476 0.620628
-13.651752 -0.319556 -5.588230 -0.983743 0.000000 -0.179583 0.416476 0.620628
-13.699768 -0.319556 -5.325205 -0.983743 0.000000 -0.179583 0.469631 0.620628
-13.699768 -0.040665 -5.325205 -0.983743 0.000000 -0.179583 0.469631 0.620628
-13.794600 -0.040665 -4.805723 -0.983743 0.000000 -0.179584 0.469631 0.637027
-13.794600 -0.319556 -4.805723 -0.983743 0.000000 -0.179584 0.469631 0.637027
-13.840221 -0.319556 -4.555811 -0.983743 0.000000 -0.179584 0.416476 0.637026
-13.840221 -0.040665 -4.555811 -0.983743 0.000000 -0.179584 0.416476 0.637026
-13.651752 -0.319556 -5.588230 0.164487 0.000000 -0.986379 0.416476 0.620628
-13.651752 -0.040665 -5.588230 0.164487 0.000000 -0.986379 0.416476 0.620628
-13.430265 -0.040665 -5.551295 0.164487 0.000000 -0.986379 0.416476 0.637026
-13.430265 -0.319556 -5.551295 0.164487 0.000000 -0.986379 0.416476 0.637026
-13.699768 -0.040665 -5.325205 -0.163664 0.000000 0.986516 0.469631 0.620628
-13.699768 -0.319556 -5.325205 -0.163664 0.000000 0.986516 0.469631 0.620628
-13.478849 -0.319556 -5.288554 -0.163664 0.000000 0.986516 0.469631 0.637027
-13.478849 -0.040665 -5.288554 -0.163664 0.000000 0.986516 0.469631 0.637027
-13.478849 -0.040665 -5.288554 0.983330 0.000000 0.181830 0.469631 0.637027
-13.478849 -0.319556 -5.288554 0.983330 0.000000 0.181830 0.469631 0.637027
-13.430265 -0.319556 -5.551295 0.983330 0.000000 0.181830 0.416476 0.637026
-13.430265 -0.040665 -5.551295 0.983330 0.000000 0.181830 0.416476 0.637026
4 0 1 2 3
4 4 5 6 7
4 8 9 10 11
4 12 13 14 15
4 16 17 18 19
4 20 21 22 23
4 24 25 26 27
4 28 29 30 31
4 32 33 34 35
4 36 37 38 39
4 40 41 42 43
4 44 45 46 47
