ply
format ascii 1.0
comment Created by Blender 2.78 (sub 0) - www.blender.org, source file: 'soult.blend'
element vertex 24
property float x
property float y
property float z
property float nx
property float ny
property float nz
property float s
property float t
element face 6
property list uchar uint vertex_indices
end_header
-33.878471 0.000000 -14.206182 0.930092 0.000000 0.367326 0.000000 0.000000
-33.878471 0.326692 -14.206182 0.930092 0.000000 0.367326 0.000000 0.000000
-33.987446 0.326692 -13.930251 0.930092 0.000000 0.367326 0.000000 0.000000
-33.987446 0.000000 -13.930251 0.930092 0.000000 0.367326 0.000000 0.000000
-33.987446 0.000000 -13.930251 -0.367330 0.000000 0.930091 0.000000 0.000000
-33.987446 0.326692 -13.930251 -0.367330 0.000000 0.930091 0.000000 0.000000
-34.442261 0.326692 -14.109876 -0.367330 0.000000 0.930091 0.000000 0.000000
-34.442261 0.000000 -14.109876 -0.367330 0.000000 0.930091 0.000000 0.000000
-34.442261 0.000000 -14.109876 -0.930092 0.000000 -0.367326 0.000000 0.000000
-34.442261 0.326692 -14.109876 -0.930092 0.000000 -0.367326 0.000000 0.000000
-34.333286 0.326692 -14.385806 -0.930092 0.000000 -0.367326 0.000000 0.000000
-34.333286 -0.000000 -14.385806 -0.930092 0.000000 -0.367326 0.000000 0.000000
-33.878471 0.326692 -14.206182 0.367330 0.000000 -0.930091 0.000000 0.000000
-33.878471 0.000000 -14.206182 0.367330 0.000000 -0.930091 0.000000 0.000000
-34.333286 -0.000000 -14.385806 0.367330 0.000000 -0.930091 0.000000 0.000000
-34.333286 0.326692 -14.385806 0.367330 0.000000 -0.930091 0.000000 0.000000
-34.333286 -0.000000 -14.385806 0.000000 -1.000000 0.000000 0.000000 0.000000
-33.878471 0.000000 -14.206182 0.000000 -1.000000 0.000000 0.000000 0.000000
-33.987446 0.000000 -13.930251 0.000000 -1.000000 0.000000 0.000000 0.000000
-34.442261 0.000000 -14.109876 0.000000 -1.000000 0.000000 0.000000 0.000000
-34.442261 0.326692 -14.109876 -0.000000 1.000000 -0.000000 0.000000 0.000000
-33.987446 0.326692 -13.930251 -0.000000 1.000000 -0.000000 0.000000 0.000000
-33.878471 0.326692 -14.206182 -0.000000 1.000000 -0.000000 0.000000 0.000000
-34.333286 0.326692 -14.385806 -0.000000 1.000000 -0.000000 0.000000 0.000000
4 0 1 2 3
4 4 5 6 7
4 8 9 10 11
4 12 13 14 15
4 16 17 18 19
4 20 21 22 23
