ply
format ascii 1.0
comment Created by Blender 2.78 (sub 0) - www.blender.org, source file: 'soult.blend'
element vertex 225
property float x
property float y
property float z
property float nx
property float ny
property float nz
property float s
property float t
element face 72
property list uchar uint vertex_indices
end_header
-13.364079 -0.000000 -9.933280 0.000000 -1.000000 0.000000 0.791188 0.988976
-13.330383 -0.000000 -9.933239 0.000000 -1.000000 0.000000 0.791035 0.988883
-13.284184 -0.000000 -9.901720 0.000000 -1.000000 0.000000 0.790740 0.988899
-13.267250 -0.000000 -9.852661 0.000000 -1.000000 0.000000 0.790528 0.989074
-18.078766 0.025290 -13.861473 -0.000000 1.000000 -0.000000 0.823289 0.984171
-12.909691 0.025290 -10.297127 -0.000000 1.000000 -0.000000 0.790133 0.986083
-12.832359 0.025290 -10.261528 -0.000000 1.000000 -0.000000 0.789686 0.986031
-12.750031 0.025290 -10.239891 0.000000 1.000000 -0.000000 0.789254 0.985903
-12.665192 0.025290 -10.232887 0.000000 1.000000 -0.000000 0.788851 0.985702
-12.580421 0.025290 -10.240723 -0.000000 1.000000 -0.000000 0.788490 0.985433
-12.496605 0.025290 -10.263790 -0.000000 1.000000 -0.000000 0.788174 0.985099
-12.427170 0.025290 -10.298233 0.000000 1.000000 -0.000000 0.787955 0.984752
-12.366318 0.025290 -10.343292 0.000000 1.000000 -0.000000 0.787804 0.984382
-10.596581 0.025290 -12.570717 0.000000 1.000000 -0.000000 0.785923 0.969452
-10.647492 0.025290 -12.588099 0.000000 1.000000 -0.000000 0.786201 0.969514
-12.366318 0.025290 -10.343292 -0.000001 1.000000 -0.000000 0.787804 0.984382
-10.647492 0.025290 -12.588099 -0.000001 1.000000 -0.000000 0.786201 0.969514
-12.400262 0.025290 -10.368281 -0.000001 1.000000 -0.000000 0.788026 0.984362
-17.573133 0.025290 -15.182166 0.000000 1.000000 0.000000 0.824631 0.976812
-17.602934 0.025290 -15.195622 0.000000 1.000000 0.000000 0.824803 0.976833
-18.082138 0.025290 -13.984619 0.000000 1.000000 0.000000 0.823642 0.983623
-17.897194 0.025289 -14.389413 0.000077 1.000000 0.000033 0.823918 0.981286
-17.573133 0.025290 -15.182166 0.000077 1.000000 0.000033 0.824631 0.976812
-18.082138 0.025290 -13.984619 0.000077 1.000000 0.000033 0.823642 0.983623
-12.366318 0.025290 -10.343292 -0.000006 1.000000 0.000007 0.787804 0.984382
-12.400262 0.025290 -10.368281 -0.000006 1.000000 0.000007 0.788026 0.984362
-12.477776 0.025289 -10.302685 -0.000006 1.000000 0.000007 0.788196 0.984871
-12.665192 0.025290 -10.232887 -0.000643 0.999998 -0.001740 0.788851 0.985702
-12.366318 0.025290 -10.343292 -0.000643 0.999998 -0.001740 0.787804 0.984382
-12.477776 0.025289 -10.302685 -0.000643 0.999998 -0.001740 0.788196 0.984871
-18.054712 0.025289 -14.003754 0.000050 1.000000 0.000021 0.823571 0.983461
-17.897194 0.025289 -14.389413 0.000050 1.000000 0.000021 0.823918 0.981286
-18.082138 0.025290 -13.984619 0.000050 1.000000 0.000021 0.823642 0.983623
-18.056524 0.025289 -13.938572 0.000037 1.000000 0.000001 0.823400 0.983761
-18.054712 0.025289 -14.003754 0.000037 1.000000 0.000001 0.823571 0.983461
-18.082138 0.025290 -13.984619 0.000037 1.000000 0.000001 0.823642 0.983623
-12.665192 0.025290 -10.232887 0.000824 0.999997 0.002199 0.788851 0.985702
-12.477776 0.025289 -10.302685 0.000824 0.999997 0.002199 0.788196 0.984871
-12.582067 0.025313 -10.274440 0.000824 0.999997 0.002199 0.788590 0.985285
-12.665192 0.025290 -10.232887 0.000025 1.000000 0.000600 0.788851 0.985702
-12.582067 0.025313 -10.274440 0.000025 1.000000 0.000600 0.788590 0.985285
-12.738504 0.025313 -10.267921 0.000025 1.000000 0.000600 0.789279 0.985745
-18.056524 0.025289 -13.938572 0.000041 1.000000 -0.000001 0.823400 0.983761
-18.082138 0.025290 -13.984619 0.000041 1.000000 -0.000001 0.823642 0.983623
-18.078766 0.025290 -13.861473 0.000041 1.000000 -0.000001 0.823289 0.984171
-12.855830 0.025313 -10.302685 -0.002780 0.999988 0.004032 0.789905 0.985910
-12.981850 0.025313 -10.389595 -0.002780 0.999988 0.004032 0.790713 0.985863
-18.042343 0.025290 -13.873905 -0.002780 0.999988 0.004032 0.823158 0.984015
-18.042343 0.025290 -13.873905 -0.000004 1.000000 -0.000014 0.823158 0.984015
-18.056524 0.025289 -13.938572 -0.000004 1.000000 -0.000014 0.823400 0.983761
-18.078766 0.025290 -13.861473 -0.000004 1.000000 -0.000014 0.823289 0.984171
-12.832359 0.025290 -10.261528 -0.000174 0.999999 0.001017 0.789686 0.986031
-12.665192 0.025290 -10.232887 -0.000174 0.999999 0.001017 0.788851 0.985702
-12.738504 0.025313 -10.267921 -0.000174 0.999999 0.001017 0.789279 0.985745
-12.855830 0.025313 -10.302685 -0.000001 1.000000 -0.000005 0.789905 0.985910
-18.042343 0.025290 -13.873905 -0.000001 1.000000 -0.000005 0.823158 0.984015
-18.078766 0.025290 -13.861473 -0.000001 1.000000 -0.000005 0.823289 0.984171
-12.832359 0.025290 -10.261528 -0.000198 1.000000 0.000668 0.789686 0.986031
-12.738504 0.025313 -10.267921 -0.000198 1.000000 0.000668 0.789279 0.985745
-12.855830 0.025313 -10.302685 -0.000198 1.000000 0.000668 0.789905 0.985910
-18.078766 0.025290 -13.861473 -0.000626 0.999999 0.000912 0.823289 0.984171
-12.832359 0.025290 -10.261528 -0.000626 0.999999 0.000912 0.789686 0.986031
-12.855830 0.025313 -10.302685 -0.000626 0.999999 0.000912 0.789905 0.985910
-13.364079 0.025290 -9.933280 -0.000000 1.000000 -0.000000 0.791188 0.988976
-13.267250 0.025290 -9.852661 -0.000000 1.000000 -0.000000 0.790528 0.989074
-13.284184 0.025290 -9.901720 -0.000000 1.000000 -0.000000 0.790740 0.988899
-13.330383 0.025290 -9.933239 -0.000000 1.000000 -0.000000 0.791035 0.988883
-12.366318 -0.000000 -10.343292 0.782957 0.000000 0.622076 0.787804 0.984382
-10.596581 -0.000001 -12.570717 0.782957 0.000000 0.622076 0.785923 0.969452
-10.596581 0.025290 -12.570717 0.782957 0.000000 0.622076 0.785923 0.969452
-12.366318 0.025290 -10.343292 0.782957 0.000000 0.622076 0.787804 0.984382
-10.596581 0.025290 -12.570717 0.323092 0.000000 -0.946368 0.785923 0.969452
-10.596581 -0.000001 -12.570717 0.323092 0.000000 -0.946368 0.785923 0.969452
-12.224453 -0.000001 -13.126476 0.323092 0.000000 -0.946368 0.794808 0.971412
-12.224453 0.025290 -13.126476 0.323092 0.000000 -0.946368 0.794808 0.971412
-10.647492 0.025290 -12.588099 0.323092 0.000000 -0.946368 0.786201 0.969514
-12.224453 -0.000001 -13.126476 0.323096 -0.000271 -0.946366 0.794808 0.971412
-10.647492 0.025290 -12.588099 0.323096 -0.000271 -0.946366 0.786201 0.969514
-10.596581 0.025290 -12.570717 0.323096 -0.000271 -0.946366 0.785923 0.969452
-13.401539 -0.000000 -10.995333 0.564575 0.000000 -0.825382 0.794274 0.984278
-17.876410 -0.000001 -14.056222 0.564575 0.000000 -0.825382 0.822909 0.982735
-17.876410 0.025290 -14.056222 0.564575 0.000000 -0.825382 0.822909 0.982735
-13.401539 0.025290 -10.995333 0.564575 0.000000 -0.825382 0.794274 0.984278
-18.078766 -0.000001 -13.861473 -0.567675 0.000000 0.823252 0.823289 0.984171
-12.909691 -0.000000 -10.297127 -0.567675 0.000000 0.823252 0.790133 0.986083
-12.909691 0.025290 -10.297127 -0.567675 0.000000 0.823252 0.790133 0.986083
-18.078766 0.025290 -13.861473 -0.567675 0.000000 0.823252 0.823289 0.984171
-13.267250 -0.000000 -9.852661 0.945275 0.000000 -0.326276 0.790528 0.989074
-13.284184 -0.000000 -9.901720 0.945275 0.000000 -0.326276 0.790740 0.988899
-13.284184 0.025290 -9.901720 0.945275 0.000000 -0.326276 0.790740 0.988899
-13.267250 0.025290 -9.852661 0.945275 0.000000 -0.326276 0.790528 0.989074
-12.664314 -0.000000 -10.555476 0.512372 0.000000 -0.858764 0.789734 0.984241
-13.401539 -0.000000 -10.995333 0.512372 0.000000 -0.858764 0.794274 0.984278
-13.401539 0.025290 -10.995333 0.512372 0.000000 -0.858764 0.794274 0.984278
-12.664314 0.025290 -10.555476 0.512372 0.000000 -0.858764 0.789734 0.984241
-12.832359 -0.000000 -10.261528 -0.254180 0.000000 0.967157 0.789686 0.986031
-12.750031 -0.000000 -10.239891 -0.254180 0.000000 0.967157 0.789254 0.985903
-12.750031 0.025290 -10.239891 -0.254180 0.000000 0.967157 0.789254 0.985903
-12.832359 0.025290 -10.261528 -0.254180 0.000000 0.967157 0.789686 0.986031
-13.284184 -0.000000 -9.901720 0.563570 0.000000 -0.826069 0.790740 0.988899
-13.330383 -0.000000 -9.933239 0.563570 0.000000 -0.826069 0.791035 0.988883
-13.330383 0.025290 -9.933239 0.563570 0.000000 -0.826069 0.791035 0.988883
-13.284184 0.025290 -9.901720 0.563570 0.000000 -0.826069 0.790740 0.988899
-12.580421 -0.000000 -10.240723 0.265348 0.000000 0.964153 0.788490 0.985433
-12.496605 -0.000000 -10.263790 0.265348 0.000000 0.964153 0.788174 0.985099
-12.496605 0.025290 -10.263790 0.265348 0.000000 0.964153 0.788174 0.985099
-12.580421 0.025290 -10.240723 0.265348 0.000000 0.964153 0.788490 0.985433
-12.001427 -0.000001 -12.085686 -0.917600 0.000000 -0.397505 0.790941 0.975504
-12.664314 -0.000000 -10.555476 -0.917600 0.000000 -0.397505 0.789734 0.984241
-12.664314 0.025290 -10.555476 -0.917600 0.000000 -0.397505 0.789734 0.984241
-12.001427 0.025290 -12.085686 -0.917600 0.000000 -0.397505 0.790941 0.975504
-12.496605 -0.000000 -10.263790 0.444376 0.000000 0.895840 0.788174 0.985099
-12.427170 -0.000000 -10.298233 0.444376 0.000000 0.895840 0.787955 0.984752
-12.427170 0.025290 -10.298233 0.444376 0.000000 0.895840 0.787955 0.984752
-12.496605 0.025290 -10.263790 0.444376 0.000000 0.895840 0.788174 0.985099
-13.330383 -0.000000 -9.933239 0.001217 0.000000 -0.999999 0.791035 0.988883
-13.364079 -0.000000 -9.933280 0.001217 0.000000 -0.999999 0.791188 0.988976
-13.364079 0.025290 -9.933280 0.001217 0.000000 -0.999999 0.791188 0.988976
-13.330383 0.025290 -9.933239 0.001217 0.000000 -0.999999 0.791035 0.988883
-12.750031 -0.000000 -10.239891 -0.082274 0.000000 0.996610 0.789254 0.985903
-12.665192 -0.000000 -10.232887 -0.082274 0.000000 0.996610 0.788851 0.985702
-12.665192 0.025290 -10.232887 -0.082274 0.000000 0.996610 0.788851 0.985702
-12.750031 0.025290 -10.239891 -0.082274 0.000000 0.996610 0.789254 0.985903
-12.112943 -0.000001 -12.141443 -0.447211 0.000000 0.894429 0.791598 0.975558
-12.001427 -0.000001 -12.085686 -0.447211 0.000000 0.894429 0.790941 0.975504
-12.001427 0.025290 -12.085686 -0.447211 0.000000 0.894429 0.790941 0.975504
-12.112943 0.025290 -12.141443 -0.447211 0.000000 0.894429 0.791598 0.975558
-18.082138 -0.000001 -13.984619 -0.999625 0.000000 0.027373 0.823642 0.983623
-18.078766 -0.000001 -13.861473 -0.999625 0.000000 0.027373 0.823289 0.984171
-18.078766 0.025290 -13.861473 -0.999625 0.000000 0.027373 0.823289 0.984171
-18.082138 0.025290 -13.984619 -0.999625 0.000000 0.027373 0.823642 0.983623
-13.364079 -0.000000 -9.933280 -0.639846 0.000000 0.768503 0.791188 0.988976
-13.267250 -0.000000 -9.852661 -0.639846 0.000000 0.768503 0.790528 0.989074
-13.267250 0.025290 -9.852661 -0.639846 0.000000 0.768503 0.790528 0.989074
-13.364079 0.025290 -9.933280 -0.639846 0.000000 0.768503 0.791188 0.988976
-12.665192 -0.000000 -10.232887 0.092039 0.000000 0.995755 0.788851 0.985702
-12.580421 -0.000000 -10.240723 0.092039 0.000000 0.995755 0.788490 0.985433
-12.580421 0.025290 -10.240723 0.092039 0.000000 0.995755 0.788490 0.985433
-12.665192 0.025290 -10.232887 0.092039 0.000000 0.995755 0.788851 0.985702
-12.162502 -0.000001 -12.054708 0.868257 0.000000 0.496115 0.791584 0.976086
-12.112943 -0.000001 -12.141443 0.868257 0.000000 0.496115 0.791598 0.975558
-12.112943 0.025290 -12.141443 0.868257 0.000000 0.496115 0.791598 0.975558
-12.162502 0.025290 -12.054708 0.868257 0.000000 0.496115 0.791584 0.976086
-12.909691 -0.000000 -10.297127 -0.418160 0.000000 0.908373 0.790133 0.986083
-12.832359 -0.000000 -10.261528 -0.418160 0.000000 0.908373 0.789686 0.986031
-12.832359 0.025290 -10.261528 -0.418160 0.000000 0.908373 0.789686 0.986031
-12.909691 0.025290 -10.297127 -0.418160 0.000000 0.908373 0.790133 0.986083
-17.602934 -0.000001 -15.195622 -0.929846 0.000000 -0.367948 0.824803 0.976833
-18.082138 -0.000001 -13.984619 -0.929846 0.000000 -0.367948 0.823642 0.983623
-18.082138 0.025290 -13.984619 -0.929846 0.000000 -0.367948 0.823642 0.983623
-17.602934 0.025290 -15.195622 -0.929846 0.000000 -0.367948 0.824803 0.976833
-12.633333 -0.000001 -12.271540 -0.418302 0.000000 0.908308 0.794307 0.976399
-12.162502 -0.000001 -12.054708 -0.418302 0.000000 0.908308 0.791584 0.976086
-12.162502 0.025290 -12.054708 -0.418302 0.000000 0.908308 0.791584 0.976086
-12.633333 0.025290 -12.271540 -0.418302 0.000000 0.908308 0.794307 0.976399
-17.400879 0.025290 -15.104387 0.411529 0.000000 -0.911397 0.823639 0.976691
-17.400879 -0.000001 -15.104387 0.411529 0.000000 -0.911397 0.823639 0.976691
-17.602934 -0.000001 -15.195622 0.411529 0.000000 -0.911397 0.824803 0.976833
-17.602934 -0.000001 -15.195622 0.411538 0.000000 -0.911393 0.824803 0.976833
-17.602934 0.025290 -15.195622 0.411538 0.000000 -0.911393 0.824803 0.976833
-17.573133 0.025290 -15.182166 0.411538 0.000000 -0.911393 0.824631 0.976812
-17.602934 -0.000001 -15.195622 0.411527 0.000016 -0.911398 0.824803 0.976833
-17.573133 0.025290 -15.182166 0.411527 0.000016 -0.911398 0.824631 0.976812
-17.400879 0.025290 -15.104387 0.411527 0.000016 -0.911398 0.823639 0.976691
-12.427170 -0.000000 -10.298233 0.595088 0.000000 0.803661 0.787955 0.984752
-12.366318 -0.000000 -10.343292 0.595088 0.000000 0.803661 0.787804 0.984382
-12.366318 0.025290 -10.343292 0.595088 0.000000 0.803661 0.787804 0.984382
-12.427170 0.025290 -10.298233 0.595088 0.000000 0.803661 0.787955 0.984752
-12.224453 -0.000001 -13.126476 -0.902135 0.000000 -0.431453 0.794808 0.971412
-12.633333 -0.000001 -12.271540 -0.902135 0.000000 -0.431453 0.794307 0.976399
-12.633333 0.025290 -12.271540 -0.902135 0.000000 -0.431453 0.794307 0.976399
-12.224453 0.025290 -13.126476 -0.902135 0.000000 -0.431453 0.794808 0.971412
-17.876410 -0.000001 -14.056222 0.910663 0.000000 0.413149 0.822909 0.982735
-17.400879 -0.000001 -15.104387 0.910663 0.000000 0.413149 0.823639 0.976691
-17.400879 0.025290 -15.104387 0.910663 0.000000 0.413149 0.823639 0.976691
-17.876410 0.025290 -14.056222 0.910663 0.000000 0.413149 0.822909 0.982735
-17.400879 0.025290 -15.104387 -0.000000 1.000000 0.000001 0.466847 0.865014
-17.573133 0.025290 -15.182166 -0.000000 1.000000 0.000001 0.467826 0.865218
-17.897194 0.025289 -14.389413 -0.000000 1.000000 0.000001 0.466743 0.869617
-17.897194 0.025289 -14.389413 0.000000 1.000000 -0.000000 0.466743 0.869617
-18.054712 0.025289 -14.003754 0.000000 1.000000 -0.000000 0.466216 0.871756
-18.056524 0.025289 -13.938572 0.000000 1.000000 -0.000000 0.466021 0.872040
-18.056524 0.025289 -13.938572 0.000007 1.000000 -0.000016 0.466021 0.872040
-18.042343 0.025290 -13.873905 0.000007 1.000000 -0.000016 0.465759 0.872273
-12.981850 0.025313 -10.389595 0.000007 1.000000 -0.000016 0.433272 0.871416
-12.981850 0.025313 -10.389595 -0.000000 1.000000 0.000000 0.433272 0.871416
-12.855830 0.025313 -10.302685 -0.000000 1.000000 0.000000 0.432463 0.871395
-12.738504 0.025313 -10.267921 -0.000000 1.000000 0.000000 0.431853 0.871178
-12.738504 0.025313 -10.267921 -0.000042 0.999999 -0.000998 0.431853 0.871178
-12.582067 0.025313 -10.274440 -0.000042 0.999999 -0.000998 0.431204 0.870663
-12.477776 0.025289 -10.302685 -0.000042 0.999999 -0.000998 0.430847 0.870218
-12.477776 0.025289 -10.302685 -0.000037 1.000000 -0.000029 0.430847 0.870218
-12.400262 0.025290 -10.368281 -0.000037 1.000000 -0.000029 0.430719 0.869696
-10.647492 0.025290 -12.588099 -0.000037 1.000000 -0.000029 0.430136 0.854747
-10.647492 0.025290 -12.588099 -0.000000 1.000000 -0.000000 0.430136 0.854747
-12.224453 0.025290 -13.126476 -0.000000 1.000000 -0.000000 0.438555 0.857355
-12.633333 0.025290 -12.271540 -0.000000 1.000000 -0.000000 0.437642 0.862284
-12.162502 0.025290 -12.054708 -0.000000 1.000000 -0.000000 0.434953 0.861745
-12.112943 0.025290 -12.141443 -0.000000 1.000000 -0.000000 0.435011 0.861220
-12.738504 0.025313 -10.267921 0.000102 1.000000 0.000082 0.431853 0.871178
-12.477776 0.025289 -10.302685 0.000102 1.000000 0.000082 0.430847 0.870218
-10.647492 0.025290 -12.588099 0.000102 1.000000 0.000082 0.430136 0.854747
-18.056524 0.025289 -13.938572 0.000012 1.000000 -0.000024 0.466021 0.872040
-12.981850 0.025313 -10.389595 0.000012 1.000000 -0.000024 0.433272 0.871416
-12.738504 0.025313 -10.267921 0.000012 1.000000 -0.000024 0.431853 0.871178
-17.400879 0.025290 -15.104387 -0.000004 1.000000 -0.000001 0.466847 0.865014
-17.897194 0.025289 -14.389413 -0.000004 1.000000 -0.000001 0.466743 0.869617
-18.056524 0.025289 -13.938572 -0.000004 1.000000 -0.000001 0.466021 0.872040
-17.876410 0.025290 -14.056222 -0.000008 1.000000 -0.000004 0.465617 0.870976
-17.400879 0.025290 -15.104387 -0.000008 1.000000 -0.000004 0.466847 0.865014
-18.056524 0.025289 -13.938572 -0.000008 1.000000 -0.000004 0.466021 0.872040
-12.001427 0.025290 -12.085686 0.000000 1.000000 -0.000000 0.434361 0.861111
-12.664314 0.025290 -10.555476 -0.000000 1.000000 -0.000000 0.432431 0.869718
-17.876410 0.025290 -14.056222 -0.000005 1.000000 0.000001 0.465617 0.870976
-18.056524 0.025289 -13.938572 -0.000005 1.000000 0.000001 0.466021 0.872040
-12.738504 0.025313 -10.267921 -0.000005 1.000000 0.000001 0.431853 0.871178
-13.401539 0.025290 -10.995333 0.000057 1.000000 -0.000084 0.436953 0.870132
-17.876410 0.025290 -14.056222 0.000057 1.000000 -0.000084 0.465617 0.870976
-12.738504 0.025313 -10.267921 0.000057 1.000000 -0.000084 0.431853 0.871178
-12.738504 0.025313 -10.267921 -0.000108 1.000000 -0.000107 0.431853 0.871178
-10.647492 0.025290 -12.588099 -0.000108 1.000000 -0.000107 0.430136 0.854747
-12.664314 0.025290 -10.555476 -0.000108 1.000000 -0.000107 0.432431 0.869718
-12.738504 0.025313 -10.267921 0.000041 1.000000 -0.000069 0.431853 0.871178
-12.664314 0.025290 -10.555476 0.000041 1.000000 -0.000069 0.432431 0.869718
-13.401539 0.025290 -10.995333 0.000041 1.000000 -0.000069 0.436953 0.870132
4 0 1 2 3
3 4 5 6
3 6 7 8
3 8 9 10
3 10 11 12
3 12 13 14
3 15 16 17
3 8 10 12
3 18 19 20
3 21 22 23
3 24 25 26
3 27 28 29
3 30 31 32
3 33 34 35
3 36 37 38
3 39 40 41
3 42 43 44
3 45 46 47
3 48 49 50
3 51 52 53
3 54 55 56
3 57 58 59
3 60 61 62
4 63 64 65 66
4 67 68 69 70
3 71 72 73
3 73 74 75
3 76 77 78
4 79 80 81 82
4 83 84 85 86
4 87 88 89 90
4 91 92 93 94
4 95 96 97 98
4 99 100 101 102
4 103 104 105 106
4 107 108 109 110
4 111 112 113 114
4 115 116 117 118
4 119 120 121 122
4 123 124 125 126
4 127 128 129 130
4 131 132 133 134
4 135 136 137 138
4 139 140 141 142
4 143 144 145 146
4 147 148 149 150
4 151 152 153 154
3 155 156 157
3 158 159 160
3 161 162 163
4 164 165 166 167
4 168 169 170 171
4 172 173 174 175
3 176 177 178
3 179 180 181
3 182 183 184
3 185 186 187
3 188 189 190
3 191 192 193
3 194 195 196
3 196 197 198
3 194 196 198
3 199 200 201
3 202 203 204
3 205 206 207
3 208 209 210
3 194 198 211
3 194 211 212
3 213 214 215
3 216 217 218
3 219 220 221
3 222 223 224
