ply
format ascii 1.0
comment Created by Blender 2.78 (sub 0) - www.blender.org, source file: 'soult.blend'
element vertex 25
property float x
property float y
property float z
property float nx
property float ny
property float nz
element face 19
property list uchar uint vertex_indices
end_header
-34.975189 -0.000000 -7.123970 0.000000 1.000000 -0.000000
-34.199219 -0.000000 -6.444180 0.000000 1.000000 -0.000000
-34.457367 -0.000000 -6.791401 0.000000 1.000000 -0.000000
-34.677704 -0.000000 -7.093819 -0.000000 1.000000 -0.000000
-34.685791 -0.000000 -7.104179 -0.000000 1.000000 -0.000000
-34.695526 -0.000000 -7.112991 -0.000000 1.000000 -0.000000
-34.706696 -0.000000 -7.119957 -0.000000 1.000000 -0.000000
-34.716339 -0.000000 -7.124069 -0.000000 1.000000 -0.000000
-34.734833 -0.000000 -7.125427 -0.000000 1.000000 -0.000000
-34.753357 -0.000000 -7.126450 -0.000000 1.000000 -0.000000
-34.757172 -0.000000 -7.126663 -0.000000 1.000000 -0.000000
-34.965271 -0.000000 -7.120590 -0.000000 1.000000 -0.000000
-34.005829 -0.000000 -6.864214 0.000000 1.000000 -0.000000
-33.890427 -0.000000 -6.724171 0.000000 1.000000 -0.000000
-33.836044 -0.000000 -6.678452 0.000000 1.000000 -0.000000
-33.836044 -0.000000 -6.678452 0.006410 0.999973 0.003604
-33.768002 -0.000031 -6.791000 0.006410 0.999973 0.003604
-31.119991 -0.000001 -11.509005 0.006410 0.999973 0.003604
-31.119991 -0.000001 -11.509005 -0.000000 1.000000 -0.000000
-31.119436 -0.000001 -11.924449 -0.000000 1.000000 -0.000000
-31.119781 -0.000001 -11.924583 -0.000000 1.000000 -0.000000
-33.607819 -0.000000 -7.524239 -0.000000 1.000000 -0.000000
-33.902557 -0.000000 -7.343010 -0.000000 1.000000 -0.000000
-34.063732 -0.000000 -7.075988 -0.000000 1.000000 -0.000000
-34.063446 -0.000000 -6.988060 -0.000000 1.000000 -0.000000
3 0 1 2
3 2 3 4
3 4 5 6
3 6 7 8
3 9 10 11
3 6 8 9
3 2 4 6
3 11 0 2
3 6 9 11
3 2 6 11
3 12 13 14
3 15 16 17
3 18 19 20
3 21 22 23
3 18 20 21
3 12 14 18
3 23 24 12
3 12 18 21
3 21 23 12
