ply
format ascii 1.0
comment Created by Blender 2.78 (sub 0) - www.blender.org, source file: 'soult.blend'
element vertex 42
property float x
property float y
property float z
property float nx
property float ny
property float nz
element face 29
property list uchar uint vertex_indices
end_header
-15.220047 -0.000000 -7.145958 0.000082 1.000000 -0.000421
-14.779371 -0.000000 -7.060062 0.000082 1.000000 -0.000421
-14.613736 -0.000000 -7.027779 0.000082 1.000000 -0.000421
-14.613736 -0.000000 -7.027779 0.000000 1.000000 0.000000
-14.302048 -0.000000 -6.971276 0.000000 1.000000 0.000000
-14.228832 -0.000000 -7.429367 0.000000 1.000000 0.000000
-14.176014 -0.000000 -7.846039 -0.000000 1.000000 -0.000000
-14.156026 -0.000000 -8.130208 -0.000000 1.000000 -0.000000
-14.196824 -0.000000 -8.400114 -0.000000 1.000000 0.000000
-14.329722 -0.000000 -8.626567 -0.000000 1.000000 0.000000
-14.329722 -0.000000 -8.626567 -0.000001 1.000000 0.000001
-14.514232 -0.000000 -8.812532 -0.000001 1.000000 0.000001
-14.762411 -0.000000 -8.965427 -0.000001 1.000000 0.000001
-14.762411 -0.000000 -8.965427 0.000000 1.000000 -0.000000
-14.861451 -0.000000 -9.022022 0.000000 1.000000 -0.000000
-14.914371 -0.000000 -9.044675 0.000000 1.000000 -0.000000
-14.914371 -0.000000 -9.044675 -0.000001 1.000000 0.000000
-14.907715 -0.000000 -9.025162 -0.000001 1.000000 0.000000
-14.893870 -0.000000 -9.009868 -0.000001 1.000000 0.000000
-14.893870 -0.000000 -9.009868 -0.000000 1.000000 -0.000000
-14.876221 -0.000000 -8.999199 -0.000000 1.000000 -0.000000
-14.850555 -0.000000 -8.985906 -0.000000 1.000000 -0.000000
-15.363724 -0.000000 -8.424820 0.000000 1.000000 -0.000000
-15.108292 -0.000000 -8.174011 0.000000 1.000000 -0.000000
-15.074020 -0.000000 -8.129738 -0.000000 1.000000 -0.000000
-14.329722 -0.000000 -8.626567 0.000000 1.000000 -0.000001
-14.762411 -0.000000 -8.965427 0.000000 1.000000 -0.000001
-14.914371 -0.000000 -9.044675 0.000000 1.000000 -0.000001
-15.153717 -0.000000 -7.138649 -0.000000 1.000000 0.000000
-15.220047 -0.000000 -7.145958 -0.000000 1.000000 0.000000
-15.088043 -0.000000 -7.145699 0.000000 1.000000 -0.000000
-14.914371 -0.000000 -9.044675 -0.000001 1.000000 0.000001
-14.850555 -0.000000 -8.985906 -0.000001 1.000000 0.000001
-14.869171 -0.000000 -7.859421 0.000000 1.000000 -0.000000
-14.820076 -0.000000 -7.749386 0.000000 1.000000 -0.000000
-14.922584 -0.000000 -7.210086 0.000000 1.000000 -0.000000
-14.831528 -0.000000 -7.335350 0.000000 1.000000 -0.000000
-14.807419 -0.000000 -7.686157 0.000000 1.000000 -0.000000
-14.817917 -0.000000 -7.366112 0.000000 1.000000 -0.000000
-14.800591 -0.000000 -7.430374 0.000000 1.000000 -0.000000
-14.799403 -0.000000 -7.601680 0.000000 1.000000 -0.000000
-14.796402 -0.000000 -7.538101 0.000000 1.000000 -0.000000
3 0 1 2
3 3 4 5
3 5 6 7
3 7 8 9
3 10 11 12
3 13 14 15
3 16 17 18
3 19 20 21
3 21 22 23
3 21 23 24
3 15 19 21
3 25 26 27
3 5 7 9
3 28 29 3
3 30 28 3
3 3 5 9
3 10 31 32
3 21 24 33
3 21 33 34
3 3 9 21
3 35 30 3
3 36 35 3
3 3 21 34
3 3 34 37
3 38 36 3
3 39 38 3
3 3 37 40
3 41 39 3
3 3 40 41
