ply
format ascii 1.0
comment Created by Blender 2.78 (sub 0) - www.blender.org, source file: 'soult.blend'
element vertex 201
property float x
property float y
property float z
property float nx
property float ny
property float nz
element face 126
property list uchar uint vertex_indices
end_header
-27.599747 -0.000001 -19.311295 -0.000003 1.000000 0.000005
-27.731209 -0.000001 -19.384535 -0.000003 1.000000 0.000005
-28.405201 -0.000008 -18.180338 -0.000003 1.000000 0.000005
-28.405201 -0.000008 -18.180338 -0.000000 1.000000 -0.000000
-29.787970 -0.000008 -18.968369 -0.000000 1.000000 -0.000000
-29.854876 -0.000008 -18.901463 -0.000000 1.000000 -0.000000
-33.148247 -0.000001 -20.752592 -0.000022 1.000000 0.000020
-33.341537 0.000007 -21.339899 -0.000022 1.000000 0.000020
-34.034943 -0.000001 -21.706436 -0.000022 1.000000 0.000020
-33.148247 -0.000001 -20.752592 -0.000000 1.000000 -0.000000
-34.034943 -0.000001 -21.706436 -0.000000 1.000000 -0.000000
-34.074829 -0.000001 -21.608017 -0.000000 1.000000 -0.000000
-34.340088 -0.000001 -20.886993 -0.000000 1.000000 -0.000000
-34.342087 -0.000001 -20.794220 -0.000000 1.000000 -0.000000
-34.311676 -0.000001 -20.664368 0.000000 1.000000 -0.000000
-34.285858 -0.000001 -20.603806 0.000000 1.000000 -0.000000
-34.155418 -0.000001 -20.473721 -0.000000 1.000000 -0.000000
-28.842907 -0.000001 -17.479950 -0.000000 1.000000 -0.000000
-28.790649 -0.000001 -17.456848 0.000000 1.000000 -0.000000
-28.518768 -0.000001 -17.374969 0.000000 1.000000 -0.000000
-28.445618 -0.000001 -17.372055 0.000000 1.000000 -0.000000
-28.315796 -0.000001 -17.384613 0.000000 1.000000 -0.000000
-28.276184 -0.000001 -17.393082 -0.000000 1.000000 -0.000000
-27.993179 -0.000001 -17.524918 -0.000000 1.000000 -0.000000
-27.939957 -0.000001 -17.559998 0.000000 1.000000 -0.000000
-27.821960 -0.000001 -17.660583 0.000000 1.000000 -0.000000
-27.723236 -0.000001 -17.780106 0.000000 1.000000 -0.000000
-27.692413 -0.000001 -17.828079 0.000000 1.000000 -0.000000
-27.710175 -0.000001 -17.838043 -0.000000 1.000000 -0.000000
-28.197144 -0.000001 -18.105484 -0.000000 1.000000 -0.000000
-28.175659 -0.000001 -18.143951 -0.000000 1.000000 -0.000000
-27.965027 -0.000001 -18.558716 -0.000000 1.000000 -0.000000
-27.654083 -0.000001 -19.119125 0.000000 1.000000 -0.000000
-27.404144 -0.000001 -18.969193 0.000000 1.000000 -0.000000
-27.388443 -0.000001 -18.979034 0.000000 1.000000 -0.000000
-27.435883 -0.000001 -19.138153 -0.000000 1.000000 -0.000000
-27.463142 -0.000001 -19.191757 0.000000 1.000000 -0.000000
-27.506233 -0.000001 -19.242661 0.000000 1.000000 -0.000000
-29.854876 -0.000008 -18.901463 -0.000000 1.000000 0.000004
-33.148247 -0.000001 -20.752592 -0.000000 1.000000 0.000004
-34.342087 -0.000001 -20.794220 -0.000000 1.000000 0.000004
-28.405201 -0.000008 -18.180338 0.000011 1.000000 -0.000023
-29.854876 -0.000008 -18.901463 0.000011 1.000000 -0.000023
-34.342087 -0.000001 -20.794220 0.000011 1.000000 -0.000023
-28.405201 -0.000008 -18.180338 0.000006 1.000000 -0.000010
-34.342087 -0.000001 -20.794220 0.000006 1.000000 -0.000010
-28.315796 -0.000001 -17.384613 0.000006 1.000000 -0.000010
-28.405201 -0.000008 -18.180338 -0.000035 1.000000 -0.000006
-28.315796 -0.000001 -17.384613 -0.000035 1.000000 -0.000006
-28.197144 -0.000001 -18.105484 -0.000035 1.000000 -0.000006
-27.599747 -0.000001 -19.311295 -0.000000 1.000000 -0.000000
-28.405201 -0.000008 -18.180338 -0.000031 1.000000 -0.000016
-28.197144 -0.000001 -18.105484 -0.000031 1.000000 -0.000016
-27.965027 -0.000001 -18.558716 -0.000031 1.000000 -0.000016
-28.405201 -0.000008 -18.180338 -0.000030 1.000000 -0.000014
-27.965027 -0.000001 -18.558716 -0.000030 1.000000 -0.000014
-27.599747 -0.000001 -19.311295 -0.000030 1.000000 -0.000014
-20.277060 -0.000001 -12.702878 0.000000 1.000000 -0.000000
-20.220957 -0.000001 -12.681839 0.000000 1.000000 -0.000000
-20.122776 -0.000001 -12.695865 0.000000 1.000000 -0.000000
-20.080698 -0.000001 -12.716904 0.000000 1.000000 -0.000000
-20.010569 -0.000001 -12.773006 0.000000 1.000000 -0.000000
-19.091883 -0.000001 -15.388807 0.000000 1.000000 0.000000
-19.077856 -0.000001 -15.465949 0.000000 1.000000 0.000000
-19.098894 -0.000001 -15.571142 0.000000 1.000000 0.000000
-19.147984 -0.000001 -15.648284 0.000000 1.000000 0.000000
-19.211100 -0.000001 -15.697374 0.000000 1.000000 -0.000000
-19.275036 -0.000001 -15.583784 0.000000 1.000000 -0.000000
-19.708698 -0.000001 -14.561571 0.000000 1.000000 -0.000000
-20.232410 -0.000001 -13.003695 0.000000 1.000000 -0.000000
-27.329348 -0.000008 -16.691902 0.000000 1.000000 -0.000000
-26.744246 -0.000008 -17.763163 0.000000 1.000000 -0.000000
-26.804478 -0.000008 -17.788975 0.000000 1.000000 -0.000000
-27.412683 -0.000001 -16.569271 0.000000 1.000000 -0.000000
-27.458385 -0.000001 -16.636375 0.000000 1.000000 -0.000000
-27.435215 -0.000001 -16.601103 0.000000 1.000000 -0.000000
-27.441475 -0.000001 -16.744595 -0.000000 1.000000 -0.000000
-27.459007 -0.000001 -16.691998 -0.000000 1.000000 -0.000000
-26.342152 -0.000008 -18.699539 0.000079 1.000000 0.000040
-26.422815 -0.000001 -18.733406 0.000079 1.000000 0.000040
-27.441475 -0.000001 -16.744595 0.000079 1.000000 0.000040
-26.804478 -0.000008 -17.788975 0.000072 1.000000 0.000036
-26.342152 -0.000008 -18.699539 0.000072 1.000000 0.000036
-27.441475 -0.000001 -16.744595 0.000072 1.000000 0.000036
-20.122776 -0.000001 -12.695865 0.000001 1.000000 0.000000
-19.077856 -0.000001 -15.465949 0.000001 1.000000 0.000000
-20.232410 -0.000001 -13.003695 0.000001 1.000000 0.000000
-27.329348 -0.000008 -16.691902 0.000056 1.000000 0.000027
-26.804478 -0.000008 -17.788975 0.000056 1.000000 0.000027
-27.441475 -0.000001 -16.744595 0.000056 1.000000 0.000027
-20.122776 -0.000001 -12.695865 -0.000002 1.000000 0.000001
-20.232410 -0.000001 -13.003695 -0.000002 1.000000 0.000001
-27.329348 -0.000008 -16.691902 -0.000002 1.000000 0.000001
-20.122776 -0.000001 -12.695865 0.000453 1.000000 -0.000818
-27.329348 -0.000008 -16.691902 0.000453 1.000000 -0.000818
-27.441475 -0.000001 -16.744595 0.000453 1.000000 -0.000818
-26.422745 -0.000001 -18.733543 -0.000000 1.000000 0.000000
-27.599747 -0.000001 -19.311295 -0.000000 1.000000 0.000000
-27.506233 -0.000001 -19.242661 -0.000000 1.000000 0.000000
-27.463142 -0.000001 -19.191757 -0.000000 1.000000 0.000000
-28.445618 -0.000001 -17.372055 -0.000000 1.000000 -0.000000
-27.459007 -0.000001 -16.691998 -0.000000 1.000000 -0.000000
-27.441475 -0.000001 -16.744595 -0.000000 1.000000 -0.000000
-27.435883 -0.000001 -19.138153 -0.000000 1.000000 0.000000
-27.388443 -0.000001 -18.979034 -0.000000 1.000000 -0.000000
-28.315796 -0.000001 -17.384613 -0.000000 1.000000 -0.000000
-28.276184 -0.000001 -17.393082 -0.000000 1.000000 -0.000000
-27.404144 -0.000001 -18.969193 -0.000000 1.000000 -0.000000
-27.654083 -0.000001 -19.119125 -0.000000 1.000000 -0.000000
-27.965027 -0.000001 -18.558716 -0.000000 1.000000 -0.000000
-27.993179 -0.000001 -17.524918 -0.000000 1.000000 -0.000000
-27.939957 -0.000001 -17.559998 -0.000000 1.000000 -0.000000
-28.175659 -0.000001 -18.143951 0.000000 1.000000 -0.000000
-28.197144 -0.000001 -18.105484 -0.000000 1.000000 -0.000000
-27.710175 -0.000001 -17.838043 -0.000000 1.000000 -0.000000
-27.692413 -0.000001 -17.828079 0.000000 1.000000 -0.000000
-27.821960 -0.000001 -17.660583 -0.000000 1.000000 -0.000000
-27.723236 -0.000001 -17.780106 -0.000000 1.000000 -0.000000
-28.830824 -0.000001 -15.989492 0.000153 1.000000 -0.000007
-28.784748 -0.000008 -16.066088 0.000153 1.000000 -0.000007
-28.556629 -0.000046 -16.506971 0.000153 1.000000 -0.000007
-28.556629 -0.000046 -16.506971 -0.000004 1.000000 -0.000002
-18.685928 -0.000000 -11.086223 -0.000004 1.000000 -0.000002
-18.556236 -0.000000 -11.328753 -0.000004 1.000000 -0.000002
-37.431408 -0.000001 -21.817225 0.000000 1.000000 -0.000000
-37.809692 -0.000001 -21.088661 0.000000 1.000000 -0.000000
-32.255043 -0.000001 -18.011948 0.000000 1.000000 -0.000000
-32.255043 -0.000001 -18.011948 0.000040 1.000000 -0.000067
-28.830824 -0.000001 -15.989492 0.000040 1.000000 -0.000067
-28.556629 -0.000046 -16.506971 0.000040 1.000000 -0.000067
-28.556629 -0.000046 -16.506971 -0.000067 1.000000 0.000121
-18.556236 -0.000000 -11.328753 -0.000067 1.000000 0.000121
-37.431408 -0.000001 -21.817225 -0.000067 1.000000 0.000121
-28.556629 -0.000046 -16.506971 0.000028 1.000000 -0.000038
-37.431408 -0.000001 -21.817225 0.000028 1.000000 -0.000038
-32.255043 -0.000001 -18.011948 0.000028 1.000000 -0.000038
-33.944550 -0.000001 -21.892807 -0.000000 1.000000 -0.000000
-33.840954 -0.000001 -22.080238 -0.000000 1.000000 -0.000000
-34.404510 -0.000001 -22.391724 -0.000000 1.000000 -0.000000
-34.568359 -0.000001 -22.167114 0.000000 1.000000 -0.000000
-34.034943 -0.000001 -21.706436 0.000000 1.000000 -0.000000
-34.759552 -0.000001 -21.981857 -0.000000 1.000000 -0.000000
-34.074829 -0.000001 -21.608017 -0.000000 1.000000 -0.000000
-34.989166 -0.000001 -21.825134 -0.000000 1.000000 -0.000000
-34.340088 -0.000001 -20.886993 -0.000000 1.000000 -0.000000
-35.186005 -0.000001 -21.731705 0.000000 1.000000 -0.000000
-34.342087 -0.000001 -20.794220 0.000000 1.000000 -0.000000
-35.375519 -0.000001 -21.663895 0.000000 1.000000 -0.000000
-34.311676 -0.000001 -20.664368 0.000000 1.000000 -0.000000
-36.169281 -0.000001 -21.650223 -0.000000 1.000000 -0.000000
-34.285858 -0.000001 -20.603806 -0.000000 1.000000 -0.000000
-36.560913 -0.000001 -21.820724 0.000000 1.000000 -0.000000
-34.155418 -0.000001 -20.473721 -0.000000 1.000000 -0.000000
-36.786102 -0.000001 -21.925552 0.000000 1.000000 -0.000000
-28.842907 -0.000001 -17.479950 0.000000 1.000000 -0.000000
-36.988251 -0.000001 -22.035599 0.000000 1.000000 -0.000000
-37.244381 -0.000001 -22.177429 0.000000 1.000000 -0.000000
-18.556236 -0.000000 -11.328753 -0.000000 1.000000 -0.000000
-17.952293 -0.000000 -11.069868 -0.000000 1.000000 -0.000000
-17.227160 -0.000000 -10.815798 -0.000000 1.000000 -0.000000
-16.889482 -0.000000 -10.722191 -0.000000 1.000000 -0.000000
-17.303177 -0.000000 -10.950073 0.000000 1.000000 -0.000000
-28.518768 -0.000001 -17.374969 0.000000 1.000000 -0.000000
-27.458385 -0.000001 -16.636375 -0.000000 1.000000 -0.000000
-28.790649 -0.000001 -17.456848 0.000000 1.000000 -0.000000
-27.435215 -0.000001 -16.601103 -0.000000 1.000000 0.000000
-27.412683 -0.000001 -16.569271 -0.000000 1.000000 0.000000
-18.426544 -0.000001 -11.571281 -0.000000 -1.000000 0.000000
-18.578205 -0.000001 -11.655513 -0.000000 -1.000000 0.000000
-18.832993 -0.000001 -11.797020 -0.000000 -1.000000 0.000000
-18.426544 -0.000001 -11.571281 0.000000 1.000000 -0.000000
-20.277060 -0.000001 -12.702878 -0.000001 1.000000 0.000001
-27.412683 -0.000001 -16.569271 -0.000001 1.000000 0.000001
-37.431408 -0.000001 -21.817225 -0.000001 1.000000 0.000001
-18.832993 -0.000001 -11.797020 0.000000 1.000000 -0.000000
-18.869644 -0.000001 -11.826620 0.000001 1.000000 -0.000001
-18.910828 -0.000001 -11.892204 0.000001 1.000000 -0.000001
-19.720655 -0.000000 -12.482489 0.000001 1.000000 -0.000001
-18.869644 -0.000001 -11.826620 0.000000 1.000000 -0.000000
-20.277060 -0.000001 -12.702878 0.000001 1.000000 -0.000001
-37.431408 -0.000001 -21.817225 0.000001 1.000000 -0.000001
-19.720655 -0.000000 -12.482489 -0.000000 1.000000 0.000000
-19.736286 0.000000 -12.520228 -0.000000 1.000000 0.000000
-19.774029 -0.000000 -12.535862 -0.000000 1.000000 0.000000
-20.277060 -0.000001 -12.702878 -0.000003 1.000000 0.000005
-18.869644 -0.000001 -11.826620 -0.000003 1.000000 0.000005
-19.720655 -0.000000 -12.482489 -0.000003 1.000000 0.000005
-20.220957 -0.000001 -12.681839 0.000023 1.000000 -0.000062
-20.277060 -0.000001 -12.702878 0.000023 1.000000 -0.000062
-19.720655 -0.000000 -12.482489 0.000023 1.000000 -0.000062
-19.811771 -0.000000 -12.520230 0.000000 1.000000 -0.000000
-19.811771 -0.000000 -12.520230 -0.000001 1.000000 -0.000002
-20.010569 -0.000001 -12.773006 -0.000001 1.000000 -0.000002
-20.080698 -0.000001 -12.716904 -0.000001 1.000000 -0.000002
-20.122776 -0.000001 -12.695865 -0.000001 1.000000 -0.000002
-20.220957 -0.000001 -12.681839 -0.000038 1.000000 0.000092
-19.720655 -0.000000 -12.482489 -0.000038 1.000000 0.000092
-19.811771 -0.000000 -12.520230 -0.000038 1.000000 0.000092
-19.811771 -0.000000 -12.520230 -0.000000 1.000000 -0.000003
-20.122776 -0.000001 -12.695865 -0.000000 1.000000 -0.000003
-20.220957 -0.000001 -12.681839 -0.000000 1.000000 -0.000003
3 0 1 2
3 3 4 5
3 6 7 8
3 9 10 11
3 11 12 13
3 13 14 15
3 15 16 17
3 17 18 19
3 19 20 21
3 21 22 23
3 23 24 25
3 25 26 27
3 27 28 29
3 29 30 31
3 32 33 34
3 32 34 35
3 35 36 37
3 9 11 13
3 13 15 17
3 17 19 21
3 21 23 25
3 25 27 29
3 21 25 29
3 13 17 21
3 38 39 40
3 41 42 43
3 32 35 37
3 44 45 46
3 47 48 49
3 32 37 50
3 51 52 53
3 31 32 50
3 54 55 56
3 57 58 59
3 59 60 61
3 61 62 63
3 63 64 65
3 65 66 67
3 67 68 69
3 70 71 72
3 65 67 69
3 63 65 69
3 59 61 63
3 73 57 59
3 74 75 73
3 76 77 74
3 78 79 80
3 81 82 83
3 76 74 73
3 84 85 86
3 87 88 89
3 90 91 92
3 76 73 59
3 93 94 95
3 96 97 98
3 96 98 99
3 100 101 102
3 96 99 103
3 96 103 104
3 105 100 102
3 106 105 102
3 102 96 104
3 107 108 109
3 102 104 107
3 110 106 102
3 111 110 102
3 107 109 112
3 112 113 114
3 112 114 115
3 116 111 102
3 117 116 102
3 107 112 115
3 115 117 102
3 107 115 102
3 118 119 120
3 121 122 123
3 124 125 126
3 127 128 129
3 130 131 132
3 133 134 135
3 136 137 138
3 136 138 139
3 140 136 139
3 140 139 141
3 142 140 141
3 142 141 143
3 144 142 143
3 144 143 145
3 146 144 145
3 146 145 147
3 148 146 147
3 148 147 149
3 150 148 149
3 150 149 151
3 152 150 151
3 152 151 153
3 154 152 153
3 155 156 124
3 154 153 155
3 154 155 124
3 124 157 158
3 158 159 160
3 158 160 161
3 101 100 162
3 163 101 162
3 163 162 164
3 165 163 164
3 165 164 154
3 166 165 154
3 124 158 161
3 167 168 169
3 124 161 170
3 166 154 124
3 171 172 173
3 124 170 174
3 175 176 177
3 124 174 178
3 179 180 175
3 181 182 183
3 184 185 186
3 187 188 189
3 181 183 190
3 191 192 193
3 191 193 194
3 195 196 197
3 198 199 200
