ply
format ascii 1.0
comment Created by Blender 2.78 (sub 0) - www.blender.org, source file: 'soult.blend'
element vertex 229
property float x
property float y
property float z
property float nx
property float ny
property float nz
element face 69
property list uchar uint vertex_indices
end_header
-28.830832 -0.000005 -15.989470 -0.000438 1.000000 -0.000313
-28.784748 -0.000008 -16.066088 -0.000438 1.000000 -0.000313
-28.556629 -0.000046 -16.506971 -0.000438 1.000000 -0.000313
-28.556629 -0.000046 -16.506971 -0.000065 1.000000 0.000110
-27.695822 -0.000042 -16.034237 -0.000065 1.000000 0.000110
-27.532080 -0.000001 -16.316410 -0.000065 1.000000 0.000110
-28.915041 -0.000001 -17.084887 0.000003 1.000000 0.000003
-29.346951 -0.000002 -16.292229 0.000003 1.000000 0.000003
-28.830832 -0.000005 -15.989470 0.000003 1.000000 0.000003
-28.556629 -0.000046 -16.506971 -0.000067 1.000000 0.000121
-27.532080 -0.000001 -16.316410 -0.000067 1.000000 0.000121
-28.915041 -0.000001 -17.084887 -0.000067 1.000000 0.000121
-28.556629 -0.000046 -16.506971 0.000139 1.000000 -0.000007
-28.915041 -0.000001 -17.084887 0.000139 1.000000 -0.000007
-28.830832 -0.000005 -15.989470 0.000139 1.000000 -0.000007
-27.156614 -0.039990 -16.107773 -0.000042 1.000000 0.000071
-27.318932 -0.040030 -15.827259 -0.000042 1.000000 0.000071
-20.919268 -0.040000 -12.312718 -0.000042 1.000000 0.000071
-20.781015 -0.039990 -12.565008 -0.000042 1.000000 0.000071
-29.232937 -0.040000 -17.261532 0.000076 1.000000 -0.000137
-31.539404 -0.040000 -18.543182 0.000076 1.000000 -0.000137
-37.431408 -0.040000 -21.817225 0.000076 1.000000 -0.000137
-37.431408 -0.040000 -21.817225 0.000000 1.000000 -0.000000
-37.809692 -0.040000 -21.088661 0.000000 1.000000 -0.000000
-32.303009 -0.040000 -18.038515 0.000000 1.000000 -0.000000
-29.667751 -0.040000 -16.480415 0.000000 1.000000 -0.000000
-29.232937 -0.040000 -17.261532 0.000000 1.000000 -0.000000
-29.667751 -0.000001 -16.480415 0.505982 0.000000 -0.862544
-29.346951 -0.000002 -16.292229 0.505982 0.000000 -0.862544
-29.667751 -0.040000 -16.480415 0.505982 0.000000 -0.862544
-33.320030 -0.040000 -20.002953 0.000379 1.000000 -0.000672
-34.155418 -0.040000 -20.473721 0.000379 1.000000 -0.000672
-34.283764 -0.039997 -20.540373 0.000379 1.000000 -0.000672
-32.964130 -0.039960 -19.780502 0.000968 0.999998 -0.001729
-33.320030 -0.040000 -20.002953 0.000968 0.999998 -0.001729
-34.283764 -0.039997 -20.540373 0.000968 0.999998 -0.001729
-32.277443 -0.040000 -19.197090 0.000915 0.999999 -0.001009
-32.602688 -0.040010 -19.501684 0.000915 0.999999 -0.001009
-32.964130 -0.039960 -19.780502 0.000915 0.999999 -0.001009
-31.827509 -0.040000 -18.755087 0.000000 1.000000 -0.000000
-32.045124 -0.040000 -18.975092 0.000000 1.000000 -0.000000
-32.277443 -0.040000 -19.197090 0.000000 1.000000 -0.000000
-31.539404 -0.040000 -18.543182 -0.000000 1.000000 -0.000000
-35.807289 -0.040019 -21.349115 0.000010 1.000000 0.000005
-37.244381 -0.040000 -22.177429 0.000010 1.000000 0.000005
-37.431408 -0.040000 -21.817225 0.000010 1.000000 0.000005
-35.616268 -0.039998 -21.287161 0.000982 0.999994 -0.003367
-35.807289 -0.040019 -21.349115 0.000982 0.999994 -0.003367
-37.431408 -0.040000 -21.817225 0.000982 0.999994 -0.003367
-32.277443 -0.040000 -19.197090 -0.000208 1.000000 0.000313
-32.964130 -0.039960 -19.780502 -0.000208 1.000000 0.000313
-34.283764 -0.039997 -20.540373 -0.000208 1.000000 0.000313
-37.431408 -0.040000 -21.817225 -0.000006 1.000000 0.000012
-32.277443 -0.040000 -19.197090 -0.000006 1.000000 0.000012
-34.283764 -0.039997 -20.540373 -0.000006 1.000000 0.000012
-35.616268 -0.039998 -21.287161 -0.000001 1.000000 -0.000001
-37.431408 -0.040000 -21.817225 -0.000001 1.000000 -0.000001
-34.283764 -0.039997 -20.540373 -0.000001 1.000000 -0.000001
-35.616268 -0.039998 -21.287161 0.000058 1.000000 -0.000107
-34.283764 -0.039997 -20.540373 0.000058 1.000000 -0.000107
-34.391323 -0.040000 -20.635021 0.000058 1.000000 -0.000107
-35.440735 -0.039998 -21.266512 -0.000000 1.000000 0.000004
-35.616268 -0.039998 -21.287161 -0.000000 1.000000 0.000004
-34.391323 -0.040000 -20.635021 -0.000000 1.000000 0.000004
-35.440735 -0.039998 -21.266512 0.000003 1.000000 -0.000001
-34.391323 -0.040000 -20.635021 0.000003 1.000000 -0.000001
-34.442947 -0.040000 -20.742580 0.000003 1.000000 -0.000001
-35.285854 -0.039998 -21.281996 0.000000 1.000000 0.000003
-35.440735 -0.039998 -21.266512 0.000000 1.000000 0.000003
-34.442947 -0.040000 -20.742580 0.000000 1.000000 0.000003
-35.285854 -0.039998 -21.281996 0.000013 1.000000 -0.000017
-34.442947 -0.040000 -20.742580 0.000013 1.000000 -0.000017
-34.460152 -0.040002 -20.867344 0.000013 1.000000 -0.000017
-35.161957 -0.039998 -21.312977 0.000002 1.000000 0.000006
-35.285854 -0.039998 -21.281996 0.000002 1.000000 0.000006
-34.460152 -0.040002 -20.867344 0.000002 1.000000 0.000006
-34.361210 -0.040000 -21.116875 0.000001 1.000000 0.000000
-34.270859 -0.040000 -21.284657 0.000001 1.000000 0.000000
-33.944550 -0.040000 -21.892807 0.000001 1.000000 0.000000
-35.161957 -0.039998 -21.312977 0.000000 1.000000 0.000008
-34.460152 -0.040002 -20.867344 0.000000 1.000000 0.000008
-34.361210 -0.040000 -21.116875 0.000000 1.000000 0.000008
-35.016033 -0.040002 -21.419676 0.000008 1.000000 -0.000024
-35.161957 -0.039998 -21.312977 0.000008 1.000000 -0.000024
-34.361210 -0.040000 -21.116875 0.000008 1.000000 -0.000024
-33.944550 -0.040000 -21.892807 -0.000000 1.000000 -0.000000
-33.840954 -0.040000 -22.080238 -0.000000 1.000000 -0.000000
-34.404510 -0.040000 -22.391724 -0.000000 1.000000 -0.000000
-35.016033 -0.040002 -21.419676 -0.000002 1.000000 -0.000001
-34.361210 -0.040000 -21.116875 -0.000002 1.000000 -0.000001
-33.944550 -0.040000 -21.892807 -0.000002 1.000000 -0.000001
-34.926826 -0.040000 -21.526731 -0.000000 1.000000 -0.000000
-33.944550 -0.040000 -21.892807 0.000010 1.000000 0.000026
-34.926826 -0.040000 -21.526731 0.000010 1.000000 0.000026
-35.016033 -0.040002 -21.419676 0.000010 1.000000 0.000026
-29.232937 -0.000001 -17.261532 -0.485724 0.000000 0.874112
-31.539404 -0.000001 -18.543182 -0.485724 0.000000 0.874112
-31.539404 -0.040000 -18.543182 -0.485724 0.000000 0.874112
-29.232937 -0.040000 -17.261532 -0.485724 0.000000 0.874112
-37.809692 -0.000001 -21.088661 0.484535 0.000000 -0.874772
-32.303009 -0.000001 -18.038515 0.484535 0.000000 -0.874772
-32.303009 -0.040000 -18.038515 0.484535 0.000000 -0.874772
-37.809692 -0.040000 -21.088661 0.484535 0.000000 -0.874772
-35.161957 0.000001 -21.312977 0.242585 0.000000 0.970130
-35.285854 0.000001 -21.281996 0.242585 0.000000 0.970130
-35.285854 -0.039998 -21.281996 0.242585 0.000000 0.970130
-35.161957 -0.039998 -21.312977 0.242585 0.000000 0.970130
-33.320030 -0.000001 -20.002953 -0.490944 0.000000 0.871191
-34.155418 -0.000001 -20.473721 -0.490944 0.000000 0.871191
-34.155418 -0.040000 -20.473721 -0.490944 0.000000 0.871191
-33.320030 -0.040000 -20.002953 -0.490944 0.000000 0.871191
-31.539404 -0.000001 -18.543182 -0.592504 0.000000 0.805567
-31.827509 -0.000001 -18.755087 -0.592504 0.000000 0.805567
-31.827509 -0.040000 -18.755087 -0.592504 0.000000 0.805567
-31.539404 -0.040000 -18.543182 -0.592504 0.000000 0.805567
-35.440735 0.000001 -21.266512 -0.116830 0.000000 0.993152
-35.616268 0.000001 -21.287161 -0.116830 0.000000 0.993152
-35.616268 -0.039998 -21.287161 -0.116830 0.000000 0.993152
-35.440735 -0.039998 -21.266512 -0.116830 0.000000 0.993152
-31.827509 -0.000001 -18.755087 -0.710958 0.000000 0.703235
-32.045124 -0.000001 -18.975092 -0.710958 0.000000 0.703235
-32.045124 -0.040000 -18.975092 -0.710958 0.000000 0.703235
-31.827509 -0.040000 -18.755087 -0.710958 0.000000 0.703235
-35.807289 -0.000020 -21.349115 -0.499371 0.000000 0.866388
-37.244381 -0.000001 -22.177429 -0.499371 0.000000 0.866388
-37.244381 -0.040000 -22.177429 -0.499371 0.000000 0.866388
-35.807289 -0.040019 -21.349115 -0.499371 0.000000 0.866388
-34.270859 -0.000001 -21.284657 -0.881170 0.000000 -0.472800
-33.944550 -0.000001 -21.892807 -0.881170 0.000000 -0.472800
-33.944550 -0.040000 -21.892807 -0.881170 0.000000 -0.472800
-34.270859 -0.040000 -21.284657 -0.881170 0.000000 -0.472800
-32.045124 -0.000001 -18.975092 -0.690865 0.000000 0.722984
-32.277443 -0.000001 -19.197090 -0.690865 0.000000 0.722984
-32.277443 -0.040000 -19.197090 -0.690865 0.000000 0.722984
-32.045124 -0.040000 -18.975092 -0.690865 0.000000 0.722984
-29.346951 -0.000002 -16.292229 -0.094720 0.994136 -0.052164
-28.915041 -0.000001 -17.084887 -0.094720 0.994136 -0.052164
-29.232937 -0.040000 -17.261532 -0.094720 0.994136 -0.052164
-29.667751 -0.040000 -16.480415 -0.094720 0.994136 -0.052164
-35.285854 0.000001 -21.281996 0.099477 0.000000 0.995040
-35.440735 0.000001 -21.266512 0.099477 0.000000 0.995040
-35.440735 -0.039998 -21.266512 0.099477 0.000000 0.995040
-35.285854 -0.039998 -21.281996 0.099477 0.000000 0.995040
-34.361210 -0.000001 -21.116875 -0.880456 0.000000 -0.474128
-34.270859 -0.000001 -21.284657 -0.880456 0.000000 -0.474128
-34.270859 -0.040000 -21.284657 -0.880456 0.000000 -0.474128
-34.361210 -0.040000 -21.116875 -0.880456 0.000000 -0.474128
-32.277443 -0.000001 -19.197090 -0.683555 0.000000 0.729899
-32.602688 -0.000010 -19.501684 -0.683555 0.000000 0.729899
-32.602688 -0.040010 -19.501684 -0.683555 0.000000 0.729899
-32.277443 -0.040000 -19.197090 -0.683555 0.000000 0.729899
-33.944550 -0.000001 -21.892807 -0.875211 0.000000 -0.483741
-33.840954 -0.000001 -22.080238 -0.875211 0.000000 -0.483741
-33.840954 -0.040000 -22.080238 -0.875211 0.000000 -0.483741
-33.944550 -0.040000 -21.892807 -0.875211 0.000000 -0.483741
-34.460152 -0.000003 -20.867344 -0.929591 0.000000 -0.368593
-34.361210 -0.000001 -21.116875 -0.929591 0.000000 -0.368593
-34.361210 -0.040000 -21.116875 -0.929591 0.000000 -0.368593
-34.460152 -0.040002 -20.867344 -0.929591 0.000000 -0.368593
-32.602688 -0.000010 -19.501684 -0.610791 0.000000 0.791792
-32.964130 0.000039 -19.780502 -0.610791 0.000000 0.791792
-32.964130 -0.039960 -19.780502 -0.610791 0.000000 0.791792
-32.602688 -0.040010 -19.501684 -0.610791 0.000000 0.791792
-35.616268 0.000001 -21.287161 -0.308513 0.000000 0.951220
-35.807289 -0.000020 -21.349115 -0.308513 0.000000 0.951220
-35.807289 -0.040019 -21.349115 -0.308513 0.000000 0.951220
-35.616268 -0.039998 -21.287161 -0.308513 0.000000 0.951220
-34.442947 -0.000001 -20.742580 -0.990626 0.000000 0.136603
-34.460152 -0.000003 -20.867344 -0.990626 0.000000 0.136603
-34.460152 -0.040002 -20.867344 -0.990626 0.000000 0.136603
-34.442947 -0.040000 -20.742580 -0.990626 0.000000 0.136603
-32.964130 0.000039 -19.780502 -0.530021 0.000000 0.847984
-33.320030 -0.000001 -20.002953 -0.530021 0.000000 0.847984
-33.320030 -0.040000 -20.002953 -0.530021 0.000000 0.847984
-32.964130 -0.039960 -19.780502 -0.530021 0.000000 0.847984
-34.926826 -0.000001 -21.526731 0.768244 0.000000 0.640158
-35.016033 -0.000003 -21.419676 0.768244 0.000000 0.640158
-35.016033 -0.040002 -21.419676 0.768244 0.000000 0.640158
-34.926826 -0.040000 -21.526731 0.768244 0.000000 0.640158
-34.391323 -0.000001 -20.635021 -0.901537 0.000000 0.432703
-34.442947 -0.000001 -20.742580 -0.901537 0.000000 0.432703
-34.442947 -0.040000 -20.742580 -0.901537 0.000000 0.432703
-34.391323 -0.040000 -20.635021 -0.901537 0.000000 0.432703
-32.303009 -0.000001 -18.038515 0.508948 0.000000 -0.860798
-29.667751 -0.000001 -16.480415 0.508948 0.000000 -0.860798
-29.667751 -0.040000 -16.480415 0.508948 0.000000 -0.860798
-32.303009 -0.040000 -18.038515 0.508948 0.000000 -0.860798
-34.404510 -0.000001 -22.391724 0.856040 0.000000 0.516910
-34.926826 -0.000001 -21.526731 0.856040 0.000000 0.516910
-34.926826 -0.040000 -21.526731 0.856040 0.000000 0.516910
-34.404510 -0.040000 -22.391724 0.856040 0.000000 0.516910
-34.283764 0.000003 -20.540373 -0.660613 0.000000 0.750727
-34.391323 -0.000001 -20.635021 -0.660613 0.000000 0.750727
-34.391323 -0.040000 -20.635021 -0.660613 0.000000 0.750727
-34.283764 -0.039997 -20.540373 -0.660613 0.000000 0.750727
-35.016033 -0.000003 -21.419676 0.590242 0.000000 0.807226
-35.161957 0.000001 -21.312977 0.590242 0.000000 0.807226
-35.161957 -0.039998 -21.312977 0.590242 0.000000 0.807226
-35.016033 -0.040002 -21.419676 0.590242 0.000000 0.807226
-34.155418 -0.000001 -20.473721 -0.460877 0.000000 0.887464
-34.283764 0.000003 -20.540373 -0.460877 0.000000 0.887464
-34.283764 -0.039997 -20.540373 -0.460877 0.000000 0.887464
-34.155418 -0.040000 -20.473721 -0.460877 0.000000 0.887464
-28.915041 -0.000001 -17.084887 -0.485720 0.000000 0.874115
-29.232937 -0.000001 -17.261532 -0.485720 0.000000 0.874115
-29.232937 -0.040000 -17.261532 -0.485720 0.000000 0.874115
-27.532080 -0.000001 -16.316410 0.080118 0.995697 0.046570
-27.695822 -0.000042 -16.034237 0.080118 0.995697 0.046570
-27.318932 -0.040030 -15.827259 0.080118 0.995697 0.046570
-27.156614 -0.039990 -16.107773 0.080118 0.995697 0.046570
-20.458090 0.000003 -12.385566 -0.000011 1.000000 0.000015
-20.599060 -0.000006 -12.136868 -0.000011 1.000000 0.000015
-19.048115 0.000001 -11.285127 -0.000011 1.000000 0.000015
-18.914219 0.000003 -11.527675 -0.000011 1.000000 0.000015
-18.914219 0.000003 -11.527675 0.085039 0.995305 0.046213
-19.048115 0.000001 -11.285127 0.085039 0.995305 0.046213
-18.685928 -0.040000 -11.086223 0.085039 0.995305 0.046213
-18.556236 -0.040000 -11.328753 0.085039 0.995305 0.046213
-20.781015 -0.039990 -12.565008 -0.094548 0.994127 -0.052658
-20.919268 -0.040000 -12.312718 -0.094548 0.994127 -0.052658
-20.599060 -0.000006 -12.136868 -0.094548 0.994127 -0.052658
-20.458090 0.000003 -12.385566 -0.094548 0.994127 -0.052658
-18.914219 0.000003 -11.527675 -0.485723 0.000000 0.874113
-18.556236 -0.040000 -11.328753 -0.485723 0.000000 0.874113
-18.556236 0.000000 -11.328753 -0.485723 0.000000 0.874113
-27.156614 -0.039990 -16.107773 -0.485723 -0.000003 0.874113
-20.781015 -0.039990 -12.565008 -0.485723 -0.000003 0.874113
-20.458090 0.000003 -12.385566 -0.485723 -0.000003 0.874113
-27.532080 -0.000001 -16.316410 -0.485723 -0.000003 0.874113
3 0 1 2
3 3 4 5
3 6 7 8
3 9 10 11
3 12 13 14
4 15 16 17 18
3 19 20 21
3 22 23 24
3 24 25 26
3 22 24 26
3 27 28 29
3 30 31 32
3 33 34 35
3 36 37 38
3 39 40 41
3 22 42 39
3 43 44 45
3 46 47 48
3 22 39 41
3 49 50 51
3 52 53 54
3 55 56 57
3 58 59 60
3 61 62 63
3 64 65 66
3 67 68 69
3 70 71 72
3 73 74 75
3 76 77 78
3 79 80 81
3 82 83 84
3 85 86 87
3 88 89 90
3 85 87 91
3 92 93 94
4 95 96 97 98
4 99 100 101 102
4 103 104 105 106
4 107 108 109 110
4 111 112 113 114
4 115 116 117 118
4 119 120 121 122
4 123 124 125 126
4 127 128 129 130
4 131 132 133 134
4 135 136 137 138
4 139 140 141 142
4 143 144 145 146
4 147 148 149 150
4 151 152 153 154
4 155 156 157 158
4 159 160 161 162
4 163 164 165 166
4 167 168 169 170
4 171 172 173 174
4 175 176 177 178
4 179 180 181 182
4 183 184 185 186
4 187 188 189 190
4 191 192 193 194
4 195 196 197 198
4 199 200 201 202
3 203 204 205
4 206 207 208 209
4 210 211 212 213
4 214 215 216 217
4 218 219 220 221
3 222 223 224
4 225 226 227 228
