ply
format ascii 1.0
comment Created by Blender 2.78 (sub 0) - www.blender.org, source file: 'soult.blend'
element vertex 85
property float x
property float y
property float z
property float nx
property float ny
property float nz
element face 31
property list uchar uint vertex_indices
end_header
-28.830832 -0.000005 -15.989470 -0.000438 1.000000 -0.000313
-28.784748 -0.000008 -16.066088 -0.000438 1.000000 -0.000313
-28.556629 -0.000046 -16.506971 -0.000438 1.000000 -0.000313
-28.556629 -0.000046 -16.506971 -0.000004 1.000000 -0.000002
-18.685928 -0.000000 -11.086223 -0.000004 1.000000 -0.000002
-18.556236 -0.000000 -11.328753 -0.000004 1.000000 -0.000002
-37.431408 -0.000001 -21.817225 0.000000 1.000000 -0.000000
-37.809692 -0.000001 -21.088661 0.000000 1.000000 -0.000000
-32.303009 -0.000001 -18.038515 0.000000 1.000000 -0.000000
-32.303009 -0.000001 -18.038515 0.000584 0.999999 -0.000987
-29.667751 -0.000001 -16.480415 0.000584 0.999999 -0.000987
-28.830832 -0.000005 -15.989470 0.000584 0.999999 -0.000987
-28.556629 -0.000046 -16.506971 -0.000067 1.000000 0.000121
-18.556236 -0.000000 -11.328753 -0.000067 1.000000 0.000121
-37.431408 -0.000001 -21.817225 -0.000067 1.000000 0.000121
-32.303009 -0.000001 -18.038515 0.000037 1.000000 -0.000061
-28.830832 -0.000005 -15.989470 0.000037 1.000000 -0.000061
-28.556629 -0.000046 -16.506971 0.000037 1.000000 -0.000061
-28.556629 -0.000046 -16.506971 0.000027 1.000000 -0.000037
-37.431408 -0.000001 -21.817225 0.000027 1.000000 -0.000037
-32.303009 -0.000001 -18.038515 0.000027 1.000000 -0.000037
-33.320030 -0.000001 -20.002953 0.000379 1.000000 -0.000672
-34.155418 -0.000001 -20.473721 0.000379 1.000000 -0.000672
-34.283764 0.000003 -20.540373 0.000379 1.000000 -0.000672
-32.964130 0.000039 -19.780502 0.000968 0.999998 -0.001729
-33.320030 -0.000001 -20.002953 0.000968 0.999998 -0.001729
-34.283764 0.000003 -20.540373 0.000968 0.999998 -0.001729
-32.277443 -0.000001 -19.197090 0.000915 0.999999 -0.001009
-32.602688 -0.000010 -19.501684 0.000915 0.999999 -0.001009
-32.964130 0.000039 -19.780502 0.000915 0.999999 -0.001009
-31.827509 -0.000001 -18.755087 0.000000 1.000000 -0.000000
-32.045124 -0.000001 -18.975092 0.000000 1.000000 -0.000000
-32.277443 -0.000001 -19.197090 0.000000 1.000000 -0.000000
-31.539404 -0.000001 -18.543182 0.000000 1.000000 -0.000000
-35.807289 -0.000020 -21.349115 0.000010 1.000000 0.000005
-37.244381 -0.000001 -22.177429 0.000010 1.000000 0.000005
-37.431408 -0.000001 -21.817225 0.000010 1.000000 0.000005
-35.616268 0.000001 -21.287161 0.000982 0.999994 -0.003367
-35.807289 -0.000020 -21.349115 0.000982 0.999994 -0.003367
-37.431408 -0.000001 -21.817225 0.000982 0.999994 -0.003367
-32.277443 -0.000001 -19.197090 -0.000208 1.000000 0.000313
-32.964130 0.000039 -19.780502 -0.000208 1.000000 0.000313
-34.283764 0.000003 -20.540373 -0.000208 1.000000 0.000313
-37.431408 -0.000001 -21.817225 -0.000006 1.000000 0.000012
-32.277443 -0.000001 -19.197090 -0.000006 1.000000 0.000012
-34.283764 0.000003 -20.540373 -0.000006 1.000000 0.000012
-35.616268 0.000001 -21.287161 -0.000001 1.000000 -0.000001
-37.431408 -0.000001 -21.817225 -0.000001 1.000000 -0.000001
-34.283764 0.000003 -20.540373 -0.000001 1.000000 -0.000001
-35.616268 0.000001 -21.287161 0.000058 1.000000 -0.000107
-34.283764 0.000003 -20.540373 0.000058 1.000000 -0.000107
-34.391323 -0.000001 -20.635021 0.000058 1.000000 -0.000107
-35.440735 0.000001 -21.266512 -0.000000 1.000000 0.000004
-35.616268 0.000001 -21.287161 -0.000000 1.000000 0.000004
-34.391323 -0.000001 -20.635021 -0.000000 1.000000 0.000004
-35.440735 0.000001 -21.266512 0.000003 1.000000 -0.000001
-34.391323 -0.000001 -20.635021 0.000003 1.000000 -0.000001
-34.442947 -0.000001 -20.742580 0.000003 1.000000 -0.000001
-35.285854 0.000001 -21.281996 0.000000 1.000000 0.000003
-35.440735 0.000001 -21.266512 0.000000 1.000000 0.000003
-34.442947 -0.000001 -20.742580 0.000000 1.000000 0.000003
-35.285854 0.000001 -21.281996 0.000013 1.000000 -0.000017
-34.442947 -0.000001 -20.742580 0.000013 1.000000 -0.000017
-34.460152 -0.000003 -20.867344 0.000013 1.000000 -0.000017
-35.161957 0.000001 -21.312977 0.000002 1.000000 0.000006
-35.285854 0.000001 -21.281996 0.000002 1.000000 0.000006
-34.460152 -0.000003 -20.867344 0.000002 1.000000 0.000006
-34.361210 -0.000001 -21.116875 0.000000 1.000000 -0.000000
-34.270859 -0.000001 -21.284657 0.000000 1.000000 -0.000000
-33.944550 -0.000001 -21.892807 0.000000 1.000000 -0.000000
-35.161957 0.000001 -21.312977 0.000000 1.000000 0.000008
-34.460152 -0.000003 -20.867344 0.000000 1.000000 0.000008
-34.361210 -0.000001 -21.116875 0.000000 1.000000 0.000008
-35.016033 -0.000003 -21.419676 0.000008 1.000000 -0.000024
-35.161957 0.000001 -21.312977 0.000008 1.000000 -0.000024
-34.361210 -0.000001 -21.116875 0.000008 1.000000 -0.000024
-33.840954 -0.000001 -22.080238 -0.000000 1.000000 -0.000000
-34.404510 -0.000001 -22.391724 -0.000000 1.000000 -0.000000
-35.016033 -0.000003 -21.419676 -0.000002 1.000000 -0.000001
-34.361210 -0.000001 -21.116875 -0.000002 1.000000 -0.000001
-33.944550 -0.000001 -21.892807 -0.000002 1.000000 -0.000001
-34.926826 -0.000001 -21.526731 -0.000000 1.000000 -0.000000
-33.944550 -0.000001 -21.892807 0.000010 1.000000 0.000026
-34.926826 -0.000001 -21.526731 0.000010 1.000000 0.000026
-35.016033 -0.000003 -21.419676 0.000010 1.000000 0.000026
3 0 1 2
3 3 4 5
3 6 7 8
3 9 10 11
3 12 13 14
3 15 16 17
3 18 19 20
3 21 22 23
3 24 25 26
3 27 28 29
3 30 31 32
3 6 33 30
3 34 35 36
3 37 38 39
3 6 30 32
3 40 41 42
3 43 44 45
3 46 47 48
3 49 50 51
3 52 53 54
3 55 56 57
3 58 59 60
3 61 62 63
3 64 65 66
3 67 68 69
3 70 71 72
3 73 74 75
3 69 76 77
3 78 79 80
3 69 77 81
3 82 83 84
