ply
format ascii 1.0
comment Created by Blender 2.78 (sub 0) - www.blender.org, source file: 'soult.blend'
element vertex 19
property float x
property float y
property float z
property float nx
property float ny
property float nz
element face 7
property list uchar uint vertex_indices
end_header
-29.212526 -0.000001 -16.313332 0.000052 1.000000 -0.000060
-28.784748 -0.000008 -16.066088 0.000052 1.000000 -0.000060
-28.556629 -0.000046 -16.506971 0.000052 1.000000 -0.000060
-28.556629 -0.000046 -16.506971 -0.000004 1.000000 -0.000002
-18.685928 -0.000000 -11.086223 -0.000004 1.000000 -0.000002
-18.556236 -0.000000 -11.328753 -0.000004 1.000000 -0.000002
-37.431408 -0.000001 -21.817225 0.000000 1.000000 -0.000000
-37.809692 -0.000001 -21.088661 0.000000 1.000000 -0.000000
-32.255043 -0.000001 -18.011948 0.000000 1.000000 -0.000000
-32.223793 -0.000001 -18.066822 0.000046 1.000000 -0.000080
-29.212526 -0.000001 -16.313332 0.000046 1.000000 -0.000080
-28.556629 -0.000046 -16.506971 0.000046 1.000000 -0.000080
-32.223793 -0.000001 -18.066822 0.000000 1.000000 -0.000000
-28.556629 -0.000046 -16.506971 -0.000067 1.000000 0.000121
-18.556236 -0.000000 -11.328753 -0.000067 1.000000 0.000121
-37.431408 -0.000001 -21.817225 -0.000067 1.000000 0.000121
-28.556629 -0.000046 -16.506971 0.000030 1.000000 -0.000042
-37.431408 -0.000001 -21.817225 0.000030 1.000000 -0.000042
-32.223793 -0.000001 -18.066822 0.000030 1.000000 -0.000042
3 0 1 2
3 3 4 5
3 6 7 8
3 9 10 11
3 6 8 12
3 13 14 15
3 16 17 18
