ply
format ascii 1.0
comment Created by Blender 2.78 (sub 0) - www.blender.org, source file: 'soult.blend'
element vertex 356
property float x
property float y
property float z
property float nx
property float ny
property float nz
property float s
property float t
element face 110
property list uchar uint vertex_indices
end_header
-28.556629 -0.000046 -16.506971 -0.000065 1.000000 0.000110 0.768885 0.550639
-27.695822 -0.000042 -16.034237 -0.000065 1.000000 0.000110 0.720010 0.577480
-27.532080 -0.000001 -16.316410 -0.000065 1.000000 0.000110 0.710713 0.561459
-28.915041 -0.000001 -17.084887 0.000003 1.000000 0.000003 0.789235 0.517827
-29.346951 -0.000002 -16.292229 0.000003 1.000000 0.000003 0.813757 0.562832
-28.830832 -0.000005 -15.989470 0.000003 1.000000 0.000003 0.784453 0.580022
-28.556629 -0.000046 -16.506971 -0.000067 1.000000 0.000121 0.768885 0.550639
-27.532080 -0.000001 -16.316410 -0.000067 1.000000 0.000121 0.710713 0.561459
-28.915041 -0.000001 -17.084887 -0.000067 1.000000 0.000121 0.789235 0.517827
-28.556629 -0.000046 -16.506971 0.000139 1.000000 -0.000007 0.768885 0.550639
-28.915041 -0.000001 -17.084887 0.000139 1.000000 -0.000007 0.789235 0.517827
-28.830832 -0.000005 -15.989470 0.000139 1.000000 -0.000007 0.784453 0.580022
-21.489416 -0.018009 -12.958649 -0.000022 1.000000 0.000035 0.532618 0.970680
-21.630341 -0.018023 -12.703222 -0.000022 1.000000 0.000035 0.532586 0.996738
-20.919268 -0.018019 -12.312718 -0.000022 1.000000 0.000035 0.460121 0.996507
-20.781015 -0.018009 -12.565008 -0.000022 1.000000 0.000035 0.460227 0.970809
-36.041229 -0.018021 -21.044735 0.000000 1.000000 -0.000000 0.724517 0.843853
-37.431408 -0.018021 -21.817225 0.000000 1.000000 -0.000000 0.789424 0.843853
-37.809692 -0.018021 -21.088661 0.000000 1.000000 -0.000000 0.789424 0.877443
-36.433022 -0.018021 -20.326124 0.000000 1.000000 -0.000000 0.724517 0.877443
-29.667751 0.009535 -16.480415 0.505982 0.000000 -0.862544 0.295103 0.943095
-29.346951 -0.000002 -16.292229 0.505982 0.000000 -0.862544 0.295103 0.943095
-29.667751 -0.018020 -16.480415 0.505982 0.000000 -0.862544 0.295103 0.943095
-32.964130 -0.017981 -19.780502 -0.000119 1.000000 0.000011 0.652547 0.829257
-33.084610 -0.017994 -19.855806 -0.000119 1.000000 0.000011 0.658336 0.828948
-33.275490 -0.018021 -19.507881 -0.000119 1.000000 0.000011 0.658280 0.845138
-31.899929 -0.018021 -18.743517 -0.000000 1.000000 -0.000000 0.594077 0.845263
-31.539404 -0.018021 -18.543182 -0.000000 1.000000 -0.000000 0.577250 0.845296
-31.827509 -0.018021 -18.755087 -0.000000 1.000000 -0.000000 0.591720 0.843420
-32.964130 -0.017981 -19.780502 -0.000050 1.000000 0.000090 0.652547 0.829257
-33.275490 -0.018021 -19.507881 -0.000050 1.000000 0.000090 0.658280 0.845138
-31.899929 -0.018021 -18.743517 -0.000050 1.000000 0.000090 0.594077 0.845263
-32.277443 -0.018021 -19.197090 0.000915 0.999999 -0.001009 0.616512 0.836525
-32.602688 -0.018030 -19.501684 0.000915 0.999999 -0.001009 0.634138 0.832074
-32.964130 -0.017981 -19.780502 0.000915 0.999999 -0.001009 0.652547 0.829257
-32.045124 -0.018021 -18.975092 -0.000000 1.000000 0.000000 0.603834 0.839863
-32.277443 -0.018021 -19.197090 -0.000000 1.000000 0.000000 0.616512 0.836525
-32.964130 -0.017981 -19.780502 0.000005 1.000000 0.000033 0.652547 0.829257
-31.899929 -0.018021 -18.743517 0.000005 1.000000 0.000033 0.594077 0.845263
-31.827509 -0.018021 -18.755087 0.000005 1.000000 0.000033 0.591720 0.843420
-31.827509 -0.018021 -18.755087 0.000432 1.000000 -0.000439 0.591720 0.843420
-32.277443 -0.018021 -19.197090 0.000432 1.000000 -0.000439 0.616512 0.836525
-32.964130 -0.017981 -19.780502 0.000432 1.000000 -0.000439 0.652547 0.829257
-29.232937 -0.000001 -17.261532 -0.485724 0.000000 0.874112 0.295103 0.943095
-31.539404 0.009535 -18.543182 -0.485724 0.000000 0.874112 0.295103 0.943095
-31.539404 -0.018021 -18.543182 -0.485724 0.000000 0.874112 0.295103 0.943095
-29.232937 -0.018020 -17.261532 -0.485724 0.000000 0.874112 0.295103 0.943095
-37.809692 -0.018021 -21.088661 0.484535 0.000000 -0.874772 0.295103 0.943095
-37.809692 0.009535 -21.088661 0.484535 0.000000 -0.874772 0.295103 0.943095
-32.303009 0.009535 -18.038515 0.484535 0.000000 -0.874772 0.295103 0.943095
-32.303009 -0.018021 -18.038515 0.484535 0.000000 -0.874772 0.295103 0.943095
-33.679680 -0.018021 -18.801052 0.484535 0.000000 -0.874772 0.295103 0.943095
-33.679680 -0.018021 -18.801052 0.000000 -1.000000 0.000000 0.295103 0.943095
-35.056351 -0.018021 -19.563587 0.000000 -1.000000 0.000000 0.295103 0.943095
-36.433022 -0.018021 -20.326124 0.000000 -1.000000 0.000000 0.295103 0.943095
-37.809692 -0.018021 -21.088661 0.484535 0.000022 -0.874772 0.295103 0.943095
-32.303009 0.009535 -18.038515 0.484535 0.000022 -0.874772 0.295103 0.943095
-33.679680 -0.018021 -18.801052 0.484535 0.000022 -0.874772 0.295103 0.943095
-37.809692 -0.018021 -21.088661 0.000000 -1.000000 0.000000 0.295103 0.943095
-35.161957 0.009537 -21.312977 0.242585 0.000000 0.970130 0.295103 0.943095
-35.285854 0.009537 -21.281996 0.242585 0.000000 0.970130 0.295103 0.943095
-35.285854 -0.018019 -21.281996 0.242585 0.000000 0.970130 0.295103 0.943095
-35.161957 -0.018019 -21.312977 0.242585 0.000000 0.970130 0.295103 0.943095
-33.320030 0.009535 -20.002953 -0.490944 0.000000 0.871191 0.295103 0.943095
-34.155418 0.009535 -20.473721 -0.490944 0.000000 0.871191 0.295103 0.943095
-34.155418 -0.018021 -20.473721 -0.490944 0.000000 0.871191 0.295103 0.943095
-33.320030 -0.018021 -20.002953 -0.490944 0.000000 0.871191 0.295103 0.943095
-31.539404 0.009535 -18.543182 -0.592504 0.000000 0.805567 0.295103 0.943095
-31.827509 0.009535 -18.755087 -0.592504 0.000000 0.805567 0.295103 0.943095
-31.827509 -0.018021 -18.755087 -0.592504 0.000000 0.805567 0.295103 0.943095
-31.539404 -0.018021 -18.543182 -0.592504 0.000000 0.805567 0.295103 0.943095
-35.440735 0.009537 -21.266512 -0.116830 0.000000 0.993152 0.295103 0.943095
-35.616268 0.009537 -21.287161 -0.116830 0.000000 0.993152 0.295103 0.943095
-35.616268 -0.018019 -21.287161 -0.116830 0.000000 0.993152 0.295103 0.943095
-35.440735 -0.018019 -21.266512 -0.116830 0.000000 0.993152 0.295103 0.943095
-31.827509 0.009535 -18.755087 -0.710958 0.000000 0.703235 0.295103 0.943095
-32.045124 0.009535 -18.975092 -0.710958 0.000000 0.703235 0.295103 0.943095
-32.045124 -0.018021 -18.975092 -0.710958 0.000000 0.703235 0.295103 0.943095
-31.827509 -0.018021 -18.755087 -0.710958 0.000000 0.703235 0.295103 0.943095
-35.807289 -0.018040 -21.349115 -0.499371 0.000000 0.866388 0.295103 0.943095
-35.807289 0.009516 -21.349115 -0.499371 0.000000 0.866388 0.295103 0.943095
-37.244381 0.009535 -22.177429 -0.499371 0.000000 0.866388 0.295103 0.943095
-37.244381 -0.018021 -22.177429 -0.499371 0.000000 0.866388 0.295103 0.943095
-35.849861 -0.018039 -21.373653 -0.499371 0.000000 0.866388 0.295103 0.943095
-37.244381 0.009535 -22.177429 -0.499375 -0.000314 0.866386 0.295103 0.943095
-35.849861 -0.018039 -21.373653 -0.499375 -0.000314 0.866386 0.295103 0.943095
-35.807289 -0.018040 -21.349115 -0.499375 -0.000314 0.866386 0.295103 0.943095
-34.270859 0.009535 -21.284657 -0.881170 0.000000 -0.472800 0.295103 0.943095
-33.944550 0.009535 -21.892807 -0.881170 0.000000 -0.472800 0.295103 0.943095
-33.944550 -0.018021 -21.892807 -0.881170 0.000000 -0.472800 0.295103 0.943095
-34.270859 -0.018021 -21.284657 -0.881170 0.000000 -0.472800 0.295103 0.943095
-32.045124 0.009535 -18.975092 -0.690865 0.000000 0.722984 0.295103 0.943095
-32.277443 0.009535 -19.197090 -0.690865 0.000000 0.722984 0.295103 0.943095
-32.277443 -0.018021 -19.197090 -0.690865 0.000000 0.722984 0.295103 0.943095
-32.045124 -0.018021 -18.975092 -0.690865 0.000000 0.722984 0.295103 0.943095
-29.346951 -0.000002 -16.292229 -0.042871 0.998802 -0.023609 0.065055 0.997890
-28.915041 -0.000001 -17.084887 -0.042871 0.998802 -0.023609 0.003617 0.997890
-29.232937 -0.018020 -17.261532 -0.042871 0.998802 -0.023609 0.003617 0.968246
-29.667751 -0.018020 -16.480415 -0.042871 0.998802 -0.023609 0.065055 0.968246
-35.285854 0.009537 -21.281996 0.099477 0.000000 0.995040 0.295103 0.943095
-35.440735 0.009537 -21.266512 0.099477 0.000000 0.995040 0.295103 0.943095
-35.440735 -0.018019 -21.266512 0.099477 0.000000 0.995040 0.295103 0.943095
-35.285854 -0.018019 -21.281996 0.099477 0.000000 0.995040 0.295103 0.943095
-34.361210 0.009535 -21.116875 -0.880456 0.000000 -0.474128 0.295103 0.943095
-34.270859 0.009535 -21.284657 -0.880456 0.000000 -0.474128 0.295103 0.943095
-34.270859 -0.018021 -21.284657 -0.880456 0.000000 -0.474128 0.295103 0.943095
-34.361210 -0.018021 -21.116875 -0.880456 0.000000 -0.474128 0.295103 0.943095
-32.277443 0.009535 -19.197090 -0.683555 0.000000 0.729899 0.295103 0.943095
-32.602688 0.009526 -19.501684 -0.683555 0.000000 0.729899 0.295103 0.943095
-32.602688 -0.018030 -19.501684 -0.683555 0.000000 0.729899 0.295103 0.943095
-32.277443 -0.018021 -19.197090 -0.683555 0.000000 0.729899 0.295103 0.943095
-33.944550 0.009535 -21.892807 -0.875211 0.000000 -0.483741 0.295103 0.943095
-33.840954 0.009535 -22.080238 -0.875211 0.000000 -0.483741 0.295103 0.943095
-33.840954 -0.018021 -22.080238 -0.875211 0.000000 -0.483741 0.295103 0.943095
-33.944550 -0.018021 -21.892807 -0.875211 0.000000 -0.483741 0.295103 0.943095
-34.460152 -0.018023 -20.867344 -0.929591 -0.000000 -0.368593 0.295103 0.943095
-34.460152 0.009533 -20.867344 -0.929591 -0.000000 -0.368593 0.295103 0.943095
-34.361210 0.009535 -21.116875 -0.929591 -0.000000 -0.368593 0.295103 0.943095
-34.361210 0.009535 -21.116875 -0.929583 0.000000 -0.368612 0.295103 0.943095
-34.361210 -0.018021 -21.116875 -0.929583 0.000000 -0.368612 0.295103 0.943095
-34.417255 -0.018022 -20.975536 -0.929583 0.000000 -0.368612 0.295103 0.943095
-34.361210 0.009535 -21.116875 -0.929600 0.000254 -0.368569 0.295103 0.943095
-34.417255 -0.018022 -20.975536 -0.929600 0.000254 -0.368569 0.295103 0.943095
-34.460152 -0.018023 -20.867344 -0.929600 0.000254 -0.368569 0.295103 0.943095
-32.602688 0.009526 -19.501684 -0.610791 0.000000 0.791792 0.295103 0.943095
-32.964130 0.009575 -19.780502 -0.610791 0.000000 0.791792 0.295103 0.943095
-32.964130 -0.017981 -19.780502 -0.610791 0.000000 0.791792 0.295103 0.943095
-32.602688 -0.018030 -19.501684 -0.610791 0.000000 0.791792 0.295103 0.943095
-35.616268 0.009537 -21.287161 -0.308513 0.000000 0.951220 0.295103 0.943095
-35.807289 0.009516 -21.349115 -0.308513 0.000000 0.951220 0.295103 0.943095
-35.807289 -0.018040 -21.349115 -0.308513 0.000000 0.951220 0.295103 0.943095
-35.616268 -0.018019 -21.287161 -0.308513 0.000000 0.951220 0.295103 0.943095
-34.442947 0.009535 -20.742580 -0.990626 0.000000 0.136603 0.295103 0.943095
-34.460152 0.009533 -20.867344 -0.990626 0.000000 0.136603 0.295103 0.943095
-34.460152 -0.018023 -20.867344 -0.990626 0.000000 0.136603 0.295103 0.943095
-34.442947 -0.018021 -20.742580 -0.990626 0.000000 0.136603 0.295103 0.943095
-32.964130 -0.017981 -19.780502 -0.530021 0.000000 0.847985 0.295103 0.943095
-32.964130 0.009575 -19.780502 -0.530021 0.000000 0.847985 0.295103 0.943095
-33.320030 0.009535 -20.002953 -0.530021 0.000000 0.847985 0.295103 0.943095
-33.320030 0.009535 -20.002953 -0.530021 0.000000 0.847984 0.295103 0.943095
-33.320030 -0.018021 -20.002953 -0.530021 0.000000 0.847984 0.295103 0.943095
-33.084610 -0.017994 -19.855806 -0.530021 0.000000 0.847984 0.295103 0.943095
-33.320030 0.009535 -20.002953 -0.530021 0.000006 0.847985 0.295103 0.943095
-33.084610 -0.017994 -19.855806 -0.530021 0.000006 0.847985 0.295103 0.943095
-32.964130 -0.017981 -19.780502 -0.530021 0.000006 0.847985 0.295103 0.943095
-34.926826 0.009535 -21.526731 0.768244 0.000000 0.640158 0.295103 0.943095
-35.016033 0.009533 -21.419676 0.768244 0.000000 0.640158 0.295103 0.943095
-35.016033 -0.018023 -21.419676 0.768244 0.000000 0.640158 0.295103 0.943095
-34.926826 -0.018021 -21.526731 0.768244 0.000000 0.640158 0.295103 0.943095
-34.391323 -0.018021 -20.635021 -0.901537 0.000000 0.432703 0.295103 0.943095
-34.391323 0.009535 -20.635021 -0.901537 0.000000 0.432703 0.295103 0.943095
-34.442947 0.009535 -20.742580 -0.901537 0.000000 0.432703 0.295103 0.943095
-34.442947 0.009535 -20.742580 -0.901547 0.000000 0.432681 0.295103 0.943095
-34.442947 -0.018021 -20.742580 -0.901547 0.000000 0.432681 0.295103 0.943095
-34.418476 -0.018021 -20.691591 -0.901547 0.000000 0.432681 0.295103 0.943095
-34.442947 0.009535 -20.742580 -0.901527 0.000097 0.432723 0.295103 0.943095
-34.418476 -0.018021 -20.691591 -0.901527 0.000097 0.432723 0.295103 0.943095
-34.391323 -0.018021 -20.635021 -0.901527 0.000097 0.432723 0.295103 0.943095
-32.303009 0.009535 -18.038515 0.508948 0.000000 -0.860797 0.295103 0.943095
-29.667751 0.009535 -16.480415 0.508948 0.000000 -0.860797 0.295103 0.943095
-29.667751 -0.018020 -16.480415 0.508948 0.000000 -0.860797 0.295103 0.943095
-32.303009 -0.018021 -18.038515 0.508948 0.000000 -0.860797 0.295103 0.943095
-34.404510 0.009535 -22.391724 0.856040 0.000000 0.516910 0.295103 0.943095
-34.926826 0.009535 -21.526731 0.856040 0.000000 0.516910 0.295103 0.943095
-34.926826 -0.018021 -21.526731 0.856040 0.000000 0.516910 0.295103 0.943095
-34.404510 -0.018021 -22.391724 0.856040 0.000000 0.516910 0.295103 0.943095
-34.283764 0.009539 -20.540373 -0.660613 0.000000 0.750726 0.295103 0.943095
-34.391323 0.009535 -20.635021 -0.660613 0.000000 0.750726 0.295103 0.943095
-34.391323 -0.018021 -20.635021 -0.660613 0.000000 0.750726 0.295103 0.943095
-34.283764 -0.018017 -20.540373 -0.660613 0.000000 0.750726 0.295103 0.943095
-35.016033 -0.018023 -21.419676 0.590242 0.000000 0.807226 0.295103 0.943095
-35.016033 0.009533 -21.419676 0.590242 0.000000 0.807226 0.295103 0.943095
-35.161957 0.009537 -21.312977 0.590242 0.000000 0.807226 0.295103 0.943095
-35.161957 0.009537 -21.312977 0.590245 -0.000000 0.807224 0.295103 0.943095
-35.161957 -0.018019 -21.312977 0.590245 -0.000000 0.807224 0.295103 0.943095
-35.088997 -0.018021 -21.366325 0.590245 -0.000000 0.807224 0.295103 0.943095
-35.161957 0.009537 -21.312977 0.590239 -0.000026 0.807229 0.295103 0.943095
-35.088997 -0.018021 -21.366325 0.590239 -0.000026 0.807229 0.295103 0.943095
-35.016033 -0.018023 -21.419676 0.590239 -0.000026 0.807229 0.295103 0.943095
-34.155418 0.009535 -20.473721 -0.460877 0.000000 0.887464 0.295103 0.943095
-34.283764 0.009539 -20.540373 -0.460877 0.000000 0.887464 0.295103 0.943095
-34.283764 -0.018017 -20.540373 -0.460877 0.000000 0.887464 0.295103 0.943095
-34.155418 -0.018021 -20.473721 -0.460877 0.000000 0.887464 0.295103 0.943095
-28.915041 -0.000001 -17.084887 -0.485720 0.000000 0.874115 0.295103 0.943095
-29.232937 -0.000001 -17.261532 -0.485720 0.000000 0.874115 0.295103 0.943095
-29.232937 -0.018020 -17.261532 -0.485720 0.000000 0.874115 0.295103 0.943095
-27.532080 -0.000001 -16.316410 0.036153 0.999124 0.021095 0.028303 0.998174
-27.695822 -0.000042 -16.034237 0.036153 0.999124 0.021095 0.004817 0.998174
-27.318932 -0.018041 -15.827259 0.036153 0.999124 0.021095 0.004817 0.968287
-27.156614 -0.018001 -16.107773 0.036153 0.999124 0.021095 0.028303 0.968287
-18.914219 0.000003 -11.527675 0.038456 0.999042 0.020900 0.022138 0.997939
-19.048115 0.000001 -11.285127 0.038456 0.999042 0.020900 0.001292 0.997939
-18.685928 -0.018020 -11.086223 0.038456 0.999042 0.020900 0.001292 0.968521
-18.556236 -0.018020 -11.328753 0.038456 0.999042 0.020900 0.022138 0.968521
-20.781015 -0.018009 -12.565008 -0.042793 0.998800 -0.023812 0.001292 0.968474
-20.919268 -0.018019 -12.312718 -0.042793 0.998800 -0.023812 0.022138 0.968474
-20.599060 -0.000006 -12.136868 -0.042793 0.998800 -0.023812 0.022138 0.997980
-20.458090 0.000003 -12.385566 -0.042793 0.998800 -0.023812 0.001292 0.997980
-18.914219 0.000003 -11.527675 -0.485723 0.000000 0.874113 0.295103 0.943095
-18.556236 -0.018020 -11.328753 -0.485723 0.000000 0.874113 0.295103 0.943095
-18.556236 0.000000 -11.328753 -0.485723 0.000000 0.874113 0.295103 0.943095
-27.532080 -0.000001 -16.316410 -0.485724 -0.000001 0.874112 0.295103 0.943095
-27.156614 -0.018001 -16.107773 -0.485724 -0.000001 0.874112 0.295103 0.943095
-26.448215 -0.018001 -15.714132 -0.485724 -0.000001 0.874112 0.295103 0.943095
-26.448215 -0.018001 -15.714132 -0.485723 0.000000 0.874113 0.295103 0.943095
-25.739815 -0.018009 -15.320492 -0.485723 0.000000 0.874113 0.295103 0.943095
-25.031414 -0.018009 -14.926851 -0.485723 0.000000 0.874113 0.295103 0.943095
-24.323015 -0.018009 -14.533211 0.000000 1.000000 -0.000000 0.295103 0.943095
-23.614616 -0.018009 -14.139570 0.000000 1.000000 -0.000000 0.295103 0.943095
-22.906216 -0.018009 -13.745930 0.000000 1.000000 -0.000000 0.295103 0.943095
-26.448215 -0.018001 -15.714132 -0.474301 -0.215595 0.853556 0.295103 0.943095
-25.031414 -0.018009 -14.926851 -0.474301 -0.215595 0.853556 0.295103 0.943095
-24.323015 -0.018009 -14.533211 -0.474301 -0.215595 0.853556 0.295103 0.943095
-20.458090 0.000003 -12.385566 -0.485723 0.000036 0.874113 0.295103 0.943095
-27.532080 -0.000001 -16.316410 -0.485723 0.000036 0.874113 0.295103 0.943095
-26.448215 -0.018001 -15.714132 -0.485723 0.000036 0.874113 0.295103 0.943095
-21.489416 -0.018009 -12.958649 -0.485723 -0.000037 0.874113 0.295103 0.943095
-20.781015 -0.018009 -12.565008 -0.485723 -0.000037 0.874113 0.295103 0.943095
-20.458090 0.000003 -12.385566 -0.485723 -0.000037 0.874113 0.295103 0.943095
-24.323015 -0.018009 -14.533211 -0.001892 0.999992 0.003406 0.295103 0.943095
-22.906216 -0.018009 -13.745930 -0.001892 0.999992 0.003406 0.295103 0.943095
-22.197815 -0.018009 -13.352289 -0.001892 0.999992 0.003406 0.295103 0.943095
-22.197815 -0.018009 -13.352289 -0.485724 0.000039 0.874112 0.295103 0.943095
-21.489416 -0.018009 -12.958649 -0.485724 0.000039 0.874112 0.295103 0.943095
-20.458090 0.000003 -12.385566 -0.485724 0.000039 0.874112 0.295103 0.943095
-20.458090 0.000003 -12.385566 -0.485723 -0.000054 0.874113 0.295103 0.943095
-26.448215 -0.018001 -15.714132 -0.485723 -0.000054 0.874113 0.295103 0.943095
-24.323015 -0.018009 -14.533211 -0.485723 -0.000054 0.874113 0.295103 0.943095
-24.323015 -0.018009 -14.533211 -0.485723 -0.000049 0.874113 0.295103 0.943095
-22.197815 -0.018009 -13.352289 -0.485723 -0.000049 0.874113 0.295103 0.943095
-20.458090 0.000003 -12.385566 -0.485723 -0.000049 0.874113 0.295103 0.943095
-33.275490 -0.018021 -19.507881 0.000000 1.000000 -0.000000 0.719842 0.845157
-34.651051 -0.018021 -20.272247 0.000000 1.000000 -0.000000 0.658722 0.845068
-35.056351 -0.018021 -19.563587 0.000000 1.000000 -0.000000 0.658285 0.877627
-33.679680 -0.018021 -18.801052 0.000000 1.000000 -0.000000 0.719408 0.877633
-29.232937 -0.018020 -17.261532 -0.000341 1.000000 0.000614 0.528890 0.846213
-31.539404 -0.018021 -18.543182 -0.000341 1.000000 0.000614 0.636856 0.846741
-31.899929 -0.018021 -18.743517 -0.000341 1.000000 0.000614 0.653732 0.846824
-31.899929 -0.018021 -18.743517 -0.000000 1.000000 -0.000000 0.653732 0.846824
-32.303009 -0.018021 -18.038515 -0.000000 1.000000 -0.000000 0.653974 0.880052
-29.667751 -0.018020 -16.480415 -0.000000 1.000000 -0.000000 0.528738 0.882793
-29.232937 -0.018020 -17.261532 0.000000 1.000000 -0.000000 0.528890 0.846213
-27.156614 -0.018001 -16.107773 -0.000059 1.000000 0.000103 0.422703 0.933212
-27.318932 -0.018041 -15.827259 -0.000059 1.000000 0.000103 0.407388 0.933212
-26.607859 -0.018038 -15.436754 -0.000059 1.000000 0.000103 0.407388 0.893395
-26.448215 -0.018001 -15.714132 -0.000059 1.000000 0.000103 0.422703 0.893395
-26.448215 -0.018001 -15.714132 -0.000046 1.000000 0.000101 0.422703 0.933212
-26.607859 -0.018038 -15.436754 -0.000046 1.000000 0.000101 0.407388 0.933212
-25.896786 -0.018043 -15.046249 -0.000046 1.000000 0.000101 0.407388 0.893395
-25.739815 -0.018009 -15.320492 -0.000046 1.000000 0.000101 0.422703 0.893395
-25.739815 -0.018009 -15.320492 -0.000051 1.000000 0.000088 0.422703 0.933212
-25.896786 -0.018043 -15.046249 -0.000051 1.000000 0.000088 0.407388 0.933212
-25.185711 -0.018039 -14.655745 -0.000051 1.000000 0.000088 0.407388 0.893395
-25.031414 -0.018009 -14.926851 -0.000051 1.000000 0.000088 0.422703 0.893395
-25.031414 -0.018009 -14.926851 -0.000046 1.000000 0.000079 0.422703 0.933212
-25.185711 -0.018039 -14.655745 -0.000046 1.000000 0.000079 0.407388 0.933212
-24.474636 -0.018036 -14.265240 -0.000046 1.000000 0.000079 0.407388 0.893395
-24.323015 -0.018009 -14.533211 -0.000046 1.000000 0.000079 0.422703 0.893395
-24.323015 -0.018009 -14.533211 -0.000042 1.000000 0.000071 0.422703 0.933212
-24.474636 -0.018036 -14.265240 -0.000042 1.000000 0.000071 0.407388 0.933212
-23.763563 -0.018033 -13.874736 -0.000042 1.000000 0.000071 0.407388 0.893395
-23.614616 -0.018009 -14.139570 -0.000042 1.000000 0.000071 0.422703 0.893395
-23.614616 -0.018009 -14.139570 -0.000037 1.000000 0.000062 0.422703 0.933212
-23.763563 -0.018033 -13.874736 -0.000037 1.000000 0.000062 0.407388 0.933212
-23.052490 -0.018029 -13.484232 -0.000037 1.000000 0.000062 0.407388 0.893395
-22.906216 -0.018009 -13.745930 -0.000037 1.000000 0.000062 0.422703 0.893395
-22.906216 -0.018009 -13.745930 -0.000032 1.000000 0.000054 0.677401 0.970420
-23.052490 -0.018029 -13.484232 -0.000032 1.000000 0.000054 0.677516 0.997200
-22.341415 -0.018026 -13.093727 -0.000032 1.000000 0.000054 0.605051 0.996969
-22.197815 -0.018009 -13.352289 -0.000032 1.000000 0.000054 0.605010 0.970550
-22.197815 -0.018009 -13.352289 -0.000027 1.000000 0.000045 0.605010 0.970550
-22.341415 -0.018026 -13.093727 -0.000027 1.000000 0.000045 0.605051 0.996969
-21.630341 -0.018023 -12.703222 -0.000027 1.000000 0.000045 0.532586 0.996738
-21.489416 -0.018009 -12.958649 -0.000027 1.000000 0.000045 0.532618 0.970680
-31.899929 -0.018021 -18.743517 0.000000 1.000000 -0.000000 0.581672 0.846391
-33.275490 -0.018021 -19.507881 0.000000 1.000000 -0.000000 0.644363 0.846711
-33.679680 -0.018021 -18.801052 0.000000 1.000000 -0.000000 0.644613 0.880551
-32.303009 -0.018021 -18.038515 0.000000 1.000000 -0.000000 0.581918 0.880143
-34.651051 -0.018021 -20.272247 0.000000 1.000000 -0.000000 0.386050 0.996626
-36.041229 -0.018021 -21.044735 0.000000 1.000000 -0.000000 0.303994 0.996224
-36.433022 -0.018021 -20.326124 0.000000 1.000000 -0.000000 0.304540 0.953998
-35.056351 -0.018021 -19.563587 0.000000 1.000000 -0.000000 0.385737 0.954506
-36.041229 -0.018021 -21.044735 0.000017 1.000000 -0.000018 0.724517 0.843853
-35.849861 -0.018039 -21.373653 0.000017 1.000000 -0.000018 0.724517 0.827992
-37.244381 -0.018021 -22.177429 0.000017 1.000000 -0.000018 0.789424 0.827992
-37.431408 -0.018021 -21.817225 0.000017 1.000000 -0.000018 0.789424 0.843853
-33.320030 -0.018021 -20.002953 0.000379 1.000000 -0.000672 0.669189 0.828678
-34.155418 -0.018021 -20.473721 0.000379 1.000000 -0.000672 0.706655 0.828497
-34.283764 -0.018017 -20.540373 0.000379 1.000000 -0.000672 0.712303 0.828663
-34.391323 -0.018021 -20.635021 -0.000000 1.000000 -0.000000 0.717774 0.827478
-34.418476 -0.018021 -20.691591 -0.000000 1.000000 -0.000000 0.719776 0.826063
-34.651051 -0.018021 -20.272247 -0.000000 1.000000 -0.000000 0.719740 0.844799
-33.084610 -0.017994 -19.855806 0.000968 0.999998 -0.001729 0.658355 0.829223
-33.320030 -0.018021 -20.002953 0.000968 0.999998 -0.001729 0.669189 0.828678
-34.283764 -0.018017 -20.540373 0.000968 0.999998 -0.001729 0.712303 0.828663
-34.283764 -0.018017 -20.540373 -0.000022 1.000000 -0.000016 0.712303 0.828663
-34.391323 -0.018021 -20.635021 -0.000022 1.000000 -0.000016 0.717774 0.827478
-34.651051 -0.018021 -20.272247 -0.000022 1.000000 -0.000016 0.719740 0.844799
-34.651051 -0.018021 -20.272247 -0.000032 1.000000 0.000058 0.719740 0.844799
-33.275490 -0.018021 -19.507881 -0.000032 1.000000 0.000058 0.658254 0.844728
-33.084610 -0.017994 -19.855806 -0.000032 1.000000 0.000058 0.658355 0.829223
-34.283764 -0.018017 -20.540373 -0.000015 1.000000 -0.000007 0.712303 0.828663
-34.651051 -0.018021 -20.272247 -0.000015 1.000000 -0.000007 0.719740 0.844799
-33.084610 -0.017994 -19.855806 -0.000015 1.000000 -0.000007 0.658355 0.829223
-35.016033 -0.018023 -21.419676 0.000012 1.000000 -0.000019 0.287263 0.995200
-35.088997 -0.018021 -21.366325 0.000012 1.000000 -0.000019 0.282371 0.997280
-34.417255 -0.018022 -20.975536 0.000012 1.000000 -0.000019 0.282848 0.951575
-34.361210 -0.018021 -21.116875 -0.000007 1.000000 -0.000004 0.291676 0.952998
-34.270859 -0.018021 -21.284657 -0.000007 1.000000 -0.000004 0.302874 0.953484
-33.944550 -0.018021 -21.892807 -0.000007 1.000000 -0.000004 0.343425 0.955305
-35.016033 -0.018023 -21.419676 -0.000005 1.000000 0.000005 0.287263 0.995200
-34.417255 -0.018022 -20.975536 -0.000005 1.000000 0.000005 0.282848 0.951575
-34.361210 -0.018021 -21.116875 -0.000005 1.000000 0.000005 0.291676 0.952998
-33.840954 -0.018021 -22.080238 0.000000 1.000000 -0.000000 0.356014 0.955713
-34.404510 -0.018021 -22.391724 0.000000 1.000000 -0.000000 0.354787 0.993565
-34.926826 -0.018021 -21.526731 0.000000 1.000000 -0.000000 0.295357 0.993915
-34.926826 -0.018021 -21.526731 -0.000008 1.000000 0.000011 0.295357 0.993915
-35.016033 -0.018023 -21.419676 -0.000008 1.000000 0.000011 0.287263 0.995200
-34.361210 -0.018021 -21.116875 -0.000008 1.000000 0.000011 0.291676 0.952998
-33.944550 -0.018021 -21.892807 0.000000 1.000000 -0.000000 0.343425 0.955305
-34.361210 -0.018021 -21.116875 0.000000 1.000000 -0.000000 0.291676 0.952998
-36.041229 -0.018021 -21.044735 0.000000 1.000000 -0.000000 0.369699 0.995193
-34.651051 -0.018021 -20.272247 0.000000 1.000000 -0.000000 0.276160 0.994904
-34.418476 -0.018021 -20.691591 0.000000 1.000000 -0.000000 0.276271 0.966701
-34.442947 -0.018021 -20.742580 -0.000000 1.000000 -0.000000 0.278991 0.964787
-35.807289 -0.018040 -21.349115 0.000034 1.000000 -0.000036 0.366437 0.972851
-35.849861 -0.018039 -21.373653 0.000034 1.000000 -0.000036 0.369326 0.972815
-36.041229 -0.018021 -21.044735 0.000034 1.000000 -0.000036 0.369699 0.995193
-35.616268 -0.018019 -21.287161 -0.000072 1.000000 -0.000118 0.354853 0.970544
-35.807289 -0.018040 -21.349115 -0.000072 1.000000 -0.000118 0.366437 0.972851
-36.041229 -0.018021 -21.044735 -0.000072 1.000000 -0.000118 0.369699 0.995193
-36.041229 -0.018021 -21.044735 0.000003 1.000000 -0.000016 0.369699 0.995193
-34.442947 -0.018021 -20.742580 0.000003 1.000000 -0.000016 0.278991 0.964787
-34.460152 -0.018023 -20.867344 0.000003 1.000000 -0.000016 0.283458 0.958878
-34.460152 -0.018023 -20.867344 -0.000002 1.000000 0.000007 0.283458 0.958878
-34.417255 -0.018022 -20.975536 -0.000002 1.000000 0.000007 0.284365 0.952093
-35.088997 -0.018021 -21.366325 -0.000002 1.000000 0.000007 0.330066 0.951334
-34.460152 -0.018023 -20.867344 0.000015 1.000000 -0.000015 0.283458 0.958878
-35.088997 -0.018021 -21.366325 0.000015 1.000000 -0.000015 0.330066 0.951334
-35.161957 -0.018019 -21.312977 0.000015 1.000000 -0.000015 0.332278 0.956168
-35.616268 -0.018019 -21.287161 0.000000 1.000000 0.000008 0.354853 0.970544
-36.041229 -0.018021 -21.044735 0.000000 1.000000 0.000008 0.369699 0.995193
-34.460152 -0.018023 -20.867344 0.000000 1.000000 0.000008 0.283458 0.958878
-35.440735 -0.018019 -21.266512 -0.000002 1.000000 0.000013 0.345251 0.966561
-35.616268 -0.018019 -21.287161 -0.000002 1.000000 0.000013 0.354853 0.970544
-34.460152 -0.018023 -20.867344 -0.000002 1.000000 0.000013 0.283458 0.958878
-34.460152 -0.018023 -20.867344 0.000002 1.000000 0.000006 0.283458 0.958878
-35.161957 -0.018019 -21.312977 0.000002 1.000000 0.000006 0.332278 0.956168
-35.285854 -0.018019 -21.281996 0.000002 1.000000 0.000006 0.337747 0.961317
-34.460152 -0.018023 -20.867344 0.000001 1.000000 0.000008 0.283458 0.958878
-35.285854 -0.018019 -21.281996 0.000001 1.000000 0.000008 0.337747 0.961317
-35.440735 -0.018019 -21.266512 0.000001 1.000000 0.000008 0.345251 0.966561
-18.914219 0.000003 -11.527675 -0.000011 1.000000 0.000015 0.792077 0.588114
-20.458090 0.000003 -12.385566 -0.000011 1.000000 0.000015 0.759184 0.519012
-20.599060 -0.000006 -12.136868 -0.000011 1.000000 0.000015 0.770323 0.513593
-19.048115 0.000001 -11.285127 -0.000011 1.000000 0.000015 0.802931 0.582985
3 0 1 2
3 3 4 5
3 6 7 8
3 9 10 11
4 12 13 14 15
4 16 17 18 19
3 20 21 22
3 23 24 25
3 26 27 28
3 29 30 31
3 32 33 34
3 28 35 36
3 37 38 39
3 40 41 42
4 43 44 45 46
3 47 48 49
3 49 50 51
3 52 53 54
3 55 56 57
3 52 54 58
4 59 60 61 62
4 63 64 65 66
4 67 68 69 70
4 71 72 73 74
4 75 76 77 78
3 79 80 81
3 81 82 83
3 84 85 86
4 87 88 89 90
4 91 92 93 94
4 95 96 97 98
4 99 100 101 102
4 103 104 105 106
4 107 108 109 110
4 111 112 113 114
3 115 116 117
3 118 119 120
3 121 122 123
4 124 125 126 127
4 128 129 130 131
4 132 133 134 135
3 136 137 138
3 139 140 141
3 142 143 144
4 145 146 147 148
3 149 150 151
3 152 153 154
3 155 156 157
4 158 159 160 161
4 162 163 164 165
4 166 167 168 169
3 170 171 172
3 173 174 175
3 176 177 178
4 179 180 181 182
3 183 184 185
4 186 187 188 189
4 190 191 192 193
4 194 195 196 197
3 198 199 200
3 201 202 203
3 204 205 206
3 207 208 209
3 210 211 212
3 213 214 215
3 216 217 218
3 219 220 221
3 222 223 224
3 225 226 227
3 228 229 230
4 231 232 233 234
3 235 236 237
3 238 239 240
3 238 240 241
4 242 243 244 245
4 246 247 248 249
4 250 251 252 253
4 254 255 256 257
4 258 259 260 261
4 262 263 264 265
4 266 267 268 269
4 270 271 272 273
4 274 275 276 277
4 278 279 280 281
4 282 283 284 285
3 286 287 288
3 289 290 291
3 292 293 294
3 295 296 297
3 298 299 300
3 301 302 303
3 304 305 306
3 307 308 309
3 310 311 312
3 313 314 315
3 316 317 318
3 319 313 315
3 320 319 315
3 321 322 323
3 321 323 324
3 325 326 327
3 328 329 330
3 331 332 333
3 334 335 336
3 337 338 339
3 340 341 342
3 343 344 345
3 346 347 348
3 349 350 351
4 352 353 354 355
