ply
format ascii 1.0
comment Created by Blender 2.78 (sub 0) - www.blender.org, source file: 'soult.blend'
element vertex 68
property float x
property float y
property float z
property float nx
property float ny
property float nz
element face 42
property list uchar uint vertex_indices
end_header
-37.244381 -0.000001 -22.177429 0.000000 1.000000 -0.000000
-37.431408 -0.000001 -21.817225 0.000000 1.000000 -0.000000
-18.556236 -0.000000 -11.328753 0.000000 1.000000 -0.000000
-17.952293 -0.000000 -11.069868 -0.000000 1.000000 -0.000000
-17.227160 -0.000000 -10.815798 -0.000000 1.000000 -0.000000
-16.889482 -0.000000 -10.722191 -0.000000 1.000000 -0.000000
-17.303177 -0.000000 -10.950073 -0.000000 1.000000 -0.000000
-18.426544 -0.000001 -11.571281 -0.000000 -1.000000 0.000000
-18.578205 -0.000001 -11.655513 -0.000000 -1.000000 0.000000
-18.832993 -0.000001 -11.797020 -0.000000 -1.000000 0.000000
-18.426544 -0.000001 -11.571281 0.000000 1.000000 -0.000000
-36.988251 -0.000001 -22.035599 0.000000 1.000000 -0.000000
-36.786102 -0.000001 -21.925552 -0.000000 1.000000 -0.000000
-18.832993 -0.000001 -11.797020 0.000000 1.000000 -0.000000
-36.560913 -0.000001 -21.820724 0.000000 1.000000 -0.000000
-34.882843 -0.000001 -21.350805 -0.000000 1.000000 -0.000000
-35.375519 -0.000001 -21.663895 -0.000000 1.000000 -0.000000
-36.169281 -0.000001 -21.650223 -0.000000 1.000000 -0.000000
-18.869644 -0.000001 -11.826620 -0.000000 1.000000 -0.000000
-18.869644 -0.000001 -11.826620 0.000001 1.000000 -0.000001
-18.910828 -0.000001 -11.892204 0.000001 1.000000 -0.000001
-19.720655 -0.000000 -12.482489 0.000001 1.000000 -0.000001
-19.720655 -0.000000 -12.482489 0.000000 1.000000 0.000000
-19.736288 -0.000000 -12.444747 0.000000 1.000000 0.000000
-34.862701 -0.000001 -21.277859 -0.000000 1.000000 -0.000000
-34.342087 -0.000001 -20.794220 -0.000000 1.000000 -0.000000
-34.726494 -0.000001 -21.225529 -0.000000 1.000000 -0.000000
-34.828728 -0.000001 -21.240082 -0.000000 1.000000 -0.000000
-18.556236 -0.000000 -11.328753 0.000001 1.000000 -0.000001
-19.736288 -0.000000 -12.444747 0.000001 1.000000 -0.000001
-19.774031 -0.000000 -12.429113 0.000000 1.000000 0.000000
-34.311676 -0.000001 -20.664368 0.000000 1.000000 -0.000000
-18.556236 -0.000000 -11.328753 -0.000000 1.000000 0.000001
-19.774031 -0.000000 -12.429113 -0.000000 1.000000 0.000001
-19.811771 -0.000000 -12.444747 -0.000000 1.000000 0.000001
-19.827406 -0.000000 -12.482489 -0.000002 1.000000 -0.000001
-19.811771 -0.000000 -12.520230 -0.000002 1.000000 -0.000001
-20.010569 -0.000001 -12.773006 -0.000002 1.000000 -0.000001
-19.811771 -0.000000 -12.444747 -0.000012 1.000000 0.000005
-19.827406 -0.000000 -12.482489 -0.000012 1.000000 0.000005
-20.010569 -0.000001 -12.773006 -0.000012 1.000000 0.000005
-19.811771 -0.000000 -12.444747 -0.000001 1.000000 -0.000001
-20.010569 -0.000001 -12.773006 -0.000001 1.000000 -0.000001
-20.080698 -0.000001 -12.716904 -0.000001 1.000000 -0.000001
-34.285858 -0.000001 -20.603806 -0.000000 1.000000 -0.000000
-34.155418 -0.000001 -20.473721 -0.000000 1.000000 -0.000000
-19.811771 -0.000000 -12.444747 -0.000001 1.000000 -0.000002
-20.080698 -0.000001 -12.716904 -0.000001 1.000000 -0.000002
-20.122776 -0.000001 -12.695865 -0.000001 1.000000 -0.000002
-19.811771 -0.000000 -12.444747 -0.000000 1.000000 -0.000002
-20.122776 -0.000001 -12.695865 -0.000000 1.000000 -0.000002
-20.220957 -0.000001 -12.681839 -0.000000 1.000000 -0.000002
-18.556236 -0.000000 -11.328753 -0.000006 1.000000 0.000007
-19.811771 -0.000000 -12.444747 -0.000006 1.000000 0.000007
-20.220957 -0.000001 -12.681839 -0.000006 1.000000 0.000007
-20.220957 -0.000001 -12.681839 0.000000 1.000000 -0.000000
-20.277060 -0.000001 -12.702878 0.000000 1.000000 -0.000000
-27.459007 -0.000001 -16.691998 0.000000 1.000000 -0.000000
-28.445618 -0.000001 -17.372055 0.000000 1.000000 -0.000000
-28.518768 -0.000001 -17.374969 0.000000 1.000000 -0.000000
-27.458385 -0.000001 -16.636375 -0.000000 1.000000 -0.000000
-28.790649 -0.000001 -17.456848 0.000000 1.000000 -0.000000
-27.435215 -0.000001 -16.601103 -0.000000 1.000000 0.000000
-28.842907 -0.000001 -17.479950 0.000000 1.000000 -0.000000
-18.556236 -0.000000 -11.328753 0.000000 1.000000 -0.000001
-20.277060 -0.000001 -12.702878 0.000000 1.000000 -0.000001
-27.412683 -0.000001 -16.569271 0.000000 1.000000 -0.000001
-27.412683 -0.000001 -16.569271 -0.000000 1.000000 0.000000
3 0 1 2
3 2 3 4
3 4 5 6
3 7 8 9
3 4 6 10
3 11 0 2
3 12 11 2
3 2 4 10
3 2 10 13
3 14 12 2
3 15 16 17
3 17 14 2
3 2 13 18
3 19 20 21
3 18 22 23
3 24 15 17
3 25 26 27
3 27 24 17
3 28 19 29
3 2 23 30
3 25 27 17
3 31 25 17
3 32 33 34
3 35 36 37
3 38 39 40
3 41 42 43
3 44 31 17
3 45 44 17
3 46 47 48
3 49 50 51
3 45 17 2
3 52 53 54
3 2 55 56
3 57 58 59
3 60 57 59
3 60 59 61
3 62 60 61
3 62 61 63
3 64 65 66
3 67 62 63
3 45 2 67
3 67 63 45
