ply
format ascii 1.0
comment Created by Blender 2.78 (sub 0) - www.blender.org, source file: 'soult.blend'
element vertex 247
property float x
property float y
property float z
property float nx
property float ny
property float nz
element face 136
property list uchar uint vertex_indices
end_header
-27.599747 -0.000001 -19.311295 -0.000003 1.000000 0.000005
-27.731209 -0.000001 -19.384535 -0.000003 1.000000 0.000005
-28.405201 -0.000008 -18.180338 -0.000003 1.000000 0.000005
-28.405201 -0.000008 -18.180338 -0.000000 1.000000 -0.000000
-29.787970 -0.000008 -18.968369 -0.000000 1.000000 -0.000000
-29.854876 -0.000008 -18.901463 -0.000000 1.000000 -0.000000
-33.148247 -0.000001 -20.752592 -0.000022 1.000000 0.000020
-33.341537 0.000007 -21.339899 -0.000022 1.000000 0.000020
-34.034943 -0.000001 -21.706436 -0.000022 1.000000 0.000020
-33.148247 -0.000001 -20.752592 -0.000000 1.000000 -0.000000
-34.034943 -0.000001 -21.706436 -0.000000 1.000000 -0.000000
-34.074829 -0.000001 -21.608017 -0.000000 1.000000 -0.000000
-34.340088 -0.000001 -20.886993 -0.000000 1.000000 -0.000000
-34.342087 -0.000001 -20.794220 -0.000000 1.000000 -0.000000
-34.311676 -0.000001 -20.664368 0.000000 1.000000 -0.000000
-34.285858 -0.000001 -20.603806 0.000000 1.000000 -0.000000
-34.155418 -0.000001 -20.473721 -0.000000 1.000000 -0.000000
-28.842907 -0.000001 -17.479950 -0.000000 1.000000 -0.000000
-28.790649 -0.000001 -17.456848 0.000000 1.000000 -0.000000
-28.518768 -0.000001 -17.374969 0.000000 1.000000 -0.000000
-28.445618 -0.000001 -17.372055 0.000000 1.000000 -0.000000
-28.315796 -0.000001 -17.384613 0.000000 1.000000 -0.000000
-28.276184 -0.000001 -17.393082 -0.000000 1.000000 -0.000000
-27.993179 -0.000001 -17.524918 -0.000000 1.000000 -0.000000
-27.939957 -0.000001 -17.559998 0.000000 1.000000 -0.000000
-27.821960 -0.000001 -17.660583 0.000000 1.000000 -0.000000
-27.723236 -0.000001 -17.780106 0.000000 1.000000 -0.000000
-27.692413 -0.000001 -17.828079 0.000000 1.000000 -0.000000
-27.710175 -0.000001 -17.838043 -0.000000 1.000000 -0.000000
-28.197144 -0.000001 -18.105484 -0.000000 1.000000 -0.000000
-28.175659 -0.000001 -18.143951 -0.000000 1.000000 -0.000000
-27.965027 -0.000001 -18.558716 -0.000000 1.000000 -0.000000
-27.654083 -0.000001 -19.119125 0.000000 1.000000 -0.000000
-27.404144 -0.000001 -18.969193 0.000000 1.000000 -0.000000
-27.388443 -0.000001 -18.979034 0.000000 1.000000 -0.000000
-27.435883 -0.000001 -19.138153 -0.000000 1.000000 -0.000000
-27.463142 -0.000001 -19.191757 0.000000 1.000000 -0.000000
-27.506233 -0.000001 -19.242661 0.000000 1.000000 -0.000000
-29.854876 -0.000008 -18.901463 -0.000000 1.000000 0.000004
-33.148247 -0.000001 -20.752592 -0.000000 1.000000 0.000004
-34.342087 -0.000001 -20.794220 -0.000000 1.000000 0.000004
-28.405201 -0.000008 -18.180338 0.000011 1.000000 -0.000023
-29.854876 -0.000008 -18.901463 0.000011 1.000000 -0.000023
-34.342087 -0.000001 -20.794220 0.000011 1.000000 -0.000023
-28.405201 -0.000008 -18.180338 0.000006 1.000000 -0.000010
-34.342087 -0.000001 -20.794220 0.000006 1.000000 -0.000010
-28.315796 -0.000001 -17.384613 0.000006 1.000000 -0.000010
-28.405201 -0.000008 -18.180338 -0.000035 1.000000 -0.000006
-28.315796 -0.000001 -17.384613 -0.000035 1.000000 -0.000006
-28.197144 -0.000001 -18.105484 -0.000035 1.000000 -0.000006
-27.599747 -0.000001 -19.311295 -0.000000 1.000000 -0.000000
-28.405201 -0.000008 -18.180338 -0.000031 1.000000 -0.000016
-28.197144 -0.000001 -18.105484 -0.000031 1.000000 -0.000016
-27.965027 -0.000001 -18.558716 -0.000031 1.000000 -0.000016
-28.405201 -0.000008 -18.180338 -0.000030 1.000000 -0.000014
-27.965027 -0.000001 -18.558716 -0.000030 1.000000 -0.000014
-27.599747 -0.000001 -19.311295 -0.000030 1.000000 -0.000014
-20.277060 -0.000001 -12.702878 0.000000 1.000000 -0.000000
-20.220957 -0.000001 -12.681839 0.000000 1.000000 -0.000000
-20.122776 -0.000001 -12.695865 0.000000 1.000000 -0.000000
-20.080698 -0.000001 -12.716904 0.000000 1.000000 -0.000000
-20.010569 -0.000001 -12.773006 0.000000 1.000000 -0.000000
-19.091883 -0.000001 -15.388807 0.000000 1.000000 0.000000
-19.077856 -0.000001 -15.465949 0.000000 1.000000 0.000000
-19.098894 -0.000001 -15.571142 0.000000 1.000000 0.000000
-19.147984 -0.000001 -15.648284 0.000000 1.000000 0.000000
-19.211100 -0.000001 -15.697374 0.000000 1.000000 -0.000000
-19.275036 -0.000001 -15.583784 0.000000 1.000000 -0.000000
-19.708698 -0.000001 -14.561571 0.000000 1.000000 -0.000000
-20.232410 -0.000001 -13.003695 0.000000 1.000000 -0.000000
-27.329348 -0.000008 -16.691902 0.000000 1.000000 -0.000000
-26.744246 -0.000008 -17.763163 0.000000 1.000000 -0.000000
-26.804478 -0.000008 -17.788975 0.000000 1.000000 -0.000000
-27.412683 -0.000001 -16.569271 0.000000 1.000000 -0.000000
-27.458385 -0.000001 -16.636375 0.000000 1.000000 -0.000000
-27.435215 -0.000001 -16.601103 0.000000 1.000000 -0.000000
-27.441475 -0.000001 -16.744595 -0.000000 1.000000 -0.000000
-27.459007 -0.000001 -16.691998 -0.000000 1.000000 -0.000000
-26.342152 -0.000008 -18.699539 0.000079 1.000000 0.000040
-26.422815 -0.000001 -18.733406 0.000079 1.000000 0.000040
-27.441475 -0.000001 -16.744595 0.000079 1.000000 0.000040
-26.804478 -0.000008 -17.788975 0.000072 1.000000 0.000036
-26.342152 -0.000008 -18.699539 0.000072 1.000000 0.000036
-27.441475 -0.000001 -16.744595 0.000072 1.000000 0.000036
-20.122776 -0.000001 -12.695865 0.000001 1.000000 0.000000
-19.077856 -0.000001 -15.465949 0.000001 1.000000 0.000000
-20.232410 -0.000001 -13.003695 0.000001 1.000000 0.000000
-27.329348 -0.000008 -16.691902 0.000056 1.000000 0.000027
-26.804478 -0.000008 -17.788975 0.000056 1.000000 0.000027
-27.441475 -0.000001 -16.744595 0.000056 1.000000 0.000027
-20.122776 -0.000001 -12.695865 -0.000002 1.000000 0.000001
-20.232410 -0.000001 -13.003695 -0.000002 1.000000 0.000001
-27.329348 -0.000008 -16.691902 -0.000002 1.000000 0.000001
-20.122776 -0.000001 -12.695865 0.000453 1.000000 -0.000818
-27.329348 -0.000008 -16.691902 0.000453 1.000000 -0.000818
-27.441475 -0.000001 -16.744595 0.000453 1.000000 -0.000818
-34.034943 -0.000001 -21.706436 0.000000 1.000000 -0.000000
-33.944550 -0.000001 -21.892807 0.000000 1.000000 -0.000000
-34.270859 -0.000001 -21.284657 0.000000 1.000000 -0.000000
-34.270859 -0.000001 -21.284657 0.000054 1.000000 0.000029
-34.361210 -0.000001 -21.116875 0.000054 1.000000 0.000029
-34.460152 -0.000003 -20.867344 0.000054 1.000000 0.000029
-34.460152 -0.000003 -20.867344 0.000045 1.000000 -0.000021
-34.442947 -0.000001 -20.742580 0.000045 1.000000 -0.000021
-34.391323 -0.000001 -20.635021 0.000045 1.000000 -0.000021
-34.391323 -0.000001 -20.635021 0.000124 1.000000 -0.000181
-34.283764 0.000003 -20.540373 0.000124 1.000000 -0.000181
-34.155418 -0.000001 -20.473721 0.000124 1.000000 -0.000181
-34.391323 -0.000001 -20.635021 -0.000000 1.000000 -0.000000
-34.155418 -0.000001 -20.473721 -0.000000 1.000000 -0.000000
-34.285858 -0.000001 -20.603806 -0.000000 1.000000 -0.000000
-34.270859 -0.000001 -21.284657 -0.000017 1.000000 -0.000003
-34.460152 -0.000003 -20.867344 -0.000017 1.000000 -0.000003
-34.391323 -0.000001 -20.635021 -0.000017 1.000000 -0.000003
-34.074829 -0.000001 -21.608017 0.000000 1.000000 -0.000000
-34.340088 -0.000001 -20.886993 0.000000 1.000000 -0.000000
-34.311676 -0.000001 -20.664368 -0.000000 1.000000 -0.000000
-34.342087 -0.000001 -20.794220 -0.000000 1.000000 -0.000000
-35.807289 -0.000020 -21.349115 0.000063 1.000000 -0.000531
-35.616268 0.000001 -21.287161 0.000063 1.000000 -0.000531
-35.440735 0.000001 -21.266512 0.000063 1.000000 -0.000531
-35.440735 0.000001 -21.266512 -0.000000 1.000000 -0.000000
-35.285854 0.000001 -21.281996 -0.000000 1.000000 -0.000000
-35.161957 0.000001 -21.312977 -0.000000 1.000000 -0.000000
-35.161957 0.000001 -21.312977 0.000100 1.000000 0.000101
-35.016033 -0.000003 -21.419676 0.000100 1.000000 0.000101
-34.926826 -0.000001 -21.526731 0.000100 1.000000 0.000101
-34.926826 -0.000001 -21.526731 0.000000 1.000000 -0.000000
-34.404510 -0.000001 -22.391724 0.000000 1.000000 -0.000000
-34.568359 -0.000001 -22.167114 0.000000 1.000000 -0.000000
-34.759552 -0.000001 -21.981857 0.000000 1.000000 -0.000000
-35.440735 0.000001 -21.266512 -0.000002 1.000000 -0.000011
-35.161957 0.000001 -21.312977 -0.000002 1.000000 -0.000011
-34.926826 -0.000001 -21.526731 -0.000002 1.000000 -0.000011
-36.988251 -0.000001 -22.035599 -0.000325 1.000000 0.000586
-37.244381 -0.000001 -22.177429 -0.000325 1.000000 0.000586
-35.807289 -0.000020 -21.349115 -0.000325 1.000000 0.000586
-36.786102 -0.000001 -21.925552 -0.000238 1.000000 0.000438
-36.988251 -0.000001 -22.035599 -0.000238 1.000000 0.000438
-35.807289 -0.000020 -21.349115 -0.000238 1.000000 0.000438
-35.807289 -0.000020 -21.349115 -0.000038 1.000000 -0.000083
-35.440735 0.000001 -21.266512 -0.000038 1.000000 -0.000083
-34.926826 -0.000001 -21.526731 -0.000038 1.000000 -0.000083
-34.989166 -0.000001 -21.825134 0.000000 1.000000 -0.000000
-35.186005 -0.000001 -21.731705 0.000000 1.000000 -0.000000
-36.560913 -0.000001 -21.820724 -0.000074 1.000000 0.000158
-36.786102 -0.000001 -21.925552 -0.000074 1.000000 0.000158
-35.807289 -0.000020 -21.349115 -0.000074 1.000000 0.000158
-36.169281 -0.000001 -21.650223 -0.000058 1.000000 0.000133
-36.560913 -0.000001 -21.820724 -0.000058 1.000000 0.000133
-35.807289 -0.000020 -21.349115 -0.000058 1.000000 0.000133
-35.807289 -0.000020 -21.349115 -0.000017 1.000000 0.000022
-34.926826 -0.000001 -21.526731 -0.000017 1.000000 0.000022
-35.186005 -0.000001 -21.731705 -0.000017 1.000000 0.000022
-35.375519 -0.000001 -21.663895 0.000001 1.000000 0.000062
-36.169281 -0.000001 -21.650223 0.000001 1.000000 0.000062
-35.807289 -0.000020 -21.349115 0.000001 1.000000 0.000062
-35.807289 -0.000020 -21.349115 0.000043 1.000000 0.000119
-35.186005 -0.000001 -21.731705 0.000043 1.000000 0.000119
-35.375519 -0.000001 -21.663895 0.000043 1.000000 0.000119
-26.422745 -0.000001 -18.733543 -0.000000 1.000000 0.000000
-27.599747 -0.000001 -19.311295 -0.000000 1.000000 0.000000
-27.506233 -0.000001 -19.242661 -0.000000 1.000000 0.000000
-27.463142 -0.000001 -19.191757 -0.000000 1.000000 0.000000
-28.445618 -0.000001 -17.372055 -0.000000 1.000000 -0.000000
-27.459007 -0.000001 -16.691998 -0.000000 1.000000 -0.000000
-27.441475 -0.000001 -16.744595 -0.000000 1.000000 -0.000000
-27.435883 -0.000001 -19.138153 -0.000000 1.000000 0.000000
-27.388443 -0.000001 -18.979034 -0.000000 1.000000 -0.000000
-28.315796 -0.000001 -17.384613 -0.000000 1.000000 -0.000000
-28.276184 -0.000001 -17.393082 -0.000000 1.000000 -0.000000
-27.404144 -0.000001 -18.969193 -0.000000 1.000000 -0.000000
-27.654083 -0.000001 -19.119125 -0.000000 1.000000 -0.000000
-27.965027 -0.000001 -18.558716 -0.000000 1.000000 -0.000000
-27.993179 -0.000001 -17.524918 -0.000000 1.000000 -0.000000
-27.939957 -0.000001 -17.559998 -0.000000 1.000000 -0.000000
-28.175659 -0.000001 -18.143951 0.000000 1.000000 -0.000000
-28.197144 -0.000001 -18.105484 -0.000000 1.000000 -0.000000
-27.710175 -0.000001 -17.838043 -0.000000 1.000000 -0.000000
-27.692413 -0.000001 -17.828079 0.000000 1.000000 -0.000000
-27.821960 -0.000001 -17.660583 -0.000000 1.000000 -0.000000
-27.723236 -0.000001 -17.780106 -0.000000 1.000000 -0.000000
-28.842907 -0.000001 -17.479950 0.001031 0.999998 -0.001830
-33.320030 -0.000001 -20.002953 0.001031 0.999998 -0.001830
-32.964130 0.000039 -19.780502 0.001031 0.999998 -0.001830
-28.842907 -0.000001 -17.479950 -0.000324 1.000000 0.000598
-32.964130 0.000039 -19.780502 -0.000324 1.000000 0.000598
-32.602688 -0.000010 -19.501684 -0.000324 1.000000 0.000598
-28.842907 -0.000001 -17.479950 0.000034 1.000000 -0.000067
-32.602688 -0.000010 -19.501684 0.000034 1.000000 -0.000067
-32.277443 -0.000001 -19.197090 0.000034 1.000000 -0.000067
-32.045124 -0.000001 -18.975092 -0.000000 1.000000 -0.000000
-31.827509 -0.000001 -18.755087 -0.000000 1.000000 -0.000000
-31.539404 -0.000001 -18.543182 -0.000000 1.000000 -0.000000
-28.842907 -0.000001 -17.479950 0.000000 1.000000 -0.000000
-32.277443 -0.000001 -19.197090 0.000000 1.000000 -0.000000
-18.556236 -0.000000 -11.328753 -0.000000 1.000000 -0.000000
-17.952293 -0.000000 -11.069868 -0.000000 1.000000 -0.000000
-17.227160 -0.000000 -10.815798 -0.000000 1.000000 -0.000000
-16.889482 -0.000000 -10.722191 -0.000000 1.000000 -0.000000
-17.303177 -0.000000 -10.950073 0.000000 1.000000 -0.000000
-28.790649 -0.000001 -17.456848 0.000000 1.000000 -0.000000
-28.518768 -0.000001 -17.374969 0.000000 1.000000 -0.000000
-27.458385 -0.000001 -16.636375 -0.000000 1.000000 -0.000000
-18.426544 -0.000001 -11.571281 -0.000000 -1.000000 0.000000
-18.578205 -0.000001 -11.655513 -0.000000 -1.000000 0.000000
-18.832993 -0.000001 -11.797020 -0.000000 -1.000000 0.000000
-18.426544 -0.000001 -11.571281 0.000000 1.000000 -0.000000
-27.435215 -0.000001 -16.601103 -0.000000 1.000000 0.000000
-18.832993 -0.000001 -11.797020 0.000000 1.000000 -0.000000
-18.869644 -0.000001 -11.826620 0.000001 1.000000 -0.000001
-18.910828 -0.000001 -11.892204 0.000001 1.000000 -0.000001
-19.720655 -0.000000 -12.482489 0.000001 1.000000 -0.000001
-18.869644 -0.000001 -11.826620 0.000000 1.000000 -0.000000
-27.412683 -0.000001 -16.569271 -0.000000 1.000000 0.000000
-20.277060 -0.000001 -12.702878 -0.000000 1.000000 0.000000
-19.720655 -0.000000 -12.482489 0.000000 1.000000 0.000000
-19.736288 -0.000000 -12.444747 0.000000 1.000000 0.000000
-18.869644 -0.000001 -11.826620 0.000000 1.000000 0.000001
-19.736288 -0.000000 -12.444747 0.000000 1.000000 0.000001
-19.774031 -0.000000 -12.429113 0.000000 1.000000 0.000001
-20.277060 -0.000001 -12.702878 0.000001 1.000000 -0.000001
-31.539404 -0.000001 -18.543182 0.000001 1.000000 -0.000001
-20.220957 -0.000001 -12.681839 0.000000 1.000000 -0.000001
-20.277060 -0.000001 -12.702878 0.000000 1.000000 -0.000001
-18.869644 -0.000001 -11.826620 0.000000 1.000000 -0.000001
-18.869644 -0.000001 -11.826620 -0.000001 1.000000 0.000002
-19.774031 -0.000000 -12.429113 -0.000001 1.000000 0.000002
-19.811771 -0.000000 -12.444747 -0.000001 1.000000 0.000002
-19.827406 -0.000000 -12.482489 -0.000002 1.000000 -0.000001
-19.811771 -0.000000 -12.520230 -0.000002 1.000000 -0.000001
-20.010569 -0.000001 -12.773006 -0.000002 1.000000 -0.000001
-20.220957 -0.000001 -12.681839 -0.000019 1.000000 0.000030
-18.869644 -0.000001 -11.826620 -0.000019 1.000000 0.000030
-19.811771 -0.000000 -12.444747 -0.000019 1.000000 0.000030
-19.811771 -0.000000 -12.444747 -0.000012 1.000000 0.000005
-19.827406 -0.000000 -12.482489 -0.000012 1.000000 0.000005
-20.010569 -0.000001 -12.773006 -0.000012 1.000000 0.000005
-19.811771 -0.000000 -12.444747 -0.000001 1.000000 -0.000001
-20.010569 -0.000001 -12.773006 -0.000001 1.000000 -0.000001
-20.080698 -0.000001 -12.716904 -0.000001 1.000000 -0.000001
-20.122776 -0.000001 -12.695865 -0.000000 1.000000 -0.000002
-20.220957 -0.000001 -12.681839 -0.000000 1.000000 -0.000002
-19.811771 -0.000000 -12.444747 -0.000000 1.000000 -0.000002
-19.811771 -0.000000 -12.444747 -0.000001 1.000000 -0.000002
-20.080698 -0.000001 -12.716904 -0.000001 1.000000 -0.000002
-20.122776 -0.000001 -12.695865 -0.000001 1.000000 -0.000002
3 0 1 2
3 3 4 5
3 6 7 8
3 9 10 11
3 11 12 13
3 13 14 15
3 15 16 17
3 17 18 19
3 19 20 21
3 21 22 23
3 23 24 25
3 25 26 27
3 27 28 29
3 29 30 31
3 32 33 34
3 32 34 35
3 35 36 37
3 9 11 13
3 13 15 17
3 17 19 21
3 21 23 25
3 25 27 29
3 21 25 29
3 13 17 21
3 38 39 40
3 41 42 43
3 32 35 37
3 44 45 46
3 47 48 49
3 32 37 50
3 51 52 53
3 31 32 50
3 54 55 56
3 57 58 59
3 59 60 61
3 61 62 63
3 63 64 65
3 65 66 67
3 67 68 69
3 70 71 72
3 65 67 69
3 63 65 69
3 59 61 63
3 73 57 59
3 74 75 73
3 76 77 74
3 78 79 80
3 81 82 83
3 76 74 73
3 84 85 86
3 87 88 89
3 90 91 92
3 76 73 59
3 93 94 95
3 96 97 98
3 99 100 101
3 102 103 104
3 105 106 107
3 108 109 110
3 111 112 113
3 114 96 98
3 115 114 98
3 108 110 116
3 108 116 117
3 115 98 108
3 117 115 108
3 118 119 120
3 121 122 123
3 124 125 126
3 127 128 129
3 127 129 130
3 131 132 133
3 134 135 136
3 137 138 139
3 140 141 142
3 127 130 143
3 127 143 144
3 145 146 147
3 148 149 150
3 151 152 153
3 154 155 156
3 157 158 159
3 160 161 162
3 160 162 163
3 164 165 166
3 160 163 167
3 160 167 168
3 169 164 166
3 170 169 166
3 166 160 168
3 171 172 173
3 166 168 171
3 174 170 166
3 175 174 166
3 171 173 176
3 176 177 178
3 176 178 179
3 180 175 166
3 181 180 166
3 171 176 179
3 179 181 166
3 171 179 166
3 182 183 184
3 185 186 187
3 188 189 190
3 191 192 193
3 194 195 191
3 194 191 193
3 193 196 197
3 197 198 199
3 197 199 200
3 201 194 193
3 165 164 202
3 165 202 201
3 203 165 201
3 193 197 200
3 204 205 206
3 193 200 207
3 203 201 193
3 208 203 193
3 193 207 209
3 210 211 212
3 193 209 213
3 214 208 193
3 215 214 193
3 213 216 217
3 218 219 220
3 221 222 210
3 223 224 225
3 226 227 228
3 229 230 231
3 232 233 234
3 235 236 237
3 238 239 240
3 241 242 243
3 244 245 246
