ply
format ascii 1.0
comment Created by Blender 2.78 (sub 0) - www.blender.org, source file: 'soult.blend'
element vertex 53
property float x
property float y
property float z
property float nx
property float ny
property float nz
element face 31
property list uchar uint vertex_indices
end_header
-19.147972 0.000004 -15.648166 0.000000 -1.000000 -0.000000
-19.211006 0.000004 -15.697314 0.000000 -1.000000 -0.000000
-18.362606 0.000004 -15.371589 0.000000 -1.000000 -0.000000
-19.098614 0.000004 -15.570509 0.000000 -1.000000 -0.000000
-19.078213 0.000004 -15.467187 0.000000 -1.000000 -0.000000
-19.078213 0.000004 -15.467187 0.000001 -1.000000 -0.000007
-18.362606 0.000004 -15.371589 0.000001 -1.000000 -0.000007
-18.927685 -0.000008 -13.714580 0.000001 -1.000000 -0.000007
-19.811771 -0.000000 -12.520230 0.000004 -1.000000 -0.000000
-20.010569 -0.000001 -12.773006 0.000004 -1.000000 -0.000000
-19.091375 0.000004 -15.389530 0.000004 -1.000000 -0.000000
-19.091375 0.000004 -15.389530 -0.000025 -1.000000 -0.000004
-19.078213 0.000004 -15.467187 -0.000025 -1.000000 -0.000004
-18.927685 -0.000008 -13.714580 -0.000025 -1.000000 -0.000004
-13.364077 -0.000000 -9.933280 -0.000000 -1.000000 0.000000
-13.330383 -0.000000 -9.933239 -0.000000 -1.000000 0.000000
-13.284184 -0.000000 -9.901720 -0.000000 -1.000000 0.000000
-19.811771 -0.000000 -12.520230 -0.000016 -1.000000 -0.000005
-19.091375 0.000004 -15.389530 -0.000016 -1.000000 -0.000005
-18.927685 -0.000008 -13.714580 -0.000016 -1.000000 -0.000005
-13.267250 -0.000000 -9.852661 0.000000 -1.000000 0.000000
-19.811771 -0.000000 -12.520230 -0.000002 -1.000000 0.000005
-18.927685 -0.000008 -13.714580 -0.000002 -1.000000 0.000005
-13.364077 -0.000000 -9.933280 -0.000002 -1.000000 0.000005
-19.811771 -0.000000 -12.444747 -0.000000 -1.000000 -0.000000
-19.827406 -0.000000 -12.482489 -0.000000 -1.000000 -0.000000
-19.811771 -0.000000 -12.520230 -0.000000 -1.000000 -0.000000
-19.736288 -0.000000 -12.444747 0.000000 -1.000000 0.000000
-19.774031 -0.000000 -12.429113 0.000000 -1.000000 0.000000
-19.720655 -0.000000 -12.482489 0.000000 -1.000000 -0.000000
-12.925745 -0.000000 -9.646208 0.000000 -1.000000 0.000000
-13.297442 -0.000000 -9.562407 0.000000 -1.000000 0.000000
-13.626974 -0.000000 -9.579306 -0.000000 -1.000000 0.000000
-13.931157 -0.000000 -9.680700 -0.000000 -1.000000 0.000000
-13.931157 -0.000000 -9.680700 -0.000000 -1.000000 0.000001
-14.598669 -0.000000 -9.942636 -0.000000 -1.000000 0.000001
-15.205395 -0.000000 -10.193498 -0.000000 -1.000000 0.000001
-15.205395 -0.000000 -10.193498 -0.000000 -1.000000 0.000000
-18.832993 -0.000001 -11.797020 0.000000 -1.000000 0.000000
-18.869644 -0.000001 -11.826620 0.000000 -1.000000 0.000000
-18.910828 -0.000001 -11.892204 0.000000 -1.000000 0.000000
-19.720655 -0.000000 -12.482489 -0.000004 -1.000000 0.000010
-19.811771 -0.000000 -12.520230 -0.000004 -1.000000 0.000010
-13.267250 -0.000000 -9.852661 -0.000004 -1.000000 0.000010
-18.578205 -0.000001 -11.655513 -0.000000 -1.000000 0.000000
-18.910828 -0.000001 -11.892204 0.000001 -1.000000 -0.000002
-19.720655 -0.000000 -12.482489 0.000001 -1.000000 -0.000002
-13.267250 -0.000000 -9.852661 0.000001 -1.000000 -0.000002
-15.929528 -0.000000 -10.447291 -0.000000 -1.000000 0.000000
-17.303177 -0.000000 -10.950073 0.000000 -1.000000 0.000000
-18.426544 -0.000001 -11.571281 0.000000 -1.000000 0.000000
-16.577452 -0.000000 -10.635694 0.000000 -1.000000 0.000000
-16.889482 -0.000000 -10.722191 0.000000 -1.000000 0.000000
3 0 1 2
3 3 0 2
3 4 3 2
3 5 6 7
3 8 9 10
3 11 12 13
3 14 15 16
3 17 18 19
3 14 16 20
3 21 22 23
3 24 25 26
3 27 28 24
3 29 27 24
3 26 14 20
3 20 30 31
3 31 32 33
3 34 35 36
3 31 33 37
3 29 24 26
3 38 39 40
3 41 42 43
3 44 38 40
3 45 46 47
3 20 31 37
3 20 37 48
3 44 40 20
3 49 50 44
3 51 52 49
3 20 48 51
3 49 44 20
3 20 51 49
