ply
format ascii 1.0
comment Created by Blender 2.78 (sub 0) - www.blender.org, source file: 'soult.blend'
element vertex 136
property float x
property float y
property float z
property float nx
property float ny
property float nz
property float s
property float t
element face 34
property list uchar uint vertex_indices
end_header
-16.638147 0.751056 -10.705172 0.901142 0.352771 -0.251984 0.462952 0.697640
-16.737932 0.756956 -11.053771 0.901142 0.352771 -0.251984 0.549105 0.697640
-16.902912 1.158356 -11.081810 0.901142 0.352771 -0.251984 0.549105 0.783792
-16.758226 1.149801 -10.576376 0.901142 0.352771 -0.251984 0.462952 0.783792
-16.644918 0.758720 -11.007041 -0.733345 0.087605 -0.674189 0.462952 0.697640
-16.889942 0.764621 -10.739756 -0.733345 0.087605 -0.674189 0.549105 0.697640
-17.063656 1.609172 -10.441053 -0.733345 0.087605 -0.674189 0.549105 0.783792
-16.491510 1.595394 -11.065195 -0.733345 0.087605 -0.674189 0.462952 0.783792
-16.880169 0.808626 -10.991986 -0.411600 0.220680 0.884243 0.462952 0.697640
-16.557083 0.741680 -10.827376 -0.411600 0.220680 0.884243 0.549105 0.697640
-16.459679 1.245241 -10.905221 -0.411600 0.220680 0.884243 0.549105 0.783792
-16.928123 1.317864 -11.143888 -0.411600 0.220680 0.884243 0.462952 0.783792
-16.445646 0.628064 -10.625714 0.938100 0.223319 -0.264760 0.462952 0.697640
-16.545437 0.633965 -10.974314 0.938100 0.223319 -0.264760 0.549105 0.697640
-16.704657 1.213022 -11.050043 0.938100 0.223319 -0.264760 0.549105 0.783792
-16.527464 1.202545 -10.431046 0.938100 0.223319 -0.264760 0.462952 0.783792
-16.452423 0.635728 -10.927584 -0.666743 0.413094 -0.620329 0.462952 0.697640
-16.697449 0.641629 -10.660295 -0.666743 0.413094 -0.620329 0.549105 0.697640
-16.670559 1.035006 -10.427237 -0.666743 0.413094 -0.620329 0.549105 0.783792
-16.295855 1.025982 -10.835986 -0.666743 0.413094 -0.620329 0.462952 0.783792
-16.687675 0.612787 -10.912527 -0.444558 0.236101 0.864074 0.462952 0.697640
-16.364590 0.618688 -10.747917 -0.444558 0.236101 0.864074 0.549105 0.697640
-16.299372 1.094204 -10.844292 -0.444558 0.236101 0.864074 0.549105 0.783792
-16.659410 1.087629 -11.027734 -0.444558 0.236101 0.864074 0.462952 0.783792
-16.459835 0.415062 -10.805435 0.922970 0.284312 -0.259408 0.462952 0.697640
-16.559629 0.420963 -11.154032 0.922970 0.284312 -0.259408 0.549105 0.697640
-16.701023 0.854114 -11.182377 0.922970 0.284312 -0.259408 0.549105 0.783792
-16.562723 0.845937 -10.699267 0.922970 0.284312 -0.259408 0.462952 0.783792
-17.659121 0.634987 -11.368834 0.192468 0.352769 0.915702 0.462952 0.697640
-17.358528 0.639992 -11.433942 0.192468 0.352769 0.915702 0.549105 0.697640
-17.325638 0.980465 -11.572021 0.192468 0.352769 0.915702 0.549105 0.783792
-17.761467 0.973208 -11.477619 0.192468 0.352769 0.915702 0.462952 0.783792
-17.403244 0.641488 -11.357808 0.716875 0.141242 -0.682745 0.462952 0.697640
-17.615873 0.646493 -11.580031 0.716875 0.141242 -0.682745 0.549105 0.697640
-17.768148 1.302623 -11.604182 0.716875 0.141242 -0.682745 0.549105 0.783792
-17.406343 1.294107 -11.226052 0.716875 0.141242 -0.682745 0.462952 0.783792
-17.402927 0.683819 -11.557761 -0.855409 0.220681 -0.468588 0.462952 0.697640
-17.560190 0.627034 -11.293439 -0.855409 0.220681 -0.468588 0.549105 0.697640
-17.499708 1.054161 -11.206676 -0.855409 0.220681 -0.468588 0.549105 0.783792
-17.271700 1.115761 -11.589914 -0.855409 0.220681 -0.468588 0.462952 0.783792
-17.583418 0.684437 -10.986509 0.204140 0.201828 0.957911 0.462952 0.697640
-17.282829 0.689442 -11.051621 0.204140 0.201828 0.957911 0.549105 0.697640
-17.250904 1.095095 -11.143895 0.204140 0.201828 0.957911 0.549105 0.783792
-17.667486 1.088159 -11.053656 0.204140 0.201828 0.957911 0.462952 0.783792
-17.327539 0.690938 -10.975487 0.705089 0.234051 -0.669380 0.462952 0.697640
-17.540173 0.695943 -11.197712 0.705089 0.234051 -0.669380 0.549105 0.697640
-17.650223 1.183804 -11.143052 0.705089 0.234051 -0.669380 0.549105 0.783792
-17.355551 1.176867 -10.835084 0.705089 0.234051 -0.669380 0.462952 0.783792
-17.327229 0.671479 -11.175439 -0.838518 0.209803 -0.502862 0.462952 0.697640
-17.484488 0.676484 -10.911119 -0.838518 0.209803 -0.502862 0.549105 0.697640
-17.468309 1.267250 -10.691621 -0.838518 0.209803 -0.502862 0.549105 0.783792
-17.134377 1.256622 -11.252881 -0.838518 0.209803 -0.502862 0.462952 0.783792
-17.737061 0.530664 -11.210314 0.202796 0.223317 0.953417 0.462952 0.697640
-17.436468 0.535669 -11.275425 0.202796 0.223317 0.953417 0.549105 0.697640
-17.363531 1.026833 -11.405982 0.202796 0.223317 0.953417 0.549105 0.783792
-17.897284 1.017946 -11.290370 0.202796 0.223317 0.953417 0.462952 0.783792
-17.481184 0.537165 -11.199291 0.699281 0.267118 -0.663064 0.462952 0.697640
-17.693813 0.542170 -11.421519 0.699281 0.267118 -0.663064 0.549105 0.697640
-17.792574 0.947734 -11.362290 0.699281 0.267118 -0.663064 0.549105 0.783792
-17.555628 0.942157 -11.114650 0.699281 0.267118 -0.663064 0.462952 0.783792
-17.480867 0.517706 -11.399243 -0.833127 0.236100 -0.500157 0.462952 0.697640
-17.638126 0.522711 -11.134925 -0.833127 0.236100 -0.500157 0.549105 0.697640
-17.560179 0.926050 -11.074372 -0.833127 0.236100 -0.500157 0.549105 0.783792
-17.384926 0.920473 -11.368925 -0.833127 0.236100 -0.500157 0.462952 0.783792
-17.584158 0.349993 -11.212347 0.198444 0.284307 0.937971 0.462952 0.697640
-17.283567 0.354998 -11.277460 0.198444 0.284307 0.937971 0.549105 0.697640
-17.251726 0.722402 -11.395559 0.198444 0.284307 0.937971 0.549105 0.783792
-17.668306 0.715466 -11.305323 0.198444 0.284307 0.937971 0.462952 0.783792
-18.331789 0.634987 -11.710944 0.307173 0.352770 0.883854 0.462952 0.697640
-18.041897 0.639992 -11.813688 0.307173 0.352770 0.883854 0.549105 0.697640
-18.026804 0.980464 -11.954827 0.307173 0.352770 0.883854 0.549105 0.783792
-18.447119 0.973208 -11.805854 0.307173 0.352770 0.883854 0.462952 0.783792
-18.076584 0.641488 -11.732494 0.604517 -0.257059 -0.753976 0.462952 0.697640
-18.315706 0.646493 -11.925923 0.604517 -0.257059 -0.753976 0.549105 0.697640
-18.313618 1.123306 -12.086811 0.604517 -0.257059 -0.753976 0.549105 0.783792
-17.906731 1.114790 -11.757678 0.604517 -0.257059 -0.753976 0.462952 0.783792
-18.101656 0.683819 -11.930869 -0.907979 0.220680 -0.356194 0.462952 0.697640
-18.224087 0.627034 -11.648719 -0.907979 0.220680 -0.356194 0.549105 0.697640
-18.153080 1.054161 -11.570338 -0.907979 0.220680 -0.356194 0.549105 0.783792
-17.975571 1.115761 -11.979424 -0.907979 0.220680 -0.356194 0.462952 0.783792
-18.208158 0.684437 -11.341325 0.324108 0.201828 0.924240 0.462952 0.697640
-17.918268 0.689442 -11.444074 0.324108 0.201828 0.924240 0.549105 0.697640
-17.898317 1.095095 -11.539655 0.324108 0.201828 0.924240 0.549105 0.783792
-18.300070 1.088158 -11.397254 0.324108 0.201828 0.924240 0.462952 0.783792
-17.952951 0.690938 -11.362878 0.614397 0.234050 -0.753483 0.462952 0.697640
-18.192078 0.695943 -11.556309 0.614397 0.234050 -0.753483 0.549105 0.697640
-18.294298 1.183804 -11.488119 0.614397 0.234050 -0.753483 0.549105 0.783792
-17.962910 1.176867 -11.220057 0.614397 0.234050 -0.753483 0.462952 0.783792
-17.978027 0.671479 -11.561253 -0.880786 0.272802 -0.387034 0.462952 0.697640
-18.100456 0.676484 -11.279105 -0.880786 0.272802 -0.387034 0.549105 0.697640
-18.029198 1.123134 -11.126451 -0.880786 0.272802 -0.387034 0.549105 0.783792
-17.823912 1.114742 -11.599540 -0.880786 0.272802 -0.387034 0.462952 0.783792
-18.388971 0.530664 -11.543811 0.322206 0.223318 0.919953 0.462952 0.697640
-18.099079 0.535669 -11.646560 0.322206 0.223318 0.919953 0.549105 0.697640
-18.043308 1.026833 -11.785321 0.322206 0.223318 0.919953 0.549105 0.783792
-18.558064 1.017946 -11.602877 0.322206 0.223318 0.919953 0.462952 0.783792
-18.133766 0.537165 -11.565365 0.609438 0.267117 -0.746481 0.462952 0.697640
-18.372889 0.542170 -11.758798 0.609438 0.267117 -0.746481 0.549105 0.697640
-18.463331 0.947734 -11.687510 0.609438 0.267117 -0.746481 0.549105 0.783792
-18.196861 0.942157 -11.471957 0.609438 0.267117 -0.746481 0.462952 0.783792
-18.158840 0.517706 -11.763740 -0.889887 0.236100 -0.390330 0.462952 0.697640
-18.281267 0.522711 -11.481594 -0.889887 0.236100 -0.390330 0.549105 0.697640
-18.196262 0.926050 -11.431427 -0.889887 0.236100 -0.390330 0.549105 0.783792
-18.059826 0.920473 -11.745848 -0.889887 0.236100 -0.390330 0.462952 0.783792
-18.237564 0.349993 -11.565241 0.315930 0.284306 0.905184 0.462952 0.697640
-17.947676 0.354998 -11.667992 0.315930 0.284306 0.905184 0.549105 0.697640
-17.931086 0.722402 -11.789178 0.315930 0.284306 0.905184 0.549105 0.783792
-18.332836 0.715466 -11.646780 0.315930 0.284306 0.905184 0.462952 0.783792
-16.468552 0.751056 -10.847411 -0.243329 0.555531 -0.795095 0.462952 0.697640
-16.814104 0.756956 -10.737539 -0.243329 0.555531 -0.795095 0.549105 0.697640
-16.968605 1.087959 -10.458982 -0.243329 0.555531 -0.795095 0.549105 0.783792
-16.281057 1.076219 -10.677604 -0.243329 0.555531 -0.795095 0.462952 0.783792
-16.770096 0.758720 -10.831872 -0.652831 0.082314 0.753018 0.462952 0.697640
-16.495806 0.764621 -10.594715 -0.652831 0.082314 0.753018 0.549105 0.697640
-16.250963 1.609172 -10.474773 -0.652831 0.082314 0.753018 0.549105 0.783792
-16.891462 1.595394 -11.028543 -0.652831 0.082314 0.753018 0.462952 0.783792
-16.748213 0.808626 -10.597157 0.891921 0.243898 0.380776 0.462952 0.697640
-16.593058 0.741680 -10.924888 0.891921 0.243898 0.380776 0.549105 0.697640
-16.744043 1.537855 -11.074015 0.891921 0.243898 0.380776 0.549105 0.783792
-17.052750 1.637515 -10.421924 0.891921 0.243898 0.380776 0.462952 0.783792
-16.394720 0.628064 -11.042137 -0.290049 0.244297 -0.925306 0.462952 0.697640
-16.740273 0.633965 -10.932261 -0.290049 0.244297 -0.925306 0.549105 0.697640
-16.932934 1.162978 -10.732201 -0.290049 0.244297 -0.925306 0.549105 0.783792
-16.090906 1.148599 -10.999940 -0.290049 0.244297 -0.925306 0.462952 0.783792
-16.696266 0.635728 -11.026592 -0.633555 0.267116 0.726125 0.462952 0.697640
-16.421972 0.641629 -10.789437 -0.633555 0.267116 0.726125 0.549105 0.697640
-16.312651 1.119769 -10.869944 -0.633555 0.267116 0.726125 0.549105 0.783792
-16.618315 1.113193 -11.134221 -0.633555 0.267116 0.726125 0.462952 0.783792
-16.674379 0.612787 -10.791879 0.788353 0.482332 0.381910 0.462952 0.697640
-16.519226 0.618688 -11.119610 0.788353 0.482332 0.381910 0.549105 0.697640
-16.666855 0.999923 -11.296343 0.788353 0.482332 0.381910 0.549105 0.783792
-16.904133 0.990900 -10.795155 0.788353 0.482332 0.381910 0.462952 0.783792
-16.573954 0.415062 -11.022734 -0.286117 0.284309 -0.915044 0.462952 0.697640
-16.919502 0.420963 -10.912853 -0.286117 0.284309 -0.915044 0.549105 0.697640
-16.943729 0.854114 -10.770696 -0.286117 0.284309 -0.915044 0.549105 0.783792
-16.464842 0.845937 -10.922976 -0.286117 0.284309 -0.915044 0.462952 0.783792
4 0 1 2 3
4 4 5 6 7
4 8 9 10 11
4 12 13 14 15
4 16 17 18 19
4 20 21 22 23
4 24 25 26 27
4 28 29 30 31
4 32 33 34 35
4 36 37 38 39
4 40 41 42 43
4 44 45 46 47
4 48 49 50 51
4 52 53 54 55
4 56 57 58 59
4 60 61 62 63
4 64 65 66 67
4 68 69 70 71
4 72 73 74 75
4 76 77 78 79
4 80 81 82 83
4 84 85 86 87
4 88 89 90 91
4 92 93 94 95
4 96 97 98 99
4 100 101 102 103
4 104 105 106 107
4 108 109 110 111
4 112 113 114 115
4 116 117 118 119
4 120 121 122 123
4 124 125 126 127
4 128 129 130 131
4 132 133 134 135
