ply
format ascii 1.0
comment Created by Blender 2.78 (sub 0) - www.blender.org, source file: 'soult.blend'
element vertex 400
property float x
property float y
property float z
property float nx
property float ny
property float nz
property float s
property float t
element face 100
property list uchar uint vertex_indices
end_header
-31.042358 -0.000000 -19.157732 0.000000 -0.000000 -1.000000 0.000100 0.000100
-32.085323 -0.000000 -19.157732 0.000000 -0.000000 -1.000000 0.999900 0.000100
-32.085323 1.158852 -19.157732 0.000000 -0.000000 -1.000000 0.999900 0.999900
-31.042358 1.158852 -19.157732 0.000000 -0.000000 -1.000000 0.000100 0.999900
-31.563841 -0.000000 -19.679214 1.000000 0.000000 0.000000 0.000100 0.000100
-31.563841 1.158852 -19.679216 1.000000 0.000000 0.000000 0.000100 0.999900
-31.563841 1.158852 -18.636248 1.000000 0.000000 0.000000 0.999900 0.999900
-31.563841 -0.000000 -18.636248 1.000000 0.000000 0.000000 0.999900 0.000100
-31.563841 -0.000000 -19.679214 1.000000 0.000000 0.000000 0.000100 0.000100
-31.563841 1.158852 -19.679216 1.000000 0.000000 0.000000 0.000100 0.999900
-31.563841 1.158852 -18.636248 1.000000 0.000000 0.000000 0.999900 0.999900
-31.563841 -0.000000 -18.636248 1.000000 0.000000 0.000000 0.999900 0.000100
-31.042358 -0.000000 -19.157732 0.000000 -0.000000 -1.000000 0.000100 0.000100
-32.085323 -0.000000 -19.157732 0.000000 -0.000000 -1.000000 0.999900 0.000100
-32.085323 1.158852 -19.157732 0.000000 -0.000000 -1.000000 0.999900 0.999900
-31.042358 1.158852 -19.157732 0.000000 -0.000000 -1.000000 0.000100 0.999900
-30.042641 -0.000000 -18.582310 0.000000 -0.000000 -1.000000 0.000100 0.000100
-31.085609 -0.000000 -18.582310 0.000000 -0.000000 -1.000000 0.999900 0.000100
-31.085609 1.158852 -18.582310 0.000000 -0.000000 -1.000000 0.999900 0.999900
-30.042641 1.158852 -18.582310 0.000000 -0.000000 -1.000000 0.000100 0.999900
-30.564125 -0.000000 -19.103794 1.000000 0.000000 0.000000 0.000100 0.000100
-30.564125 1.158852 -19.103794 1.000000 0.000000 0.000000 0.000100 0.999900
-30.564125 1.158852 -18.060825 1.000000 0.000000 0.000000 0.999900 0.999900
-30.564125 -0.000000 -18.060825 1.000000 0.000000 0.000000 0.999900 0.000100
-29.214178 -0.000000 -18.177284 0.000000 -0.000000 -1.000000 0.000100 0.000100
-30.257145 -0.000000 -18.177284 0.000000 -0.000000 -1.000000 0.999900 0.000100
-30.257145 1.158852 -18.177284 0.000000 -0.000000 -1.000000 0.999900 0.999900
-29.214178 1.158852 -18.177284 0.000000 -0.000000 -1.000000 0.000100 0.999900
-29.735661 -0.000000 -18.698767 1.000000 0.000000 0.000000 0.000100 0.000100
-29.735661 1.158852 -18.698767 1.000000 0.000000 0.000000 0.000100 0.999900
-29.735661 1.158852 -17.655800 1.000000 0.000000 0.000000 0.999900 0.999900
-29.735661 -0.000000 -17.655800 1.000000 0.000000 0.000000 0.999900 0.000100
-30.564125 -0.000000 -19.103794 1.000000 0.000000 0.000000 0.000100 0.000100
-30.564125 1.158852 -19.103794 1.000000 0.000000 0.000000 0.000100 0.999900
-30.564125 1.158852 -18.060825 1.000000 0.000000 0.000000 0.999900 0.999900
-30.564125 -0.000000 -18.060825 1.000000 0.000000 0.000000 0.999900 0.000100
-30.042641 -0.000000 -18.582310 0.000000 -0.000000 -1.000000 0.000100 0.000100
-31.085609 -0.000000 -18.582310 0.000000 -0.000000 -1.000000 0.999900 0.000100
-31.085609 1.158852 -18.582310 0.000000 -0.000000 -1.000000 0.999900 0.999900
-30.042641 1.158852 -18.582310 0.000000 -0.000000 -1.000000 0.000100 0.999900
-29.735661 -0.000000 -18.698767 1.000000 0.000000 0.000000 0.000100 0.000100
-29.735661 1.158852 -18.698767 1.000000 0.000000 0.000000 0.000100 0.999900
-29.735661 1.158852 -17.655800 1.000000 0.000000 0.000000 0.999900 0.999900
-29.735661 -0.000000 -17.655800 1.000000 0.000000 0.000000 0.999900 0.000100
-29.214178 -0.000000 -18.177284 0.000000 -0.000000 -1.000000 0.000100 0.000100
-30.257145 -0.000000 -18.177284 0.000000 -0.000000 -1.000000 0.999900 0.000100
-30.257145 1.158852 -18.177284 0.000000 -0.000000 -1.000000 0.999900 0.999900
-29.214178 1.158852 -18.177284 0.000000 -0.000000 -1.000000 0.000100 0.999900
-28.452707 -0.000000 -17.755892 0.000000 -0.000000 -1.000000 0.000100 0.000100
-29.495674 -0.000000 -17.755892 0.000000 -0.000000 -1.000000 0.999900 0.000100
-29.495674 1.158852 -17.755892 0.000000 -0.000000 -1.000000 0.999900 0.999900
-28.452707 1.158852 -17.755892 0.000000 -0.000000 -1.000000 0.000100 0.999900
-28.974190 -0.000000 -18.277374 1.000000 0.000000 0.000000 0.000100 0.000100
-28.974190 1.158852 -18.277376 1.000000 0.000000 0.000000 0.000100 0.999900
-28.974190 1.158852 -17.234409 1.000000 0.000000 0.000000 0.999900 0.999900
-28.974190 -0.000000 -17.234409 1.000000 0.000000 0.000000 0.999900 0.000100
-28.974190 -0.000000 -18.277374 1.000000 0.000000 0.000000 0.000100 0.000100
-28.974190 1.158852 -18.277376 1.000000 0.000000 0.000000 0.000100 0.999900
-28.974190 1.158852 -17.234409 1.000000 0.000000 0.000000 0.999900 0.999900
-28.974190 -0.000000 -17.234409 1.000000 0.000000 0.000000 0.999900 0.000100
-28.452707 -0.000000 -17.755892 0.000000 -0.000000 -1.000000 0.000100 0.000100
-29.495674 -0.000000 -17.755892 0.000000 -0.000000 -1.000000 0.999900 0.000100
-29.495674 1.158852 -17.755892 0.000000 -0.000000 -1.000000 0.999900 0.999900
-28.452707 1.158852 -17.755892 0.000000 -0.000000 -1.000000 0.000100 0.999900
-31.686718 -0.000000 -19.802094 0.000000 -0.000000 -1.000000 0.000100 0.000100
-32.729683 -0.000000 -19.802094 0.000000 -0.000000 -1.000000 0.999900 0.000100
-32.729683 1.158852 -19.802094 0.000000 -0.000000 -1.000000 0.999900 0.999900
-31.686718 1.158852 -19.802094 0.000000 -0.000000 -1.000000 0.000100 0.999900
-32.208202 -0.000000 -20.323576 1.000000 0.000000 0.000000 0.000100 0.000100
-32.208202 1.158852 -20.323576 1.000000 0.000000 0.000000 0.000100 0.999900
-32.208202 1.158852 -19.280609 1.000000 0.000000 0.000000 0.999900 0.999900
-32.208202 -0.000000 -19.280609 1.000000 0.000000 0.000000 0.999900 0.000100
-32.208202 -0.000000 -20.323576 1.000000 0.000000 0.000000 0.000100 0.000100
-32.208202 1.158852 -20.323576 1.000000 0.000000 0.000000 0.000100 0.999900
-32.208202 1.158852 -19.280609 1.000000 0.000000 0.000000 0.999900 0.999900
-32.208202 -0.000000 -19.280609 1.000000 0.000000 0.000000 0.999900 0.000100
-31.686718 -0.000000 -19.802094 0.000000 -0.000000 -1.000000 0.000100 0.000100
-32.729683 -0.000000 -19.802094 0.000000 -0.000000 -1.000000 0.999900 0.000100
-32.729683 1.158852 -19.802094 0.000000 -0.000000 -1.000000 0.999900 0.999900
-31.686718 1.158852 -19.802094 0.000000 -0.000000 -1.000000 0.000100 0.999900
-18.263563 -0.000000 -12.003284 0.000000 -0.000000 -1.000000 0.000100 0.000100
-19.306530 -0.000000 -12.003284 0.000000 -0.000000 -1.000000 0.999900 0.000100
-19.306530 1.158852 -12.003284 0.000000 -0.000000 -1.000000 0.999900 0.999900
-18.263563 1.158852 -12.003284 0.000000 -0.000000 -1.000000 0.000100 0.999900
-18.785048 -0.000000 -12.524768 1.000000 0.000000 0.000000 0.000100 0.000100
-18.785048 1.158852 -12.524768 1.000000 0.000000 0.000000 0.000100 0.999900
-18.785048 1.158852 -11.481800 1.000000 0.000000 0.000000 0.999900 0.999900
-18.785048 -0.000000 -11.481800 1.000000 0.000000 0.000000 0.999900 0.000100
-18.785048 -0.000000 -12.524768 1.000000 0.000000 0.000000 0.000100 0.000100
-18.785048 1.158852 -12.524768 1.000000 0.000000 0.000000 0.000100 0.999900
-18.785048 1.158852 -11.481800 1.000000 0.000000 0.000000 0.999900 0.999900
-18.785048 -0.000000 -11.481800 1.000000 0.000000 0.000000 0.999900 0.000100
-18.263563 -0.000000 -12.003284 0.000000 -0.000000 -1.000000 0.000100 0.000100
-19.306530 -0.000000 -12.003284 0.000000 -0.000000 -1.000000 0.999900 0.000100
-19.306530 1.158852 -12.003284 0.000000 -0.000000 -1.000000 0.999900 0.999900
-18.263563 1.158852 -12.003284 0.000000 -0.000000 -1.000000 0.000100 0.999900
-17.540003 -0.000000 -11.593555 0.000000 -0.000000 -1.000000 0.000100 0.000100
-18.582970 -0.000000 -11.593555 0.000000 -0.000000 -1.000000 0.999900 0.000100
-18.582970 1.158852 -11.593555 0.000000 -0.000000 -1.000000 0.999900 0.999900
-17.540003 1.158852 -11.593555 0.000000 -0.000000 -1.000000 0.000100 0.999900
-18.061485 -0.000000 -12.115039 1.000000 0.000000 0.000000 0.000100 0.000100
-18.061485 1.158852 -12.115040 1.000000 0.000000 0.000000 0.000100 0.999900
-18.061485 1.158852 -11.072072 1.000000 0.000000 0.000000 0.999900 0.999900
-18.061485 -0.000000 -11.072072 1.000000 0.000000 0.000000 0.999900 0.000100
-16.877232 -0.000000 -11.243760 0.000000 -0.000000 -1.000000 0.000100 0.000100
-17.920198 -0.000000 -11.243760 0.000000 -0.000000 -1.000000 0.999900 0.000100
-17.920198 1.158852 -11.243760 0.000000 -0.000000 -1.000000 0.999900 0.999900
-16.877232 1.158852 -11.243760 0.000000 -0.000000 -1.000000 0.000100 0.999900
-17.398716 -0.000000 -11.765244 1.000000 0.000000 0.000000 0.000100 0.000100
-17.398716 1.158852 -11.765244 1.000000 0.000000 0.000000 0.000100 0.999900
-17.398716 1.158852 -10.722277 1.000000 0.000000 0.000000 0.999900 0.999900
-17.398716 -0.000000 -10.722276 1.000000 0.000000 0.000000 0.999900 0.000100
-18.061485 -0.000000 -12.115039 1.000000 0.000000 0.000000 0.000100 0.000100
-18.061485 1.158852 -12.115040 1.000000 0.000000 0.000000 0.000100 0.999900
-18.061485 1.158852 -11.072072 1.000000 0.000000 0.000000 0.999900 0.999900
-18.061485 -0.000000 -11.072072 1.000000 0.000000 0.000000 0.999900 0.000100
-17.540003 -0.000000 -11.593555 0.000000 -0.000000 -1.000000 0.000100 0.000100
-18.582970 -0.000000 -11.593555 0.000000 -0.000000 -1.000000 0.999900 0.000100
-18.582970 1.158852 -11.593555 0.000000 -0.000000 -1.000000 0.999900 0.999900
-17.540003 1.158852 -11.593555 0.000000 -0.000000 -1.000000 0.000100 0.999900
-17.398716 -0.000000 -11.765244 1.000000 0.000000 0.000000 0.000100 0.000100
-17.398716 1.158852 -11.765244 1.000000 0.000000 0.000000 0.000100 0.999900
-17.398716 1.158852 -10.722277 1.000000 0.000000 0.000000 0.999900 0.999900
-17.398716 -0.000000 -10.722276 1.000000 0.000000 0.000000 0.999900 0.000100
-16.877232 -0.000000 -11.243760 0.000000 -0.000000 -1.000000 0.000100 0.000100
-17.920198 -0.000000 -11.243760 0.000000 -0.000000 -1.000000 0.999900 0.000100
-17.920198 1.158852 -11.243760 0.000000 -0.000000 -1.000000 0.999900 0.999900
-16.877232 1.158852 -11.243760 0.000000 -0.000000 -1.000000 0.000100 0.999900
-16.299864 -0.000000 -10.877600 0.000000 -0.000000 -1.000000 0.000100 0.000100
-17.342831 -0.000000 -10.877600 0.000000 -0.000000 -1.000000 0.999900 0.000100
-17.342831 1.158852 -10.877600 0.000000 -0.000000 -1.000000 0.999900 0.999900
-16.299864 1.158852 -10.877600 0.000000 -0.000000 -1.000000 0.000100 0.999900
-16.821346 -0.000000 -11.399082 1.000000 0.000000 0.000000 0.000100 0.000100
-16.821346 1.158852 -11.399083 1.000000 0.000000 0.000000 0.000100 0.999900
-16.821346 1.158852 -10.356115 1.000000 0.000000 0.000000 0.999900 0.999900
-16.821346 -0.000000 -10.356115 1.000000 0.000000 0.000000 0.999900 0.000100
-16.821346 -0.000000 -11.399082 1.000000 0.000000 0.000000 0.000100 0.000100
-16.821346 1.158852 -11.399083 1.000000 0.000000 0.000000 0.000100 0.999900
-16.821346 1.158852 -10.356115 1.000000 0.000000 0.000000 0.999900 0.999900
-16.821346 -0.000000 -10.356115 1.000000 0.000000 0.000000 0.999900 0.000100
-16.299864 -0.000000 -10.877600 0.000000 -0.000000 -1.000000 0.000100 0.000100
-17.342831 -0.000000 -10.877600 0.000000 -0.000000 -1.000000 0.999900 0.000100
-17.342831 1.158852 -10.877600 0.000000 -0.000000 -1.000000 0.999900 0.999900
-16.299864 1.158852 -10.877600 0.000000 -0.000000 -1.000000 0.000100 0.999900
-18.416983 -0.000000 -14.585840 0.000000 -0.000000 -1.000000 0.000100 0.000100
-19.459949 -0.000000 -14.585840 0.000000 -0.000000 -1.000000 0.999900 0.000100
-19.459949 1.158852 -14.585840 0.000000 -0.000000 -1.000000 0.999900 0.999900
-18.416983 1.158852 -14.585840 0.000000 -0.000000 -1.000000 0.000100 0.999900
-18.938465 -0.000000 -15.107324 1.000000 0.000000 0.000000 0.000100 0.000100
-18.938465 1.158852 -15.107325 1.000000 0.000000 0.000000 0.000100 0.999900
-18.938465 1.158852 -14.064357 1.000000 0.000000 0.000000 0.999900 0.999900
-18.938465 -0.000000 -14.064356 1.000000 0.000000 0.000000 0.999900 0.000100
-18.938465 -0.000000 -15.107324 1.000000 0.000000 0.000000 0.000100 0.000100
-18.938465 1.158852 -15.107325 1.000000 0.000000 0.000000 0.000100 0.999900
-18.938465 1.158852 -14.064357 1.000000 0.000000 0.000000 0.999900 0.999900
-18.938465 -0.000000 -14.064356 1.000000 0.000000 0.000000 0.999900 0.000100
-18.416983 -0.000000 -14.585840 0.000000 -0.000000 -1.000000 0.000100 0.000100
-19.459949 -0.000000 -14.585840 0.000000 -0.000000 -1.000000 0.999900 0.000100
-19.459949 1.158852 -14.585840 0.000000 -0.000000 -1.000000 0.999900 0.999900
-18.416983 1.158852 -14.585840 0.000000 -0.000000 -1.000000 0.000100 0.999900
-18.749392 -0.000000 -13.805960 0.000000 -0.000000 -1.000000 0.000100 0.000100
-19.792358 -0.000000 -13.805960 0.000000 -0.000000 -1.000000 0.999900 0.000100
-19.792358 1.158852 -13.805960 0.000000 -0.000000 -1.000000 0.999900 0.999900
-18.749392 1.158852 -13.805960 0.000000 -0.000000 -1.000000 0.000100 0.999900
-19.270874 -0.000000 -14.327443 1.000000 0.000000 0.000000 0.000100 0.000100
-19.270874 1.158852 -14.327443 1.000000 0.000000 0.000000 0.000100 0.999900
-19.270874 1.158852 -13.284476 1.000000 0.000000 0.000000 0.999900 0.999900
-19.270874 -0.000000 -13.284475 1.000000 0.000000 0.000000 0.999900 0.000100
-19.270874 -0.000000 -14.327443 1.000000 0.000000 0.000000 0.000100 0.000100
-19.270874 1.158852 -14.327443 1.000000 0.000000 0.000000 0.000100 0.999900
-19.270874 1.158852 -13.284476 1.000000 0.000000 0.000000 0.999900 0.999900
-19.270874 -0.000000 -13.284475 1.000000 0.000000 0.000000 0.999900 0.000100
-18.749392 -0.000000 -13.805960 0.000000 -0.000000 -1.000000 0.000100 0.000100
-19.792358 -0.000000 -13.805960 0.000000 -0.000000 -1.000000 0.999900 0.000100
-19.792358 1.158852 -13.805960 0.000000 -0.000000 -1.000000 0.999900 0.999900
-18.749392 1.158852 -13.805960 0.000000 -0.000000 -1.000000 0.000100 0.999900
-19.030659 -0.000000 -13.141143 0.000000 -0.000000 -1.000000 0.000100 0.000100
-20.073627 -0.000000 -13.141143 0.000000 -0.000000 -1.000000 0.999900 0.000100
-20.073627 1.158852 -13.141143 0.000000 -0.000000 -1.000000 0.999900 0.999900
-19.030659 1.158852 -13.141143 0.000000 -0.000000 -1.000000 0.000100 0.999900
-19.552143 -0.000000 -13.662626 1.000000 0.000000 0.000000 0.000100 0.000100
-19.552143 1.158852 -13.662627 1.000000 0.000000 0.000000 0.000100 0.999900
-19.552143 1.158852 -12.619659 1.000000 0.000000 0.000000 0.999900 0.999900
-19.552143 -0.000000 -12.619659 1.000000 0.000000 0.000000 0.999900 0.000100
-19.552143 -0.000000 -13.662626 1.000000 0.000000 0.000000 0.000100 0.000100
-19.552143 1.158852 -13.662627 1.000000 0.000000 0.000000 0.000100 0.999900
-19.552143 1.158852 -12.619659 1.000000 0.000000 0.000000 0.999900 0.999900
-19.552143 -0.000000 -12.619659 1.000000 0.000000 0.000000 0.999900 0.000100
-19.030659 -0.000000 -13.141143 0.000000 -0.000000 -1.000000 0.000100 0.000100
-20.073627 -0.000000 -13.141143 0.000000 -0.000000 -1.000000 0.999900 0.000100
-20.073627 1.158852 -13.141143 0.000000 -0.000000 -1.000000 0.999900 0.999900
-19.030659 1.158852 -13.141143 0.000000 -0.000000 -1.000000 0.000100 0.999900
-17.647408 -0.000000 -13.363258 0.024974 0.000000 -0.999688 0.000100 0.000100
-18.690048 -0.000000 -13.389305 0.024974 0.000000 -0.999688 0.999900 0.000100
-18.690048 1.158852 -13.389305 0.024974 0.000000 -0.999688 0.999900 0.999900
-17.647408 1.158852 -13.363258 0.024974 0.000000 -0.999688 0.000100 0.999900
-18.155704 -0.000000 -13.897602 0.999688 0.000000 0.024974 0.000100 0.000100
-18.155704 1.158852 -13.897603 0.999688 0.000000 0.024974 0.000100 0.999900
-18.181751 1.158852 -12.854960 0.999688 0.000000 0.024974 0.999900 0.999900
-18.181751 -0.000000 -12.854959 0.999688 0.000000 0.024974 0.999900 0.000100
-18.155704 -0.000000 -13.897602 0.999688 0.000000 0.024974 0.000100 0.000100
-18.155704 1.158852 -13.897603 0.999688 0.000000 0.024974 0.000100 0.999900
-18.181751 1.158852 -12.854960 0.999688 0.000000 0.024974 0.999900 0.999900
-18.181751 -0.000000 -12.854959 0.999688 0.000000 0.024974 0.999900 0.000100
-17.647408 -0.000000 -13.363258 0.024974 0.000000 -0.999688 0.000100 0.000100
-18.690048 -0.000000 -13.389305 0.024974 0.000000 -0.999688 0.999900 0.000100
-18.690048 1.158852 -13.389305 0.024974 0.000000 -0.999688 0.999900 0.999900
-17.647408 1.158852 -13.363258 0.024974 0.000000 -0.999688 0.000100 0.999900
-16.934303 -0.000000 -12.935587 0.024974 0.000000 -0.999688 0.000100 0.000100
-17.976944 -0.000000 -12.961634 0.024974 0.000000 -0.999688 0.999900 0.000100
-17.976944 1.158852 -12.961634 0.024974 0.000000 -0.999688 0.999900 0.999900
-16.934303 1.158852 -12.935587 0.024974 0.000000 -0.999688 0.000100 0.999900
-17.442600 -0.000000 -13.469932 0.999688 0.000000 0.024974 0.000100 0.000100
-17.442600 1.158852 -13.469932 0.999688 0.000000 0.024974 0.000100 0.999900
-17.468647 1.158852 -12.427290 0.999688 0.000000 0.024974 0.999900 0.999900
-17.468647 -0.000000 -12.427290 0.999688 0.000000 0.024974 0.999900 0.000100
-16.280476 -0.000000 -12.569349 0.024974 0.000000 -0.999688 0.000100 0.000100
-17.323116 -0.000000 -12.595396 0.024974 0.000000 -0.999688 0.999900 0.000100
-17.323116 1.158852 -12.595396 0.024974 0.000000 -0.999688 0.999900 0.999900
-16.280476 1.158852 -12.569349 0.024974 0.000000 -0.999688 0.000100 0.999900
-16.788773 -0.000000 -13.103692 0.999688 0.000000 0.024974 0.000100 0.000100
-16.788773 1.158852 -13.103693 0.999688 0.000000 0.024974 0.000100 0.999900
-16.814819 1.158852 -12.061051 0.999688 0.000000 0.024974 0.999900 0.999900
-16.814819 -0.000000 -12.061050 0.999688 0.000000 0.024974 0.999900 0.000100
-17.442600 -0.000000 -13.469932 0.999688 0.000000 0.024974 0.000100 0.000100
-17.442600 1.158852 -13.469932 0.999688 0.000000 0.024974 0.000100 0.999900
-17.468647 1.158852 -12.427290 0.999688 0.000000 0.024974 0.999900 0.999900
-17.468647 -0.000000 -12.427290 0.999688 0.000000 0.024974 0.999900 0.000100
-16.934303 -0.000000 -12.935587 0.024974 0.000000 -0.999688 0.000100 0.000100
-17.976944 -0.000000 -12.961634 0.024974 0.000000 -0.999688 0.999900 0.000100
-17.976944 1.158852 -12.961634 0.024974 0.000000 -0.999688 0.999900 0.999900
-16.934303 1.158852 -12.935587 0.024974 0.000000 -0.999688 0.000100 0.999900
-16.788773 -0.000000 -13.103692 0.999688 0.000000 0.024974 0.000100 0.000100
-16.788773 1.158852 -13.103693 0.999688 0.000000 0.024974 0.000100 0.999900
-16.814819 1.158852 -12.061051 0.999688 0.000000 0.024974 0.999900 0.999900
-16.814819 -0.000000 -12.061050 0.999688 0.000000 0.024974 0.999900 0.000100
-16.280476 -0.000000 -12.569349 0.024974 0.000000 -0.999688 0.000100 0.000100
-17.323116 -0.000000 -12.595396 0.024974 0.000000 -0.999688 0.999900 0.000100
-17.323116 1.158852 -12.595396 0.024974 0.000000 -0.999688 0.999900 0.999900
-16.280476 1.158852 -12.569349 0.024974 0.000000 -0.999688 0.000100 0.999900
-15.712431 -0.000000 -12.188884 0.024973 0.000000 -0.999688 0.000100 0.000100
-16.755074 -0.000000 -12.214930 0.024973 0.000000 -0.999688 0.999900 0.000100
-16.755074 1.158852 -12.214930 0.024973 0.000000 -0.999688 0.999900 0.999900
-15.712431 1.158852 -12.188884 0.024973 0.000000 -0.999688 0.000100 0.999900
-16.220730 -0.000000 -12.723228 0.999688 0.000000 0.024972 0.000100 0.000100
-16.220730 1.158852 -12.723228 0.999688 0.000000 0.024972 0.000100 0.999900
-16.246775 1.158852 -11.680586 0.999688 0.000000 0.024972 0.999900 0.999900
-16.246775 -0.000000 -11.680586 0.999688 0.000000 0.024972 0.999900 0.000100
-16.220730 -0.000000 -12.723228 0.999688 0.000000 0.024972 0.000100 0.000100
-16.220730 1.158852 -12.723228 0.999688 0.000000 0.024972 0.000100 0.999900
-16.246775 1.158852 -11.680586 0.999688 0.000000 0.024972 0.999900 0.999900
-16.246775 -0.000000 -11.680586 0.999688 0.000000 0.024972 0.999900 0.000100
-15.712431 -0.000000 -12.188884 0.024973 0.000000 -0.999688 0.000100 0.000100
-16.755074 -0.000000 -12.214930 0.024973 0.000000 -0.999688 0.999900 0.000100
-16.755074 1.158852 -12.214930 0.024973 0.000000 -0.999688 0.999900 0.999900
-15.712431 1.158852 -12.188884 0.024973 0.000000 -0.999688 0.000100 0.999900
-15.039280 -0.000000 -11.790711 0.024974 0.000000 -0.999688 0.000100 0.000100
-16.081921 -0.000000 -11.816758 0.024974 0.000000 -0.999688 0.999900 0.000100
-16.081921 1.158852 -11.816758 0.024974 0.000000 -0.999688 0.999900 0.999900
-15.039280 1.158852 -11.790711 0.024974 0.000000 -0.999688 0.000100 0.999900
-15.547577 -0.000000 -12.325056 0.999688 0.000000 0.024974 0.000100 0.000100
-15.547577 1.158852 -12.325056 0.999688 0.000000 0.024974 0.000100 0.999900
-15.573624 1.158852 -11.282413 0.999688 0.000000 0.024974 0.999900 0.999900
-15.573624 -0.000000 -11.282413 0.999688 0.000000 0.024974 0.999900 0.000100
-15.547577 -0.000000 -12.325056 0.999688 0.000000 0.024974 0.000100 0.000100
-15.547577 1.158852 -12.325056 0.999688 0.000000 0.024974 0.000100 0.999900
-15.573624 1.158852 -11.282413 0.999688 0.000000 0.024974 0.999900 0.999900
-15.573624 -0.000000 -11.282413 0.999688 0.000000 0.024974 0.999900 0.000100
-15.039280 -0.000000 -11.790711 0.024974 0.000000 -0.999688 0.000100 0.000100
-16.081921 -0.000000 -11.816758 0.024974 0.000000 -0.999688 0.999900 0.000100
-16.081921 1.158852 -11.816758 0.024974 0.000000 -0.999688 0.999900 0.999900
-15.039280 1.158852 -11.790711 0.024974 0.000000 -0.999688 0.000100 0.999900
-14.517951 -0.000000 -11.426966 0.024974 0.000000 -0.999688 0.000100 0.000100
-15.560593 -0.000000 -11.453012 0.024974 0.000000 -0.999688 0.999900 0.000100
-15.560593 1.158852 -11.453012 0.024974 0.000000 -0.999688 0.999900 0.999900
-14.517951 1.158852 -11.426966 0.024974 0.000000 -0.999688 0.000100 0.999900
-15.026248 -0.000000 -11.961309 0.999688 0.000000 0.024974 0.000100 0.000100
-15.026248 1.158852 -11.961309 0.999688 0.000000 0.024974 0.000100 0.999900
-15.052295 1.158852 -10.918668 0.999688 0.000000 0.024974 0.999900 0.999900
-15.052295 -0.000000 -10.918668 0.999688 0.000000 0.024974 0.999900 0.000100
-13.864122 -0.000000 -11.060727 0.024974 0.000000 -0.999688 0.000100 0.000100
-14.906764 -0.000000 -11.086774 0.024974 0.000000 -0.999688 0.999900 0.000100
-14.906764 1.158852 -11.086774 0.024974 0.000000 -0.999688 0.999900 0.999900
-13.864122 1.158852 -11.060727 0.024974 0.000000 -0.999688 0.000100 0.999900
-14.372419 -0.000000 -11.595070 0.999688 0.000000 0.024974 0.000100 0.000100
-14.372419 1.158852 -11.595071 0.999688 0.000000 0.024974 0.000100 0.999900
-14.398466 1.158852 -10.552429 0.999688 0.000000 0.024974 0.999900 0.999900
-14.398466 -0.000000 -10.552429 0.999688 0.000000 0.024974 0.999900 0.000100
-15.026248 -0.000000 -11.961309 0.999688 0.000000 0.024974 0.000100 0.000100
-15.026248 1.158852 -11.961309 0.999688 0.000000 0.024974 0.000100 0.999900
-15.052295 1.158852 -10.918668 0.999688 0.000000 0.024974 0.999900 0.999900
-15.052295 -0.000000 -10.918668 0.999688 0.000000 0.024974 0.999900 0.000100
-14.517951 -0.000000 -11.426966 0.024974 0.000000 -0.999688 0.000100 0.000100
-15.560593 -0.000000 -11.453012 0.024974 0.000000 -0.999688 0.999900 0.000100
-15.560593 1.158852 -11.453012 0.024974 0.000000 -0.999688 0.999900 0.999900
-14.517951 1.158852 -11.426966 0.024974 0.000000 -0.999688 0.000100 0.999900
-14.372419 -0.000000 -11.595070 0.999688 0.000000 0.024974 0.000100 0.000100
-14.372419 1.158852 -11.595071 0.999688 0.000000 0.024974 0.000100 0.999900
-14.398466 1.158852 -10.552429 0.999688 0.000000 0.024974 0.999900 0.999900
-14.398466 -0.000000 -10.552429 0.999688 0.000000 0.024974 0.999900 0.000100
-13.864122 -0.000000 -11.060727 0.024974 0.000000 -0.999688 0.000100 0.000100
-14.906764 -0.000000 -11.086774 0.024974 0.000000 -0.999688 0.999900 0.000100
-14.906764 1.158852 -11.086774 0.024974 0.000000 -0.999688 0.999900 0.999900
-13.864122 1.158852 -11.060727 0.024974 0.000000 -0.999688 0.000100 0.999900
-12.976456 -0.000000 -10.309499 0.024973 0.000000 -0.999688 0.000100 0.000100
-14.019098 -0.000000 -10.335545 0.024973 0.000000 -0.999688 0.999900 0.000100
-14.019098 1.158852 -10.335545 0.024973 0.000000 -0.999688 0.999900 0.999900
-12.976456 1.158852 -10.309499 0.024973 0.000000 -0.999688 0.000100 0.999900
-13.484754 -0.000000 -10.843843 0.999688 0.000000 0.024973 0.000100 0.000100
-13.484754 1.158852 -10.843843 0.999688 0.000000 0.024973 0.000100 0.999900
-13.510799 1.158852 -9.801201 0.999688 0.000000 0.024973 0.999900 0.999900
-13.510799 -0.000000 -9.801201 0.999688 0.000000 0.024973 0.999900 0.000100
-13.484754 -0.000000 -10.843843 0.999688 0.000000 0.024973 0.000100 0.000100
-13.484754 1.158852 -10.843843 0.999688 0.000000 0.024973 0.000100 0.999900
-13.510799 1.158852 -9.801201 0.999688 0.000000 0.024973 0.999900 0.999900
-13.510799 -0.000000 -9.801201 0.999688 0.000000 0.024973 0.999900 0.000100
-12.976456 -0.000000 -10.309499 0.024973 0.000000 -0.999688 0.000100 0.000100
-14.019098 -0.000000 -10.335545 0.024973 0.000000 -0.999688 0.999900 0.000100
-14.019098 1.158852 -10.335545 0.024973 0.000000 -0.999688 0.999900 0.999900
-12.976456 1.158852 -10.309499 0.024973 0.000000 -0.999688 0.000100 0.999900
-17.699602 -0.000000 -12.594919 0.024973 0.000000 -0.999688 0.000100 0.000100
-18.742245 -0.000000 -12.620965 0.024973 0.000000 -0.999688 0.999900 0.000100
-18.742245 1.158852 -12.620965 0.024973 0.000000 -0.999688 0.999900 0.999900
-17.699602 1.158852 -12.594919 0.024973 0.000000 -0.999688 0.000100 0.999900
-18.207899 -0.000000 -13.129262 0.999688 0.000000 0.024974 0.000100 0.000100
-18.207899 1.158852 -13.129263 0.999688 0.000000 0.024974 0.000100 0.999900
-18.233946 1.158852 -12.086621 0.999688 0.000000 0.024974 0.999900 0.999900
-18.233946 -0.000000 -12.086620 0.999688 0.000000 0.024974 0.999900 0.000100
-18.207899 -0.000000 -13.129262 0.999688 0.000000 0.024974 0.000100 0.000100
-18.207899 1.158852 -13.129263 0.999688 0.000000 0.024974 0.000100 0.999900
-18.233946 1.158852 -12.086621 0.999688 0.000000 0.024974 0.999900 0.999900
-18.233946 -0.000000 -12.086620 0.999688 0.000000 0.024974 0.999900 0.000100
-17.699602 -0.000000 -12.594919 0.024973 0.000000 -0.999688 0.000100 0.000100
-18.742245 -0.000000 -12.620965 0.024973 0.000000 -0.999688 0.999900 0.000100
-18.742245 1.158852 -12.620965 0.024973 0.000000 -0.999688 0.999900 0.999900
-17.699602 1.158852 -12.594919 0.024973 0.000000 -0.999688 0.000100 0.999900
-17.131557 -0.000000 -12.214454 0.024973 0.000000 -0.999688 0.000100 0.000100
-18.174200 -0.000000 -12.240499 0.024973 0.000000 -0.999688 0.999900 0.000100
-18.174200 1.158852 -12.240499 0.024973 0.000000 -0.999688 0.999900 0.999900
-17.131557 1.158852 -12.214454 0.024973 0.000000 -0.999688 0.000100 0.999900
-17.639856 -0.000000 -12.748797 0.999688 0.000000 0.024972 0.000100 0.000100
-17.639856 1.158852 -12.748798 0.999688 0.000000 0.024972 0.000100 0.999900
-17.665901 1.158852 -11.706156 0.999688 0.000000 0.024972 0.999900 0.999900
-17.665901 -0.000000 -11.706156 0.999688 0.000000 0.024972 0.999900 0.000100
-17.639856 -0.000000 -12.748797 0.999688 0.000000 0.024972 0.000100 0.000100
-17.639856 1.158852 -12.748798 0.999688 0.000000 0.024972 0.000100 0.999900
-17.665901 1.158852 -11.706156 0.999688 0.000000 0.024972 0.999900 0.999900
-17.665901 -0.000000 -11.706156 0.999688 0.000000 0.024972 0.999900 0.000100
-17.131557 -0.000000 -12.214454 0.024973 0.000000 -0.999688 0.000100 0.000100
-18.174200 -0.000000 -12.240499 0.024973 0.000000 -0.999688 0.999900 0.000100
-18.174200 1.158852 -12.240499 0.024973 0.000000 -0.999688 0.999900 0.999900
-17.131557 1.158852 -12.214454 0.024973 0.000000 -0.999688 0.000100 0.999900
-15.806376 -0.000000 -11.522228 0.024974 0.000000 -0.999688 0.000100 0.000100
-16.849016 -0.000000 -11.548275 0.024974 0.000000 -0.999688 0.999900 0.000100
-16.849016 1.158852 -11.548275 0.024974 0.000000 -0.999688 0.999900 0.999900
-15.806376 1.158852 -11.522228 0.024974 0.000000 -0.999688 0.000100 0.999900
-16.314672 -0.000000 -12.056572 0.999688 0.000000 0.024974 0.000100 0.000100
-16.314672 1.158852 -12.056573 0.999688 0.000000 0.024974 0.000100 0.999900
-16.340719 1.158852 -11.013930 0.999688 0.000000 0.024974 0.999900 0.999900
-16.340719 -0.000000 -11.013929 0.999688 0.000000 0.024974 0.999900 0.000100
-16.314672 -0.000000 -12.056572 0.999688 0.000000 0.024974 0.000100 0.000100
-16.314672 1.158852 -12.056573 0.999688 0.000000 0.024974 0.000100 0.999900
-16.340719 1.158852 -11.013930 0.999688 0.000000 0.024974 0.999900 0.999900
-16.340719 -0.000000 -11.013929 0.999688 0.000000 0.024974 0.999900 0.000100
-15.806376 -0.000000 -11.522228 0.024974 0.000000 -0.999688 0.000100 0.000100
-16.849016 -0.000000 -11.548275 0.024974 0.000000 -0.999688 0.999900 0.000100
-16.849016 1.158852 -11.548275 0.024974 0.000000 -0.999688 0.999900 0.999900
-15.806376 1.158852 -11.522228 0.024974 0.000000 -0.999688 0.000100 0.999900
-15.285047 -0.000000 -11.158482 0.024974 0.000000 -0.999688 0.000100 0.000100
-16.327688 -0.000000 -11.184528 0.024974 0.000000 -0.999688 0.999900 0.000100
-16.327688 1.158852 -11.184528 0.024974 0.000000 -0.999688 0.999900 0.999900
-15.285047 1.158852 -11.158482 0.024974 0.000000 -0.999688 0.000100 0.999900
-15.793344 -0.000000 -11.692825 0.999688 0.000000 0.024974 0.000100 0.000100
-15.793344 1.158852 -11.692826 0.999688 0.000000 0.024974 0.000100 0.999900
-15.819390 1.158852 -10.650184 0.999688 0.000000 0.024974 0.999900 0.999900
-15.819390 -0.000000 -10.650184 0.999688 0.000000 0.024974 0.999900 0.000100
-14.631218 -0.000000 -10.792244 0.024973 0.000000 -0.999688 0.000100 0.000100
-15.673860 -0.000000 -10.818290 0.024973 0.000000 -0.999688 0.999900 0.000100
-15.673860 1.158852 -10.818290 0.024973 0.000000 -0.999688 0.999900 0.999900
-14.631218 1.158852 -10.792244 0.024973 0.000000 -0.999688 0.000100 0.999900
-15.139515 -0.000000 -11.326587 0.999688 0.000000 0.024974 0.000100 0.000100
-15.139515 1.158852 -11.326588 0.999688 0.000000 0.024974 0.000100 0.999900
-15.165562 1.158852 -10.283946 0.999688 0.000000 0.024974 0.999900 0.999900
-15.165562 -0.000000 -10.283945 0.999688 0.000000 0.024974 0.999900 0.000100
-15.793344 -0.000000 -11.692825 0.999688 0.000000 0.024974 0.000100 0.000100
-15.793344 1.158852 -11.692826 0.999688 0.000000 0.024974 0.000100 0.999900
-15.819390 1.158852 -10.650184 0.999688 0.000000 0.024974 0.999900 0.999900
-15.819390 -0.000000 -10.650184 0.999688 0.000000 0.024974 0.999900 0.000100
-15.285047 -0.000000 -11.158482 0.024974 0.000000 -0.999688 0.000100 0.000100
-16.327688 -0.000000 -11.184528 0.024974 0.000000 -0.999688 0.999900 0.000100
-16.327688 1.158852 -11.184528 0.024974 0.000000 -0.999688 0.999900 0.999900
-15.285047 1.158852 -11.158482 0.024974 0.000000 -0.999688 0.000100 0.999900
-15.139515 -0.000000 -11.326587 0.999688 0.000000 0.024974 0.000100 0.000100
-15.139515 1.158852 -11.326588 0.999688 0.000000 0.024974 0.000100 0.999900
-15.165562 1.158852 -10.283946 0.999688 0.000000 0.024974 0.999900 0.999900
-15.165562 -0.000000 -10.283945 0.999688 0.000000 0.024974 0.999900 0.000100
-14.631218 -0.000000 -10.792244 0.024973 0.000000 -0.999688 0.000100 0.000100
-15.673860 -0.000000 -10.818290 0.024973 0.000000 -0.999688 0.999900 0.000100
-15.673860 1.158852 -10.818290 0.024973 0.000000 -0.999688 0.999900 0.999900
-14.631218 1.158852 -10.792244 0.024973 0.000000 -0.999688 0.000100 0.999900
4 0 1 2 3
4 4 5 6 7
4 8 9 10 11
4 12 13 14 15
4 16 17 18 19
4 20 21 22 23
4 24 25 26 27
4 28 29 30 31
4 32 33 34 35
4 36 37 38 39
4 40 41 42 43
4 44 45 46 47
4 48 49 50 51
4 52 53 54 55
4 56 57 58 59
4 60 61 62 63
4 64 65 66 67
4 68 69 70 71
4 72 73 74 75
4 76 77 78 79
4 80 81 82 83
4 84 85 86 87
4 88 89 90 91
4 92 93 94 95
4 96 97 98 99
4 100 101 102 103
4 104 105 106 107
4 108 109 110 111
4 112 113 114 115
4 116 117 118 119
4 120 121 122 123
4 124 125 126 127
4 128 129 130 131
4 132 133 134 135
4 136 137 138 139
4 140 141 142 143
4 144 145 146 147
4 148 149 150 151
4 152 153 154 155
4 156 157 158 159
4 160 161 162 163
4 164 165 166 167
4 168 169 170 171
4 172 173 174 175
4 176 177 178 179
4 180 181 182 183
4 184 185 186 187
4 188 189 190 191
4 192 193 194 195
4 196 197 198 199
4 200 201 202 203
4 204 205 206 207
4 208 209 210 211
4 212 213 214 215
4 216 217 218 219
4 220 221 222 223
4 224 225 226 227
4 228 229 230 231
4 232 233 234 235
4 236 237 238 239
4 240 241 242 243
4 244 245 246 247
4 248 249 250 251
4 252 253 254 255
4 256 257 258 259
4 260 261 262 263
4 264 265 266 267
4 268 269 270 271
4 272 273 274 275
4 276 277 278 279
4 280 281 282 283
4 284 285 286 287
4 288 289 290 291
4 292 293 294 295
4 296 297 298 299
4 300 301 302 303
4 304 305 306 307
4 308 309 310 311
4 312 313 314 315
4 316 317 318 319
4 320 321 322 323
4 324 325 326 327
4 328 329 330 331
4 332 333 334 335
4 336 337 338 339
4 340 341 342 343
4 344 345 346 347
4 348 349 350 351
4 352 353 354 355
4 356 357 358 359
4 360 361 362 363
4 364 365 366 367
4 368 369 370 371
4 372 373 374 375
4 376 377 378 379
4 380 381 382 383
4 384 385 386 387
4 388 389 390 391
4 392 393 394 395
4 396 397 398 399
