ply
format ascii 1.0
comment Created by Blender 2.78 (sub 0) - www.blender.org, source file: 'soult.blend'
element vertex 64
property float x
property float y
property float z
property float nx
property float ny
property float nz
property float s
property float t
element face 16
property list uchar uint vertex_indices
end_header
-17.360504 -0.000001 -11.608902 -0.000000 0.000000 1.000000 0.000100 0.000100
-17.360504 1.600000 -11.608902 -0.000000 0.000000 1.000000 0.000100 0.999900
-18.800503 1.600000 -11.608902 -0.000000 0.000000 1.000000 0.999900 0.999900
-18.800503 -0.000001 -11.608902 -0.000000 0.000000 1.000000 0.999900 0.000100
-18.080503 -0.000001 -12.328902 -1.000000 -0.000000 0.000000 0.000100 0.000100
-18.080503 -0.000000 -10.888902 -1.000000 -0.000000 0.000000 0.999900 0.000100
-18.080503 1.600000 -10.888902 -1.000000 -0.000000 0.000000 0.999900 0.999900
-18.080503 1.599999 -12.328902 -1.000000 -0.000000 0.000000 0.000100 0.999900
-16.690369 -0.000000 -11.232277 -0.000000 0.000000 1.000000 0.000100 0.000100
-16.690369 1.600000 -11.232277 -0.000000 0.000000 1.000000 0.000100 0.999900
-18.130367 1.600000 -11.232277 -0.000000 0.000000 1.000000 0.999900 0.999900
-18.130367 -0.000000 -11.232277 -0.000000 0.000000 1.000000 0.999900 0.000100
-17.410368 -0.000000 -11.952277 1.000000 0.000000 0.000000 0.000100 0.000100
-17.410368 1.599999 -11.952277 1.000000 0.000000 0.000000 0.000100 0.999900
-17.410368 1.600000 -10.512277 1.000000 0.000000 0.000000 0.999900 0.999900
-17.410368 -0.000000 -10.512277 1.000000 0.000000 0.000000 0.999900 0.000100
-15.963668 -0.000000 -10.848457 0.000000 -0.000000 -1.000000 0.000100 0.000100
-17.403667 -0.000000 -10.848457 0.000000 -0.000000 -1.000000 0.999900 0.000100
-17.403667 1.600000 -10.848457 0.000000 -0.000000 -1.000000 0.999900 0.999900
-15.963668 1.600000 -10.848457 0.000000 -0.000000 -1.000000 0.000100 0.999900
-16.683668 -0.000000 -11.568458 1.000000 0.000000 0.000000 0.000100 0.000100
-16.683668 1.599999 -11.568458 1.000000 0.000000 0.000000 0.000100 0.999900
-16.683668 1.600000 -10.128458 1.000000 0.000000 0.000000 0.999900 0.999900
-16.683668 -0.000000 -10.128457 1.000000 0.000000 0.000000 0.999900 0.000100
-15.256057 -0.000000 -10.463753 0.000000 -0.000000 -1.000000 0.000100 0.000100
-16.696056 -0.000000 -10.463753 0.000000 -0.000000 -1.000000 0.999900 0.000100
-16.696056 1.600000 -10.463753 0.000000 -0.000000 -1.000000 0.999900 0.999900
-15.256057 1.600000 -10.463753 0.000000 -0.000000 -1.000000 0.000100 0.999900
-15.976057 -0.000000 -11.183753 1.000000 0.000000 0.000000 0.000100 0.000100
-15.976057 1.599999 -11.183753 1.000000 0.000000 0.000000 0.000100 0.999900
-15.976057 1.600000 -9.743753 1.000000 0.000000 0.000000 0.999900 0.999900
-15.976057 -0.000000 -9.743752 1.000000 0.000000 0.000000 0.999900 0.000100
-14.557174 -0.000000 -10.072792 -0.000000 0.000000 1.000000 0.000100 0.000100
-14.557174 1.600000 -10.072792 -0.000000 0.000000 1.000000 0.000100 0.999900
-15.997174 1.600000 -10.072792 -0.000000 0.000000 1.000000 0.999900 0.999900
-15.997174 -0.000000 -10.072792 -0.000000 0.000000 1.000000 0.999900 0.000100
-15.277174 -0.000000 -10.792792 1.000000 0.000000 0.000000 0.000100 0.000100
-15.277174 1.600000 -10.792792 1.000000 0.000000 0.000000 0.000100 0.999900
-15.277174 1.600000 -9.352793 1.000000 0.000000 0.000000 0.999900 0.999900
-15.277174 -0.000000 -9.352792 1.000000 0.000000 0.000000 0.999900 0.000100
-18.828415 -0.000001 -12.713837 -0.000000 0.000000 1.000000 0.000100 0.000100
-18.828415 1.600000 -12.713837 -0.000000 0.000000 1.000000 0.000100 0.999900
-20.268414 1.600000 -12.713837 -0.000000 0.000000 1.000000 0.999900 0.999900
-20.268414 -0.000001 -12.713837 -0.000000 0.000000 1.000000 0.999900 0.000100
-19.548414 -0.000001 -13.433837 1.000000 0.000000 0.000000 0.000100 0.000100
-19.548414 1.599999 -13.433837 1.000000 0.000000 0.000000 0.000100 0.999900
-19.548414 1.600000 -11.993836 1.000000 0.000000 0.000000 0.999900 0.999900
-19.548414 -0.000000 -11.993836 1.000000 0.000000 0.000000 0.999900 0.000100
-18.475174 -0.000001 -13.702316 0.000000 -0.000000 -1.000000 0.000100 0.000100
-19.915173 -0.000001 -13.702316 0.000000 -0.000000 -1.000000 0.999900 0.000100
-19.915173 1.599999 -13.702316 0.000000 -0.000000 -1.000000 0.999900 0.999900
-18.475174 1.599999 -13.702316 0.000000 -0.000000 -1.000000 0.000100 0.999900
-19.195173 -0.000001 -14.422317 1.000000 0.000000 0.000000 0.000100 0.000100
-19.195173 1.599999 -14.422317 1.000000 0.000000 0.000000 0.000100 0.999900
-19.195173 1.599999 -12.982316 1.000000 0.000000 0.000000 0.999900 0.999900
-19.195173 -0.000001 -12.982316 1.000000 0.000000 0.000000 0.999900 0.000100
-18.641037 -0.000001 -13.212288 -0.000000 0.000000 1.000000 0.000100 0.000100
-18.641037 1.599999 -13.212288 -0.000000 0.000000 1.000000 0.000100 0.999900
-20.081036 1.599999 -13.212288 -0.000000 0.000000 1.000000 0.999900 0.999900
-20.081036 -0.000001 -13.212288 -0.000000 0.000000 1.000000 0.999900 0.000100
-19.361036 -0.000001 -13.932288 1.000000 0.000000 0.000000 0.000100 0.000100
-19.361036 1.599999 -13.932288 1.000000 0.000000 0.000000 0.000100 0.999900
-19.361036 1.599999 -12.492288 1.000000 0.000000 0.000000 0.999900 0.999900
-19.361036 -0.000000 -12.492288 1.000000 0.000000 0.000000 0.999900 0.000100
4 0 1 2 3
4 4 5 6 7
4 8 9 10 11
4 12 13 14 15
4 16 17 18 19
4 20 21 22 23
4 24 25 26 27
4 28 29 30 31
4 32 33 34 35
4 36 37 38 39
4 40 41 42 43
4 44 45 46 47
4 48 49 50 51
4 52 53 54 55
4 56 57 58 59
4 60 61 62 63
