ply
format ascii 1.0
comment Created by Blender 2.78 (sub 0) - www.blender.org, source file: 'soult.blend'
element vertex 448
property float x
property float y
property float z
property float nx
property float ny
property float nz
property float s
property float t
element face 112
property list uchar uint vertex_indices
end_header
-20.636002 -0.000000 -9.671213 0.000000 -0.000000 -1.000000 0.000100 0.000100
-21.678968 -0.000000 -9.671213 0.000000 -0.000000 -1.000000 0.999900 0.000100
-21.678968 1.158852 -9.671213 0.000000 -0.000000 -1.000000 0.999900 0.999900
-20.636002 1.158852 -9.671213 0.000000 -0.000000 -1.000000 0.000100 0.999900
-21.157486 -0.000000 -10.192697 1.000000 0.000000 0.000000 0.000100 0.000100
-21.157486 1.158852 -10.192698 1.000000 0.000000 0.000000 0.000100 0.999900
-21.157486 1.158852 -9.149730 1.000000 0.000000 0.000000 0.999900 0.999900
-21.157486 -0.000000 -9.149729 1.000000 0.000000 0.000000 0.999900 0.000100
-18.813316 -0.000000 -10.584157 0.000000 -0.000000 -1.000000 0.000100 0.000100
-19.856283 -0.000000 -10.584157 0.000000 -0.000000 -1.000000 0.999900 0.000100
-19.856283 1.158852 -10.584157 0.000000 -0.000000 -1.000000 0.999900 0.999900
-18.813316 1.158852 -10.584157 0.000000 -0.000000 -1.000000 0.000100 0.999900
-19.334799 -0.000000 -11.105640 1.000000 0.000000 0.000000 0.000100 0.000100
-19.334799 1.158852 -11.105640 1.000000 0.000000 0.000000 0.000100 0.999900
-19.334799 1.158852 -10.062674 1.000000 0.000000 0.000000 0.999900 0.999900
-19.334799 -0.000000 -10.062673 1.000000 0.000000 0.000000 0.999900 0.000100
-19.334799 -0.000000 -11.105640 1.000000 0.000000 0.000000 0.000100 0.000100
-19.334799 1.158852 -11.105640 1.000000 0.000000 0.000000 0.000100 0.999900
-19.334799 1.158852 -10.062674 1.000000 0.000000 0.000000 0.999900 0.999900
-19.334799 -0.000000 -10.062673 1.000000 0.000000 0.000000 0.999900 0.000100
-18.813316 -0.000000 -10.584157 0.000000 -0.000000 -1.000000 0.000100 0.000100
-19.856283 -0.000000 -10.584157 0.000000 -0.000000 -1.000000 0.999900 0.000100
-19.856283 1.158852 -10.584157 0.000000 -0.000000 -1.000000 0.999900 0.999900
-18.813316 1.158852 -10.584157 0.000000 -0.000000 -1.000000 0.000100 0.999900
-20.889654 -0.000000 -10.711395 0.000000 -0.000000 -1.000000 0.000100 0.000100
-21.932621 -0.000000 -10.711395 0.000000 -0.000000 -1.000000 0.999900 0.000100
-21.932621 1.158852 -10.711395 0.000000 -0.000000 -1.000000 0.999900 0.999900
-20.889654 1.158852 -10.711395 0.000000 -0.000000 -1.000000 0.000100 0.999900
-21.411139 -0.000000 -11.232879 1.000000 0.000000 0.000000 0.000100 0.000100
-21.411139 1.158852 -11.232879 1.000000 0.000000 0.000000 0.000100 0.999900
-21.411139 1.158852 -10.189912 1.000000 0.000000 0.000000 0.999900 0.999900
-21.411139 -0.000000 -10.189911 1.000000 0.000000 0.000000 0.999900 0.000100
-20.226883 -0.000000 -10.361599 0.000000 -0.000000 -1.000000 0.000100 0.000100
-21.269852 -0.000000 -10.361599 0.000000 -0.000000 -1.000000 0.999900 0.000100
-21.269852 1.158852 -10.361599 0.000000 -0.000000 -1.000000 0.999900 0.999900
-20.226883 1.158852 -10.361599 0.000000 -0.000000 -1.000000 0.000100 0.999900
-20.748367 -0.000000 -10.883082 1.000000 0.000000 0.000000 0.000100 0.000100
-20.748367 1.158852 -10.883083 1.000000 0.000000 0.000000 0.000100 0.999900
-20.748367 1.158852 -9.840117 1.000000 0.000000 0.000000 0.999900 0.999900
-20.748367 -0.000000 -9.840116 1.000000 0.000000 0.000000 0.999900 0.000100
-21.411139 -0.000000 -11.232879 1.000000 0.000000 0.000000 0.000100 0.000100
-21.411139 1.158852 -11.232879 1.000000 0.000000 0.000000 0.000100 0.999900
-21.411139 1.158852 -10.189912 1.000000 0.000000 0.000000 0.999900 0.999900
-21.411139 -0.000000 -10.189911 1.000000 0.000000 0.000000 0.999900 0.000100
-20.889654 -0.000000 -10.711395 0.000000 -0.000000 -1.000000 0.000100 0.000100
-21.932621 -0.000000 -10.711395 0.000000 -0.000000 -1.000000 0.999900 0.000100
-21.932621 1.158852 -10.711395 0.000000 -0.000000 -1.000000 0.999900 0.999900
-20.889654 1.158852 -10.711395 0.000000 -0.000000 -1.000000 0.000100 0.999900
-19.248003 -0.000000 -9.855415 0.000000 -0.000000 -1.000000 0.000100 0.000100
-20.290970 -0.000000 -9.855415 0.000000 -0.000000 -1.000000 0.999900 0.000100
-20.290970 1.158852 -9.855415 0.000000 -0.000000 -1.000000 0.999900 0.999900
-19.248003 1.158852 -9.855415 0.000000 -0.000000 -1.000000 0.000100 0.999900
-19.769487 -0.000000 -10.376900 1.000000 0.000000 0.000000 0.000100 0.000100
-19.769487 1.158852 -10.376900 1.000000 0.000000 0.000000 0.000100 0.999900
-19.769487 1.158852 -9.333933 1.000000 0.000000 0.000000 0.999900 0.999900
-19.769487 -0.000000 -9.333932 1.000000 0.000000 0.000000 0.999900 0.000100
-19.769487 -0.000000 -10.376900 1.000000 0.000000 0.000000 0.000100 0.000100
-19.769487 1.158852 -10.376900 1.000000 0.000000 0.000000 0.000100 0.999900
-19.769487 1.158852 -9.333933 1.000000 0.000000 0.000000 0.999900 0.999900
-19.769487 -0.000000 -9.333932 1.000000 0.000000 0.000000 0.999900 0.000100
-19.248003 -0.000000 -9.855415 0.000000 -0.000000 -1.000000 0.000100 0.000100
-20.290970 -0.000000 -9.855415 0.000000 -0.000000 -1.000000 0.999900 0.000100
-20.290970 1.158852 -9.855415 0.000000 -0.000000 -1.000000 0.999900 0.999900
-19.248003 1.158852 -9.855415 0.000000 -0.000000 -1.000000 0.000100 0.999900
-20.748367 -0.000000 -10.883082 1.000000 0.000000 0.000000 0.000100 0.000100
-20.748367 1.158852 -10.883083 1.000000 0.000000 0.000000 0.000100 0.999900
-20.748367 1.158852 -9.840117 1.000000 0.000000 0.000000 0.999900 0.999900
-20.748367 -0.000000 -9.840116 1.000000 0.000000 0.000000 0.999900 0.000100
-20.226883 -0.000000 -10.361599 0.000000 -0.000000 -1.000000 0.000100 0.000100
-21.269852 -0.000000 -10.361599 0.000000 -0.000000 -1.000000 0.999900 0.000100
-21.269852 1.158852 -10.361599 0.000000 -0.000000 -1.000000 0.999900 0.999900
-20.226883 1.158852 -10.361599 0.000000 -0.000000 -1.000000 0.000100 0.999900
-19.657122 -0.000000 -9.165030 0.000000 -0.000000 -1.000000 0.000100 0.000100
-20.700089 -0.000000 -9.165030 0.000000 -0.000000 -1.000000 0.999900 0.000100
-20.700089 1.158852 -9.165030 0.000000 -0.000000 -1.000000 0.999900 0.999900
-19.657122 1.158852 -9.165030 0.000000 -0.000000 -1.000000 0.000100 0.999900
-20.178604 -0.000000 -9.686513 1.000000 0.000000 0.000000 0.000100 0.000100
-20.178604 1.158852 -9.686514 1.000000 0.000000 0.000000 0.000100 0.999900
-20.178604 1.158852 -8.643546 1.000000 0.000000 0.000000 0.999900 0.999900
-20.178604 -0.000000 -8.643545 1.000000 0.000000 0.000000 0.999900 0.000100
-20.178604 -0.000000 -9.686513 1.000000 0.000000 0.000000 0.000100 0.000100
-20.178604 1.158852 -9.686514 1.000000 0.000000 0.000000 0.000100 0.999900
-20.178604 1.158852 -8.643546 1.000000 0.000000 0.000000 0.999900 0.999900
-20.178604 -0.000000 -8.643545 1.000000 0.000000 0.000000 0.999900 0.000100
-19.657122 -0.000000 -9.165030 0.000000 -0.000000 -1.000000 0.000100 0.000100
-20.700089 -0.000000 -9.165030 0.000000 -0.000000 -1.000000 0.999900 0.000100
-20.700089 1.158852 -9.165030 0.000000 -0.000000 -1.000000 0.999900 0.999900
-19.657122 1.158852 -9.165030 0.000000 -0.000000 -1.000000 0.000100 0.999900
-21.298773 -0.000000 -10.021009 0.000000 -0.000000 -1.000000 0.000100 0.000100
-22.341740 -0.000000 -10.021009 0.000000 -0.000000 -1.000000 0.999900 0.000100
-22.341740 1.158852 -10.021009 0.000000 -0.000000 -1.000000 0.999900 0.999900
-21.298773 1.158852 -10.021009 0.000000 -0.000000 -1.000000 0.000100 0.999900
-21.820255 -0.000000 -10.542492 1.000000 0.000000 0.000000 0.000100 0.000100
-21.820255 1.158852 -10.542493 1.000000 0.000000 0.000000 0.000100 0.999900
-21.820255 1.158852 -9.499525 1.000000 0.000000 0.000000 0.999900 0.999900
-21.820255 -0.000000 -9.499525 1.000000 0.000000 0.000000 0.999900 0.000100
-21.157486 -0.000000 -10.192697 1.000000 0.000000 0.000000 0.000100 0.000100
-21.157486 1.158852 -10.192698 1.000000 0.000000 0.000000 0.000100 0.999900
-21.157486 1.158852 -9.149730 1.000000 0.000000 0.000000 0.999900 0.999900
-21.157486 -0.000000 -9.149729 1.000000 0.000000 0.000000 0.999900 0.000100
-20.636002 -0.000000 -9.671213 0.000000 -0.000000 -1.000000 0.000100 0.000100
-21.678968 -0.000000 -9.671213 0.000000 -0.000000 -1.000000 0.999900 0.000100
-21.678968 1.158852 -9.671213 0.000000 -0.000000 -1.000000 0.999900 0.999900
-20.636002 1.158852 -9.671213 0.000000 -0.000000 -1.000000 0.000100 0.999900
-21.820255 -0.000000 -10.542492 1.000000 0.000000 0.000000 0.000100 0.000100
-21.820255 1.158852 -10.542493 1.000000 0.000000 0.000000 0.000100 0.999900
-21.820255 1.158852 -9.499525 1.000000 0.000000 0.000000 0.999900 0.999900
-21.820255 -0.000000 -9.499525 1.000000 0.000000 0.000000 0.999900 0.000100
-21.298773 -0.000000 -10.021009 0.000000 -0.000000 -1.000000 0.000100 0.000100
-22.341740 -0.000000 -10.021009 0.000000 -0.000000 -1.000000 0.999900 0.000100
-22.341740 1.158852 -10.021009 0.000000 -0.000000 -1.000000 0.999900 0.999900
-21.298773 1.158852 -10.021009 0.000000 -0.000000 -1.000000 0.000100 0.999900
-18.089754 -0.000000 -10.174428 0.000000 -0.000000 -1.000000 0.000100 0.000100
-19.132721 -0.000000 -10.174428 0.000000 -0.000000 -1.000000 0.999900 0.000100
-19.132721 1.158852 -10.174428 0.000000 -0.000000 -1.000000 0.999900 0.999900
-18.089754 1.158852 -10.174428 0.000000 -0.000000 -1.000000 0.000100 0.999900
-18.611238 -0.000000 -10.695911 1.000000 0.000000 0.000000 0.000100 0.000100
-18.611238 1.158852 -10.695911 1.000000 0.000000 0.000000 0.000100 0.999900
-18.611238 1.158852 -9.652945 1.000000 0.000000 0.000000 0.999900 0.999900
-18.611238 -0.000000 -9.652945 1.000000 0.000000 0.000000 0.999900 0.000100
-17.426983 -0.000000 -9.824633 0.000000 -0.000000 -1.000000 0.000100 0.000100
-18.469952 -0.000000 -9.824633 0.000000 -0.000000 -1.000000 0.999900 0.000100
-18.469952 1.158852 -9.824633 0.000000 -0.000000 -1.000000 0.999900 0.999900
-17.426983 1.158852 -9.824633 0.000000 -0.000000 -1.000000 0.000100 0.999900
-17.948467 -0.000000 -10.346115 1.000000 0.000000 0.000000 0.000100 0.000100
-17.948467 1.158852 -10.346116 1.000000 0.000000 0.000000 0.000100 0.999900
-17.948467 1.158852 -9.303149 1.000000 0.000000 0.000000 0.999900 0.999900
-17.948467 -0.000000 -9.303148 1.000000 0.000000 0.000000 0.999900 0.000100
-18.611238 -0.000000 -10.695911 1.000000 0.000000 0.000000 0.000100 0.000100
-18.611238 1.158852 -10.695911 1.000000 0.000000 0.000000 0.000100 0.999900
-18.611238 1.158852 -9.652945 1.000000 0.000000 0.000000 0.999900 0.999900
-18.611238 -0.000000 -9.652945 1.000000 0.000000 0.000000 0.999900 0.000100
-18.089754 -0.000000 -10.174428 0.000000 -0.000000 -1.000000 0.000100 0.000100
-19.132721 -0.000000 -10.174428 0.000000 -0.000000 -1.000000 0.999900 0.000100
-19.132721 1.158852 -10.174428 0.000000 -0.000000 -1.000000 0.999900 0.999900
-18.089754 1.158852 -10.174428 0.000000 -0.000000 -1.000000 0.000100 0.999900
-17.948467 -0.000000 -10.346115 1.000000 0.000000 0.000000 0.000100 0.000100
-17.948467 1.158852 -10.346116 1.000000 0.000000 0.000000 0.000100 0.999900
-17.948467 1.158852 -9.303149 1.000000 0.000000 0.000000 0.999900 0.999900
-17.948467 -0.000000 -9.303148 1.000000 0.000000 0.000000 0.999900 0.000100
-17.426983 -0.000000 -9.824633 0.000000 -0.000000 -1.000000 0.000100 0.000100
-18.469952 -0.000000 -9.824633 0.000000 -0.000000 -1.000000 0.999900 0.000100
-18.469952 1.158852 -9.824633 0.000000 -0.000000 -1.000000 0.999900 0.999900
-17.426983 1.158852 -9.824633 0.000000 -0.000000 -1.000000 0.000100 0.999900
-16.849617 -0.000000 -9.458471 0.000000 -0.000000 -1.000000 0.000100 0.000100
-17.892584 -0.000000 -9.458471 0.000000 -0.000000 -1.000000 0.999900 0.000100
-17.892584 1.158852 -9.458471 0.000000 -0.000000 -1.000000 0.999900 0.999900
-16.849617 1.158852 -9.458471 0.000000 -0.000000 -1.000000 0.000100 0.999900
-17.371099 -0.000000 -9.979956 1.000000 0.000000 0.000000 0.000100 0.000100
-17.371099 1.158852 -9.979956 1.000000 0.000000 0.000000 0.000100 0.999900
-17.371099 1.158852 -8.936989 1.000000 0.000000 0.000000 0.999900 0.999900
-17.371099 -0.000000 -8.936989 1.000000 0.000000 0.000000 0.999900 0.000100
-16.186846 -0.000000 -9.108677 0.000000 -0.000000 -1.000000 0.000100 0.000100
-17.229813 -0.000000 -9.108677 0.000000 -0.000000 -1.000000 0.999900 0.000100
-17.229813 1.158852 -9.108677 0.000000 -0.000000 -1.000000 0.999900 0.999900
-16.186846 1.158852 -9.108677 0.000000 -0.000000 -1.000000 0.000100 0.999900
-16.708328 -0.000000 -9.630159 1.000000 0.000000 0.000000 0.000100 0.000100
-16.708328 1.158852 -9.630159 1.000000 0.000000 0.000000 0.000100 0.999900
-16.708328 1.158852 -8.587193 1.000000 0.000000 0.000000 0.999900 0.999900
-16.708328 -0.000000 -8.587193 1.000000 0.000000 0.000000 0.999900 0.000100
-17.371099 -0.000000 -9.979956 1.000000 0.000000 0.000000 0.000100 0.000100
-17.371099 1.158852 -9.979956 1.000000 0.000000 0.000000 0.000100 0.999900
-17.371099 1.158852 -8.936989 1.000000 0.000000 0.000000 0.999900 0.999900
-17.371099 -0.000000 -8.936989 1.000000 0.000000 0.000000 0.999900 0.000100
-16.849617 -0.000000 -9.458471 0.000000 -0.000000 -1.000000 0.000100 0.000100
-17.892584 -0.000000 -9.458471 0.000000 -0.000000 -1.000000 0.999900 0.000100
-17.892584 1.158852 -9.458471 0.000000 -0.000000 -1.000000 0.999900 0.999900
-16.849617 1.158852 -9.458471 0.000000 -0.000000 -1.000000 0.000100 0.999900
-16.708328 -0.000000 -9.630159 1.000000 0.000000 0.000000 0.000100 0.000100
-16.708328 1.158852 -9.630159 1.000000 0.000000 0.000000 0.000100 0.999900
-16.708328 1.158852 -8.587193 1.000000 0.000000 0.000000 0.999900 0.999900
-16.708328 -0.000000 -8.587193 1.000000 0.000000 0.000000 0.999900 0.000100
-16.186846 -0.000000 -9.108677 0.000000 -0.000000 -1.000000 0.000100 0.000100
-17.229813 -0.000000 -9.108677 0.000000 -0.000000 -1.000000 0.999900 0.000100
-17.229813 1.158852 -9.108677 0.000000 -0.000000 -1.000000 0.999900 0.999900
-16.186846 1.158852 -9.108677 0.000000 -0.000000 -1.000000 0.000100 0.999900
-17.247995 -0.000000 -8.801838 0.000000 -0.000000 -1.000000 0.000100 0.000100
-18.290962 -0.000000 -8.801838 0.000000 -0.000000 -1.000000 0.999900 0.000100
-18.290962 1.158852 -8.801838 0.000000 -0.000000 -1.000000 0.999900 0.999900
-17.247995 1.158852 -8.801838 0.000000 -0.000000 -1.000000 0.000100 0.999900
-17.769478 -0.000000 -9.323320 1.000000 0.000000 0.000000 0.000100 0.000100
-17.769478 1.158852 -9.323321 1.000000 0.000000 0.000000 0.000100 0.999900
-17.769478 1.158852 -8.280354 1.000000 0.000000 0.000000 0.999900 0.999900
-17.769478 -0.000000 -8.280354 1.000000 0.000000 0.000000 0.999900 0.000100
-17.769478 -0.000000 -9.323320 1.000000 0.000000 0.000000 0.000100 0.000100
-17.769478 1.158852 -9.323321 1.000000 0.000000 0.000000 0.000100 0.999900
-17.769478 1.158852 -8.280354 1.000000 0.000000 0.000000 0.999900 0.999900
-17.769478 -0.000000 -8.280354 1.000000 0.000000 0.000000 0.999900 0.000100
-17.247995 -0.000000 -8.801838 0.000000 -0.000000 -1.000000 0.000100 0.000100
-18.290962 -0.000000 -8.801838 0.000000 -0.000000 -1.000000 0.999900 0.000100
-18.290962 1.158852 -8.801838 0.000000 -0.000000 -1.000000 0.999900 0.999900
-17.247995 1.158852 -8.801838 0.000000 -0.000000 -1.000000 0.000100 0.999900
-23.799438 -0.000000 -13.320131 0.000000 -0.000000 -1.000000 0.000100 0.000100
-24.842407 -0.000000 -13.320131 0.000000 -0.000000 -1.000000 0.999900 0.000100
-24.842407 1.158852 -13.320131 0.000000 -0.000000 -1.000000 0.999900 0.999900
-23.799438 1.158852 -13.320131 0.000000 -0.000000 -1.000000 0.000100 0.999900
-24.320923 -0.000000 -13.841616 1.000000 0.000000 0.000000 0.000100 0.000100
-24.320923 1.158852 -13.841616 1.000000 0.000000 0.000000 0.000100 0.999900
-24.320923 1.158852 -12.798648 1.000000 0.000000 0.000000 0.999900 0.999900
-24.320923 -0.000000 -12.798648 1.000000 0.000000 0.000000 0.999900 0.000100
-24.320923 -0.000000 -13.841616 1.000000 0.000000 0.000000 0.000100 0.000100
-24.320923 1.158852 -13.841616 1.000000 0.000000 0.000000 0.000100 0.999900
-24.320923 1.158852 -12.798648 1.000000 0.000000 0.000000 0.999900 0.999900
-24.320923 -0.000000 -12.798648 1.000000 0.000000 0.000000 0.999900 0.000100
-23.799438 -0.000000 -13.320131 0.000000 -0.000000 -1.000000 0.000100 0.000100
-24.842407 -0.000000 -13.320131 0.000000 -0.000000 -1.000000 0.999900 0.000100
-24.842407 1.158852 -13.320131 0.000000 -0.000000 -1.000000 0.999900 0.999900
-23.799438 1.158852 -13.320131 0.000000 -0.000000 -1.000000 0.000100 0.999900
-23.075878 -0.000000 -12.910403 0.000000 -0.000000 -1.000000 0.000100 0.000100
-24.118845 -0.000000 -12.910403 0.000000 -0.000000 -1.000000 0.999900 0.000100
-24.118845 1.158852 -12.910403 0.000000 -0.000000 -1.000000 0.999900 0.999900
-23.075878 1.158852 -12.910403 0.000000 -0.000000 -1.000000 0.000100 0.999900
-23.597363 -0.000000 -13.431887 1.000000 0.000000 0.000000 0.000100 0.000100
-23.597363 1.158852 -13.431887 1.000000 0.000000 0.000000 0.000100 0.999900
-23.597363 1.158852 -12.388920 1.000000 0.000000 0.000000 0.999900 0.999900
-23.597363 -0.000000 -12.388920 1.000000 0.000000 0.000000 0.999900 0.000100
-22.413107 -0.000000 -12.560608 0.000000 -0.000000 -1.000000 0.000100 0.000100
-23.456074 -0.000000 -12.560608 0.000000 -0.000000 -1.000000 0.999900 0.000100
-23.456074 1.158852 -12.560608 0.000000 -0.000000 -1.000000 0.999900 0.999900
-22.413107 1.158852 -12.560608 0.000000 -0.000000 -1.000000 0.000100 0.999900
-22.934591 -0.000000 -13.082090 1.000000 0.000000 0.000000 0.000100 0.000100
-22.934591 1.158852 -13.082091 1.000000 0.000000 0.000000 0.000100 0.999900
-22.934591 1.158852 -12.039124 1.000000 0.000000 0.000000 0.999900 0.999900
-22.934591 -0.000000 -12.039124 1.000000 0.000000 0.000000 0.999900 0.000100
-23.597363 -0.000000 -13.431887 1.000000 0.000000 0.000000 0.000100 0.000100
-23.597363 1.158852 -13.431887 1.000000 0.000000 0.000000 0.000100 0.999900
-23.597363 1.158852 -12.388920 1.000000 0.000000 0.000000 0.999900 0.999900
-23.597363 -0.000000 -12.388920 1.000000 0.000000 0.000000 0.999900 0.000100
-23.075878 -0.000000 -12.910403 0.000000 -0.000000 -1.000000 0.000100 0.000100
-24.118845 -0.000000 -12.910403 0.000000 -0.000000 -1.000000 0.999900 0.000100
-24.118845 1.158852 -12.910403 0.000000 -0.000000 -1.000000 0.999900 0.999900
-23.075878 1.158852 -12.910403 0.000000 -0.000000 -1.000000 0.000100 0.999900
-22.934591 -0.000000 -13.082090 1.000000 0.000000 0.000000 0.000100 0.000100
-22.934591 1.158852 -13.082091 1.000000 0.000000 0.000000 0.000100 0.999900
-22.934591 1.158852 -12.039124 1.000000 0.000000 0.000000 0.999900 0.999900
-22.934591 -0.000000 -12.039124 1.000000 0.000000 0.000000 0.999900 0.000100
-22.413107 -0.000000 -12.560608 0.000000 -0.000000 -1.000000 0.000100 0.000100
-23.456074 -0.000000 -12.560608 0.000000 -0.000000 -1.000000 0.999900 0.000100
-23.456074 1.158852 -12.560608 0.000000 -0.000000 -1.000000 0.999900 0.999900
-22.413107 1.158852 -12.560608 0.000000 -0.000000 -1.000000 0.000100 0.999900
-21.835739 -0.000000 -12.194447 0.000000 -0.000000 -1.000000 0.000100 0.000100
-22.878708 -0.000000 -12.194447 0.000000 -0.000000 -1.000000 0.999900 0.000100
-22.878708 1.158852 -12.194447 0.000000 -0.000000 -1.000000 0.999900 0.999900
-21.835739 1.158852 -12.194447 0.000000 -0.000000 -1.000000 0.000100 0.999900
-22.357224 -0.000000 -12.715930 1.000000 0.000000 0.000000 0.000100 0.000100
-22.357224 1.158852 -12.715931 1.000000 0.000000 0.000000 0.000100 0.999900
-22.357224 1.158852 -11.672963 1.000000 0.000000 0.000000 0.999900 0.999900
-22.357224 -0.000000 -11.672963 1.000000 0.000000 0.000000 0.999900 0.000100
-21.172970 -0.000000 -11.844651 0.000000 -0.000000 -1.000000 0.000100 0.000100
-22.215937 -0.000000 -11.844651 0.000000 -0.000000 -1.000000 0.999900 0.000100
-22.215937 1.158852 -11.844651 0.000000 -0.000000 -1.000000 0.999900 0.999900
-21.172970 1.158852 -11.844651 0.000000 -0.000000 -1.000000 0.000100 0.999900
-21.694452 -0.000000 -12.366135 1.000000 0.000000 0.000000 0.000100 0.000100
-21.694452 1.158852 -12.366135 1.000000 0.000000 0.000000 0.000100 0.999900
-21.694452 1.158852 -11.323168 1.000000 0.000000 0.000000 0.999900 0.999900
-21.694452 -0.000000 -11.323167 1.000000 0.000000 0.000000 0.999900 0.000100
-22.357224 -0.000000 -12.715930 1.000000 0.000000 0.000000 0.000100 0.000100
-22.357224 1.158852 -12.715931 1.000000 0.000000 0.000000 0.000100 0.999900
-22.357224 1.158852 -11.672963 1.000000 0.000000 0.000000 0.999900 0.999900
-22.357224 -0.000000 -11.672963 1.000000 0.000000 0.000000 0.999900 0.000100
-21.835739 -0.000000 -12.194447 0.000000 -0.000000 -1.000000 0.000100 0.000100
-22.878708 -0.000000 -12.194447 0.000000 -0.000000 -1.000000 0.999900 0.000100
-22.878708 1.158852 -12.194447 0.000000 -0.000000 -1.000000 0.999900 0.999900
-21.835739 1.158852 -12.194447 0.000000 -0.000000 -1.000000 0.000100 0.999900
-21.694452 -0.000000 -12.366135 1.000000 0.000000 0.000000 0.000100 0.000100
-21.694452 1.158852 -12.366135 1.000000 0.000000 0.000000 0.000100 0.999900
-21.694452 1.158852 -11.323168 1.000000 0.000000 0.000000 0.999900 0.999900
-21.694452 -0.000000 -11.323167 1.000000 0.000000 0.000000 0.999900 0.000100
-21.172970 -0.000000 -11.844651 0.000000 -0.000000 -1.000000 0.000100 0.000100
-22.215937 -0.000000 -11.844651 0.000000 -0.000000 -1.000000 0.999900 0.000100
-22.215937 1.158852 -11.844651 0.000000 -0.000000 -1.000000 0.999900 0.999900
-21.172970 1.158852 -11.844651 0.000000 -0.000000 -1.000000 0.000100 0.999900
-27.213017 -0.000000 -15.199516 0.000000 -0.000000 -1.000000 0.000100 0.000100
-28.255983 -0.000000 -15.199516 0.000000 -0.000000 -1.000000 0.999900 0.000100
-28.255983 1.158852 -15.199516 0.000000 -0.000000 -1.000000 0.999900 0.999900
-27.213017 1.158852 -15.199516 0.000000 -0.000000 -1.000000 0.000100 0.999900
-27.734499 -0.000000 -15.721000 1.000000 0.000000 0.000000 0.000100 0.000100
-27.734499 1.158852 -15.721001 1.000000 0.000000 0.000000 0.000100 0.999900
-27.734499 1.158852 -14.678033 1.000000 0.000000 0.000000 0.999900 0.999900
-27.734499 -0.000000 -14.678032 1.000000 0.000000 0.000000 0.999900 0.000100
-27.734499 -0.000000 -15.721000 1.000000 0.000000 0.000000 0.000100 0.000100
-27.734499 1.158852 -15.721001 1.000000 0.000000 0.000000 0.000100 0.999900
-27.734499 1.158852 -14.678033 1.000000 0.000000 0.000000 0.999900 0.999900
-27.734499 -0.000000 -14.678032 1.000000 0.000000 0.000000 0.999900 0.000100
-27.213017 -0.000000 -15.199516 0.000000 -0.000000 -1.000000 0.000100 0.000100
-28.255983 -0.000000 -15.199516 0.000000 -0.000000 -1.000000 0.999900 0.000100
-28.255983 1.158852 -15.199516 0.000000 -0.000000 -1.000000 0.999900 0.999900
-27.213017 1.158852 -15.199516 0.000000 -0.000000 -1.000000 0.000100 0.999900
-26.489454 -0.000000 -14.789787 0.000000 -0.000000 -1.000000 0.000100 0.000100
-27.532421 -0.000000 -14.789787 0.000000 -0.000000 -1.000000 0.999900 0.000100
-27.532421 1.158852 -14.789787 0.000000 -0.000000 -1.000000 0.999900 0.999900
-26.489454 1.158852 -14.789787 0.000000 -0.000000 -1.000000 0.000100 0.999900
-27.010939 -0.000000 -15.311271 1.000000 0.000000 0.000000 0.000100 0.000100
-27.010939 1.158852 -15.311272 1.000000 0.000000 0.000000 0.000100 0.999900
-27.010939 1.158852 -14.268304 1.000000 0.000000 0.000000 0.999900 0.999900
-27.010939 -0.000000 -14.268304 1.000000 0.000000 0.000000 0.999900 0.000100
-25.826683 -0.000000 -14.439992 0.000000 -0.000000 -1.000000 0.000100 0.000100
-26.869650 -0.000000 -14.439992 0.000000 -0.000000 -1.000000 0.999900 0.000100
-26.869650 1.158852 -14.439992 0.000000 -0.000000 -1.000000 0.999900 0.999900
-25.826683 1.158852 -14.439992 0.000000 -0.000000 -1.000000 0.000100 0.999900
-26.348167 -0.000000 -14.961475 1.000000 0.000000 0.000000 0.000100 0.000100
-26.348167 1.158852 -14.961475 1.000000 0.000000 0.000000 0.000100 0.999900
-26.348167 1.158852 -13.918509 1.000000 0.000000 0.000000 0.999900 0.999900
-26.348167 -0.000000 -13.918508 1.000000 0.000000 0.000000 0.999900 0.000100
-27.010939 -0.000000 -15.311271 1.000000 0.000000 0.000000 0.000100 0.000100
-27.010939 1.158852 -15.311272 1.000000 0.000000 0.000000 0.000100 0.999900
-27.010939 1.158852 -14.268304 1.000000 0.000000 0.000000 0.999900 0.999900
-27.010939 -0.000000 -14.268304 1.000000 0.000000 0.000000 0.999900 0.000100
-26.489454 -0.000000 -14.789787 0.000000 -0.000000 -1.000000 0.000100 0.000100
-27.532421 -0.000000 -14.789787 0.000000 -0.000000 -1.000000 0.999900 0.000100
-27.532421 1.158852 -14.789787 0.000000 -0.000000 -1.000000 0.999900 0.999900
-26.489454 1.158852 -14.789787 0.000000 -0.000000 -1.000000 0.000100 0.999900
-26.348167 -0.000000 -14.961475 1.000000 0.000000 0.000000 0.000100 0.000100
-26.348167 1.158852 -14.961475 1.000000 0.000000 0.000000 0.000100 0.999900
-26.348167 1.158852 -13.918509 1.000000 0.000000 0.000000 0.999900 0.999900
-26.348167 -0.000000 -13.918508 1.000000 0.000000 0.000000 0.999900 0.000100
-25.826683 -0.000000 -14.439992 0.000000 -0.000000 -1.000000 0.000100 0.000100
-26.869650 -0.000000 -14.439992 0.000000 -0.000000 -1.000000 0.999900 0.000100
-26.869650 1.158852 -14.439992 0.000000 -0.000000 -1.000000 0.999900 0.999900
-25.826683 1.158852 -14.439992 0.000000 -0.000000 -1.000000 0.000100 0.999900
-25.249315 -0.000000 -14.073832 0.000000 -0.000000 -1.000000 0.000100 0.000100
-26.292284 -0.000000 -14.073832 0.000000 -0.000000 -1.000000 0.999900 0.000100
-26.292284 1.158852 -14.073832 0.000000 -0.000000 -1.000000 0.999900 0.999900
-25.249315 1.158852 -14.073832 0.000000 -0.000000 -1.000000 0.000100 0.999900
-25.770800 -0.000000 -14.595315 1.000000 0.000000 0.000000 0.000100 0.000100
-25.770800 1.158852 -14.595315 1.000000 0.000000 0.000000 0.000100 0.999900
-25.770800 1.158852 -13.552348 1.000000 0.000000 0.000000 0.999900 0.999900
-25.770800 -0.000000 -13.552348 1.000000 0.000000 0.000000 0.999900 0.000100
-24.586546 -0.000000 -13.724036 0.000000 -0.000000 -1.000000 0.000100 0.000100
-25.629513 -0.000000 -13.724036 0.000000 -0.000000 -1.000000 0.999900 0.000100
-25.629513 1.158852 -13.724036 0.000000 -0.000000 -1.000000 0.999900 0.999900
-24.586546 1.158852 -13.724036 0.000000 -0.000000 -1.000000 0.000100 0.999900
-25.108028 -0.000000 -14.245519 1.000000 0.000000 0.000000 0.000100 0.000100
-25.108028 1.158852 -14.245520 1.000000 0.000000 0.000000 0.000100 0.999900
-25.108028 1.158852 -13.202553 1.000000 0.000000 0.000000 0.999900 0.999900
-25.108028 -0.000000 -13.202552 1.000000 0.000000 0.000000 0.999900 0.000100
-25.770800 -0.000000 -14.595315 1.000000 0.000000 0.000000 0.000100 0.000100
-25.770800 1.158852 -14.595315 1.000000 0.000000 0.000000 0.000100 0.999900
-25.770800 1.158852 -13.552348 1.000000 0.000000 0.000000 0.999900 0.999900
-25.770800 -0.000000 -13.552348 1.000000 0.000000 0.000000 0.999900 0.000100
-25.249315 -0.000000 -14.073832 0.000000 -0.000000 -1.000000 0.000100 0.000100
-26.292284 -0.000000 -14.073832 0.000000 -0.000000 -1.000000 0.999900 0.000100
-26.292284 1.158852 -14.073832 0.000000 -0.000000 -1.000000 0.999900 0.999900
-25.249315 1.158852 -14.073832 0.000000 -0.000000 -1.000000 0.000100 0.999900
-25.108028 -0.000000 -14.245519 1.000000 0.000000 0.000000 0.000100 0.000100
-25.108028 1.158852 -14.245520 1.000000 0.000000 0.000000 0.000100 0.999900
-25.108028 1.158852 -13.202553 1.000000 0.000000 0.000000 0.999900 0.999900
-25.108028 -0.000000 -13.202552 1.000000 0.000000 0.000000 0.999900 0.000100
-24.586546 -0.000000 -13.724036 0.000000 -0.000000 -1.000000 0.000100 0.000100
-25.629513 -0.000000 -13.724036 0.000000 -0.000000 -1.000000 0.999900 0.000100
-25.629513 1.158852 -13.724036 0.000000 -0.000000 -1.000000 0.999900 0.999900
-24.586546 1.158852 -13.724036 0.000000 -0.000000 -1.000000 0.000100 0.999900
-31.189642 -0.000000 -17.353521 0.000000 -0.000000 -1.000000 0.000100 0.000100
-32.232609 -0.000000 -17.353521 0.000000 -0.000000 -1.000000 0.999900 0.000100
-32.232609 1.158852 -17.353521 0.000000 -0.000000 -1.000000 0.999900 0.999900
-31.189642 1.158852 -17.353521 0.000000 -0.000000 -1.000000 0.000100 0.999900
-31.711124 -0.000000 -17.875006 1.000000 0.000000 0.000000 0.000100 0.000100
-31.711124 1.158852 -17.875006 1.000000 0.000000 0.000000 0.000100 0.999900
-31.711124 1.158852 -16.832039 1.000000 0.000000 0.000000 0.999900 0.999900
-31.711124 -0.000000 -16.832037 1.000000 0.000000 0.000000 0.999900 0.000100
-31.711124 -0.000000 -17.875006 1.000000 0.000000 0.000000 0.000100 0.000100
-31.711124 1.158852 -17.875006 1.000000 0.000000 0.000000 0.000100 0.999900
-31.711124 1.158852 -16.832039 1.000000 0.000000 0.000000 0.999900 0.999900
-31.711124 -0.000000 -16.832037 1.000000 0.000000 0.000000 0.999900 0.000100
-31.189642 -0.000000 -17.353521 0.000000 -0.000000 -1.000000 0.000100 0.000100
-32.232609 -0.000000 -17.353521 0.000000 -0.000000 -1.000000 0.999900 0.000100
-32.232609 1.158852 -17.353521 0.000000 -0.000000 -1.000000 0.999900 0.999900
-31.189642 1.158852 -17.353521 0.000000 -0.000000 -1.000000 0.000100 0.999900
-30.466080 -0.000000 -16.943792 0.000000 -0.000000 -1.000000 0.000100 0.000100
-31.509048 -0.000000 -16.943792 0.000000 -0.000000 -1.000000 0.999900 0.000100
-31.509048 1.158852 -16.943792 0.000000 -0.000000 -1.000000 0.999900 0.999900
-30.466080 1.158852 -16.943792 0.000000 -0.000000 -1.000000 0.000100 0.999900
-30.987564 -0.000000 -17.465277 1.000000 0.000000 0.000000 0.000100 0.000100
-30.987564 1.158852 -17.465277 1.000000 0.000000 0.000000 0.000100 0.999900
-30.987564 1.158852 -16.422310 1.000000 0.000000 0.000000 0.999900 0.999900
-30.987564 -0.000000 -16.422310 1.000000 0.000000 0.000000 0.999900 0.000100
-29.803310 -0.000000 -16.593998 0.000000 -0.000000 -1.000000 0.000100 0.000100
-30.846275 -0.000000 -16.593998 0.000000 -0.000000 -1.000000 0.999900 0.000100
-30.846275 1.158852 -16.593998 0.000000 -0.000000 -1.000000 0.999900 0.999900
-29.803310 1.158852 -16.593998 0.000000 -0.000000 -1.000000 0.000100 0.999900
-30.324793 -0.000000 -17.115480 1.000000 0.000000 0.000000 0.000100 0.000100
-30.324793 1.158852 -17.115480 1.000000 0.000000 0.000000 0.000100 0.999900
-30.324793 1.158852 -16.072514 1.000000 0.000000 0.000000 0.999900 0.999900
-30.324793 -0.000000 -16.072514 1.000000 0.000000 0.000000 0.999900 0.000100
-30.987564 -0.000000 -17.465277 1.000000 0.000000 0.000000 0.000100 0.000100
-30.987564 1.158852 -17.465277 1.000000 0.000000 0.000000 0.000100 0.999900
-30.987564 1.158852 -16.422310 1.000000 0.000000 0.000000 0.999900 0.999900
-30.987564 -0.000000 -16.422310 1.000000 0.000000 0.000000 0.999900 0.000100
-30.466080 -0.000000 -16.943792 0.000000 -0.000000 -1.000000 0.000100 0.000100
-31.509048 -0.000000 -16.943792 0.000000 -0.000000 -1.000000 0.999900 0.000100
-31.509048 1.158852 -16.943792 0.000000 -0.000000 -1.000000 0.999900 0.999900
-30.466080 1.158852 -16.943792 0.000000 -0.000000 -1.000000 0.000100 0.999900
-30.324793 -0.000000 -17.115480 1.000000 0.000000 0.000000 0.000100 0.000100
-30.324793 1.158852 -17.115480 1.000000 0.000000 0.000000 0.000100 0.999900
-30.324793 1.158852 -16.072514 1.000000 0.000000 0.000000 0.999900 0.999900
-30.324793 -0.000000 -16.072514 1.000000 0.000000 0.000000 0.999900 0.000100
-29.803310 -0.000000 -16.593998 0.000000 -0.000000 -1.000000 0.000100 0.000100
-30.846275 -0.000000 -16.593998 0.000000 -0.000000 -1.000000 0.999900 0.000100
-30.846275 1.158852 -16.593998 0.000000 -0.000000 -1.000000 0.999900 0.999900
-29.803310 1.158852 -16.593998 0.000000 -0.000000 -1.000000 0.000100 0.999900
-29.225943 -0.000000 -16.227837 0.000000 -0.000000 -1.000000 0.000100 0.000100
-30.268909 -0.000000 -16.227837 0.000000 -0.000000 -1.000000 0.999900 0.000100
-30.268909 1.158852 -16.227837 0.000000 -0.000000 -1.000000 0.999900 0.999900
-29.225943 1.158852 -16.227837 0.000000 -0.000000 -1.000000 0.000100 0.999900
-29.747425 -0.000000 -16.749321 1.000000 0.000000 0.000000 0.000100 0.000100
-29.747425 1.158852 -16.749321 1.000000 0.000000 0.000000 0.000100 0.999900
-29.747425 1.158852 -15.706353 1.000000 0.000000 0.000000 0.999900 0.999900
-29.747425 -0.000000 -15.706353 1.000000 0.000000 0.000000 0.999900 0.000100
-29.747425 -0.000000 -16.749321 1.000000 0.000000 0.000000 0.000100 0.000100
-29.747425 1.158852 -16.749321 1.000000 0.000000 0.000000 0.000100 0.999900
-29.747425 1.158852 -15.706353 1.000000 0.000000 0.000000 0.999900 0.999900
-29.747425 -0.000000 -15.706353 1.000000 0.000000 0.000000 0.999900 0.000100
-29.225943 -0.000000 -16.227837 0.000000 -0.000000 -1.000000 0.000100 0.000100
-30.268909 -0.000000 -16.227837 0.000000 -0.000000 -1.000000 0.999900 0.000100
-30.268909 1.158852 -16.227837 0.000000 -0.000000 -1.000000 0.999900 0.999900
-29.225943 1.158852 -16.227837 0.000000 -0.000000 -1.000000 0.000100 0.999900
-13.028256 -0.000000 -5.094799 0.000000 -0.000000 -1.000000 0.000100 0.000100
-14.071223 -0.000000 -5.094799 0.000000 -0.000000 -1.000000 0.999900 0.000100
-14.071223 1.158852 -5.094799 0.000000 -0.000000 -1.000000 0.999900 0.999900
-13.028256 1.158852 -5.094799 0.000000 -0.000000 -1.000000 0.000100 0.999900
-13.549741 -0.000000 -5.616282 1.000000 0.000000 0.000000 0.000100 0.000100
-13.549741 1.158852 -5.616282 1.000000 0.000000 0.000000 0.000100 0.999900
-13.549741 1.158852 -4.573316 1.000000 0.000000 0.000000 0.999900 0.999900
-13.549741 -0.000000 -4.573315 1.000000 0.000000 0.000000 0.999900 0.000100
-13.549741 -0.000000 -5.616282 1.000000 0.000000 0.000000 0.000100 0.000100
-13.549741 1.158852 -5.616282 1.000000 0.000000 0.000000 0.000100 0.999900
-13.549741 1.158852 -4.573316 1.000000 0.000000 0.000000 0.999900 0.999900
-13.549741 -0.000000 -4.573315 1.000000 0.000000 0.000000 0.999900 0.000100
-13.028256 -0.000000 -5.094799 0.000000 -0.000000 -1.000000 0.000100 0.000100
-14.071223 -0.000000 -5.094799 0.000000 -0.000000 -1.000000 0.999900 0.000100
-14.071223 1.158852 -5.094799 0.000000 -0.000000 -1.000000 0.999900 0.999900
-13.028256 1.158852 -5.094799 0.000000 -0.000000 -1.000000 0.000100 0.999900
-12.795379 -0.000000 -6.333840 0.000000 -0.000000 -1.000000 0.000100 0.000100
-13.838346 -0.000000 -6.333840 0.000000 -0.000000 -1.000000 0.999900 0.000100
-13.838346 1.158852 -6.333840 0.000000 -0.000000 -1.000000 0.999900 0.999900
-12.795379 1.158852 -6.333840 0.000000 -0.000000 -1.000000 0.000100 0.999900
-13.316863 -0.000000 -6.855323 1.000000 0.000000 0.000000 0.000100 0.000100
-13.316863 1.158852 -6.855324 1.000000 0.000000 0.000000 0.000100 0.999900
-13.316863 1.158852 -5.812357 1.000000 0.000000 0.000000 0.999900 0.999900
-13.316863 -0.000000 -5.812356 1.000000 0.000000 0.000000 0.999900 0.000100
-13.316863 -0.000000 -6.855323 1.000000 0.000000 0.000000 0.000100 0.000100
-13.316863 1.158852 -6.855324 1.000000 0.000000 0.000000 0.000100 0.999900
-13.316863 1.158852 -5.812357 1.000000 0.000000 0.000000 0.999900 0.999900
-13.316863 -0.000000 -5.812356 1.000000 0.000000 0.000000 0.999900 0.000100
-12.795379 -0.000000 -6.333840 0.000000 -0.000000 -1.000000 0.000100 0.000100
-13.838346 -0.000000 -6.333840 0.000000 -0.000000 -1.000000 0.999900 0.000100
-13.838346 1.158852 -6.333840 0.000000 -0.000000 -1.000000 0.999900 0.999900
-12.795379 1.158852 -6.333840 0.000000 -0.000000 -1.000000 0.000100 0.999900
4 0 1 2 3
4 4 5 6 7
4 8 9 10 11
4 12 13 14 15
4 16 17 18 19
4 20 21 22 23
4 24 25 26 27
4 28 29 30 31
4 32 33 34 35
4 36 37 38 39
4 40 41 42 43
4 44 45 46 47
4 48 49 50 51
4 52 53 54 55
4 56 57 58 59
4 60 61 62 63
4 64 65 66 67
4 68 69 70 71
4 72 73 74 75
4 76 77 78 79
4 80 81 82 83
4 84 85 86 87
4 88 89 90 91
4 92 93 94 95
4 96 97 98 99
4 100 101 102 103
4 104 105 106 107
4 108 109 110 111
4 112 113 114 115
4 116 117 118 119
4 120 121 122 123
4 124 125 126 127
4 128 129 130 131
4 132 133 134 135
4 136 137 138 139
4 140 141 142 143
4 144 145 146 147
4 148 149 150 151
4 152 153 154 155
4 156 157 158 159
4 160 161 162 163
4 164 165 166 167
4 168 169 170 171
4 172 173 174 175
4 176 177 178 179
4 180 181 182 183
4 184 185 186 187
4 188 189 190 191
4 192 193 194 195
4 196 197 198 199
4 200 201 202 203
4 204 205 206 207
4 208 209 210 211
4 212 213 214 215
4 216 217 218 219
4 220 221 222 223
4 224 225 226 227
4 228 229 230 231
4 232 233 234 235
4 236 237 238 239
4 240 241 242 243
4 244 245 246 247
4 248 249 250 251
4 252 253 254 255
4 256 257 258 259
4 260 261 262 263
4 264 265 266 267
4 268 269 270 271
4 272 273 274 275
4 276 277 278 279
4 280 281 282 283
4 284 285 286 287
4 288 289 290 291
4 292 293 294 295
4 296 297 298 299
4 300 301 302 303
4 304 305 306 307
4 308 309 310 311
4 312 313 314 315
4 316 317 318 319
4 320 321 322 323
4 324 325 326 327
4 328 329 330 331
4 332 333 334 335
4 336 337 338 339
4 340 341 342 343
4 344 345 346 347
4 348 349 350 351
4 352 353 354 355
4 356 357 358 359
4 360 361 362 363
4 364 365 366 367
4 368 369 370 371
4 372 373 374 375
4 376 377 378 379
4 380 381 382 383
4 384 385 386 387
4 388 389 390 391
4 392 393 394 395
4 396 397 398 399
4 400 401 402 403
4 404 405 406 407
4 408 409 410 411
4 412 413 414 415
4 416 417 418 419
4 420 421 422 423
4 424 425 426 427
4 428 429 430 431
4 432 433 434 435
4 436 437 438 439
4 440 441 442 443
4 444 445 446 447
