ply
format ascii 1.0
comment Created by Blender 2.78 (sub 0) - www.blender.org, source file: 'soult.blend'
element vertex 160
property float x
property float y
property float z
property float nx
property float ny
property float nz
property float s
property float t
element face 40
property list uchar uint vertex_indices
end_header
-30.734564 -0.000000 -11.944883 0.000000 -0.000000 -1.000000 0.000100 0.000100
-31.777531 -0.000000 -11.944883 0.000000 -0.000000 -1.000000 0.999900 0.000100
-31.777531 1.158852 -11.944883 0.000000 -0.000000 -1.000000 0.999900 0.999900
-30.734564 1.158852 -11.944883 0.000000 -0.000000 -1.000000 0.000100 0.999900
-31.256046 -0.000000 -12.466368 1.000000 0.000000 0.000000 0.000100 0.000100
-31.256046 1.158852 -12.466368 1.000000 0.000000 0.000000 0.000100 0.999900
-31.256046 1.158852 -11.423401 1.000000 0.000000 0.000000 0.999900 0.999900
-31.256046 -0.000000 -11.423401 1.000000 0.000000 0.000000 0.999900 0.000100
-31.256046 -0.000000 -12.466368 1.000000 0.000000 0.000000 0.000100 0.000100
-31.256046 1.158852 -12.466368 1.000000 0.000000 0.000000 0.000100 0.999900
-31.256046 1.158852 -11.423401 1.000000 0.000000 0.000000 0.999900 0.999900
-31.256046 -0.000000 -11.423401 1.000000 0.000000 0.000000 0.999900 0.000100
-30.734564 -0.000000 -11.944883 0.000000 -0.000000 -1.000000 0.000100 0.000100
-31.777531 -0.000000 -11.944883 0.000000 -0.000000 -1.000000 0.999900 0.000100
-31.777531 1.158852 -11.944883 0.000000 -0.000000 -1.000000 0.999900 0.999900
-30.734564 1.158852 -11.944883 0.000000 -0.000000 -1.000000 0.000100 0.999900
-31.297100 -0.000000 -11.203358 0.000000 -0.000000 -1.000000 0.000100 0.000100
-32.340069 -0.000000 -11.203358 0.000000 -0.000000 -1.000000 0.999900 0.000100
-32.340069 1.158852 -11.203358 0.000000 -0.000000 -1.000000 0.999900 0.999900
-31.297100 1.158852 -11.203358 0.000000 -0.000000 -1.000000 0.000100 0.999900
-31.818584 -0.000000 -11.724841 1.000000 0.000000 0.000000 0.000100 0.000100
-31.818584 1.158852 -11.724842 1.000000 0.000000 0.000000 0.000100 0.999900
-31.818584 1.158852 -10.681874 1.000000 0.000000 0.000000 0.999900 0.999900
-31.818584 -0.000000 -10.681874 1.000000 0.000000 0.000000 0.999900 0.000100
-31.818584 -0.000000 -11.724841 1.000000 0.000000 0.000000 0.000100 0.000100
-31.818584 1.158852 -11.724842 1.000000 0.000000 0.000000 0.000100 0.999900
-31.818584 1.158852 -10.681874 1.000000 0.000000 0.000000 0.999900 0.999900
-31.818584 -0.000000 -10.681874 1.000000 0.000000 0.000000 0.999900 0.000100
-31.297100 -0.000000 -11.203358 0.000000 -0.000000 -1.000000 0.000100 0.000100
-32.340069 -0.000000 -11.203358 0.000000 -0.000000 -1.000000 0.999900 0.000100
-32.340069 1.158852 -11.203358 0.000000 -0.000000 -1.000000 0.999900 0.999900
-31.297100 1.158852 -11.203358 0.000000 -0.000000 -1.000000 0.000100 0.999900
-31.795713 -0.000000 -10.321198 0.000000 -0.000000 -1.000000 0.000100 0.000100
-32.838680 -0.000000 -10.321198 0.000000 -0.000000 -1.000000 0.999900 0.000100
-32.838680 1.158852 -10.321198 0.000000 -0.000000 -1.000000 0.999900 0.999900
-31.795713 1.158852 -10.321198 0.000000 -0.000000 -1.000000 0.000100 0.999900
-32.317196 -0.000000 -10.842681 1.000000 0.000000 0.000000 0.000100 0.000100
-32.317196 1.158852 -10.842681 1.000000 0.000000 0.000000 0.000100 0.999900
-32.317196 1.158852 -9.799713 1.000000 0.000000 0.000000 0.999900 0.999900
-32.317196 -0.000000 -9.799713 1.000000 0.000000 0.000000 0.999900 0.000100
-32.317196 -0.000000 -10.842681 1.000000 0.000000 0.000000 0.000100 0.000100
-32.317196 1.158852 -10.842681 1.000000 0.000000 0.000000 0.000100 0.999900
-32.317196 1.158852 -9.799713 1.000000 0.000000 0.000000 0.999900 0.999900
-32.317196 -0.000000 -9.799713 1.000000 0.000000 0.000000 0.999900 0.000100
-31.795713 -0.000000 -10.321198 0.000000 -0.000000 -1.000000 0.000100 0.000100
-32.838680 -0.000000 -10.321198 0.000000 -0.000000 -1.000000 0.999900 0.000100
-32.838680 1.158852 -10.321198 0.000000 -0.000000 -1.000000 0.999900 0.999900
-31.795713 1.158852 -10.321198 0.000000 -0.000000 -1.000000 0.000100 0.999900
-32.307110 -0.000000 -9.528532 0.000000 -0.000000 -1.000000 0.000100 0.000100
-33.350079 -0.000000 -9.528532 0.000000 -0.000000 -1.000000 0.999900 0.000100
-33.350079 1.158852 -9.528532 0.000000 -0.000000 -1.000000 0.999900 0.999900
-32.307110 1.158852 -9.528532 0.000000 -0.000000 -1.000000 0.000100 0.999900
-32.828594 -0.000000 -10.050014 1.000000 0.000000 0.000000 0.000100 0.000100
-32.828594 1.158852 -10.050015 1.000000 0.000000 0.000000 0.000100 0.999900
-32.828594 1.158852 -9.007048 1.000000 0.000000 0.000000 0.999900 0.999900
-32.828594 -0.000000 -9.007048 1.000000 0.000000 0.000000 0.999900 0.000100
-32.828594 -0.000000 -10.050014 1.000000 0.000000 0.000000 0.000100 0.000100
-32.828594 1.158852 -10.050015 1.000000 0.000000 0.000000 0.000100 0.999900
-32.828594 1.158852 -9.007048 1.000000 0.000000 0.000000 0.999900 0.999900
-32.828594 -0.000000 -9.007048 1.000000 0.000000 0.000000 0.999900 0.000100
-32.307110 -0.000000 -9.528532 0.000000 -0.000000 -1.000000 0.000100 0.000100
-33.350079 -0.000000 -9.528532 0.000000 -0.000000 -1.000000 0.999900 0.000100
-33.350079 1.158852 -9.528532 0.000000 -0.000000 -1.000000 0.999900 0.999900
-32.307110 1.158852 -9.528532 0.000000 -0.000000 -1.000000 0.000100 0.999900
-32.869648 -0.000000 -8.697512 0.000000 -0.000000 -1.000000 0.000100 0.000100
-33.912613 -0.000000 -8.697512 0.000000 -0.000000 -1.000000 0.999900 0.000100
-33.912613 1.158852 -8.697512 0.000000 -0.000000 -1.000000 0.999900 0.999900
-32.869648 1.158852 -8.697512 0.000000 -0.000000 -1.000000 0.000100 0.999900
-33.391129 -0.000000 -9.218994 1.000000 0.000000 0.000000 0.000100 0.000100
-33.391129 1.158852 -9.218995 1.000000 0.000000 0.000000 0.000100 0.999900
-33.391129 1.158852 -8.176027 1.000000 0.000000 0.000000 0.999900 0.999900
-33.391129 -0.000000 -8.176027 1.000000 0.000000 0.000000 0.999900 0.000100
-33.391129 -0.000000 -9.218994 1.000000 0.000000 0.000000 0.000100 0.000100
-33.391129 1.158852 -9.218995 1.000000 0.000000 0.000000 0.000100 0.999900
-33.391129 1.158852 -8.176027 1.000000 0.000000 0.000000 0.999900 0.999900
-33.391129 -0.000000 -8.176027 1.000000 0.000000 0.000000 0.999900 0.000100
-32.869648 -0.000000 -8.697512 0.000000 -0.000000 -1.000000 0.000100 0.000100
-33.912613 -0.000000 -8.697512 0.000000 -0.000000 -1.000000 0.999900 0.000100
-33.912613 1.158852 -8.697512 0.000000 -0.000000 -1.000000 0.999900 0.999900
-32.869648 1.158852 -8.697512 0.000000 -0.000000 -1.000000 0.000100 0.999900
-33.764591 -0.000000 -7.968770 0.000000 -0.000000 -1.000000 0.000100 0.000100
-34.807560 -0.000000 -7.968770 0.000000 -0.000000 -1.000000 0.999900 0.000100
-34.807560 1.158852 -7.968770 0.000000 -0.000000 -1.000000 0.999900 0.999900
-33.764591 1.158852 -7.968770 0.000000 -0.000000 -1.000000 0.000100 0.999900
-34.286076 -0.000000 -8.490253 1.000000 0.000000 0.000000 0.000100 0.000100
-34.286076 1.158852 -8.490253 1.000000 0.000000 0.000000 0.000100 0.999900
-34.286076 1.158852 -7.447287 1.000000 0.000000 0.000000 0.999900 0.999900
-34.286076 -0.000000 -7.447287 1.000000 0.000000 0.000000 0.999900 0.000100
-34.286076 -0.000000 -8.490253 1.000000 0.000000 0.000000 0.000100 0.000100
-34.286076 1.158852 -8.490253 1.000000 0.000000 0.000000 0.000100 0.999900
-34.286076 1.158852 -7.447287 1.000000 0.000000 0.000000 0.999900 0.999900
-34.286076 -0.000000 -7.447287 1.000000 0.000000 0.000000 0.999900 0.000100
-33.764591 -0.000000 -7.968770 0.000000 -0.000000 -1.000000 0.000100 0.000100
-34.807560 -0.000000 -7.968770 0.000000 -0.000000 -1.000000 0.999900 0.000100
-34.807560 1.158852 -7.968770 0.000000 -0.000000 -1.000000 0.999900 0.999900
-33.764591 1.158852 -7.968770 0.000000 -0.000000 -1.000000 0.000100 0.999900
-31.284315 -0.000000 -12.967679 0.000000 -0.000000 -1.000000 0.000100 0.000100
-32.327282 -0.000000 -12.967679 0.000000 -0.000000 -1.000000 0.999900 0.000100
-32.327282 1.158852 -12.967679 0.000000 -0.000000 -1.000000 0.999900 0.999900
-31.284315 1.158852 -12.967679 0.000000 -0.000000 -1.000000 0.000100 0.999900
-31.805799 -0.000000 -13.489162 1.000000 0.000000 0.000000 0.000100 0.000100
-31.805799 1.158852 -13.489162 1.000000 0.000000 0.000000 0.000100 0.999900
-31.805799 1.158852 -12.446196 1.000000 0.000000 0.000000 0.999900 0.999900
-31.805799 -0.000000 -12.446196 1.000000 0.000000 0.000000 0.999900 0.000100
-31.805799 -0.000000 -13.489162 1.000000 0.000000 0.000000 0.000100 0.000100
-31.805799 1.158852 -13.489162 1.000000 0.000000 0.000000 0.000100 0.999900
-31.805799 1.158852 -12.446196 1.000000 0.000000 0.000000 0.999900 0.999900
-31.805799 -0.000000 -12.446196 1.000000 0.000000 0.000000 0.999900 0.000100
-31.284315 -0.000000 -12.967679 0.000000 -0.000000 -1.000000 0.000100 0.000100
-32.327282 -0.000000 -12.967679 0.000000 -0.000000 -1.000000 0.999900 0.000100
-32.327282 1.158852 -12.967679 0.000000 -0.000000 -1.000000 0.999900 0.999900
-31.284315 1.158852 -12.967679 0.000000 -0.000000 -1.000000 0.000100 0.999900
-31.936348 -0.000000 -13.300087 0.000000 -0.000000 -1.000000 0.000100 0.000100
-32.979313 -0.000000 -13.300087 0.000000 -0.000000 -1.000000 0.999900 0.000100
-32.979313 1.158852 -13.300087 0.000000 -0.000000 -1.000000 0.999900 0.999900
-31.936348 1.158852 -13.300087 0.000000 -0.000000 -1.000000 0.000100 0.999900
-32.457832 -0.000000 -13.821570 1.000000 0.000000 0.000000 0.000100 0.000100
-32.457832 1.158852 -13.821571 1.000000 0.000000 0.000000 0.000100 0.999900
-32.457832 1.158852 -12.778604 1.000000 0.000000 0.000000 0.999900 0.999900
-32.457832 -0.000000 -12.778604 1.000000 0.000000 0.000000 0.999900 0.000100
-32.457832 -0.000000 -13.821570 1.000000 0.000000 0.000000 0.000100 0.000100
-32.457832 1.158852 -13.821571 1.000000 0.000000 0.000000 0.000100 0.999900
-32.457832 1.158852 -12.778604 1.000000 0.000000 0.000000 0.999900 0.999900
-32.457832 -0.000000 -12.778604 1.000000 0.000000 0.000000 0.999900 0.000100
-31.936348 -0.000000 -13.300087 0.000000 -0.000000 -1.000000 0.000100 0.000100
-32.979313 -0.000000 -13.300087 0.000000 -0.000000 -1.000000 0.999900 0.000100
-32.979313 1.158852 -13.300087 0.000000 -0.000000 -1.000000 0.999900 0.999900
-31.936348 1.158852 -13.300087 0.000000 -0.000000 -1.000000 0.000100 0.999900
-32.741798 -0.000000 -13.658065 0.000000 -0.000000 -1.000000 0.000100 0.000100
-33.784767 -0.000000 -13.658065 0.000000 -0.000000 -1.000000 0.999900 0.000100
-33.784767 1.158852 -13.658065 0.000000 -0.000000 -1.000000 0.999900 0.999900
-32.741798 1.158852 -13.658065 0.000000 -0.000000 -1.000000 0.000100 0.999900
-33.263283 -0.000000 -14.179549 1.000000 0.000000 0.000000 0.000100 0.000100
-33.263283 1.158852 -14.179549 1.000000 0.000000 0.000000 0.000100 0.999900
-33.263283 1.158852 -13.136581 1.000000 0.000000 0.000000 0.999900 0.999900
-33.263283 -0.000000 -13.136581 1.000000 0.000000 0.000000 0.999900 0.000100
-33.263283 -0.000000 -14.179549 1.000000 0.000000 0.000000 0.000100 0.000100
-33.263283 1.158852 -14.179549 1.000000 0.000000 0.000000 0.000100 0.999900
-33.263283 1.158852 -13.136581 1.000000 0.000000 0.000000 0.999900 0.999900
-33.263283 -0.000000 -13.136581 1.000000 0.000000 0.000000 0.999900 0.000100
-32.741798 -0.000000 -13.658065 0.000000 -0.000000 -1.000000 0.000100 0.000100
-33.784767 -0.000000 -13.658065 0.000000 -0.000000 -1.000000 0.999900 0.000100
-33.784767 1.158852 -13.658065 0.000000 -0.000000 -1.000000 0.999900 0.999900
-32.741798 1.158852 -13.658065 0.000000 -0.000000 -1.000000 0.000100 0.999900
-30.708994 -0.000000 -12.673625 0.000000 -0.000000 -1.000000 0.000100 0.000100
-31.751961 -0.000000 -12.673625 0.000000 -0.000000 -1.000000 0.999900 0.000100
-31.751961 1.158852 -12.673625 0.000000 -0.000000 -1.000000 0.999900 0.999900
-30.708994 1.158852 -12.673625 0.000000 -0.000000 -1.000000 0.000100 0.999900
-31.230476 -0.000000 -13.195108 1.000000 0.000000 0.000000 0.000100 0.000100
-31.230476 1.158852 -13.195108 1.000000 0.000000 0.000000 0.000100 0.999900
-31.230476 1.158852 -12.152142 1.000000 0.000000 0.000000 0.999900 0.999900
-31.230476 -0.000000 -12.152142 1.000000 0.000000 0.000000 0.999900 0.000100
-31.230476 -0.000000 -13.195108 1.000000 0.000000 0.000000 0.000100 0.000100
-31.230476 1.158852 -13.195108 1.000000 0.000000 0.000000 0.000100 0.999900
-31.230476 1.158852 -12.152142 1.000000 0.000000 0.000000 0.999900 0.999900
-31.230476 -0.000000 -12.152142 1.000000 0.000000 0.000000 0.999900 0.000100
-30.708994 -0.000000 -12.673625 0.000000 -0.000000 -1.000000 0.000100 0.000100
-31.751961 -0.000000 -12.673625 0.000000 -0.000000 -1.000000 0.999900 0.000100
-31.751961 1.158852 -12.673625 0.000000 -0.000000 -1.000000 0.999900 0.999900
-30.708994 1.158852 -12.673625 0.000000 -0.000000 -1.000000 0.000100 0.999900
4 0 1 2 3
4 4 5 6 7
4 8 9 10 11
4 12 13 14 15
4 16 17 18 19
4 20 21 22 23
4 24 25 26 27
4 28 29 30 31
4 32 33 34 35
4 36 37 38 39
4 40 41 42 43
4 44 45 46 47
4 48 49 50 51
4 52 53 54 55
4 56 57 58 59
4 60 61 62 63
4 64 65 66 67
4 68 69 70 71
4 72 73 74 75
4 76 77 78 79
4 80 81 82 83
4 84 85 86 87
4 88 89 90 91
4 92 93 94 95
4 96 97 98 99
4 100 101 102 103
4 104 105 106 107
4 108 109 110 111
4 112 113 114 115
4 116 117 118 119
4 120 121 122 123
4 124 125 126 127
4 128 129 130 131
4 132 133 134 135
4 136 137 138 139
4 140 141 142 143
4 144 145 146 147
4 148 149 150 151
4 152 153 154 155
4 156 157 158 159
