ply
format ascii 1.0
comment Created by Blender 2.78 (sub 0) - www.blender.org, source file: 'soult.blend'
element vertex 152
property float x
property float y
property float z
property float nx
property float ny
property float nz
property float s
property float t
element face 38
property list uchar uint vertex_indices
end_header
-27.634018 -0.000001 -14.643417 0.000000 -0.000000 -1.000000 0.000100 0.000100
-29.074017 -0.000001 -14.643417 0.000000 -0.000000 -1.000000 0.999900 0.000100
-29.074017 1.599999 -14.643417 0.000000 -0.000000 -1.000000 0.999900 0.999900
-27.634018 1.599999 -14.643417 0.000000 -0.000000 -1.000000 0.000100 0.999900
-28.354017 -0.000001 -15.363418 -1.000000 -0.000000 0.000000 0.000100 0.000100
-28.354017 -0.000001 -13.923417 -1.000000 -0.000000 0.000000 0.999900 0.000100
-28.354017 1.599999 -13.923417 -1.000000 -0.000000 0.000000 0.999900 0.999900
-28.354017 1.599999 -15.363418 -1.000000 -0.000000 0.000000 0.000100 0.999900
-26.859756 -0.000001 -14.251175 0.000000 -0.000000 -1.000000 0.000100 0.000100
-28.299755 -0.000001 -14.251175 0.000000 -0.000000 -1.000000 0.999900 0.000100
-28.299755 1.599999 -14.251175 0.000000 -0.000000 -1.000000 0.999900 0.999900
-26.859756 1.599999 -14.251175 0.000000 -0.000000 -1.000000 0.000100 0.999900
-27.579756 -0.000001 -14.971175 -1.000000 -0.000000 0.000000 0.000100 0.000100
-27.579756 -0.000001 -13.531175 -1.000000 -0.000000 0.000000 0.999900 0.000100
-27.579756 1.599999 -13.531175 -1.000000 -0.000000 0.000000 0.999900 0.999900
-27.579756 1.599999 -14.971175 -1.000000 -0.000000 0.000000 0.000100 0.999900
-26.137177 -0.000001 -13.834229 -0.000000 0.000000 1.000000 0.000100 0.000100
-26.137177 1.599999 -13.834229 -0.000000 0.000000 1.000000 0.000100 0.999900
-27.577175 1.599999 -13.834229 -0.000000 0.000000 1.000000 0.999900 0.999900
-27.577175 -0.000001 -13.834229 -0.000000 0.000000 1.000000 0.999900 0.000100
-26.857176 -0.000001 -14.554229 -1.000000 -0.000000 0.000000 0.000100 0.000100
-26.857176 -0.000001 -13.114228 -1.000000 -0.000000 0.000000 0.999900 0.000100
-26.857176 1.599999 -13.114228 -1.000000 -0.000000 0.000000 0.999900 0.999900
-26.857176 1.599999 -14.554229 -1.000000 -0.000000 0.000000 0.000100 0.999900
-25.447876 -0.000001 -13.452888 0.000000 -0.000000 -1.000000 0.000100 0.000100
-26.887875 -0.000001 -13.452888 0.000000 -0.000000 -1.000000 0.999900 0.000100
-26.887875 1.599999 -13.452888 0.000000 -0.000000 -1.000000 0.999900 0.999900
-25.447876 1.599999 -13.452888 0.000000 -0.000000 -1.000000 0.000100 0.999900
-26.167875 -0.000001 -14.172889 -1.000000 -0.000000 0.000000 0.000100 0.000100
-26.167875 -0.000000 -12.732888 -1.000000 -0.000000 0.000000 0.999900 0.000100
-26.167875 1.599999 -12.732888 -1.000000 -0.000000 0.000000 0.999900 0.999900
-26.167875 1.599999 -14.172889 -1.000000 -0.000000 0.000000 0.000100 0.999900
-20.472992 -0.000000 -10.697632 0.000000 -0.000000 -1.000000 0.000100 0.000100
-21.912991 -0.000000 -10.697632 0.000000 -0.000000 -1.000000 0.999900 0.000100
-21.912991 1.600000 -10.697632 0.000000 -0.000000 -1.000000 0.999900 0.999900
-20.472992 1.600000 -10.697632 0.000000 -0.000000 -1.000000 0.000100 0.999900
-21.192991 -0.000000 -11.417632 1.000000 0.000000 0.000000 0.000100 0.000100
-21.192991 1.599999 -11.417632 1.000000 0.000000 0.000000 0.000100 0.999900
-21.192991 1.600000 -9.977633 1.000000 0.000000 0.000000 0.999900 0.999900
-21.192991 -0.000000 -9.977632 1.000000 0.000000 0.000000 0.999900 0.000100
-23.311478 -0.000001 -12.288612 -0.000000 0.000000 1.000000 0.000100 0.000100
-23.311478 1.600000 -12.288612 -0.000000 0.000000 1.000000 0.000100 0.999900
-24.751476 1.600000 -12.288612 -0.000000 0.000000 1.000000 0.999900 0.999900
-24.751476 -0.000001 -12.288612 -0.000000 0.000000 1.000000 0.999900 0.000100
-24.031477 -0.000001 -13.008613 -1.000000 -0.000000 0.000000 0.000100 0.000100
-24.031477 -0.000000 -11.568612 -1.000000 -0.000000 0.000000 0.999900 0.000100
-24.031477 1.600000 -11.568612 -1.000000 -0.000000 0.000000 0.999900 0.999900
-24.031477 1.599999 -13.008613 -1.000000 -0.000000 0.000000 0.000100 0.999900
-19.667450 -0.000000 -10.270538 0.000000 -0.000000 -1.000000 0.000100 0.000100
-21.107449 -0.000000 -10.270538 0.000000 -0.000000 -1.000000 0.999900 0.000100
-21.107449 1.600000 -10.270538 0.000000 -0.000000 -1.000000 0.999900 0.999900
-19.667450 1.600000 -10.270538 0.000000 -0.000000 -1.000000 0.000100 0.999900
-20.387449 -0.000000 -10.990539 1.000000 0.000000 0.000000 0.000100 0.000100
-20.387449 1.599999 -10.990539 1.000000 0.000000 0.000000 0.000100 0.999900
-20.387449 1.600000 -9.550539 1.000000 0.000000 0.000000 0.999900 0.999900
-20.387449 -0.000000 -9.550538 1.000000 0.000000 0.000000 0.999900 0.000100
-18.962891 -0.000000 -9.875237 -0.000000 0.000000 1.000000 0.000100 0.000100
-18.962891 1.600000 -9.875237 -0.000000 0.000000 1.000000 0.000100 0.999900
-20.402889 1.600000 -9.875237 -0.000000 0.000000 1.000000 0.999900 0.999900
-20.402889 -0.000000 -9.875237 -0.000000 0.000000 1.000000 0.999900 0.000100
-19.682890 -0.000000 -10.595237 1.000000 0.000000 0.000000 0.000100 0.000100
-19.682890 1.600000 -10.595237 1.000000 0.000000 0.000000 0.000100 0.999900
-19.682890 1.600000 -9.155237 1.000000 0.000000 0.000000 0.999900 0.999900
-19.682890 -0.000000 -9.155236 1.000000 0.000000 0.000000 0.999900 0.000100
-16.925552 -0.000000 -8.733368 -0.000000 0.000000 1.000000 0.000100 0.000100
-16.925552 1.600000 -8.733368 -0.000000 0.000000 1.000000 0.000100 0.999900
-18.365551 1.600000 -8.733368 -0.000000 0.000000 1.000000 0.999900 0.999900
-18.365551 -0.000000 -8.733368 -0.000000 0.000000 1.000000 0.999900 0.000100
-17.645552 -0.000000 -9.453367 1.000000 0.000000 0.000000 0.000100 0.000100
-17.645552 1.600000 -9.453368 1.000000 0.000000 0.000000 0.000100 0.999900
-17.645552 1.600000 -8.013369 1.000000 0.000000 0.000000 0.999900 0.999900
-17.645552 -0.000000 -8.013368 1.000000 0.000000 0.000000 0.999900 0.000100
-16.595688 -0.000000 -9.498398 -0.000000 0.000000 1.000000 0.000100 0.000100
-16.595688 1.600000 -9.498398 -0.000000 0.000000 1.000000 0.000100 0.999900
-18.035686 1.600000 -9.498398 -0.000000 0.000000 1.000000 0.999900 0.999900
-18.035686 -0.000000 -9.498398 -0.000000 0.000000 1.000000 0.999900 0.000100
-17.315687 -0.000000 -10.218398 1.000000 0.000000 0.000000 0.000100 0.000100
-17.315687 1.600000 -10.218398 1.000000 0.000000 0.000000 0.000100 0.999900
-17.315687 1.600000 -8.778399 1.000000 0.000000 0.000000 0.999900 0.999900
-17.315687 -0.000000 -8.778398 1.000000 0.000000 0.000000 0.999900 0.000100
-17.308594 -0.000000 -9.880203 0.000000 -0.000000 -1.000000 0.000100 0.000100
-18.748592 -0.000000 -9.880203 0.000000 -0.000000 -1.000000 0.999900 0.000100
-18.748592 1.600000 -9.880203 0.000000 -0.000000 -1.000000 0.999900 0.999900
-17.308594 1.600000 -9.880203 0.000000 -0.000000 -1.000000 0.000100 0.999900
-18.028593 -0.000000 -10.600204 1.000000 0.000000 0.000000 0.000100 0.000100
-18.028593 1.600000 -10.600204 1.000000 0.000000 0.000000 0.000100 0.999900
-18.028593 1.600000 -9.160204 1.000000 0.000000 0.000000 0.999900 0.999900
-18.028593 -0.000000 -9.160203 1.000000 0.000000 0.000000 0.999900 0.000100
-17.984421 -0.000000 -10.242683 0.000000 -0.000000 -1.000000 0.000100 0.000100
-19.424419 -0.000000 -10.242683 0.000000 -0.000000 -1.000000 0.999900 0.000100
-19.424419 1.600000 -10.242683 0.000000 -0.000000 -1.000000 0.999900 0.999900
-17.984421 1.600000 -10.242683 0.000000 -0.000000 -1.000000 0.000100 0.999900
-18.704420 -0.000000 -10.962684 -1.000000 -0.000000 0.000000 0.000100 0.000100
-18.704420 -0.000000 -9.522683 -1.000000 -0.000000 0.000000 0.999900 0.000100
-18.704420 1.600000 -9.522684 -1.000000 -0.000000 0.000000 0.999900 0.999900
-18.704420 1.599999 -10.962684 -1.000000 -0.000000 0.000000 0.000100 0.999900
-21.572342 -0.000001 -12.242577 0.000000 -0.000000 -1.000000 0.000100 0.000100
-23.012341 -0.000001 -12.242577 0.000000 -0.000000 -1.000000 0.999900 0.000100
-23.012341 1.600000 -12.242577 0.000000 -0.000000 -1.000000 0.999900 0.999900
-21.572342 1.600000 -12.242577 0.000000 -0.000000 -1.000000 0.000100 0.999900
-22.292341 -0.000001 -12.962577 1.000000 0.000000 0.000000 0.000100 0.000100
-22.292341 1.599999 -12.962577 1.000000 0.000000 0.000000 0.000100 0.999900
-22.292341 1.600000 -11.522576 1.000000 0.000000 0.000000 0.999900 0.999900
-22.292341 -0.000000 -11.522576 1.000000 0.000000 0.000000 0.999900 0.000100
-23.019791 -0.000001 -13.027847 -0.000000 0.000000 1.000000 0.000100 0.000100
-23.019791 1.599999 -13.027847 -0.000000 0.000000 1.000000 0.000100 0.999900
-24.459789 1.599999 -13.027847 -0.000000 0.000000 1.000000 0.999900 0.999900
-24.459789 -0.000001 -13.027847 -0.000000 0.000000 1.000000 0.999900 0.000100
-23.739790 -0.000001 -13.747848 1.000000 0.000000 0.000000 0.000100 0.000100
-23.739790 1.599999 -13.747848 1.000000 0.000000 0.000000 0.000100 0.999900
-23.739790 1.599999 -12.307847 1.000000 0.000000 0.000000 0.999900 0.999900
-23.739790 -0.000000 -12.307847 1.000000 0.000000 0.000000 0.999900 0.000100
-23.704254 -0.000001 -13.426453 0.000000 -0.000000 -1.000000 0.000100 0.000100
-25.144253 -0.000001 -13.426453 0.000000 -0.000000 -1.000000 0.999900 0.000100
-25.144253 1.599999 -13.426453 0.000000 -0.000000 -1.000000 0.999900 0.999900
-23.704254 1.599999 -13.426453 0.000000 -0.000000 -1.000000 0.000100 0.999900
-24.424253 -0.000001 -14.146453 1.000000 0.000000 0.000000 0.000100 0.000100
-24.424253 1.599999 -14.146453 1.000000 0.000000 0.000000 0.000100 0.999900
-24.424253 1.599999 -12.706452 1.000000 0.000000 0.000000 0.999900 0.999900
-24.424253 -0.000000 -12.706452 1.000000 0.000000 0.000000 0.999900 0.000100
-24.401855 -0.000001 -13.806801 -0.000000 0.000000 1.000000 0.000100 0.000100
-24.401855 1.599999 -13.806801 -0.000000 0.000000 1.000000 0.000100 0.999900
-25.841854 1.599999 -13.806801 -0.000000 0.000000 1.000000 0.999900 0.999900
-25.841854 -0.000001 -13.806801 -0.000000 0.000000 1.000000 0.999900 0.000100
-25.121855 -0.000001 -14.526801 -1.000000 -0.000000 0.000000 0.000100 0.000100
-25.121855 -0.000001 -13.086801 -1.000000 -0.000000 0.000000 0.999900 0.000100
-25.121855 1.599999 -13.086801 -1.000000 -0.000000 0.000000 0.999900 0.999900
-25.121855 1.599999 -14.526801 -1.000000 -0.000000 0.000000 0.000100 0.999900
-25.124926 -0.000001 -14.198578 0.000000 -0.000000 -1.000000 0.000100 0.000100
-26.564924 -0.000001 -14.198578 0.000000 -0.000000 -1.000000 0.999900 0.000100
-26.564924 1.599999 -14.198578 0.000000 -0.000000 -1.000000 0.999900 0.999900
-25.124926 1.599999 -14.198578 0.000000 -0.000000 -1.000000 0.000100 0.999900
-25.844925 -0.000001 -14.918578 -1.000000 -0.000000 0.000000 0.000100 0.000100
-25.844925 -0.000001 -13.478578 -1.000000 -0.000000 0.000000 0.999900 0.000100
-25.844925 1.599999 -13.478578 -1.000000 -0.000000 0.000000 0.999900 0.999900
-25.844925 1.599999 -14.918578 -1.000000 -0.000000 0.000000 0.000100 0.999900
-25.816055 -0.000001 -14.573883 -0.000000 0.000000 1.000000 0.000100 0.000100
-25.816055 1.599999 -14.573883 -0.000000 0.000000 1.000000 0.000100 0.999900
-27.256054 1.599999 -14.573883 -0.000000 0.000000 1.000000 0.999900 0.999900
-27.256054 -0.000001 -14.573883 -0.000000 0.000000 1.000000 0.999900 0.000100
-26.536055 -0.000001 -15.293883 -1.000000 -0.000000 0.000000 0.000100 0.000100
-26.536055 -0.000001 -13.853883 -1.000000 -0.000000 0.000000 0.999900 0.000100
-26.536055 1.599999 -13.853883 -1.000000 -0.000000 0.000000 0.999900 0.999900
-26.536055 1.599999 -15.293883 -1.000000 -0.000000 0.000000 0.000100 0.999900
-26.520966 -0.000001 -14.963409 -0.000000 0.000000 1.000000 0.000100 0.000100
-26.520966 1.599999 -14.963409 -0.000000 0.000000 1.000000 0.000100 0.999900
-27.960964 1.599999 -14.963409 -0.000000 0.000000 1.000000 0.999900 0.999900
-27.960964 -0.000001 -14.963409 -0.000000 0.000000 1.000000 0.999900 0.000100
-27.240965 -0.000001 -15.683410 -1.000000 -0.000000 0.000000 0.000100 0.000100
-27.240965 -0.000001 -14.243409 -1.000000 -0.000000 0.000000 0.999900 0.000100
-27.240965 1.599999 -14.243409 -1.000000 -0.000000 0.000000 0.999900 0.999900
-27.240965 1.599999 -15.683410 -1.000000 -0.000000 0.000000 0.000100 0.999900
4 0 1 2 3
4 4 5 6 7
4 8 9 10 11
4 12 13 14 15
4 16 17 18 19
4 20 21 22 23
4 24 25 26 27
4 28 29 30 31
4 32 33 34 35
4 36 37 38 39
4 40 41 42 43
4 44 45 46 47
4 48 49 50 51
4 52 53 54 55
4 56 57 58 59
4 60 61 62 63
4 64 65 66 67
4 68 69 70 71
4 72 73 74 75
4 76 77 78 79
4 80 81 82 83
4 84 85 86 87
4 88 89 90 91
4 92 93 94 95
4 96 97 98 99
4 100 101 102 103
4 104 105 106 107
4 108 109 110 111
4 112 113 114 115
4 116 117 118 119
4 120 121 122 123
4 124 125 126 127
4 128 129 130 131
4 132 133 134 135
4 136 137 138 139
4 140 141 142 143
4 144 145 146 147
4 148 149 150 151
