ply
format ascii 1.0
comment Created by Blender 2.78 (sub 0) - www.blender.org, source file: 'soult.blend'
element vertex 192
property float x
property float y
property float z
property float nx
property float ny
property float nz
property float s
property float t
element face 48
property list uchar uint vertex_indices
end_header
-31.160316 -0.000000 -12.172446 -0.051570 0.000000 -0.998669 0.000100 0.000100
-32.201897 -0.000000 -12.118660 -0.051570 0.000000 -0.998669 0.999900 0.000100
-32.201897 1.158852 -12.118660 -0.051570 0.000000 -0.998669 0.999900 0.999900
-31.160316 1.158852 -12.172446 -0.051570 0.000000 -0.998669 0.000100 0.999900
-31.707998 -0.000000 -12.666343 0.998669 -0.000000 -0.051570 0.000100 0.000100
-31.707998 1.158852 -12.666344 0.998669 -0.000000 -0.051570 0.000100 0.999900
-31.654213 1.158852 -11.624763 0.998669 -0.000000 -0.051570 0.999900 0.999900
-31.654213 -0.000000 -11.624763 0.998669 -0.000000 -0.051570 0.999900 0.000100
-31.707998 -0.000000 -12.666343 0.998669 -0.000000 -0.051570 0.000100 0.000100
-31.707998 1.158852 -12.666344 0.998669 -0.000000 -0.051570 0.000100 0.999900
-31.654213 1.158852 -11.624763 0.998669 -0.000000 -0.051570 0.999900 0.999900
-31.654213 -0.000000 -11.624763 0.998669 -0.000000 -0.051570 0.999900 0.000100
-31.160316 -0.000000 -12.172446 -0.051570 0.000000 -0.998669 0.000100 0.000100
-32.201897 -0.000000 -12.118660 -0.051570 0.000000 -0.998669 0.999900 0.000100
-32.201897 1.158852 -12.118660 -0.051570 0.000000 -0.998669 0.999900 0.999900
-31.160316 1.158852 -12.172446 -0.051570 0.000000 -0.998669 0.000100 0.999900
-31.681770 -0.000000 -11.284212 -0.051570 0.000000 -0.998669 0.000100 0.000100
-32.723351 -0.000000 -11.230426 -0.051570 0.000000 -0.998669 0.999900 0.000100
-32.723351 1.158852 -11.230426 -0.051570 0.000000 -0.998669 0.999900 0.999900
-31.681770 1.158852 -11.284212 -0.051570 0.000000 -0.998669 0.000100 0.999900
-32.229454 -0.000000 -11.778109 0.998669 -0.000000 -0.051571 0.000100 0.000100
-32.229454 1.158852 -11.778110 0.998669 -0.000000 -0.051571 0.000100 0.999900
-32.175667 1.158852 -10.736529 0.998669 -0.000000 -0.051571 0.999900 0.999900
-32.175667 -0.000000 -10.736529 0.998669 -0.000000 -0.051571 0.999900 0.000100
-32.229454 -0.000000 -11.778109 0.998669 -0.000000 -0.051571 0.000100 0.000100
-32.229454 1.158852 -11.778110 0.998669 -0.000000 -0.051571 0.000100 0.999900
-32.175667 1.158852 -10.736529 0.998669 -0.000000 -0.051571 0.999900 0.999900
-32.175667 -0.000000 -10.736529 0.998669 -0.000000 -0.051571 0.999900 0.000100
-31.681770 -0.000000 -11.284212 -0.051570 0.000000 -0.998669 0.000100 0.000100
-32.723351 -0.000000 -11.230426 -0.051570 0.000000 -0.998669 0.999900 0.000100
-32.723351 1.158852 -11.230426 -0.051570 0.000000 -0.998669 0.999900 0.999900
-31.681770 1.158852 -11.284212 -0.051570 0.000000 -0.998669 0.000100 0.999900
-32.208366 -0.000000 -10.385900 -0.051569 0.000000 -0.998670 0.000100 0.000100
-33.249947 -0.000000 -10.332115 -0.051569 0.000000 -0.998670 0.999900 0.000100
-33.249947 1.158852 -10.332115 -0.051569 0.000000 -0.998670 0.999900 0.999900
-32.208366 1.158852 -10.385900 -0.051569 0.000000 -0.998670 0.000100 0.999900
-32.756050 -0.000000 -10.879798 0.998669 0.000000 -0.051571 0.000100 0.000100
-32.756050 1.158852 -10.879798 0.998669 0.000000 -0.051571 0.000100 0.999900
-32.702263 1.158852 -9.838219 0.998669 0.000000 -0.051571 0.999900 0.999900
-32.702263 -0.000000 -9.838219 0.998669 0.000000 -0.051571 0.999900 0.000100
-32.756050 -0.000000 -10.879798 0.998669 0.000000 -0.051571 0.000100 0.000100
-32.756050 1.158852 -10.879798 0.998669 0.000000 -0.051571 0.000100 0.999900
-32.702263 1.158852 -9.838219 0.998669 0.000000 -0.051571 0.999900 0.999900
-32.702263 -0.000000 -9.838219 0.998669 0.000000 -0.051571 0.999900 0.000100
-32.208366 -0.000000 -10.385900 -0.051569 0.000000 -0.998670 0.000100 0.000100
-33.249947 -0.000000 -10.332115 -0.051569 0.000000 -0.998670 0.999900 0.000100
-33.249947 1.158852 -10.332115 -0.051569 0.000000 -0.998670 0.999900 0.999900
-32.208366 1.158852 -10.385900 -0.051569 0.000000 -0.998670 0.000100 0.999900
-32.985077 -0.000000 -11.522875 -0.092386 0.000000 -0.995723 0.000100 0.000100
-34.023582 -0.000000 -11.426519 -0.092386 0.000000 -0.995723 0.999900 0.000100
-34.023582 1.158852 -11.426519 -0.092386 0.000000 -0.995723 0.999900 0.999900
-32.985077 1.158852 -11.522875 -0.092386 0.000000 -0.995723 0.000100 0.999900
-33.552509 -0.000000 -11.993951 0.995723 -0.000000 -0.092386 0.000100 0.000100
-33.552509 1.158852 -11.993952 0.995723 -0.000000 -0.092386 0.000100 0.999900
-33.456154 1.158852 -10.955444 0.995723 -0.000000 -0.092386 0.999900 0.999900
-33.456154 -0.000000 -10.955444 0.995723 -0.000000 -0.092386 0.999900 0.000100
-33.552509 -0.000000 -11.993951 0.995723 -0.000000 -0.092386 0.000100 0.000100
-33.552509 1.158852 -11.993952 0.995723 -0.000000 -0.092386 0.000100 0.999900
-33.456154 1.158852 -10.955444 0.995723 -0.000000 -0.092386 0.999900 0.999900
-33.456154 -0.000000 -10.955444 0.995723 -0.000000 -0.092386 0.999900 0.000100
-32.985077 -0.000000 -11.522875 -0.092386 0.000000 -0.995723 0.000100 0.000100
-34.023582 -0.000000 -11.426519 -0.092386 0.000000 -0.995723 0.999900 0.000100
-34.023582 1.158852 -11.426519 -0.092386 0.000000 -0.995723 0.999900 0.999900
-32.985077 1.158852 -11.522875 -0.092386 0.000000 -0.995723 0.000100 0.999900
-33.818119 -0.000000 -7.626197 0.000000 -0.000000 -1.000000 0.000100 0.000100
-34.861088 -0.000000 -7.626197 0.000000 -0.000000 -1.000000 0.999900 0.000100
-34.861088 1.158852 -7.626197 0.000000 -0.000000 -1.000000 0.999900 0.999900
-33.818119 1.158852 -7.626197 0.000000 -0.000000 -1.000000 0.000100 0.999900
-34.339603 -0.000000 -8.147680 1.000000 0.000000 0.000000 0.000100 0.000100
-34.339603 1.158852 -8.147681 1.000000 0.000000 0.000000 0.000100 0.999900
-34.339603 1.158852 -7.104714 1.000000 0.000000 0.000000 0.999900 0.999900
-34.339603 -0.000000 -7.104714 1.000000 0.000000 0.000000 0.999900 0.000100
-34.339603 -0.000000 -8.147680 1.000000 0.000000 0.000000 0.000100 0.000100
-34.339603 1.158852 -8.147681 1.000000 0.000000 0.000000 0.000100 0.999900
-34.339603 1.158852 -7.104714 1.000000 0.000000 0.000000 0.999900 0.999900
-34.339603 -0.000000 -7.104714 1.000000 0.000000 0.000000 0.999900 0.000100
-33.818119 -0.000000 -7.626197 0.000000 -0.000000 -1.000000 0.000100 0.000100
-34.861088 -0.000000 -7.626197 0.000000 -0.000000 -1.000000 0.999900 0.000100
-34.861088 1.158852 -7.626197 0.000000 -0.000000 -1.000000 0.999900 0.999900
-33.818119 1.158852 -7.626197 0.000000 -0.000000 -1.000000 0.000100 0.999900
-31.362137 -0.000000 -13.297873 -0.092386 0.000000 -0.995723 0.000100 0.000100
-32.400642 -0.000000 -13.201517 -0.092386 0.000000 -0.995723 0.999900 0.000100
-32.400642 1.158852 -13.201517 -0.092386 0.000000 -0.995723 0.999900 0.999900
-31.362137 1.158852 -13.297873 -0.092386 0.000000 -0.995723 0.000100 0.999900
-31.929567 -0.000000 -13.768948 0.995723 -0.000000 -0.092386 0.000100 0.000100
-31.929567 1.158852 -13.768949 0.995723 -0.000000 -0.092386 0.000100 0.999900
-31.833212 1.158852 -12.730442 0.995723 -0.000000 -0.092386 0.999900 0.999900
-31.833212 -0.000000 -12.730442 0.995723 -0.000000 -0.092386 0.999900 0.000100
-31.929567 -0.000000 -13.768948 0.995723 -0.000000 -0.092386 0.000100 0.000100
-31.929567 1.158852 -13.768949 0.995723 -0.000000 -0.092386 0.000100 0.999900
-31.833212 1.158852 -12.730442 0.995723 -0.000000 -0.092386 0.999900 0.999900
-31.833212 -0.000000 -12.730442 0.995723 -0.000000 -0.092386 0.999900 0.000100
-31.362137 -0.000000 -13.297873 -0.092386 0.000000 -0.995723 0.000100 0.000100
-32.400642 -0.000000 -13.201517 -0.092386 0.000000 -0.995723 0.999900 0.000100
-32.400642 1.158852 -13.201517 -0.092386 0.000000 -0.995723 0.999900 0.999900
-31.362137 1.158852 -13.297873 -0.092386 0.000000 -0.995723 0.000100 0.999900
-32.042088 -0.000000 -13.568621 -0.092386 0.000000 -0.995723 0.000100 0.000100
-33.080597 -0.000000 -13.472265 -0.092386 0.000000 -0.995723 0.999900 0.000100
-33.080597 1.158852 -13.472265 -0.092386 0.000000 -0.995723 0.999900 0.999900
-32.042088 1.158852 -13.568621 -0.092386 0.000000 -0.995723 0.000100 0.999900
-32.609520 -0.000000 -14.039697 0.995723 0.000000 -0.092386 0.000100 0.000100
-32.609520 1.158852 -14.039697 0.995723 0.000000 -0.092386 0.000100 0.999900
-32.513165 1.158852 -13.001190 0.995723 0.000000 -0.092386 0.999900 0.999900
-32.513165 -0.000000 -13.001190 0.995723 0.000000 -0.092386 0.999900 0.000100
-32.609520 -0.000000 -14.039697 0.995723 0.000000 -0.092386 0.000100 0.000100
-32.609520 1.158852 -14.039697 0.995723 0.000000 -0.092386 0.000100 0.999900
-32.513165 1.158852 -13.001190 0.995723 0.000000 -0.092386 0.999900 0.999900
-32.513165 -0.000000 -13.001190 0.995723 0.000000 -0.092386 0.999900 0.000100
-32.042088 -0.000000 -13.568621 -0.092386 0.000000 -0.995723 0.000100 0.000100
-33.080597 -0.000000 -13.472265 -0.092386 0.000000 -0.995723 0.999900 0.000100
-33.080597 1.158852 -13.472265 -0.092386 0.000000 -0.995723 0.999900 0.999900
-32.042088 1.158852 -13.568621 -0.092386 0.000000 -0.995723 0.000100 0.999900
-32.877167 -0.000000 -13.850656 -0.092386 0.000000 -0.995723 0.000100 0.000100
-33.915672 -0.000000 -13.754300 -0.092386 0.000000 -0.995723 0.999900 0.000100
-33.915672 1.158852 -13.754300 -0.092386 0.000000 -0.995723 0.999900 0.999900
-32.877167 1.158852 -13.850656 -0.092386 0.000000 -0.995723 0.000100 0.999900
-33.444599 -0.000000 -14.321732 0.995723 0.000000 -0.092386 0.000100 0.000100
-33.444599 1.158852 -14.321732 0.995723 0.000000 -0.092386 0.000100 0.999900
-33.348244 1.158852 -13.283225 0.995723 0.000000 -0.092386 0.999900 0.999900
-33.348244 -0.000000 -13.283225 0.995723 0.000000 -0.092386 0.999900 0.000100
-33.444599 -0.000000 -14.321732 0.995723 0.000000 -0.092386 0.000100 0.000100
-33.444599 1.158852 -14.321732 0.995723 0.000000 -0.092386 0.000100 0.999900
-33.348244 1.158852 -13.283225 0.995723 0.000000 -0.092386 0.999900 0.999900
-33.348244 -0.000000 -13.283225 0.995723 0.000000 -0.092386 0.999900 0.000100
-32.877167 -0.000000 -13.850656 -0.092386 0.000000 -0.995723 0.000100 0.000100
-33.915672 -0.000000 -13.754300 -0.092386 0.000000 -0.995723 0.999900 0.000100
-33.915672 1.158852 -13.754300 -0.092386 0.000000 -0.995723 0.999900 0.999900
-32.877167 1.158852 -13.850656 -0.092386 0.000000 -0.995723 0.000100 0.999900
-30.656954 -0.000000 -12.904088 0.000000 -0.000000 -1.000000 0.000100 0.000100
-31.699921 -0.000000 -12.904088 0.000000 -0.000000 -1.000000 0.999900 0.000100
-31.699921 1.158852 -12.904088 0.000000 -0.000000 -1.000000 0.999900 0.999900
-30.656954 1.158852 -12.904088 0.000000 -0.000000 -1.000000 0.000100 0.999900
-31.178436 -0.000000 -13.425571 1.000000 0.000000 0.000000 0.000100 0.000100
-31.178436 1.158852 -13.425572 1.000000 0.000000 0.000000 0.000100 0.999900
-31.178436 1.158852 -12.382605 1.000000 0.000000 0.000000 0.999900 0.999900
-31.178436 -0.000000 -12.382605 1.000000 0.000000 0.000000 0.999900 0.000100
-31.178436 -0.000000 -13.425571 1.000000 0.000000 0.000000 0.000100 0.000100
-31.178436 1.158852 -13.425572 1.000000 0.000000 0.000000 0.000100 0.999900
-31.178436 1.158852 -12.382605 1.000000 0.000000 0.000000 0.999900 0.999900
-31.178436 -0.000000 -12.382605 1.000000 0.000000 0.000000 0.999900 0.000100
-30.656954 -0.000000 -12.904088 0.000000 -0.000000 -1.000000 0.000100 0.000100
-31.699921 -0.000000 -12.904088 0.000000 -0.000000 -1.000000 0.999900 0.000100
-31.699921 1.158852 -12.904088 0.000000 -0.000000 -1.000000 0.999900 0.999900
-30.656954 1.158852 -12.904088 0.000000 -0.000000 -1.000000 0.000100 0.999900
-32.716377 -0.000000 -9.487590 -0.051570 0.000000 -0.998669 0.000100 0.000100
-33.757957 -0.000000 -9.433804 -0.051570 0.000000 -0.998669 0.999900 0.000100
-33.757957 1.158852 -9.433804 -0.051570 0.000000 -0.998669 0.999900 0.999900
-32.716377 1.158852 -9.487590 -0.051570 0.000000 -0.998669 0.000100 0.999900
-33.264057 -0.000000 -9.981486 0.998669 -0.000000 -0.051568 0.000100 0.000100
-33.264057 1.158852 -9.981487 0.998669 -0.000000 -0.051568 0.000100 0.999900
-33.210274 1.158852 -8.939907 0.998669 -0.000000 -0.051568 0.999900 0.999900
-33.210274 -0.000000 -8.939907 0.998669 -0.000000 -0.051568 0.999900 0.000100
-33.264057 -0.000000 -9.981486 0.998669 -0.000000 -0.051568 0.000100 0.000100
-33.264057 1.158852 -9.981487 0.998669 -0.000000 -0.051568 0.000100 0.999900
-33.210274 1.158852 -8.939907 0.998669 -0.000000 -0.051568 0.999900 0.999900
-33.210274 -0.000000 -8.939907 0.998669 -0.000000 -0.051568 0.999900 0.000100
-32.716377 -0.000000 -9.487590 -0.051570 0.000000 -0.998669 0.000100 0.000100
-33.757957 -0.000000 -9.433804 -0.051570 0.000000 -0.998669 0.999900 0.000100
-33.757957 1.158852 -9.433804 -0.051570 0.000000 -0.998669 0.999900 0.999900
-32.716377 1.158852 -9.487590 -0.051570 0.000000 -0.998669 0.000100 0.999900
-33.242973 -0.000000 -8.589278 -0.051569 0.000000 -0.998670 0.000100 0.000100
-34.284554 -0.000000 -8.535493 -0.051569 0.000000 -0.998670 0.999900 0.000100
-34.284554 1.158852 -8.535493 -0.051569 0.000000 -0.998670 0.999900 0.999900
-33.242973 1.158852 -8.589278 -0.051569 0.000000 -0.998670 0.000100 0.999900
-33.790653 -0.000000 -9.083176 0.998670 0.000000 -0.051568 0.000100 0.000100
-33.790653 1.158852 -9.083176 0.998670 0.000000 -0.051568 0.000100 0.999900
-33.736870 1.158852 -8.041595 0.998670 0.000000 -0.051568 0.999900 0.999900
-33.736870 -0.000000 -8.041595 0.998670 0.000000 -0.051568 0.999900 0.000100
-33.790653 -0.000000 -9.083176 0.998670 0.000000 -0.051568 0.000100 0.000100
-33.790653 1.158852 -9.083176 0.998670 0.000000 -0.051568 0.000100 0.999900
-33.736870 1.158852 -8.041595 0.998670 0.000000 -0.051568 0.999900 0.999900
-33.736870 -0.000000 -8.041595 0.998670 0.000000 -0.051568 0.999900 0.000100
-33.242973 -0.000000 -8.589278 -0.051569 0.000000 -0.998670 0.000100 0.000100
-34.284554 -0.000000 -8.535493 -0.051569 0.000000 -0.998670 0.999900 0.000100
-34.284554 1.158852 -8.535493 -0.051569 0.000000 -0.998670 0.999900 0.999900
-33.242973 1.158852 -8.589278 -0.051569 0.000000 -0.998670 0.000100 0.999900
-34.079597 -0.000000 -10.767503 -0.092386 0.000000 -0.995723 0.000100 0.000100
-35.118103 -0.000000 -10.671147 -0.092386 0.000000 -0.995723 0.999900 0.000100
-35.118103 1.158852 -10.671147 -0.092386 0.000000 -0.995723 0.999900 0.999900
-34.079597 1.158852 -10.767503 -0.092386 0.000000 -0.995723 0.000100 0.999900
-34.647026 -0.000000 -11.238579 0.995724 0.000000 -0.092382 0.000100 0.000100
-34.647026 1.158852 -11.238579 0.995724 0.000000 -0.092382 0.000100 0.999900
-34.550674 1.158852 -10.200072 0.995724 0.000000 -0.092382 0.999900 0.999900
-34.550674 -0.000000 -10.200072 0.995724 0.000000 -0.092382 0.999900 0.000100
-34.647026 -0.000000 -11.238579 0.995724 0.000000 -0.092382 0.000100 0.000100
-34.647026 1.158852 -11.238579 0.995724 0.000000 -0.092382 0.000100 0.999900
-34.550674 1.158852 -10.200072 0.995724 0.000000 -0.092382 0.999900 0.999900
-34.550674 -0.000000 -10.200072 0.995724 0.000000 -0.092382 0.999900 0.000100
-34.079597 -0.000000 -10.767503 -0.092386 0.000000 -0.995723 0.000100 0.000100
-35.118103 -0.000000 -10.671147 -0.092386 0.000000 -0.995723 0.999900 0.000100
-35.118103 1.158852 -10.671147 -0.092386 0.000000 -0.995723 0.999900 0.999900
-34.079597 1.158852 -10.767503 -0.092386 0.000000 -0.995723 0.000100 0.999900
4 0 1 2 3
4 4 5 6 7
4 8 9 10 11
4 12 13 14 15
4 16 17 18 19
4 20 21 22 23
4 24 25 26 27
4 28 29 30 31
4 32 33 34 35
4 36 37 38 39
4 40 41 42 43
4 44 45 46 47
4 48 49 50 51
4 52 53 54 55
4 56 57 58 59
4 60 61 62 63
4 64 65 66 67
4 68 69 70 71
4 72 73 74 75
4 76 77 78 79
4 80 81 82 83
4 84 85 86 87
4 88 89 90 91
4 92 93 94 95
4 96 97 98 99
4 100 101 102 103
4 104 105 106 107
4 108 109 110 111
4 112 113 114 115
4 116 117 118 119
4 120 121 122 123
4 124 125 126 127
4 128 129 130 131
4 132 133 134 135
4 136 137 138 139
4 140 141 142 143
4 144 145 146 147
4 148 149 150 151
4 152 153 154 155
4 156 157 158 159
4 160 161 162 163
4 164 165 166 167
4 168 169 170 171
4 172 173 174 175
4 176 177 178 179
4 180 181 182 183
4 184 185 186 187
4 188 189 190 191
