ply
format ascii 1.0
comment Created by Blender 2.78 (sub 0) - www.blender.org, source file: 'soult.blend'
element vertex 64
property float x
property float y
property float z
property float nx
property float ny
property float nz
property float s
property float t
element face 16
property list uchar uint vertex_indices
end_header
-15.158591 0.634987 -10.277747 -0.871530 0.352771 0.340570 0.002733 0.285935
-15.044896 0.639992 -9.991973 -0.871530 0.352771 0.340570 0.403855 0.285935
-14.903283 0.980464 -9.982259 -0.871530 0.352771 0.340570 0.403855 0.629091
-15.068138 0.973208 -10.396604 -0.871530 0.352771 0.340570 0.002733 0.629091
-15.127349 0.641488 -10.023546 0.791431 0.141243 0.594716 0.002733 0.285935
-14.943155 0.646493 -10.269852 0.791431 0.141243 0.594716 0.403855 0.285935
-14.944401 1.302623 -10.424026 0.791431 0.141243 0.594716 0.403855 0.629091
-15.257818 1.294107 -10.004913 0.791431 0.141243 0.594716 0.002733 0.629091
-14.930074 0.683819 -10.056147 0.321393 0.220681 -0.920872 0.002733 0.285935
-15.216674 0.627034 -10.167754 0.321393 0.220681 -0.920872 0.403855 0.285935
-15.292299 1.054161 -10.093817 0.321393 0.220681 -0.920872 0.403855 0.629091
-14.876756 1.115761 -9.931999 0.321393 0.220681 -0.920872 0.002733 0.629091
-15.523242 0.684437 -10.140144 -0.911243 0.201829 0.359029 0.002733 0.285935
-15.409540 0.689442 -9.854374 -0.911243 0.201829 0.359029 0.403855 0.285935
-15.313270 1.095095 -9.838071 -0.911243 0.201829 0.359029 0.403855 0.629091
-15.470848 1.088158 -10.234118 -0.911243 0.201829 0.359029 0.002733 0.629091
-15.491995 0.690938 -9.885943 0.776308 0.234050 0.585292 0.002733 0.285935
-15.307801 0.695943 -10.132254 0.776308 0.234050 0.585292 0.403855 0.285935
-15.379829 1.183804 -10.231805 0.776308 0.234050 0.585292 0.403855 0.629091
-15.635095 1.176867 -9.890460 0.776308 0.234050 0.585292 0.002733 0.629091
-15.294720 0.671479 -9.918549 0.357982 0.209806 -0.909852 0.002733 0.285935
-15.581320 0.676484 -10.030154 0.357982 0.209806 -0.909852 0.403855 0.285935
-15.795161 1.267250 -9.978066 0.357982 0.209806 -0.909852 0.403855 0.629091
-15.186590 1.256622 -9.741072 0.357982 0.209806 -0.909852 0.002733 0.629091
-15.327779 0.530664 -10.328529 -0.907031 0.223317 0.356966 0.002733 0.285935
-15.214077 0.535669 -10.042755 -0.907031 0.223317 0.356966 0.403855 0.285935
-15.073296 1.026833 -9.992304 -0.907031 0.223317 0.356966 0.403855 0.629091
-15.275187 1.017946 -10.499745 -0.907031 0.223317 0.356966 0.002733 0.629091
-15.296533 0.537165 -10.074328 0.769126 0.267114 0.580599 0.002733 0.285935
-15.112337 0.542170 -10.320637 0.769126 0.267114 0.580599 0.403855 0.285935
-15.187011 0.947734 -10.408302 0.769126 0.267114 0.580599 0.403855 0.629091
-15.392272 0.942157 -10.133824 0.769126 0.267114 0.580599 0.002733 0.629091
-15.099256 0.517706 -10.106932 0.356196 0.236102 -0.904091 0.002733 0.285935
-15.385856 0.522711 -10.218538 0.356196 0.236102 -0.904091 0.403855 0.285935
-15.432750 0.926050 -10.131684 0.356196 0.236102 -0.904091 0.403855 0.629091
-15.113368 0.920473 -10.007308 0.356196 0.236102 -0.904091 0.002733 0.629091
-15.300605 0.349993 -10.178048 -0.892511 0.284308 0.350133 0.002733 0.285935
-15.186902 0.354998 -9.892276 -0.892511 0.284308 0.350133 0.403855 0.285935
-15.065171 0.722402 -9.880309 -0.892511 0.284308 0.350133 0.403855 0.629091
-15.222749 0.715466 -10.276352 -0.892511 0.284308 0.350133 0.002733 0.629091
-16.176737 0.637331 -10.317383 0.644102 0.201829 0.737833 0.002733 0.285935
-15.904379 0.643232 -10.556754 0.644102 0.201829 0.737833 0.403855 0.285935
-15.924376 1.121476 -10.670119 0.644102 0.201829 0.737833 0.403855 0.629091
-16.301832 1.113298 -10.338375 0.644102 0.201829 0.737833 0.002733 0.629091
-15.906801 0.644995 -10.452692 0.284208 0.326065 -0.901614 0.002733 0.285935
-16.253241 0.650896 -10.559760 0.284208 0.326065 -0.901614 0.403855 0.285935
-16.365236 1.244913 -10.380242 0.284208 0.326065 -0.901614 0.403855 0.629091
-15.706390 1.233691 -10.176616 0.284208 0.326065 -0.901614 0.002733 0.629091
-16.021090 0.622054 -10.658868 -0.931182 0.363064 -0.032925 0.002733 0.285935
-16.031603 0.627955 -10.296417 -0.931182 0.363064 -0.032925 0.403855 0.285935
-15.752960 1.379919 -9.885095 -0.931182 0.363064 -0.032925 0.403855 0.629091
-15.722319 1.362725 -10.941268 -0.931182 0.363064 -0.032925 0.002733 0.629091
-15.860025 0.637331 -10.374680 0.481084 0.283492 -0.829572 0.002733 0.285935
-16.174568 0.643232 -10.555073 0.481084 0.283492 -0.829572 0.403855 0.285935
-16.283035 1.101393 -10.461406 0.481084 0.283492 -0.829572 0.403855 0.629091
-15.684824 1.090171 -10.118327 0.481084 0.283492 -0.829572 0.002733 0.629091
-16.075306 0.644995 -10.586406 -0.971911 0.234052 0.024680 0.002733 0.285935
-16.064680 0.650896 -10.223957 -0.971911 0.234052 0.024680 0.403855 0.285935
-15.925180 1.226059 -10.184893 -0.971911 0.234052 0.024680 0.403855 0.629091
-15.939903 1.217882 -10.687186 -0.971911 0.234052 0.024680 0.002733 0.629091
-16.233488 0.622054 -10.411627 0.288144 0.177048 0.941078 0.002733 0.285935
-15.887085 0.627955 -10.518803 0.288144 0.177048 0.941078 0.403855 0.285935
-15.531717 1.379919 -10.769078 0.288144 0.177048 0.941078 0.403855 0.629091
-16.541130 1.362725 -10.456779 0.288144 0.177048 0.941078 0.002733 0.629091
4 0 1 2 3
4 4 5 6 7
4 8 9 10 11
4 12 13 14 15
4 16 17 18 19
4 20 21 22 23
4 24 25 26 27
4 28 29 30 31
4 32 33 34 35
4 36 37 38 39
4 40 41 42 43
4 44 45 46 47
4 48 49 50 51
4 52 53 54 55
4 56 57 58 59
4 60 61 62 63
