ply
format ascii 1.0
comment Created by Blender 2.78 (sub 0) - www.blender.org, source file: 'soult.blend'
element vertex 403
property float x
property float y
property float z
property float nx
property float ny
property float nz
property float s
property float t
element face 138
property list uchar uint vertex_indices
end_header
-20.917692 -0.000001 -11.572630 0.000002 1.000000 -0.000008 0.799468 0.552236
-19.362717 -0.000000 -10.715141 0.000002 1.000000 -0.000008 0.727077 0.592156
-19.050636 -0.000002 -11.286511 0.000002 1.000000 -0.000008 0.712549 0.565556
-20.601788 -0.000009 -12.138367 0.000002 1.000000 -0.000008 0.784761 0.525899
-17.952293 -0.000000 -11.069868 -0.393986 0.000000 0.919116 0.333667 0.946133
-18.556236 -0.000000 -11.328753 -0.393986 0.000000 0.919116 0.361242 0.946133
-18.556236 -0.018192 -11.328753 -0.393986 0.000000 0.919116 0.361242 0.947812
-17.952293 -0.018192 -11.069868 -0.393986 0.000000 0.919116 0.333667 0.947812
-17.227160 -0.000000 -10.815798 -0.330667 0.000000 0.943747 0.301423 0.946133
-17.952293 -0.000000 -11.069868 -0.330667 0.000000 0.943747 0.333667 0.946133
-17.952293 -0.018192 -11.069868 -0.330667 0.000000 0.943747 0.333667 0.947812
-17.227160 -0.018192 -10.815798 -0.330667 0.000000 0.943747 0.301423 0.947812
-16.577452 -0.000000 -10.635694 -0.267134 0.000000 0.963659 0.273129 0.946133
-17.227160 -0.000000 -10.815798 -0.267134 0.000000 0.963659 0.301423 0.946133
-17.227160 -0.018192 -10.815798 -0.267134 0.000000 0.963659 0.301423 0.947812
-16.577452 -0.018192 -10.635694 -0.267134 0.000000 0.963659 0.273129 0.947812
-15.205395 -0.018192 -10.193498 -0.382096 0.000000 0.924123 0.212612 0.947812
-14.598669 -0.000000 -9.942636 -0.382096 0.000000 0.924123 0.185062 0.946134
-15.205395 -0.000000 -10.193498 -0.382096 0.000000 0.924123 0.212612 0.946133
-15.205395 -0.000000 -10.193498 -0.330753 0.000000 0.943717 0.212612 0.946133
-15.929528 -0.000000 -10.447291 -0.330753 0.000000 0.943717 0.244813 0.946133
-15.929528 -0.018192 -10.447291 -0.330753 0.000000 0.943717 0.244813 0.947812
-15.205395 -0.018192 -10.193498 -0.330753 0.000000 0.943717 0.212612 0.947812
-18.386251 -0.000000 -10.247392 0.335896 0.000000 -0.941899 0.334925 0.944655
-17.728542 -0.000000 -10.012842 0.335896 0.000000 -0.941899 0.305622 0.944655
-17.728542 -0.018192 -10.012842 0.335896 0.000000 -0.941899 0.305622 0.942977
-18.386251 -0.018192 -10.247392 0.335896 0.000000 -0.941899 0.334925 0.942977
-18.685928 -0.018192 -11.086223 0.038331 0.999046 0.020933 0.078650 0.965997
-19.050636 -0.000002 -11.286511 0.038331 0.999046 0.020933 0.078650 0.998064
-19.362717 -0.000000 -10.715141 0.038331 0.999046 0.020933 0.027338 0.998064
-19.362717 -0.000000 -10.715141 0.037994 0.999071 0.020317 0.027338 0.998064
-18.993301 -0.018192 -10.511428 0.037994 0.999071 0.020317 0.027338 0.965997
-18.839615 -0.018192 -10.798825 0.037994 0.999071 0.020317 0.053332 0.965997
-18.685928 -0.018192 -11.086223 0.037994 0.999071 0.020317 0.078650 0.965997
-18.993301 -0.000000 -10.511428 0.398855 0.000000 -0.917014 0.362705 0.944655
-18.386251 -0.000000 -10.247392 0.398855 0.000000 -0.917014 0.334925 0.944655
-18.386251 -0.018192 -10.247392 0.398855 0.000000 -0.917014 0.334925 0.942977
-18.993301 -0.018192 -10.511428 0.398855 0.000000 -0.917014 0.362705 0.942977
-18.993301 -0.000000 -10.511428 0.482892 0.000000 -0.875680 0.362705 0.944655
-18.993301 -0.018192 -10.511428 0.482892 0.000000 -0.875680 0.362705 0.942977
-19.362717 -0.000000 -10.715141 0.482892 0.000000 -0.875680 0.380408 0.944655
-15.929528 -0.000000 -10.447291 -0.279214 0.000000 0.960229 0.244813 0.946133
-16.577452 -0.000000 -10.635694 -0.279214 0.000000 0.960229 0.273129 0.946133
-16.577452 -0.018192 -10.635694 -0.279214 0.000000 0.960229 0.273129 0.947812
-15.929528 -0.018192 -10.447291 -0.279214 0.000000 0.960229 0.244813 0.947812
-27.253799 -0.018182 -15.093162 -0.000571 0.999999 0.001033 0.440966 0.973999
-26.904865 -0.018182 -14.900386 -0.000571 0.999999 0.001033 0.441020 0.997491
-26.607807 -0.017458 -15.436769 -0.000571 0.999999 0.001033 0.403841 0.997830
-26.607807 -0.017458 -15.436769 -0.000571 0.999999 0.001031 0.403841 0.997830
-27.318909 -0.017461 -15.827289 -0.000571 0.999999 0.001031 0.403853 0.950022
-27.615431 -0.018182 -15.292953 -0.000571 0.999999 0.001031 0.440911 0.949652
-27.615431 -0.018182 -15.292953 -0.000571 0.999999 0.001033 0.440911 0.949652
-27.615431 -0.018182 -15.292953 0.035715 0.999153 0.020433 0.028043 0.965997
-27.318909 -0.017461 -15.827289 0.035715 0.999153 0.020433 0.077068 0.965997
-27.698086 -0.000042 -16.035480 0.035715 0.999153 0.020433 0.077068 0.998064
-27.996300 -0.000002 -15.497015 0.035715 0.999153 0.020433 0.028043 0.998064
-27.996300 -0.000002 -15.497015 0.456938 0.332179 -0.825145 0.111303 0.918646
-27.257193 -0.000002 -15.087254 0.456938 0.332179 -0.825145 0.107142 0.919512
-27.253799 -0.018182 -15.093162 0.456938 0.332179 -0.825145 0.095803 0.921283
-27.615431 -0.018182 -15.292953 0.456938 0.332179 -0.825145 0.104137 0.919450
-20.917692 -0.000001 -11.572630 -0.043692 0.998770 -0.023451 0.078345 0.998064
-20.601788 -0.000009 -12.138367 -0.043692 0.998770 -0.023451 0.027317 0.998064
-20.918989 -0.017432 -12.312609 -0.043692 0.998770 -0.023451 0.027317 0.965997
-21.220339 -0.018181 -11.759850 -0.043692 0.998770 -0.023451 0.078345 0.965997
-17.227160 -0.018192 -10.815798 -0.000000 1.000000 -0.000000 0.109611 0.993468
-17.362181 -0.018192 -10.561453 -0.000000 1.000000 -0.000000 0.088549 0.993468
-16.714508 -0.018192 -10.375737 -0.000000 1.000000 -0.000000 0.088549 0.943706
-16.577452 -0.018192 -10.635694 -0.000000 1.000000 -0.000000 0.109611 0.943706
-17.952293 -0.018192 -11.069868 0.000000 1.000000 -0.000000 0.109611 0.943706
-18.556236 -0.018192 -11.328753 0.000000 1.000000 -0.000000 0.109611 0.993468
-18.685928 -0.018192 -11.086223 0.000000 1.000000 -0.000000 0.088549 0.993468
-18.084034 -0.018192 -10.821700 0.000000 1.000000 -0.000000 0.088549 0.943706
-16.714508 -0.018192 -10.375737 -0.000000 1.000000 -0.000000 0.092081 0.943907
-16.862362 -0.018192 -10.090114 -0.000000 1.000000 -0.000000 0.115134 0.943907
-16.213865 -0.018192 -9.896422 -0.000000 1.000000 -0.000000 0.115134 0.993465
-16.068645 -0.018192 -10.181715 -0.000000 1.000000 -0.000000 0.092081 0.993465
-17.362181 -0.018192 -10.561453 -0.000000 1.000000 -0.000000 0.092081 0.943907
-17.512665 -0.018192 -10.275489 -0.000000 1.000000 -0.000000 0.115134 0.943907
-16.862362 -0.018192 -10.090114 -0.000000 1.000000 -0.000000 0.115134 0.993465
-16.714508 -0.018192 -10.375737 -0.000000 1.000000 -0.000000 0.092081 0.993465
-18.685928 -0.018192 -11.086223 0.000000 1.000000 -0.000000 0.092081 0.943907
-18.839615 -0.018192 -10.798825 0.000000 1.000000 -0.000000 0.115134 0.943907
-18.235144 -0.018192 -10.534544 0.000000 1.000000 -0.000000 0.115134 0.993465
-18.084034 -0.018192 -10.821700 0.000000 1.000000 -0.000000 0.092081 0.993465
-17.728542 -0.018192 -10.012842 -0.000000 1.000000 -0.000000 0.177094 0.992052
-17.663149 -0.018192 -9.989522 -0.000000 1.000000 -0.000000 0.172412 0.991906
-17.512665 -0.018192 -10.275489 -0.000000 1.000000 -0.000000 0.170006 0.970238
-18.235144 -0.018192 -10.534544 0.000000 1.000000 -0.000000 0.221764 0.971768
-18.386251 -0.018192 -10.247392 0.000000 1.000000 -0.000000 0.224180 0.993525
-16.577452 -0.018192 -10.635694 -0.000000 1.000000 -0.000000 0.109611 0.993468
-16.714508 -0.018192 -10.375737 -0.000000 1.000000 -0.000000 0.088549 0.993468
-16.068645 -0.018192 -10.181715 -0.000000 1.000000 -0.000000 0.088549 0.943706
-15.929528 -0.018192 -10.447291 -0.000000 1.000000 -0.000000 0.109611 0.943706
-15.419841 -0.011715 -9.262396 -0.024642 0.999620 -0.012330 0.078984 0.961830
-15.027130 -0.000000 -9.097550 -0.024642 0.999620 -0.012330 0.078984 0.998272
-14.885109 -0.000000 -9.381401 -0.024642 0.999620 -0.012330 0.053453 0.998272
-14.885109 -0.000000 -9.381401 -0.024651 0.999617 -0.012548 0.053453 0.998272
-15.492363 -0.018192 -9.637642 -0.024651 0.999617 -0.012548 0.053453 0.941681
-15.636976 -0.018192 -9.353541 -0.024651 0.999617 -0.012548 0.078984 0.941681
-15.636976 -0.018192 -9.353541 -0.024642 0.999620 -0.012330 0.078984 0.941681
-17.512665 -0.018192 -10.275489 0.000000 1.000000 -0.000000 0.115134 0.993465
-17.362181 -0.018192 -10.561453 0.000000 1.000000 -0.000000 0.092081 0.993465
-18.084034 -0.018192 -10.821700 0.000000 1.000000 -0.000000 0.092081 0.943907
-18.235144 -0.018192 -10.534544 0.000000 1.000000 -0.000000 0.115134 0.943907
-15.492363 -0.018192 -9.637642 0.000000 1.000000 -0.000000 0.115134 0.993465
-15.347751 -0.018192 -9.921740 0.000000 1.000000 -0.000000 0.092081 0.993465
-16.068645 -0.018192 -10.181715 0.000000 1.000000 -0.000000 0.092081 0.943907
-16.213865 -0.018192 -9.896422 0.000000 1.000000 -0.000000 0.115134 0.943907
-15.347751 -0.018192 -9.921740 -0.000000 1.000000 -0.000000 0.088549 0.943706
-15.205395 -0.018192 -10.193498 -0.000000 1.000000 -0.000000 0.109611 0.943706
-15.929528 -0.018192 -10.447291 -0.000000 1.000000 -0.000000 0.109611 0.993468
-16.068645 -0.018192 -10.181715 -0.000000 1.000000 -0.000000 0.088549 0.993468
-17.362181 -0.018192 -10.561453 -0.000000 1.000000 -0.000000 0.088549 0.943706
-17.227160 -0.018192 -10.815798 -0.000000 1.000000 -0.000000 0.109611 0.943706
-17.952293 -0.018192 -11.069868 -0.000000 1.000000 -0.000000 0.109611 0.993468
-18.084034 -0.018192 -10.821700 -0.000000 1.000000 -0.000000 0.088549 0.993468
-18.839615 -0.018192 -10.798825 0.000000 1.000000 -0.000000 0.266239 0.970062
-18.993301 -0.018192 -10.511428 0.000000 1.000000 -0.000000 0.268811 0.991898
-14.743088 -0.000000 -9.665253 -0.024634 0.999614 -0.012865 0.027922 0.998272
-14.598669 -0.000000 -9.942636 -0.024634 0.999614 -0.012865 0.003043 0.998272
-15.205395 -0.018192 -10.193498 -0.024634 0.999614 -0.012865 0.003043 0.941681
-15.347751 -0.018192 -9.921740 -0.024634 0.999614 -0.012865 0.027922 0.941681
-14.885109 -0.000000 -9.381401 -0.024729 0.999616 -0.012480 0.053453 0.998272
-14.743088 -0.000000 -9.665253 -0.024729 0.999616 -0.012480 0.027922 0.998272
-15.347751 -0.018192 -9.921740 -0.024729 0.999616 -0.012480 0.027922 0.941681
-15.492363 -0.018192 -9.637642 -0.024729 0.999616 -0.012480 0.053453 0.941681
-17.010216 -0.018192 -9.804489 -0.000000 1.000000 -0.000000 0.126846 0.987441
-16.862362 -0.018192 -10.090114 -0.000000 1.000000 -0.000000 0.124597 0.965859
-22.760218 -0.018181 -12.610587 -0.000574 0.999999 0.001040 0.441652 0.988615
-22.641472 -0.018181 -12.544984 -0.000574 0.999999 0.001040 0.441671 0.996610
-22.636003 -0.018168 -12.554975 -0.000574 0.999999 0.001040 0.440980 0.996613
-22.636003 -0.018168 -12.554975 -0.000575 0.999999 0.001039 0.440980 0.996613
-22.341194 -0.017438 -13.093648 -0.000575 0.999999 0.001039 0.403766 0.996768
-23.052298 -0.017441 -13.484168 -0.000575 0.999999 0.001039 0.403779 0.948959
-23.347975 -0.018171 -12.944962 -0.000574 0.999999 0.001039 0.441050 0.948774
-23.352037 -0.018181 -12.937551 -0.000574 0.999999 0.001039 0.441562 0.948771
-22.890802 -0.018181 -12.682732 -0.000574 0.999999 0.001039 0.441633 0.979824
-22.636003 -0.018168 -12.554975 -0.000574 0.999999 0.001039 0.440980 0.996613
-23.052298 -0.017441 -13.484168 -0.000574 0.999999 0.001039 0.403779 0.948959
-22.890802 -0.018181 -12.682732 -0.000575 0.999999 0.001040 0.441633 0.979824
-22.760218 -0.018181 -12.610587 -0.000575 0.999999 0.001040 0.441652 0.988615
-22.636003 -0.018168 -12.554975 -0.000575 0.999999 0.001040 0.440980 0.996613
-25.963814 -0.018181 -14.380483 -0.000572 0.999999 0.001035 0.441163 0.964876
-25.483734 -0.018181 -14.115252 -0.000572 0.999999 0.001035 0.441237 0.997197
-25.481745 -0.018177 -14.118858 -0.000572 0.999999 0.001035 0.440987 0.997199
-25.481745 -0.018177 -14.118858 -0.000573 0.999999 0.001035 0.440987 0.997199
-25.185604 -0.017451 -14.655728 -0.000573 0.999999 0.001035 0.403816 0.997476
-25.896706 -0.017455 -15.046248 -0.000573 0.999999 0.001035 0.403828 0.949668
-25.896706 -0.017455 -15.046248 -0.000571 0.999999 0.001034 0.403828 0.949668
-26.194300 -0.018182 -14.507819 -0.000571 0.999999 0.001034 0.441128 0.949359
-26.106398 -0.018182 -14.459256 -0.000571 0.999999 0.001034 0.441142 0.955277
-26.106398 -0.018182 -14.459256 -0.000572 0.999999 0.001034 0.441142 0.955277
-25.963814 -0.018181 -14.380483 -0.000572 0.999999 0.001034 0.441163 0.964876
-25.481745 -0.018177 -14.118858 -0.000572 0.999999 0.001034 0.440987 0.997199
-25.481745 -0.018177 -14.118858 -0.000571 0.999999 0.001034 0.440987 0.997199
-23.392012 -0.018181 -12.959636 -0.000574 0.999999 0.001039 0.441556 0.994681
-23.352037 -0.018181 -12.937551 -0.000574 0.999999 0.001039 0.441562 0.997372
-23.347975 -0.018171 -12.944962 -0.000574 0.999999 0.001039 0.441050 0.997374
-23.347975 -0.018171 -12.944962 -0.000575 0.999999 0.001038 0.441050 0.997374
-23.052298 -0.017441 -13.484168 -0.000575 0.999999 0.001038 0.403779 0.997560
-23.763399 -0.017445 -13.874688 -0.000575 0.999999 0.001038 0.403791 0.949752
-23.763399 -0.017445 -13.874688 -0.000573 0.999999 0.001037 0.403791 0.949752
-24.062603 -0.018181 -13.330118 -0.000573 0.999999 0.001037 0.441454 0.949533
-24.026318 -0.018181 -13.310071 -0.000573 0.999999 0.001037 0.441459 0.951976
-24.026318 -0.018181 -13.310071 -0.000151 -1.000000 0.000274 0.441459 0.951976
-23.525101 -0.018181 -13.033164 -0.000151 -1.000000 0.000274 0.441536 0.985721
-23.392012 -0.018181 -12.959636 -0.000151 -1.000000 0.000274 0.441556 0.994681
-23.392012 -0.018181 -12.959636 -0.000574 0.999999 0.001038 0.441556 0.994681
-23.347975 -0.018171 -12.944962 -0.000574 0.999999 0.001038 0.441050 0.997374
-23.763399 -0.017445 -13.874688 -0.000574 0.999999 0.001038 0.403791 0.949752
-23.392012 -0.018181 -12.959636 -0.000573 0.999999 0.001037 0.441556 0.994681
-26.607609 -0.018182 -14.736160 -0.000571 0.999999 0.001034 0.441065 0.970133
-26.194300 -0.018182 -14.507819 -0.000571 0.999999 0.001034 0.441128 0.997959
-25.896706 -0.017455 -15.046248 -0.000571 0.999999 0.001034 0.403828 0.998268
-25.896706 -0.017455 -15.046248 -0.000572 0.999999 0.001032 0.403828 0.998268
-26.607807 -0.017458 -15.436769 -0.000572 0.999999 0.001032 0.403841 0.950460
-26.904865 -0.018182 -14.900386 -0.000572 0.999999 0.001032 0.441020 0.950121
-26.752581 -0.018182 -14.816253 -0.000571 0.999999 0.001034 0.441043 0.960373
-26.904865 -0.018182 -14.900386 -0.000571 0.999999 0.001034 0.441020 0.950121
-24.804440 -0.018181 -13.739962 -0.000573 0.999999 0.001036 0.441340 0.995560
-24.773169 -0.018181 -13.722685 -0.000573 0.999999 0.001036 0.441345 0.997665
-24.474501 -0.017448 -14.265208 -0.000573 0.999999 0.001036 0.403803 0.997914
-24.474501 -0.017448 -14.265208 -0.000573 0.999999 0.001035 0.403803 0.997914
-25.185604 -0.017451 -14.655728 -0.000573 0.999999 0.001035 0.403816 0.950106
-25.481745 -0.018177 -14.118858 -0.000573 0.999999 0.001035 0.440987 0.949829
-25.481745 -0.018177 -14.118858 -0.000572 0.999999 0.001035 0.440987 0.949829
-25.483734 -0.018181 -14.115252 -0.000572 0.999999 0.001035 0.441237 0.949827
-25.462601 -0.018181 -14.103577 -0.000572 0.999999 0.001035 0.441240 0.951250
-25.305677 -0.018181 -14.016881 -0.000573 0.999999 0.001036 0.441264 0.961814
-25.305677 -0.018181 -14.016881 -0.000572 0.999999 0.001035 0.441264 0.961814
-25.481745 -0.018177 -14.118858 -0.000573 0.999999 0.001036 0.440987 0.949829
-22.129452 -0.018181 -12.262108 -0.000575 0.999999 0.001041 0.441749 0.983711
-21.930904 -0.018181 -12.152416 -0.000575 0.999999 0.001041 0.441779 0.997078
-21.924099 -0.018164 -12.164876 -0.000575 0.999999 0.001041 0.440919 0.997081
-21.924099 -0.018164 -12.164876 -0.000576 0.999999 0.001040 0.440919 0.997081
-21.630091 -0.017435 -12.703129 -0.000576 0.999999 0.001040 0.403754 0.997206
-22.341194 -0.017438 -13.093648 -0.000576 0.999999 0.001040 0.403766 0.949397
-22.636003 -0.018168 -12.554975 -0.000574 0.999999 0.001040 0.440980 0.949243
-22.641472 -0.018181 -12.544984 -0.000574 0.999999 0.001040 0.441671 0.949240
-22.259003 -0.018181 -12.333681 -0.000574 0.999999 0.001040 0.441729 0.974989
-21.924099 -0.018164 -12.164876 -0.000575 0.999999 0.001040 0.440919 0.997081
-22.341194 -0.017438 -13.093648 -0.000575 0.999999 0.001040 0.403766 0.949397
-22.636003 -0.018168 -12.554975 -0.000575 0.999999 0.001040 0.440980 0.949243
-22.259003 -0.018181 -12.333681 -0.000575 0.999999 0.001041 0.441729 0.974989
-22.259003 -0.018181 -12.333681 -0.000575 0.999999 0.001040 0.441729 0.974989
-16.613876 -0.018192 -9.686792 0.284670 0.000000 -0.958626 0.256879 0.942977
-16.613876 -0.000000 -9.686792 0.284670 0.000000 -0.958626 0.256879 0.944655
-16.521761 -0.000000 -9.659438 0.284670 0.000000 -0.958626 0.252847 0.944655
-16.521761 -0.018192 -9.659438 0.284670 0.000000 -0.958626 0.252847 0.942977
-24.804440 -0.018181 -13.739962 0.007378 0.999884 -0.013332 0.687542 0.964780
-25.305677 -0.018181 -14.016881 0.007378 0.999884 -0.013332 0.756524 0.964098
-25.310709 -0.018021 -14.008123 0.007378 0.999884 -0.013332 0.756556 0.965314
-24.809925 -0.018021 -13.730489 0.007378 0.999884 -0.013332 0.687582 0.966099
-26.752581 -0.018182 -14.816253 0.445172 0.393434 -0.804382 0.086010 0.923452
-26.756403 -0.000002 -14.809616 0.445172 0.393434 -0.804382 0.104323 0.920098
-26.611546 -0.000002 -14.729307 0.445172 0.393434 -0.804382 0.103507 0.920268
-26.607609 -0.018182 -14.736160 0.445172 0.393434 -0.804382 0.084343 0.923834
-24.657047 -0.018181 -13.658531 0.867256 -0.000000 0.497863 0.115518 0.916296
-24.662621 -0.000001 -13.648823 0.867256 -0.000000 0.497863 0.115596 0.916294
-24.662621 -0.018021 -13.648823 0.867256 -0.000000 0.497863 0.115596 0.916294
-26.106398 -0.018182 -14.459256 0.435197 0.438456 -0.786358 0.079085 0.925043
-26.110756 -0.000002 -14.451669 0.435197 0.438456 -0.786358 0.100688 0.920854
-25.968292 -0.000002 -14.372687 0.435197 0.438456 -0.786358 0.099886 0.921021
-25.963814 -0.018181 -14.380483 0.435197 0.438456 -0.786358 0.078267 0.925238
-24.161840 -0.000001 -13.371190 -0.866709 0.000000 -0.498815 0.115642 0.916322
-24.155834 -0.018181 -13.381626 -0.866709 0.000000 -0.498815 0.115558 0.916324
-24.161840 -0.018021 -13.371190 -0.866709 0.000000 -0.498815 0.115642 0.916322
-25.462601 -0.018181 -14.103577 0.424604 0.480719 -0.767216 0.075451 0.925909
-25.467506 -0.000002 -14.095052 0.424604 0.480719 -0.767216 0.097066 0.921608
-25.310709 -0.000002 -14.008123 0.424604 0.480719 -0.767216 0.096184 0.921792
-25.305677 -0.018181 -14.016881 0.424604 0.480719 -0.767216 0.075002 0.926021
-23.525101 -0.018181 -13.033164 0.006129 0.999920 -0.011075 0.688887 0.964430
-24.026318 -0.018181 -13.310071 0.006129 0.999920 -0.011075 0.757865 0.963748
-24.032423 -0.018021 -13.299441 0.006129 0.999920 -0.011075 0.757905 0.965224
-23.531635 -0.018021 -13.021804 0.006129 0.999920 -0.011075 0.688930 0.966009
-24.773169 -0.018181 -13.722685 0.414308 0.515753 -0.749898 0.073477 0.926398
-24.804440 -0.018181 -13.739962 0.414308 0.515753 -0.749898 0.073567 0.926376
-24.809925 -0.000001 -13.730489 0.414308 0.515753 -0.749898 0.093364 0.922378
-24.809925 -0.000001 -13.730489 0.412890 0.524283 -0.744748 0.093364 0.922378
-24.662621 -0.000001 -13.648823 0.412890 0.524283 -0.744748 0.092535 0.922551
-24.657047 -0.018181 -13.658531 0.412890 0.524283 -0.744748 0.073311 0.926440
-24.809925 -0.000001 -13.730489 0.414304 0.515740 -0.749910 0.093364 0.922378
-24.657047 -0.018181 -13.658531 0.414304 0.515740 -0.749910 0.073311 0.926440
-24.773169 -0.018181 -13.722685 0.414304 0.515740 -0.749910 0.073477 0.926398
-23.392012 -0.018181 -12.959636 0.867202 -0.000000 0.497956 0.117211 0.916036
-23.398649 -0.000001 -12.948076 0.867202 -0.000000 0.497956 0.117305 0.916033
-23.398649 -0.018021 -12.948076 0.867202 -0.000000 0.497956 0.117305 0.916033
-24.062603 -0.018181 -13.330118 0.403190 0.552131 -0.729788 0.072462 0.926659
-24.155834 -0.018181 -13.381626 0.403190 0.552131 -0.729788 0.072595 0.926624
-24.161840 -0.000001 -13.371190 0.403190 0.552131 -0.729788 0.089716 0.923137
-24.161840 -0.000001 -13.371190 0.402033 0.559013 -0.725171 0.089716 0.923137
-24.032423 -0.000001 -13.299441 0.402033 0.559013 -0.725171 0.088987 0.923289
-24.026318 -0.018181 -13.310071 0.402033 0.559013 -0.725171 0.072436 0.926666
-24.161840 -0.000001 -13.371190 0.403187 0.552159 -0.729768 0.089716 0.923137
-24.026318 -0.018181 -13.310071 0.403187 0.552159 -0.729768 0.072436 0.926666
-24.062603 -0.018181 -13.330118 0.403187 0.552159 -0.729768 0.072462 0.926659
-22.897873 -0.018021 -12.670445 -0.866724 -0.000000 -0.498788 0.117351 0.916061
-22.897873 -0.000001 -12.670445 -0.866724 -0.000000 -0.498788 0.117351 0.916061
-22.890802 -0.018181 -12.682732 -0.866724 -0.000000 -0.498788 0.117251 0.916064
-23.525101 -0.018181 -13.033164 0.391673 0.587995 -0.707711 0.072079 0.926761
-23.531635 -0.000001 -13.021804 0.391673 0.587995 -0.707711 0.086168 0.923875
-23.398649 -0.000001 -12.948076 0.391673 0.587995 -0.707711 0.085419 0.924031
-23.392012 -0.018181 -12.959636 0.391673 0.587995 -0.707711 0.071984 0.926786
-22.641472 -0.018181 -12.544984 0.005397 0.999938 -0.009770 0.741283 0.963942
-22.760218 -0.018181 -12.610587 0.005397 0.999938 -0.009770 0.757625 0.963780
-22.767387 -0.018021 -12.598104 0.005397 0.999938 -0.009770 0.757671 0.965514
-22.767387 -0.018021 -12.598104 0.005113 0.999944 -0.009223 0.757671 0.965514
-22.266609 -0.018020 -12.320472 0.005113 0.999944 -0.009223 0.688697 0.966299
-22.259003 -0.018181 -12.333681 0.005113 0.999944 -0.009223 0.688646 0.964463
-22.259003 -0.018181 -12.333681 0.005397 0.999938 -0.009770 0.688646 0.964463
-22.890802 -0.018181 -12.682732 0.380765 0.617793 -0.688004 0.071695 0.926863
-22.897873 -0.000001 -12.670445 0.380765 0.617793 -0.688004 0.082600 0.924618
-22.767387 -0.000001 -12.598104 0.380765 0.617793 -0.688004 0.081865 0.924770
-22.760218 -0.018181 -12.610587 0.380765 0.617793 -0.688004 0.071622 0.926882
-21.628242 -0.018181 -11.985205 0.004901 0.999949 -0.008857 0.688289 0.964519
-22.129452 -0.018181 -12.262108 0.004901 0.999949 -0.008857 0.757267 0.963837
-22.137154 -0.018020 -12.248701 0.004901 0.999949 -0.008857 0.757316 0.965698
-21.636379 -0.018020 -11.971071 0.004901 0.999949 -0.008857 0.688343 0.966483
-22.259003 -0.018181 -12.333681 0.369985 0.645129 -0.668521 0.071529 0.926909
-22.266609 -0.000001 -12.320472 0.369985 0.645129 -0.668521 0.079046 0.925357
-22.137154 -0.000001 -12.248701 0.369985 0.645129 -0.668521 0.078317 0.925509
-22.129452 -0.018181 -12.262108 0.369985 0.645129 -0.668521 0.071520 0.926912
-22.129452 -0.018181 -12.262108 0.867102 -0.000000 0.498130 0.116091 0.915939
-22.137154 -0.000001 -12.248701 0.867102 -0.000000 0.498130 0.116200 0.915936
-22.137154 -0.018020 -12.248701 0.867102 -0.000000 0.498130 0.116200 0.915936
-21.628242 -0.018181 -11.985205 0.356298 0.677483 -0.643482 0.071490 0.926922
-21.636379 -0.000001 -11.971071 0.356298 0.677483 -0.643482 0.075498 0.926095
-20.917692 -0.000001 -11.572630 0.356298 0.677483 -0.643482 0.071452 0.926937
-21.220339 -0.018181 -11.759850 0.356298 0.677483 -0.643482 0.071468 0.926929
-24.155834 -0.018181 -13.381626 -0.000573 0.999999 0.001037 0.441439 0.991242
-24.062603 -0.018181 -13.330118 -0.000573 0.999999 0.001037 0.441454 0.997519
-23.763399 -0.017445 -13.874688 -0.000573 0.999999 0.001037 0.403791 0.997737
-23.763399 -0.017445 -13.874688 -0.000574 0.999999 0.001036 0.403791 0.997737
-24.474501 -0.017448 -14.265208 -0.000574 0.999999 0.001036 0.403803 0.949929
-24.773169 -0.018181 -13.722685 -0.000574 0.999999 0.001036 0.441345 0.949680
-24.657047 -0.018181 -13.658531 -0.000573 0.999999 0.001037 0.441363 0.957498
-24.773169 -0.018181 -13.722685 -0.000573 0.999999 0.001037 0.441345 0.949680
-15.636976 -0.018192 -9.353541 -0.000000 1.000000 -0.000000 0.131509 0.964998
-15.492363 -0.018192 -9.637642 -0.000000 1.000000 -0.000000 0.128809 0.943990
-16.213865 -0.018192 -9.896422 -0.000000 1.000000 -0.000000 0.179738 0.943921
-16.359085 -0.018192 -9.611130 -0.000000 1.000000 -0.000000 0.182449 0.965018
-15.419841 -0.011715 -9.262396 0.387047 0.000000 -0.922060 0.203668 0.943574
-15.419841 -0.000000 -9.262396 0.387047 0.000000 -0.922060 0.203668 0.944655
-15.027130 -0.000000 -9.097550 0.387047 0.000000 -0.922060 0.185794 0.944655
-16.213865 -0.018192 -9.896422 -0.000000 1.000000 -0.000000 0.128625 0.942567
-16.862362 -0.018192 -10.090114 -0.000000 1.000000 -0.000000 0.177140 0.942746
-17.010216 -0.018192 -9.804489 -0.000000 1.000000 -0.000000 0.181352 0.965413
-17.010216 -0.018192 -9.804489 0.001683 0.999982 -0.005669 0.181352 0.965413
-16.613876 -0.018192 -9.686792 0.001683 0.999982 -0.005669 0.151715 0.965257
-16.521761 -0.018192 -9.659438 0.001683 0.999982 -0.005669 0.144827 0.965220
-16.521761 -0.018192 -9.659438 -0.000000 1.000000 -0.000000 0.144827 0.965220
-16.359085 -0.018192 -9.611130 -0.000000 1.000000 -0.000000 0.132663 0.965156
-21.628242 -0.018181 -11.985205 -0.000576 0.999999 0.001042 0.441825 0.969470
-21.220339 -0.018181 -11.759850 -0.000576 0.999999 0.001042 0.441888 0.996932
-20.918989 -0.017432 -12.312609 -0.000576 0.999999 0.001042 0.403741 0.997028
-20.918989 -0.017432 -12.312609 -0.000576 0.999999 0.001040 0.403741 0.997028
-21.630091 -0.017435 -12.703129 -0.000576 0.999999 0.001040 0.403754 0.949220
-21.924099 -0.018164 -12.164876 -0.000576 0.999999 0.001040 0.440919 0.949096
-21.924099 -0.018164 -12.164876 -0.000575 0.999999 0.001041 0.440919 0.949096
-21.930904 -0.018181 -12.152416 -0.000575 0.999999 0.001041 0.441779 0.949093
-21.628242 -0.018181 -11.985205 -0.000575 0.999999 0.001041 0.441825 0.969470
-21.924099 -0.018164 -12.164876 -0.000576 0.999999 0.001042 0.440919 0.949096
-22.760218 -0.018181 -12.610587 0.867140 -0.000000 0.498064 0.115989 0.915627
-22.767387 -0.000001 -12.598104 0.867140 -0.000000 0.498064 0.116090 0.915625
-22.767387 -0.018021 -12.598104 0.867140 -0.000000 0.498064 0.116090 0.915625
-24.809925 -0.000001 -13.730489 -0.865377 0.000000 -0.501122 0.115531 0.915866
-24.804440 -0.018181 -13.739962 -0.865377 0.000000 -0.501122 0.115453 0.915869
-24.809925 -0.018021 -13.730489 -0.865377 0.000000 -0.501122 0.115531 0.915866
-21.636379 -0.018020 -11.971071 -0.866641 -0.000000 -0.498933 0.116246 0.915964
-21.636379 -0.000001 -11.971071 -0.866641 -0.000000 -0.498933 0.116246 0.915964
-21.628242 -0.018181 -11.985205 -0.866641 -0.000000 -0.498933 0.116131 0.915967
-24.026318 -0.018181 -13.310071 0.867140 -0.000000 0.498065 0.117108 0.915696
-24.032423 -0.000001 -13.299441 0.867140 -0.000000 0.498065 0.117195 0.915693
-24.032423 -0.018021 -13.299441 0.867140 -0.000000 0.498065 0.117195 0.915693
-23.352037 -0.018181 -12.937551 0.005826 0.999927 -0.010545 0.752365 0.963863
-23.392012 -0.018181 -12.959636 0.005826 0.999927 -0.010545 0.757866 0.963809
-23.398649 -0.018021 -12.948076 0.005826 0.999927 -0.010545 0.757909 0.965414
-23.398649 -0.018021 -12.948076 0.005495 0.999936 -0.009912 0.757909 0.965414
-22.897873 -0.018021 -12.670445 0.005495 0.999936 -0.009912 0.688936 0.966199
-22.890802 -0.018181 -12.682732 0.005495 0.999936 -0.009912 0.688889 0.964491
-22.890802 -0.018181 -12.682732 0.005826 0.999927 -0.010545 0.688889 0.964491
-25.305677 -0.018181 -14.016881 0.867079 -0.000000 0.498171 0.115414 0.915840
-25.310709 -0.000002 -14.008123 0.867079 -0.000000 0.498171 0.115485 0.915838
-25.310709 -0.018021 -14.008123 0.867079 -0.000000 0.498171 0.115485 0.915838
-22.266609 -0.018020 -12.320472 -0.866590 -0.000000 -0.499020 0.116136 0.915653
-22.266609 -0.000001 -12.320472 -0.866590 -0.000000 -0.499020 0.116136 0.915653
-22.259003 -0.018181 -12.333681 -0.866590 -0.000000 -0.499020 0.116029 0.915656
-24.155834 -0.018181 -13.381626 0.006687 0.999905 -0.012083 0.689524 0.964861
-24.657047 -0.018181 -13.658531 0.006687 0.999905 -0.012083 0.758502 0.964178
-24.662621 -0.018021 -13.648823 0.006687 0.999905 -0.012083 0.758537 0.965526
-24.161840 -0.018021 -13.371190 0.006687 0.999905 -0.012083 0.689563 0.966311
-23.531635 -0.018021 -13.021804 -0.866825 -0.000000 -0.498613 0.117240 0.915721
-23.531635 -0.000001 -13.021804 -0.866825 -0.000000 -0.498613 0.117240 0.915721
-23.525101 -0.018181 -13.033164 -0.866825 -0.000000 -0.498613 0.117148 0.915724
-25.467506 -0.000002 -14.095052 -0.866736 0.000000 -0.498768 0.116743 0.916063
-25.462601 -0.018181 -14.103577 -0.866736 0.000000 -0.498768 0.116674 0.916065
-25.467506 -0.018021 -14.095052 -0.866736 0.000000 -0.498768 0.116743 0.916063
-25.483734 -0.018181 -14.115252 0.008618 0.999841 -0.015599 0.691783 0.964462
-25.963814 -0.018181 -14.380483 0.008618 0.999841 -0.015599 0.757853 0.963808
-25.968292 -0.018021 -14.372687 0.008618 0.999841 -0.015599 0.757882 0.964891
-25.968292 -0.018021 -14.372687 0.007902 0.999867 -0.014253 0.757882 0.964891
-25.467506 -0.018021 -14.095052 0.007902 0.999867 -0.014253 0.688907 0.965676
-25.462601 -0.018181 -14.103577 0.007902 0.999867 -0.014253 0.688875 0.964491
-25.968292 -0.018021 -14.372687 0.008614 0.999841 -0.015591 0.757882 0.964891
-25.462601 -0.018181 -14.103577 0.008614 0.999841 -0.015591 0.688875 0.964491
-25.483734 -0.018181 -14.115252 0.008614 0.999841 -0.015591 0.691783 0.964462
-25.963814 -0.018181 -14.380483 0.867092 -0.000000 0.498148 0.116634 0.916037
-25.968292 -0.000002 -14.372687 0.867092 -0.000000 0.498148 0.116697 0.916035
-25.968292 -0.018021 -14.372687 0.867092 -0.000000 0.498148 0.116697 0.916035
-26.110756 -0.000002 -14.451669 -0.867128 0.000000 -0.498086 0.116632 0.915647
-26.106398 -0.018182 -14.459256 -0.867128 0.000000 -0.498086 0.116570 0.915648
-26.110756 -0.018021 -14.451669 -0.867128 0.000000 -0.498086 0.116632 0.915647
-26.194300 -0.018182 -14.507819 0.009797 0.999795 -0.017734 0.700585 0.965143
-26.607609 -0.018182 -14.736160 0.009797 0.999795 -0.017734 0.757466 0.964580
-26.611546 -0.018021 -14.729307 0.009797 0.999795 -0.017734 0.757491 0.965532
-26.611546 -0.018021 -14.729307 0.008877 0.999832 -0.016012 0.757491 0.965532
-26.110756 -0.018021 -14.451669 0.008877 0.999832 -0.016012 0.688516 0.966317
-26.106398 -0.018182 -14.459256 0.008877 0.999832 -0.016012 0.688488 0.965263
-26.611546 -0.018021 -14.729307 0.009798 0.999795 -0.017736 0.757491 0.965532
-26.106398 -0.018182 -14.459256 0.009798 0.999795 -0.017736 0.688488 0.965263
-26.194300 -0.018182 -14.507819 0.009798 0.999795 -0.017736 0.700585 0.965143
-26.607609 -0.018182 -14.736160 0.867112 -0.000000 0.498113 0.116530 0.915620
-26.611546 -0.000002 -14.729307 0.867112 -0.000000 0.498113 0.116586 0.915619
-26.611546 -0.018021 -14.729307 0.867112 -0.000000 0.498113 0.116586 0.915619
-26.756403 -0.000002 -14.809616 -0.866552 0.000000 -0.499086 0.115290 0.916232
-26.752581 -0.018182 -14.816253 -0.866552 0.000000 -0.499086 0.115236 0.916233
-26.756403 -0.018021 -14.809616 -0.866552 0.000000 -0.499086 0.115290 0.916232
-26.904865 -0.018182 -14.900386 0.011358 0.999724 -0.020559 0.709490 0.964795
-27.253799 -0.018182 -15.093162 0.011358 0.999724 -0.020559 0.757510 0.964319
-27.257193 -0.018022 -15.087254 0.011358 0.999724 -0.020559 0.757532 0.965140
-27.257193 -0.018022 -15.087254 0.010136 0.999781 -0.018283 0.757532 0.965140
-26.756403 -0.018021 -14.809616 0.010136 0.999781 -0.018283 0.688557 0.965924
-26.752581 -0.018182 -14.816253 0.010136 0.999781 -0.018283 0.688532 0.965002
-27.257193 -0.018022 -15.087254 0.011357 0.999724 -0.020556 0.757532 0.965140
-26.752581 -0.018182 -14.816253 0.011357 0.999724 -0.020556 0.688532 0.965002
-26.904865 -0.018182 -14.900386 0.011357 0.999724 -0.020556 0.709490 0.964795
-27.253799 -0.018182 -15.093162 0.867156 -0.000000 0.498037 0.115196 0.916205
-27.257193 -0.000002 -15.087254 0.867156 -0.000000 0.498037 0.115244 0.916204
-27.257193 -0.018022 -15.087254 0.867156 -0.000000 0.498037 0.115244 0.916204
-28.556629 -0.000046 -16.506971 0.000031 1.000000 -0.000061 0.773892 0.529012
-28.830818 -0.000004 -15.989487 0.000031 1.000000 -0.000061 0.791650 0.562528
-27.996300 -0.000002 -15.497015 0.000031 1.000000 -0.000061 0.737601 0.594423
-27.698086 -0.000042 -16.035480 0.000031 1.000000 -0.000061 0.718287 0.559549
4 0 1 2 3
4 4 5 6 7
4 8 9 10 11
4 12 13 14 15
3 16 17 18
4 19 20 21 22
4 23 24 25 26
3 27 28 29
3 30 31 32
3 30 32 33
4 34 35 36 37
3 38 39 40
4 41 42 43 44
3 45 46 47
3 48 49 50
3 47 51 45
4 52 53 54 55
4 56 57 58 59
4 60 61 62 63
4 64 65 66 67
4 68 69 70 71
4 72 73 74 75
4 76 77 78 79
4 80 81 82 83
3 84 85 86
3 86 87 88
3 86 88 84
4 89 90 91 92
3 93 94 95
3 96 97 98
3 95 99 93
4 100 101 102 103
4 104 105 106 107
4 108 109 110 111
4 112 113 114 115
4 116 117 88 87
4 118 119 120 121
4 122 123 124 125
4 86 85 126 127
3 128 129 130
3 131 132 133
3 134 135 136
3 137 138 134
3 139 140 141
3 137 134 136
3 142 143 144
3 145 146 147
3 148 149 150
3 151 152 153
3 154 148 150
3 155 156 157
3 158 159 160
3 161 162 163
3 164 165 166
3 167 168 169
3 161 163 170
3 171 172 173
3 174 175 176
3 177 171 173
3 173 178 177
3 179 180 181
3 182 183 184
3 185 186 187
3 188 179 181
3 185 187 189
3 181 190 188
3 191 192 193
3 194 195 196
3 197 198 199
3 200 201 202
3 203 191 193
3 200 202 204
4 205 206 207 208
4 209 210 211 212
4 213 214 215 216
3 217 218 219
4 220 221 222 223
3 224 225 226
4 227 228 229 230
4 231 232 233 234
3 235 236 237
3 238 239 240
3 241 242 243
3 244 245 246
3 247 248 249
3 250 251 252
3 253 254 255
3 256 257 258
4 259 260 261 262
3 263 264 265
3 266 267 268
3 265 269 263
4 270 271 272 273
4 274 275 276 277
4 278 279 280 281
3 282 283 284
4 285 286 287 288
3 289 290 291
3 292 293 294
3 295 289 291
3 291 296 295
4 297 298 299 300
3 301 302 303
3 304 305 306
3 307 308 309
3 310 311 304
3 306 310 304
3 312 313 314
3 315 316 317
3 318 319 320
3 314 321 312
3 322 323 324
3 325 326 327
3 328 329 330
3 331 332 333
3 334 335 336
3 337 338 339
3 336 340 334
3 341 342 343
3 344 345 346
4 347 348 349 350
3 351 352 353
3 354 355 356
3 357 358 359
3 360 361 362
3 363 364 365
3 366 367 368
3 369 370 371
3 372 373 374
3 375 376 377
3 378 379 380
3 381 382 383
3 384 385 386
3 387 388 389
3 390 391 392
3 393 394 395
3 396 397 398
4 399 400 401 402
