ply
format ascii 1.0
comment Created by Blender 2.78 (sub 0) - www.blender.org, source file: 'soult.blend'
element vertex 211
property float x
property float y
property float z
property float nx
property float ny
property float nz
property float s
property float t
element face 59
property list uchar uint vertex_indices
end_header
-19.362717 -0.000000 -10.715141 0.000002 1.000000 -0.000008 0.275732 0.997427
-19.050636 -0.000002 -11.286511 0.000002 1.000000 -0.000008 0.275560 0.951424
-20.601788 -0.000009 -12.138367 0.000002 1.000000 -0.000008 0.400602 0.950668
-20.917692 -0.000001 -11.572630 0.000002 1.000000 -0.000008 0.401202 0.996449
-16.359085 -0.000000 -9.611130 0.335981 0.000000 -0.941869 0.245726 0.944655
-15.636976 -0.000000 -9.353541 0.335981 0.000000 -0.941869 0.213551 0.944655
-15.636976 -0.040000 -9.353541 0.335981 0.000000 -0.941869 0.213551 0.942977
-16.359085 -0.040000 -9.611130 0.335981 0.000000 -0.941869 0.245726 0.942977
-17.952293 -0.000000 -11.069868 -0.393986 0.000000 0.919116 0.333667 0.946133
-18.556236 -0.000000 -11.328753 -0.393986 0.000000 0.919116 0.361242 0.946133
-18.556236 -0.040000 -11.328753 -0.393986 0.000000 0.919116 0.361242 0.947812
-17.952293 -0.040000 -11.069868 -0.393986 0.000000 0.919116 0.333667 0.947812
-17.227160 -0.000000 -10.815798 -0.330667 0.000000 0.943747 0.301423 0.946133
-17.952293 -0.000000 -11.069868 -0.330667 0.000000 0.943747 0.333667 0.946133
-17.952293 -0.040000 -11.069868 -0.330667 0.000000 0.943747 0.333667 0.947812
-17.227160 -0.040000 -10.815798 -0.330667 0.000000 0.943747 0.301423 0.947812
-16.577452 -0.000000 -10.635694 -0.267134 0.000000 0.963659 0.273129 0.946133
-17.227160 -0.000000 -10.815798 -0.267134 0.000000 0.963659 0.301423 0.946133
-17.227160 -0.040000 -10.815798 -0.267134 0.000000 0.963659 0.301423 0.947812
-16.577452 -0.040000 -10.635694 -0.267134 0.000000 0.963659 0.273129 0.947812
-17.663149 -0.000000 -9.989522 0.272650 0.000000 -0.962113 0.302709 0.944655
-17.010216 -0.000000 -9.804489 0.272650 0.000000 -0.962113 0.274230 0.944655
-17.010216 -0.040000 -9.804489 0.272650 0.000000 -0.962113 0.274230 0.942977
-17.663149 -0.040000 -9.989522 0.272650 0.000000 -0.962113 0.302709 0.942977
-15.205395 -0.040000 -10.193498 -0.382096 0.000000 0.924123 0.212612 0.947812
-14.598669 -0.000000 -9.942636 -0.382096 0.000000 0.924123 0.185062 0.946134
-15.205395 -0.000000 -10.193498 -0.382096 0.000000 0.924123 0.212612 0.946133
-15.205395 -0.000000 -10.193498 -0.330753 0.000000 0.943717 0.212612 0.946133
-15.929528 -0.000000 -10.447291 -0.330753 0.000000 0.943717 0.244813 0.946133
-15.929528 -0.040000 -10.447291 -0.330753 0.000000 0.943717 0.244813 0.947812
-15.205395 -0.040000 -10.193498 -0.330753 0.000000 0.943717 0.212612 0.947812
-18.386251 -0.000000 -10.247392 0.335896 0.000000 -0.941899 0.334925 0.944655
-17.663149 -0.000000 -9.989522 0.335896 0.000000 -0.941899 0.302709 0.944655
-17.663149 -0.040000 -9.989522 0.335896 0.000000 -0.941899 0.302709 0.942977
-18.386251 -0.040000 -10.247392 0.335896 0.000000 -0.941899 0.334925 0.942977
-17.010216 -0.000000 -9.804489 0.284673 0.000000 -0.958625 0.274230 0.944655
-16.359085 -0.000000 -9.611130 0.284673 0.000000 -0.958625 0.245726 0.944655
-16.359085 -0.040000 -9.611130 0.284673 0.000000 -0.958625 0.245726 0.942977
-17.010216 -0.040000 -9.804489 0.284673 0.000000 -0.958625 0.274230 0.942977
-18.685928 -0.040000 -11.086223 0.083979 0.995411 0.045866 0.078650 0.965997
-19.050636 -0.000002 -11.286511 0.083979 0.995411 0.045866 0.078650 0.998064
-19.362717 -0.000000 -10.715141 0.083979 0.995411 0.045866 0.027338 0.998064
-19.362717 -0.000000 -10.715141 0.083246 0.995534 0.044516 0.027338 0.998064
-18.993301 -0.040000 -10.511428 0.083246 0.995534 0.044516 0.027338 0.965997
-18.839615 -0.040000 -10.798825 0.083246 0.995534 0.044516 0.053332 0.965997
-18.685928 -0.040000 -11.086223 0.083246 0.995534 0.044516 0.078650 0.965997
-18.993301 -0.000000 -10.511428 0.398855 0.000000 -0.917014 0.362705 0.944655
-18.386251 -0.000000 -10.247392 0.398855 0.000000 -0.917014 0.334925 0.944655
-18.386251 -0.040000 -10.247392 0.398855 0.000000 -0.917014 0.334925 0.942977
-18.993301 -0.040000 -10.511428 0.398855 0.000000 -0.917014 0.362705 0.942977
-18.993301 -0.000000 -10.511428 0.482892 0.000000 -0.875680 0.362705 0.944655
-18.993301 -0.040000 -10.511428 0.482892 0.000000 -0.875680 0.362705 0.942977
-19.362717 -0.000000 -10.715141 0.482892 0.000000 -0.875680 0.380408 0.944655
-15.929528 -0.000000 -10.447291 -0.279214 0.000000 0.960229 0.244813 0.946133
-16.577452 -0.000000 -10.635694 -0.279214 0.000000 0.960229 0.273129 0.946133
-16.577452 -0.040000 -10.635694 -0.279214 0.000000 0.960229 0.273129 0.947812
-15.929528 -0.040000 -10.447291 -0.279214 0.000000 0.960229 0.244813 0.947812
-16.862362 -0.040000 -10.090114 -0.000000 1.000000 -0.000000 0.177140 0.942746
-17.010216 -0.040000 -9.804489 -0.000000 1.000000 -0.000000 0.181352 0.965413
-16.359085 -0.040000 -9.611130 -0.000000 1.000000 -0.000000 0.132663 0.965156
-16.213865 -0.040000 -9.896422 -0.000000 1.000000 -0.000000 0.128625 0.942567
-28.830818 -0.000004 -15.989487 0.000031 1.000000 -0.000058 0.348329 0.995486
-27.996300 -0.000002 -15.497015 0.000031 1.000000 -0.000058 0.275675 0.997460
-27.698086 -0.000042 -16.035480 0.000031 1.000000 -0.000058 0.275685 0.951291
-27.698086 -0.000042 -16.035480 0.000033 1.000000 -0.000069 0.275685 0.951291
-28.556629 -0.000046 -16.506971 0.000033 1.000000 -0.000069 0.349152 0.951568
-28.784748 -0.000008 -16.066088 0.000033 1.000000 -0.000069 0.348091 0.988786
-27.698086 -0.000042 -16.035480 0.000032 1.000000 -0.000031 0.275685 0.951291
-28.784748 -0.000008 -16.066088 0.000032 1.000000 -0.000031 0.348091 0.988786
-28.830818 -0.000004 -15.989487 0.000032 1.000000 -0.000031 0.348329 0.995486
-26.904865 -0.039990 -14.900386 0.000027 1.000000 -0.000054 0.441020 0.997491
-26.595972 -0.040026 -15.450530 0.000027 1.000000 -0.000054 0.403841 0.997830
-27.307074 -0.040030 -15.841050 0.000027 1.000000 -0.000054 0.403853 0.950022
-27.615431 -0.039990 -15.292953 0.000027 1.000000 -0.000054 0.440911 0.949652
-27.615431 -0.039990 -15.292953 0.080121 0.995785 0.044654 0.028043 0.965997
-27.307074 -0.040030 -15.841050 0.080121 0.995785 0.044654 0.077068 0.965997
-27.698086 -0.000042 -16.035480 0.080121 0.995785 0.044654 0.077068 0.998064
-27.996300 -0.000002 -15.497015 0.080121 0.995785 0.044654 0.028043 0.998064
-27.615431 -0.039990 -15.292953 0.479142 0.153268 -0.864252 0.113227 0.914975
-27.996300 -0.000002 -15.497015 0.479142 0.153268 -0.864252 0.133620 0.912687
-20.917692 -0.000001 -11.572630 0.479142 0.153268 -0.864252 0.020221 0.936279
-20.917692 -0.000001 -11.572630 0.442932 0.401301 -0.801729 0.020221 0.936279
-21.220339 -0.039989 -11.759850 0.442932 0.401301 -0.801729 0.020267 0.936257
-21.930904 -0.039989 -12.152416 0.442932 0.401301 -0.801729 0.020377 0.936220
-22.641472 -0.039989 -12.544984 0.002133 0.999990 -0.003862 0.020515 0.936174
-23.352037 -0.039990 -12.937551 0.002133 0.999990 -0.003862 0.021655 0.935871
-24.062603 -0.039990 -13.330118 0.002133 0.999990 -0.003862 0.023096 0.935487
-20.917692 -0.000001 -11.572630 0.442931 0.401304 -0.801728 0.020221 0.936279
-21.930904 -0.039989 -12.152416 0.442931 0.401304 -0.801728 0.020377 0.936220
-22.641472 -0.039989 -12.544984 0.442931 0.401304 -0.801728 0.020515 0.936174
-26.904865 -0.039990 -14.900386 0.442924 0.401336 -0.801715 0.066631 0.925221
-27.615431 -0.039990 -15.292953 0.442924 0.401336 -0.801715 0.113227 0.914975
-20.917692 -0.000001 -11.572630 0.442924 0.401336 -0.801715 0.020221 0.936279
-24.773169 -0.039990 -13.722685 0.002133 0.999990 -0.003862 0.025985 0.934745
-25.483734 -0.039990 -14.115252 0.002133 0.999990 -0.003862 0.031774 0.933313
-26.194300 -0.039990 -14.507819 0.002133 0.999990 -0.003862 0.043378 0.930548
-26.194300 -0.039990 -14.507819 0.442925 0.401330 -0.801718 0.043378 0.930548
-26.904865 -0.039990 -14.900386 0.442925 0.401330 -0.801718 0.066631 0.925221
-20.917692 -0.000001 -11.572630 0.442925 0.401330 -0.801718 0.020221 0.936279
-20.917692 -0.000001 -11.572630 0.442936 0.401281 -0.801736 0.020221 0.936279
-22.641472 -0.039989 -12.544984 0.442936 0.401281 -0.801736 0.020515 0.936174
-24.062603 -0.039990 -13.330118 0.442936 0.401281 -0.801736 0.023096 0.935487
-24.773169 -0.039990 -13.722685 0.442938 0.401274 -0.801739 0.025985 0.934745
-26.194300 -0.039990 -14.507819 0.442938 0.401274 -0.801739 0.043378 0.930548
-20.917692 -0.000001 -11.572630 0.442938 0.401274 -0.801739 0.020221 0.936279
-20.917692 -0.000001 -11.572630 0.442928 0.401316 -0.801723 0.020221 0.936279
-24.062603 -0.039990 -13.330118 0.442928 0.401316 -0.801723 0.023096 0.935487
-24.773169 -0.039990 -13.722685 0.442928 0.401316 -0.801723 0.025985 0.934745
-20.917692 -0.000001 -11.572630 -0.097338 0.993780 -0.054098 0.078345 0.998064
-20.601788 -0.000009 -12.138367 -0.097338 0.993780 -0.054098 0.027317 0.998064
-20.907154 -0.040000 -12.326370 -0.097338 0.993780 -0.054098 0.027317 0.965997
-21.220339 -0.039989 -11.759850 -0.097338 0.993780 -0.054098 0.078345 0.965997
-17.227160 -0.040000 -10.815798 -0.000000 1.000000 -0.000000 0.098750 0.947866
-17.362181 -0.040000 -10.561453 -0.000000 1.000000 -0.000000 0.119385 0.947364
-16.714508 -0.040000 -10.375737 -0.000000 1.000000 -0.000000 0.110527 0.994843
-16.577452 -0.040000 -10.635694 -0.000000 1.000000 -0.000000 0.089467 0.995295
-17.952293 -0.040000 -11.069868 0.000000 1.000000 -0.000000 0.091142 0.992059
-18.556236 -0.040000 -11.328753 0.000000 1.000000 -0.000000 0.097749 0.945423
-18.685928 -0.040000 -11.086223 0.000000 1.000000 -0.000000 0.117434 0.946499
-18.084034 -0.040000 -10.821700 0.000000 1.000000 -0.000000 0.111248 0.993220
-16.714508 -0.040000 -10.375737 -0.000000 1.000000 -0.000000 0.095613 0.946265
-16.862362 -0.040000 -10.090114 -0.000000 1.000000 -0.000000 0.118665 0.945943
-16.213865 -0.040000 -9.896422 -0.000000 1.000000 -0.000000 0.110292 0.993730
-16.068645 -0.040000 -10.181715 -0.000000 1.000000 -0.000000 0.087345 0.993893
-17.362181 -0.040000 -10.561453 -0.000000 1.000000 -0.000000 0.096818 0.946598
-17.512665 -0.040000 -10.275489 -0.000000 1.000000 -0.000000 0.119977 0.946118
-16.862362 -0.040000 -10.090114 -0.000000 1.000000 -0.000000 0.111012 0.993754
-16.714508 -0.040000 -10.375737 -0.000000 1.000000 -0.000000 0.087960 0.994076
-18.685928 -0.040000 -11.086223 0.000000 1.000000 -0.000000 0.095006 0.943887
-18.839615 -0.040000 -10.798825 0.000000 1.000000 -0.000000 0.118333 0.945163
-18.235144 -0.040000 -10.534544 0.000000 1.000000 -0.000000 0.112036 0.992032
-18.084034 -0.040000 -10.821700 0.000000 1.000000 -0.000000 0.088820 0.990607
-17.512665 -0.040000 -10.275489 -0.000000 1.000000 -0.000000 0.170006 0.970238
-17.663149 -0.040000 -9.989522 -0.000000 1.000000 -0.000000 0.172412 0.991906
-17.010216 -0.040000 -9.804489 -0.000000 1.000000 -0.000000 0.126846 0.987441
-16.862362 -0.040000 -10.090114 -0.000000 1.000000 -0.000000 0.124597 0.965859
-16.577452 -0.040000 -10.635694 -0.000000 1.000000 -0.000000 0.097119 0.947484
-16.714508 -0.040000 -10.375737 -0.000000 1.000000 -0.000000 0.118180 0.947031
-16.068645 -0.040000 -10.181715 -0.000000 1.000000 -0.000000 0.109912 0.994659
-15.929528 -0.040000 -10.447291 -0.000000 1.000000 -0.000000 0.088425 0.995064
-18.235144 -0.040000 -10.534544 0.000000 1.000000 -0.000000 0.221764 0.971768
-18.386251 -0.040000 -10.247392 0.000000 1.000000 -0.000000 0.224180 0.993525
-15.636976 -0.040000 -9.353541 -0.000000 1.000000 -0.000000 0.131509 0.964998
-15.492363 -0.040000 -9.637642 -0.000000 1.000000 -0.000000 0.128809 0.943990
-16.213865 -0.040000 -9.896422 -0.000000 1.000000 -0.000000 0.179738 0.943921
-16.359085 -0.040000 -9.611130 -0.000000 1.000000 -0.000000 0.182449 0.965018
-17.512665 -0.040000 -10.275489 -0.000000 1.000000 -0.000000 0.112324 0.995842
-17.362181 -0.040000 -10.561453 -0.000000 1.000000 -0.000000 0.089165 0.996322
-18.084034 -0.040000 -10.821700 -0.000000 1.000000 -0.000000 0.095623 0.941698
-18.235144 -0.040000 -10.534544 -0.000000 1.000000 -0.000000 0.118879 0.941217
-15.492363 -0.040000 -9.637642 -0.000000 1.000000 -0.000000 0.111786 0.995882
-15.347751 -0.040000 -9.921740 -0.000000 1.000000 -0.000000 0.088935 0.996045
-16.068645 -0.040000 -10.181715 -0.000000 1.000000 -0.000000 0.095380 0.941492
-16.213865 -0.040000 -9.896422 -0.000000 1.000000 -0.000000 0.118327 0.941328
-15.347751 -0.040000 -9.921740 -0.000000 1.000000 -0.000000 0.111503 0.996811
-15.205395 -0.040000 -10.193498 -0.000000 1.000000 -0.000000 0.089516 0.997225
-15.929528 -0.040000 -10.447291 -0.000000 1.000000 -0.000000 0.096460 0.942663
-16.068645 -0.040000 -10.181715 -0.000000 1.000000 -0.000000 0.117947 0.942258
-17.362181 -0.040000 -10.561453 -0.000000 1.000000 -0.000000 0.111733 0.997088
-17.227160 -0.040000 -10.815798 -0.000000 1.000000 -0.000000 0.091097 0.997590
-17.952293 -0.040000 -11.069868 -0.000000 1.000000 -0.000000 0.098056 0.942954
-18.084034 -0.040000 -10.821700 -0.000000 1.000000 -0.000000 0.118191 0.942465
-18.839615 -0.040000 -10.798825 0.000000 1.000000 -0.000000 0.266239 0.970062
-18.993301 -0.040000 -10.511428 0.000000 1.000000 -0.000000 0.268811 0.991898
-14.743088 -0.000000 -9.665253 -0.054087 0.998137 -0.028245 0.027922 0.998272
-14.598669 -0.000000 -9.942636 -0.054087 0.998137 -0.028245 0.003043 0.998272
-15.205395 -0.040000 -10.193498 -0.054087 0.998137 -0.028245 0.003043 0.941681
-15.347751 -0.040000 -9.921740 -0.054087 0.998137 -0.028245 0.027922 0.941681
-14.885109 -0.000000 -9.381401 -0.054295 0.998149 -0.027402 0.053453 0.998272
-14.743088 -0.000000 -9.665253 -0.054295 0.998149 -0.027402 0.027922 0.998272
-15.347751 -0.040000 -9.921740 -0.054295 0.998149 -0.027402 0.027922 0.941681
-15.492363 -0.040000 -9.637642 -0.054295 0.998149 -0.027402 0.053453 0.941681
-15.027130 -0.000000 -9.097550 -0.054115 0.998161 -0.027311 0.078984 0.998272
-14.885109 -0.000000 -9.381401 -0.054115 0.998161 -0.027311 0.053453 0.998272
-15.492363 -0.040000 -9.637642 -0.054115 0.998161 -0.027311 0.053453 0.941681
-15.636976 -0.040000 -9.353541 -0.054115 0.998161 -0.027311 0.078984 0.941681
-15.636976 -0.040000 -9.353541 0.387047 0.000000 -0.922060 0.213551 0.942977
-15.636976 -0.000000 -9.353541 0.387047 0.000000 -0.922060 0.213551 0.944655
-15.027130 -0.000000 -9.097550 0.387047 0.000000 -0.922060 0.185794 0.944655
-21.220339 -0.039989 -11.759850 0.000007 1.000000 -0.000017 0.441888 0.996932
-20.907154 -0.040000 -12.326370 0.000007 1.000000 -0.000017 0.403741 0.997028
-21.618256 -0.040003 -12.716890 0.000007 1.000000 -0.000017 0.403754 0.949220
-21.930904 -0.039989 -12.152416 0.000007 1.000000 -0.000017 0.441779 0.949093
-21.930904 -0.039989 -12.152416 0.000010 1.000000 -0.000022 0.441779 0.997078
-21.618256 -0.040003 -12.716890 0.000010 1.000000 -0.000022 0.403754 0.997206
-22.329359 -0.040006 -13.107409 0.000010 1.000000 -0.000022 0.403766 0.949397
-22.641472 -0.039989 -12.544984 0.000010 1.000000 -0.000022 0.441671 0.949240
-22.641472 -0.039989 -12.544984 0.000012 1.000000 -0.000026 0.441671 0.996610
-22.329359 -0.040006 -13.107409 0.000012 1.000000 -0.000026 0.403766 0.996768
-23.040462 -0.040010 -13.497930 0.000012 1.000000 -0.000026 0.403779 0.948959
-23.352037 -0.039990 -12.937551 0.000012 1.000000 -0.000026 0.441562 0.948771
-23.352037 -0.039990 -12.937551 0.000015 1.000000 -0.000031 0.441562 0.997372
-23.040462 -0.040010 -13.497930 0.000015 1.000000 -0.000031 0.403779 0.997560
-23.751564 -0.040013 -13.888450 0.000015 1.000000 -0.000031 0.403791 0.949752
-24.062603 -0.039990 -13.330118 0.000015 1.000000 -0.000031 0.441454 0.949533
-24.062603 -0.039990 -13.330118 0.000017 1.000000 -0.000035 0.441454 0.997519
-23.751564 -0.040013 -13.888450 0.000017 1.000000 -0.000035 0.403791 0.997737
-24.462666 -0.040016 -14.278970 0.000017 1.000000 -0.000035 0.403803 0.949929
-24.773169 -0.039990 -13.722685 0.000017 1.000000 -0.000035 0.441345 0.949680
-24.773169 -0.039990 -13.722685 0.000020 1.000000 -0.000040 0.441345 0.997665
-24.462666 -0.040016 -14.278970 0.000020 1.000000 -0.000040 0.403803 0.997914
-25.173769 -0.040020 -14.669490 0.000020 1.000000 -0.000040 0.403816 0.950106
-25.483734 -0.039990 -14.115252 0.000020 1.000000 -0.000040 0.441237 0.949827
-25.483734 -0.039990 -14.115252 0.000022 1.000000 -0.000044 0.441237 0.997197
-25.173769 -0.040020 -14.669490 0.000022 1.000000 -0.000044 0.403816 0.997476
-25.884871 -0.040023 -15.060010 0.000022 1.000000 -0.000044 0.403828 0.949668
-26.194300 -0.039990 -14.507819 0.000022 1.000000 -0.000044 0.441128 0.949359
-26.194300 -0.039990 -14.507819 0.000025 1.000000 -0.000049 0.441128 0.997959
-25.884871 -0.040023 -15.060010 0.000025 1.000000 -0.000049 0.403828 0.998268
-26.595972 -0.040026 -15.450530 0.000025 1.000000 -0.000049 0.403841 0.950460
-26.904865 -0.039990 -14.900386 0.000025 1.000000 -0.000049 0.441020 0.950121
4 0 1 2 3
4 4 5 6 7
4 8 9 10 11
4 12 13 14 15
4 16 17 18 19
4 20 21 22 23
3 24 25 26
4 27 28 29 30
4 31 32 33 34
4 35 36 37 38
3 39 40 41
3 42 43 44
3 42 44 45
4 46 47 48 49
3 50 51 52
4 53 54 55 56
4 57 58 59 60
3 61 62 63
3 64 65 66
3 67 68 69
4 70 71 72 73
4 74 75 76 77
3 78 79 80
3 81 82 83
3 84 85 86
3 87 88 89
3 90 91 92
3 93 94 95
3 96 97 98
3 99 100 101
3 102 103 104
3 105 106 107
4 108 109 110 111
4 112 113 114 115
4 116 117 118 119
4 120 121 122 123
4 124 125 126 127
4 128 129 130 131
4 132 133 134 135
4 136 137 138 139
4 133 132 140 141
4 142 143 144 145
4 146 147 148 149
4 150 151 152 153
4 154 155 156 157
4 158 159 160 161
4 162 163 141 140
4 164 165 166 167
4 168 169 170 171
4 172 173 174 175
3 176 177 178
4 179 180 181 182
4 183 184 185 186
4 187 188 189 190
4 191 192 193 194
4 195 196 197 198
4 199 200 201 202
4 203 204 205 206
4 207 208 209 210
