ply
format ascii 1.0
comment Created by Blender 2.78 (sub 0) - www.blender.org, source file: 'soult.blend'
element vertex 38
property float x
property float y
property float z
property float nx
property float ny
property float nz
element face 22
property list uchar uint vertex_indices
end_header
-27.455910 -0.000001 -15.178116 0.000000 1.000000 -0.000000
-18.993301 -0.000000 -10.511428 0.000000 1.000000 -0.000000
-18.839615 -0.000000 -10.798825 0.000000 1.000000 -0.000000
-18.839615 -0.000000 -10.798825 -0.000004 1.000000 -0.000002
-18.685928 -0.000000 -11.086223 -0.000004 1.000000 -0.000002
-28.556629 -0.000046 -16.506971 -0.000004 1.000000 -0.000002
-28.556629 -0.000046 -16.506971 0.000039 1.000000 -0.000067
-28.784748 -0.000008 -16.066088 0.000039 1.000000 -0.000067
-27.455910 -0.000001 -15.178116 0.000039 1.000000 -0.000067
-18.839615 -0.000000 -10.798825 0.000030 1.000000 -0.000060
-28.556629 -0.000046 -16.506971 0.000030 1.000000 -0.000060
-27.455910 -0.000001 -15.178116 0.000030 1.000000 -0.000060
-16.862362 -0.000000 -10.090114 -0.000000 1.000000 -0.000000
-17.010216 -0.000000 -9.804489 -0.000000 1.000000 -0.000000
-16.359085 -0.000000 -9.611130 -0.000000 1.000000 -0.000000
-16.213865 -0.000000 -9.896422 -0.000000 1.000000 -0.000000
-17.227160 -0.000000 -10.815798 -0.000000 1.000000 -0.000000
-17.362181 -0.000000 -10.561453 -0.000000 1.000000 -0.000000
-16.714508 -0.000000 -10.375737 -0.000000 1.000000 -0.000000
-16.577452 -0.000000 -10.635694 -0.000000 1.000000 -0.000000
-17.952293 -0.000000 -11.069868 -0.000000 1.000000 -0.000000
-18.556236 -0.000000 -11.328753 -0.000000 1.000000 -0.000000
-18.685928 -0.000000 -11.086223 -0.000000 1.000000 -0.000000
-18.084034 -0.000000 -10.821700 -0.000000 1.000000 -0.000000
-16.068645 -0.000000 -10.181715 -0.000000 1.000000 -0.000000
-17.512665 -0.000000 -10.275489 -0.000000 1.000000 -0.000000
-18.235144 -0.000000 -10.534544 0.000000 1.000000 -0.000000
-15.492363 -0.000000 -9.637642 0.000000 1.000000 -0.000000
-15.636976 -0.000000 -9.353541 0.000000 1.000000 -0.000000
-15.027130 -0.000000 -9.097550 0.000000 1.000000 -0.000000
-14.885109 -0.000000 -9.381401 0.000000 1.000000 -0.000000
-15.347751 -0.000000 -9.921740 0.000000 1.000000 -0.000000
-14.743088 -0.000000 -9.665253 0.000000 1.000000 -0.000000
-17.663149 -0.000000 -9.989522 -0.000000 1.000000 -0.000000
-14.598669 -0.000000 -9.942636 -0.000000 1.000000 -0.000000
-15.205395 -0.000000 -10.193498 -0.000000 1.000000 -0.000000
-15.929528 -0.000000 -10.447291 -0.000000 1.000000 -0.000000
-18.386251 -0.000000 -10.247392 0.000000 1.000000 -0.000000
3 0 1 2
3 3 4 5
3 6 7 8
3 9 10 11
4 12 13 14 15
4 16 17 18 19
4 20 21 22 23
4 18 12 15 24
4 17 25 12 18
4 22 2 26 23
4 27 28 29 30
4 31 27 30 32
4 25 33 13 12
4 31 32 34 35
4 19 18 24 36
4 33 25 26 37
4 28 27 15 14
4 25 17 23 26
4 27 31 24 15
4 31 35 36 24
4 17 16 20 23
4 2 1 37 26
