ply
format ascii 1.0
comment Created by Blender 2.78 (sub 0) - www.blender.org, source file: 'soult.blend'
element vertex 41
property float x
property float y
property float z
property float nx
property float ny
property float nz
element face 23
property list uchar uint vertex_indices
end_header
-27.455910 -0.000001 -15.178116 0.000000 1.000000 -0.000000
-18.993301 -0.000000 -10.511428 0.000000 1.000000 -0.000000
-18.839615 -0.000000 -10.798825 0.000000 1.000000 -0.000000
-18.839615 -0.000000 -10.798825 -0.000004 1.000000 -0.000002
-18.685928 -0.000000 -11.086223 -0.000004 1.000000 -0.000002
-28.556629 -0.000046 -16.506971 -0.000004 1.000000 -0.000002
-28.784748 -0.000008 -16.066088 0.000020 1.000000 -0.000038
-28.830811 -0.000004 -15.989490 0.000020 1.000000 -0.000038
-27.455910 -0.000001 -15.178116 0.000020 1.000000 -0.000038
-18.839615 -0.000000 -10.798825 0.000035 1.000000 -0.000068
-28.556629 -0.000046 -16.506971 0.000035 1.000000 -0.000068
-28.784748 -0.000008 -16.066088 0.000035 1.000000 -0.000068
-18.839615 -0.000000 -10.798825 0.000018 1.000000 -0.000036
-28.784748 -0.000008 -16.066088 0.000018 1.000000 -0.000036
-27.455910 -0.000001 -15.178116 0.000018 1.000000 -0.000036
-16.862362 -0.000000 -10.090114 -0.000000 1.000000 -0.000000
-17.010216 -0.000000 -9.804489 -0.000000 1.000000 -0.000000
-16.359085 -0.000000 -9.611130 -0.000000 1.000000 -0.000000
-16.213865 -0.000000 -9.896422 -0.000000 1.000000 -0.000000
-17.227160 -0.000000 -10.815798 -0.000000 1.000000 -0.000000
-17.362181 -0.000000 -10.561453 -0.000000 1.000000 -0.000000
-16.714508 -0.000000 -10.375737 -0.000000 1.000000 -0.000000
-16.577452 -0.000000 -10.635694 -0.000000 1.000000 -0.000000
-17.952293 -0.000000 -11.069868 -0.000000 1.000000 -0.000000
-18.556236 -0.000000 -11.328753 -0.000000 1.000000 -0.000000
-18.685928 -0.000000 -11.086223 -0.000000 1.000000 -0.000000
-18.084034 -0.000000 -10.821700 -0.000000 1.000000 -0.000000
-16.068645 -0.000000 -10.181715 -0.000000 1.000000 -0.000000
-17.512665 -0.000000 -10.275489 -0.000000 1.000000 -0.000000
-18.235144 -0.000000 -10.534544 0.000000 1.000000 -0.000000
-15.492363 -0.000000 -9.637642 0.000000 1.000000 -0.000000
-15.636976 -0.000000 -9.353541 0.000000 1.000000 -0.000000
-15.027130 -0.000000 -9.097550 0.000000 1.000000 -0.000000
-14.885109 -0.000000 -9.381401 0.000000 1.000000 -0.000000
-15.347751 -0.000000 -9.921740 0.000000 1.000000 -0.000000
-14.743088 -0.000000 -9.665253 0.000000 1.000000 -0.000000
-17.663149 -0.000000 -9.989522 -0.000000 1.000000 -0.000000
-14.598669 -0.000000 -9.942636 -0.000000 1.000000 -0.000000
-15.205395 -0.000000 -10.193498 -0.000000 1.000000 -0.000000
-15.929528 -0.000000 -10.447291 -0.000000 1.000000 -0.000000
-18.386251 -0.000000 -10.247392 0.000000 1.000000 -0.000000
3 0 1 2
3 3 4 5
3 6 7 8
3 9 10 11
3 12 13 14
4 15 16 17 18
4 19 20 21 22
4 23 24 25 26
4 21 15 18 27
4 20 28 15 21
4 25 2 29 26
4 30 31 32 33
4 34 30 33 35
4 28 36 16 15
4 34 35 37 38
4 22 21 27 39
4 36 28 29 40
4 31 30 18 17
4 28 20 26 29
4 30 34 27 18
4 34 38 39 27
4 20 19 23 26
4 2 1 40 29
