ply
format ascii 1.0
comment Created by Blender 2.78 (sub 0) - www.blender.org, source file: 'soult.blend'
element vertex 24
property float x
property float y
property float z
property float nx
property float ny
property float nz
element face 6
property list uchar uint vertex_indices
end_header
-28.500326 0.000000 -14.356112 0.880639 0.000000 0.473788
-28.500326 0.500000 -14.356112 0.880639 0.000000 0.473788
-29.447903 0.500000 -12.594835 0.880639 0.000000 0.473788
-29.447903 0.000000 -12.594835 0.880639 0.000000 0.473788
-29.447903 0.000000 -12.594835 -0.473787 0.000000 0.880640
-29.447903 0.500000 -12.594835 -0.473787 0.000000 0.880640
-29.912756 0.500000 -12.844928 -0.473787 0.000000 0.880640
-29.912756 0.000000 -12.844928 -0.473787 0.000000 0.880640
-29.912756 0.000000 -12.844928 -0.880639 0.000000 -0.473788
-29.912756 0.500000 -12.844928 -0.880639 0.000000 -0.473788
-28.965179 0.500000 -14.606205 -0.880639 0.000000 -0.473788
-28.965179 0.000000 -14.606205 -0.880639 0.000000 -0.473788
-28.500326 0.500000 -14.356112 0.473787 0.000000 -0.880640
-28.500326 0.000000 -14.356112 0.473787 0.000000 -0.880640
-28.965179 0.000000 -14.606205 0.473787 0.000000 -0.880640
-28.965179 0.500000 -14.606205 0.473787 0.000000 -0.880640
-28.965179 0.000000 -14.606205 0.000000 -1.000000 0.000000
-28.500326 0.000000 -14.356112 0.000000 -1.000000 0.000000
-29.447903 0.000000 -12.594835 0.000000 -1.000000 0.000000
-29.912756 0.000000 -12.844928 0.000000 -1.000000 0.000000
-29.912756 0.500000 -12.844928 0.000000 1.000000 0.000000
-29.447903 0.500000 -12.594835 0.000000 1.000000 0.000000
-28.500326 0.500000 -14.356112 0.000000 1.000000 0.000000
-28.965179 0.500000 -14.606205 0.000000 1.000000 0.000000
4 0 1 2 3
4 4 5 6 7
4 8 9 10 11
4 12 13 14 15
4 16 17 18 19
4 20 21 22 23
