ply
format ascii 1.0
comment Created by Blender 2.78 (sub 0) - www.blender.org, source file: 'soult.blend'
element vertex 160
property float x
property float y
property float z
property float nx
property float ny
property float nz
property float s
property float t
element face 40
property list uchar uint vertex_indices
end_header
-30.563581 0.592501 -13.508930 -0.994491 -0.000011 -0.104821 0.401738 0.326201
-30.560970 0.628690 -13.533707 -0.994491 -0.000011 -0.104821 0.399493 0.320588
-30.528872 0.570951 -13.838240 -0.994491 -0.000011 -0.104821 0.373044 0.320663
-30.546471 0.327032 -13.671242 -0.994491 -0.000011 -0.104821 0.382531 0.344386
-30.540432 0.610591 -13.519012 -0.059440 -0.823682 0.563928 0.399361 0.320645
-30.584126 0.610591 -13.523619 -0.059440 -0.823682 0.563928 0.401605 0.326257
-30.684910 0.448999 -13.770266 -0.059440 -0.823682 0.563928 0.382397 0.344440
-30.390411 0.448999 -13.739225 -0.059440 -0.823682 0.563928 0.372911 0.320717
-30.656496 0.608194 -13.498451 -0.272556 0.696037 -0.664263 0.401738 0.326201
-30.617712 0.604076 -13.518681 -0.272556 0.696037 -0.664263 0.399493 0.320588
-30.615475 0.389401 -13.744541 -0.272556 0.696037 -0.664263 0.373044 0.320663
-30.876884 0.417154 -13.608202 -0.272556 0.696037 -0.664263 0.382531 0.344386
-30.631123 0.590849 -13.493975 -0.882746 0.093725 0.460407 0.399361 0.320645
-30.643097 0.621430 -13.523159 -0.882746 0.093725 0.460407 0.401605 0.326257
-30.786524 0.506330 -13.774723 -0.882746 0.093725 0.460407 0.382397 0.344440
-30.705812 0.300211 -13.578014 -0.882746 0.093725 0.460407 0.372911 0.320717
-29.784061 0.592501 -15.003567 0.140276 -0.000007 0.990112 0.401738 0.326201
-29.808727 0.628690 -15.000072 0.140276 -0.000007 0.990112 0.399493 0.320588
-30.111919 0.570951 -14.957117 0.140276 -0.000007 0.990112 0.373044 0.320663
-29.945658 0.327032 -14.980675 0.140276 -0.000007 0.990112 0.382531 0.344386
-29.799475 0.610591 -15.023567 0.561446 -0.823681 -0.079549 0.399361 0.320645
-29.793310 0.610591 -14.980064 0.561446 -0.823681 -0.079549 0.401605 0.326257
-30.008026 0.448999 -14.822302 0.561446 -0.823681 -0.079549 0.382397 0.344440
-30.049568 0.448999 -15.115505 0.561446 -0.823681 -0.079549 0.372911 0.320717
-29.751295 0.608194 -14.915993 -0.577998 0.696034 0.425977 0.401738 0.326201
-29.780352 0.604076 -14.948689 -0.577998 0.696034 0.425977 0.399493 0.320588
-29.999969 0.389401 -14.895912 -0.577998 0.696034 0.425977 0.373044 0.320663
-29.804129 0.417154 -14.675526 -0.577998 0.696034 0.425977 0.382531 0.344386
-29.753122 0.590849 -14.941692 0.661330 0.093724 0.744217 0.399361 0.320645
-29.778519 0.621430 -14.922977 0.661330 0.093724 0.744217 0.401605 0.326257
-29.987629 0.506330 -14.722660 0.661330 0.093724 0.744217 0.382397 0.344440
-29.816469 0.300211 -14.848801 0.661330 0.093724 0.744217 0.372911 0.320717
-30.034748 0.592501 -14.502039 -0.494586 -0.000009 0.869128 0.401738 0.326201
-30.056404 0.628690 -14.514362 -0.494586 -0.000009 0.869128 0.399493 0.320588
-30.322546 0.570951 -14.665813 -0.494586 -0.000009 0.869128 0.373044 0.320663
-30.176600 0.327032 -14.582764 -0.494586 -0.000009 0.869128 0.382531 0.344386
-30.034710 0.610591 -14.527290 0.492841 -0.823683 0.280455 0.399361 0.320645
-30.056440 0.610591 -14.489103 0.492841 -0.823683 0.280455 0.401605 0.326257
-30.322805 0.448999 -14.495613 0.492841 -0.823683 0.280455 0.382397 0.344440
-30.176342 0.448999 -14.752991 0.492841 -0.823683 0.280455 0.372911 0.320717
-30.062386 0.608194 -14.412714 -0.717815 0.696038 -0.016507 0.401738 0.326201
-30.065376 0.604076 -14.456356 -0.717815 0.696038 -0.016507 0.399493 0.320588
-30.271408 0.389401 -14.548922 -0.717815 0.696038 -0.016507 0.373044 0.320663
-30.251263 0.417154 -14.254782 -0.717815 0.696038 -0.016507 0.382531 0.344386
-30.048117 0.590849 -14.434166 0.068042 0.093725 0.993270 0.399361 0.320645
-30.079653 0.621430 -14.434893 0.068042 0.093725 0.993270 0.401605 0.326257
-30.367611 0.506330 -14.404305 0.068042 0.093725 0.993270 0.382397 0.344440
-30.155046 0.300211 -14.399418 0.068042 0.093725 0.993270 0.372911 0.320717
-30.319134 0.592501 -13.962643 -0.825350 -0.000021 0.564622 0.401738 0.326201
-30.333202 0.628690 -13.983204 -0.825350 -0.000021 0.564622 0.399493 0.320588
-30.506098 0.570951 -14.235943 -0.825350 -0.000021 0.564622 0.373044 0.320663
-30.411282 0.327032 -14.097349 -0.825350 -0.000021 0.564622 0.382531 0.344386
-30.308037 0.610591 -13.985323 0.320174 -0.823683 0.468012 0.399361 0.320645
-30.344299 0.610591 -13.960514 0.320174 -0.823683 0.468012 0.401605 0.326257
-30.580894 0.448999 -14.083054 0.320174 -0.823683 0.468012 0.382397 0.344440
-30.336481 0.448999 -14.250259 0.320174 -0.823683 0.468012 0.372911 0.320717
-30.383110 0.608194 -13.894451 -0.638041 0.696035 -0.329301 0.401738 0.326201
-30.366680 0.604076 -13.934990 -0.638041 0.696035 -0.329301 0.399493 0.320588
-30.511337 0.389401 -14.108459 -0.638041 0.696035 -0.329301 0.373044 0.320663
-30.622084 0.417154 -13.835222 -0.638041 0.696035 -0.329301 0.382531 0.344386
-30.360886 0.590849 -13.907482 -0.373972 0.093724 0.922692 0.399361 0.320645
-30.388916 0.621430 -13.921951 -0.373972 0.093724 0.922692 0.401605 0.326257
-30.661173 0.506330 -14.020605 -0.373972 0.093724 0.922692 0.382397 0.344440
-30.472229 0.300211 -13.923090 -0.373972 0.093724 0.922692 0.372911 0.320717
-30.276876 0.592501 -15.186989 0.994491 -0.000011 0.104821 0.401738 0.326201
-30.279488 0.628690 -15.162212 0.994491 -0.000011 0.104821 0.399493 0.320588
-30.311586 0.570951 -14.857679 0.994491 -0.000011 0.104821 0.373044 0.320663
-30.293987 0.327032 -15.024677 0.994491 -0.000011 0.104821 0.382531 0.344386
-30.300026 0.610591 -15.176907 0.059436 -0.823681 -0.563930 0.399361 0.320645
-30.256332 0.610591 -15.172300 0.059436 -0.823681 -0.563930 0.401605 0.326257
-30.155546 0.448999 -14.925655 0.059436 -0.823681 -0.563930 0.382397 0.344440
-30.450047 0.448999 -14.956694 0.059436 -0.823681 -0.563930 0.372911 0.320717
-30.183964 0.608194 -15.197468 0.272557 0.696038 0.664262 0.401738 0.326201
-30.222746 0.604076 -15.177238 0.272557 0.696038 0.664262 0.399493 0.320588
-30.224983 0.389401 -14.951378 0.272557 0.696038 0.664262 0.373044 0.320663
-29.963573 0.417154 -15.087717 0.272557 0.696038 0.664262 0.382531 0.344386
-30.209335 0.590849 -15.201944 0.882747 0.093730 -0.460405 0.399361 0.320645
-30.197361 0.621430 -15.172760 0.882747 0.093730 -0.460405 0.401605 0.326257
-30.053934 0.506330 -14.921196 0.882747 0.093730 -0.460405 0.382397 0.344440
-30.134644 0.300211 -15.117905 0.882747 0.093730 -0.460405 0.372911 0.320717
-31.056396 0.592501 -13.692352 -0.140276 -0.000013 -0.990112 0.401738 0.326201
-31.031729 0.628690 -13.695848 -0.140276 -0.000013 -0.990112 0.399493 0.320588
-30.728539 0.570951 -13.738802 -0.140276 -0.000013 -0.990112 0.373044 0.320663
-30.894798 0.327032 -13.715244 -0.140276 -0.000013 -0.990112 0.382531 0.344386
-31.040983 0.610591 -13.672352 -0.561446 -0.823681 0.079549 0.399361 0.320645
-31.047148 0.610591 -13.715855 -0.561446 -0.823681 0.079549 0.401605 0.326257
-30.832432 0.448999 -13.873617 -0.561446 -0.823681 0.079549 0.382397 0.344440
-30.790890 0.448999 -13.580414 -0.561446 -0.823681 0.079549 0.372911 0.320717
-31.089165 0.608194 -13.779926 0.577996 0.696036 -0.425975 0.401738 0.326201
-31.060108 0.604076 -13.747231 0.577996 0.696036 -0.425975 0.399493 0.320588
-30.840488 0.389401 -13.800007 0.577996 0.696036 -0.425975 0.373044 0.320663
-31.036329 0.417154 -14.020393 0.577996 0.696036 -0.425975 0.382531 0.344386
-31.087334 0.590849 -13.754227 -0.661330 0.093724 -0.744217 0.399361 0.320645
-31.061939 0.621430 -13.772940 -0.661330 0.093724 -0.744217 0.401605 0.326257
-30.852827 0.506330 -13.973259 -0.661330 0.093724 -0.744217 0.382397 0.344440
-31.023987 0.300211 -13.847118 -0.661330 0.093724 -0.744217 0.372911 0.320717
-30.805708 0.592501 -14.193880 0.494588 -0.000016 -0.869127 0.401738 0.326201
-30.784054 0.628690 -14.181559 0.494588 -0.000016 -0.869127 0.399493 0.320588
-30.517912 0.570951 -14.030106 0.494588 -0.000016 -0.869127 0.373044 0.320663
-30.663860 0.327032 -14.113155 0.494588 -0.000016 -0.869127 0.382531 0.344386
-30.805748 0.610591 -14.168629 -0.492845 -0.823682 -0.280450 0.399361 0.320645
-30.784018 0.610591 -14.206816 -0.492845 -0.823682 -0.280450 0.401605 0.326257
-30.517654 0.448999 -14.200308 -0.492845 -0.823682 -0.280450 0.382397 0.344440
-30.664114 0.448999 -13.942928 -0.492845 -0.823682 -0.280450 0.372911 0.320717
-30.778070 0.608194 -14.283205 0.717818 0.696035 0.016498 0.401738 0.326201
-30.775080 0.604076 -14.239563 0.717818 0.696035 0.016498 0.399493 0.320588
-30.569048 0.389401 -14.146997 0.717818 0.696035 0.016498 0.373044 0.320663
-30.589197 0.417154 -14.441137 0.717818 0.696035 0.016498 0.382531 0.344386
-30.792339 0.590849 -14.261753 -0.068042 0.093725 -0.993270 0.399361 0.320645
-30.760803 0.621430 -14.261026 -0.068042 0.093725 -0.993270 0.401605 0.326257
-30.472847 0.506330 -14.291615 -0.068042 0.093725 -0.993270 0.382397 0.344440
-30.685411 0.300211 -14.296501 -0.068042 0.093725 -0.993270 0.372911 0.320717
-30.521322 0.592501 -14.733278 0.825352 -0.000005 -0.564618 0.401738 0.326201
-30.507257 0.628690 -14.712715 0.825352 -0.000005 -0.564618 0.399493 0.320588
-30.334358 0.570951 -14.459976 0.825352 -0.000005 -0.564618 0.373044 0.320663
-30.429174 0.327032 -14.598572 0.825352 -0.000005 -0.564618 0.382531 0.344386
-30.532421 0.610591 -14.710596 -0.320175 -0.823681 -0.468013 0.399361 0.320645
-30.496159 0.610591 -14.735405 -0.320175 -0.823681 -0.468013 0.401605 0.326257
-30.259565 0.448999 -14.612865 -0.320175 -0.823681 -0.468013 0.382397 0.344440
-30.503979 0.448999 -14.445660 -0.320175 -0.823681 -0.468013 0.372911 0.320717
-30.457348 0.608194 -14.801468 0.638041 0.696035 0.329301 0.401738 0.326201
-30.473778 0.604076 -14.760929 0.638041 0.696035 0.329301 0.399493 0.320588
-30.329121 0.389401 -14.587460 0.638041 0.696035 0.329301 0.373044 0.320663
-30.218374 0.417154 -14.860697 0.638041 0.696035 0.329301 0.382531 0.344386
-30.479572 0.590849 -14.788437 0.373975 0.093727 -0.922691 0.399361 0.320645
-30.451544 0.621430 -14.773968 0.373975 0.093727 -0.922691 0.401605 0.326257
-30.179287 0.506330 -14.675314 0.373975 0.093727 -0.922691 0.382397 0.344440
-30.368229 0.300211 -14.772829 0.373975 0.093727 -0.922691 0.372911 0.320717
-29.700436 0.230734 -14.865665 -0.583259 -0.244345 -0.774664 0.401738 0.326201
-29.711432 0.193247 -14.845562 -0.583259 -0.244345 -0.774664 0.399493 0.320588
-29.963202 0.216963 -14.663481 -0.583259 -0.244345 -0.774664 0.373044 0.320663
-29.889091 0.469635 -14.798977 -0.583259 -0.244345 -0.774664 0.382531 0.344386
-29.693119 0.217362 -14.838600 0.250250 0.853234 -0.457566 0.399361 0.320645
-29.718748 0.206626 -14.872637 0.250250 0.853234 -0.457566 0.401605 0.326257
-30.012505 0.307112 -14.845919 0.250250 0.853234 -0.457566 0.382397 0.344440
-29.839783 0.379475 -14.616516 0.250250 0.853234 -0.457566 0.372911 0.320717
-29.734356 0.195397 -14.946846 -0.529161 -0.820208 0.217364 0.401738 0.326201
-29.732876 0.205751 -14.904171 -0.529161 -0.820208 0.217364 0.399493 0.320588
-29.970240 0.384010 -14.809376 -0.529161 -0.820208 0.217364 0.373044 0.320663
-29.980217 0.314224 -15.096992 -0.529161 -0.820208 0.217364 0.382531 0.344386
-29.721996 0.218587 -14.930288 -0.033690 -0.235661 -0.971251 0.399361 0.320645
-29.745243 0.182551 -14.920738 -0.033690 -0.235661 -0.971251 0.401605 0.326257
-30.053572 0.227682 -14.920994 -0.033690 -0.235661 -0.971251 0.382397 0.344440
-29.896872 0.470572 -14.985363 -0.033690 -0.235661 -0.971251 0.372911 0.320717
-30.560318 0.218288 -13.415825 0.896935 0.160651 -0.411944 0.401738 0.326201
-30.561296 0.178127 -13.433617 0.896935 0.160651 -0.411944 0.399493 0.320588
-30.689943 0.168983 -13.717289 0.896935 0.160651 -0.411944 0.373044 0.320663
-30.683355 0.439673 -13.597380 0.896935 0.160651 -0.411944 0.382531 0.344386
-30.580509 0.194683 -13.415672 0.022246 0.914084 0.404915 0.399361 0.320645
-30.541101 0.201742 -13.433769 0.022246 0.914084 0.404915 0.401605 0.326257
-30.553852 0.328104 -13.718330 0.022246 0.914084 0.404915 0.382397 0.344440
-30.819466 0.280532 -13.596342 0.022246 0.914084 0.404915 0.372911 0.320717
-30.467196 0.222093 -13.433224 0.229247 -0.750049 -0.620381 0.401738 0.326201
-30.509945 0.215089 -13.440556 0.229247 -0.750049 -0.620381 0.399493 0.320588
-30.625153 0.377907 -13.679974 0.229247 -0.750049 -0.620381 0.373044 0.320663
-30.337011 0.425113 -13.630573 0.229247 -0.750049 -0.620381 0.382531 0.344386
-30.493597 0.235066 -13.423264 0.973020 0.159399 0.166806 0.399361 0.320645
-30.483530 0.202111 -13.450520 0.973020 0.159399 0.166806 0.401605 0.326257
-30.447151 0.290457 -13.747126 0.973020 0.159399 0.166806 0.382397 0.344440
-30.515036 0.512573 -13.563416 0.973020 0.159399 0.166806 0.372911 0.320717
4 0 1 2 3
4 4 5 6 7
4 8 9 10 11
4 12 13 14 15
4 16 17 18 19
4 20 21 22 23
4 24 25 26 27
4 28 29 30 31
4 32 33 34 35
4 36 37 38 39
4 40 41 42 43
4 44 45 46 47
4 48 49 50 51
4 52 53 54 55
4 56 57 58 59
4 60 61 62 63
4 64 65 66 67
4 68 69 70 71
4 72 73 74 75
4 76 77 78 79
4 80 81 82 83
4 84 85 86 87
4 88 89 90 91
4 92 93 94 95
4 96 97 98 99
4 100 101 102 103
4 104 105 106 107
4 108 109 110 111
4 112 113 114 115
4 116 117 118 119
4 120 121 122 123
4 124 125 126 127
4 128 129 130 131
4 132 133 134 135
4 136 137 138 139
4 140 141 142 143
4 144 145 146 147
4 148 149 150 151
4 152 153 154 155
4 156 157 158 159
