ply
format ascii 1.0
comment Created by Blender 2.78 (sub 0) - www.blender.org, source file: 'soult.blend'
element vertex 61
property float x
property float y
property float z
property float nx
property float ny
property float nz
element face 49
property list uchar uint vertex_indices
end_header
-24.330154 -0.000000 -9.787872 -0.000000 1.000000 0.000000
-25.143801 -0.000000 -10.130260 -0.000000 1.000000 0.000000
-29.817093 -0.000001 -12.042187 -0.000000 1.000000 0.000000
-30.589714 -0.000001 -12.345927 -0.000000 1.000000 -0.000000
-30.613190 -0.000001 -12.341061 -0.000000 1.000000 -0.000000
-30.623093 -0.000001 -12.329334 0.000000 1.000000 -0.000000
-30.656311 -0.000001 -12.301819 0.000000 1.000000 -0.000000
-30.686127 -0.000001 -12.276260 0.000000 1.000000 -0.000000
-22.654373 -0.000000 -9.118347 0.000000 1.000000 -0.000000
-23.895950 -0.000000 -9.618340 0.000000 1.000000 -0.000000
-30.715485 -0.000001 -12.250168 -0.000000 1.000000 -0.000000
-30.724304 -0.000001 -12.242157 -0.000000 1.000000 -0.000000
-30.753052 -0.000001 -12.215416 -0.000000 1.000000 -0.000000
-30.781342 -0.000001 -12.188171 0.000000 1.000000 -0.000000
-30.809143 -0.000001 -12.160439 0.000000 1.000000 -0.000000
-30.827820 -0.000001 -12.141273 0.000000 1.000000 -0.000000
-22.111893 -0.000000 -8.901230 0.000000 1.000000 -0.000000
-22.037338 -0.000000 -8.869888 0.000000 1.000000 -0.000000
-21.912827 -0.000000 -8.820328 0.000000 1.000000 -0.000000
-21.926971 -0.000000 -8.826828 0.000000 1.000000 -0.000000
-30.837891 -0.000001 -12.133789 0.000000 1.000000 -0.000000
-30.849426 -0.000001 -12.128853 -0.000000 1.000000 -0.000000
-30.861893 -0.000001 -12.127411 0.000000 1.000000 -0.000000
-30.874329 -0.000001 -12.128891 -0.000000 1.000000 -0.000000
-30.885864 -0.000001 -12.133888 -0.000000 1.000000 -0.000000
-31.119781 -0.000001 -11.924583 -0.000000 1.000000 -0.000000
-31.119436 -0.000001 -11.924449 0.000000 1.000000 -0.000000
-31.119991 -0.000001 -11.509005 0.000000 1.000000 -0.000000
-25.908005 -0.000000 -9.423003 0.000000 1.000000 -0.000000
-22.110001 -0.000000 -7.936024 -0.000000 1.000000 -0.000000
-21.885117 -0.000000 -8.811836 0.000000 1.000000 -0.000000
-22.085941 -0.000000 -7.872500 0.000000 1.000000 -0.000000
-22.087173 -0.000000 -7.859917 0.000000 1.000000 -0.000000
-21.458836 -0.000000 -7.718599 0.000000 1.000000 -0.000000
-19.209610 -0.000000 -8.123970 -0.000000 1.000000 -0.000000
-20.536819 -0.000000 -8.449402 -0.000000 1.000000 -0.000000
-20.971985 -0.000000 -8.549629 -0.000000 1.000000 -0.000000
-21.457523 -0.000000 -7.722090 0.000000 1.000000 -0.000000
-21.457523 -0.000000 -7.722090 -0.000074 1.000000 0.000255
-20.890985 -0.000008 -7.528021 -0.000074 1.000000 0.000255
-20.179932 -0.000008 -7.321974 -0.000074 1.000000 0.000255
-20.179932 -0.000008 -7.321974 0.000011 1.000000 -0.000034
-18.830881 -0.000008 -6.873967 0.000011 1.000000 -0.000034
-14.758003 -0.000031 -6.198952 0.000011 1.000000 -0.000034
-14.758003 -0.000031 -6.198952 -0.000284 1.000000 0.000035
-14.650432 -0.000000 -6.198513 -0.000284 1.000000 0.000035
-14.713902 -0.000000 -6.714509 -0.000284 1.000000 0.000035
-14.713902 -0.000000 -6.714509 -0.000000 1.000000 -0.000000
-14.831528 -0.000000 -7.335350 -0.000000 1.000000 -0.000000
-14.922584 -0.000000 -7.210086 -0.000000 1.000000 -0.000000
-15.088043 -0.000000 -7.145699 0.000000 1.000000 -0.000000
-20.179932 -0.000008 -7.321974 -0.000008 1.000000 0.000058
-14.758003 -0.000031 -6.198952 -0.000008 1.000000 0.000058
-14.713902 -0.000000 -6.714509 -0.000008 1.000000 0.000058
-21.457523 -0.000000 -7.722090 -0.000005 1.000000 0.000036
-20.179932 -0.000008 -7.321974 -0.000005 1.000000 0.000036
-14.713902 -0.000000 -6.714509 -0.000005 1.000000 0.000036
-15.153717 -0.000000 -7.138649 -0.000000 1.000000 -0.000000
-15.220047 -0.000000 -7.145958 -0.000000 1.000000 -0.000000
-16.744514 -0.000000 -7.518044 -0.000000 1.000000 -0.000000
-17.961624 -0.000000 -7.808472 -0.000000 1.000000 -0.000000
3 0 1 2
3 2 3 4
3 5 6 7
3 2 4 5
3 8 9 0
3 0 2 5
3 5 7 10
3 10 11 12
3 12 13 14
3 12 14 15
3 5 10 12
3 16 8 0
3 0 5 12
3 0 12 15
3 17 16 0
3 18 19 17
3 17 0 15
3 17 15 20
3 18 17 20
3 18 20 21
3 18 21 22
3 23 24 25
3 18 22 23
3 18 23 25
3 26 27 28
3 18 25 26
3 18 26 28
3 18 28 29
3 30 18 29
3 31 32 33
3 30 29 31
3 34 35 36
3 36 30 31
3 31 33 37
3 38 39 40
3 41 42 43
3 44 45 46
3 47 48 49
3 47 49 50
3 51 52 53
3 36 31 37
3 54 55 56
3 47 50 57
3 58 59 60
3 47 57 58
3 36 37 47
3 60 34 36
3 47 58 60
3 47 60 36
