ply
format ascii 1.0
comment Created by Blender 2.78 (sub 0) - www.blender.org, source file: 'soult.blend'
element vertex 49
property float x
property float y
property float z
property float nx
property float ny
property float nz
element face 33
property list uchar uint vertex_indices
end_header
-24.330154 -0.000000 -9.787872 -0.000000 1.000000 0.000000
-25.143801 -0.000000 -10.130260 -0.000000 1.000000 0.000000
-29.817093 -0.000001 -12.042187 -0.000000 1.000000 0.000000
-29.817093 -0.000001 -12.042187 -0.000048 1.000000 0.000119
-30.608200 -0.000001 -12.358459 -0.000048 1.000000 0.000119
-30.827501 -0.000001 -12.446093 -0.000048 1.000000 0.000119
-30.827501 -0.000001 -12.446093 -0.000000 1.000000 -0.000000
-31.119781 -0.000001 -11.924583 -0.000000 1.000000 -0.000000
-31.119436 -0.000001 -11.924449 -0.000000 1.000000 -0.000000
-31.119991 -0.000001 -11.509005 0.000000 1.000000 -0.000000
-25.908005 -0.000000 -9.423003 0.000000 1.000000 -0.000000
-22.110001 -0.000000 -7.936024 -0.000000 1.000000 -0.000000
-22.654373 -0.000000 -9.118347 0.000000 1.000000 -0.000000
-23.895950 -0.000000 -9.618340 0.000000 1.000000 -0.000000
-22.111893 -0.000000 -8.901230 0.000000 1.000000 -0.000000
-21.912827 -0.000000 -8.820328 0.000000 1.000000 -0.000000
-21.926971 -0.000000 -8.826828 0.000000 1.000000 -0.000000
-22.037338 -0.000000 -8.869888 0.000000 1.000000 -0.000000
-22.085941 -0.000000 -7.872500 0.000000 1.000000 -0.000000
-22.087173 -0.000000 -7.859917 0.000000 1.000000 -0.000000
-21.458836 -0.000000 -7.718599 0.000000 1.000000 -0.000000
-21.885117 -0.000000 -8.811836 0.000000 1.000000 -0.000000
-21.457523 -0.000000 -7.722090 0.000000 1.000000 -0.000000
-21.457523 -0.000000 -7.722090 -0.000074 1.000000 0.000255
-20.890985 -0.000008 -7.528021 -0.000074 1.000000 0.000255
-20.179932 -0.000008 -7.321974 -0.000074 1.000000 0.000255
-20.179932 -0.000008 -7.321974 0.000011 1.000000 -0.000034
-18.830881 -0.000008 -6.873967 0.000011 1.000000 -0.000034
-14.758003 -0.000031 -6.198952 0.000011 1.000000 -0.000034
-14.758003 -0.000031 -6.198952 -0.000284 1.000000 0.000035
-14.650432 -0.000000 -6.198513 -0.000284 1.000000 0.000035
-14.694793 -0.000000 -6.559158 -0.000284 1.000000 0.000035
-14.694793 -0.000000 -6.559158 0.013688 0.999904 -0.002311
-14.613737 -0.002193 -7.027764 0.013688 0.999904 -0.002311
-14.779370 -0.000000 -7.060063 0.013688 0.999904 -0.002311
-15.220047 -0.000000 -7.145958 -0.000000 1.000000 -0.000000
-16.744514 -0.000000 -7.518044 -0.000000 1.000000 -0.000000
-17.961624 -0.000000 -7.808472 -0.000000 1.000000 -0.000000
-14.694793 -0.000000 -6.559158 0.000000 1.000000 -0.000000
-14.779370 -0.000000 -7.060063 0.000000 1.000000 -0.000000
-20.179932 -0.000008 -7.321974 -0.000013 1.000000 0.000082
-14.758003 -0.000031 -6.198952 -0.000013 1.000000 0.000082
-14.694793 -0.000000 -6.559158 -0.000013 1.000000 0.000082
-21.457523 -0.000000 -7.722090 -0.000007 1.000000 0.000042
-20.179932 -0.000008 -7.321974 -0.000007 1.000000 0.000042
-14.694793 -0.000000 -6.559158 -0.000007 1.000000 0.000042
-19.209610 -0.000000 -8.123970 0.000000 1.000000 -0.000000
-20.536819 -0.000000 -8.449402 0.000000 1.000000 -0.000000
-20.971985 -0.000000 -8.549629 -0.000000 1.000000 -0.000000
3 0 1 2
3 3 4 5
3 6 7 8
3 8 9 10
3 8 10 11
3 2 6 8
3 12 13 0
3 0 2 8
3 0 8 11
3 14 12 0
3 15 16 17
3 17 14 0
3 17 0 11
3 15 17 11
3 18 19 20
3 15 11 18
3 21 15 18
3 18 20 22
3 23 24 25
3 26 27 28
3 29 30 31
3 32 33 34
3 35 36 37
3 38 39 35
3 40 41 42
3 21 18 22
3 43 44 45
3 38 35 37
3 37 46 47
3 48 21 22
3 37 47 48
3 22 38 37
3 22 37 48
