ply
format ascii 1.0
comment Created by Blender 2.78 (sub 0) - www.blender.org, source file: 'soult.blend'
element vertex 61
property float x
property float y
property float z
property float nx
property float ny
property float nz
element face 40
property list uchar uint vertex_indices
end_header
-17.602934 -0.000001 -15.195622 -0.000000 1.000000 -0.000000
-18.082138 -0.000001 -13.984619 -0.000000 1.000000 -0.000000
-18.078766 -0.000001 -13.861473 -0.000000 1.000000 -0.000000
-12.909691 -0.000000 -10.297127 0.000000 1.000000 -0.000000
-12.832359 -0.000000 -10.261528 0.000000 1.000000 -0.000000
-12.750031 -0.000000 -10.239891 -0.000000 1.000000 -0.000000
-12.665192 -0.000000 -10.232887 -0.000000 1.000000 -0.000000
-12.580421 -0.000000 -10.240723 0.000000 1.000000 -0.000000
-12.496605 -0.000000 -10.263790 0.000000 1.000000 -0.000000
-12.427170 -0.000000 -10.298233 -0.000000 1.000000 -0.000000
-12.366318 -0.000000 -10.343292 -0.000000 1.000000 -0.000000
-10.596581 -0.000001 -12.570717 0.000000 1.000000 -0.000000
-12.224453 -0.000001 -13.126476 0.000000 1.000000 -0.000000
-12.633333 -0.000001 -12.271540 0.000000 1.000000 -0.000000
-12.162502 -0.000001 -12.054708 -0.000000 1.000000 -0.000000
-12.112943 -0.000001 -12.141443 -0.000000 1.000000 -0.000000
-17.400879 -0.000001 -15.104387 0.000000 1.000000 0.000000
-17.876410 -0.000001 -14.056222 0.000000 1.000000 -0.000000
-12.001427 -0.000001 -12.085686 0.000000 1.000000 -0.000000
-12.664314 -0.000000 -10.555476 0.000000 1.000000 -0.000000
-13.401539 -0.000000 -10.995333 0.000000 1.000000 -0.000000
-13.267250 -0.000000 -9.852661 -0.000000 1.000000 -0.000000
-12.925745 -0.000000 -9.646208 -0.000000 1.000000 -0.000000
-12.846539 -0.000000 -9.718211 -0.000000 1.000000 -0.000000
-12.846539 -0.000000 -9.718211 -0.000034 1.000000 -0.000026
-12.242778 0.000007 -10.224303 -0.000034 1.000000 -0.000026
-11.434806 0.000007 -11.298645 -0.000034 1.000000 -0.000026
-11.434806 0.000007 -11.298645 -0.000044 1.000000 -0.000035
-10.596581 -0.000001 -12.570717 -0.000044 1.000000 -0.000035
-12.366318 -0.000000 -10.343292 -0.000044 1.000000 -0.000035
-12.846539 -0.000000 -9.718211 -0.000039 1.000000 -0.000030
-11.434806 0.000007 -11.298645 -0.000039 1.000000 -0.000030
-12.366318 -0.000000 -10.343292 -0.000039 1.000000 -0.000030
-13.364077 -0.000000 -9.933280 -0.000000 1.000000 -0.000000
-17.775826 0.000007 -15.146290 -0.000007 1.000000 0.000004
-18.362606 0.000004 -15.371589 -0.000007 1.000000 0.000004
-18.927685 -0.000008 -13.714580 -0.000007 1.000000 0.000004
-17.727894 0.000007 -15.140888 -0.000001 1.000000 0.000009
-17.775826 0.000007 -15.146290 -0.000001 1.000000 0.000009
-18.927685 -0.000008 -13.714580 -0.000001 1.000000 0.000009
-18.927685 -0.000008 -13.714580 0.000002 1.000000 -0.000005
-13.364077 -0.000000 -9.933280 0.000002 1.000000 -0.000005
-12.846539 -0.000000 -9.718211 0.000002 1.000000 -0.000005
-17.674206 -0.000054 -15.145018 0.001216 0.999999 0.001033
-17.727894 0.000007 -15.140888 0.001216 0.999999 0.001033
-18.927685 -0.000008 -13.714580 0.001216 0.999999 0.001033
-18.082138 -0.000001 -13.984619 -0.001043 0.999999 -0.000413
-17.607410 -0.000001 -15.184309 -0.001043 0.999999 -0.000413
-17.674206 -0.000054 -15.145018 -0.001043 0.999999 -0.000413
-18.082138 -0.000001 -13.984619 -0.000026 1.000000 -0.000055
-17.674206 -0.000054 -15.145018 -0.000026 1.000000 -0.000055
-18.927685 -0.000008 -13.714580 -0.000026 1.000000 -0.000055
-18.078766 -0.000001 -13.861473 -0.000008 1.000000 0.000000
-18.082138 -0.000001 -13.984619 -0.000008 1.000000 0.000000
-18.927685 -0.000008 -13.714580 -0.000008 1.000000 0.000000
-12.909691 -0.000000 -10.297127 -0.000007 1.000000 0.000010
-18.078766 -0.000001 -13.861473 -0.000007 1.000000 0.000010
-18.927685 -0.000008 -13.714580 -0.000007 1.000000 0.000010
-12.909691 -0.000000 -10.297127 -0.000001 1.000000 0.000000
-18.927685 -0.000008 -13.714580 -0.000001 1.000000 0.000000
-12.846539 -0.000000 -9.718211 -0.000001 1.000000 0.000000
3 0 1 2
3 2 3 4
3 4 5 6
3 6 7 8
3 8 9 10
3 11 12 13
3 13 14 15
3 11 13 15
3 8 10 11
3 4 6 8
3 16 0 2
3 17 16 2
3 2 4 8
3 11 15 18
3 11 18 19
3 17 2 8
3 20 17 8
3 8 11 19
3 8 19 20
3 21 22 23
3 24 25 26
3 27 28 29
3 30 31 32
3 33 21 23
3 34 35 36
3 37 38 39
3 40 41 42
3 23 10 9
3 23 9 8
3 43 44 45
3 46 47 48
3 49 50 51
3 23 8 7
3 23 7 6
3 52 53 54
3 55 56 57
3 23 6 5
3 23 5 4
3 58 59 60
3 23 4 3
