ply
format ascii 1.0
comment Created by Blender 2.78 (sub 0) - www.blender.org, source file: 'soult.blend'
element vertex 88
property float x
property float y
property float z
property float nx
property float ny
property float nz
property float s
property float t
element face 45
property list uchar uint vertex_indices
end_header
-14.650432 -0.000000 -6.198513 0.000000 1.000000 -0.000000 0.138047 0.664551
-14.427068 -0.000000 -6.158738 0.000000 1.000000 -0.000000 0.126176 0.664369
-14.302047 -0.000000 -6.971276 0.000000 1.000000 -0.000000 0.127848 0.621380
-14.613736 -0.000000 -7.027779 -0.000000 1.000000 -0.000000 0.144423 0.621583
-16.370743 -0.000022 -6.466238 -0.000291 0.999998 0.001790 0.229092 0.667935
-14.758003 -0.000031 -6.198952 -0.000291 0.999998 0.001790 0.143578 0.665600
-14.650432 -0.000000 -6.198513 -0.000291 0.999998 0.001790 0.138047 0.664551
-15.220047 -0.000000 -7.145958 -0.000005 1.000000 0.000022 0.176749 0.621552
-16.213110 -0.000000 -7.388340 -0.000005 1.000000 0.000022 0.230181 0.618993
-16.370743 -0.000022 -6.466238 -0.000005 1.000000 0.000022 0.229092 0.667935
-15.220047 -0.000000 -7.145958 0.000000 1.000000 -0.000000 0.176749 0.621552
-15.220047 -0.000000 -7.145958 -0.000014 1.000000 0.000008 0.176749 0.621552
-16.370743 -0.000022 -6.466238 -0.000014 1.000000 0.000008 0.229092 0.667935
-14.650432 -0.000000 -6.198513 -0.000014 1.000000 0.000008 0.138047 0.664551
-31.119991 -0.000001 -11.509005 -0.000000 1.000000 -0.000000 0.327003 0.724145
-29.551830 -0.000000 -10.881377 -0.000000 1.000000 -0.000000 0.238613 0.723805
-29.197277 -0.000001 -11.788610 -0.000000 1.000000 -0.000000 0.239224 0.672836
-29.197277 -0.000001 -11.788610 0.000000 1.000000 -0.000001 0.239224 0.672836
-29.817093 -0.000001 -12.042187 0.000000 1.000000 -0.000001 0.274269 0.672703
-30.608200 -0.000001 -12.358459 0.000000 1.000000 -0.000001 0.318853 0.672892
-30.608200 -0.000001 -12.358459 -0.000000 1.000000 -0.000000 0.318853 0.672892
-30.827501 -0.000001 -12.446093 -0.000000 1.000000 -0.000000 0.331212 0.672947
-31.119781 -0.000001 -11.924583 -0.000000 1.000000 -0.000000 0.335151 0.703982
-31.119436 -0.000001 -11.924449 -0.000000 1.000000 -0.000000 0.335132 0.703982
-27.734682 -0.000000 -10.154097 -0.000000 1.000000 -0.000000 0.013413 0.669667
-27.372284 -0.000000 -11.041972 -0.000000 1.000000 -0.000000 0.013264 0.619483
-29.197277 -0.000001 -11.788610 -0.000000 1.000000 -0.000000 0.116449 0.619092
-29.551830 -0.000000 -10.881377 -0.000000 1.000000 -0.000000 0.115837 0.670061
-25.908005 -0.000000 -9.423003 -0.000000 1.000000 -0.000000 0.013539 0.670821
-25.558983 -0.000000 -10.300118 -0.000000 1.000000 -0.000000 0.013827 0.621421
-27.372284 -0.000000 -11.041972 -0.000000 1.000000 -0.000000 0.116352 0.621033
-27.734682 -0.000000 -10.154097 -0.000000 1.000000 -0.000000 0.116501 0.671217
-25.908005 -0.000000 -9.423003 -0.000000 1.000000 -0.000000 0.115077 0.669271
-24.153000 -0.000000 -8.735891 -0.000000 1.000000 -0.000000 0.016455 0.668148
-23.784248 -0.000000 -9.573357 -0.000000 1.000000 -0.000000 0.015008 0.620285
-23.895950 -0.000000 -9.618340 0.000000 1.000000 -0.000000 0.021310 0.620295
-24.330154 -0.000000 -9.787872 0.000000 1.000000 -0.000000 0.045701 0.620596
-25.143801 -0.000000 -10.130260 -0.000000 1.000000 0.000000 0.091891 0.619960
-25.558983 -0.000000 -10.300118 -0.000000 1.000000 0.000000 0.115365 0.619871
-24.153000 -0.000000 -8.735891 -0.000000 1.000000 -0.000000 0.119543 0.669698
-22.342613 -0.000000 -8.027096 -0.000000 1.000000 -0.000000 0.017809 0.668540
-21.998346 -0.000000 -8.854675 -0.000000 1.000000 -0.000000 0.017356 0.621637
-22.037338 -0.000000 -8.869888 -0.000000 1.000000 -0.000000 0.019546 0.621664
-22.111893 -0.000000 -8.901230 -0.000000 1.000000 -0.000000 0.023778 0.621608
-22.654373 -0.000000 -9.118347 -0.000000 1.000000 -0.000000 0.054355 0.621725
-23.784248 -0.000000 -9.573357 0.000000 1.000000 -0.000000 0.118096 0.621835
-20.890985 -0.000008 -7.528021 -0.000002 1.000000 0.000007 0.270934 0.666521
-20.179932 -0.000008 -7.321974 -0.000002 1.000000 0.000007 0.232195 0.666204
-19.976141 -0.000000 -8.311923 -0.000002 1.000000 0.000007 0.236801 0.613514
-19.976141 -0.000000 -8.311923 -0.000000 1.000000 -0.000000 0.236801 0.613514
-20.536819 -0.000000 -8.449402 -0.000000 1.000000 -0.000000 0.266974 0.615017
-20.971985 -0.000000 -8.549629 -0.000000 1.000000 -0.000000 0.290295 0.616509
-20.890985 -0.000008 -7.528021 -0.000002 1.000000 0.000008 0.270934 0.666521
-19.976141 -0.000000 -8.311923 -0.000002 1.000000 0.000008 0.236801 0.613514
-20.971985 -0.000000 -8.549629 -0.000002 1.000000 0.000008 0.290295 0.616509
-22.087173 -0.000000 -7.859917 0.000000 1.000000 -0.000000 0.335883 0.667793
-21.458836 -0.000000 -7.718599 0.000000 1.000000 -0.000000 0.302261 0.665469
-21.457523 -0.000000 -7.722090 0.000000 1.000000 -0.000000 0.302247 0.665274
-21.457523 -0.000000 -7.722090 0.000011 1.000000 0.000007 0.302247 0.665274
-20.890985 -0.000008 -7.528021 0.000011 1.000000 0.000007 0.270934 0.666521
-20.971985 -0.000000 -8.549629 0.000011 1.000000 0.000007 0.290295 0.616509
-21.885117 -0.000000 -8.811836 -0.000000 1.000000 -0.000000 0.340007 0.617036
-22.085941 -0.000000 -7.872500 0.000000 1.000000 -0.000000 0.336010 0.667144
-21.998346 -0.000000 -8.854675 0.000000 1.000000 -0.000000 0.346327 0.616584
-22.342613 -0.000000 -8.027096 0.000000 1.000000 -0.000000 0.351195 0.663236
-22.110001 -0.000000 -7.936024 0.000000 1.000000 -0.000000 0.338167 0.664319
-21.912827 -0.000000 -8.820328 -0.000000 1.000000 -0.000000 0.341524 0.617025
-21.926971 -0.000000 -8.826828 0.000000 1.000000 -0.000000 0.342331 0.616911
-18.830881 -0.000008 -6.873967 0.000004 1.000000 0.000010 0.038766 0.671323
-18.399170 -0.000010 -6.802417 0.000004 1.000000 0.000010 0.016056 0.668384
-18.166388 -0.000000 -7.860237 0.000004 1.000000 0.000010 0.020378 0.611868
-18.166388 -0.000000 -7.860237 0.000000 1.000000 -0.000000 0.020378 0.611868
-19.209610 -0.000000 -8.123970 0.000000 1.000000 -0.000000 0.076630 0.614419
-19.976141 -0.000000 -8.311923 0.000000 1.000000 -0.000000 0.117874 0.616585
-19.976141 -0.000000 -8.311923 -0.000002 1.000000 0.000007 0.117874 0.616585
-20.179932 -0.000008 -7.321974 -0.000002 1.000000 0.000007 0.113125 0.669262
-18.830881 -0.000008 -6.873967 -0.000002 1.000000 0.000007 0.038766 0.671323
-18.166388 -0.000000 -7.860237 -0.000002 1.000000 0.000007 0.020378 0.611868
-18.399170 -0.000010 -6.802417 0.000002 1.000000 0.000024 0.120028 0.671709
-16.370743 -0.000022 -6.466238 0.000002 1.000000 0.000024 0.012465 0.669014
-16.213110 -0.000000 -7.388340 0.000002 1.000000 0.000024 0.013443 0.620070
-16.213110 -0.000000 -7.388340 -0.000000 1.000000 -0.000000 0.013443 0.620070
-16.744514 -0.000000 -7.518044 -0.000000 1.000000 -0.000000 0.042032 0.618636
-17.961624 -0.000000 -7.808472 -0.000000 1.000000 -0.000000 0.107446 0.615694
-17.961624 -0.000000 -7.808472 -0.000002 1.000000 0.000009 0.107446 0.615694
-18.166388 -0.000000 -7.860237 -0.000002 1.000000 0.000009 0.118479 0.615049
-18.399170 -0.000010 -6.802417 -0.000002 1.000000 0.000009 0.120028 0.671709
-16.213110 -0.000000 -7.388340 -0.000002 1.000000 0.000009 0.013443 0.620070
3 0 1 2
3 0 2 3
3 4 5 6
3 7 8 9
3 0 3 10
3 11 12 13
3 14 15 16
3 17 18 19
3 20 21 22
3 23 14 16
3 20 22 23
3 16 20 23
4 24 25 26 27
4 28 29 30 31
3 32 33 34
3 34 35 36
3 36 37 38
3 32 34 36
3 36 38 32
3 39 40 41
3 42 43 44
3 39 41 42
3 44 45 39
3 42 44 39
3 46 47 48
3 49 50 51
3 52 53 54
3 55 56 57
3 58 59 60
3 57 51 61
3 62 55 57
3 63 64 65
3 65 62 57
3 57 61 66
3 66 67 63
3 63 65 57
3 66 63 57
3 68 69 70
3 71 72 73
3 74 75 76
3 77 74 76
3 78 79 80
3 81 82 83
3 84 85 86
3 87 84 86
