ply
format ascii 1.0
comment Created by Blender 2.78 (sub 0) - www.blender.org, source file: 'soult.blend'
element vertex 47
property float x
property float y
property float z
property float nx
property float ny
property float nz
element face 28
property list uchar uint vertex_indices
end_header
-31.119991 -0.000001 -11.509005 -0.000000 1.000000 -0.000000
-31.119436 -0.000001 -11.924449 -0.000000 1.000000 -0.000000
-31.119781 -0.000001 -11.924583 -0.000000 1.000000 -0.000000
-30.885864 -0.000001 -12.133888 0.000000 1.000000 -0.000000
-30.874329 -0.000001 -12.128891 0.000000 1.000000 -0.000000
-30.861893 -0.000001 -12.127411 0.000000 1.000000 -0.000000
-31.119993 0.000000 -11.509003 0.258447 0.966025 0.000130
-31.119991 -0.000001 -11.509005 0.258447 0.966025 0.000130
-31.119781 -0.000001 -11.924583 0.258447 0.966025 0.000130
-30.849426 -0.000001 -12.128853 0.000000 1.000000 -0.000000
-33.836044 0.000000 -6.678453 -0.000002 1.000000 -0.000001
-31.119993 0.000000 -11.509003 -0.000002 1.000000 -0.000001
-31.119781 -0.000001 -11.924583 -0.000002 1.000000 -0.000001
-30.837891 -0.000001 -12.133789 -0.000000 1.000000 -0.000000
-33.890423 0.000000 -6.724168 0.000000 1.000000 -0.000000
-33.836044 0.000000 -6.678453 0.000000 1.000000 -0.000000
-30.827820 -0.000001 -12.141273 -0.000000 1.000000 -0.000000
-34.146900 -0.000000 -6.946388 0.000000 1.000000 -0.000000
-30.809143 -0.000001 -12.160439 0.000000 1.000000 -0.000000
-34.442608 -0.000000 -7.202603 0.000000 1.000000 -0.000000
-30.781342 -0.000001 -12.188171 -0.000000 1.000000 -0.000000
-30.753052 -0.000001 -12.215416 -0.000000 1.000000 -0.000000
-30.724304 -0.000001 -12.242157 0.000000 1.000000 -0.000000
-30.715485 -0.000001 -12.250168 0.000000 1.000000 -0.000000
-30.686127 -0.000001 -12.276260 -0.000000 1.000000 -0.000000
-30.656311 -0.000001 -12.301819 -0.000000 1.000000 -0.000000
-30.623093 -0.000001 -12.329334 0.000000 1.000000 -0.000000
-30.613190 -0.000001 -12.341061 0.000000 1.000000 -0.000000
-30.613190 -0.000001 -12.341061 0.000000 1.000000 0.000001
-30.589714 -0.000001 -12.345927 0.000000 1.000000 0.000001
-31.325781 -0.000000 -12.656120 0.000000 1.000000 0.000001
-34.299522 -0.000000 -7.490853 0.000000 1.000000 -0.000000
-34.492809 -0.000000 -7.605573 0.000000 1.000000 -0.000000
-34.531807 -0.000000 -7.491617 0.000000 1.000000 -0.000000
-30.656311 -0.000001 -12.301819 0.000001 1.000000 0.000001
-30.613190 -0.000001 -12.341061 0.000001 1.000000 0.000001
-31.325781 -0.000000 -12.656120 0.000001 1.000000 0.000001
-30.885864 -0.000001 -12.133888 0.000000 1.000000 0.000001
-30.656311 -0.000001 -12.301819 0.000000 1.000000 0.000001
-34.524666 -0.000000 -7.366739 0.000000 1.000000 0.000000
-31.119781 -0.000001 -11.924583 0.000001 1.000000 0.000001
-30.885864 -0.000001 -12.133888 0.000001 1.000000 0.000001
-34.503269 -0.000000 -7.288234 -0.000000 1.000000 0.000000
-31.119781 -0.000001 -11.924583 0.000001 1.000000 0.000000
-31.325781 -0.000000 -12.656120 0.000001 1.000000 0.000000
-34.299522 -0.000000 -7.490853 0.000001 1.000000 0.000000
-34.442608 -0.000000 -7.202603 0.000001 1.000000 0.000000
3 0 1 2
3 3 4 5
3 6 7 8
3 3 5 9
3 10 11 12
3 3 9 13
3 14 15 2
3 3 13 16
3 17 14 2
3 3 16 18
3 19 17 2
3 3 18 20
3 3 20 21
3 3 21 22
3 3 22 23
3 3 23 24
3 3 24 25
3 25 26 27
3 28 29 30
3 31 32 33
3 34 35 36
3 37 38 30
3 31 33 39
3 40 41 36
3 39 42 19
3 43 44 45
3 31 39 19
3 43 45 46
