ply
format ascii 1.0
comment Created by Blender 2.78 (sub 0) - www.blender.org, source file: 'soult.blend'
element vertex 52
property float x
property float y
property float z
property float nx
property float ny
property float nz
element face 23
property list uchar uint vertex_indices
end_header
-13.267250 -0.000000 -9.852661 -0.000000 1.000000 -0.000000
-12.925745 -0.000000 -9.646208 -0.000000 1.000000 -0.000000
-12.846539 -0.000000 -9.718211 -0.000000 1.000000 -0.000000
-12.846539 -0.000000 -9.718211 -0.000034 1.000000 -0.000026
-12.242778 0.000007 -10.224303 -0.000034 1.000000 -0.000026
-11.434806 0.000007 -11.298645 -0.000034 1.000000 -0.000026
-11.434806 0.000007 -11.298645 -0.000044 1.000000 -0.000035
-10.596581 -0.000001 -12.570717 -0.000044 1.000000 -0.000035
-12.366318 -0.000000 -10.343292 -0.000044 1.000000 -0.000035
-12.846539 -0.000000 -9.718211 -0.000039 1.000000 -0.000030
-11.434806 0.000007 -11.298645 -0.000039 1.000000 -0.000030
-12.366318 -0.000000 -10.343292 -0.000039 1.000000 -0.000030
-13.284184 -0.000000 -9.901720 -0.000000 1.000000 -0.000000
-18.927685 -0.000008 -13.714580 0.000000 1.000000 -0.000002
-13.364077 -0.000000 -9.933280 0.000000 1.000000 -0.000002
-13.330383 -0.000000 -9.933239 0.000000 1.000000 -0.000002
-13.330383 -0.000000 -9.933239 0.000000 1.000000 -0.000000
-12.366318 -0.000000 -10.343292 -0.000000 1.000000 -0.000000
-12.427170 -0.000000 -10.298233 -0.000000 1.000000 -0.000000
-12.496605 -0.000000 -10.263790 -0.000000 1.000000 -0.000000
-18.927685 -0.000008 -13.714580 0.000002 1.000000 -0.000006
-13.330383 -0.000000 -9.933239 0.000002 1.000000 -0.000006
-12.846539 -0.000000 -9.718211 0.000002 1.000000 -0.000006
-17.775826 0.000007 -15.146290 -0.000007 1.000000 0.000004
-18.362606 0.000004 -15.371589 -0.000007 1.000000 0.000004
-18.927685 -0.000008 -13.714580 -0.000007 1.000000 0.000004
-17.727894 0.000007 -15.140888 -0.000001 1.000000 0.000009
-17.775826 0.000007 -15.146290 -0.000001 1.000000 0.000009
-18.927685 -0.000008 -13.714580 -0.000001 1.000000 0.000009
-12.580421 -0.000000 -10.240723 0.000000 1.000000 -0.000000
-12.665192 -0.000000 -10.232887 0.000000 1.000000 -0.000000
-17.674206 -0.000054 -15.145018 0.001216 0.999999 0.001033
-17.727894 0.000007 -15.140888 0.001216 0.999999 0.001033
-18.927685 -0.000008 -13.714580 0.001216 0.999999 0.001033
-18.082138 -0.000001 -13.984619 -0.001043 0.999999 -0.000413
-17.607410 -0.000001 -15.184309 -0.001043 0.999999 -0.000413
-17.674206 -0.000054 -15.145018 -0.001043 0.999999 -0.000413
-18.082138 -0.000001 -13.984619 -0.000026 1.000000 -0.000055
-17.674206 -0.000054 -15.145018 -0.000026 1.000000 -0.000055
-18.927685 -0.000008 -13.714580 -0.000026 1.000000 -0.000055
-12.750031 -0.000000 -10.239891 -0.000000 1.000000 -0.000000
-12.832359 -0.000000 -10.261528 -0.000000 1.000000 -0.000000
-18.078766 -0.000001 -13.861473 -0.000008 1.000000 0.000000
-18.082138 -0.000001 -13.984619 -0.000008 1.000000 0.000000
-18.927685 -0.000008 -13.714580 -0.000008 1.000000 0.000000
-12.909691 -0.000000 -10.297127 0.000000 1.000000 -0.000000
-12.909691 -0.000000 -10.297127 -0.000007 1.000000 0.000010
-18.078766 -0.000001 -13.861473 -0.000007 1.000000 0.000010
-18.927685 -0.000008 -13.714580 -0.000007 1.000000 0.000010
-12.846539 -0.000000 -9.718211 -0.000001 1.000000 0.000000
-12.909691 -0.000000 -10.297127 -0.000001 1.000000 0.000000
-18.927685 -0.000008 -13.714580 -0.000001 1.000000 0.000000
3 0 1 2
3 3 4 5
3 6 7 8
3 9 10 11
3 12 0 2
3 13 14 15
3 16 12 2
3 2 17 18
3 2 18 19
3 20 21 22
3 23 24 25
3 26 27 28
3 2 19 29
3 2 29 30
3 31 32 33
3 34 35 36
3 37 38 39
3 2 30 40
3 2 40 41
3 42 43 44
3 2 41 45
3 46 47 48
3 49 50 51
