ply
format ascii 1.0
comment Created by Blender 2.78 (sub 0) - www.blender.org, source file: 'soult.blend'
element vertex 69
property float x
property float y
property float z
property float nx
property float ny
property float nz
element face 32
property list uchar uint vertex_indices
end_header
-14.694793 -0.000000 -6.559155 0.000000 1.000000 -0.000000
-14.613736 -0.000000 -7.027779 0.000000 1.000000 -0.000000
-15.220047 -0.000000 -7.145958 0.000000 1.000000 -0.000000
-16.744514 -0.000000 -7.518044 -0.000000 1.000000 -0.000000
-17.961624 -0.000000 -7.808472 -0.000000 1.000000 -0.000000
-19.209610 -0.000000 -8.123970 0.000000 1.000000 -0.000000
-20.536819 -0.000000 -8.449402 0.000000 1.000000 -0.000000
-20.971985 -0.000000 -8.549629 -0.000000 1.000000 -0.000000
-14.758003 -0.000031 -6.198952 -0.000284 1.000000 0.000035
-14.650432 -0.000000 -6.198513 -0.000284 1.000000 0.000035
-14.694793 -0.000000 -6.559155 -0.000284 1.000000 0.000035
-20.179932 -0.000008 -7.321974 0.000011 1.000000 -0.000034
-18.830881 -0.000008 -6.873967 0.000011 1.000000 -0.000034
-14.758003 -0.000031 -6.198952 0.000011 1.000000 -0.000034
-21.457523 -0.000000 -7.722090 -0.000074 1.000000 0.000255
-20.890985 -0.000008 -7.528021 -0.000074 1.000000 0.000255
-20.179932 -0.000008 -7.321974 -0.000074 1.000000 0.000255
-22.087173 -0.000000 -7.859917 0.000000 1.000000 -0.000000
-21.458836 -0.000000 -7.718599 0.000000 1.000000 -0.000000
-21.457523 -0.000000 -7.722090 0.000000 1.000000 -0.000000
-22.085941 -0.000000 -7.872500 0.000000 1.000000 -0.000000
-21.457523 -0.000000 -7.722090 0.000001 1.000000 0.000016
-20.179932 -0.000008 -7.321974 0.000001 1.000000 0.000016
-14.758003 -0.000031 -6.198952 0.000001 1.000000 0.000016
-14.758003 -0.000031 -6.198952 -0.000030 1.000000 0.000079
-14.694793 -0.000000 -6.559155 -0.000030 1.000000 0.000079
-17.961624 -0.000000 -7.808472 -0.000030 1.000000 0.000079
-14.758003 -0.000031 -6.198952 -0.000009 1.000000 0.000037
-17.961624 -0.000000 -7.808472 -0.000009 1.000000 0.000037
-20.971985 -0.000000 -8.549629 -0.000009 1.000000 0.000037
-22.085941 -0.000000 -7.872500 0.000091 1.000000 -0.000380
-21.457523 -0.000000 -7.722090 0.000091 1.000000 -0.000380
-14.758003 -0.000031 -6.198952 0.000091 1.000000 -0.000380
-31.119991 -0.000001 -11.509005 -0.000000 1.000000 -0.000000
-25.908005 -0.000000 -9.423003 -0.000000 1.000000 -0.000000
-22.110001 -0.000000 -7.936024 -0.000000 1.000000 -0.000000
-22.110001 -0.000000 -7.936024 0.000005 1.000000 -0.000002
-22.085941 -0.000000 -7.872500 0.000005 1.000000 -0.000002
-14.758003 -0.000031 -6.198952 0.000005 1.000000 -0.000002
-14.758003 -0.000031 -6.198952 -0.000015 1.000000 0.000054
-20.971985 -0.000000 -8.549629 -0.000015 1.000000 0.000054
-21.885117 -0.000000 -8.811836 -0.000015 1.000000 0.000054
-21.912827 -0.000000 -8.820328 0.000000 1.000000 -0.000000
-21.926971 -0.000000 -8.826828 0.000000 1.000000 -0.000000
-22.037338 -0.000000 -8.869888 0.000000 1.000000 -0.000000
-14.758003 -0.000031 -6.198952 -0.000022 1.000000 0.000071
-21.885117 -0.000000 -8.811836 -0.000022 1.000000 0.000071
-21.912827 -0.000000 -8.820328 -0.000022 1.000000 0.000071
-31.119991 -0.000001 -11.509005 0.000010 1.000000 -0.000026
-22.110001 -0.000000 -7.936024 0.000010 1.000000 -0.000026
-14.758003 -0.000031 -6.198952 0.000010 1.000000 -0.000026
-30.827501 -0.000001 -12.446093 -0.000000 1.000000 -0.000000
-31.119781 -0.000001 -11.924583 -0.000000 1.000000 -0.000000
-31.119436 -0.000001 -11.924449 -0.000000 1.000000 -0.000000
-31.119436 -0.000001 -11.924449 0.000002 1.000000 -0.000000
-31.119991 -0.000001 -11.509005 0.000002 1.000000 -0.000000
-14.758003 -0.000031 -6.198952 0.000002 1.000000 -0.000000
-31.119436 -0.000001 -11.924449 -0.000049 1.000000 0.000146
-14.758003 -0.000031 -6.198952 -0.000049 1.000000 0.000146
-21.912827 -0.000000 -8.820328 -0.000049 1.000000 0.000146
-30.608200 -0.000001 -12.358459 -0.000000 1.000000 -0.000000
-25.143801 -0.000000 -10.130260 0.000000 1.000000 -0.000001
-29.817093 -0.000001 -12.042187 0.000000 1.000000 -0.000001
-30.608200 -0.000001 -12.358459 0.000000 1.000000 -0.000001
-22.654373 -0.000000 -9.118347 0.000000 1.000000 -0.000000
-23.895950 -0.000000 -9.618340 0.000000 1.000000 -0.000000
-24.330154 -0.000000 -9.787872 0.000000 1.000000 -0.000000
-25.143801 -0.000000 -10.130260 0.000000 1.000000 -0.000000
-22.111893 -0.000000 -8.901230 -0.000000 1.000000 -0.000000
3 0 1 2
3 2 3 4
3 4 5 6
3 4 6 7
3 0 2 4
3 8 9 10
3 11 12 13
3 14 15 16
3 17 18 19
3 20 17 19
3 21 22 23
3 24 25 26
3 27 28 29
3 30 31 32
3 33 34 35
3 36 37 38
3 39 40 41
3 42 43 44
3 45 46 47
3 48 49 50
3 51 52 53
3 54 55 56
3 57 58 59
3 60 51 53
3 61 62 63
3 64 65 66
3 66 67 60
3 53 42 44
3 44 68 64
3 66 60 53
3 44 64 66
3 44 66 53
