ply
format ascii 1.0
comment Created by Blender 2.78 (sub 0) - www.blender.org, source file: 'soult.blend'
element vertex 27
property float x
property float y
property float z
property float nx
property float ny
property float nz
element face 13
property list uchar uint vertex_indices
end_header
-31.119991 -0.000001 -11.509005 -0.000000 1.000000 -0.000000
-31.119436 -0.000001 -11.924449 -0.000000 1.000000 -0.000000
-31.119781 -0.000001 -11.924583 -0.000000 1.000000 -0.000000
-31.119781 -0.000001 -11.924583 0.000000 1.000000 0.000001
-30.827505 -0.000000 -12.446095 0.000000 1.000000 0.000001
-31.325781 -0.000000 -12.656120 0.000000 1.000000 0.000001
-34.299522 -0.000000 -7.490853 0.000000 1.000000 -0.000000
-34.492809 -0.000000 -7.605573 0.000000 1.000000 -0.000000
-34.531807 -0.000000 -7.491617 0.000000 1.000000 -0.000000
-31.119781 -0.000001 -11.924583 0.000001 1.000000 0.000000
-31.325781 -0.000000 -12.656120 0.000001 1.000000 0.000000
-34.299522 -0.000000 -7.490853 0.000001 1.000000 0.000000
-31.119993 0.000000 -11.509003 0.258447 0.966025 0.000130
-31.119991 -0.000001 -11.509005 0.258447 0.966025 0.000130
-31.119781 -0.000001 -11.924583 0.258447 0.966025 0.000130
-33.890423 0.000000 -6.724168 -0.000000 1.000000 0.000000
-33.836044 0.000000 -6.678453 -0.000000 1.000000 0.000000
-31.119993 0.000000 -11.509003 -0.000000 1.000000 0.000000
-34.442608 -0.000000 -7.202603 -0.000007 1.000000 0.000009
-34.146900 -0.000000 -6.946388 -0.000007 1.000000 0.000009
-33.890423 0.000000 -6.724168 -0.000007 1.000000 0.000009
-34.524666 -0.000000 -7.366739 -0.000000 1.000000 0.000000
-34.503269 -0.000000 -7.288234 -0.000000 1.000000 0.000000
-34.442608 -0.000000 -7.202603 -0.000000 1.000000 0.000000
-31.119993 0.000000 -11.509003 -0.000002 1.000000 -0.000001
-31.119781 -0.000001 -11.924583 -0.000002 1.000000 -0.000001
-34.299522 -0.000000 -7.490853 -0.000002 1.000000 -0.000001
3 0 1 2
3 3 4 5
3 6 7 8
3 9 10 11
3 12 13 14
3 15 16 17
3 18 19 20
3 21 22 23
3 6 8 21
3 24 25 26
3 23 15 17
3 6 21 23
3 6 23 17
