ply
format ascii 1.0
comment Created by Blender 2.78 (sub 0) - www.blender.org, source file: 'soult.blend'
element vertex 313
property float x
property float y
property float z
property float nx
property float ny
property float nz
element face 295
property list uchar uint vertex_indices
end_header
-36.243988 -0.000002 -34.932007 0.000000 1.000000 -0.000000
-35.788219 -0.000002 -35.684311 0.000000 1.000000 -0.000000
-36.969276 -0.000002 -36.204407 0.000000 1.000000 -0.000000
-37.548004 -0.000002 -35.591003 0.000000 0.000000 0.000000
-37.548004 -0.000002 -35.591003 0.000000 0.000000 0.000000
-36.243988 -0.000002 -34.932007 0.000000 0.000000 0.000000
-37.548004 -0.000002 -35.591003 0.000000 1.000000 -0.000000
-58.197021 -0.000002 -45.459015 0.000000 1.000000 -0.000000
-59.723999 -0.000002 -45.451996 0.000000 1.000000 -0.000000
-59.531006 -0.000002 -44.196991 0.000000 1.000000 -0.000000
-59.396973 -0.000002 -43.420013 0.000000 1.000000 -0.000000
-59.273010 -0.000002 -42.639008 0.000000 1.000000 -0.000000
-59.174011 -0.000002 -42.037994 0.000000 1.000000 -0.000000
-57.979980 -0.000002 -42.812988 -0.000000 1.000000 -0.000000
-58.903015 -0.000002 -40.591003 0.000000 1.000000 -0.000000
-58.689026 -0.000002 -40.112000 -0.000000 1.000000 -0.000000
-58.460022 -0.000002 -38.838013 -0.000000 1.000000 -0.000000
-58.010986 -0.000002 -38.431000 -0.000000 1.000000 -0.000000
-57.820007 -0.000002 -41.717010 -0.000000 1.000000 -0.000000
-57.203003 -0.000002 -40.187988 -0.000000 1.000000 -0.000000
-57.687012 -0.000002 -37.862000 -0.000000 1.000000 -0.000000
-55.690002 -0.000002 -35.692993 -0.000000 1.000000 -0.000000
-54.669006 -0.000002 -37.410004 0.000000 1.000000 -0.000000
-55.295013 -0.000002 -37.830994 0.000000 1.000000 -0.000000
-55.958008 -0.000002 -38.339996 -0.000000 1.000000 -0.000000
-56.855988 -0.000002 -39.454987 -0.000000 1.000000 -0.000000
-56.483002 -0.000002 -38.860016 0.000000 1.000000 -0.000000
-50.841003 -0.000001 -24.149994 -0.000000 1.000000 -0.000000
-50.858002 -0.000001 -24.044998 -0.000000 1.000000 -0.000000
-50.600006 -0.000001 -23.968994 -0.000000 1.000000 -0.000000
-49.915009 -0.000001 -23.772003 0.000000 1.000000 -0.000000
-49.598999 -0.000001 -24.136002 0.000000 1.000000 -0.000000
-49.467987 -0.000001 -24.195999 0.000000 1.000000 -0.000000
-50.777008 -0.000001 -24.459000 -0.000000 1.000000 -0.000000
-50.231995 -0.000001 -25.195999 0.000000 1.000000 -0.000000
-50.277985 -0.000001 -25.160004 0.000000 1.000000 -0.000000
-49.976990 -0.000001 -25.263000 -0.000000 1.000000 -0.000000
-50.130005 -0.000001 -25.229004 -0.000000 1.000000 -0.000000
-49.727997 -0.000001 -25.251999 -0.000000 1.000000 -0.000000
-49.816010 -0.000001 -25.266998 -0.000000 1.000000 -0.000000
-49.526001 -0.000001 -25.164001 -0.000000 1.000000 -0.000000
-49.567993 -0.000001 -25.190994 -0.000000 1.000000 -0.000000
-48.992004 -0.000001 -24.384003 -0.000000 1.000000 -0.000000
-49.296997 -0.000001 -24.968002 -0.000000 1.000000 -0.000000
-48.473999 -0.000001 -23.945999 -0.000000 1.000000 -0.000000
-48.575989 -0.000001 -24.039001 -0.000000 1.000000 -0.000000
-48.759003 -0.000001 -24.141998 -0.000000 1.000000 -0.000000
-48.355011 -0.000001 -23.843002 0.000000 1.000000 -0.000000
-48.233002 -0.000001 -23.671997 0.000000 1.000000 -0.000000
-49.216003 -0.000001 -24.201004 0.000000 0.000000 0.000000
-48.996002 -0.000001 -24.031006 0.000000 0.000000 0.000000
-48.996002 -0.000001 -24.031006 0.000000 0.000000 0.000000
-49.216003 -0.000001 -24.201004 -0.000000 1.000000 -0.000000
-48.080994 -0.000001 -23.444992 0.000000 1.000000 -0.000000
-47.985992 -0.000001 -23.250000 0.000000 1.000000 -0.000000
-48.996002 -0.000001 -24.031006 -0.000000 1.000000 -0.000000
-48.433014 -0.000001 -22.796997 -0.000000 1.000000 -0.000000
-47.346008 -0.000001 -22.046997 -0.000000 1.000000 -0.000000
-47.890991 -0.000001 -23.082993 -0.000000 1.000000 -0.000000
-46.790985 -0.000001 -21.569000 -0.000000 1.000000 -0.000000
-47.558014 -0.000001 -22.624008 -0.000000 1.000000 -0.000000
-47.768005 -0.000001 -22.906998 -0.000000 1.000000 -0.000000
-46.915009 -0.000001 -21.477997 0.000000 1.000000 -0.000000
-46.777008 -0.000001 -21.475998 0.000000 1.000000 -0.000000
-44.110016 -0.000001 -19.964005 0.000000 1.000000 -0.000000
-44.229004 -0.000001 -19.781998 0.000000 1.000000 -0.000000
-44.281006 -0.000001 -19.498001 0.000000 1.000000 -0.000000
-44.264984 -0.000001 -19.365005 0.000000 1.000000 -0.000000
-44.200012 -0.000001 -19.098007 0.000000 1.000000 -0.000000
-44.101990 -0.000001 -18.830002 -0.000000 1.000000 -0.000000
-43.917999 -0.000001 -18.557007 -0.000000 1.000000 -0.000000
-43.902008 -0.000001 -18.542999 -0.000000 1.000000 -0.000000
-43.830994 -0.000001 -18.487000 -0.000000 1.000000 -0.000000
-43.764984 -0.000001 -18.451996 -0.000000 1.000000 -0.000000
-43.606995 -0.000001 -18.326004 -0.000000 1.000000 -0.000000
-43.483002 -0.000001 -18.242004 -0.000000 1.000000 -0.000000
-43.924988 -0.000001 -20.162003 -0.000000 1.000000 -0.000000
-43.472992 -0.000001 -20.292999 -0.000000 1.000000 -0.000000
-43.740997 -0.000001 -20.244995 -0.000000 1.000000 -0.000000
-40.925995 -0.000001 -19.805008 -0.000000 1.000000 -0.000000
-43.023987 -0.000001 -20.238998 -0.000000 1.000000 -0.000000
-40.562012 -0.000001 -19.501999 -0.000000 1.000000 -0.000000
-40.709991 -0.000001 -19.686996 -0.000000 1.000000 -0.000000
-39.888000 -0.000001 -18.345993 -0.000000 1.000000 -0.000000
-43.358002 -0.000001 -18.190994 -0.000000 1.000000 -0.000000
-38.678009 -0.000001 -17.436005 -0.000000 1.000000 -0.000000
-38.678009 -0.000001 -17.468994 -0.000000 1.000000 -0.000000
-39.042999 -0.000001 -17.539001 -0.000000 1.000000 -0.000000
-43.200989 -0.000001 -18.132004 0.000000 1.000000 -0.000000
-43.084015 -0.000001 -18.080994 0.000000 1.000000 -0.000000
-42.959015 -0.000001 -18.055008 0.000000 1.000000 -0.000000
-36.919006 -0.000001 -18.421997 0.000000 1.000000 -0.000000
-37.203003 -0.000001 -18.291000 0.000000 1.000000 -0.000000
-38.125000 -0.000001 -17.649002 0.000000 1.000000 -0.000000
-36.303009 -0.000001 -18.317001 -0.000000 1.000000 -0.000000
-36.701996 -0.000001 -18.419998 -0.000000 1.000000 -0.000000
-35.053009 -0.000001 -17.608002 0.000000 1.000000 -0.000000
-36.104004 -0.000001 -18.216003 0.000000 1.000000 -0.000000
-33.890991 -0.000001 -17.164001 -0.000000 1.000000 -0.000000
-34.019012 -0.000001 -17.231995 -0.000000 1.000000 -0.000000
-34.912994 -0.000001 -17.557007 -0.000000 1.000000 -0.000000
-33.710999 -0.000001 -17.001999 -0.000000 1.000000 -0.000000
-33.803986 -0.000001 -17.108002 -0.000000 1.000000 -0.000000
-33.602997 -0.000001 -16.749008 0.000000 1.000000 -0.000000
-33.635010 -0.000001 -16.865005 0.000000 1.000000 -0.000000
-33.562012 -0.000001 -16.429001 -0.000000 1.000000 -0.000000
-33.544006 -0.000001 -16.556000 -0.000000 1.000000 -0.000000
-33.571014 -0.000001 -16.632996 -0.000000 1.000000 -0.000000
-38.292999 -0.000001 -17.533005 -0.000000 1.000000 -0.000000
-33.596008 -0.000001 -16.341003 0.000000 1.000000 -0.000000
-33.707001 -0.000001 -16.143997 0.000000 1.000000 -0.000000
-33.652008 -0.000001 -16.227005 0.000000 1.000000 -0.000000
-34.127991 -0.000001 -15.817993 -0.000000 1.000000 -0.000000
-33.822998 -0.000001 -15.996994 -0.000000 1.000000 -0.000000
-36.139008 -0.000001 -15.261993 0.000000 1.000000 -0.000000
-38.527985 -0.000001 -17.468002 -0.000000 1.000000 -0.000000
-36.743011 -0.000001 -14.763992 0.000000 1.000000 -0.000000
-36.523987 -0.000001 -14.927002 0.000000 1.000000 -0.000000
-36.274994 -0.000001 -15.171997 0.000000 1.000000 -0.000000
-37.011993 -0.000001 -14.611008 0.000000 1.000000 -0.000000
-37.165985 -0.000001 -14.570999 -0.000000 1.000000 -0.000000
-37.548004 -0.000001 -14.490997 -0.000000 1.000000 -0.000000
-37.372009 -0.000001 -14.520996 -0.000000 1.000000 -0.000000
-37.940002 -0.000001 -14.514999 0.000000 1.000000 -0.000000
-37.734009 -0.000001 -14.492996 0.000000 1.000000 -0.000000
-38.278992 -0.000001 -14.580002 -0.000000 1.000000 -0.000000
-38.114014 -0.000001 -14.526993 -0.000000 1.000000 -0.000000
-38.627991 -0.000001 -14.727005 -0.000000 1.000000 -0.000000
-38.444000 -0.000001 -14.621994 -0.000000 1.000000 -0.000000
-38.894012 -0.000001 -14.975998 0.000000 1.000000 -0.000000
-38.730011 -0.000001 -14.820999 0.000000 1.000000 -0.000000
-39.108002 -0.000001 -15.257004 0.000000 0.000000 0.000000
-39.108002 -0.000001 -15.257004 0.000000 0.000000 0.000000
-39.036987 -0.000001 -15.111008 0.000000 0.000000 0.000000
-39.966003 -0.000001 -17.427994 -0.000000 1.000000 -0.000000
-39.108002 -0.000001 -15.257004 -0.000000 1.000000 -0.000000
-39.036987 -0.000001 -15.111008 -0.000000 1.000000 -0.000000
-39.292999 -0.000001 -17.740997 0.000000 1.000000 -0.000000
-39.705994 -0.000001 -18.095001 -0.000000 1.000000 -0.000000
-40.570007 -0.000001 -17.916000 -0.000000 1.000000 -0.000000
-42.933014 -0.000001 -18.179001 0.000000 1.000000 -0.000000
-42.916992 -0.000001 -18.244995 0.000000 1.000000 -0.000000
-42.950012 -0.000001 -18.287994 0.000000 1.000000 -0.000000
-41.363007 -0.000001 -17.923004 0.000000 1.000000 -0.000000
-41.157013 -0.000001 -18.013992 0.000000 1.000000 -0.000000
-40.950012 -0.000001 -18.115997 0.000000 1.000000 -0.000000
-43.006989 -0.000001 -18.345993 0.000000 1.000000 -0.000000
-43.437988 -0.000001 -18.750000 0.000000 1.000000 -0.000000
-43.488007 -0.000001 -18.792007 -0.000000 1.000000 -0.000000
-41.704010 -0.000001 -17.822998 -0.000000 1.000000 -0.000000
-41.540009 -0.000001 -17.862000 -0.000000 1.000000 -0.000000
-42.333008 -0.000001 -17.807007 -0.000000 1.000000 -0.000000
-42.127991 -0.000001 -17.785004 -0.000000 1.000000 -0.000000
-41.941010 -0.000001 -17.813995 -0.000000 1.000000 -0.000000
-43.536987 -0.000001 -18.867004 0.000000 1.000000 -0.000000
-42.354004 -0.000001 -17.910004 0.000000 1.000000 -0.000000
-42.384003 -0.000001 -17.848007 0.000000 1.000000 -0.000000
-42.135010 -0.000001 -18.063004 0.000000 1.000000 -0.000000
-42.250000 -0.000001 -17.992004 0.000000 1.000000 -0.000000
-41.794006 -0.000001 -18.162994 0.000000 1.000000 -0.000000
-41.980988 -0.000001 -18.113007 0.000000 1.000000 -0.000000
-41.628998 -0.000001 -18.203003 0.000000 1.000000 -0.000000
-43.569000 -0.000001 -18.951004 0.000000 1.000000 -0.000000
-43.601013 -0.000001 -19.067993 -0.000000 1.000000 -0.000000
-43.617004 -0.000001 -19.201004 0.000000 1.000000 -0.000000
-43.575012 -0.000001 -19.292999 0.000000 1.000000 -0.000000
-43.540985 -0.000001 -19.399994 0.000000 1.000000 -0.000000
-41.546997 -0.000001 -18.274002 0.000000 1.000000 -0.000000
-41.505005 -0.000001 -18.367004 -0.000000 1.000000 -0.000000
-43.464996 -0.000001 -19.516998 0.000000 1.000000 -0.000000
-41.472992 -0.000001 -18.479996 0.000000 1.000000 -0.000000
-43.338989 -0.000001 -19.574005 -0.000000 1.000000 -0.000000
-43.171997 -0.000001 -19.638992 0.000000 1.000000 -0.000000
-41.502991 -0.000001 -18.625000 -0.000000 1.000000 -0.000000
-41.644989 -0.000001 -18.863007 0.000000 1.000000 -0.000000
-43.063995 -0.000001 -19.664001 0.000000 1.000000 -0.000000
-42.730988 -0.000001 -19.613007 -0.000000 1.000000 -0.000000
-41.889008 -0.000001 -19.214996 0.000000 1.000000 -0.000000
-41.980988 -0.000001 -19.298004 -0.000000 1.000000 -0.000000
-42.432007 -0.000001 -19.537994 -0.000000 1.000000 -0.000000
-42.207001 -0.000001 -19.434006 0.000000 1.000000 -0.000000
-53.230988 -0.000002 -37.483002 -0.000000 1.000000 -0.000000
-53.251007 -0.000002 -37.489990 -0.000000 1.000000 -0.000000
-53.269989 -0.000002 -37.494995 -0.000000 1.000000 -0.000000
-53.290009 -0.000002 -37.501007 -0.000000 1.000000 -0.000000
-53.309998 -0.000002 -37.506012 -0.000000 1.000000 -0.000000
-53.330994 -0.000002 -37.510986 -0.000000 1.000000 -0.000000
-53.351013 -0.000002 -37.514008 -0.000000 1.000000 -0.000000
-53.371002 -0.000002 -37.516998 0.000000 1.000000 -0.000000
-53.391998 -0.000002 -37.519989 0.000000 1.000000 -0.000000
-53.411987 -0.000002 -37.522003 0.000000 1.000000 -0.000000
-53.433014 -0.000002 -37.524994 0.000000 1.000000 -0.000000
-53.454010 -0.000002 -37.526001 0.000000 1.000000 -0.000000
-53.191986 -0.000002 -37.468994 0.000000 1.000000 -0.000000
-53.210999 -0.000002 -37.476990 0.000000 1.000000 -0.000000
-53.473999 -0.000002 -37.526001 0.000000 0.000000 0.000000
-53.494995 -0.000002 -37.526001 0.000000 0.000000 0.000000
-53.515991 -0.000002 -37.526001 0.000000 0.000000 0.000000
-53.473999 -0.000002 -37.526001 0.000000 1.000000 -0.000000
-53.153992 -0.000002 -37.451996 -0.000000 1.000000 -0.000000
-53.173004 -0.000002 -37.462006 -0.000000 1.000000 -0.000000
-53.117004 -0.000002 -37.433990 0.000000 1.000000 -0.000000
-53.135010 -0.000002 -37.444000 0.000000 1.000000 -0.000000
-53.082001 -0.000002 -37.415009 0.000000 1.000000 -0.000000
-53.098999 -0.000002 -37.424988 0.000000 1.000000 -0.000000
-53.046997 -0.000002 -37.393005 -0.000000 1.000000 -0.000000
-53.063995 -0.000002 -37.403992 -0.000000 1.000000 -0.000000
-53.013000 -0.000002 -37.368011 -0.000000 1.000000 -0.000000
-53.028992 -0.000002 -37.380005 -0.000000 1.000000 -0.000000
-52.980011 -0.000002 -37.342987 0.000000 1.000000 -0.000000
-52.996002 -0.000002 -37.355988 0.000000 1.000000 -0.000000
-52.489990 -0.000002 -37.013000 -0.000000 1.000000 -0.000000
-52.721008 -0.000002 -37.167999 -0.000000 1.000000 -0.000000
-52.963989 -0.000002 -37.329987 -0.000000 1.000000 -0.000000
-53.515991 -0.000002 -37.526001 0.000000 1.000000 -0.000000
-53.536011 -0.000002 -37.524994 -0.000000 1.000000 -0.000000
-53.557007 -0.000002 -37.523987 -0.000000 1.000000 -0.000000
-53.576996 -0.000002 -37.522003 -0.000000 1.000000 -0.000000
-44.851013 -0.000001 -31.899994 -0.000000 1.000000 -0.000000
-43.225006 -0.000001 -31.325012 -0.000000 1.000000 -0.000000
-44.575989 -0.000001 -31.998016 -0.000000 1.000000 -0.000000
-43.179993 -0.000001 -31.242004 -0.000000 1.000000 -0.000000
-43.130005 -0.000001 -31.161987 0.000000 1.000000 -0.000000
-53.597992 -0.000002 -37.519012 -0.000000 1.000000 -0.000000
-53.618011 -0.000002 -37.515991 -0.000000 1.000000 -0.000000
-53.638000 -0.000002 -37.511993 0.000000 1.000000 -0.000000
-53.658997 -0.000002 -37.507996 0.000000 1.000000 -0.000000
-53.678986 -0.000002 -37.503998 0.000000 1.000000 -0.000000
-43.078003 -0.000001 -31.082001 -0.000000 1.000000 -0.000000
-43.022003 -0.000001 -31.005005 -0.000000 1.000000 -0.000000
-53.699005 -0.000002 -37.498993 0.000000 1.000000 -0.000000
-53.717987 -0.000002 -37.493011 -0.000000 1.000000 -0.000000
-53.738007 -0.000002 -37.485992 -0.000000 1.000000 -0.000000
-53.757996 -0.000002 -37.480011 0.000000 1.000000 -0.000000
-53.777008 -0.000002 -37.472015 0.000000 1.000000 -0.000000
-53.795990 -0.000002 -37.464996 0.000000 1.000000 -0.000000
-53.815002 -0.000002 -37.457001 0.000000 1.000000 -0.000000
-53.834015 -0.000002 -37.447998 -0.000000 1.000000 -0.000000
-53.851990 -0.000002 -37.438995 -0.000000 1.000000 -0.000000
-53.869995 -0.000002 -37.428986 -0.000000 1.000000 -0.000000
-53.889008 -0.000002 -37.419006 -0.000000 1.000000 -0.000000
-53.907013 -0.000002 -37.407990 -0.000000 1.000000 -0.000000
-42.963989 -0.000001 -30.929993 0.000000 1.000000 -0.000000
-53.925995 -0.000002 -37.398010 0.000000 1.000000 -0.000000
-55.096008 -0.000002 -35.347015 0.000000 1.000000 -0.000000
-42.902985 -0.000001 -30.859009 -0.000000 1.000000 -0.000000
-54.134003 -0.000002 -34.333008 0.000000 1.000000 -0.000000
-53.792999 -0.000001 -34.113007 0.000000 1.000000 -0.000000
-53.824005 -0.000001 -34.066986 0.000000 1.000000 -0.000000
-53.571014 -0.000001 -33.867004 0.000000 1.000000 -0.000000
-42.838013 -0.000001 -30.789001 -0.000000 1.000000 -0.000000
-53.062988 -0.000001 -33.584015 0.000000 1.000000 -0.000000
-52.363007 -0.000001 -33.410004 0.000000 1.000000 -0.000000
-52.178986 -0.000001 -33.748993 0.000000 1.000000 -0.000000
-52.069000 -0.000001 -33.687988 0.000000 1.000000 -0.000000
-51.657013 -0.000001 -33.760986 0.000000 1.000000 -0.000000
-42.770996 -0.000001 -30.722015 0.000000 1.000000 -0.000000
-42.700989 -0.000001 -30.657990 -0.000000 1.000000 -0.000000
-51.181000 -0.000001 -34.286011 0.000000 1.000000 -0.000000
-42.628998 -0.000001 -30.597015 0.000000 1.000000 -0.000000
-50.597015 -0.000002 -34.416992 0.000000 1.000000 -0.000000
-49.822998 -0.000001 -34.303986 0.000000 1.000000 -0.000000
-44.466003 -0.000001 -30.442993 0.000000 1.000000 -0.000000
-40.902008 -0.000001 -28.686005 0.000000 1.000000 -0.000000
-42.553986 -0.000001 -30.537994 0.000000 1.000000 -0.000000
-39.098999 -0.000001 -29.027985 -0.000000 1.000000 -0.000000
-38.643005 -0.000001 -29.502991 -0.000000 1.000000 -0.000000
-38.527008 -0.000001 -29.649994 -0.000000 1.000000 -0.000000
-37.843994 -0.000001 -30.914001 -0.000000 1.000000 -0.000000
-36.906006 -0.000001 -32.277008 0.000000 1.000000 -0.000000
-36.830994 -0.000002 -34.480988 0.000000 1.000000 -0.000000
-37.882996 -0.000002 -35.024994 -0.000000 1.000000 -0.000000
-38.009003 -0.000002 -34.972992 -0.000000 1.000000 -0.000000
-38.130005 -0.000001 -33.265991 0.000000 1.000000 -0.000000
-42.477997 -0.000001 -30.481995 -0.000000 1.000000 -0.000000
-42.398010 -0.000001 -30.431000 0.000000 1.000000 -0.000000
-39.266998 -0.000001 -31.027008 0.000000 1.000000 -0.000000
-42.316010 -0.000001 -30.381989 0.000000 1.000000 -0.000000
-39.322998 -0.000001 -30.950012 -0.000000 1.000000 -0.000000
-39.382996 -0.000001 -30.877991 0.000000 1.000000 -0.000000
-42.234009 -0.000001 -30.335999 -0.000000 1.000000 -0.000000
-42.148010 -0.000001 -30.295013 0.000000 1.000000 -0.000000
-39.446991 -0.000001 -30.807007 -0.000000 1.000000 -0.000000
-39.513000 -0.000001 -30.739990 -0.000000 1.000000 -0.000000
-42.062012 -0.000001 -30.256012 -0.000000 1.000000 -0.000000
-41.973999 -0.000001 -30.220001 -0.000000 1.000000 -0.000000
-39.582001 -0.000001 -30.674011 0.000000 1.000000 -0.000000
-39.653992 -0.000001 -30.612000 0.000000 1.000000 -0.000000
-41.885010 -0.000001 -30.188995 0.000000 1.000000 -0.000000
-41.794006 -0.000001 -30.161011 -0.000000 1.000000 -0.000000
-39.727997 -0.000001 -30.553009 -0.000000 1.000000 -0.000000
-39.803986 -0.000001 -30.497009 -0.000000 1.000000 -0.000000
-41.701996 -0.000001 -30.136993 0.000000 1.000000 -0.000000
-41.610016 -0.000001 -30.115997 -0.000000 1.000000 -0.000000
-39.882996 -0.000001 -30.445007 -0.000000 1.000000 -0.000000
-39.963989 -0.000001 -30.394012 0.000000 1.000000 -0.000000
-41.516998 -0.000001 -30.100006 -0.000000 1.000000 -0.000000
-41.423004 -0.000001 -30.087006 0.000000 1.000000 -0.000000
-40.046997 -0.000001 -30.347992 0.000000 1.000000 -0.000000
-40.131012 -0.000001 -30.304993 -0.000000 1.000000 -0.000000
-41.328003 -0.000001 -30.078003 -0.000000 1.000000 -0.000000
-41.234009 -0.000001 -30.071991 0.000000 1.000000 -0.000000
-40.217010 -0.000001 -30.264984 0.000000 1.000000 -0.000000
-40.304993 -0.000001 -30.229004 -0.000000 1.000000 -0.000000
-41.139008 -0.000001 -30.071991 0.000000 1.000000 -0.000000
-41.044006 -0.000001 -30.074005 -0.000000 1.000000 -0.000000
-40.394012 -0.000001 -30.196991 0.000000 1.000000 -0.000000
-40.484009 -0.000001 -30.167999 0.000000 1.000000 -0.000000
-40.950012 -0.000001 -30.079987 0.000000 1.000000 -0.000000
-40.855011 -0.000001 -30.089996 0.000000 1.000000 -0.000000
-40.575989 -0.000001 -30.143005 0.000000 1.000000 -0.000000
-40.667999 -0.000001 -30.122009 0.000000 1.000000 -0.000000
-40.761993 -0.000001 -30.104004 0.000000 1.000000 -0.000000
3 0 1 2
3 3 4 5
3 2 6 0
3 7 8 9
3 10 11 12
3 7 9 10
3 13 7 10
3 10 12 14
3 15 16 17
3 10 14 15
3 18 13 10
3 19 18 10
3 10 15 17
3 17 20 21
3 21 22 23
3 21 23 24
3 10 17 21
3 25 19 10
3 21 24 26
3 26 25 10
3 10 21 26
3 27 28 29
3 29 30 31
3 29 31 32
3 33 27 29
3 34 35 33
3 36 37 34
3 38 39 36
3 40 41 38
3 42 43 40
3 44 45 46
3 42 40 38
3 47 44 46
3 42 38 36
3 48 47 46
3 46 42 36
3 36 34 33
3 33 29 32
3 49 50 51
3 33 32 52
3 46 36 33
3 53 48 46
3 54 53 46
3 46 33 52
3 55 56 57
3 46 52 55
3 58 54 46
3 59 60 61
3 61 58 46
3 46 55 57
3 57 62 63
3 63 59 61
3 61 46 57
3 57 63 61
3 64 65 66
3 66 67 68
3 68 69 70
3 70 71 72
3 73 74 75
3 70 72 73
3 66 68 70
3 76 64 66
3 77 78 76
3 79 80 77
3 81 82 79
3 83 81 79
3 79 77 76
3 76 66 70
3 73 75 84
3 76 70 73
3 85 86 87
3 76 73 84
3 88 89 90
3 91 92 93
3 94 95 91
3 96 97 94
3 98 99 100
3 96 94 91
3 98 100 96
3 101 102 98
3 103 104 101
3 105 106 107
3 107 103 101
3 101 98 96
3 96 91 93
3 96 93 108
3 107 101 96
3 109 105 107
3 110 111 109
3 112 113 110
3 114 112 110
3 110 109 107
3 107 96 108
3 107 108 115
3 114 110 107
3 116 117 118
3 114 107 115
3 119 116 118
3 118 114 115
3 118 115 85
3 120 119 118
3 121 122 120
3 123 124 121
3 125 126 123
3 127 128 125
3 129 130 127
3 131 132 133
3 134 135 136
3 136 129 127
3 127 125 123
3 123 121 120
3 120 118 85
3 120 85 87
3 127 123 120
3 134 136 127
3 134 127 120
3 120 87 137
3 120 137 138
3 134 120 138
3 134 138 83
3 139 134 83
3 84 88 90
3 140 141 142
3 84 90 140
3 139 83 79
3 143 144 145
3 145 139 79
3 84 140 142
3 142 146 147
3 142 147 148
3 143 145 79
3 149 150 143
3 151 152 153
3 153 149 143
3 84 142 148
3 84 148 154
3 151 153 143
3 155 156 151
3 157 158 155
3 159 160 157
3 161 159 157
3 157 155 151
3 84 154 162
3 76 84 162
3 157 151 143
3 161 157 143
3 76 162 163
3 164 165 166
3 76 163 164
3 167 161 143
3 168 167 143
3 76 164 166
3 76 166 169
3 168 143 79
3 170 168 79
3 76 169 171
3 76 171 172
3 173 170 79
3 174 173 79
3 76 172 175
3 76 175 176
3 177 174 79
3 178 177 79
3 79 76 176
3 79 176 179
3 180 178 79
3 179 180 79
3 181 182 183
3 183 184 185
3 185 186 187
3 187 188 189
3 190 191 192
3 187 189 190
3 183 185 187
3 193 194 181
3 181 183 187
3 187 190 192
3 195 196 197
3 187 192 198
3 193 181 187
3 199 200 193
3 201 202 199
3 203 204 201
3 205 206 203
3 207 208 205
3 209 210 207
3 211 212 213
3 213 209 207
3 207 205 203
3 203 201 199
3 199 193 187
3 187 198 214
3 215 216 217
3 187 214 215
3 203 199 187
3 213 207 203
3 218 211 213
3 219 220 218
3 221 219 218
3 213 203 187
3 222 221 218
3 218 213 187
3 187 215 217
3 217 223 224
3 225 226 227
3 217 224 225
3 218 187 217
3 228 222 218
3 229 228 218
3 218 217 225
3 225 227 230
3 230 231 232
3 232 233 234
3 234 235 236
3 236 237 238
3 239 240 241
3 236 238 239
3 232 234 236
3 225 230 232
3 242 229 218
3 218 225 232
3 232 236 239
3 241 243 244
3 232 239 241
3 245 242 218
3 218 232 241
3 241 244 246
3 247 248 249
3 241 246 247
3 250 245 218
3 241 247 249
3 249 251 252
3 253 254 255
3 249 252 253
3 256 250 218
3 257 256 218
3 241 249 253
3 253 255 258
3 241 253 258
3 259 257 218
3 241 258 260
3 261 262 263
3 241 260 261
3 264 259 218
3 218 241 261
3 263 265 266
3 266 267 268
3 268 269 270
3 270 271 272
3 270 272 273
3 266 268 270
3 218 261 263
3 274 264 218
3 275 274 218
3 263 266 270
3 270 273 276
3 263 270 276
3 275 218 263
3 277 275 263
3 263 276 278
3 263 278 279
3 280 277 263
3 281 280 263
3 263 279 282
3 263 282 283
3 284 281 263
3 285 284 263
3 263 283 286
3 263 286 287
3 288 285 263
3 289 288 263
3 263 287 290
3 263 290 291
3 292 289 263
3 293 292 263
3 263 291 294
3 263 294 295
3 296 293 263
3 297 296 263
3 263 295 298
3 263 298 299
3 300 297 263
3 301 300 263
3 263 299 302
3 263 302 303
3 304 301 263
3 305 304 263
3 263 303 306
3 263 306 307
3 308 305 263
3 309 308 263
3 263 307 310
3 263 310 311
3 312 309 263
3 263 311 312
