ply
format ascii 1.0
comment Created by Blender 2.78 (sub 0) - www.blender.org, source file: 'soult.blend'
element vertex 96
property float x
property float y
property float z
property float nx
property float ny
property float nz
property float s
property float t
element face 24
property list uchar uint vertex_indices
end_header
-26.555998 0.246594 -12.461922 0.000000 -0.000000 1.000000 0.235298 0.043473
-26.685991 0.246594 -12.461922 0.000000 -0.000000 1.000000 0.213621 0.043473
-26.685991 0.000327 -12.461922 0.000000 -0.000000 1.000000 0.213621 0.002407
-26.555998 0.000327 -12.461922 0.000000 -0.000000 1.000000 0.235298 0.002407
-26.620995 0.000327 -12.526918 -1.000000 -0.000000 0.000000 0.213621 0.002407
-26.620995 0.000327 -12.396925 -1.000000 -0.000000 0.000000 0.235298 0.002407
-26.620995 0.246594 -12.396925 -1.000000 -0.000000 0.000000 0.235298 0.043473
-26.620995 0.246594 -12.526918 -1.000000 -0.000000 0.000000 0.213621 0.043473
-26.572203 0.000327 -12.661780 0.000000 0.000000 1.000000 0.213621 0.002407
-26.442209 0.000327 -12.661780 0.000000 0.000000 1.000000 0.235298 0.002407
-26.442209 0.246594 -12.661780 0.000000 0.000000 1.000000 0.235298 0.043473
-26.572203 0.246594 -12.661780 0.000000 0.000000 1.000000 0.213621 0.043473
-26.507206 0.000327 -12.726777 -1.000000 -0.000000 0.000000 0.213621 0.002407
-26.507206 0.000327 -12.596784 -1.000000 -0.000000 0.000000 0.235298 0.002407
-26.507206 0.246594 -12.596784 -1.000000 -0.000000 0.000000 0.235298 0.043473
-26.507206 0.246594 -12.726777 -1.000000 -0.000000 0.000000 0.213621 0.043473
-27.036108 0.000327 -12.660321 0.000000 0.000000 1.000000 0.213621 0.002407
-26.906115 0.000327 -12.660321 0.000000 0.000000 1.000000 0.235298 0.002407
-26.906115 0.246594 -12.660321 0.000000 0.000000 1.000000 0.235298 0.043473
-27.036108 0.246594 -12.660321 0.000000 0.000000 1.000000 0.213621 0.043473
-26.971111 0.000327 -12.725318 -1.000000 -0.000000 0.000000 0.213621 0.002407
-26.971111 0.000327 -12.595325 -1.000000 -0.000000 0.000000 0.235298 0.002407
-26.971111 0.246594 -12.595325 -1.000000 -0.000000 0.000000 0.235298 0.043473
-26.971111 0.246594 -12.725318 -1.000000 -0.000000 0.000000 0.213621 0.043473
-26.923779 0.000327 -12.860180 0.000000 0.000000 1.000000 0.213621 0.002407
-26.793785 0.000327 -12.860180 0.000000 0.000000 1.000000 0.235298 0.002407
-26.793785 0.246594 -12.860180 0.000000 0.000000 1.000000 0.235298 0.043473
-26.923779 0.246594 -12.860180 0.000000 0.000000 1.000000 0.213621 0.043473
-26.858782 0.000327 -12.925177 -1.000000 -0.000000 0.000000 0.213621 0.002407
-26.858782 0.000327 -12.795183 -1.000000 -0.000000 0.000000 0.235298 0.002407
-26.858782 0.246594 -12.795183 -1.000000 -0.000000 0.000000 0.235298 0.043473
-26.858782 0.246594 -12.925177 -1.000000 -0.000000 0.000000 0.213621 0.043473
-27.152813 0.000327 -12.456086 0.000000 0.000000 1.000000 0.213621 0.002407
-27.022820 0.000327 -12.456086 0.000000 0.000000 1.000000 0.235298 0.002407
-27.022820 0.246594 -12.456086 0.000000 0.000000 1.000000 0.235298 0.043473
-27.152813 0.246594 -12.456086 0.000000 0.000000 1.000000 0.213621 0.043473
-27.087816 0.000327 -12.521083 -1.000000 -0.000000 0.000000 0.213621 0.002407
-27.087816 0.000327 -12.391089 -1.000000 -0.000000 0.000000 0.235298 0.002407
-27.087816 0.246594 -12.391089 -1.000000 -0.000000 0.000000 0.235298 0.043473
-27.087816 0.246594 -12.521083 -1.000000 -0.000000 0.000000 0.213621 0.043473
-26.799778 0.000327 -12.259145 0.000000 0.000000 1.000000 0.213621 0.002407
-26.669785 0.000327 -12.259145 0.000000 0.000000 1.000000 0.235298 0.002407
-26.669785 0.246594 -12.259145 0.000000 0.000000 1.000000 0.235298 0.043473
-26.799778 0.246594 -12.259145 0.000000 0.000000 1.000000 0.213621 0.043473
-26.734781 0.000327 -12.324142 -1.000000 -0.000000 0.000000 0.213621 0.002407
-26.734781 0.000327 -12.194148 -1.000000 -0.000000 0.000000 0.235298 0.002407
-26.734781 0.246594 -12.194148 -1.000000 -0.000000 0.000000 0.235298 0.043473
-26.734781 0.246594 -12.324142 -1.000000 -0.000000 0.000000 0.213621 0.043473
-26.555998 0.000327 -12.461922 0.000000 -0.000000 -1.000000 0.213621 0.002407
-26.685991 0.000327 -12.461922 0.000000 -0.000000 -1.000000 0.235298 0.002407
-26.685991 0.246594 -12.461922 0.000000 -0.000000 -1.000000 0.235298 0.043473
-26.555998 0.246594 -12.461922 0.000000 -0.000000 -1.000000 0.213621 0.043473
-26.620995 0.000327 -12.396925 1.000000 0.000000 0.000000 0.213621 0.002407
-26.620995 0.000327 -12.526918 1.000000 0.000000 0.000000 0.235298 0.002407
-26.620995 0.246594 -12.526918 1.000000 0.000000 0.000000 0.235298 0.043473
-26.620995 0.246594 -12.396925 1.000000 0.000000 0.000000 0.213621 0.043473
-26.442209 0.000327 -12.661780 0.000000 -0.000000 -1.000000 0.213621 0.002407
-26.572203 0.000327 -12.661780 0.000000 -0.000000 -1.000000 0.235298 0.002407
-26.572203 0.246594 -12.661780 0.000000 -0.000000 -1.000000 0.235298 0.043473
-26.442209 0.246594 -12.661780 0.000000 -0.000000 -1.000000 0.213621 0.043473
-26.507206 0.000327 -12.596784 1.000000 0.000000 0.000000 0.213621 0.002407
-26.507206 0.000327 -12.726777 1.000000 0.000000 0.000000 0.235298 0.002407
-26.507206 0.246594 -12.726777 1.000000 0.000000 0.000000 0.235298 0.043473
-26.507206 0.246594 -12.596784 1.000000 0.000000 0.000000 0.213621 0.043473
-26.906115 0.000327 -12.660321 0.000000 -0.000000 -1.000000 0.213621 0.002407
-27.036108 0.000327 -12.660321 0.000000 -0.000000 -1.000000 0.235298 0.002407
-27.036108 0.246594 -12.660321 0.000000 -0.000000 -1.000000 0.235298 0.043473
-26.906115 0.246594 -12.660321 0.000000 -0.000000 -1.000000 0.213621 0.043473
-26.971111 0.000327 -12.595325 1.000000 0.000000 0.000000 0.213621 0.002407
-26.971111 0.000327 -12.725318 1.000000 0.000000 0.000000 0.235298 0.002407
-26.971111 0.246594 -12.725318 1.000000 0.000000 0.000000 0.235298 0.043473
-26.971111 0.246594 -12.595325 1.000000 0.000000 0.000000 0.213621 0.043473
-26.793787 0.000327 -12.860182 0.000000 -0.000000 -1.000000 0.213621 0.002407
-26.923780 0.000327 -12.860182 0.000000 -0.000000 -1.000000 0.235298 0.002407
-26.923780 0.246594 -12.860182 0.000000 -0.000000 -1.000000 0.235298 0.043473
-26.793787 0.246594 -12.860182 0.000000 -0.000000 -1.000000 0.213621 0.043473
-26.858784 0.000327 -12.795185 1.000000 0.000000 0.000000 0.213621 0.002407
-26.858784 0.000327 -12.925179 1.000000 0.000000 0.000000 0.235298 0.002407
-26.858784 0.246594 -12.925179 1.000000 0.000000 0.000000 0.235298 0.043473
-26.858784 0.246594 -12.795185 1.000000 0.000000 0.000000 0.213621 0.043473
-27.022821 0.000327 -12.456088 0.000000 -0.000000 -1.000000 0.213621 0.002407
-27.152815 0.000327 -12.456088 0.000000 -0.000000 -1.000000 0.235298 0.002407
-27.152815 0.246594 -12.456088 0.000000 -0.000000 -1.000000 0.235298 0.043473
-27.022821 0.246594 -12.456088 0.000000 -0.000000 -1.000000 0.213621 0.043473
-27.087818 0.000327 -12.391091 1.000000 0.000000 0.000000 0.213621 0.002407
-27.087818 0.000327 -12.521085 1.000000 0.000000 0.000000 0.235298 0.002407
-27.087818 0.246594 -12.521085 1.000000 0.000000 0.000000 0.235298 0.043473
-27.087818 0.246594 -12.391091 1.000000 0.000000 0.000000 0.213621 0.043473
-26.669783 0.000327 -12.259143 0.000000 -0.000000 -1.000000 0.213621 0.002407
-26.799776 0.000327 -12.259143 0.000000 -0.000000 -1.000000 0.235298 0.002407
-26.799776 0.246594 -12.259143 0.000000 -0.000000 -1.000000 0.235298 0.043473
-26.669783 0.246594 -12.259143 0.000000 -0.000000 -1.000000 0.213621 0.043473
-26.734779 0.000327 -12.194146 1.000000 0.000000 0.000000 0.213621 0.002407
-26.734779 0.000327 -12.324140 1.000000 0.000000 0.000000 0.235298 0.002407
-26.734779 0.246594 -12.324140 1.000000 0.000000 0.000000 0.235298 0.043473
-26.734779 0.246594 -12.194146 1.000000 0.000000 0.000000 0.213621 0.043473
4 0 1 2 3
4 4 5 6 7
4 8 9 10 11
4 12 13 14 15
4 16 17 18 19
4 20 21 22 23
4 24 25 26 27
4 28 29 30 31
4 32 33 34 35
4 36 37 38 39
4 40 41 42 43
4 44 45 46 47
4 48 49 50 51
4 52 53 54 55
4 56 57 58 59
4 60 61 62 63
4 64 65 66 67
4 68 69 70 71
4 72 73 74 75
4 76 77 78 79
4 80 81 82 83
4 84 85 86 87
4 88 89 90 91
4 92 93 94 95
