ply
format ascii 1.0
comment Created by Blender 2.78 (sub 0) - www.blender.org, source file: 'soult.blend'
element vertex 192
property float x
property float y
property float z
property float nx
property float ny
property float nz
property float s
property float t
element face 48
property list uchar uint vertex_indices
end_header
-26.564486 0.272058 -12.462749 0.000000 -0.000000 1.000000 0.999822 0.780030
-26.694479 0.272058 -12.462749 0.000000 -0.000000 1.000000 0.926636 0.780030
-26.694479 0.000361 -12.462749 0.000000 -0.000000 1.000000 0.926636 0.614483
-26.564486 0.000361 -12.462749 0.000000 -0.000000 1.000000 0.999822 0.614483
-26.629482 0.000361 -12.527746 -1.000000 -0.000000 0.000000 0.926636 0.614483
-26.629482 0.000361 -12.397753 -1.000000 -0.000000 0.000000 0.999822 0.614483
-26.629482 0.272058 -12.397753 -1.000000 -0.000000 0.000000 0.999822 0.780030
-26.629482 0.272058 -12.527746 -1.000000 -0.000000 0.000000 0.926636 0.780030
-26.637613 0.000361 -12.553935 0.000000 0.000000 1.000000 0.926636 0.614483
-26.507620 0.000361 -12.553935 0.000000 0.000000 1.000000 0.999822 0.614483
-26.507620 0.272058 -12.553935 0.000000 0.000000 1.000000 0.999822 0.780030
-26.637613 0.272058 -12.553935 0.000000 0.000000 1.000000 0.926636 0.780030
-26.572617 0.000361 -12.618932 -1.000000 -0.000000 0.000000 0.926636 0.614483
-26.572617 0.000361 -12.488938 -1.000000 -0.000000 0.000000 0.999822 0.614483
-26.572617 0.272058 -12.488938 -1.000000 -0.000000 0.000000 0.999822 0.780030
-26.572617 0.272058 -12.618932 -1.000000 -0.000000 0.000000 0.926636 0.780030
-26.657892 0.000361 -12.662479 -0.999757 0.000000 0.022053 0.926636 0.614483
-26.655025 0.000361 -12.532517 -0.999757 0.000000 0.022053 0.999822 0.614483
-26.655025 0.272058 -12.532517 -0.999757 0.000000 0.022053 0.999822 0.780030
-26.657892 0.272058 -12.662479 -0.999757 0.000000 0.022053 0.926636 0.780030
-26.591478 0.000361 -12.598932 -0.022060 0.000000 -0.999757 0.926636 0.614483
-26.721439 0.000361 -12.596065 -0.022060 0.000000 -0.999757 0.999822 0.614483
-26.721439 0.272058 -12.596065 -0.022060 0.000000 -0.999757 0.999822 0.780030
-26.591478 0.272058 -12.598932 -0.022060 0.000000 -0.999757 0.926636 0.780030
-27.029165 0.000361 -12.514647 0.022053 0.000000 0.999757 0.926636 0.614483
-26.899204 0.000361 -12.517513 0.022053 0.000000 0.999757 0.999822 0.614483
-26.899204 0.272058 -12.517513 0.022053 0.000000 0.999757 0.999822 0.780030
-27.029165 0.272058 -12.514647 0.022053 0.000000 0.999757 0.926636 0.780030
-26.962751 0.000361 -12.451099 0.999757 0.000000 -0.022053 0.926636 0.614483
-26.965618 0.000361 -12.581061 0.999757 0.000000 -0.022053 0.999822 0.614483
-26.965618 0.272058 -12.581061 0.999757 0.000000 -0.022053 0.999822 0.780030
-26.962751 0.272058 -12.451099 0.999757 0.000000 -0.022053 0.926636 0.780030
-26.847954 0.000361 -12.642015 0.999757 0.000000 -0.022053 0.926636 0.614483
-26.850821 0.000361 -12.771976 0.999757 0.000000 -0.022053 0.999822 0.614483
-26.850821 0.272058 -12.771976 0.999757 0.000000 -0.022053 0.999822 0.780030
-26.847954 0.272058 -12.642015 0.999757 0.000000 -0.022053 0.926636 0.780030
-26.914368 0.000361 -12.705562 0.022053 0.000000 0.999757 0.926636 0.614483
-26.784407 0.000361 -12.708428 0.022053 0.000000 0.999757 0.999822 0.614483
-26.784407 0.272058 -12.708428 0.022053 0.000000 0.999757 0.999822 0.780030
-26.914368 0.272058 -12.705562 0.022053 0.000000 0.999757 0.926636 0.780030
-26.751341 0.000361 -12.363471 0.000000 0.000000 1.000000 0.926636 0.614483
-26.621347 0.000361 -12.363471 0.000000 0.000000 1.000000 0.999822 0.614483
-26.621347 0.272058 -12.363471 0.000000 0.000000 1.000000 0.999822 0.780030
-26.751341 0.272058 -12.363471 0.000000 0.000000 1.000000 0.926636 0.780030
-26.686344 0.000361 -12.428468 -1.000000 -0.000000 0.000000 0.926636 0.614483
-26.686344 0.000361 -12.298474 -1.000000 -0.000000 0.000000 0.999822 0.614483
-26.686344 0.272058 -12.298474 -1.000000 -0.000000 0.000000 0.999822 0.780030
-26.686344 0.272058 -12.428468 -1.000000 -0.000000 0.000000 0.926636 0.780030
-26.564486 0.000361 -12.462749 0.000000 -0.000000 -1.000000 0.926636 0.614483
-26.694479 0.000361 -12.462749 0.000000 -0.000000 -1.000000 0.999822 0.614483
-26.694479 0.272058 -12.462749 0.000000 -0.000000 -1.000000 0.999822 0.780030
-26.564486 0.272058 -12.462749 0.000000 -0.000000 -1.000000 0.926636 0.780030
-26.629482 0.000361 -12.397753 1.000000 0.000000 0.000000 0.926636 0.614483
-26.629482 0.000361 -12.527746 1.000000 0.000000 0.000000 0.999822 0.614483
-26.629482 0.272058 -12.527746 1.000000 0.000000 0.000000 0.999822 0.780030
-26.629482 0.272058 -12.397753 1.000000 0.000000 0.000000 0.926636 0.780030
-26.507620 0.000361 -12.553935 0.000000 -0.000000 -1.000000 0.926636 0.614483
-26.637613 0.000361 -12.553935 0.000000 -0.000000 -1.000000 0.999822 0.614483
-26.637613 0.272058 -12.553935 0.000000 -0.000000 -1.000000 0.999822 0.780030
-26.507620 0.272058 -12.553935 0.000000 -0.000000 -1.000000 0.926636 0.780030
-26.572617 0.000361 -12.488938 1.000000 0.000000 0.000000 0.926636 0.614483
-26.572617 0.000361 -12.618932 1.000000 0.000000 0.000000 0.999822 0.614483
-26.572617 0.272058 -12.618932 1.000000 0.000000 0.000000 0.999822 0.780030
-26.572617 0.272058 -12.488938 1.000000 0.000000 0.000000 0.926636 0.780030
-26.706276 0.000361 -12.408017 -0.022060 0.000000 -0.999757 0.926636 0.614483
-26.836237 0.000361 -12.405149 -0.022060 0.000000 -0.999757 0.999822 0.614483
-26.836237 0.272058 -12.405149 -0.022060 0.000000 -0.999757 0.999822 0.780030
-26.706276 0.272058 -12.408017 -0.022060 0.000000 -0.999757 0.926636 0.780030
-26.772690 0.000361 -12.471564 -0.999757 0.000000 0.022053 0.926636 0.614483
-26.769823 0.000361 -12.341602 -0.999757 0.000000 0.022053 0.999822 0.614483
-26.769823 0.272058 -12.341602 -0.999757 0.000000 0.022053 0.999822 0.780030
-26.772690 0.272058 -12.471564 -0.999757 0.000000 0.022053 0.926636 0.780030
-26.936747 0.000361 -12.459805 0.022060 0.000000 0.999757 0.926636 0.614483
-26.806786 0.000361 -12.462673 0.022060 0.000000 0.999757 0.999822 0.614483
-26.806787 0.272058 -12.462673 0.022060 0.000000 0.999757 0.999822 0.780030
-26.936749 0.272058 -12.459805 0.022060 0.000000 0.999757 0.926636 0.780030
-26.870333 0.000361 -12.396258 0.999757 0.000007 -0.022053 0.926636 0.614483
-26.873199 0.000361 -12.526220 0.999757 0.000007 -0.022053 0.999822 0.614483
-26.873201 0.272058 -12.526220 0.999757 0.000007 -0.022053 0.999822 0.780030
-26.870335 0.272058 -12.396258 0.999757 0.000007 -0.022053 0.926636 0.780030
-26.899204 0.000361 -12.517513 -0.022053 0.000000 -0.999757 0.926636 0.614483
-27.029165 0.000361 -12.514647 -0.022053 0.000000 -0.999757 0.999822 0.614483
-27.029165 0.272058 -12.514647 -0.022053 0.000000 -0.999757 0.999822 0.780030
-26.899204 0.272058 -12.517513 -0.022053 0.000000 -0.999757 0.926636 0.780030
-26.965618 0.000361 -12.581061 -0.999757 0.000000 0.022053 0.926636 0.614483
-26.962751 0.000361 -12.451099 -0.999757 0.000000 0.022053 0.999822 0.614483
-26.962751 0.272058 -12.451099 -0.999757 0.000000 0.022053 0.999822 0.780030
-26.965618 0.272058 -12.581061 -0.999757 0.000000 0.022053 0.926636 0.780030
-26.621346 0.000361 -12.363469 0.000000 -0.000000 -1.000000 0.926636 0.614483
-26.751339 0.000361 -12.363469 0.000000 -0.000000 -1.000000 0.999822 0.614483
-26.751339 0.272058 -12.363469 0.000000 -0.000000 -1.000000 0.999822 0.780030
-26.621346 0.272058 -12.363469 0.000000 -0.000000 -1.000000 0.926636 0.780030
-26.686342 0.000361 -12.298472 1.000000 0.000000 0.000000 0.926636 0.614483
-26.686342 0.000361 -12.428466 1.000000 0.000000 0.000000 0.999822 0.614483
-26.686342 0.272058 -12.428466 1.000000 0.000000 0.000000 0.999822 0.780030
-26.686342 0.272058 -12.298472 1.000000 0.000000 0.000000 0.926636 0.780030
-26.806786 0.000361 -12.462673 -0.022060 -0.000000 -0.999757 0.926636 0.614483
-26.936747 0.000361 -12.459805 -0.022060 -0.000000 -0.999757 0.999822 0.614483
-26.936749 0.272058 -12.459805 -0.022060 -0.000000 -0.999757 0.999822 0.780030
-26.806787 0.272058 -12.462673 -0.022060 -0.000000 -0.999757 0.926636 0.780030
-26.873199 0.000361 -12.526220 -0.999757 -0.000007 0.022053 0.926636 0.614483
-26.870333 0.000361 -12.396258 -0.999757 -0.000007 0.022053 0.999822 0.614483
-26.870335 0.272058 -12.396258 -0.999757 -0.000007 0.022053 0.999822 0.780030
-26.873201 0.272058 -12.526220 -0.999757 -0.000007 0.022053 0.926636 0.780030
-26.836239 0.000361 -12.405148 0.022060 0.000000 0.999757 0.926636 0.614483
-26.706278 0.000361 -12.408015 0.022060 0.000000 0.999757 0.999822 0.614483
-26.706278 0.272058 -12.408015 0.022060 0.000000 0.999757 0.999822 0.780030
-26.836239 0.272058 -12.405148 0.022060 0.000000 0.999757 0.926636 0.780030
-26.769825 0.000361 -12.341600 0.999757 0.000000 -0.022053 0.926636 0.614483
-26.772692 0.000361 -12.471562 0.999757 0.000000 -0.022053 0.999822 0.614483
-26.772692 0.272058 -12.471562 0.999757 0.000000 -0.022053 0.999822 0.780030
-26.769825 0.272058 -12.341600 0.999757 0.000000 -0.022053 0.926636 0.780030
-27.061897 0.000361 -12.669746 0.000000 0.000000 1.000000 0.926636 0.614483
-26.931904 0.000361 -12.669746 0.000000 0.000000 1.000000 0.999822 0.614483
-26.931904 0.272058 -12.669746 0.000000 0.000000 1.000000 0.999822 0.780030
-27.061897 0.272058 -12.669746 0.000000 0.000000 1.000000 0.926636 0.780030
-26.996901 0.000361 -12.734743 -1.000000 -0.000000 0.000000 0.926636 0.614483
-26.996901 0.000361 -12.604750 -1.000000 -0.000000 0.000000 0.999822 0.614483
-26.996901 0.272058 -12.604750 -1.000000 -0.000000 0.000000 0.999822 0.780030
-26.996901 0.272058 -12.734743 -1.000000 -0.000000 0.000000 0.926636 0.780030
-27.005032 0.000361 -12.760932 0.000000 0.000000 1.000000 0.926636 0.614483
-26.875038 0.000361 -12.760932 0.000000 0.000000 1.000000 0.999822 0.614483
-26.875038 0.272058 -12.760932 0.000000 0.000000 1.000000 0.999822 0.780030
-27.005032 0.272058 -12.760932 0.000000 0.000000 1.000000 0.926636 0.780030
-26.940035 0.000361 -12.825929 -1.000000 -0.000000 0.000000 0.926636 0.614483
-26.940035 0.000361 -12.695935 -1.000000 -0.000000 0.000000 0.999822 0.614483
-26.940035 0.272058 -12.695935 -1.000000 -0.000000 0.000000 0.999822 0.780030
-26.940035 0.272058 -12.825929 -1.000000 -0.000000 0.000000 0.926636 0.780030
-27.118759 0.000361 -12.570468 0.000000 0.000000 1.000000 0.926636 0.614483
-26.988766 0.000361 -12.570468 0.000000 0.000000 1.000000 0.999822 0.614483
-26.988766 0.272058 -12.570468 0.000000 0.000000 1.000000 0.999822 0.780030
-27.118759 0.272058 -12.570468 0.000000 0.000000 1.000000 0.926636 0.780030
-27.053762 0.000361 -12.635465 -1.000000 -0.000000 0.000000 0.926636 0.614483
-27.053762 0.000361 -12.505471 -1.000000 -0.000000 0.000000 0.999822 0.614483
-27.053762 0.272058 -12.505471 -1.000000 -0.000000 0.000000 0.999822 0.780030
-27.053762 0.272058 -12.635465 -1.000000 -0.000000 0.000000 0.926636 0.780030
-26.931904 0.000361 -12.669746 0.000000 -0.000000 -1.000000 0.926636 0.614483
-27.061897 0.000361 -12.669746 0.000000 -0.000000 -1.000000 0.999822 0.614483
-27.061897 0.272058 -12.669746 0.000000 -0.000000 -1.000000 0.999822 0.780030
-26.931904 0.272058 -12.669746 0.000000 -0.000000 -1.000000 0.926636 0.780030
-26.996901 0.000361 -12.604750 1.000000 0.000000 0.000000 0.926636 0.614483
-26.996901 0.000361 -12.734743 1.000000 0.000000 0.000000 0.999822 0.614483
-26.996901 0.272058 -12.734743 1.000000 0.000000 0.000000 0.999822 0.780030
-26.996901 0.272058 -12.604750 1.000000 0.000000 0.000000 0.926636 0.780030
-26.875038 0.000361 -12.760932 0.000000 -0.000000 -1.000000 0.926636 0.614483
-27.005032 0.000361 -12.760932 0.000000 -0.000000 -1.000000 0.999822 0.614483
-27.005032 0.272058 -12.760932 0.000000 -0.000000 -1.000000 0.999822 0.780030
-26.875038 0.272058 -12.760932 0.000000 -0.000000 -1.000000 0.926636 0.780030
-26.940035 0.000361 -12.695935 1.000000 0.000000 0.000000 0.926636 0.614483
-26.940035 0.000361 -12.825929 1.000000 0.000000 0.000000 0.999822 0.614483
-26.940035 0.272058 -12.825929 1.000000 0.000000 0.000000 0.999822 0.780030
-26.940035 0.272058 -12.695935 1.000000 0.000000 0.000000 0.926636 0.780030
-26.988764 0.000361 -12.570466 0.000000 -0.000000 -1.000000 0.926636 0.614483
-27.118757 0.000361 -12.570466 0.000000 -0.000000 -1.000000 0.999822 0.614483
-27.118757 0.272058 -12.570466 0.000000 -0.000000 -1.000000 0.999822 0.780030
-26.988764 0.272058 -12.570466 0.000000 -0.000000 -1.000000 0.926636 0.780030
-27.053761 0.000361 -12.505469 1.000000 0.000000 0.000000 0.926636 0.614483
-27.053761 0.000361 -12.635463 1.000000 0.000000 0.000000 0.999822 0.614483
-27.053761 0.272058 -12.635463 1.000000 0.000000 0.000000 0.999822 0.780030
-27.053761 0.272058 -12.505469 1.000000 0.000000 0.000000 0.926636 0.780030
-26.821949 0.000361 -12.650721 0.022060 0.000000 0.999757 0.926636 0.614483
-26.691988 0.000361 -12.653588 0.022060 0.000000 0.999757 0.999822 0.614483
-26.691990 0.272058 -12.653588 0.022060 0.000000 0.999757 0.999822 0.780030
-26.821951 0.272058 -12.650721 0.022060 0.000000 0.999757 0.926636 0.780030
-26.755535 0.000361 -12.587173 0.999757 0.000007 -0.022053 0.926636 0.614483
-26.758402 0.000361 -12.717135 0.999757 0.000007 -0.022053 0.999822 0.614483
-26.758404 0.272058 -12.717135 0.999757 0.000007 -0.022053 0.999822 0.780030
-26.755537 0.272058 -12.587173 0.999757 0.000007 -0.022053 0.926636 0.780030
-26.784407 0.000361 -12.708428 -0.022053 0.000000 -0.999757 0.926636 0.614483
-26.914368 0.000361 -12.705562 -0.022053 0.000000 -0.999757 0.999822 0.614483
-26.914368 0.272058 -12.705562 -0.022053 0.000000 -0.999757 0.999822 0.780030
-26.784407 0.272058 -12.708428 -0.022053 0.000000 -0.999757 0.926636 0.780030
-26.850821 0.000361 -12.771976 -0.999757 0.000000 0.022053 0.926636 0.614483
-26.847954 0.000361 -12.642015 -0.999757 0.000000 0.022053 0.999822 0.614483
-26.847954 0.272058 -12.642015 -0.999757 0.000000 0.022053 0.999822 0.780030
-26.850821 0.272058 -12.771976 -0.999757 0.000000 0.022053 0.926636 0.780030
-26.691988 0.000361 -12.653588 -0.022060 -0.000000 -0.999757 0.926636 0.614483
-26.821949 0.000361 -12.650721 -0.022060 -0.000000 -0.999757 0.999822 0.614483
-26.821951 0.272058 -12.650721 -0.022060 -0.000000 -0.999757 0.999822 0.780030
-26.691990 0.272058 -12.653588 -0.022060 -0.000000 -0.999757 0.926636 0.780030
-26.758402 0.000361 -12.717135 -0.999757 -0.000007 0.022053 0.926636 0.614483
-26.755535 0.000361 -12.587173 -0.999757 -0.000007 0.022053 0.999822 0.614483
-26.755537 0.272058 -12.587173 -0.999757 -0.000007 0.022053 0.999822 0.780030
-26.758404 0.272058 -12.717135 -0.999757 -0.000007 0.022053 0.926636 0.780030
-26.721441 0.000361 -12.596063 0.022060 0.000000 0.999757 0.926636 0.614483
-26.591480 0.000361 -12.598930 0.022060 0.000000 0.999757 0.999822 0.614483
-26.591480 0.272058 -12.598930 0.022060 0.000000 0.999757 0.999822 0.780030
-26.721441 0.272058 -12.596063 0.022060 0.000000 0.999757 0.926636 0.780030
-26.655027 0.000361 -12.532516 0.999757 0.000000 -0.022053 0.926636 0.614483
-26.657894 0.000361 -12.662477 0.999757 0.000000 -0.022053 0.999822 0.614483
-26.657894 0.272058 -12.662477 0.999757 0.000000 -0.022053 0.999822 0.780030
-26.655027 0.272058 -12.532516 0.999757 0.000000 -0.022053 0.926636 0.780030
4 0 1 2 3
4 4 5 6 7
4 8 9 10 11
4 12 13 14 15
4 16 17 18 19
4 20 21 22 23
4 24 25 26 27
4 28 29 30 31
4 32 33 34 35
4 36 37 38 39
4 40 41 42 43
4 44 45 46 47
4 48 49 50 51
4 52 53 54 55
4 56 57 58 59
4 60 61 62 63
4 64 65 66 67
4 68 69 70 71
4 72 73 74 75
4 76 77 78 79
4 80 81 82 83
4 84 85 86 87
4 88 89 90 91
4 92 93 94 95
4 96 97 98 99
4 100 101 102 103
4 104 105 106 107
4 108 109 110 111
4 112 113 114 115
4 116 117 118 119
4 120 121 122 123
4 124 125 126 127
4 128 129 130 131
4 132 133 134 135
4 136 137 138 139
4 140 141 142 143
4 144 145 146 147
4 148 149 150 151
4 152 153 154 155
4 156 157 158 159
4 160 161 162 163
4 164 165 166 167
4 168 169 170 171
4 172 173 174 175
4 176 177 178 179
4 180 181 182 183
4 184 185 186 187
4 188 189 190 191
