ply
format ascii 1.0
comment Created by Blender 2.78 (sub 0) - www.blender.org, source file: 'soult.blend'
element vertex 128
property float x
property float y
property float z
property float nx
property float ny
property float nz
element face 63
property list uchar uint vertex_indices
end_header
-35.062988 1.103124 -9.435997 -0.872031 0.000000 -0.489451
-31.523010 -0.000001 -15.742996 -0.872031 0.000000 -0.489451
-35.062988 -0.000000 -9.435997 -0.872031 0.000000 -0.489451
-31.523010 1.103124 -15.742996 -0.872031 0.000000 -0.489451
-31.523010 1.103124 -15.742996 0.489281 0.000000 -0.872126
-31.424988 -0.000001 -15.688004 0.489281 0.000000 -0.872126
-31.523010 -0.000001 -15.742996 0.489281 0.000000 -0.872126
-31.424988 1.103124 -15.688004 0.489281 0.000000 -0.872126
-31.424988 1.103124 -15.688004 0.893941 0.000000 0.448184
-31.610992 -0.000001 -15.317001 0.893941 0.000000 0.448184
-31.424988 -0.000001 -15.688004 0.893941 0.000000 0.448184
-31.610992 1.103124 -15.317001 0.893941 -0.000000 0.448184
-31.610992 1.103124 -15.317001 0.480740 0.000000 -0.876863
-31.351990 -0.000001 -15.175003 0.480740 0.000000 -0.876863
-31.610992 -0.000001 -15.317001 0.480740 0.000000 -0.876863
-31.351990 1.103124 -15.175003 0.480740 0.000000 -0.876863
-31.351990 1.103124 -15.175003 0.863659 0.000000 0.504077
-32.251984 -0.000001 -13.633003 0.863659 0.000000 0.504077
-31.351990 -0.000001 -15.175003 0.863659 0.000000 0.504077
-31.351990 1.103124 -15.175003 0.863658 -0.000000 0.504077
-32.251984 1.103124 -13.633003 0.863658 -0.000000 0.504077
-32.251984 -0.000001 -13.633003 0.863658 -0.000000 0.504077
-32.251984 1.103124 -13.633003 0.505296 0.000000 -0.862946
-32.058990 -0.000001 -13.519997 0.505296 0.000000 -0.862946
-32.251984 -0.000001 -13.633003 0.505296 0.000000 -0.862946
-32.058990 1.103124 -13.519997 0.505296 0.000000 -0.862946
-32.058990 1.103124 -13.519997 0.869878 0.000000 0.493268
-34.540985 -0.000000 -9.142998 0.869878 0.000000 0.493268
-32.058990 -0.000001 -13.519997 0.869878 0.000000 0.493268
-34.540985 1.103124 -9.142998 0.869878 -0.000000 0.493268
-34.540985 1.103124 -9.142998 -0.489465 0.000000 0.872023
-35.062988 -0.000000 -9.435997 -0.489465 0.000000 0.872023
-34.540985 -0.000000 -9.142998 -0.489465 0.000000 0.872023
-35.062988 1.103124 -9.435997 -0.489465 0.000000 0.872023
-35.062988 1.103124 -9.435997 0.000000 0.000000 0.000000
-35.062988 1.103124 -9.435997 0.000000 0.000000 0.000000
-35.062988 -0.000000 -9.435997 0.000000 0.000000 0.000000
-31.446014 1.187473 -16.662994 -0.226538 0.000000 -0.974002
-31.187988 -0.000001 -16.723007 -0.226538 0.000000 -0.974002
-31.446014 -0.000001 -16.662994 -0.226538 0.000000 -0.974002
-31.187988 1.187473 -16.723007 -0.226538 0.000000 -0.974002
-31.187988 1.187473 -16.723007 0.490498 0.000000 -0.871442
-30.074005 -0.000001 -16.095993 0.490498 0.000000 -0.871442
-31.187988 -0.000001 -16.723007 0.490498 0.000000 -0.871442
-30.074005 1.187473 -16.095993 0.490498 0.000000 -0.871442
-30.074005 1.187473 -16.095993 0.950086 0.000000 -0.311988
-29.985016 -0.000001 -15.824997 0.950086 0.000000 -0.311988
-30.074005 -0.000001 -16.095993 0.950086 0.000000 -0.311988
-29.985016 1.187473 -15.824997 0.950086 0.000000 -0.311988
-29.985016 1.187473 -15.824997 0.873723 0.000000 0.486423
-31.462006 -0.000001 -13.171997 0.873723 0.000000 0.486423
-29.985016 -0.000001 -15.824997 0.873723 0.000000 0.486423
-31.462006 1.187473 -13.171997 0.873723 -0.000000 0.486423
-31.462006 1.187473 -13.171997 -0.503610 0.000000 0.863931
-32.058990 -0.000001 -13.519997 -0.503610 0.000000 0.863931
-31.462006 -0.000001 -13.171997 -0.503610 0.000000 0.863931
-32.058990 1.187473 -13.519997 -0.503610 0.000000 0.863931
-32.058990 1.187473 -13.519997 -0.505296 0.000000 0.862946
-32.251984 -0.000001 -13.633003 -0.505296 0.000000 0.862946
-32.058990 -0.000001 -13.519997 -0.505296 0.000000 0.862946
-32.251984 1.187473 -13.633003 -0.505296 0.000000 0.862946
-32.251984 1.187473 -13.633003 -0.863658 0.000000 -0.504077
-31.351990 -0.000001 -15.175003 -0.863658 0.000000 -0.504077
-32.251984 -0.000001 -13.633003 -0.863658 0.000000 -0.504077
-31.351990 1.187473 -15.175003 -0.863658 0.000000 -0.504077
-31.351990 1.187473 -15.175003 -0.480740 0.000000 0.876863
-31.610992 -0.000001 -15.317001 -0.480740 0.000000 0.876863
-31.351990 -0.000001 -15.175003 -0.480740 0.000000 0.876863
-31.610992 1.187473 -15.317001 -0.480740 0.000000 0.876863
-31.610992 1.187473 -15.317001 -0.893941 0.000000 -0.448184
-31.424988 -0.000001 -15.688004 -0.893941 0.000000 -0.448184
-31.610992 -0.000001 -15.317001 -0.893941 0.000000 -0.448184
-31.424988 1.187473 -15.688004 -0.893941 0.000000 -0.448184
-31.424988 1.187473 -15.688004 -0.489281 0.000000 0.872126
-31.523010 -0.000001 -15.742996 -0.489281 0.000000 0.872126
-31.424988 -0.000001 -15.688004 -0.489281 0.000000 0.872126
-31.523010 1.187473 -15.742996 -0.489281 0.000000 0.872126
-31.523010 1.187473 -15.742996 -0.482551 0.000000 0.875868
-31.856995 -0.000001 -15.927002 -0.482551 0.000000 0.875868
-31.523010 -0.000001 -15.742996 -0.482551 0.000000 0.875868
-31.856995 1.187473 -15.927002 -0.482551 0.000000 0.875868
-31.856995 1.187473 -15.927002 -0.873100 0.000000 -0.487541
-31.446014 -0.000001 -16.662994 -0.873100 0.000000 -0.487541
-31.856995 -0.000001 -15.927002 -0.873100 0.000000 -0.487541
-31.446014 1.187473 -16.662994 -0.873100 0.000000 -0.487541
-31.446014 1.187473 -16.662994 0.000000 0.000000 0.000000
-31.446014 1.187473 -16.662994 0.000000 0.000000 0.000000
-31.446014 -0.000001 -16.662994 0.000000 0.000000 0.000000
-29.985016 1.187473 -15.824997 0.000000 1.000000 0.000000
-30.074005 1.187473 -16.095993 0.000000 1.000000 0.000000
-31.187988 1.187473 -16.723007 0.000000 1.000000 0.000000
-31.462006 1.187473 -13.171997 0.000000 1.000000 -0.000000
-32.251984 1.187473 -13.633003 0.000000 1.000000 0.000000
-32.058990 1.187473 -13.519997 0.000000 1.000000 0.000000
-31.424988 1.187473 -15.688004 0.000000 1.000000 0.000000
-31.610992 1.187473 -15.317001 0.000000 1.000000 0.000000
-31.351990 1.187473 -15.175003 0.000000 1.000000 0.000000
-31.446014 -0.000001 -16.662994 0.000000 0.000000 0.000000
-31.446014 -0.000001 -16.662994 0.873100 0.000000 0.487541
-31.446014 1.187473 -16.662994 0.873100 0.000000 0.487541
-31.856995 1.187473 -15.927002 0.873100 0.000000 0.487541
-31.187988 1.187473 -16.723007 0.226538 -0.000000 0.974002
-31.446014 1.187473 -16.662994 0.226538 -0.000000 0.974002
-31.446014 -0.000001 -16.662994 0.226538 -0.000000 0.974002
-31.446014 -0.000001 -16.662994 0.393489 0.578851 -0.714212
-31.856995 1.187473 -15.927002 0.393489 0.578851 -0.714212
-31.523010 1.187473 -15.742996 0.393489 0.578851 -0.714212
-31.446014 -0.000001 -16.662994 0.399440 0.577514 -0.711987
-31.523010 1.187473 -15.742996 0.399440 0.577514 -0.711987
-31.424988 1.187473 -15.688004 0.399440 0.577514 -0.711987
-31.351990 1.187473 -15.175003 -0.000001 1.000000 -0.000000
-31.462006 1.187473 -13.171997 -0.000001 1.000000 -0.000000
-31.187988 1.187473 -16.723007 -0.000001 1.000000 -0.000000
-31.446014 -0.000001 -16.662994 0.985294 0.097669 -0.140204
-31.424988 1.187473 -15.688004 0.985294 0.097669 -0.140204
-31.351990 1.187473 -15.175003 0.985294 0.097669 -0.140204
-31.187988 1.187473 -16.723007 -0.973059 0.206226 -0.103090
-31.446014 -0.000001 -16.662994 -0.973059 0.206226 -0.103090
-31.351990 1.187473 -15.175003 -0.973059 0.206226 -0.103090
-31.610992 1.103124 -15.317001 0.000000 1.000000 -0.000000
-31.424988 1.103124 -15.688004 0.000000 1.000000 -0.000000
-31.523010 1.103124 -15.742996 0.000000 1.000000 -0.000000
-34.540985 1.103124 -9.142998 0.000000 0.000000 0.000000
-35.062988 1.103124 -9.435997 0.000000 1.000000 0.000000
-32.251984 1.103124 -13.633003 0.000000 1.000000 -0.000000
-31.351990 1.103124 -15.175003 0.000000 1.000000 -0.000000
-34.540985 1.103124 -9.142998 0.000000 1.000000 -0.000000
-32.058990 1.103124 -13.519997 0.000000 1.000000 -0.000000
3 0 1 2
3 0 3 1
3 4 5 6
3 4 7 5
3 8 9 10
3 8 11 9
3 12 13 14
3 12 15 13
3 16 17 18
3 19 20 21
3 22 23 24
3 22 25 23
3 26 27 28
3 26 29 27
3 30 31 32
3 30 33 31
3 34 35 36
3 37 38 39
3 37 40 38
3 41 42 43
3 41 44 42
3 45 46 47
3 45 48 46
3 49 50 51
3 49 52 50
3 53 54 55
3 53 56 54
3 57 58 59
3 57 60 58
3 61 62 63
3 61 64 62
3 65 66 67
3 65 68 66
3 69 70 71
3 69 72 70
3 73 74 75
3 73 76 74
3 77 78 79
3 77 80 78
3 81 82 83
3 81 84 82
3 85 86 87
3 88 89 90
3 86 85 87
3 91 88 90
3 92 93 91
3 94 95 96
3 96 92 91
3 86 87 97
3 98 99 100
3 101 102 103
3 104 105 106
3 107 108 109
3 110 111 112
3 113 114 115
3 116 117 118
3 119 120 121
3 35 34 122
3 119 121 123
3 124 125 119
3 126 127 124
3 119 123 126
3 119 126 124
