ply
format ascii 1.0
comment Created by Blender 2.78 (sub 0) - www.blender.org, source file: 'soult.blend'
element vertex 288
property float x
property float y
property float z
property float nx
property float ny
property float nz
property float s
property float t
element face 72
property list uchar uint vertex_indices
end_header
-30.868994 0.066972 -13.489142 0.548495 0.320482 -0.772298 0.422277 0.781997
-30.946383 0.068053 -13.543656 0.548495 0.320482 -0.772298 0.638266 0.781997
-30.962551 0.159198 -13.517317 0.548495 0.320482 -0.772298 0.638266 0.997986
-30.885160 0.158117 -13.462802 0.548495 0.320482 -0.772298 0.422277 0.997986
-30.868160 0.074787 -13.547148 -0.314203 0.819197 -0.479785 0.422277 0.781997
-30.960850 0.074691 -13.486612 -0.314203 0.819197 -0.479785 0.638266 0.781997
-30.929638 0.130694 -13.411430 -0.314203 0.819197 -0.479785 0.638266 0.997986
-30.836954 0.130791 -13.471963 -0.314203 0.819197 -0.479785 0.422277 0.997986
-30.916090 0.057978 -13.455324 0.596517 -0.801460 -0.042757 0.422277 0.781997
-30.916204 0.063717 -13.564510 0.596517 -0.801460 -0.042757 0.638266 0.781997
-30.837769 0.122706 -13.575927 0.596517 -0.801460 -0.042757 0.638266 0.997986
-30.837654 0.116965 -13.466741 0.596517 -0.801460 -0.042757 0.422277 0.997986
-30.962004 0.074787 -13.510983 -0.093121 0.853764 0.512266 0.422277 0.781997
-30.867155 0.074691 -13.493576 -0.093121 0.853764 0.512266 0.638266 0.781997
-30.840376 0.130694 -13.582050 -0.093121 0.853764 0.512266 0.638266 0.997986
-30.935228 0.130791 -13.599449 -0.093121 0.853764 0.512266 0.422277 0.997986
-30.917902 0.057978 -13.562641 -0.560891 -0.813080 0.155890 0.422277 0.781997
-30.897610 0.063717 -13.459688 -0.560891 -0.813080 0.155890 0.638266 0.781997
-30.975195 0.122706 -13.431178 -0.560891 -0.813080 0.155890 0.638266 0.997986
-30.995487 0.116965 -13.534122 -0.560891 -0.813080 0.155890 0.422277 0.997986
-30.920622 0.063866 -13.454537 0.895348 -0.420739 0.146052 0.422277 0.781997
-30.901466 0.066047 -13.565690 0.895348 -0.420739 0.146052 0.638266 0.781997
-30.861429 0.152259 -13.562772 0.895348 -0.420739 0.146052 0.638266 0.997986
-30.880587 0.150078 -13.451617 0.895348 -0.420739 0.146052 0.422277 0.997986
-30.862484 0.063866 -13.528924 -0.312429 -0.442668 -0.840496 0.422277 0.781997
-30.961834 0.066047 -13.493143 -0.312429 -0.442668 -0.840496 0.638266 0.781997
-30.965839 0.152259 -13.537059 -0.312429 -0.442668 -0.840496 0.638266 0.997986
-30.866489 0.150078 -13.572842 -0.312429 -0.442668 -0.840496 0.422277 0.997986
-30.910505 0.066972 -13.413070 0.548487 0.320457 -0.772314 0.422277 0.781997
-30.987894 0.068053 -13.467583 0.548487 0.320457 -0.772314 0.638266 0.781997
-31.004061 0.159198 -13.441244 0.548487 0.320457 -0.772314 0.638266 0.997986
-30.926670 0.158117 -13.386732 0.548487 0.320457 -0.772314 0.422277 0.997986
-30.909674 0.074787 -13.471075 -0.314194 0.819205 -0.479776 0.422277 0.781997
-31.002361 0.074691 -13.410545 -0.314194 0.819205 -0.479776 0.638266 0.781997
-30.971149 0.130694 -13.335357 -0.314194 0.819205 -0.479776 0.638266 0.997986
-30.878468 0.130791 -13.395891 -0.314194 0.819205 -0.479776 0.422277 0.997986
-30.957605 0.057978 -13.379250 0.596512 -0.801464 -0.042763 0.422277 0.781997
-30.957718 0.063717 -13.488438 0.596512 -0.801464 -0.042763 0.638266 0.781997
-30.879284 0.122706 -13.499852 0.596512 -0.801464 -0.042763 0.638266 0.997986
-30.879166 0.116965 -13.390669 0.596512 -0.801464 -0.042763 0.422277 0.997986
-31.003513 0.074787 -13.434916 -0.093127 0.853760 0.512271 0.422277 0.781997
-30.908665 0.074691 -13.417508 -0.093127 0.853760 0.512271 0.638266 0.781997
-30.881889 0.130694 -13.505980 -0.093127 0.853760 0.512271 0.638266 0.997986
-30.976742 0.130791 -13.523381 -0.093127 0.853760 0.512271 0.422277 0.997986
-30.959414 0.057978 -13.486571 -0.560896 -0.813079 0.155876 0.422277 0.781997
-30.939121 0.063717 -13.383616 -0.560896 -0.813079 0.155876 0.638266 0.781997
-31.016708 0.122706 -13.355105 -0.560896 -0.813079 0.155876 0.638266 0.997986
-31.036997 0.116965 -13.458055 -0.560896 -0.813079 0.155876 0.422277 0.997986
-30.962135 0.063866 -13.378467 0.895348 -0.420738 0.146052 0.422277 0.781997
-30.942978 0.066047 -13.489618 0.895348 -0.420738 0.146052 0.638266 0.781997
-30.902943 0.152259 -13.486701 0.895348 -0.420738 0.146052 0.638266 0.997986
-30.922098 0.150078 -13.375546 0.895348 -0.420738 0.146052 0.422277 0.997986
-30.903997 0.063866 -13.452853 -0.312451 -0.442640 -0.840502 0.422277 0.781997
-31.003345 0.066047 -13.417071 -0.312451 -0.442640 -0.840502 0.638266 0.781997
-31.007353 0.152259 -13.460982 -0.312451 -0.442640 -0.840502 0.638266 0.997986
-30.908001 0.150078 -13.496769 -0.312451 -0.442640 -0.840502 0.422277 0.997986
-30.942322 0.022467 -13.377312 0.863614 -0.045435 0.502102 0.885793 0.995065
-30.857227 0.022467 -13.523672 0.863614 -0.045435 0.502102 0.885793 0.986206
-30.850899 0.092025 -13.528265 0.863614 -0.045435 0.502102 0.875788 0.985832
-30.943180 0.092025 -13.369539 0.863614 -0.045435 0.502102 0.875788 0.995439
-30.921984 0.022467 -13.561322 -0.863613 -0.045433 -0.502105 0.885793 0.986206
-31.007080 0.022467 -13.414960 -0.863613 -0.045433 -0.502105 0.885793 0.995065
-31.013407 0.092025 -13.410370 -0.863613 -0.045433 -0.502105 0.875788 0.995439
-30.921125 0.092025 -13.569095 -0.863613 -0.045433 -0.502105 0.875788 0.985832
-31.007080 0.022467 -13.414960 -0.499982 -0.102245 0.859979 0.885793 0.995004
-30.942322 0.022467 -13.377312 -0.499982 -0.102245 0.859979 0.885793 0.986426
-30.943180 0.092025 -13.369539 -0.499982 -0.102245 0.859979 0.875788 0.986064
-31.013407 0.092025 -13.410370 -0.499982 -0.102245 0.859979 0.875788 0.995366
-30.857227 0.022467 -13.523672 0.499991 -0.102270 -0.859971 0.885793 0.986426
-30.921984 0.022467 -13.561322 0.499991 -0.102270 -0.859971 0.885793 0.995004
-30.921125 0.092025 -13.569095 0.499991 -0.102270 -0.859971 0.875788 0.995366
-30.850899 0.092025 -13.528265 0.499991 -0.102270 -0.859971 0.875788 0.986064
-30.708450 0.066972 -13.778692 0.548489 0.320487 -0.772300 0.422277 0.781997
-30.785839 0.068053 -13.833206 0.548489 0.320487 -0.772300 0.638266 0.781997
-30.802010 0.159198 -13.806867 0.548489 0.320487 -0.772300 0.638266 0.997986
-30.724617 0.158117 -13.752352 0.548489 0.320487 -0.772300 0.422277 0.997986
-30.707619 0.074787 -13.836698 -0.314199 0.819199 -0.479784 0.422277 0.781997
-30.800308 0.074691 -13.776162 -0.314199 0.819199 -0.479784 0.638266 0.781997
-30.769096 0.130694 -13.700980 -0.314199 0.819199 -0.479784 0.638266 0.997986
-30.676411 0.130791 -13.761513 -0.314199 0.819199 -0.479784 0.422277 0.997986
-30.755547 0.057978 -13.744874 0.596527 -0.801453 -0.042757 0.422277 0.781997
-30.755661 0.063717 -13.854060 0.596527 -0.801453 -0.042757 0.638266 0.781997
-30.677227 0.122706 -13.865477 0.596527 -0.801453 -0.042757 0.638266 0.997986
-30.677113 0.116965 -13.756290 0.596527 -0.801453 -0.042757 0.422277 0.997986
-30.801460 0.074787 -13.800533 -0.093121 0.853764 0.512266 0.422277 0.781997
-30.706612 0.074691 -13.783126 -0.093121 0.853764 0.512266 0.638266 0.781997
-30.679832 0.130694 -13.871600 -0.093121 0.853764 0.512266 0.638266 0.997986
-30.774685 0.130791 -13.888999 -0.093121 0.853764 0.512266 0.422277 0.997986
-30.757359 0.057978 -13.852191 -0.560891 -0.813080 0.155890 0.422277 0.781997
-30.737068 0.063717 -13.749238 -0.560891 -0.813080 0.155890 0.638266 0.781997
-30.814651 0.122706 -13.720728 -0.560891 -0.813080 0.155890 0.638266 0.997986
-30.834946 0.116965 -13.823672 -0.560891 -0.813080 0.155890 0.422277 0.997986
-30.760078 0.063866 -13.744087 0.895345 -0.420748 0.146043 0.422277 0.781997
-30.740925 0.066047 -13.855240 0.895345 -0.420748 0.146043 0.638266 0.781997
-30.700886 0.152259 -13.852322 0.895345 -0.420748 0.146043 0.638266 0.997986
-30.720043 0.150078 -13.741167 0.895345 -0.420748 0.146043 0.422277 0.997986
-30.701942 0.063866 -13.818474 -0.312429 -0.442668 -0.840496 0.422277 0.781997
-30.801292 0.066047 -13.782693 -0.312429 -0.442668 -0.840496 0.638266 0.781997
-30.805298 0.152259 -13.826609 -0.312429 -0.442668 -0.840496 0.638266 0.997986
-30.705948 0.150078 -13.862391 -0.312429 -0.442668 -0.840496 0.422277 0.997986
-30.749962 0.066972 -13.702620 0.548490 0.320462 -0.772310 0.422277 0.781997
-30.827351 0.068053 -13.757133 0.548490 0.320462 -0.772310 0.638266 0.781997
-30.843517 0.159198 -13.730794 0.548490 0.320462 -0.772310 0.638266 0.997986
-30.766129 0.158117 -13.676282 0.548490 0.320462 -0.772310 0.422277 0.997986
-30.749130 0.074787 -13.760625 -0.314193 0.819203 -0.479780 0.422277 0.781997
-30.841820 0.074691 -13.700095 -0.314193 0.819203 -0.479780 0.638266 0.781997
-30.810608 0.130694 -13.624907 -0.314193 0.819203 -0.479780 0.638266 0.997986
-30.717926 0.130791 -13.685441 -0.314193 0.819203 -0.479780 0.422277 0.997986
-30.797062 0.057978 -13.668799 0.596516 -0.801461 -0.042768 0.422277 0.781997
-30.797176 0.063717 -13.777987 0.596516 -0.801461 -0.042768 0.638266 0.781997
-30.718742 0.122706 -13.789402 0.596516 -0.801461 -0.042768 0.638266 0.997986
-30.718624 0.116965 -13.680219 0.596516 -0.801461 -0.042768 0.422277 0.997986
-30.842972 0.074787 -13.724465 -0.093127 0.853760 0.512271 0.422277 0.781997
-30.748123 0.074691 -13.707058 -0.093127 0.853760 0.512271 0.638266 0.781997
-30.721348 0.130694 -13.795530 -0.093127 0.853760 0.512271 0.638266 0.997986
-30.816200 0.130791 -13.812931 -0.093127 0.853760 0.512271 0.422277 0.997986
-30.798870 0.057978 -13.776121 -0.560900 -0.813079 0.155866 0.422277 0.781997
-30.778580 0.063717 -13.673166 -0.560900 -0.813079 0.155866 0.638266 0.781997
-30.856167 0.122706 -13.644655 -0.560900 -0.813079 0.155866 0.638266 0.997986
-30.876453 0.116965 -13.747604 -0.560900 -0.813079 0.155866 0.422277 0.997986
-30.801594 0.063866 -13.668016 0.895345 -0.420747 0.146044 0.422277 0.781997
-30.782436 0.066047 -13.779168 0.895345 -0.420747 0.146044 0.638266 0.781997
-30.742401 0.152259 -13.776251 0.895345 -0.420747 0.146044 0.638266 0.997986
-30.761555 0.150078 -13.665096 0.895345 -0.420747 0.146044 0.422277 0.997986
-30.743454 0.063866 -13.742403 -0.312451 -0.442640 -0.840502 0.422277 0.781997
-30.842804 0.066047 -13.706621 -0.312451 -0.442640 -0.840502 0.638266 0.781997
-30.846809 0.152259 -13.750532 -0.312451 -0.442640 -0.840502 0.638266 0.997986
-30.747459 0.150078 -13.786319 -0.312451 -0.442640 -0.840502 0.422277 0.997986
-30.781780 0.022467 -13.666862 0.863614 -0.045435 0.502102 0.885793 0.995065
-30.696686 0.022467 -13.813222 0.863614 -0.045435 0.502102 0.885793 0.986206
-30.690357 0.092025 -13.817815 0.863614 -0.045435 0.502102 0.875788 0.985832
-30.782639 0.092025 -13.659089 0.863614 -0.045435 0.502102 0.875788 0.995439
-30.761440 0.022467 -13.850872 -0.863611 -0.045422 -0.502109 0.885793 0.986206
-30.846539 0.022467 -13.704510 -0.863611 -0.045422 -0.502109 0.885793 0.995065
-30.852863 0.092025 -13.699920 -0.863611 -0.045422 -0.502109 0.875788 0.995439
-30.760582 0.092025 -13.858644 -0.863611 -0.045422 -0.502109 0.875788 0.985832
-30.846539 0.022467 -13.704510 -0.499988 -0.102239 0.859976 0.885793 0.995004
-30.781780 0.022467 -13.666862 -0.499988 -0.102239 0.859976 0.885793 0.986426
-30.782639 0.092025 -13.659089 -0.499988 -0.102239 0.859976 0.875788 0.986064
-30.852863 0.092025 -13.699920 -0.499988 -0.102239 0.859976 0.875788 0.995366
-30.696686 0.022467 -13.813222 0.500002 -0.102270 -0.859965 0.885793 0.986426
-30.761440 0.022467 -13.850872 0.500002 -0.102270 -0.859965 0.885793 0.995004
-30.760582 0.092025 -13.858644 0.500002 -0.102270 -0.859965 0.875788 0.995366
-30.690357 0.092025 -13.817815 0.500002 -0.102270 -0.859965 0.875788 0.986064
-30.394115 0.066972 -14.345727 0.548489 0.320487 -0.772300 0.422277 0.781997
-30.471504 0.068053 -14.400241 0.548489 0.320487 -0.772300 0.638266 0.781997
-30.487675 0.159198 -14.373901 0.548489 0.320487 -0.772300 0.638266 0.997986
-30.410282 0.158117 -14.319386 0.548489 0.320487 -0.772300 0.422277 0.997986
-30.393284 0.074787 -14.403732 -0.314199 0.819199 -0.479784 0.422277 0.781997
-30.485973 0.074691 -14.343197 -0.314199 0.819199 -0.479784 0.638266 0.781997
-30.454762 0.130694 -14.268015 -0.314199 0.819199 -0.479784 0.638266 0.997986
-30.362076 0.130791 -14.328547 -0.314199 0.819199 -0.479784 0.422277 0.997986
-30.441212 0.057978 -14.311909 0.596527 -0.801453 -0.042757 0.422277 0.781997
-30.441326 0.063717 -14.421095 0.596527 -0.801453 -0.042757 0.638266 0.781997
-30.362892 0.122706 -14.432511 0.596527 -0.801453 -0.042757 0.638266 0.997986
-30.362778 0.116965 -14.323325 0.596527 -0.801453 -0.042757 0.422277 0.997986
-30.487125 0.074787 -14.367568 -0.093121 0.853764 0.512266 0.422277 0.781997
-30.392277 0.074691 -14.350161 -0.093121 0.853764 0.512266 0.638266 0.781997
-30.365498 0.130694 -14.438635 -0.093121 0.853764 0.512266 0.638266 0.997986
-30.460350 0.130791 -14.456034 -0.093121 0.853764 0.512266 0.422277 0.997986
-30.443024 0.057978 -14.419226 -0.560891 -0.813080 0.155890 0.422277 0.781997
-30.422733 0.063717 -14.316273 -0.560891 -0.813080 0.155890 0.638266 0.781997
-30.500317 0.122706 -14.287763 -0.560891 -0.813080 0.155890 0.638266 0.997986
-30.520611 0.116965 -14.390707 -0.560891 -0.813080 0.155890 0.422277 0.997986
-30.445744 0.063866 -14.311122 0.895345 -0.420748 0.146043 0.422277 0.781997
-30.426590 0.066047 -14.422275 0.895345 -0.420748 0.146043 0.638266 0.781997
-30.386551 0.152259 -14.419356 0.895345 -0.420748 0.146043 0.638266 0.997986
-30.405708 0.150078 -14.308202 0.895345 -0.420748 0.146043 0.422277 0.997986
-30.387608 0.063866 -14.385509 -0.312429 -0.442668 -0.840496 0.422277 0.781997
-30.486958 0.066047 -14.349728 -0.312429 -0.442668 -0.840496 0.638266 0.781997
-30.490963 0.152259 -14.393643 -0.312429 -0.442668 -0.840496 0.638266 0.997986
-30.391613 0.150078 -14.429426 -0.312429 -0.442668 -0.840496 0.422277 0.997986
-30.435627 0.066972 -14.269654 0.548490 0.320462 -0.772310 0.422277 0.781997
-30.513016 0.068053 -14.324167 0.548490 0.320462 -0.772310 0.638266 0.781997
-30.529182 0.159198 -14.297829 0.548490 0.320462 -0.772310 0.638266 0.997986
-30.451794 0.158117 -14.243317 0.548490 0.320462 -0.772310 0.422277 0.997986
-30.434795 0.074787 -14.327660 -0.314193 0.819203 -0.479780 0.422277 0.781997
-30.527485 0.074691 -14.267130 -0.314193 0.819203 -0.479780 0.638266 0.781997
-30.496273 0.130694 -14.191941 -0.314193 0.819203 -0.479780 0.638266 0.997986
-30.403591 0.130791 -14.252476 -0.314193 0.819203 -0.479780 0.422277 0.997986
-30.482727 0.057978 -14.235834 0.596516 -0.801461 -0.042768 0.422277 0.781997
-30.482841 0.063717 -14.345022 0.596516 -0.801461 -0.042768 0.638266 0.781997
-30.404408 0.122706 -14.356437 0.596516 -0.801461 -0.042768 0.638266 0.997986
-30.404289 0.116965 -14.247253 0.596516 -0.801461 -0.042768 0.422277 0.997986
-30.528637 0.074787 -14.291500 -0.093127 0.853760 0.512271 0.422277 0.781997
-30.433788 0.074691 -14.274093 -0.093127 0.853760 0.512271 0.638266 0.781997
-30.407013 0.130694 -14.362565 -0.093127 0.853760 0.512271 0.638266 0.997986
-30.501865 0.130791 -14.379966 -0.093127 0.853760 0.512271 0.422277 0.997986
-30.484535 0.057978 -14.343156 -0.560900 -0.813079 0.155866 0.422277 0.781997
-30.464245 0.063717 -14.240201 -0.560900 -0.813079 0.155866 0.638266 0.781997
-30.541832 0.122706 -14.211690 -0.560900 -0.813079 0.155866 0.638266 0.997986
-30.562119 0.116965 -14.314639 -0.560900 -0.813079 0.155866 0.422277 0.997986
-30.487259 0.063866 -14.235051 0.895345 -0.420747 0.146044 0.422277 0.781997
-30.468102 0.066047 -14.346203 0.895345 -0.420747 0.146044 0.638266 0.781997
-30.428066 0.152259 -14.343286 0.895345 -0.420747 0.146044 0.638266 0.997986
-30.447220 0.150078 -14.232131 0.895345 -0.420747 0.146044 0.422277 0.997986
-30.429119 0.063866 -14.309438 -0.312451 -0.442640 -0.840502 0.422277 0.781997
-30.528469 0.066047 -14.273656 -0.312451 -0.442640 -0.840502 0.638266 0.781997
-30.532475 0.152259 -14.317567 -0.312451 -0.442640 -0.840502 0.638266 0.997986
-30.433125 0.150078 -14.353354 -0.312451 -0.442640 -0.840502 0.422277 0.997986
-30.467445 0.022467 -14.233896 0.863614 -0.045435 0.502102 0.885793 0.995065
-30.382351 0.022467 -14.380257 0.863614 -0.045435 0.502102 0.885793 0.986206
-30.376022 0.092025 -14.384850 0.863614 -0.045435 0.502102 0.875788 0.985832
-30.468304 0.092025 -14.226124 0.863614 -0.045435 0.502102 0.875788 0.995439
-30.447105 0.022467 -14.417907 -0.863611 -0.045422 -0.502109 0.885793 0.986206
-30.532204 0.022467 -14.271544 -0.863611 -0.045422 -0.502109 0.885793 0.995065
-30.538528 0.092025 -14.266954 -0.863611 -0.045422 -0.502109 0.875788 0.995439
-30.446247 0.092025 -14.425679 -0.863611 -0.045422 -0.502109 0.875788 0.985832
-30.532204 0.022467 -14.271544 -0.499988 -0.102239 0.859976 0.885793 0.995004
-30.467445 0.022467 -14.233896 -0.499988 -0.102239 0.859976 0.885793 0.986426
-30.468304 0.092025 -14.226124 -0.499988 -0.102239 0.859976 0.875788 0.986064
-30.538528 0.092025 -14.266954 -0.499988 -0.102239 0.859976 0.875788 0.995366
-30.382351 0.022467 -14.380257 0.500002 -0.102270 -0.859965 0.885793 0.986426
-30.447105 0.022467 -14.417907 0.500002 -0.102270 -0.859965 0.885793 0.995004
-30.446247 0.092025 -14.425679 0.500002 -0.102270 -0.859965 0.875788 0.995366
-30.376022 0.092025 -14.384850 0.500002 -0.102270 -0.859965 0.875788 0.986064
-30.061291 0.066972 -14.949742 0.548489 0.320487 -0.772300 0.422277 0.781997
-30.138680 0.068053 -15.004256 0.548489 0.320487 -0.772300 0.638266 0.781997
-30.154850 0.159198 -14.977917 0.548489 0.320487 -0.772300 0.638266 0.997986
-30.077457 0.158117 -14.923402 0.548489 0.320487 -0.772300 0.422277 0.997986
-30.060459 0.074787 -15.007748 -0.314199 0.819199 -0.479784 0.422277 0.781997
-30.153149 0.074691 -14.947212 -0.314199 0.819199 -0.479784 0.638266 0.781997
-30.121937 0.130694 -14.872030 -0.314199 0.819199 -0.479784 0.638266 0.997986
-30.029251 0.130791 -14.932563 -0.314199 0.819199 -0.479784 0.422277 0.997986
-30.108387 0.057978 -14.915924 0.596527 -0.801453 -0.042757 0.422277 0.781997
-30.108501 0.063717 -15.025110 0.596527 -0.801453 -0.042757 0.638266 0.781997
-30.030067 0.122706 -15.036527 0.596527 -0.801453 -0.042757 0.638266 0.997986
-30.029953 0.116965 -14.927341 0.596527 -0.801453 -0.042757 0.422277 0.997986
-30.154301 0.074787 -14.971583 -0.093121 0.853764 0.512266 0.422277 0.781997
-30.059452 0.074691 -14.954176 -0.093121 0.853764 0.512266 0.638266 0.781997
-30.032673 0.130694 -15.042650 -0.093121 0.853764 0.512266 0.638266 0.997986
-30.127525 0.130791 -15.060049 -0.093121 0.853764 0.512266 0.422277 0.997986
-30.110199 0.057978 -15.023241 -0.560891 -0.813080 0.155890 0.422277 0.781997
-30.089909 0.063717 -14.920288 -0.560891 -0.813080 0.155890 0.638266 0.781997
-30.167492 0.122706 -14.891778 -0.560891 -0.813080 0.155890 0.638266 0.997986
-30.187786 0.116965 -14.994722 -0.560891 -0.813080 0.155890 0.422277 0.997986
-30.112919 0.063866 -14.915137 0.895345 -0.420748 0.146043 0.422277 0.781997
-30.093765 0.066047 -15.026290 0.895345 -0.420748 0.146043 0.638266 0.781997
-30.053726 0.152259 -15.023372 0.895345 -0.420748 0.146043 0.638266 0.997986
-30.072884 0.150078 -14.912217 0.895345 -0.420748 0.146043 0.422277 0.997986
-30.054783 0.063866 -14.989524 -0.312429 -0.442668 -0.840496 0.422277 0.781997
-30.154133 0.066047 -14.953743 -0.312429 -0.442668 -0.840496 0.638266 0.781997
-30.158138 0.152259 -14.997659 -0.312429 -0.442668 -0.840496 0.638266 0.997986
-30.058788 0.150078 -15.033442 -0.312429 -0.442668 -0.840496 0.422277 0.997986
-30.102802 0.066972 -14.873670 0.548490 0.320462 -0.772310 0.422277 0.781997
-30.180191 0.068053 -14.928183 0.548490 0.320462 -0.772310 0.638266 0.781997
-30.196358 0.159198 -14.901844 0.548490 0.320462 -0.772310 0.638266 0.997986
-30.118969 0.158117 -14.847332 0.548490 0.320462 -0.772310 0.422277 0.997986
-30.101971 0.074787 -14.931675 -0.314193 0.819203 -0.479780 0.422277 0.781997
-30.194660 0.074691 -14.871145 -0.314193 0.819203 -0.479780 0.638266 0.781997
-30.163448 0.130694 -14.795957 -0.314193 0.819203 -0.479780 0.638266 0.997986
-30.070766 0.130791 -14.856491 -0.314193 0.819203 -0.479780 0.422277 0.997986
-30.149902 0.057978 -14.839849 0.596516 -0.801461 -0.042768 0.422277 0.781997
-30.150017 0.063717 -14.949038 0.596516 -0.801461 -0.042768 0.638266 0.781997
-30.071583 0.122706 -14.960452 0.596516 -0.801461 -0.042768 0.638266 0.997986
-30.071465 0.116965 -14.851269 0.596516 -0.801461 -0.042768 0.422277 0.997986
-30.195812 0.074787 -14.895515 -0.093127 0.853760 0.512271 0.422277 0.781997
-30.100964 0.074691 -14.878108 -0.093127 0.853760 0.512271 0.638266 0.781997
-30.074188 0.130694 -14.966580 -0.093127 0.853760 0.512271 0.638266 0.997986
-30.169041 0.130791 -14.983981 -0.093127 0.853760 0.512271 0.422277 0.997986
-30.151711 0.057978 -14.947171 -0.560900 -0.813079 0.155866 0.422277 0.781997
-30.131420 0.063717 -14.844216 -0.560900 -0.813079 0.155866 0.638266 0.781997
-30.209007 0.122706 -14.815705 -0.560900 -0.813079 0.155866 0.638266 0.997986
-30.229294 0.116965 -14.918654 -0.560900 -0.813079 0.155866 0.422277 0.997986
-30.154434 0.063866 -14.839067 0.895345 -0.420747 0.146044 0.422277 0.781997
-30.135277 0.066047 -14.950218 0.895345 -0.420747 0.146044 0.638266 0.781997
-30.095242 0.152259 -14.947301 0.895345 -0.420747 0.146044 0.638266 0.997986
-30.114395 0.150078 -14.836146 0.895345 -0.420747 0.146044 0.422277 0.997986
-30.096294 0.063866 -14.913453 -0.312451 -0.442640 -0.840502 0.422277 0.781997
-30.195644 0.066047 -14.877671 -0.312451 -0.442640 -0.840502 0.638266 0.781997
-30.199650 0.152259 -14.921582 -0.312451 -0.442640 -0.840502 0.638266 0.997986
-30.100300 0.150078 -14.957369 -0.312451 -0.442640 -0.840502 0.422277 0.997986
-30.134621 0.022467 -14.837912 0.863614 -0.045435 0.502102 0.885793 0.995065
-30.049526 0.022467 -14.984272 0.863614 -0.045435 0.502102 0.885793 0.986206
-30.043198 0.092025 -14.988865 0.863614 -0.045435 0.502102 0.875788 0.985832
-30.135479 0.092025 -14.830139 0.863614 -0.045435 0.502102 0.875788 0.995439
-30.114281 0.022467 -15.021922 -0.863611 -0.045422 -0.502109 0.885793 0.986206
-30.199379 0.022467 -14.875560 -0.863611 -0.045422 -0.502109 0.885793 0.995065
-30.205704 0.092025 -14.870970 -0.863611 -0.045422 -0.502109 0.875788 0.995439
-30.113422 0.092025 -15.029695 -0.863611 -0.045422 -0.502109 0.875788 0.985832
-30.199379 0.022467 -14.875560 -0.499988 -0.102239 0.859976 0.885793 0.995004
-30.134621 0.022467 -14.837912 -0.499988 -0.102239 0.859976 0.885793 0.986426
-30.135479 0.092025 -14.830139 -0.499988 -0.102239 0.859976 0.875788 0.986064
-30.205704 0.092025 -14.870970 -0.499988 -0.102239 0.859976 0.875788 0.995366
-30.049526 0.022467 -14.984272 0.500002 -0.102270 -0.859965 0.885793 0.986426
-30.114281 0.022467 -15.021922 0.500002 -0.102270 -0.859965 0.885793 0.995004
-30.113422 0.092025 -15.029695 0.500002 -0.102270 -0.859965 0.875788 0.995366
-30.043198 0.092025 -14.988865 0.500002 -0.102270 -0.859965 0.875788 0.986064
4 0 1 2 3
4 4 5 6 7
4 8 9 10 11
4 12 13 14 15
4 16 17 18 19
4 20 21 22 23
4 24 25 26 27
4 28 29 30 31
4 32 33 34 35
4 36 37 38 39
4 40 41 42 43
4 44 45 46 47
4 48 49 50 51
4 52 53 54 55
4 56 57 58 59
4 60 61 62 63
4 64 65 66 67
4 68 69 70 71
4 72 73 74 75
4 76 77 78 79
4 80 81 82 83
4 84 85 86 87
4 88 89 90 91
4 92 93 94 95
4 96 97 98 99
4 100 101 102 103
4 104 105 106 107
4 108 109 110 111
4 112 113 114 115
4 116 117 118 119
4 120 121 122 123
4 124 125 126 127
4 128 129 130 131
4 132 133 134 135
4 136 137 138 139
4 140 141 142 143
4 144 145 146 147
4 148 149 150 151
4 152 153 154 155
4 156 157 158 159
4 160 161 162 163
4 164 165 166 167
4 168 169 170 171
4 172 173 174 175
4 176 177 178 179
4 180 181 182 183
4 184 185 186 187
4 188 189 190 191
4 192 193 194 195
4 196 197 198 199
4 200 201 202 203
4 204 205 206 207
4 208 209 210 211
4 212 213 214 215
4 216 217 218 219
4 220 221 222 223
4 224 225 226 227
4 228 229 230 231
4 232 233 234 235
4 236 237 238 239
4 240 241 242 243
4 244 245 246 247
4 248 249 250 251
4 252 253 254 255
4 256 257 258 259
4 260 261 262 263
4 264 265 266 267
4 268 269 270 271
4 272 273 274 275
4 276 277 278 279
4 280 281 282 283
4 284 285 286 287
