ply
format ascii 1.0
comment Created by Blender 2.78 (sub 0) - www.blender.org, source file: 'soult.blend'
element vertex 338
property float x
property float y
property float z
property float nx
property float ny
property float nz
property float s
property float t
element face 294
property list uchar uint vertex_indices
end_header
-37.955494 -0.000068 -10.913626 -0.035493 0.216590 0.975585 0.925356 0.753956
-37.955421 0.057169 -10.926357 0.048372 0.125584 0.990875 0.925356 0.759423
-37.980721 0.057947 -10.946442 -0.925291 0.124668 0.358104 0.919194 0.759423
-37.990593 0.000086 -10.941812 -0.944914 0.184790 0.270089 0.919194 0.753956
-37.968838 0.058209 -10.977348 -0.613758 0.097049 -0.783471 0.913461 0.759423
-37.974281 0.000144 -10.984398 -0.548570 0.149419 -0.822626 0.913461 0.753956
-37.974281 0.000144 -10.984398 -0.548570 0.149419 -0.822626 0.943056 0.753956
-37.968838 0.058209 -10.977348 -0.613758 0.097049 -0.783471 0.943056 0.759423
-37.936203 0.057701 -10.976386 0.554857 0.078097 -0.828242 0.936816 0.759423
-37.929119 0.000111 -10.982577 0.626087 0.161779 -0.762749 0.936816 0.753956
-37.922493 0.292278 -10.958278 0.998901 -0.042909 -0.018281 0.930679 0.784634
-37.927933 0.056885 -10.944914 0.961913 0.100528 0.254128 0.930679 0.759423
-37.940113 0.170429 -10.978869 0.569018 -0.183203 -0.801630 0.936816 0.772608
-37.940605 0.249435 -10.978138 0.589923 0.288888 -0.753990 0.936816 0.779878
-37.940372 0.297139 -10.976612 0.247017 0.010804 -0.968932 0.936816 0.784634
-37.917564 -0.000167 -10.938928 0.911954 0.200964 0.357616 0.930679 0.753956
-37.989182 0.507881 -10.946447 0.702506 0.678823 -0.213538 0.926285 0.766647
-37.936180 0.474783 -10.951413 -0.045015 0.894864 -0.444044 0.924071 0.761578
-37.934464 0.470450 -10.953843 -0.059267 0.801294 -0.595294 0.924264 0.761053
-37.942966 0.466977 -10.962374 0.046754 0.995911 0.077120 0.925793 0.761110
-37.951672 0.463536 -10.971618 -0.302591 0.077303 -0.949950 0.927324 0.761123
-37.994167 0.508569 -10.960618 0.202887 0.393384 -0.896664 0.927686 0.766745
-37.968464 0.171847 -10.973807 -0.814753 -0.135807 -0.563616 0.913461 0.771034
-37.960735 0.295007 -10.939546 -0.856319 -0.086215 0.509140 0.919194 0.784634
-37.963997 0.298592 -10.965032 -0.844722 0.060915 -0.531663 0.913461 0.784634
-37.966011 0.251050 -10.968995 -0.869106 0.231086 -0.437239 0.913461 0.779208
-37.935089 0.291015 -10.935375 0.386395 -0.151341 0.909818 0.925356 0.784634
-37.966011 0.251050 -10.968995 -0.869106 0.231086 -0.437239 0.943056 0.779878
-37.963997 0.298592 -10.965032 -0.844722 0.060915 -0.531663 0.943056 0.784634
-37.968464 0.171847 -10.973807 -0.814753 -0.135807 -0.563616 0.943056 0.772608
-37.964485 0.246397 -10.979110 -0.632923 0.468215 -0.616565 0.942187 0.779365
-37.966522 0.180959 -10.983071 -0.642048 -0.244118 -0.726737 0.941571 0.773056
-37.961670 0.240785 -10.980123 -0.047060 -0.261299 -0.964080 0.941532 0.778677
-37.946629 0.240081 -10.986111 -0.524064 -0.244026 -0.815943 0.938557 0.778614
-37.946224 0.239729 -10.984472 -0.732261 -0.505905 -0.455855 0.938743 0.778402
-37.961269 0.240447 -10.978483 0.393445 -0.498215 -0.772607 0.941170 0.778310
-37.943176 0.179795 -10.987224 0.413434 -0.280313 -0.866268 0.937297 0.773131
-37.943623 0.245240 -10.986616 0.356517 0.424116 -0.832453 0.938211 0.779004
-37.923397 0.434500 -10.931835 0.419538 -0.374584 0.826807 0.925478 0.769771
-37.912346 0.430550 -10.955553 0.920835 -0.389447 -0.018860 0.931501 0.764229
-37.913311 0.449678 -10.940993 0.884487 -0.322459 0.337107 0.929637 0.769907
-37.785168 0.569875 -11.005647 0.255470 0.062441 0.964782 0.928683 0.775827
-37.915138 0.461113 -10.939871 0.850765 0.243629 0.465590 0.928700 0.755690
-37.913311 0.449678 -10.940993 0.884487 -0.322459 0.337107 0.929359 0.755690
-37.912346 0.430550 -10.955553 0.920835 -0.389447 -0.018860 0.931011 0.755690
-37.773083 0.561599 -11.022671 0.889340 -0.450240 -0.079440 0.931180 0.775827
-37.930599 0.435626 -10.974350 0.018494 -0.191900 -0.981231 0.936816 0.798434
-37.912346 0.430550 -10.955553 0.920835 -0.389447 -0.018860 0.930679 0.798434
-37.955887 0.437948 -10.965957 -0.742912 -0.212561 -0.634693 0.913461 0.798434
-37.955467 0.364104 -10.938631 -0.836512 0.252968 0.486007 0.919194 0.790601
-37.951801 0.435254 -10.937157 -0.582965 -0.230140 0.779168 0.919194 0.798434
-38.002598 0.489711 -10.931428 -0.548112 -0.464492 0.695517 0.931910 0.767038
-37.951801 0.435254 -10.937157 -0.582965 -0.230140 0.779168 0.933433 0.760992
-37.930569 0.442441 -10.929796 -0.284433 -0.256874 0.923612 0.936463 0.760125
-37.930431 0.454808 -10.931391 -0.325602 0.170660 0.929960 0.936801 0.761148
-37.984505 0.503138 -10.932670 0.457076 0.406415 0.791101 0.933887 0.767176
-37.938141 0.307768 -10.926091 0.336192 -0.198218 0.920682 0.923802 0.785269
-37.957859 0.309959 -10.929276 -0.643880 -0.121220 0.755425 0.920222 0.785147
-37.938915 0.360178 -10.930181 -0.362774 0.769341 0.525803 0.926436 0.795257
-37.935062 0.346753 -10.928641 0.421735 -0.026673 0.906308 0.924792 0.796031
-37.933605 0.381606 -10.912027 0.224586 -0.343822 0.911771 0.925252 0.792545
-37.935734 0.389060 -10.912854 -0.551195 0.826624 0.113315 0.925698 0.792295
-37.934090 0.359571 -10.929386 0.868252 0.496048 0.003693 0.924200 0.790158
-37.929604 0.359200 -10.934379 0.712210 0.110416 0.693197 0.925356 0.790601
-37.953945 0.362305 -10.932614 -0.500259 0.613788 0.610675 0.920843 0.790030
-37.938915 0.360178 -10.930181 -0.362774 0.769341 0.525803 0.923348 0.790140
-37.935062 0.346753 -10.928641 0.421735 -0.026673 0.906308 0.924257 0.788818
-37.955887 0.437948 -10.965957 -0.742912 -0.212561 -0.634693 0.943056 0.798434
-37.944710 0.447796 -10.970740 -0.287790 -0.054231 -0.956145 0.939648 0.798434
-37.939537 0.447400 -10.972096 -0.333293 -0.028077 -0.942381 0.938735 0.798434
-38.052387 0.594854 -10.939280 0.621204 0.213385 -0.753990 0.928751 0.774784
-38.051579 0.597316 -10.933433 0.596515 0.669485 -0.442610 0.928643 0.775039
-37.925529 0.478619 -10.954535 -0.255257 0.939390 -0.228767 0.927064 0.755690
-37.793682 0.570392 -11.016891 -0.691336 0.547594 0.471328 0.927054 0.775827
-37.936180 0.474783 -10.951413 -0.045015 0.894864 -0.444044 0.934869 0.772424
-37.925529 0.478619 -10.954535 -0.255257 0.939390 -0.228767 0.932894 0.772276
-37.928936 0.472784 -10.955399 -0.505448 0.738731 -0.445814 0.933539 0.771618
-37.934464 0.470450 -10.953843 -0.059267 0.801294 -0.595294 0.934596 0.771655
-37.955887 0.437948 -10.965957 -0.742912 -0.212561 -0.634693 0.929451 0.760167
-38.005760 0.488720 -10.957653 -0.708792 -0.431013 -0.558397 0.929513 0.766872
-38.059265 0.587050 -10.937247 -0.723594 -0.493515 -0.482528 0.929060 0.774676
-38.096619 0.639366 -10.980287 -0.686758 -0.256600 -0.680074 0.928775 0.774471
-38.091938 0.643841 -10.981876 0.126530 0.448744 -0.884640 0.928780 0.774463
-38.058758 0.585362 -10.919243 -0.638722 -0.332591 0.693808 0.930423 0.774917
-38.060799 0.590609 -10.931760 -0.979095 -0.134526 0.152501 0.929195 0.774892
-38.042622 0.592315 -10.920852 0.807428 0.196234 0.556322 0.931830 0.775130
-38.051666 0.807969 -10.862291 0.742302 0.455794 0.491104 0.929621 0.791397
-38.060558 0.807118 -10.860648 -0.501328 0.290353 0.815058 0.929519 0.791383
-38.096535 0.642038 -10.976399 -0.862789 0.393536 0.317301 0.928775 0.774456
-38.091175 0.645561 -10.977564 0.156102 0.984436 0.080538 0.928776 0.774461
-38.055668 0.811508 -10.868938 0.235939 0.847316 -0.475753 0.929638 0.791490
-38.061150 0.809721 -10.867541 -0.718497 0.663106 -0.209693 0.929527 0.791425
-38.042622 0.592315 -10.920852 0.807428 0.196234 0.556322 0.927297 0.774962
-37.724602 0.858278 -11.011180 0.951048 0.304941 -0.049562 0.929974 0.784652
-37.729568 0.861920 -11.004694 0.279153 0.672658 0.685232 0.929317 0.784593
-37.930431 0.454808 -10.931391 -0.325602 0.170660 0.929960 0.921027 0.761672
-37.984505 0.503138 -10.932670 0.457076 0.406415 0.791101 0.924850 0.766547
-37.930599 0.435626 -10.974350 0.018494 -0.191900 -0.981231 0.934113 0.755690
-37.789799 0.564435 -11.039744 0.152867 -0.284219 -0.946471 0.934025 0.775827
-37.799877 0.572984 -11.033607 -0.777154 0.323710 -0.539628 0.924906 0.775827
-37.936405 0.463986 -10.974208 -0.106845 0.069308 -0.991852 0.924828 0.755690
-37.932991 0.468385 -10.964379 -0.185675 0.976043 0.113163 0.925840 0.755690
-37.928936 0.472784 -10.955399 -0.505448 0.738731 -0.445814 0.926829 0.755690
-37.735420 0.862709 -11.008176 -0.544847 0.745598 0.383648 0.928743 0.785458
-37.733139 0.859679 -11.019926 0.167730 0.414838 -0.894284 0.931152 0.785710
-37.735996 0.863937 -11.015022 -0.379467 0.880093 -0.285348 0.929363 0.797726
-37.799877 0.572984 -11.033607 -0.777154 0.323710 -0.539628 0.935536 0.775827
-37.923397 0.434500 -10.931835 0.419538 -0.374584 0.826807 0.925356 0.798434
-37.939537 0.447400 -10.972096 -0.333293 -0.028077 -0.942381 0.935423 0.755690
-37.936405 0.463986 -10.974208 -0.106845 0.069308 -0.991852 0.935701 0.755690
-37.915138 0.461113 -10.939871 0.850765 0.243629 0.465590 0.929357 0.772733
-37.930431 0.454808 -10.931391 -0.325602 0.170660 0.929960 0.926056 0.773663
-37.926403 0.455760 -10.927538 -0.170263 0.566210 0.806452 0.926497 0.772688
-37.913349 0.461052 -10.934738 0.575030 0.740440 0.347911 0.928256 0.771926
-37.932991 0.468385 -10.964379 -0.185675 0.976043 0.113163 0.933852 0.769458
-37.942966 0.466977 -10.962374 0.046754 0.995911 0.077120 0.935831 0.769797
-37.910095 0.500939 -10.907722 0.941374 -0.173772 0.289102 0.929632 0.779130
-37.924725 0.495613 -10.901480 -0.345592 -0.408521 0.844752 0.927547 0.779349
-37.923397 0.434500 -10.931835 0.419538 -0.374584 0.826807 0.936957 0.758910
-37.911919 0.451458 -10.936087 0.955870 -0.085116 0.281137 0.928463 0.770773
-37.926826 0.445381 -10.926453 -0.156590 -0.081271 0.984283 0.925778 0.771916
-37.920845 0.438736 -10.928428 0.471664 -0.509384 0.719718 0.926348 0.770793
-37.930569 0.442441 -10.929796 -0.284433 -0.256874 0.923612 0.924728 0.772202
-37.918514 0.520079 -10.916355 0.412061 0.421522 -0.807764 0.932143 0.780155
-37.915710 0.636600 -10.873498 0.331523 0.427290 -0.841121 0.931917 0.795229
-37.911133 0.629999 -10.867132 0.978545 -0.138951 0.151921 0.931046 0.795029
-37.928280 0.517731 -10.914401 -0.897916 0.308603 -0.313791 0.933606 0.780113
-37.936180 0.474783 -10.951413 -0.045015 0.894864 -0.444044 0.921842 0.774374
-37.928280 0.517731 -10.914401 -0.897916 0.308603 -0.313791 0.925162 0.781075
-37.920441 0.635393 -10.872234 -0.846309 0.294565 -0.443770 0.929691 0.795396
-37.918072 0.627853 -10.863384 -0.439833 -0.343730 0.829676 0.930275 0.795128
-37.910248 0.689889 -10.820170 -0.284890 -0.003388 0.958525 0.931344 0.797013
-37.912594 0.697515 -10.828968 -0.655324 0.752037 0.070223 0.930882 0.796552
-37.920441 0.635393 -10.872234 -0.846309 0.294565 -0.443770 0.932316 0.795251
-37.903301 0.692028 -10.823907 0.840846 0.254311 0.477767 0.939239 0.760662
-37.907879 0.698734 -10.830239 0.350932 0.909513 -0.222755 0.939290 0.760840
-37.912594 0.697515 -10.828968 -0.655324 0.752037 0.070223 0.939613 0.760985
-37.910248 0.689889 -10.820170 -0.284890 -0.003388 0.958525 0.939166 0.760510
-37.915710 0.636600 -10.873498 0.331523 0.427290 -0.841121 0.938539 0.762277
-37.920441 0.635393 -10.872234 -0.846309 0.294565 -0.443770 0.938141 0.762242
-37.907879 0.698734 -10.830239 0.350932 0.909513 -0.222755 0.931209 0.796687
-37.903301 0.692028 -10.823907 0.840846 0.254311 0.477767 0.931266 0.796864
-37.951672 0.463536 -10.971618 -0.302591 0.077303 -0.949950 0.931283 0.768120
-37.936405 0.463986 -10.974208 -0.106845 0.069308 -0.991852 0.932954 0.768733
-37.939537 0.447400 -10.972096 -0.333293 -0.028077 -0.942381 0.932210 0.769740
-37.944710 0.447796 -10.970740 -0.287790 -0.054231 -0.956145 0.931582 0.769460
-37.950626 0.542605 -11.001730 0.523240 0.851192 0.040956 0.934407 0.764940
-37.957066 0.540787 -11.002003 -0.457869 0.872250 0.171789 0.936559 0.757425
-37.944710 0.447796 -10.970740 -0.287790 -0.054231 -0.956145 0.927660 0.759549
-37.951496 0.535590 -11.007188 0.421705 0.144414 -0.895138 0.933966 0.764978
-37.961266 0.534086 -11.007351 -0.840236 0.130039 -0.526353 0.933518 0.764671
-37.942966 0.466977 -10.962374 0.046754 0.995911 0.077120 0.928981 0.767843
-37.941246 0.354191 -10.930136 -0.423688 -0.313425 0.849818 0.923016 0.789578
-37.950840 0.355521 -10.931674 0.073397 -0.216620 0.973479 0.921333 0.789441
-37.950371 0.354788 -10.934229 0.413160 -0.521958 0.746178 0.921623 0.789112
-37.940773 0.353458 -10.932691 -0.623646 -0.499222 0.601489 0.922817 0.789143
-37.933067 0.388746 -10.912407 0.585437 0.758660 0.285714 0.925441 0.791157
-37.934090 0.359571 -10.929386 0.868252 0.496048 0.003693 0.927375 0.794717
-37.934090 0.359571 -10.929386 0.868252 0.496048 0.003693 0.923906 0.794903
-37.946175 0.185260 -10.986300 -0.499039 0.336283 -0.798639 0.937972 0.773712
-37.963470 0.186245 -10.983755 0.134465 0.328288 -0.934935 0.941188 0.773505
-37.945782 0.184980 -10.984667 -0.682455 0.624897 -0.379070 0.938336 0.774045
-37.963078 0.185974 -10.982121 0.442518 0.638295 -0.629871 0.940985 0.773741
-37.941158 0.314177 -10.927084 -0.450179 0.412061 0.792138 0.923298 0.785819
-37.953854 0.315626 -10.929153 0.258339 0.338481 0.904782 0.920940 0.785831
-37.938709 0.345371 -10.929116 -0.765984 -0.034547 0.641865 0.923733 0.788658
-37.953392 0.314876 -10.931707 0.528703 0.625202 0.574084 0.921460 0.786324
-37.940693 0.313427 -10.929640 -0.583544 0.722800 0.370128 0.923011 0.786167
-37.938236 0.344634 -10.931670 -0.835719 -0.016816 0.548845 0.923231 0.788488
-38.239136 -0.000068 -11.203109 0.879665 0.413831 0.234321 0.925356 0.753956
-38.264534 0.057169 -11.209064 0.948943 0.254311 0.186560 0.925356 0.759423
-38.316193 0.057947 -11.167696 0.119297 0.251991 0.960326 0.919194 0.759423
-38.311451 0.000086 -11.145863 0.057344 0.359813 0.931242 0.919194 0.753956
-38.372505 0.058209 -11.205534 -0.890896 0.197577 0.408948 0.913461 0.759423
-38.389069 0.000144 -11.197877 -0.891781 0.295846 0.342235 0.913461 0.753956
-38.389069 0.000144 -11.197877 -0.891781 0.295846 0.342235 0.943056 0.753956
-38.372505 0.058209 -11.205534 -0.890896 0.197577 0.408948 0.943056 0.759423
-38.355690 0.057701 -11.270279 -0.676107 0.160710 -0.719016 0.936816 0.759423
-38.364822 0.000111 -11.287254 -0.574633 0.318705 -0.753746 0.936816 0.753956
-38.313267 0.292278 -11.289398 0.226173 -0.066836 -0.971770 0.930679 0.784634
-38.289055 0.056885 -11.272437 0.457717 0.203040 -0.865566 0.930679 0.759423
-38.362434 0.170429 -11.263602 -0.583270 -0.235115 -0.777490 0.936816 0.772608
-38.361198 0.249435 -11.262283 -0.544725 0.318155 -0.775903 0.936816 0.779878
-38.358044 0.297139 -11.262052 -0.894559 0.040254 -0.445082 0.936816 0.784634
-38.272366 -0.000167 -11.290412 0.525285 0.387860 -0.757347 0.930679 0.753956
-38.302147 0.601647 -11.185949 -0.295877 0.441206 -0.847194 0.926285 0.766647
-38.297691 0.474109 -11.255800 -0.735221 0.505966 -0.450972 0.924071 0.761578
-38.301788 0.470090 -11.259722 -0.476913 0.851314 -0.218513 0.924264 0.761053
-38.318584 0.464327 -11.249421 0.007416 0.957610 -0.287912 0.925793 0.761110
-38.335403 0.456103 -11.239076 -0.970916 0.131993 0.199591 0.927324 0.761123
-38.321407 0.602922 -11.183748 -0.797418 0.309000 -0.518296 0.927686 0.766745
-38.365261 0.171847 -11.204665 -0.680746 -0.124577 0.721824 0.913461 0.771034
-38.293301 0.300142 -11.204468 0.285562 -0.046846 0.957183 0.919194 0.784634
-38.345695 0.303511 -11.209582 -0.721671 0.128361 0.680197 0.913461 0.784634
-38.354530 0.251050 -11.207367 -0.576739 0.296457 0.761193 0.913461 0.779208
-38.273270 0.291015 -11.253789 0.979400 -0.135990 -0.149052 0.925356 0.784634
-38.354530 0.251050 -11.207367 -0.576739 0.296457 0.761193 0.943056 0.779878
-38.345695 0.303511 -11.209582 -0.721671 0.128361 0.680197 0.943056 0.784634
-38.365261 0.171847 -11.204665 -0.680746 -0.124577 0.721824 0.943056 0.772608
-38.374035 0.246397 -11.215033 -0.672384 0.577441 0.463027 0.942187 0.779365
-38.382877 0.180959 -11.212771 -0.817011 -0.357036 0.452712 0.941571 0.773056
-38.374775 0.240785 -11.221117 -0.947935 -0.231056 -0.219031 0.941532 0.778677
-38.379871 0.240081 -11.253891 -0.906400 -0.227149 0.356059 0.938557 0.778614
-38.376415 0.239729 -11.253954 -0.589953 -0.539811 0.600421 0.938743 0.778402
-38.371315 0.240447 -11.221169 -0.659413 -0.520188 -0.542711 0.941170 0.778310
-38.380520 0.179795 -11.261297 -0.714286 -0.406201 -0.569842 0.937297 0.773131
-38.379509 0.245240 -11.260128 -0.681570 0.509568 -0.525101 0.938211 0.779004
-38.261688 0.600065 -11.273248 0.877285 -0.459456 0.138615 0.925478 0.769771
-38.303040 0.438722 -11.308117 0.262001 -0.294443 -0.919034 0.931501 0.764229
-38.274139 0.529582 -11.292198 0.918577 -0.320811 0.230781 0.929637 0.769907
-38.317982 0.716461 -11.459607 0.990234 0.094913 0.101840 0.928683 0.775827
-38.272823 0.552434 -11.284921 -0.737968 0.493362 -0.460402 0.928700 0.755690
-38.274139 0.529582 -11.292198 0.918577 -0.320811 0.230781 0.929359 0.755690
-38.303040 0.438722 -11.308117 0.262001 -0.294443 -0.919034 0.931011 0.755690
-38.335926 0.701132 -11.479698 0.186956 -0.318949 -0.929136 0.931180 0.775827
-38.348278 0.435626 -11.280184 -0.949767 -0.075503 -0.303690 0.936816 0.798434
-38.303040 0.438722 -11.308117 0.262001 -0.294443 -0.919034 0.930679 0.798434
-38.335876 0.468664 -11.228360 -0.790216 0.003937 0.612751 0.913461 0.798434
-38.289070 0.497503 -11.214571 0.005921 0.419416 0.907743 0.919194 0.790601
-38.283260 0.495532 -11.223508 0.583514 -0.239235 0.776025 0.919194 0.798434
-38.287109 0.567997 -11.164753 0.598834 -0.359569 0.715598 0.931910 0.767038
-38.283260 0.495532 -11.223508 0.583514 -0.239235 0.776025 0.933433 0.760992
-38.261604 0.598742 -11.258340 0.598804 -0.354015 -0.718375 0.936463 0.760125
-38.264950 0.588292 -11.258039 0.241249 -0.553056 -0.797418 0.936801 0.761148
-38.283470 0.592864 -11.187869 0.858608 0.322001 -0.398846 0.933887 0.767176
-38.256115 0.323145 -11.243457 0.975280 -0.197577 -0.098788 0.923802 0.785269
-38.271473 0.334150 -11.205527 0.615131 -0.111759 0.780450 0.920222 0.785147
-38.264637 0.470472 -11.243776 0.874996 0.235694 0.422803 0.926436 0.795257
-38.259808 0.456033 -11.250768 0.985717 -0.037202 -0.164129 0.924792 0.796031
-38.225956 0.575100 -11.246099 -0.545152 -0.284921 -0.788385 0.925252 0.792545
-38.228577 0.561749 -11.242225 -0.199469 0.081912 0.976440 0.925698 0.792295
-38.268776 0.454278 -11.264290 0.791650 0.030030 -0.610187 0.925356 0.790601
-38.276356 0.489907 -11.214868 0.256874 0.789666 0.557115 0.920843 0.790030
-38.264637 0.470472 -11.243776 0.874996 0.235694 0.422803 0.923348 0.790140
-38.260849 0.487518 -11.253053 -0.314249 0.434553 -0.844020 0.924200 0.790158
-38.259808 0.456033 -11.250768 0.985717 -0.037202 -0.164129 0.924257 0.788818
-38.335876 0.468664 -11.228360 -0.790216 0.003937 0.612751 0.943056 0.798434
-38.339195 0.447796 -11.250123 -0.971404 0.127384 0.200323 0.939648 0.798434
-38.341587 0.447400 -11.260201 -0.968474 0.121189 0.217505 0.938735 0.798434
-38.311295 0.762722 -11.104380 -0.576556 0.130650 -0.806513 0.928751 0.774784
-38.303707 0.767281 -11.103711 -0.315073 0.555162 -0.769707 0.928643 0.775039
-38.298668 0.473238 -11.273037 -0.515488 0.672353 0.531175 0.927064 0.755690
-38.334576 0.717418 -11.452125 0.024506 0.380108 0.924589 0.927054 0.775827
-38.297691 0.474109 -11.255800 -0.735221 0.505966 -0.450972 0.934869 0.772424
-38.298668 0.473238 -11.273037 -0.515488 0.672353 0.531175 0.932894 0.772276
-38.302086 0.470832 -11.268864 -0.292581 0.863338 0.411084 0.933539 0.771618
-38.301788 0.470090 -11.259722 -0.476913 0.851314 -0.218513 0.934596 0.771655
-38.335876 0.468664 -11.228360 -0.790216 0.003937 0.612751 0.929451 0.760167
-38.321007 0.566161 -11.168315 -0.670278 -0.305185 0.676412 0.929513 0.766872
-38.310715 0.748268 -11.095139 -0.682516 -0.341624 0.646077 0.929060 0.774676
-38.375591 0.845158 -11.060519 -0.817377 -0.267525 0.510178 0.928775 0.774471
-38.376247 0.853446 -11.066868 -0.836329 0.462752 -0.293924 0.928780 0.774463
-38.287922 0.745141 -11.090608 0.561480 -0.250679 0.788568 0.930423 0.774917
-38.304253 0.754860 -11.091635 -0.058168 -0.117496 0.991363 0.929195 0.774892
-38.285305 0.758019 -11.111367 0.710440 0.152501 -0.687002 0.931830 0.775130
-38.214237 1.157410 -11.083161 0.641407 0.433424 -0.632984 0.929621 0.791397
-38.214729 1.155834 -11.071503 0.681021 0.254799 0.686453 0.929519 0.791383
-38.370678 0.850107 -11.059510 0.132511 0.387005 0.912473 0.928775 0.774456
-38.370602 0.856631 -11.066587 0.108585 0.986908 -0.119144 0.928776 0.774461
-38.223751 1.163965 -11.080032 -0.372173 0.872707 -0.315958 0.929638 0.791490
-38.223568 1.160655 -11.072736 -0.348674 0.652486 0.672781 0.929527 0.791425
-38.285305 0.758019 -11.111367 0.710440 0.152501 -0.687002 0.927297 0.774962
-38.307537 1.250584 -11.537382 0.164861 0.254952 -0.952788 0.929974 0.784652
-38.300808 1.257328 -11.529270 0.721946 0.674429 -0.154515 0.929317 0.784593
-38.264950 0.588292 -11.258039 0.241249 -0.553056 -0.797418 0.921027 0.761672
-38.283470 0.592864 -11.187869 0.858608 0.322001 -0.398846 0.924850 0.766547
-38.348278 0.435626 -11.280184 -0.949767 -0.075503 -0.303690 0.934113 0.755690
-38.362209 0.706386 -11.463575 -0.905576 -0.144139 -0.398877 0.934025 0.775827
-38.357384 0.722218 -11.449134 -0.601123 0.282846 0.747398 0.924906 0.775827
-38.339973 0.463986 -11.265557 -0.997253 0.068789 -0.027161 0.924828 0.755690
-38.321030 0.468385 -11.267209 0.218848 0.905667 0.363079 0.925840 0.755690
-38.302086 0.470832 -11.268864 -0.292581 0.863338 0.411084 0.926829 0.755690
-38.306870 1.258789 -11.522911 0.260048 0.745293 0.613880 0.928743 0.785458
-38.320995 1.253178 -11.529160 -0.849910 0.373730 -0.371410 0.931152 0.785710
-38.315647 1.261064 -11.524154 -0.397534 0.885830 0.239235 0.929363 0.797726
-38.357384 0.722218 -11.449134 -0.601123 0.282846 0.747398 0.935536 0.775827
-38.261688 0.600065 -11.273248 0.877285 -0.459456 0.138615 0.925356 0.798434
-38.341587 0.447400 -11.260201 -0.968474 0.121189 0.217505 0.935423 0.755690
-38.339973 0.463986 -11.265557 -0.997253 0.068789 -0.027161 0.935701 0.755690
-38.272823 0.552434 -11.284921 -0.737968 0.493362 -0.460402 0.929357 0.772733
-38.264950 0.588292 -11.258039 0.241249 -0.553056 -0.797418 0.926056 0.773663
-38.257648 0.582439 -11.262718 -0.837336 0.401227 -0.371288 0.926497 0.772688
-38.264256 0.568943 -11.285279 -0.873745 0.425001 -0.236488 0.928256 0.771926
-38.321030 0.468385 -11.267209 0.218848 0.905667 0.363079 0.933852 0.769458
-38.318584 0.464327 -11.249421 0.007416 0.957610 -0.287912 0.935831 0.769797
-38.230701 0.588790 -11.274303 0.308939 -0.480758 -0.820582 0.929632 0.779130
-38.227055 0.578926 -11.254108 0.726951 -0.613453 0.308512 0.927547 0.779349
-38.261688 0.600065 -11.273248 0.877285 -0.459456 0.138615 0.936957 0.758910
-38.254841 0.600285 -11.262977 -0.674734 -0.426923 -0.602008 0.925778 0.771916
-38.254917 0.610945 -11.275469 -0.348064 -0.911191 0.220344 0.926348 0.770793
-38.265358 0.557442 -11.291386 0.824366 -0.275124 -0.494644 0.928463 0.770773
-38.261604 0.598742 -11.258340 0.598804 -0.354015 -0.718375 0.924728 0.772202
-38.243984 0.624238 -11.266193 -0.821253 0.286355 -0.493454 0.932143 0.780155
-38.189262 0.840034 -11.257405 -0.788354 0.324870 -0.522416 0.931917 0.795229
-38.179939 0.827811 -11.261336 0.385296 -0.117130 -0.915311 0.931046 0.795029
-38.244331 0.619889 -11.253352 -0.632008 0.133763 0.763298 0.933606 0.780113
-38.297691 0.474109 -11.255800 -0.735221 0.505966 -0.450972 0.921842 0.774374
-38.244331 0.619889 -11.253352 -0.632008 0.133763 0.763298 0.925162 0.781075
-38.189034 0.837800 -11.251092 -0.648274 0.210456 0.731712 0.929691 0.795396
-38.177219 0.823835 -11.251528 0.759514 -0.247505 0.601520 0.930275 0.795128
-38.120609 0.938726 -11.248952 0.861324 -0.022889 0.507492 0.931344 0.797013
-38.132351 0.952850 -11.248531 -0.068819 0.747826 0.660268 0.930882 0.796552
-38.189034 0.837800 -11.251092 -0.648274 0.210456 0.731712 0.932316 0.795251
-38.123314 0.942688 -11.258765 0.642628 0.250343 -0.724082 0.939239 0.760662
-38.132595 0.955108 -11.254825 -0.114902 0.915372 -0.385784 0.939290 0.760840
-38.132351 0.952850 -11.248531 -0.068819 0.747826 0.660268 0.939613 0.760985
-38.120609 0.938726 -11.248952 0.861324 -0.022889 0.507492 0.939166 0.760510
-38.189262 0.840034 -11.257405 -0.788354 0.324870 -0.522416 0.938539 0.762277
-38.189034 0.837800 -11.251092 -0.648274 0.210456 0.731712 0.938141 0.762242
-38.132595 0.955108 -11.254825 -0.114902 0.915372 -0.385784 0.931209 0.796687
-38.123314 0.942688 -11.258765 0.642628 0.250343 -0.724082 0.931266 0.796864
-38.335403 0.456103 -11.239076 -0.970916 0.131993 0.199591 0.931283 0.768120
-38.339973 0.463986 -11.265557 -0.997253 0.068789 -0.027161 0.932954 0.768733
-38.341587 0.447400 -11.260201 -0.968474 0.121189 0.217505 0.932210 0.769740
-38.339195 0.447796 -11.250123 -0.971404 0.127384 0.200323 0.931582 0.769460
-38.399174 0.542605 -11.252329 0.016663 0.879940 -0.474746 0.934407 0.764940
-38.398041 0.540787 -11.240989 0.183050 0.846339 0.500137 0.936559 0.757425
-38.339195 0.447796 -11.250123 -0.971404 0.127384 0.200323 0.927660 0.759549
-38.409328 0.535590 -11.253006 -0.848048 0.128544 -0.514054 0.933966 0.764978
-38.407558 0.534086 -11.235901 -0.691671 0.129154 0.710532 0.933518 0.764671
-38.318584 0.464327 -11.249421 0.007416 0.957610 -0.287912 0.928981 0.767843
-38.265614 0.449017 -11.239100 0.861080 -0.113224 0.495651 0.923016 0.789578
-38.273064 0.448678 -11.220638 0.975097 -0.093875 0.200903 0.921333 0.789441
-38.277950 0.443586 -11.222741 0.944700 -0.245094 -0.217780 0.921623 0.789112
-38.270500 0.433772 -11.241210 0.764183 -0.180059 0.619312 0.922817 0.789143
-38.226467 0.568717 -11.247346 -0.494156 0.075594 -0.866054 0.925441 0.791157
-38.260849 0.487518 -11.253053 -0.314249 0.434553 -0.844020 0.927375 0.794717
-38.260849 0.487518 -11.253053 -0.314249 0.434553 -0.844020 0.923906 0.794903
-38.380043 0.185260 -11.254885 -0.893521 0.343852 0.288705 0.937972 0.773712
-38.382851 0.186245 -11.219178 -0.883419 0.358745 -0.301340 0.941188 0.773505
-38.376602 0.184980 -11.254924 -0.537126 0.606891 0.585772 0.938336 0.774045
-38.379406 0.185974 -11.219217 -0.519791 0.620808 -0.586810 0.940985 0.773741
-38.259476 0.336193 -11.237882 0.479232 0.371868 0.794977 0.923298 0.785819
-38.269402 0.335356 -11.213470 0.926969 0.337138 -0.164281 0.920940 0.785831
-38.262417 0.439690 -11.243703 0.718802 -0.073458 0.691275 0.923733 0.788658
-38.274292 0.332557 -11.215558 0.547777 0.686361 -0.478317 0.921460 0.786324
-38.264370 0.329459 -11.239978 0.112522 0.831904 0.543321 0.923011 0.786167
-38.267303 0.424443 -11.245813 0.333384 0.016541 0.942625 0.923231 0.788488
4 0 1 2 3
4 3 2 4 5
4 6 7 8 9
3 10 11 8
3 8 12 13
3 13 14 10
3 8 13 10
4 9 8 11 15
4 1 0 15 11
3 16 17 18
3 19 20 21
3 16 18 19
3 19 21 16
3 22 4 2
3 2 23 24
3 24 25 22
3 2 24 22
4 1 11 10 26
4 2 1 26 23
4 13 27 28 14
4 8 7 29 12
4 29 27 30 31
4 32 33 34 35
4 13 12 36 37
4 12 29 31 36
4 27 13 37 30
3 38 39 40
3 41 42 43
3 43 44 45
3 43 45 41
4 10 14 46 47
3 48 24 23
3 49 50 48
3 23 49 48
3 51 52 53
3 53 54 55
3 53 55 51
4 23 26 56 57
4 58 59 60 61
3 62 63 49
3 49 64 65
3 49 65 62
3 56 26 63
3 63 62 66
3 63 66 56
4 49 23 57 64
3 46 14 28
3 28 67 68
3 68 69 46
3 28 68 46
4 16 21 70 71
4 72 42 41 73
4 74 75 76 77
4 78 52 51 79
4 70 80 81 82
3 80 79 51
3 51 83 84
3 51 84 80
4 21 79 80 70
4 51 55 85 83
4 83 85 86 87
4 88 89 82 81
4 71 70 82 89
4 84 71 89 88
4 80 84 88 81
4 87 86 90 91
4 92 71 90 86
4 84 83 87 91
4 71 84 91 90
4 41 45 93 94
4 95 17 16 96
4 44 97 98 45
3 99 100 101
3 101 102 72
3 72 73 99
3 101 72 99
3 103 94 93
3 93 104 105
3 93 105 103
4 98 106 105 104
4 45 98 104 93
4 73 41 94 103
3 63 26 10
3 10 47 107
3 10 107 63
3 98 97 108
3 108 109 106
3 108 106 98
4 96 16 71 92
4 99 73 103 105
4 110 111 112 113
4 76 114 115 77
4 111 110 116 117
3 52 118 53
4 49 63 107 50
3 119 113 112
3 112 120 121
3 112 121 119
4 38 40 119 121
4 111 122 120 112
4 40 110 113 119
4 122 38 121 120
4 116 123 124 125
4 110 75 123 116
4 75 74 126 123
4 127 111 117 128
4 129 130 131 132
4 117 116 125 130
4 128 117 130 129
4 123 126 133 124
4 134 135 136 137
4 138 139 136 135
4 125 124 140 141
4 130 125 141 131
4 142 143 144 145
4 115 114 146 147
3 21 20 148
3 148 78 79
3 148 79 21
4 146 149 150 147
4 114 143 149 146
4 143 142 150 149
4 142 151 147 150
4 152 153 154 155
3 61 60 156
4 157 58 61 156
4 59 158 156 60
4 159 33 37 36
4 32 160 31 30
4 160 159 36 31
4 33 32 30 37
4 161 162 35 34
4 160 32 35 162
4 159 160 162 161
4 33 159 161 34
4 163 164 57 56
4 164 153 64 57
4 153 152 65 64
4 165 163 56 66
4 152 165 66 65
3 154 166 167
3 167 168 155
3 167 155 154
4 164 163 167 166
4 163 165 168 167
4 153 164 166 154
4 165 152 155 168
4 169 170 171 172
4 172 171 173 174
4 175 176 177 178
3 179 180 177
3 177 181 182
3 182 183 179
3 177 182 179
4 178 177 180 184
4 184 180 170 169
3 185 186 187
3 188 189 190
3 185 187 188
3 188 190 185
3 191 173 171
3 171 192 193
3 193 194 191
3 171 193 191
4 170 180 179 195
4 171 170 195 192
4 182 196 197 183
4 177 176 198 181
4 198 196 199 200
4 201 202 203 204
4 182 181 205 206
4 181 198 200 205
4 196 182 206 199
3 207 208 209
3 210 211 212
3 212 213 214
3 212 214 210
4 179 183 215 216
3 217 193 192
3 217 192 218
3 218 219 217
3 220 221 222
3 223 224 220
3 222 223 220
4 192 195 225 226
4 227 228 229 230
3 231 218 232
3 233 234 231
3 231 232 233
3 225 195 231
3 231 234 235
3 231 235 225
4 218 192 226 232
3 215 183 197
3 197 236 237
3 237 238 215
3 197 237 215
4 185 190 239 240
4 241 211 210 242
4 243 244 245 246
4 247 221 220 248
4 239 249 250 251
3 249 248 220
3 220 252 253
3 220 253 249
4 190 248 249 239
4 220 224 254 252
4 252 254 255 256
4 257 258 251 250
4 240 239 251 258
4 253 240 258 257
4 249 253 257 250
4 256 255 259 260
4 261 240 259 255
4 253 252 256 260
4 240 253 260 259
4 210 214 262 263
4 264 186 185 265
4 213 266 267 214
3 268 269 270
3 270 271 241
3 241 242 268
3 270 241 268
3 272 263 262
3 262 273 274
3 262 274 272
4 267 275 274 273
4 214 267 273 262
4 242 210 263 272
3 231 195 179
3 179 216 276
3 179 276 231
3 267 266 277
3 277 278 275
3 277 275 267
4 265 185 240 261
4 268 242 272 274
4 279 280 281 282
4 245 283 284 246
4 280 279 285 286
3 221 287 222
4 218 231 276 219
3 282 281 288
3 289 290 282
3 282 288 289
4 207 209 290 289
4 280 291 288 281
4 209 279 282 290
4 291 207 289 288
4 285 292 293 294
4 279 244 292 285
4 244 243 295 292
4 296 280 286 297
4 298 299 300 301
4 286 285 294 299
4 297 286 299 298
4 292 295 302 293
4 303 304 305 306
4 307 308 305 304
4 294 293 309 310
4 299 294 310 300
4 311 312 313 314
4 284 283 315 316
3 317 247 248
3 248 190 189
3 189 317 248
4 315 318 319 316
4 283 312 318 315
4 312 311 319 318
4 311 320 316 319
4 321 322 323 324
3 230 229 325
4 326 227 230 325
4 228 327 325 229
4 328 202 206 205
4 201 329 200 199
4 329 328 205 200
4 202 201 199 206
4 330 331 204 203
4 329 201 204 331
4 328 329 331 330
4 202 328 330 203
4 332 333 226 225
4 333 322 232 226
4 322 321 233 232
4 334 332 225 235
4 321 334 235 233
3 323 335 336
3 336 337 324
3 336 324 323
4 333 332 336 335
4 332 334 337 336
4 322 333 335 323
4 334 321 324 337
