ply
format ascii 1.0
comment Created by Blender 2.78 (sub 0) - www.blender.org, source file: 'soult.blend'
element vertex 96
property float x
property float y
property float z
property float nx
property float ny
property float nz
property float s
property float t
element face 24
property list uchar uint vertex_indices
end_header
-33.017529 -0.000000 -8.028012 0.000000 -0.000000 -1.000000 0.000100 0.000100
-34.457527 -0.000000 -8.028012 0.000000 -0.000000 -1.000000 0.999900 0.000100
-34.457527 1.600000 -8.028012 0.000000 -0.000000 -1.000000 0.999900 0.999900
-33.017529 1.600000 -8.028012 0.000000 -0.000000 -1.000000 0.000100 0.999900
-33.737526 -0.000000 -8.748013 -1.000000 -0.000000 0.000000 0.000100 0.000100
-33.737526 -0.000000 -7.308012 -1.000000 -0.000000 0.000000 0.999900 0.000100
-33.737526 1.600000 -7.308012 -1.000000 -0.000000 0.000000 0.999900 0.999900
-33.737526 1.600000 -8.748013 -1.000000 -0.000000 0.000000 0.000100 0.999900
-33.737526 1.024183 -8.748013 0.000000 1.000000 -0.000000 0.131614 0.951602
-34.457527 1.024183 -8.028012 0.000000 1.000000 -0.000000 0.858591 0.998603
-33.737526 1.024183 -7.308012 0.000000 1.000000 -0.000000 0.905591 0.271626
-33.017529 1.024183 -8.028012 0.000000 1.000000 -0.000000 0.178614 0.224625
-32.661530 -0.000000 -8.662132 0.000000 -0.000000 -1.000000 0.000100 0.000100
-34.101532 -0.000000 -8.662132 0.000000 -0.000000 -1.000000 0.999900 0.000100
-34.101532 1.600000 -8.662132 0.000000 -0.000000 -1.000000 0.999900 0.999900
-32.661530 1.600000 -8.662132 0.000000 -0.000000 -1.000000 0.000100 0.999900
-33.381531 -0.000000 -9.382133 -1.000000 -0.000000 0.000000 0.000100 0.000100
-33.381531 -0.000000 -7.942132 -1.000000 -0.000000 0.000000 0.999900 0.000100
-33.381531 1.600000 -7.942133 -1.000000 -0.000000 0.000000 0.999900 0.999900
-33.381531 1.600000 -9.382133 -1.000000 -0.000000 0.000000 0.000100 0.999900
-33.381531 1.024183 -9.382133 0.000000 1.000000 -0.000000 0.131614 0.951602
-34.101532 1.024183 -8.662132 0.000000 1.000000 -0.000000 0.858591 0.998603
-33.381531 1.024183 -7.942133 0.000000 1.000000 -0.000000 0.905591 0.271626
-32.661530 1.024183 -8.662132 0.000000 1.000000 -0.000000 0.178614 0.224625
-32.249908 -0.000000 -9.351877 0.000000 -0.000000 -1.000000 0.000100 0.000100
-33.689911 -0.000000 -9.351877 0.000000 -0.000000 -1.000000 0.999900 0.000100
-33.689911 1.600000 -9.351877 0.000000 -0.000000 -1.000000 0.999900 0.999900
-32.249908 1.600000 -9.351877 0.000000 -0.000000 -1.000000 0.000100 0.999900
-32.969910 -0.000000 -10.071877 -1.000000 -0.000000 0.000000 0.000100 0.000100
-32.969910 -0.000000 -8.631878 -1.000000 -0.000000 0.000000 0.999900 0.000100
-32.969910 1.600000 -8.631878 -1.000000 -0.000000 0.000000 0.999900 0.999900
-32.969910 1.600000 -10.071878 -1.000000 -0.000000 0.000000 0.000100 0.999900
-32.969910 1.024183 -10.071878 0.000000 1.000000 -0.000000 0.131614 0.951602
-33.689911 1.024183 -9.351877 0.000000 1.000000 -0.000000 0.858591 0.998603
-32.969910 1.024183 -8.631878 0.000000 1.000000 -0.000000 0.905591 0.271626
-32.249908 1.024183 -9.351877 0.000000 1.000000 -0.000000 0.178614 0.224625
-31.882788 -0.000000 -9.952623 0.000000 -0.000000 -1.000000 0.000100 0.000100
-33.322784 -0.000000 -9.952623 0.000000 -0.000000 -1.000000 0.999900 0.000100
-33.322784 1.600000 -9.952623 0.000000 -0.000000 -1.000000 0.999900 0.999900
-31.882788 1.600000 -9.952623 0.000000 -0.000000 -1.000000 0.000100 0.999900
-32.602787 -0.000000 -10.672623 -1.000000 -0.000000 0.000000 0.000100 0.000100
-32.602787 -0.000000 -9.232623 -1.000000 -0.000000 0.000000 0.999900 0.000100
-32.602787 1.600000 -9.232624 -1.000000 -0.000000 0.000000 0.999900 0.999900
-32.602787 1.600000 -10.672624 -1.000000 -0.000000 0.000000 0.000100 0.999900
-32.602787 1.024183 -10.672624 0.000000 1.000000 -0.000000 0.131614 0.951602
-33.322784 1.024183 -9.952623 0.000000 1.000000 -0.000000 0.858591 0.998603
-32.602787 1.024183 -9.232624 0.000000 1.000000 -0.000000 0.905591 0.271626
-31.882788 1.024183 -9.952623 0.000000 1.000000 -0.000000 0.178614 0.224625
-31.482290 -0.000000 -10.620119 0.000000 -0.000000 -1.000000 0.000100 0.000100
-32.922287 -0.000000 -10.620119 0.000000 -0.000000 -1.000000 0.999900 0.000100
-32.922287 1.600000 -10.620119 0.000000 -0.000000 -1.000000 0.999900 0.999900
-31.482290 1.600000 -10.620119 0.000000 -0.000000 -1.000000 0.000100 0.999900
-32.202290 -0.000000 -11.340118 -1.000000 -0.000000 0.000000 0.000100 0.000100
-32.202290 -0.000000 -9.900118 -1.000000 -0.000000 0.000000 0.999900 0.000100
-32.202290 1.600000 -9.900119 -1.000000 -0.000000 0.000000 0.999900 0.999900
-32.202290 1.600000 -11.340118 -1.000000 -0.000000 0.000000 0.000100 0.999900
-32.202290 1.024183 -11.340118 0.000000 1.000000 -0.000000 0.131614 0.951602
-32.922287 1.024183 -10.620119 0.000000 1.000000 -0.000000 0.858591 0.998603
-32.202290 1.024183 -9.900119 0.000000 1.000000 -0.000000 0.905591 0.271626
-31.482290 1.024183 -10.620119 0.000000 1.000000 -0.000000 0.178614 0.224625
-31.115168 -0.000000 -11.254239 0.000000 -0.000000 -1.000000 0.000100 0.000100
-32.555168 -0.000000 -11.254239 0.000000 -0.000000 -1.000000 0.999900 0.000100
-32.555168 1.600000 -11.254239 0.000000 -0.000000 -1.000000 0.999900 0.999900
-31.115168 1.600000 -11.254239 0.000000 -0.000000 -1.000000 0.000100 0.999900
-31.835167 -0.000000 -11.974238 -1.000000 -0.000000 0.000000 0.000100 0.000100
-31.835167 -0.000000 -10.534239 -1.000000 -0.000000 0.000000 0.999900 0.000100
-31.835167 1.600000 -10.534239 -1.000000 -0.000000 0.000000 0.999900 0.999900
-31.835167 1.600000 -11.974238 -1.000000 -0.000000 0.000000 0.000100 0.999900
-31.835167 1.024183 -11.974238 0.000000 1.000000 -0.000000 0.131614 0.951602
-32.555168 1.024183 -11.254239 0.000000 1.000000 -0.000000 0.858591 0.998603
-31.835167 1.024183 -10.534239 0.000000 1.000000 -0.000000 0.905591 0.271626
-31.115168 1.024183 -11.254239 0.000000 1.000000 -0.000000 0.178614 0.224625
-31.048418 -0.000000 -12.689354 0.000000 -0.000000 -1.000000 0.000100 0.000100
-32.488419 -0.000000 -12.689354 0.000000 -0.000000 -1.000000 0.999900 0.000100
-32.488419 1.600000 -12.689354 0.000000 -0.000000 -1.000000 0.999900 0.999900
-31.048418 1.600000 -12.689354 0.000000 -0.000000 -1.000000 0.000100 0.999900
-31.768417 -0.000000 -13.409353 -1.000000 -0.000000 0.000000 0.000100 0.000100
-31.768417 -0.000000 -11.969354 -1.000000 -0.000000 0.000000 0.999900 0.000100
-31.768417 1.600000 -11.969354 -1.000000 -0.000000 0.000000 0.999900 0.999900
-31.768417 1.600000 -13.409353 -1.000000 -0.000000 0.000000 0.000100 0.999900
-31.768417 1.024183 -13.409353 0.000000 1.000000 -0.000000 0.131614 0.951602
-32.488419 1.024183 -12.689354 0.000000 1.000000 -0.000000 0.858591 0.998603
-31.768417 1.024183 -11.969354 0.000000 1.000000 -0.000000 0.905591 0.271626
-31.048418 1.024183 -12.689354 0.000000 1.000000 -0.000000 0.178614 0.224625
-31.715914 -0.000000 -13.045351 0.000000 -0.000000 -1.000000 0.000100 0.000100
-33.155914 -0.000000 -13.045351 0.000000 -0.000000 -1.000000 0.999900 0.000100
-33.155914 1.600000 -13.045351 0.000000 -0.000000 -1.000000 0.999900 0.999900
-31.715914 1.600000 -13.045351 0.000000 -0.000000 -1.000000 0.000100 0.999900
-32.435913 -0.000000 -13.765350 -1.000000 -0.000000 0.000000 0.000100 0.000100
-32.435913 -0.000000 -12.325351 -1.000000 -0.000000 0.000000 0.999900 0.000100
-32.435913 1.600000 -12.325351 -1.000000 -0.000000 0.000000 0.999900 0.999900
-32.435913 1.600000 -13.765350 -1.000000 -0.000000 0.000000 0.000100 0.999900
-32.435913 1.024183 -13.765350 0.000000 1.000000 -0.000000 0.131614 0.951602
-33.155914 1.024183 -13.045351 0.000000 1.000000 -0.000000 0.858591 0.998603
-32.435913 1.024183 -12.325351 0.000000 1.000000 -0.000000 0.905591 0.271626
-31.715914 1.024183 -13.045351 0.000000 1.000000 -0.000000 0.178614 0.224625
4 0 1 2 3
4 4 5 6 7
4 8 9 10 11
4 12 13 14 15
4 16 17 18 19
4 20 21 22 23
4 24 25 26 27
4 28 29 30 31
4 32 33 34 35
4 36 37 38 39
4 40 41 42 43
4 44 45 46 47
4 48 49 50 51
4 52 53 54 55
4 56 57 58 59
4 60 61 62 63
4 64 65 66 67
4 68 69 70 71
4 72 73 74 75
4 76 77 78 79
4 80 81 82 83
4 84 85 86 87
4 88 89 90 91
4 92 93 94 95
