ply
format ascii 1.0
comment Created by Blender 2.78 (sub 0) - www.blender.org, source file: 'soult.blend'
element vertex 38
property float x
property float y
property float z
property float nx
property float ny
property float nz
element face 14
property list uchar uint vertex_indices
end_header
-28.784750 -0.000000 -16.066088 -0.000000 -1.000000 0.000000
-29.212515 -0.000000 -16.313332 -0.000000 -1.000000 0.000000
-32.223709 -0.000000 -18.066809 -0.000000 -1.000000 0.000000
-32.223709 -0.000000 -18.066809 -0.503217 0.000000 0.864160
-32.223709 -0.500000 -18.066809 -0.503217 0.000000 0.864160
-29.212515 -0.500000 -16.313332 -0.503217 0.000000 0.864160
-29.212515 -0.500000 -16.313332 -0.500415 0.000000 0.865785
-28.784750 -0.500000 -16.066088 -0.500415 0.000000 0.865785
-28.784750 -0.000000 -16.066088 -0.500415 0.000000 0.865785
-32.223709 -0.000000 -18.066809 -0.502868 0.002803 0.864359
-29.212515 -0.500000 -16.313332 -0.502868 0.002803 0.864359
-28.784750 -0.000000 -16.066088 -0.502868 0.002803 0.864359
-37.266396 -0.000000 -9.251740 0.868010 0.000000 0.496547
-37.266396 -0.500000 -9.251740 0.868010 0.000000 0.496547
-32.223709 -0.500000 -18.066809 0.868010 0.000000 0.496547
-32.223709 -0.000000 -18.066809 0.868010 0.000000 0.496547
-33.871758 -0.500000 -7.243611 0.000000 -1.000000 0.000000
-34.299522 -0.500000 -7.490854 0.000000 -1.000000 0.000000
-37.266396 -0.500000 -9.251740 0.000000 -1.000000 0.000000
-37.266396 -0.500000 -9.251740 0.510390 0.000000 -0.859943
-37.266396 -0.000000 -9.251740 0.510390 0.000000 -0.859943
-34.299522 0.000000 -7.490854 0.510390 0.000000 -0.859943
-34.299522 0.000000 -7.490854 0.500415 0.000000 -0.865786
-33.871758 -0.000000 -7.243611 0.500415 0.000000 -0.865786
-33.871758 -0.500000 -7.243611 0.500415 0.000000 -0.865786
-37.266396 -0.500000 -9.251740 0.509119 0.009992 -0.860638
-34.299522 0.000000 -7.490854 0.509119 0.009992 -0.860638
-33.871758 -0.500000 -7.243611 0.509119 0.009992 -0.860638
-33.871758 -0.500000 -7.243611 -0.866308 0.000000 -0.499510
-33.871758 -0.000000 -7.243611 -0.866308 0.000000 -0.499510
-28.784750 -0.000000 -16.066088 -0.866308 0.000000 -0.499510
-28.784750 -0.500000 -16.066088 -0.866308 0.000000 -0.499510
-29.212515 -0.500000 -16.313332 -0.000000 1.000000 0.000000
-32.223709 -0.500000 -18.066809 -0.000000 1.000000 0.000000
-37.266396 -0.500000 -9.251740 -0.000000 1.000000 0.000000
-34.299522 -0.500000 -7.490854 0.000000 1.000000 0.000000
-33.871758 -0.500000 -7.243611 0.000000 1.000000 0.000000
-28.784750 -0.500000 -16.066088 0.000000 1.000000 -0.000000
3 0 1 2
3 3 4 5
3 6 7 8
3 9 10 11
4 12 13 14 15
3 16 17 18
3 19 20 21
3 22 23 24
3 25 26 27
4 28 29 30 31
3 32 33 34
3 34 35 36
3 36 37 32
3 32 34 36
