ply
format ascii 1.0
comment Created by Blender 2.78 (sub 0) - www.blender.org, source file: 'soult.blend'
element vertex 4
property float x
property float y
property float z
property float nx
property float ny
property float nz
element face 1
property list uchar uint vertex_indices
end_header
-33.834549 0.000000 -8.286122 -0.000000 1.000000 -0.000000
-30.494728 0.000000 -14.099627 -0.000000 1.000000 -0.000000
-33.488071 0.000000 -15.819283 -0.000000 1.000000 -0.000000
-36.827896 0.000000 -10.005778 -0.000000 1.000000 -0.000000
4 0 1 2 3
