ply
format ascii 1.0
comment Created by Blender 2.78 (sub 0) - www.blender.org, source file: 'soult.blend'
element vertex 4
property float x
property float y
property float z
property float nx
property float ny
property float nz
element face 1
property list uchar uint vertex_indices
end_header
-34.299522 -0.000000 -7.490853 0.000000 1.000000 0.000000
-31.325783 -0.000000 -12.656118 0.000000 1.000000 0.000000
-34.568691 0.000000 -13.940937 0.000000 1.000000 0.000000
-37.266396 0.000000 -9.251742 0.000000 1.000000 0.000000
4 0 1 2 3
