ply
format ascii 1.0
comment Created by Blender 2.78 (sub 0) - www.blender.org, source file: 'soult.blend'
element vertex 579
property float x
property float y
property float z
property float nx
property float ny
property float nz
property float s
property float t
element face 172
property list uchar uint vertex_indices
end_header
-35.137993 -0.000005 -8.380568 0.000019 1.000000 -0.000022 0.277191 0.283521
-35.043224 -0.000011 -8.540229 0.000019 1.000000 -0.000022 0.253534 0.283521
-37.019112 0.000000 -9.723001 0.000019 1.000000 -0.000022 0.253534 0.035972
-37.019112 0.000000 -9.723001 0.000000 1.000000 0.000000 0.253534 0.035972
-37.025505 0.000000 -9.711736 0.000000 1.000000 0.000000 0.257712 0.036388
-35.232758 -0.000000 -8.220906 0.000000 1.000000 0.000000 0.303352 0.283521
-35.232758 -0.000000 -8.220906 0.000019 1.000000 -0.000022 0.303352 0.283521
-34.496029 -0.000000 -8.316586 0.000000 1.000000 0.000000 0.102491 0.353184
-34.633945 -0.000000 -8.080234 0.000000 1.000000 0.000000 0.133443 0.353184
-34.131325 -0.000000 -7.783010 0.000000 1.000000 0.000000 0.133443 0.419528
-33.995098 -0.000000 -8.019627 0.000000 1.000000 0.000000 0.102491 0.419528
-34.087021 -0.000000 -9.021160 0.000000 1.000000 0.000000 0.135432 0.353184
-34.220192 -0.000000 -8.789293 0.000000 1.000000 0.000000 0.166384 0.353184
-33.722645 -0.000000 -8.492859 0.000000 1.000000 0.000000 0.166384 0.419528
-33.588619 -0.000000 -8.725657 0.000000 1.000000 0.000000 0.135432 0.419528
-31.958643 -0.000000 -12.726393 0.000000 1.000000 0.000000 0.135432 0.353184
-32.089420 -0.000000 -12.499163 0.000000 1.000000 0.000000 0.166384 0.353184
-31.578238 -0.000000 -12.217615 0.000000 1.000000 0.000000 0.166384 0.419528
-31.440327 -0.000000 -12.457163 0.000000 1.000000 0.000000 0.135432 0.419528
-32.089420 -0.000000 -12.499163 0.000000 1.000000 0.000000 0.069996 0.353184
-32.222595 -0.000000 -12.267296 0.000000 1.000000 0.000000 0.100949 0.353184
-31.712263 -0.000000 -11.984818 0.000000 1.000000 0.000000 0.100949 0.419528
-31.578238 -0.000000 -12.217615 0.000000 1.000000 0.000000 0.069996 0.419528
-32.222595 -0.000000 -12.267296 0.000000 1.000000 0.000000 0.135432 0.353184
-32.355770 -0.000000 -12.035429 0.000000 1.000000 0.000000 0.166384 0.353184
-31.846289 -0.000000 -11.752020 0.000000 1.000000 0.000000 0.166384 0.419528
-31.712263 -0.000000 -11.984818 0.000000 1.000000 0.000000 0.135432 0.419528
-32.355770 -0.000000 -12.035429 0.000000 1.000000 0.000000 0.102491 0.353184
-32.488941 -0.000000 -11.803562 0.000000 1.000000 0.000000 0.133443 0.353184
-31.980314 -0.000000 -11.519222 0.000000 1.000000 0.000000 0.133443 0.419528
-31.846289 -0.000000 -11.752020 0.000000 1.000000 0.000000 0.102491 0.419528
-32.488941 -0.000000 -11.803562 0.000000 1.000000 0.000000 0.069996 0.353184
-32.622116 -0.000000 -11.571693 0.000000 1.000000 0.000000 0.100949 0.353184
-32.114338 -0.000000 -11.286425 0.000000 1.000000 0.000000 0.100949 0.419528
-31.980314 -0.000000 -11.519222 0.000000 1.000000 0.000000 0.069996 0.419528
-32.622116 -0.000000 -11.571693 0.000000 1.000000 0.000000 0.135432 0.353184
-32.755287 -0.000000 -11.339827 0.000000 1.000000 0.000000 0.166384 0.353184
-32.248363 -0.000000 -11.053627 0.000000 1.000000 0.000000 0.166384 0.419528
-32.114338 -0.000000 -11.286425 0.000000 1.000000 0.000000 0.135432 0.419528
-32.755287 -0.000000 -11.339827 0.000000 1.000000 0.000000 0.102491 0.353184
-32.888458 -0.000000 -11.107961 0.000000 1.000000 0.000000 0.133443 0.353184
-32.382389 -0.000000 -10.820830 0.000000 1.000000 0.000000 0.133443 0.419528
-32.248363 -0.000000 -11.053627 0.000000 1.000000 0.000000 0.102491 0.419528
-32.888458 -0.000000 -11.107961 0.000000 1.000000 0.000000 0.135432 0.353184
-33.021637 -0.000000 -10.876095 0.000000 1.000000 0.000000 0.166384 0.353184
-32.516415 -0.000000 -10.588034 0.000000 1.000000 0.000000 0.166384 0.419528
-32.382389 -0.000000 -10.820830 0.000000 1.000000 0.000000 0.135432 0.419528
-33.021637 -0.000000 -10.876095 0.000000 1.000000 0.000000 0.069996 0.353184
-33.154808 -0.000000 -10.644228 0.000000 1.000000 0.000000 0.100949 0.353184
-32.650440 -0.000000 -10.355236 0.000000 1.000000 0.000000 0.100949 0.419528
-32.516415 -0.000000 -10.588034 0.000000 1.000000 0.000000 0.069996 0.419528
-33.154808 -0.000000 -10.644228 0.000000 1.000000 0.000000 0.102491 0.353184
-33.287979 -0.000000 -10.412360 0.000000 1.000000 0.000000 0.133443 0.353184
-32.784466 -0.000000 -10.122438 0.000000 1.000000 0.000000 0.133443 0.419528
-32.650440 -0.000000 -10.355236 0.000000 1.000000 0.000000 0.102491 0.419528
-33.287979 -0.000000 -10.412360 0.000000 1.000000 0.000000 0.135432 0.353184
-33.421158 -0.000000 -10.180494 0.000000 1.000000 0.000000 0.166384 0.353184
-32.918491 -0.000000 -9.889642 0.000000 1.000000 0.000000 0.166384 0.419528
-32.784466 -0.000000 -10.122438 0.000000 1.000000 0.000000 0.135432 0.419528
-33.421158 -0.000000 -10.180494 0.000000 1.000000 0.000000 0.069996 0.353184
-33.554329 -0.000000 -9.948627 0.000000 1.000000 0.000000 0.100949 0.353184
-33.052517 -0.000000 -9.656845 0.000000 1.000000 0.000000 0.100949 0.419528
-32.918491 -0.000000 -9.889642 0.000000 1.000000 0.000000 0.069996 0.419528
-33.554329 -0.000000 -9.948627 0.000000 1.000000 0.000000 0.102491 0.353184
-33.687500 -0.000000 -9.716761 0.000000 1.000000 0.000000 0.133443 0.353184
-33.186543 -0.000000 -9.424047 0.000000 1.000000 0.000000 0.133443 0.419528
-33.052517 -0.000000 -9.656845 0.000000 1.000000 0.000000 0.102491 0.419528
-33.687500 -0.000000 -9.716761 0.000000 1.000000 0.000000 0.102491 0.353184
-33.820671 -0.000000 -9.484894 0.000000 1.000000 0.000000 0.133443 0.353184
-33.320568 -0.000000 -9.191250 0.000000 1.000000 0.000000 0.133443 0.419528
-33.186543 -0.000000 -9.424047 0.000000 1.000000 0.000000 0.102491 0.419528
-33.820671 -0.000000 -9.484894 0.000000 1.000000 0.000000 0.135432 0.353184
-33.953850 -0.000000 -9.253027 0.000000 1.000000 0.000000 0.166384 0.353184
-33.454594 -0.000000 -8.958453 0.000000 1.000000 0.000000 0.166384 0.419528
-33.320568 -0.000000 -9.191250 0.000000 1.000000 0.000000 0.135432 0.419528
-33.953850 -0.000000 -9.253027 0.000000 1.000000 0.000000 0.069996 0.353184
-34.087021 -0.000000 -9.021160 0.000000 1.000000 0.000000 0.100949 0.353184
-33.588619 -0.000000 -8.725657 0.000000 1.000000 0.000000 0.100949 0.419528
-33.454594 -0.000000 -8.958453 0.000000 1.000000 0.000000 0.069996 0.419528
-36.450119 0.000000 -10.725897 0.000000 1.000000 0.000000 0.102491 0.353184
-36.579033 0.000000 -10.498682 0.000000 1.000000 0.000000 0.133443 0.353184
-36.080631 -0.000000 -10.203177 0.000000 1.000000 0.000000 0.133443 0.419528
-35.950867 -0.000000 -10.431323 0.000000 1.000000 0.000000 0.102491 0.419528
-35.950867 -0.000000 -10.431323 0.000000 1.000000 0.000000 0.168444 0.353184
-36.080631 -0.000000 -10.203177 0.000000 1.000000 0.000000 0.199396 0.353184
-35.582230 -0.000000 -9.907673 0.000000 1.000000 0.000000 0.199396 0.419528
-35.451611 -0.000000 -10.136749 0.000000 1.000000 0.000000 0.168444 0.419528
-35.451611 -0.000000 -10.136749 0.000000 1.000000 0.000000 0.115588 0.150614
-35.582230 -0.000000 -9.907673 0.000000 1.000000 0.000000 0.145432 0.150614
-35.083828 -0.000000 -9.612169 0.000000 1.000000 0.000000 0.145432 0.218100
-34.952354 -0.000000 -9.842175 0.000000 1.000000 0.000000 0.115588 0.218100
-34.585426 -0.000000 -9.316665 0.000000 1.000000 0.000000 0.145432 0.283521
-34.453102 -0.000000 -9.547602 0.000000 1.000000 0.000000 0.115588 0.283521
-34.453102 -0.000000 -9.547602 0.000000 1.000000 0.000000 0.200474 0.353184
-34.585426 -0.000000 -9.316665 0.000000 1.000000 0.000000 0.231426 0.353184
-34.087021 -0.000000 -9.021160 0.000000 1.000000 0.000000 0.231426 0.419528
-33.953850 -0.000000 -9.253027 0.000000 1.000000 0.000000 0.200474 0.419528
-36.321205 0.000000 -10.953112 0.000000 1.000000 0.000000 0.135432 0.353184
-36.450119 0.000000 -10.725897 0.000000 1.000000 0.000000 0.166384 0.353184
-35.950867 -0.000000 -10.431323 0.000000 1.000000 0.000000 0.166384 0.419528
-35.821098 -0.000000 -10.659468 0.000000 1.000000 0.000000 0.135432 0.419528
-35.821098 -0.000000 -10.659468 0.000000 1.000000 0.000000 0.200474 0.353184
-35.950867 -0.000000 -10.431323 0.000000 1.000000 0.000000 0.231426 0.353184
-35.451611 -0.000000 -10.136749 0.000000 1.000000 0.000000 0.231426 0.419528
-35.320992 -0.000000 -10.365824 0.000000 1.000000 0.000000 0.200474 0.419528
-35.320992 -0.000000 -10.365824 0.000000 1.000000 0.000000 0.135432 0.353184
-35.451611 -0.000000 -10.136749 0.000000 1.000000 0.000000 0.166384 0.353184
-34.952354 -0.000000 -9.842175 0.000000 1.000000 0.000000 0.166384 0.419528
-34.820885 -0.000000 -10.072180 0.000000 1.000000 0.000000 0.135432 0.419528
-34.820885 -0.000000 -10.072180 0.000000 1.000000 0.000000 0.069996 0.353184
-34.952354 -0.000000 -9.842175 0.000000 1.000000 0.000000 0.100949 0.353184
-34.453102 -0.000000 -9.547602 0.000000 1.000000 0.000000 0.100949 0.419528
-34.320778 -0.000000 -9.778537 0.000000 1.000000 0.000000 0.069996 0.419528
-34.320778 -0.000000 -9.778537 0.000000 1.000000 0.000000 0.200474 0.353184
-34.453102 -0.000000 -9.547602 0.000000 1.000000 0.000000 0.231426 0.353184
-33.953850 -0.000000 -9.253027 0.000000 1.000000 0.000000 0.231426 0.419528
-33.820671 -0.000000 -9.484894 0.000000 1.000000 0.000000 0.200474 0.419528
-36.192295 0.000000 -11.180326 0.000000 1.000000 0.000000 0.069996 0.353184
-36.321205 0.000000 -10.953112 0.000000 1.000000 0.000000 0.100949 0.353184
-35.821098 -0.000000 -10.659468 0.000000 1.000000 0.000000 0.100949 0.419528
-35.691338 -0.000000 -10.887612 0.000000 1.000000 0.000000 0.069996 0.419528
-35.691338 -0.000000 -10.887612 0.000000 1.000000 0.000000 0.232039 0.353184
-35.821098 -0.000000 -10.659468 0.000000 1.000000 0.000000 0.262992 0.353184
-35.320992 -0.000000 -10.365824 0.000000 1.000000 0.000000 0.262992 0.419528
-35.190380 -0.000000 -10.594899 0.000000 1.000000 0.000000 0.232039 0.419528
-35.190380 -0.000000 -10.594899 0.000000 1.000000 0.000000 0.102491 0.353184
-35.320992 -0.000000 -10.365824 0.000000 1.000000 0.000000 0.133443 0.353184
-34.820885 -0.000000 -10.072180 0.000000 1.000000 0.000000 0.133443 0.419528
-34.689423 -0.000000 -10.302186 0.000000 1.000000 0.000000 0.102491 0.419528
-34.689423 -0.000000 -10.302186 0.000000 1.000000 0.000000 0.102491 0.353184
-34.820885 -0.000000 -10.072180 0.000000 1.000000 0.000000 0.133443 0.353184
-34.320778 -0.000000 -9.778537 0.000000 1.000000 0.000000 0.133443 0.419528
-34.188461 -0.000000 -10.009473 0.000000 1.000000 0.000000 0.102491 0.419528
-34.188461 -0.000000 -10.009473 0.000000 1.000000 0.000000 0.232039 0.353184
-34.320778 -0.000000 -9.778537 0.000000 1.000000 0.000000 0.262992 0.353184
-33.820671 -0.000000 -9.484894 0.000000 1.000000 0.000000 0.262992 0.419528
-33.687500 -0.000000 -9.716761 0.000000 1.000000 0.000000 0.232039 0.419528
-36.063385 0.000000 -11.407539 0.000000 1.000000 0.000000 0.102491 0.353184
-36.192295 0.000000 -11.180326 0.000000 1.000000 0.000000 0.133443 0.353184
-35.691338 -0.000000 -10.887612 0.000000 1.000000 0.000000 0.133443 0.419528
-35.561573 -0.000000 -11.115757 0.000000 1.000000 0.000000 0.102491 0.419528
-35.561573 -0.000000 -11.115757 0.000000 1.000000 0.000000 0.168444 0.353184
-35.691338 -0.000000 -10.887612 0.000000 1.000000 0.000000 0.199396 0.353184
-35.190380 -0.000000 -10.594899 0.000000 1.000000 0.000000 0.199396 0.419528
-35.059761 -0.000000 -10.823975 0.000000 1.000000 0.000000 0.168444 0.419528
-34.696709 -0.000000 -10.329427 -0.868177 0.000000 -0.496254 0.008577 0.259890
-34.584953 -0.000000 -10.524939 -0.868177 0.000000 -0.496254 0.008577 0.198185
-34.584953 -0.012199 -10.524939 -0.868177 0.000000 -0.496254 0.016059 0.198185
-34.696709 -0.012199 -10.329427 -0.868177 0.000000 -0.496254 0.016059 0.259890
-34.557949 -0.000000 -10.532192 0.000000 1.000000 0.000000 0.135432 0.353184
-34.689423 -0.000000 -10.302186 0.000000 1.000000 0.000000 0.166384 0.353184
-34.188461 -0.000000 -10.009473 0.000000 1.000000 0.000000 0.166384 0.419528
-34.056137 -0.000000 -10.240410 0.000000 1.000000 0.000000 0.135432 0.419528
-34.056137 -0.000000 -10.240410 0.000000 1.000000 0.000000 0.200474 0.353184
-34.188461 -0.000000 -10.009473 0.000000 1.000000 0.000000 0.231426 0.353184
-33.687500 -0.000000 -9.716761 0.000000 1.000000 0.000000 0.231426 0.419528
-33.554329 -0.000000 -9.948627 0.000000 1.000000 0.000000 0.200474 0.419528
-35.934471 0.000000 -11.634754 0.000000 1.000000 0.000000 0.135432 0.353184
-36.063385 0.000000 -11.407539 0.000000 1.000000 0.000000 0.166384 0.353184
-35.561573 -0.000000 -11.115757 0.000000 1.000000 0.000000 0.166384 0.419528
-35.431808 -0.000000 -11.343903 0.000000 1.000000 0.000000 0.135432 0.419528
-35.431808 -0.000000 -11.343903 0.000000 1.000000 0.000000 0.200474 0.353184
-35.561573 -0.000000 -11.115757 0.000000 1.000000 0.000000 0.231426 0.353184
-35.059761 -0.000000 -10.823975 0.000000 1.000000 0.000000 0.231426 0.419528
-34.929146 -0.000000 -11.053050 0.000000 1.000000 0.000000 0.200474 0.419528
-34.929146 -0.000000 -11.053050 0.000000 1.000000 0.000000 0.135432 0.353184
-35.059761 -0.000000 -10.823975 0.000000 1.000000 0.000000 0.166384 0.353184
-34.557949 -0.000000 -10.532192 0.000000 1.000000 0.000000 0.166384 0.419528
-34.426483 -0.000000 -10.762197 0.000000 1.000000 0.000000 0.135432 0.419528
-34.426483 -0.000000 -10.762197 0.000000 1.000000 0.000000 0.069996 0.353184
-34.557949 -0.000000 -10.532192 0.000000 1.000000 0.000000 0.100949 0.353184
-34.056137 -0.000000 -10.240410 0.000000 1.000000 0.000000 0.100949 0.419528
-33.923820 -0.000000 -10.471346 0.000000 1.000000 0.000000 0.069996 0.419528
-33.923820 -0.000000 -10.471346 0.000000 1.000000 0.000000 0.168444 0.353184
-34.056137 -0.000000 -10.240410 0.000000 1.000000 0.000000 0.199396 0.353184
-33.554329 -0.000000 -9.948627 0.000000 1.000000 0.000000 0.199396 0.419528
-33.421158 -0.000000 -10.180494 0.000000 1.000000 0.000000 0.168444 0.419528
-35.805557 0.000000 -11.861969 0.000000 1.000000 0.000000 0.135432 0.353184
-35.934471 0.000000 -11.634754 0.000000 1.000000 0.000000 0.166384 0.353184
-35.431808 -0.000000 -11.343903 0.000000 1.000000 0.000000 0.166384 0.419528
-35.302040 -0.000000 -11.572047 0.000000 1.000000 0.000000 0.135432 0.419528
-35.302040 -0.000000 -11.572047 0.000000 1.000000 0.000000 0.168444 0.353184
-35.431808 -0.000000 -11.343903 0.000000 1.000000 0.000000 0.199396 0.353184
-34.929146 -0.000000 -11.053050 0.000000 1.000000 0.000000 0.199396 0.419528
-34.798527 -0.000000 -11.282125 0.000000 1.000000 0.000000 0.168444 0.419528
-34.798527 -0.000000 -11.282125 0.000000 1.000000 0.000000 0.102491 0.353184
-34.929146 -0.000000 -11.053050 0.000000 1.000000 0.000000 0.133443 0.353184
-34.426483 -0.000000 -10.762197 0.000000 1.000000 0.000000 0.133443 0.419528
-34.295013 -0.000000 -10.992204 0.000000 1.000000 0.000000 0.102491 0.419528
-34.295013 -0.000000 -10.992204 0.000000 1.000000 0.000000 0.069996 0.353184
-34.426483 -0.000000 -10.762197 0.000000 1.000000 0.000000 0.100949 0.353184
-33.923820 -0.000000 -10.471346 0.000000 1.000000 0.000000 0.100949 0.419528
-33.791496 -0.000000 -10.702282 0.000000 1.000000 0.000000 0.069996 0.419528
-33.791496 -0.000000 -10.702282 0.000000 1.000000 0.000000 0.232039 0.353184
-33.923820 -0.000000 -10.471346 0.000000 1.000000 0.000000 0.262992 0.353184
-33.421158 -0.000000 -10.180494 0.000000 1.000000 0.000000 0.262992 0.419528
-33.287979 -0.000000 -10.412360 0.000000 1.000000 0.000000 0.232039 0.419528
-35.676647 0.000000 -12.089183 0.000000 1.000000 0.000000 0.069996 0.353184
-35.805557 0.000000 -11.861969 0.000000 1.000000 0.000000 0.100949 0.353184
-35.302040 -0.000000 -11.572047 0.000000 1.000000 0.000000 0.100949 0.419528
-35.172279 -0.000000 -11.800192 0.000000 1.000000 0.000000 0.069996 0.419528
-35.172279 -0.000000 -11.800192 0.000000 1.000000 0.000000 0.232039 0.353184
-35.302040 -0.000000 -11.572047 0.000000 1.000000 0.000000 0.262992 0.353184
-34.798527 -0.000000 -11.282125 0.000000 1.000000 0.000000 0.262992 0.419528
-34.667912 -0.000000 -11.511201 0.000000 1.000000 0.000000 0.232039 0.419528
-34.667912 -0.000000 -11.511201 0.000000 1.000000 0.000000 0.069996 0.353184
-34.798527 -0.000000 -11.282125 0.000000 1.000000 0.000000 0.100949 0.353184
-34.295013 -0.000000 -10.992204 0.000000 1.000000 0.000000 0.100949 0.419528
-34.163544 -0.000000 -11.222210 0.000000 1.000000 0.000000 0.069996 0.419528
-34.163544 -0.000000 -11.222210 0.000000 1.000000 0.000000 0.102491 0.353184
-34.295013 -0.000000 -10.992204 0.000000 1.000000 0.000000 0.133443 0.353184
-33.791496 -0.000000 -10.702282 0.000000 1.000000 0.000000 0.133443 0.419528
-33.659176 -0.000000 -10.933219 0.000000 1.000000 0.000000 0.102491 0.419528
-33.659176 -0.000000 -10.933219 0.000000 1.000000 0.000000 0.232039 0.353184
-33.791496 -0.000000 -10.702282 0.000000 1.000000 0.000000 0.262992 0.353184
-33.287979 -0.000000 -10.412360 0.000000 1.000000 0.000000 0.262992 0.419528
-33.154808 -0.000000 -10.644228 0.000000 1.000000 0.000000 0.232039 0.419528
-35.547737 0.000000 -12.316398 0.000000 1.000000 0.000000 0.135432 0.353184
-35.676647 0.000000 -12.089183 0.000000 1.000000 0.000000 0.166384 0.353184
-35.172279 -0.000000 -11.800192 0.000000 1.000000 0.000000 0.166384 0.419528
-35.042519 -0.000000 -12.028337 0.000000 1.000000 0.000000 0.135432 0.419528
-35.042519 -0.000000 -12.028337 0.000000 1.000000 0.000000 0.114112 0.085366
-35.172279 -0.000000 -11.800192 0.000000 1.000000 0.000000 0.144370 0.085366
-34.667912 -0.000000 -11.511201 0.000000 1.000000 0.000000 0.144370 0.150614
-34.537296 -0.000000 -11.740276 0.000000 1.000000 0.000000 0.114112 0.150614
-34.537296 -0.000000 -11.740276 0.000000 1.000000 0.000000 0.135432 0.353184
-34.667912 -0.000000 -11.511201 0.000000 1.000000 0.000000 0.166384 0.353184
-34.163544 -0.000000 -11.222210 0.000000 1.000000 0.000000 0.166384 0.419528
-34.032074 -0.000000 -11.452215 0.000000 1.000000 0.000000 0.135432 0.419528
-34.032074 -0.000000 -11.452215 0.000000 1.000000 0.000000 0.135432 0.353184
-34.163544 -0.000000 -11.222210 0.000000 1.000000 0.000000 0.166384 0.353184
-33.659176 -0.000000 -10.933219 0.000000 1.000000 0.000000 0.166384 0.419528
-33.526855 -0.000000 -11.164155 0.000000 1.000000 0.000000 0.135432 0.419528
-33.526855 -0.000000 -11.164155 0.000000 1.000000 0.000000 0.114112 0.283521
-33.659176 -0.000000 -10.933219 0.000000 1.000000 0.000000 0.144370 0.283521
-33.154808 -0.000000 -10.644228 0.000000 1.000000 0.000000 0.144370 0.350575
-33.021637 -0.000000 -10.876095 0.000000 1.000000 0.000000 0.114112 0.350575
-35.418823 0.000000 -12.543612 0.000000 1.000000 0.000000 0.102491 0.353184
-35.547737 0.000000 -12.316398 0.000000 1.000000 0.000000 0.133443 0.353184
-35.042519 -0.000000 -12.028337 0.000000 1.000000 0.000000 0.133443 0.419528
-34.912750 -0.000000 -12.256482 0.000000 1.000000 0.000000 0.102491 0.419528
-34.912750 -0.000000 -12.256482 0.000000 1.000000 0.000000 0.083807 0.085366
-34.406677 -0.000000 -11.969352 0.000000 1.000000 0.000000 0.083807 0.150614
-34.406677 -0.000000 -11.969352 0.000000 1.000000 0.000000 0.069996 0.353184
-34.537296 -0.000000 -11.740276 0.000000 1.000000 0.000000 0.100949 0.353184
-34.032074 -0.000000 -11.452215 0.000000 1.000000 0.000000 0.100949 0.419528
-33.900604 -0.000000 -11.682221 0.000000 1.000000 0.000000 0.069996 0.419528
-33.900604 -0.000000 -11.682221 0.000000 1.000000 0.000000 0.102491 0.353184
-34.032074 -0.000000 -11.452215 0.000000 1.000000 0.000000 0.133443 0.353184
-33.526855 -0.000000 -11.164155 0.000000 1.000000 0.000000 0.133443 0.419528
-33.394531 -0.000000 -11.395091 0.000000 1.000000 0.000000 0.102491 0.419528
-33.394531 -0.000000 -11.395091 0.000000 1.000000 0.000000 0.083807 0.283521
-32.888458 -0.000000 -11.107961 0.000000 1.000000 0.000000 0.083807 0.350575
-35.289909 0.000000 -12.770827 0.000000 1.000000 0.000000 0.135432 0.353184
-35.418823 0.000000 -12.543612 0.000000 1.000000 0.000000 0.166384 0.353184
-34.912750 -0.000000 -12.256482 0.000000 1.000000 0.000000 0.166384 0.419528
-34.782986 -0.000000 -12.484627 0.000000 1.000000 0.000000 0.135432 0.419528
-34.782986 -0.000000 -12.484627 0.000000 1.000000 0.000000 0.200474 0.353184
-34.912750 -0.000000 -12.256482 0.000000 1.000000 0.000000 0.231426 0.353184
-34.406677 -0.000000 -11.969352 0.000000 1.000000 0.000000 0.231426 0.419528
-34.276062 -0.000000 -12.198427 0.000000 1.000000 0.000000 0.200474 0.419528
-34.276062 -0.000000 -12.198427 0.000000 1.000000 0.000000 0.102491 0.353184
-34.406677 -0.000000 -11.969352 0.000000 1.000000 0.000000 0.133443 0.353184
-33.900604 -0.000000 -11.682221 0.000000 1.000000 0.000000 0.133443 0.419528
-33.769138 -0.000000 -11.912228 0.000000 1.000000 0.000000 0.102491 0.419528
-33.769138 -0.000000 -11.912228 0.000000 1.000000 0.000000 0.069996 0.353184
-33.900604 -0.000000 -11.682221 0.000000 1.000000 0.000000 0.100949 0.353184
-33.394531 -0.000000 -11.395091 0.000000 1.000000 0.000000 0.100949 0.419528
-33.262215 -0.000000 -11.626027 0.000000 1.000000 0.000000 0.069996 0.419528
-33.262215 -0.000000 -11.626027 0.000000 1.000000 0.000000 0.168444 0.353184
-33.394531 -0.000000 -11.395091 0.000000 1.000000 0.000000 0.199396 0.353184
-32.888458 -0.000000 -11.107961 0.000000 1.000000 0.000000 0.199396 0.419528
-32.755287 -0.000000 -11.339827 0.000000 1.000000 0.000000 0.168444 0.419528
-35.160999 0.000000 -12.998042 0.000000 1.000000 0.000000 0.069996 0.353184
-35.289909 0.000000 -12.770827 0.000000 1.000000 0.000000 0.100949 0.353184
-34.782986 -0.000000 -12.484627 0.000000 1.000000 0.000000 0.100949 0.419528
-34.653221 -0.000000 -12.712772 0.000000 1.000000 0.000000 0.069996 0.419528
-34.653221 -0.000000 -12.712772 0.000000 1.000000 0.000000 0.168444 0.353184
-34.782986 -0.000000 -12.484627 0.000000 1.000000 0.000000 0.199396 0.353184
-34.276062 -0.000000 -12.198427 0.000000 1.000000 0.000000 0.199396 0.419528
-34.145443 -0.000000 -12.427503 0.000000 1.000000 0.000000 0.168444 0.419528
-34.145443 -0.000000 -12.427503 0.000000 1.000000 0.000000 0.069996 0.353184
-34.276062 -0.000000 -12.198427 0.000000 1.000000 0.000000 0.100949 0.353184
-33.769138 -0.000000 -11.912228 0.000000 1.000000 0.000000 0.100949 0.419528
-33.637665 -0.000000 -12.142233 0.000000 1.000000 0.000000 0.069996 0.419528
-33.269630 -0.000000 -11.653002 -0.867658 0.000000 -0.497162 0.008577 0.259890
-33.157059 -0.000000 -11.849464 -0.867658 0.000000 -0.497162 0.008577 0.198185
-33.157059 -0.012199 -11.849464 -0.867658 0.000000 -0.497162 0.016059 0.198185
-33.269630 -0.012199 -11.653002 -0.867658 0.000000 -0.497162 0.016059 0.259890
-33.129890 -0.000000 -11.856963 0.000000 1.000000 0.000000 0.232039 0.353184
-33.262215 -0.000000 -11.626027 0.000000 1.000000 0.000000 0.262992 0.353184
-32.755287 -0.000000 -11.339827 0.000000 1.000000 0.000000 0.262992 0.419528
-32.622116 -0.000000 -11.571693 0.000000 1.000000 0.000000 0.232039 0.419528
-35.032085 0.000000 -13.225257 0.000000 1.000000 0.000000 0.102491 0.353184
-35.160999 0.000000 -12.998042 0.000000 1.000000 0.000000 0.133443 0.353184
-34.653221 -0.000000 -12.712772 0.000000 1.000000 0.000000 0.133443 0.419528
-34.523457 -0.000000 -12.940918 0.000000 1.000000 0.000000 0.102491 0.419528
-34.523457 -0.000000 -12.940918 0.000000 1.000000 0.000000 0.232039 0.353184
-34.653221 -0.000000 -12.712772 0.000000 1.000000 0.000000 0.262992 0.353184
-34.145443 -0.000000 -12.427503 0.000000 1.000000 0.000000 0.262992 0.419528
-34.014828 -0.000000 -12.656579 0.000000 1.000000 0.000000 0.232039 0.419528
-34.014828 -0.000000 -12.656579 0.000000 1.000000 0.000000 0.102491 0.353184
-34.145443 -0.000000 -12.427503 0.000000 1.000000 0.000000 0.133443 0.353184
-33.637665 -0.000000 -12.142233 0.000000 1.000000 0.000000 0.133443 0.419528
-33.506199 -0.000000 -12.372240 0.000000 1.000000 0.000000 0.102491 0.419528
-33.506199 -0.000000 -12.372240 0.000000 1.000000 0.000000 0.069996 0.353184
-33.637665 -0.000000 -12.142233 0.000000 1.000000 0.000000 0.100949 0.353184
-33.129890 -0.000000 -11.856963 0.000000 1.000000 0.000000 0.100949 0.419528
-32.997570 -0.000000 -12.087901 0.000000 1.000000 0.000000 0.069996 0.419528
-32.997570 -0.000000 -12.087901 0.000000 1.000000 0.000000 0.168444 0.353184
-33.129890 -0.000000 -11.856963 0.000000 1.000000 0.000000 0.199396 0.353184
-32.622116 -0.000000 -11.571693 0.000000 1.000000 0.000000 0.199396 0.419528
-32.488941 -0.000000 -11.803562 0.000000 1.000000 0.000000 0.168444 0.419528
-34.903172 0.000000 -13.452472 0.000000 1.000000 0.000000 0.135432 0.353184
-35.032085 0.000000 -13.225257 0.000000 1.000000 0.000000 0.166384 0.353184
-34.523457 -0.000000 -12.940918 0.000000 1.000000 0.000000 0.166384 0.419528
-34.393692 -0.000000 -13.169064 0.000000 1.000000 0.000000 0.135432 0.419528
-34.393692 -0.000000 -13.169064 0.000000 1.000000 0.000000 0.168444 0.353184
-34.523457 -0.000000 -12.940918 0.000000 1.000000 0.000000 0.199396 0.353184
-34.014828 -0.000000 -12.656579 0.000000 1.000000 0.000000 0.199396 0.419528
-33.884212 -0.000000 -12.885654 0.000000 1.000000 0.000000 0.168444 0.419528
-33.884212 -0.000000 -12.885654 0.000000 1.000000 0.000000 0.069996 0.353184
-34.014828 -0.000000 -12.656579 0.000000 1.000000 0.000000 0.100949 0.353184
-33.506199 -0.000000 -12.372240 0.000000 1.000000 0.000000 0.100949 0.419528
-33.374733 -0.000000 -12.602245 0.000000 1.000000 0.000000 0.069996 0.419528
-33.374733 -0.000000 -12.602245 0.000000 1.000000 0.000000 0.135432 0.353184
-33.506199 -0.000000 -12.372240 0.000000 1.000000 0.000000 0.166384 0.353184
-32.997570 -0.000000 -12.087901 0.000000 1.000000 0.000000 0.166384 0.419528
-32.865250 -0.000000 -12.318837 0.000000 1.000000 0.000000 0.135432 0.419528
-32.865250 -0.000000 -12.318837 0.000000 1.000000 0.000000 0.200474 0.353184
-32.997570 -0.000000 -12.087901 0.000000 1.000000 0.000000 0.231426 0.353184
-32.488941 -0.000000 -11.803562 0.000000 1.000000 0.000000 0.231426 0.419528
-32.355770 -0.000000 -12.035429 0.000000 1.000000 0.000000 0.200474 0.419528
-34.774258 0.000000 -13.679687 0.000000 1.000000 0.000000 0.069996 0.353184
-34.903172 0.000000 -13.452472 0.000000 1.000000 0.000000 0.100949 0.353184
-34.393692 -0.000000 -13.169064 0.000000 1.000000 0.000000 0.100949 0.419528
-34.263924 -0.000000 -13.397208 0.000000 1.000000 0.000000 0.069996 0.419528
-34.263924 -0.000000 -13.397208 0.000000 1.000000 0.000000 0.200474 0.353184
-34.393692 -0.000000 -13.169064 0.000000 1.000000 0.000000 0.231426 0.353184
-33.884212 -0.000000 -12.885654 0.000000 1.000000 0.000000 0.231426 0.419528
-33.753593 -0.000000 -13.114730 0.000000 1.000000 0.000000 0.200474 0.419528
-33.753593 -0.000000 -13.114730 0.000000 1.000000 0.000000 0.135432 0.353184
-33.884212 -0.000000 -12.885654 0.000000 1.000000 0.000000 0.166384 0.353184
-33.374733 -0.000000 -12.602245 0.000000 1.000000 0.000000 0.166384 0.419528
-33.243259 -0.000000 -12.832252 0.000000 1.000000 0.000000 0.135432 0.419528
-33.243259 -0.000000 -12.832252 0.000000 1.000000 0.000000 0.135432 0.353184
-33.374733 -0.000000 -12.602245 0.000000 1.000000 0.000000 0.166384 0.353184
-32.865250 -0.000000 -12.318837 0.000000 1.000000 0.000000 0.166384 0.419528
-32.732925 -0.000000 -12.549773 0.000000 1.000000 0.000000 0.135432 0.419528
-32.732925 -0.000000 -12.549773 0.000000 1.000000 0.000000 0.168444 0.353184
-32.865250 -0.000000 -12.318837 0.000000 1.000000 0.000000 0.199396 0.353184
-32.355770 -0.000000 -12.035429 0.000000 1.000000 0.000000 0.199396 0.419528
-32.222595 -0.000000 -12.267296 0.000000 1.000000 0.000000 0.168444 0.419528
-34.645344 0.000000 -13.906901 0.000000 1.000000 0.000000 0.084721 0.008823
-34.774258 0.000000 -13.679687 0.000000 1.000000 0.000000 0.115226 0.008823
-34.263924 -0.000000 -13.397208 0.000000 1.000000 0.000000 0.115226 0.085366
-34.134159 -0.000000 -13.625354 0.000000 1.000000 0.000000 0.084721 0.085366
-34.134159 -0.000000 -13.625354 0.000000 1.000000 0.000000 0.232039 0.353184
-34.263924 -0.000000 -13.397208 0.000000 1.000000 0.000000 0.262992 0.353184
-33.753593 -0.000000 -13.114730 0.000000 1.000000 0.000000 0.262992 0.419528
-33.622974 -0.000000 -13.343806 0.000000 1.000000 0.000000 0.232039 0.419528
-33.622974 -0.000000 -13.343806 0.000000 1.000000 0.000000 0.084721 0.150614
-33.753593 -0.000000 -13.114730 0.000000 1.000000 0.000000 0.115226 0.150614
-33.243259 -0.000000 -12.832252 0.000000 1.000000 0.000000 0.115226 0.218100
-33.111790 -0.000000 -13.062259 0.000000 1.000000 0.000000 0.084721 0.218100
-32.732925 -0.000000 -12.549773 0.000000 1.000000 0.000000 0.115226 0.283521
-32.600605 -0.000000 -12.780711 0.000000 1.000000 0.000000 0.084721 0.283521
-32.600605 -0.000000 -12.780711 0.000000 1.000000 0.000000 0.232039 0.353184
-32.732925 -0.000000 -12.549773 0.000000 1.000000 0.000000 0.262992 0.353184
-32.222595 -0.000000 -12.267296 0.000000 1.000000 0.000000 0.262992 0.419528
-32.089420 -0.000000 -12.499163 0.000000 1.000000 0.000000 0.232039 0.419528
-34.616879 0.000000 -13.957073 0.000000 1.000000 0.000000 0.081603 0.008823
-34.068359 -0.000000 -13.740248 0.000000 1.000000 0.000000 0.070026 0.085366
-33.519844 -0.000000 -13.523421 0.000000 1.000000 0.000000 0.058153 0.150614
-33.245586 -0.000000 -13.415009 0.000000 1.000000 0.000000 0.054561 0.176293
-32.983200 -0.000000 -13.285943 0.000000 1.000000 0.000000 0.054561 0.218100
-32.971329 -0.000000 -13.306595 0.000000 1.000000 0.000000 0.049137 0.218100
-32.469109 -0.000000 -13.009298 0.000000 1.000000 0.000000 0.054561 0.283521
-32.469109 -0.000000 -13.009298 0.000000 1.000000 0.000000 0.200474 0.353184
-32.600605 -0.000000 -12.780711 0.000000 1.000000 0.000000 0.231426 0.353184
-32.089420 -0.000000 -12.499163 0.000000 1.000000 0.000000 0.231426 0.419528
-31.958643 -0.000000 -12.726393 0.000000 1.000000 0.000000 0.200474 0.419528
-36.579033 0.000000 -10.498682 0.000000 1.000000 0.000000 0.069996 0.353184
-36.707943 0.000000 -10.271468 0.000000 1.000000 0.000000 0.100949 0.353184
-36.210392 -0.000000 -9.975033 0.000000 1.000000 0.000000 0.100949 0.419528
-36.080631 -0.000000 -10.203177 0.000000 1.000000 0.000000 0.069996 0.419528
-36.080631 -0.000000 -10.203177 0.000000 1.000000 0.000000 0.145432 0.085366
-36.210392 -0.000000 -9.975033 0.000000 1.000000 0.000000 0.177241 0.085366
-35.712841 -0.000000 -9.678598 0.000000 1.000000 0.000000 0.177241 0.150614
-35.215294 -0.000000 -9.382164 0.000000 1.000000 0.000000 0.177241 0.218100
-34.717743 -0.000000 -9.085729 0.000000 1.000000 0.000000 0.177241 0.283521
-34.220192 -0.000000 -8.789293 0.000000 1.000000 0.000000 0.177241 0.350575
-34.087021 -0.000000 -9.021160 0.000000 1.000000 0.000000 0.145432 0.350575
-34.131325 -0.000000 -7.783010 0.000000 1.000000 0.000000 0.277191 0.416206
-34.633945 -0.000000 -8.080234 0.000000 1.000000 0.000000 0.277191 0.350575
-34.774319 -0.000000 -7.839676 0.000000 1.000000 0.000000 0.314468 0.350575
-34.492809 -0.000000 -7.605574 0.000000 1.000000 0.000000 0.321073 0.387568
-34.299522 -0.000000 -7.490853 0.000000 1.000000 0.000000 0.320968 0.416206
-34.220192 -0.000000 -8.789293 0.000000 1.000000 0.000000 0.102491 0.353184
-34.358109 -0.000000 -8.552940 0.000000 1.000000 0.000000 0.133443 0.353184
-33.858871 -0.000000 -8.256243 0.000000 1.000000 0.000000 0.133443 0.419528
-33.722645 -0.000000 -8.492859 0.000000 1.000000 0.000000 0.102491 0.419528
-34.358109 -0.000000 -8.552940 0.000000 1.000000 0.000000 0.069996 0.353184
-34.496029 -0.000000 -8.316586 0.000000 1.000000 0.000000 0.100949 0.353184
-33.995098 -0.000000 -8.019627 0.000000 1.000000 0.000000 0.100949 0.419528
-33.858871 -0.000000 -8.256243 0.000000 1.000000 0.000000 0.069996 0.419528
-31.874298 -0.000000 -12.872944 0.000000 1.000000 0.000000 0.029113 0.350575
-31.958643 -0.000000 -12.726393 0.000000 1.000000 0.000000 0.054561 0.350575
-31.440327 -0.000000 -12.457163 0.000000 1.000000 0.000000 0.054561 0.416206
-31.325783 -0.000000 -12.656118 0.000000 1.000000 0.000000 0.019078 0.416206
-32.422813 -0.000000 -13.089769 0.000000 1.000000 0.000000 0.039130 0.283521
-36.707943 0.000000 -10.271468 -0.000002 1.000000 -0.000001 0.177241 0.035972
-36.751549 0.000000 -10.194613 -0.000002 1.000000 -0.000001 0.193923 0.035972
-34.765675 0.000004 -9.006245 -0.000002 1.000000 -0.000001 0.193923 0.283521
-34.765675 0.000004 -9.006245 0.000024 1.000000 -0.000040 0.193923 0.283521
-34.717743 -0.000000 -9.085729 0.000024 1.000000 -0.000040 0.177241 0.283521
-35.215294 -0.000000 -9.382164 0.000024 1.000000 -0.000040 0.177241 0.218100
-36.210392 -0.000000 -9.975033 0.000024 1.000000 -0.000040 0.177241 0.085366
-36.707943 0.000000 -10.271468 0.000024 1.000000 -0.000040 0.177241 0.035972
-34.633945 -0.000000 -8.080234 0.000003 1.000000 -0.000012 0.277191 0.350575
-35.137993 -0.000005 -8.380568 0.000003 1.000000 -0.000012 0.277191 0.283521
-35.232758 -0.000000 -8.220906 0.000003 1.000000 -0.000012 0.303352 0.283521
-34.774319 -0.000000 -7.839676 0.000003 1.000000 -0.000012 0.314468 0.350575
-34.633945 -0.000000 -8.080234 -0.000013 1.000000 -0.000007 0.277191 0.350575
-34.496029 -0.000000 -8.316586 -0.000013 1.000000 -0.000007 0.245713 0.350575
-35.001652 -0.000008 -8.610028 -0.000013 1.000000 -0.000007 0.245713 0.283521
-35.001652 -0.000008 -8.610028 -0.032316 0.999293 -0.019215 0.245713 0.283521
-35.043224 -0.000011 -8.540229 -0.032316 0.999293 -0.019215 0.253534 0.283521
-35.137993 -0.000005 -8.380568 -0.032316 0.999293 -0.019215 0.277191 0.283521
-35.001652 -0.000008 -8.610028 -0.000002 1.000000 -0.000015 0.245713 0.283521
-35.137993 -0.000005 -8.380568 -0.000002 1.000000 -0.000015 0.277191 0.283521
-34.633945 -0.000000 -8.080234 -0.000002 1.000000 -0.000015 0.277191 0.350575
-34.859509 -0.000001 -8.848693 -0.000014 1.000000 0.000008 0.211739 0.283521
-35.001652 -0.000008 -8.610028 -0.000014 1.000000 0.000008 0.245713 0.283521
-34.496029 -0.000000 -8.316586 -0.000014 1.000000 0.000008 0.245713 0.350575
-34.358109 -0.000000 -8.552940 -0.000014 1.000000 0.000008 0.211739 0.350575
-34.717743 -0.000000 -9.085729 0.011693 0.999907 0.006997 0.177241 0.283521
-34.765675 0.000004 -9.006245 0.011693 0.999907 0.006997 0.193923 0.283521
-34.859509 -0.000001 -8.848693 0.011693 0.999907 0.006997 0.211739 0.283521
-34.859509 -0.000001 -8.848693 -0.000001 1.000000 -0.000001 0.211739 0.283521
-34.358109 -0.000000 -8.552940 -0.000001 1.000000 -0.000001 0.211739 0.350575
-34.220192 -0.000000 -8.789293 -0.000001 1.000000 -0.000001 0.177241 0.350575
-34.859509 -0.000001 -8.848693 -0.000001 1.000000 0.000002 0.211739 0.283521
-34.220192 -0.000000 -8.789293 -0.000001 1.000000 0.000002 0.177241 0.350575
-34.717743 -0.000000 -9.085729 -0.000001 1.000000 0.000002 0.177241 0.283521
-37.007587 0.000000 -9.743317 -0.869807 0.000126 -0.493393 0.064338 0.515459
-37.019112 0.000000 -9.723001 -0.869807 0.000126 -0.493393 0.064338 0.520286
-37.019112 0.011212 -9.722998 -0.869807 0.000126 -0.493393 0.021908 0.520286
-37.007587 0.011212 -9.743314 -0.869807 0.000126 -0.493393 0.021908 0.515459
-34.744904 -0.476516 -8.392103 0.512744 0.000219 -0.858542 0.068685 0.428433
-37.007587 0.000000 -9.743317 0.512744 0.000219 -0.858542 0.322653 0.474195
-37.007587 0.011212 -9.743314 0.512744 0.000219 -0.858542 0.322653 0.493914
-37.007587 0.011212 -9.743314 0.512783 0.000035 -0.858518 0.322653 0.493914
-35.052074 0.011201 -8.575308 0.512783 0.000035 -0.858518 0.103572 0.493914
-35.052074 -0.059018 -8.575311 0.512783 0.000035 -0.858518 0.103572 0.468677
-35.052074 -0.059018 -8.575311 0.512243 0.000000 -0.858841 0.103572 0.468677
-34.744904 -0.059018 -8.392103 0.512243 0.000000 -0.858841 0.068685 0.468677
-34.744904 -0.476516 -8.392103 0.512243 0.000000 -0.858841 0.068685 0.428433
-37.007587 0.011212 -9.743314 0.512797 0.000553 -0.858510 0.322653 0.493914
-35.052074 -0.059018 -8.575311 0.512797 0.000553 -0.858510 0.103572 0.468677
-34.744904 -0.476516 -8.392103 0.512797 0.000553 -0.858510 0.068685 0.428433
-34.744904 -0.059018 -8.392103 -0.859165 0.000000 -0.511698 0.065367 0.468677
-34.493511 -0.059018 -8.814203 -0.859165 0.000000 -0.511698 0.016057 0.468677
-34.493511 -0.476502 -8.814203 -0.859165 0.000000 -0.511698 0.016057 0.427023
-34.744904 -0.476516 -8.392103 -0.859165 0.000000 -0.511698 0.065367 0.427022
-35.052074 0.011201 -8.575308 -0.000003 1.000000 0.000014 0.021656 0.589475
-37.007587 0.011212 -9.743314 -0.000003 1.000000 0.000014 0.302650 0.589475
-37.019112 0.011212 -9.722998 -0.000003 1.000000 0.000014 0.302650 0.592535
-34.765675 0.011216 -9.006242 -0.000009 1.000000 0.000011 0.018489 0.523727
-36.751549 0.011212 -10.194610 -0.000009 1.000000 0.000011 0.302650 0.523727
-36.765247 0.011211 -10.170458 -0.000009 1.000000 0.000011 0.302650 0.526861
-34.765675 0.011216 -9.006242 -0.000007 1.000000 0.000008 0.018489 0.523727
-36.765247 0.011211 -10.170458 -0.000007 1.000000 0.000008 0.302650 0.526861
-34.800682 0.011216 -8.997408 -0.000007 1.000000 0.000008 0.021649 0.526861
-35.052074 0.011201 -8.575308 -0.000001 1.000000 0.000011 0.021656 0.589475
-37.019112 0.011212 -9.722998 -0.000001 1.000000 0.000011 0.302650 0.592535
-35.043224 0.011201 -8.540226 -0.000001 1.000000 0.000011 0.018489 0.592535
-34.765675 0.011216 -9.006242 -0.000001 1.000000 0.000034 0.018489 0.523727
-34.800682 0.011216 -8.997408 -0.000001 1.000000 0.000034 0.021649 0.526861
-35.052074 0.011201 -8.575308 -0.000001 1.000000 0.000034 0.021656 0.589475
-35.052074 0.011201 -8.575308 -0.000025 1.000000 0.000017 0.021656 0.589475
-35.043224 0.011201 -8.540226 -0.000025 1.000000 0.000017 0.018489 0.592535
-34.765675 0.011216 -9.006242 -0.000025 1.000000 0.000017 0.018489 0.523727
-37.019112 0.000000 -9.723001 -0.513614 -0.000222 0.858021 0.322653 0.496302
-35.043224 -0.000011 -8.540229 -0.513614 -0.000222 0.858021 0.103572 0.496302
-35.043224 0.011201 -8.540226 -0.513614 -0.000222 0.858021 0.103572 0.515769
-37.019112 0.011212 -9.722998 -0.513614 -0.000222 0.858021 0.322653 0.515769
-36.751549 0.000000 -10.194613 -0.869828 0.000126 -0.493355 0.064338 0.509715
-36.765247 -0.000000 -10.170461 -0.869828 0.000126 -0.493355 0.064338 0.515453
-36.765247 0.011211 -10.170458 -0.869828 0.000126 -0.493355 0.021908 0.515453
-36.751549 0.011212 -10.194610 -0.869828 0.000126 -0.493355 0.021908 0.509716
-34.765675 0.000004 -9.006245 0.513492 0.000216 -0.858094 0.103572 0.496302
-36.751549 0.000000 -10.194613 0.513492 0.000216 -0.858094 0.322653 0.496302
-36.751549 0.011212 -10.194610 0.513492 0.000216 -0.858094 0.322653 0.515769
-34.765675 0.011216 -9.006242 0.513492 0.000216 -0.858094 0.103572 0.515769
-34.800682 -0.059018 -8.997411 -0.859166 0.000021 -0.511698 0.097272 0.472389
-35.052074 -0.059018 -8.575311 -0.859166 0.000021 -0.511698 0.097271 0.520242
-35.052074 0.011201 -8.575308 -0.859166 0.000021 -0.511698 0.071523 0.520242
-34.800682 0.011216 -8.997408 -0.859166 0.000021 -0.511698 0.071522 0.472389
-35.001652 -0.000008 -8.610028 -0.000097 1.000000 -0.000025 0.312293 0.452846
-34.859509 -0.000001 -8.848693 -0.000097 1.000000 -0.000025 0.278136 0.452846
-34.765675 0.000004 -9.006245 -0.000097 1.000000 -0.000025 0.255587 0.452845
-34.765675 0.000004 -9.006245 0.859164 -0.000131 0.511701 0.255587 0.452845
-34.765675 0.011216 -9.006242 0.859164 -0.000131 0.511701 0.255587 0.427597
-35.043224 0.011201 -8.540226 0.859164 -0.000131 0.511701 0.322282 0.427598
-35.043224 0.011201 -8.540226 0.859156 -0.000131 0.511714 0.322282 0.427598
-35.043224 -0.000011 -8.540229 0.859156 -0.000131 0.511714 0.322282 0.452846
-35.001652 -0.000008 -8.610028 0.859156 -0.000131 0.511714 0.312293 0.452846
-35.001652 -0.000008 -8.610028 0.859165 -0.000003 0.511699 0.312293 0.452846
-34.765675 0.000004 -9.006245 0.859165 -0.000003 0.511699 0.255587 0.452845
-35.043224 0.011201 -8.540226 0.859165 -0.000003 0.511699 0.322282 0.427598
-37.007587 0.000000 -9.743317 0.153528 0.984103 0.089274 0.325252 0.585079
-34.744904 -0.476516 -8.392103 0.153528 0.984103 0.089274 0.023146 0.585079
-34.493511 -0.476502 -8.814203 0.153528 0.984103 0.089274 0.023210 0.529771
-36.765247 -0.000000 -10.170461 0.153528 0.984103 0.089274 0.325252 0.529805
-35.052074 -0.059018 -8.575311 -0.000000 -1.000000 0.000000 0.063649 0.506758
-34.800682 -0.059018 -8.997411 -0.000000 -1.000000 0.000000 0.017753 0.506758
-34.493511 -0.059018 -8.814203 -0.000000 -1.000000 0.000000 0.017775 0.473346
-34.744904 -0.059018 -8.392103 -0.000000 -1.000000 0.000000 0.063670 0.473346
-36.765247 0.011211 -10.170458 -0.512643 -0.000219 0.858602 0.322653 0.493914
-36.765247 -0.000000 -10.170461 -0.512643 -0.000219 0.858602 0.322653 0.474195
-34.493511 -0.476502 -8.814203 -0.512643 -0.000219 0.858602 0.068685 0.428433
-34.493511 -0.476502 -8.814203 -0.512243 0.000000 0.858841 0.068685 0.428433
-34.493511 -0.059018 -8.814203 -0.512243 0.000000 0.858841 0.068685 0.468677
-34.800682 -0.059018 -8.997411 -0.512243 0.000000 0.858841 0.103572 0.468677
-34.800682 -0.059018 -8.997411 -0.512666 -0.000035 0.858588 0.103572 0.468677
-34.800682 0.011216 -8.997408 -0.512666 -0.000035 0.858588 0.103572 0.493914
-36.765247 0.011211 -10.170458 -0.512666 -0.000035 0.858588 0.322653 0.493914
-34.493511 -0.476502 -8.814203 -0.512677 -0.000433 0.858582 0.068685 0.428433
-34.800682 -0.059018 -8.997411 -0.512677 -0.000433 0.858582 0.103572 0.468677
-36.765247 0.011211 -10.170458 -0.512677 -0.000433 0.858582 0.322653 0.493914
-33.630211 -0.000000 -12.115284 0.000000 1.000000 0.000000 0.138656 0.014338
-33.157059 -0.000000 -11.849464 0.000000 1.000000 0.000000 0.138648 0.076262
-33.129890 -0.000000 -11.856963 0.000000 1.000000 0.000000 0.136394 0.078527
-33.637665 -0.000000 -12.142233 0.000000 1.000000 0.000000 0.136394 0.012073
-33.269630 -0.000000 -11.653002 0.000000 1.000000 0.000000 0.164352 0.076262
-33.742008 -0.000000 -11.919700 0.000000 1.000000 0.000000 0.164344 0.014339
-33.769138 -0.000000 -11.912228 0.000000 1.000000 0.000000 0.166606 0.012073
-33.262215 -0.000000 -11.626027 0.000000 1.000000 0.000000 0.166606 0.078527
-35.052437 -0.000000 -10.796760 0.000000 1.000000 0.000000 0.138667 0.014345
-34.584953 -0.000000 -10.524939 0.000000 1.000000 0.000000 0.138659 0.076255
-34.557949 -0.000000 -10.532192 0.000000 1.000000 0.000000 0.136394 0.078527
-35.059761 -0.000000 -10.823975 0.000000 1.000000 0.000000 0.136394 0.012073
-34.696709 -0.000000 -10.329427 0.000000 1.000000 0.000000 0.164341 0.076254
-35.163414 -0.000000 -10.602127 0.000000 1.000000 0.000000 0.164333 0.014346
-35.190380 -0.000000 -10.594899 0.000000 1.000000 0.000000 0.166606 0.012073
-34.689423 -0.000000 -10.302186 0.000000 1.000000 0.000000 0.166606 0.078527
-35.052437 -0.012199 -10.796760 0.000000 1.000000 0.000000 0.043004 0.008155
-35.163414 -0.012199 -10.602127 0.000000 1.000000 0.000000 0.068670 0.008156
-34.696709 -0.012199 -10.329427 0.000000 1.000000 0.000000 0.068679 0.070064
-34.584953 -0.012199 -10.524939 0.000000 1.000000 0.000000 0.042996 0.070065
-33.630211 -0.012199 -12.115284 0.000000 1.000000 0.000000 0.042993 0.008148
-33.742008 -0.012199 -11.919700 0.000000 1.000000 0.000000 0.068681 0.008149
-33.269630 -0.012199 -11.653002 0.000000 1.000000 0.000000 0.068689 0.070072
-33.157059 -0.012199 -11.849464 0.000000 1.000000 0.000000 0.042985 0.070072
-35.163414 -0.000000 -10.602127 0.504500 0.000000 -0.863412 0.008894 0.194880
-34.696709 -0.000000 -10.329427 0.504500 0.000000 -0.863412 0.008894 0.006414
-34.696709 -0.012199 -10.329427 0.504500 0.000000 -0.863412 0.015745 0.006414
-35.163414 -0.012199 -10.602127 0.504500 0.000000 -0.863412 0.015745 0.194880
-33.742008 -0.000000 -11.919700 0.491641 0.000000 -0.870798 0.008894 0.194880
-33.269630 -0.000000 -11.653002 0.491641 0.000000 -0.870798 0.008894 0.006414
-33.269630 -0.012199 -11.653002 0.491641 0.000000 -0.870798 0.015745 0.006414
-33.742008 -0.012199 -11.919700 0.491641 0.000000 -0.870798 0.015745 0.194880
-33.630211 -0.000000 -12.115284 0.868176 0.000000 0.496256 0.016059 0.198185
-33.742008 -0.000000 -11.919700 0.868176 0.000000 0.496256 0.016059 0.259890
-33.742008 -0.012199 -11.919700 0.868176 0.000000 0.496256 0.008577 0.259890
-33.630211 -0.012199 -12.115284 0.868176 0.000000 0.496256 0.008577 0.198185
-35.052437 -0.000000 -10.796760 0.868707 0.000000 0.495326 0.016059 0.198185
-35.163414 -0.000000 -10.602127 0.868707 0.000000 0.495326 0.016059 0.259890
-35.163414 -0.012199 -10.602127 0.868707 0.000000 0.495326 0.008577 0.259890
-35.052437 -0.012199 -10.796760 0.868707 0.000000 0.495326 0.008577 0.198185
-34.584953 -0.000000 -10.524939 -0.502660 0.000000 0.864484 0.015745 0.006414
-35.052437 -0.000000 -10.796760 -0.502660 0.000000 0.864484 0.015745 0.194880
-35.052437 -0.012199 -10.796760 -0.502660 0.000000 0.864484 0.008894 0.194880
-34.584953 -0.012199 -10.524939 -0.502660 0.000000 0.864484 0.008894 0.006414
-33.157059 -0.000000 -11.849464 -0.489801 0.000000 0.871834 0.015745 0.006414
-33.630211 -0.000000 -12.115284 -0.489801 0.000000 0.871834 0.015745 0.194880
-33.630211 -0.012199 -12.115284 -0.489801 0.000000 0.871834 0.008894 0.194880
-33.157059 -0.012199 -11.849464 -0.489801 0.000000 0.871834 0.008894 0.006414
3 0 1 2
3 3 4 5
3 2 6 0
4 7 8 9 10
4 11 12 13 14
4 15 16 17 18
4 19 20 21 22
4 23 24 25 26
4 27 28 29 30
4 31 32 33 34
4 35 36 37 38
4 39 40 41 42
4 43 44 45 46
4 47 48 49 50
4 51 52 53 54
4 55 56 57 58
4 59 60 61 62
4 63 64 65 66
4 67 68 69 70
4 71 72 73 74
4 75 76 77 78
4 79 80 81 82
4 83 84 85 86
4 87 88 89 90
4 90 89 91 92
4 93 94 95 96
4 97 98 99 100
4 101 102 103 104
4 105 106 107 108
4 109 110 111 112
4 113 114 115 116
4 117 118 119 120
4 121 122 123 124
4 125 126 127 128
4 129 130 131 132
4 133 134 135 136
4 137 138 139 140
4 141 142 143 144
4 145 146 147 148
4 149 150 151 152
4 153 154 155 156
4 157 158 159 160
4 161 162 163 164
4 165 166 167 168
4 169 170 171 172
4 173 174 175 176
4 177 178 179 180
4 181 182 183 184
4 185 186 187 188
4 189 190 191 192
4 193 194 195 196
4 197 198 199 200
4 201 202 203 204
4 205 206 207 208
4 209 210 211 212
4 213 214 215 216
4 217 218 219 220
4 221 222 223 224
4 225 226 227 228
4 229 230 231 232
4 233 234 235 236
4 237 238 239 240
4 241 221 224 242
4 243 244 245 246
4 247 248 249 250
4 251 233 236 252
4 253 254 255 256
4 257 258 259 260
4 261 262 263 264
4 265 266 267 268
4 269 270 271 272
4 273 274 275 276
4 277 278 279 280
4 281 282 283 284
4 285 286 287 288
4 289 290 291 292
4 293 294 295 296
4 297 298 299 300
4 301 302 303 304
4 305 306 307 308
4 309 310 311 312
4 313 314 315 316
4 317 318 319 320
4 321 322 323 324
4 325 326 327 328
4 329 330 331 332
4 333 334 335 336
4 337 338 339 340
4 341 342 343 344
4 345 346 347 348
4 349 350 351 352
4 353 354 355 356
4 357 358 359 360
4 361 362 363 364
4 364 363 365 366
4 367 368 369 370
4 371 353 356 372
4 372 356 361 373
3 374 375 376
4 375 364 366 377
4 378 379 380 381
4 382 383 384 385
4 386 387 388 88
4 88 388 389 89
4 89 389 390 91
4 91 390 391 392
3 393 394 395
3 395 396 397
3 395 397 393
4 398 399 400 401
4 402 403 404 405
4 406 407 408 409
4 410 377 407 406
4 376 375 377 410
3 374 373 361
3 361 364 375
3 361 375 374
3 411 412 413
3 414 415 416
3 389 388 387
3 417 418 414
3 414 416 417
4 419 420 421 422
3 423 424 425
3 426 427 428
3 429 430 431
4 432 433 434 435
3 436 437 438
3 439 440 441
3 442 443 444
4 445 446 447 448
3 449 450 451
3 452 453 454
3 455 456 457
3 458 459 460
4 461 462 463 464
3 465 466 467
3 468 469 470
3 471 472 473
3 474 475 476
3 477 478 479
3 480 481 482
4 483 484 485 486
4 487 488 489 490
4 491 492 493 494
4 495 496 497 498
3 499 500 501
3 502 503 504
3 505 506 507
3 508 509 510
4 511 512 513 514
4 515 516 517 518
3 519 520 521
3 522 523 524
3 525 526 527
3 528 529 530
4 531 532 533 534
4 535 536 537 538
4 539 540 541 542
4 543 544 545 546
4 544 539 542 545
4 540 543 546 541
4 536 531 534 537
4 532 535 538 533
4 547 548 549 550
4 551 552 553 554
4 555 556 557 558
4 559 560 561 562
4 563 564 565 566
4 567 568 569 570
4 571 572 573 574
4 575 576 577 578
