ply
format ascii 1.0
comment Created by Blender 2.78 (sub 0) - www.blender.org, source file: 'soult.blend'
element vertex 5
property float x
property float y
property float z
property float nx
property float ny
property float nz
element face 3
property list uchar uint vertex_indices
end_header
-31.325783 -0.000000 -12.656118 0.000000 1.000000 0.000000
-34.616879 0.000000 -13.957073 0.000000 1.000000 0.000000
-37.025505 0.000000 -9.711736 0.000000 1.000000 0.000000
-34.492809 -0.000000 -7.605574 0.000000 1.000000 0.000000
-34.299522 -0.000000 -7.490853 0.000000 1.000000 0.000000
3 0 1 2
3 2 3 4
3 2 4 0
