ply
format ascii 1.0
comment Created by Blender 2.78 (sub 0) - www.blender.org, source file: 'soult.blend'
element vertex 64
property float x
property float y
property float z
property float nx
property float ny
property float nz
element face 32
property list uchar uint vertex_indices
end_header
-33.999882 -0.000000 -8.003181 -0.000000 -0.000000 -1.000000
-33.999882 1.000000 -8.003181 -0.000000 -0.000000 -1.000000
-33.399876 -0.000000 -8.003181 -0.000000 -0.000000 -1.000000
-33.399876 1.000000 -8.003181 -0.000000 -0.000000 -1.000000
-33.699863 -0.000000 -8.303176 1.000000 0.000000 0.000000
-33.699863 1.000000 -8.303176 1.000000 0.000000 0.000000
-33.699863 1.000000 -7.703177 1.000000 0.000000 0.000000
-33.699863 -0.000000 -7.703177 1.000000 0.000000 -0.000000
-33.665127 -0.000000 -8.683846 -0.000000 -0.000000 -1.000000
-33.665127 1.000000 -8.683846 -0.000000 -0.000000 -1.000000
-33.065121 -0.000000 -8.683846 -0.000000 -0.000000 -1.000000
-33.065121 1.000000 -8.683846 -0.000000 -0.000000 -1.000000
-33.365108 -0.000000 -8.983841 1.000000 0.000000 0.000000
-33.365108 1.000000 -8.983841 1.000000 0.000000 0.000000
-33.365108 1.000000 -8.383842 1.000000 0.000000 0.000000
-33.365108 -0.000000 -8.383842 1.000000 0.000000 -0.000000
-33.274582 -0.000000 -9.342194 -0.000000 -0.000000 -1.000000
-33.274582 1.000000 -9.342194 -0.000000 -0.000000 -1.000000
-32.674576 -0.000000 -9.342194 -0.000000 -0.000000 -1.000000
-32.674576 1.000000 -9.342194 -0.000000 -0.000000 -1.000000
-32.974564 -0.000000 -9.642189 1.000000 0.000000 0.000000
-32.974564 1.000000 -9.642189 1.000000 0.000000 0.000000
-32.974564 1.000000 -9.042191 1.000000 0.000000 0.000000
-32.974564 -0.000000 -9.042191 1.000000 0.000000 -0.000000
-32.884037 -0.000000 -9.967067 -0.000000 -0.000000 -1.000000
-32.884037 1.000000 -9.967067 -0.000000 -0.000000 -1.000000
-32.284031 -0.000000 -9.967067 -0.000000 -0.000000 -1.000000
-32.284031 1.000000 -9.967067 -0.000000 -0.000000 -1.000000
-32.584019 -0.000000 -10.267062 1.000000 0.000000 0.000000
-32.584019 0.999999 -10.267062 1.000000 0.000000 0.000000
-32.584019 1.000000 -9.667064 1.000000 0.000000 0.000000
-32.584019 -0.000000 -9.667064 1.000000 0.000000 -0.000000
-32.504650 -0.000000 -10.625415 -0.000000 -0.000000 -1.000000
-32.504650 0.999999 -10.625415 -0.000000 -0.000000 -1.000000
-31.904644 -0.000000 -10.625415 -0.000000 -0.000000 -1.000000
-31.904644 0.999999 -10.625415 -0.000000 -0.000000 -1.000000
-32.204632 -0.000000 -10.925410 1.000000 0.000000 0.000000
-32.204632 0.999999 -10.925410 1.000000 0.000000 0.000000
-32.204632 0.999999 -10.325412 1.000000 0.000000 0.000000
-32.204632 -0.000000 -10.325412 1.000000 0.000000 -0.000000
-32.114105 -0.000000 -11.250288 -0.000000 -0.000000 -1.000000
-32.114105 0.999999 -11.250288 -0.000000 -0.000000 -1.000000
-31.514099 -0.000000 -11.250288 -0.000000 -0.000000 -1.000000
-31.514099 0.999999 -11.250288 -0.000000 -0.000000 -1.000000
-31.814087 -0.000000 -11.550283 1.000000 0.000000 0.000000
-31.814087 0.999999 -11.550283 1.000000 0.000000 0.000000
-31.814087 0.999999 -10.950285 1.000000 0.000000 0.000000
-31.814087 -0.000000 -10.950285 1.000000 0.000000 -0.000000
-32.058311 -0.000000 -12.689728 -0.000000 -0.000000 -1.000000
-32.058311 0.999999 -12.689728 -0.000000 -0.000000 -1.000000
-31.458307 -0.000000 -12.689728 -0.000000 -0.000000 -1.000000
-31.458307 0.999999 -12.689728 -0.000000 -0.000000 -1.000000
-31.758295 -0.000000 -12.989723 1.000000 0.000000 0.000000
-31.758295 0.999999 -12.989723 1.000000 0.000000 0.000000
-31.758295 0.999999 -12.389725 1.000000 0.000000 0.000000
-31.758295 -0.000000 -12.389725 1.000000 0.000000 -0.000000
-32.738976 -0.000000 -13.024481 -0.000000 -0.000000 -1.000000
-32.738976 0.999999 -13.024481 -0.000000 -0.000000 -1.000000
-32.138973 -0.000000 -13.024481 -0.000000 -0.000000 -1.000000
-32.138973 0.999999 -13.024481 -0.000000 -0.000000 -1.000000
-32.438961 -0.000000 -13.324476 1.000000 0.000000 0.000000
-32.438961 0.999999 -13.324476 1.000000 0.000000 0.000000
-32.438961 0.999999 -12.724478 1.000000 0.000000 0.000000
-32.438961 -0.000000 -12.724478 1.000000 0.000000 -0.000000
3 0 1 2
3 2 1 3
3 4 5 6
3 7 4 6
3 8 9 10
3 10 9 11
3 12 13 14
3 15 12 14
3 16 17 18
3 18 17 19
3 20 21 22
3 23 20 22
3 24 25 26
3 26 25 27
3 28 29 30
3 31 28 30
3 32 33 34
3 34 33 35
3 36 37 38
3 39 36 38
3 40 41 42
3 42 41 43
3 44 45 46
3 47 44 46
3 48 49 50
3 50 49 51
3 52 53 54
3 55 52 54
3 56 57 58
3 58 57 59
3 60 61 62
3 63 60 62
