ply
format ascii 1.0
comment Created by Blender 2.78 (sub 0) - www.blender.org, source file: 'soult.blend'
element vertex 33
property float x
property float y
property float z
property float nx
property float ny
property float nz
element face 11
property list uchar uint vertex_indices
end_header
-34.759769 -0.000012 -8.370572 -0.857722 -0.000468 -0.514114
-34.480892 0.000005 -8.835843 -0.857722 -0.000468 -0.514114
-34.480698 -0.481432 -8.835723 -0.857722 -0.000468 -0.514114
-34.759579 -0.481500 -8.370458 -0.857722 -0.000468 -0.514114
-31.325783 -0.000000 -12.656118 0.000000 1.000000 0.000000
-34.616879 0.000000 -13.957073 0.000000 1.000000 0.000000
-36.751549 0.000000 -10.194613 0.000000 1.000000 0.000000
-31.325783 -0.000000 -12.656118 -0.000001 1.000000 -0.000002
-36.751549 0.000000 -10.194613 -0.000001 1.000000 -0.000002
-34.480892 0.000005 -8.835843 -0.000001 1.000000 -0.000002
-34.492809 -0.000000 -7.605574 0.000000 1.000000 0.000000
-34.299522 -0.000000 -7.490853 0.000000 1.000000 0.000000
-37.019112 0.000000 -9.723001 0.000000 1.000000 0.000000
-37.025505 0.000000 -9.711736 0.000000 1.000000 0.000000
-31.325783 -0.000000 -12.656118 0.000168 1.000000 0.000137
-34.480892 0.000005 -8.835843 0.000168 1.000000 0.000137
-34.759769 -0.000012 -8.370572 0.000168 1.000000 0.000137
-34.759769 -0.000012 -8.370572 0.000019 1.000000 -0.000022
-37.019112 0.000000 -9.723001 0.000019 1.000000 -0.000022
-34.492809 -0.000000 -7.605574 0.000019 1.000000 -0.000022
-34.759769 -0.000012 -8.370572 -0.000016 1.000000 -0.000010
-34.492809 -0.000000 -7.605574 -0.000016 1.000000 -0.000010
-31.325783 -0.000000 -12.656118 -0.000016 1.000000 -0.000010
-34.759579 -0.481500 -8.370458 0.513608 -0.000001 -0.858025
-37.019112 0.000000 -9.723001 0.513608 -0.000001 -0.858025
-34.759769 -0.000012 -8.370572 0.513608 -0.000001 -0.858025
-34.480698 -0.481432 -8.835723 0.154963 0.983770 0.090455
-36.751549 0.000000 -10.194613 0.154963 0.983770 0.090455
-37.019112 0.000000 -9.723001 0.154963 0.983770 0.090455
-34.759579 -0.481500 -8.370458 0.154963 0.983770 0.090455
-34.480892 0.000005 -8.835843 -0.513488 0.000007 0.858097
-36.751549 0.000000 -10.194613 -0.513488 0.000007 0.858097
-34.480698 -0.481432 -8.835723 -0.513488 0.000007 0.858097
4 0 1 2 3
3 4 5 6
3 7 8 9
3 10 11 4
3 12 13 10
3 14 15 16
3 17 18 19
3 20 21 22
3 23 24 25
4 26 27 28 29
3 30 31 32
