ply
format ascii 1.0
comment Created by Blender 2.78 (sub 0) - www.blender.org, source file: 'soult.blend'
element vertex 46
property float x
property float y
property float z
property float nx
property float ny
property float nz
element face 17
property list uchar uint vertex_indices
end_header
-34.566158 0.000000 -13.939934 0.000000 1.000000 0.000000
-35.717922 0.000000 -11.937838 0.000000 1.000000 0.000000
-32.893787 0.000000 -13.277381 0.000000 1.000000 0.000000
-35.392632 0.000000 -8.139631 0.510391 0.000000 -0.859943
-37.266396 0.000000 -9.251742 0.510391 0.000000 -0.859943
-37.266396 0.612972 -9.251742 0.510391 0.000000 -0.859943
-35.392632 0.612972 -8.139631 0.510391 0.000000 -0.859943
-33.340794 0.000000 -12.459289 0.000000 1.000000 0.000000
-33.340794 0.000000 -12.459289 0.000000 0.000000 0.000000
-35.717922 0.000000 -11.937838 0.000000 0.000000 0.000000
-35.717922 0.000000 -11.937838 0.000000 0.000000 0.000000
-33.340794 0.000000 -12.459289 0.000000 0.000000 0.000000
-33.340794 0.000000 -12.459289 0.000000 1.000000 0.000000
-35.717922 0.000000 -11.937838 0.000000 1.000000 0.000000
-34.111786 0.000000 -10.740425 0.000000 1.000000 0.000000
-37.266396 0.000000 -9.251742 0.000000 1.000000 0.000000
-35.392632 0.000000 -8.139631 0.000000 1.000000 0.000000
-34.299522 0.000000 -7.490854 0.000000 1.000000 0.000000
-32.930496 0.000000 -9.859744 0.000000 1.000000 0.000000
-32.930496 0.000000 -9.859744 0.000000 1.000000 0.000000
-32.930496 0.000000 -9.859744 0.000000 0.000000 0.000000
-31.325781 0.000000 -12.656120 0.000000 1.000000 0.000000
-32.930496 0.000000 -9.859744 -0.867335 -0.000000 -0.497725
-32.930496 0.000000 -9.859744 -0.867335 -0.000000 -0.497725
-32.930496 0.612972 -9.859744 -0.867335 -0.000000 -0.497725
-31.325781 0.612972 -12.656120 -0.867335 -0.000000 -0.497725
-32.930496 0.000000 -9.859744 -0.257674 0.930566 0.260097
-31.325781 0.612972 -12.656120 -0.257674 0.930566 0.260097
-33.340794 0.612972 -12.459289 -0.257674 0.930566 0.260097
-33.340794 0.000000 -12.459289 -0.257674 0.930566 0.260097
-32.930496 0.000000 -9.859744 -0.572706 0.000000 -0.819761
-35.392632 0.000000 -8.139631 -0.572706 0.000000 -0.819761
-35.392632 0.612972 -8.139631 -0.572706 0.000000 -0.819761
-32.930496 0.612972 -9.859744 -0.572706 0.000000 -0.819761
-35.717922 0.000000 -11.937838 0.368253 -0.926937 -0.071948
-34.566158 0.000000 -13.939934 0.368253 -0.926937 -0.071948
-34.566158 0.612972 -13.939934 0.368253 -0.926937 -0.071948
-32.893787 0.612972 -13.277381 0.368253 -0.926937 -0.071948
-35.717922 0.000000 -11.937838 -0.319599 -0.666216 -0.673805
-32.893787 0.612972 -13.277381 -0.319599 -0.666216 -0.673805
-32.893787 0.000000 -13.277381 -0.319599 -0.666216 -0.673805
-33.340794 0.000000 -12.459289 -0.319599 -0.666216 -0.673805
-35.717922 0.000000 -11.937838 0.597701 0.000000 -0.801719
-35.717922 0.612972 -11.937838 0.597701 0.000000 -0.801719
-34.111786 0.612972 -10.740425 0.597701 0.000000 -0.801719
-34.111786 0.000000 -10.740425 0.597701 0.000000 -0.801719
3 0 1 2
4 3 4 5 6
3 2 1 7
4 8 9 10 11
3 12 13 14
4 14 13 15 16
3 16 17 18
4 18 19 12 14
3 14 16 18
3 11 20 8
4 7 19 21 2
4 22 23 24 25
4 26 27 28 29
4 30 31 32 33
4 34 35 36 37
4 38 39 40 41
4 42 43 44 45
