ply
format ascii 1.0
comment Created by Blender 2.78 (sub 0) - www.blender.org, source file: 'soult.blend'
element vertex 114
property float x
property float y
property float z
property float nx
property float ny
property float nz
property float s
property float t
element face 43
property list uchar uint vertex_indices
end_header
-37.931404 -0.000000 -9.608263 -0.000000 1.000000 -0.000000 0.802285 0.625716
-37.390656 -0.000000 -10.249329 -0.000000 1.000000 -0.000000 0.741019 0.652222
-37.798676 -0.000000 -10.383583 -0.000000 1.000000 -0.000000 0.740148 0.618044
-38.233685 -0.000000 -9.862288 -0.000000 1.000000 -0.000000 0.789859 0.596849
-38.588337 -0.000000 -10.160325 -0.000000 1.000000 -0.000000 0.878446 0.213997
-38.233685 -0.000000 -9.862288 -0.000000 1.000000 -0.000000 0.849631 0.238212
-37.798676 -0.000000 -10.383583 -0.000000 1.000000 -0.000000 0.814286 0.195857
-37.956818 -0.000000 -10.489220 0.000000 1.000000 -0.000000 0.827135 0.187274
-38.170044 -0.000000 -10.671661 0.000000 1.000000 -0.000000 0.844460 0.172451
-37.405060 -0.000000 -9.165943 -0.000003 1.000000 0.000008 0.552302 0.790687
-37.244160 -0.000000 -9.338108 -0.000003 1.000000 0.000008 0.572888 0.789758
-37.702721 0.000003 -9.737499 -0.000003 1.000000 0.000008 0.573765 0.836278
-37.869843 -0.000000 -9.556529 -0.000003 1.000000 0.000008 0.552239 0.837137
-34.677704 -0.000000 -7.093819 -0.000000 1.000000 -0.000000 0.828935 0.207891
-34.199219 -0.000000 -6.444180 -0.000000 1.000000 -0.000000 0.801867 0.197457
-33.843746 -0.000000 -6.684927 -0.000000 1.000000 -0.000000 0.806846 0.182846
-33.890427 -0.000000 -6.724171 -0.000000 1.000000 -0.000000 0.808649 0.184092
-34.685791 -0.000000 -7.104179 0.000000 1.000000 -0.000000 0.829371 0.208073
-34.685791 -0.000000 -7.104179 -0.000017 1.000000 0.000036 0.829371 0.208073
-33.890427 -0.000000 -6.724171 -0.000017 1.000000 0.000036 0.808649 0.184092
-34.442608 0.000007 -7.202603 -0.000017 1.000000 0.000036 0.830478 0.198706
-34.695526 -0.000000 -7.112991 -0.000022 1.000000 0.000024 0.829769 0.208327
-34.685791 -0.000000 -7.104179 -0.000022 1.000000 0.000024 0.829371 0.208073
-34.442608 0.000007 -7.202603 -0.000022 1.000000 0.000024 0.830478 0.198706
-34.695526 -0.000000 -7.112991 -0.000024 1.000000 0.000017 0.829769 0.208327
-34.442608 0.000007 -7.202603 -0.000024 1.000000 0.000017 0.830478 0.198706
-34.503269 0.000007 -7.288235 -0.000024 1.000000 0.000017 0.834023 0.199998
-34.706696 -0.000000 -7.119957 -0.000016 1.000000 0.000026 0.830116 0.208648
-34.695526 -0.000000 -7.112991 -0.000016 1.000000 0.000026 0.829769 0.208327
-34.503269 0.000007 -7.288235 -0.000016 1.000000 0.000026 0.834023 0.199998
-34.706696 -0.000000 -7.119957 -0.000031 1.000000 0.000008 0.830116 0.208648
-34.503269 0.000007 -7.288235 -0.000031 1.000000 0.000008 0.834023 0.199998
-34.524666 0.000007 -7.366733 -0.000031 1.000000 0.000008 0.836948 0.199995
-34.716339 -0.000000 -7.124069 -0.000010 1.000000 0.000023 0.830350 0.208944
-34.706696 -0.000000 -7.119957 -0.000010 1.000000 0.000023 0.830116 0.208648
-34.524666 0.000007 -7.366733 -0.000010 1.000000 0.000023 0.836948 0.199995
-34.531807 0.000015 -7.491619 0.000085 1.000000 -0.000102 0.841347 0.199059
-34.492809 -0.000000 -7.605574 0.000085 1.000000 -0.000102 0.844930 0.196626
-37.025505 0.000000 -9.711736 0.000085 1.000000 -0.000102 0.941990 0.264491
-34.716339 -0.000000 -7.124069 0.000035 1.000000 0.000059 0.830350 0.208944
-34.524666 0.000007 -7.366733 0.000035 1.000000 0.000059 0.836948 0.199995
-34.531807 0.000015 -7.491619 0.000035 1.000000 0.000059 0.841347 0.199059
-34.757172 -0.000000 -7.126663 0.000000 1.000000 -0.000000 0.830827 0.210335
-34.753357 -0.000000 -7.126450 0.000000 1.000000 -0.000000 0.830784 0.210205
-34.734833 -0.000000 -7.125427 0.000000 1.000000 -0.000000 0.830573 0.209572
-34.734833 -0.000000 -7.125427 -0.000003 1.000000 0.000040 0.830573 0.209572
-34.716339 -0.000000 -7.124069 -0.000003 1.000000 0.000040 0.830350 0.208944
-34.531807 0.000015 -7.491619 -0.000003 1.000000 0.000040 0.841347 0.199059
-37.025505 0.000000 -9.711736 -0.000001 1.000000 -0.000001 0.941990 0.264491
-36.534546 -0.000000 -10.577084 -0.000001 1.000000 -0.000001 0.967345 0.239258
-36.685150 -0.000000 -10.436134 -0.000001 1.000000 -0.000001 0.963885 0.245818
-34.734833 -0.000000 -7.125427 -0.000029 1.000000 0.000026 0.830573 0.209572
-34.531807 0.000015 -7.491619 -0.000029 1.000000 0.000026 0.841347 0.199059
-37.025505 0.000000 -9.711736 -0.000029 1.000000 0.000026 0.941990 0.264491
-34.975189 -0.000000 -7.123970 0.000000 1.000000 -0.000000 0.832801 0.217922
-34.965271 -0.000000 -7.120590 0.000000 1.000000 -0.000000 0.832590 0.217610
-37.025505 0.000000 -9.711736 -0.000000 1.000000 0.000000 0.941990 0.264491
-37.025505 0.000000 -9.711736 -0.000000 1.000000 -0.000001 0.941990 0.264491
-36.685150 -0.000000 -10.436134 -0.000000 1.000000 -0.000001 0.963885 0.245818
-36.970627 -0.000000 -10.293736 -0.000000 1.000000 -0.000001 0.961654 0.257068
-37.257248 -0.000000 -10.246250 0.000000 1.000000 -0.000000 0.962725 0.267459
-37.390656 -0.000000 -10.249329 0.000000 1.000000 -0.000000 0.964097 0.272057
-37.931404 -0.000000 -9.608263 0.000000 1.000000 -0.000000 0.946992 0.296889
-37.257248 -0.000000 -10.246250 -0.000000 1.000000 -0.000001 0.962725 0.267459
-37.244160 -0.000000 -9.338108 0.000000 1.000000 -0.000000 0.931105 0.275617
-37.405060 -0.000000 -9.165943 0.000000 1.000000 -0.000000 0.926660 0.282829
-37.931404 -0.000000 -9.608263 -0.000010 1.000000 0.000012 0.946992 0.296889
-37.869843 -0.000000 -9.556529 -0.000010 1.000000 0.000012 0.944614 0.295245
-37.702721 0.000003 -9.737499 -0.000010 1.000000 0.000012 0.949305 0.287733
-37.244160 -0.000000 -9.338108 -0.000001 1.000000 0.000001 0.931105 0.275617
-34.975189 -0.000000 -7.123970 -0.000001 1.000000 0.000001 0.832801 0.217922
-37.025505 0.000000 -9.711736 -0.000001 1.000000 0.000001 0.941990 0.264491
-37.257248 -0.000000 -10.246250 -0.000041 1.000000 -0.000044 0.962725 0.267459
-37.931404 -0.000000 -9.608263 -0.000041 1.000000 -0.000044 0.946992 0.296889
-37.702721 0.000003 -9.737499 -0.000041 1.000000 -0.000044 0.949305 0.287733
-37.702721 0.000003 -9.737499 0.000005 1.000000 0.000004 0.949305 0.287733
-37.244160 -0.000000 -9.338108 0.000005 1.000000 0.000004 0.931105 0.275617
-37.025505 0.000000 -9.711736 0.000005 1.000000 0.000004 0.941990 0.264491
-37.025505 0.000000 -9.711736 0.000005 1.000000 -0.000003 0.941990 0.264491
-37.257248 -0.000000 -10.246250 0.000005 1.000000 -0.000003 0.962725 0.267459
-37.702721 0.000003 -9.737499 0.000005 1.000000 -0.000003 0.949305 0.287733
-35.026081 -0.000011 -8.529985 -0.859166 -0.000464 -0.511696 0.000000 0.000000
-34.748535 0.000004 -8.996003 -0.859166 -0.000464 -0.511696 0.000000 0.000000
-34.748367 -0.424685 -8.995897 -0.859166 -0.000464 -0.511696 0.000000 0.000000
-35.025913 -0.424745 -8.529884 -0.859166 -0.000464 -0.511696 0.000000 0.000000
-31.325783 -0.000000 -12.656118 0.000000 1.000000 0.000000 0.000000 0.000000
-34.616879 0.000000 -13.957073 0.000000 1.000000 0.000000 0.000000 0.000000
-36.751549 0.000000 -10.194613 0.000000 1.000000 0.000000 0.000000 0.000000
-31.325783 -0.000000 -12.656118 -0.000001 1.000000 -0.000002 0.000000 0.000000
-36.751549 0.000000 -10.194613 -0.000001 1.000000 -0.000002 0.000000 0.000000
-34.748535 0.000004 -8.996003 -0.000001 1.000000 -0.000002 0.000000 0.000000
-34.492809 -0.000000 -7.605574 0.000000 1.000000 0.000000 0.000000 0.000000
-34.299522 -0.000000 -7.490853 0.000000 1.000000 0.000000 0.000000 0.000000
-37.019112 0.000000 -9.723001 0.000000 1.000000 0.000000 0.000000 0.000000
-37.025505 0.000000 -9.711736 0.000000 1.000000 0.000000 0.000000 0.000000
-31.325783 -0.000000 -12.656118 0.000099 1.000000 0.000091 0.000000 0.000000
-34.748535 0.000004 -8.996003 0.000099 1.000000 0.000091 0.000000 0.000000
-35.026081 -0.000011 -8.529985 0.000099 1.000000 0.000091 0.000000 0.000000
-35.026081 -0.000011 -8.529985 0.000019 1.000000 -0.000022 0.000000 0.000000
-37.019112 0.000000 -9.723001 0.000019 1.000000 -0.000022 0.000000 0.000000
-34.492809 -0.000000 -7.605574 0.000019 1.000000 -0.000022 0.000000 0.000000
-35.026081 -0.000011 -8.529985 -0.000010 1.000000 -0.000006 0.000000 0.000000
-34.492809 -0.000000 -7.605574 -0.000010 1.000000 -0.000006 0.000000 0.000000
-31.325783 -0.000000 -12.656118 -0.000010 1.000000 -0.000006 0.000000 0.000000
-35.025913 -0.424745 -8.529884 0.513608 -0.000001 -0.858025 0.000000 0.000000
-37.019112 0.000000 -9.723001 0.513608 -0.000001 -0.858025 0.000000 0.000000
-35.026081 -0.000011 -8.529985 0.513608 -0.000001 -0.858025 0.000000 0.000000
-34.748367 -0.424685 -8.995897 0.155097 0.983770 0.090232 0.000000 0.000000
-36.751549 0.000000 -10.194613 0.155097 0.983770 0.090232 0.000000 0.000000
-37.019112 0.000000 -9.723001 0.155097 0.983770 0.090232 0.000000 0.000000
-35.025913 -0.424745 -8.529884 0.155097 0.983770 0.090232 0.000000 0.000000
-34.748535 0.000004 -8.996003 -0.513488 0.000011 0.858097 0.000000 0.000000
-36.751549 0.000000 -10.194613 -0.513488 0.000011 0.858097 0.000000 0.000000
-34.748367 -0.424685 -8.995897 -0.513488 0.000011 0.858097 0.000000 0.000000
4 0 1 2 3
3 4 5 6
3 7 8 4
3 6 7 4
4 9 10 11 12
3 13 14 15
3 13 15 16
3 17 13 16
3 18 19 20
3 21 22 23
3 24 25 26
3 27 28 29
3 30 31 32
3 33 34 35
3 36 37 38
3 39 40 41
3 42 43 44
3 45 46 47
3 48 49 50
3 51 52 53
3 54 55 42
3 42 44 56
3 57 58 59
3 60 61 62
3 57 59 63
3 54 42 56
3 64 65 54
3 66 67 68
3 69 70 71
3 72 73 74
3 75 76 77
3 78 79 80
4 81 82 83 84
3 85 86 87
3 88 89 90
3 91 92 85
3 93 94 91
3 95 96 97
3 98 99 100
3 101 102 103
3 104 105 106
4 107 108 109 110
3 111 112 113
