ply
format ascii 1.0
comment Created by Blender 2.78 (sub 0) - www.blender.org, source file: 'soult.blend'
element vertex 43
property float x
property float y
property float z
property float nx
property float ny
property float nz
element face 17
property list uchar uint vertex_indices
end_header
-33.488071 0.000000 -15.819283 0.000000 1.000000 0.000000
-34.006832 0.000000 -14.916294 0.000000 1.000000 0.000000
-32.172604 0.000000 -15.063555 0.000000 1.000000 0.000000
-34.930367 0.000000 -8.915662 0.498140 0.000000 -0.867096
-36.827896 0.000000 -10.005778 0.498140 0.000000 -0.867096
-36.827896 0.612972 -10.005778 0.498140 0.000000 -0.867096
-34.930367 0.612972 -8.915662 0.498140 0.000000 -0.867096
-32.659294 0.000000 -13.978580 0.000000 1.000000 0.000000
-35.717957 0.000000 -11.937807 0.000000 1.000000 0.000000
-33.340828 0.000000 -12.459258 0.000000 1.000000 0.000000
-34.111820 0.000000 -10.740395 0.000000 1.000000 0.000000
-36.827896 0.000000 -10.005778 0.000000 1.000000 0.000000
-34.930367 0.000000 -8.915662 0.000000 1.000000 0.000000
-34.930367 0.000000 -8.915662 -0.000000 -1.000000 -0.000000
-32.930531 0.000000 -9.859714 -0.000000 -1.000000 -0.000000
-33.834549 0.000000 -8.286122 -0.000000 -1.000000 -0.000000
-32.930531 0.000000 -9.859714 -0.000000 1.000000 0.000000
-31.162605 0.000000 -12.937077 -0.000000 1.000000 0.000000
-30.494728 0.000000 -14.099627 0.000000 1.000000 -0.000000
-31.162605 0.000000 -12.937077 -0.867096 0.000000 -0.498141
-32.930531 0.000000 -9.859714 -0.867096 0.000000 -0.498141
-32.930531 0.612972 -9.859714 -0.867096 0.000000 -0.498141
-31.162605 0.612972 -12.937077 -0.867096 0.000000 -0.498141
-31.162605 0.000000 -12.937077 0.214267 0.000000 0.976775
-31.162605 0.612972 -12.937077 0.214267 0.000000 0.976775
-33.340828 0.612972 -12.459258 0.214267 0.000000 0.976775
-33.340828 0.000000 -12.459258 0.214267 0.000000 0.976775
-32.930531 0.000000 -9.859714 -0.426890 0.000000 -0.904304
-34.930367 0.000000 -8.915662 -0.426890 0.000000 -0.904304
-34.930367 0.612972 -8.915662 -0.426890 0.000000 -0.904304
-32.930531 0.612972 -9.859714 -0.426890 0.000000 -0.904304
-34.006832 0.000000 -14.916294 0.867096 0.000000 0.498141
-33.488071 0.000000 -15.819283 0.867096 0.000000 0.498141
-33.488071 0.612972 -15.819283 0.867096 0.000000 0.498141
-34.006832 0.612972 -14.916294 0.867096 0.000000 0.498141
-34.006832 0.000000 -14.916294 0.571186 0.000000 -0.820820
-34.006832 0.612972 -14.916294 0.571186 0.000000 -0.820820
-32.659294 0.612972 -13.978580 0.571186 0.000000 -0.820820
-32.659294 0.000000 -13.978580 0.571186 0.000000 -0.820820
-35.717957 0.000000 -11.937807 0.597701 0.000000 -0.801719
-35.717957 0.612972 -11.937807 0.597701 0.000000 -0.801719
-34.111820 0.612972 -10.740395 0.597701 0.000000 -0.801719
-34.111820 0.000000 -10.740395 0.597701 0.000000 -0.801719
3 0 1 2
4 3 4 5 6
3 2 1 7
4 7 1 8 9
3 9 8 10
4 10 8 11 12
3 13 14 15
4 16 17 9 10
3 10 12 16
3 9 17 7
4 7 17 18 2
4 19 20 21 22
4 23 24 25 26
4 27 28 29 30
4 31 32 33 34
4 35 36 37 38
4 39 40 41 42
