ply
format ascii 1.0
comment Created by Blender 2.78 (sub 0) - www.blender.org, source file: 'soult.blend'
element vertex 223
property float x
property float y
property float z
property float nx
property float ny
property float nz
element face 74
property list uchar uint vertex_indices
end_header
-34.759579 -0.481500 -8.370458 0.153454 0.983852 0.092125
-34.480698 -0.481432 -8.835723 0.153454 0.983852 0.092125
-35.616123 -0.240716 -9.515167 0.153454 0.983852 0.092125
-35.616123 -0.240716 -9.515167 0.155715 0.983844 0.088343
-36.751549 0.000000 -10.194613 0.155715 0.983844 0.088343
-37.019112 0.000000 -9.723001 0.155715 0.983844 0.088343
-35.616123 -0.240716 -9.515167 0.155343 0.983690 0.090677
-37.019112 0.000000 -9.723001 0.155343 0.983690 0.090677
-34.759579 -0.481500 -8.370458 0.155343 0.983690 0.090677
-31.644575 -0.158332 -17.306610 0.136566 0.986628 0.088967
-31.668505 -0.152166 -17.336819 0.136566 0.986628 0.088967
-32.286968 -0.080148 -17.187578 0.136566 0.986628 0.088967
-32.245796 -0.100476 -17.023905 0.136566 0.986628 0.088967
-32.286968 -0.080148 -17.187578 0.072528 0.973306 0.217751
-31.668505 -0.152166 -17.336819 0.072528 0.973306 0.217751
-31.673761 -0.065295 -17.458214 0.072528 0.973306 0.217751
-32.248188 -0.049934 -17.600697 0.072528 0.973306 0.217751
-31.610064 -0.000007 -17.629583 -0.067956 0.979192 0.191221
-32.207764 -0.000008 -17.982300 -0.067956 0.979192 0.191221
-32.248188 -0.049934 -17.600697 -0.067956 0.979192 0.191221
-31.673761 -0.065295 -17.458214 -0.067956 0.979192 0.191221
-30.310478 -0.481432 -15.859898 0.145700 0.985605 0.085760
-30.034975 -0.481500 -16.327173 0.145700 0.985605 0.085760
-30.545559 -0.380065 -16.625481 0.145700 0.985605 0.085760
-30.545559 -0.380065 -16.625481 0.006249 0.949907 0.312469
-31.056141 -0.278630 -16.923788 0.006249 0.949907 0.312469
-31.566725 -0.177194 -17.222095 0.006249 0.949907 0.312469
-31.566725 -0.177194 -17.222095 0.138417 0.986038 0.092574
-31.890097 -0.170493 -16.809967 0.138417 0.986038 0.092574
-30.310478 -0.481432 -15.859898 0.138417 0.986038 0.092574
-30.545559 -0.380065 -16.625481 0.145701 0.985605 0.085760
-31.566725 -0.177194 -17.222095 0.145701 0.985605 0.085760
-30.310478 -0.481432 -15.859898 0.145701 0.985605 0.085760
-31.566725 -0.177194 -17.222095 0.138471 0.986022 0.092666
-31.620646 -0.164498 -17.276400 0.138471 0.986022 0.092666
-32.067947 -0.135485 -16.916935 0.138471 0.986022 0.092666
-31.890097 -0.170493 -16.809967 0.138471 0.986022 0.092666
-31.620646 -0.164498 -17.276400 0.138338 0.986057 0.092485
-31.644575 -0.158332 -17.306610 0.138338 0.986057 0.092485
-32.245796 -0.100476 -17.023905 0.138338 0.986057 0.092485
-32.067947 -0.135485 -16.916935 0.138338 0.986057 0.092485
-34.242283 -0.481500 -8.008907 0.172722 0.793839 -0.583084
-34.492809 0.000000 -7.605574 0.172722 0.793839 -0.583084
-33.871758 -0.000000 -7.243611 0.172722 0.793839 -0.583084
-33.749825 -0.481500 -8.041024 0.172722 0.793839 -0.583084
-34.759579 -0.481500 -8.370458 0.156470 0.983683 0.088791
-37.019112 0.000000 -9.723001 0.156470 0.983683 0.088791
-37.025505 -0.000000 -9.711734 0.156470 0.983683 0.088791
-37.025505 -0.000000 -9.711734 0.457407 0.698738 -0.550040
-34.492809 0.000000 -7.605574 0.457407 0.698738 -0.550040
-34.242283 -0.481500 -8.008907 0.457407 0.698738 -0.550040
-34.563450 -0.481500 -8.201609 0.470829 0.692259 -0.546898
-34.759579 -0.481500 -8.370458 0.470829 0.692259 -0.546898
-37.025505 -0.000000 -9.711734 0.470829 0.692259 -0.546898
-37.025505 -0.000000 -9.711734 0.513618 -0.058461 -0.856025
-34.242283 -0.481500 -8.008907 0.513618 -0.058461 -0.856025
-34.563450 -0.481500 -8.201609 0.513618 -0.058461 -0.856025
-33.749825 -0.481500 -8.041024 -0.742157 0.536435 -0.401798
-33.871758 -0.000000 -7.243611 -0.742157 0.536435 -0.401798
-33.241638 -0.000000 -8.336845 -0.742157 0.536435 -0.401798
-33.567829 -0.481500 -8.447838 -0.742157 0.536435 -0.401798
-33.567829 -0.481500 -8.447838 -0.733629 0.484012 -0.476992
-33.241638 -0.000000 -8.336845 -0.733629 0.484012 -0.476992
-32.611523 -0.000000 -9.430080 -0.733629 0.484012 -0.476992
-32.979019 -0.481500 -9.229348 -0.733629 0.484012 -0.476992
-32.979019 -0.481500 -9.229348 -0.750367 0.543474 -0.376279
-32.611523 -0.000000 -9.430080 -0.750367 0.543474 -0.376279
-31.981407 -0.000000 -10.523314 -0.750367 0.543474 -0.376279
-32.507973 -0.481500 -10.332026 -0.750367 0.543474 -0.376279
-32.507973 -0.481500 -10.332026 -0.718785 0.531687 -0.447947
-31.981407 -0.000000 -10.523314 -0.718785 0.531687 -0.447947
-31.351292 -0.000000 -11.616549 -0.718785 0.531687 -0.447947
-31.876343 -0.481500 -11.263415 -0.718785 0.531687 -0.447947
-31.876343 -0.481500 -11.263415 -0.705883 0.609519 -0.360855
-31.351292 -0.000000 -11.616549 -0.705883 0.609519 -0.360855
-30.721176 -0.000000 -12.709784 -0.705883 0.609519 -0.360855
-31.383884 -0.481500 -12.366094 -0.705883 0.609519 -0.360855
-30.091059 -0.000000 -13.803018 -0.749670 0.364622 -0.552310
-30.688019 -0.481500 -13.072664 -0.749670 0.364622 -0.552310
-31.383884 -0.481500 -12.366094 -0.749670 0.364622 -0.552310
-30.721176 -0.000000 -12.709784 -0.749670 0.364622 -0.552310
-30.688019 -0.481500 -13.072664 -0.752913 0.550008 -0.361405
-30.091059 -0.000000 -13.803018 -0.752913 0.550008 -0.361405
-29.460941 -0.000000 -14.896252 -0.752913 0.550008 -0.361405
-30.109915 -0.481500 -14.496511 -0.752913 0.550008 -0.361405
-30.109915 -0.481500 -14.496511 -0.658714 0.666318 -0.349451
-29.460941 -0.000000 -14.896252 -0.658714 0.666318 -0.349451
-28.830826 -0.000000 -15.989486 -0.658714 0.666318 -0.349451
-29.660278 -0.481500 -15.438606 -0.658714 0.666318 -0.349451
-29.660278 -0.481500 -15.438606 -0.452593 0.886787 0.093640
-28.830826 -0.000000 -15.989486 -0.452593 0.886787 0.093640
-29.788746 -0.481500 -16.059532 -0.452593 0.886787 0.093640
-28.830826 -0.000000 -15.989486 -0.380437 0.663076 0.644669
-29.386673 -0.000001 -16.317505 -0.380437 0.663076 0.644669
-29.788746 -0.481500 -16.059532 -0.380437 0.663076 0.644669
-29.788746 -0.481500 -16.059532 -0.468604 0.618270 0.630993
-29.386673 -0.000001 -16.317505 -0.468604 0.618270 0.630993
-29.942522 -0.000003 -16.645523 -0.468604 0.618270 0.630993
-30.034975 -0.481500 -16.327173 -0.468604 0.618270 0.630993
-30.498369 -0.000004 -16.973543 -0.358845 0.606775 0.709263
-30.545559 -0.380065 -16.625481 -0.358845 0.606775 0.709263
-30.034975 -0.481500 -16.327173 -0.358845 0.606775 0.709263
-29.942522 -0.000003 -16.645523 -0.358845 0.606775 0.709263
-31.054216 -0.000006 -17.301563 -0.301576 0.716122 0.629461
-31.056141 -0.278630 -16.923788 -0.301576 0.716122 0.629461
-30.545559 -0.380065 -16.625481 -0.301576 0.716122 0.629461
-30.498369 -0.000004 -16.973543 -0.301576 0.716122 0.629461
-31.644575 -0.158332 -17.306610 0.145735 0.985602 0.085727
-31.620646 -0.164498 -17.276400 0.145735 0.985602 0.085727
-31.566725 -0.177194 -17.222095 0.145735 0.985602 0.085727
-31.566725 -0.177194 -17.222095 -0.183295 0.791599 0.582901
-31.056141 -0.278630 -16.923788 -0.183295 0.791599 0.582901
-31.054216 -0.000006 -17.301563 -0.183295 0.791599 0.582901
-31.054216 -0.000006 -17.301563 -0.173328 0.940049 0.293709
-31.610064 -0.000007 -17.629583 -0.173328 0.940049 0.293709
-31.673761 -0.065295 -17.458214 -0.173328 0.940049 0.293709
-31.673761 -0.065295 -17.458214 -0.480369 0.703275 0.524071
-31.668505 -0.152166 -17.336819 -0.480369 0.703275 0.524071
-31.644575 -0.158332 -17.306610 -0.480369 0.703275 0.524071
-31.644575 -0.158332 -17.306610 -0.238884 0.877481 0.415886
-31.566725 -0.177194 -17.222095 -0.238884 0.877481 0.415886
-31.054216 -0.000006 -17.301563 -0.238884 0.877481 0.415886
-31.644575 -0.158332 -17.306610 -0.222213 0.811342 0.540690
-31.054216 -0.000006 -17.301563 -0.222213 0.811342 0.540690
-31.673761 -0.065295 -17.458214 -0.222213 0.811342 0.540690
-33.567829 -0.481500 -8.447838 0.000000 1.000000 0.000000
-32.979019 -0.481500 -9.229348 0.000000 1.000000 0.000000
-32.507973 -0.481500 -10.332026 0.000000 1.000000 0.000000
-31.876343 -0.481500 -11.263415 0.000000 1.000000 0.000000
-31.383884 -0.481500 -12.366094 0.000000 1.000000 0.000000
-30.688019 -0.481500 -13.072664 0.000000 1.000000 0.000000
-30.109915 -0.481500 -14.496511 0.000000 1.000000 0.000000
-29.660278 -0.481500 -15.438606 0.000000 1.000000 -0.000000
-29.788746 -0.481500 -16.059532 0.000000 1.000000 -0.000000
-29.788746 -0.481500 -16.059532 0.000097 1.000000 -0.000089
-30.034975 -0.481500 -16.327173 0.000097 1.000000 -0.000089
-30.310478 -0.481432 -15.859898 0.000097 1.000000 -0.000089
-30.109915 -0.481500 -14.496511 0.000142 1.000000 0.000029
-29.788746 -0.481500 -16.059532 0.000142 1.000000 0.000029
-30.310478 -0.481432 -15.859898 0.000142 1.000000 0.000029
-31.383884 -0.481500 -12.366094 0.000067 1.000000 0.000040
-30.109915 -0.481500 -14.496511 0.000067 1.000000 0.000040
-30.310478 -0.481432 -15.859898 0.000067 1.000000 0.000040
-31.383884 -0.481500 -12.366094 0.000002 1.000000 0.000020
-30.310478 -0.481432 -15.859898 0.000002 1.000000 0.000020
-30.600454 -0.481432 -15.837296 0.000002 1.000000 0.000020
-34.242283 -0.481500 -8.008907 0.000000 1.000000 0.000000
-33.749825 -0.481500 -8.041024 0.000000 1.000000 0.000000
-33.567829 -0.481500 -8.447838 0.000059 1.000000 0.000033
-31.383884 -0.481500 -12.366094 0.000059 1.000000 0.000033
-30.600454 -0.481432 -15.837296 0.000059 1.000000 0.000033
-31.261442 -0.481432 -15.959702 -0.000000 1.000000 0.000000
-32.277405 -0.481432 -16.290195 -0.000000 1.000000 0.000000
-33.134239 -0.481432 -15.898499 -0.000000 1.000000 0.000000
-33.567829 -0.481500 -8.447838 -0.000002 1.000000 0.000009
-30.600454 -0.481432 -15.837296 -0.000002 1.000000 0.000009
-31.261442 -0.481432 -15.959702 -0.000002 1.000000 0.000009
-34.563450 -0.481500 -8.201609 0.000000 1.000000 0.000000
-34.480698 -0.481432 -8.835723 -0.000083 1.000000 0.000097
-34.759579 -0.481500 -8.370458 -0.000083 1.000000 0.000097
-34.563450 -0.481500 -8.201609 -0.000083 1.000000 0.000097
-35.949558 -0.481432 -10.451470 0.000000 1.000000 0.000000
-35.447697 -0.481432 -9.766002 0.000000 1.000000 0.000000
-34.480698 -0.481432 -8.835723 0.000000 1.000000 0.000000
-33.954353 -0.481432 -14.343953 0.000000 1.000000 0.000000
-35.655785 -0.481432 -11.528635 0.000000 1.000000 0.000000
-34.563450 -0.481500 -8.201609 0.000002 1.000000 0.000010
-33.567829 -0.481500 -8.447838 0.000002 1.000000 0.000010
-31.261442 -0.481432 -15.959702 0.000002 1.000000 0.000010
-34.480698 -0.481432 -8.835723 0.000335 1.000000 0.000151
-34.563450 -0.481500 -8.201609 0.000335 1.000000 0.000151
-31.261442 -0.481432 -15.959702 0.000335 1.000000 0.000151
-34.480698 -0.481432 -8.835723 0.436059 0.777430 -0.453271
-35.447697 -0.481432 -9.766002 0.436059 0.777430 -0.453271
-35.616123 -0.240716 -9.515167 0.436059 0.777430 -0.453271
-35.447697 -0.481432 -9.766002 0.425638 0.828230 -0.364509
-35.949558 -0.481432 -10.451470 0.425638 0.828230 -0.364509
-36.751549 0.000000 -10.194613 0.425638 0.828230 -0.364509
-35.616123 -0.240716 -9.515167 0.425638 0.828230 -0.364509
-35.655785 -0.481432 -11.528635 0.659291 0.693124 0.291401
-35.925041 -0.000000 -11.652069 0.659291 0.693124 0.291401
-36.751549 0.000000 -10.194613 0.659291 0.693124 0.291401
-35.949558 -0.481432 -10.451470 0.659291 0.693124 0.291401
-33.954353 -0.481432 -14.343953 0.706575 0.573369 0.414728
-34.527412 -0.000000 -14.116639 0.706575 0.573369 0.414728
-35.925041 -0.000000 -11.652069 0.706575 0.573369 0.414728
-35.655785 -0.481432 -11.528635 0.706575 0.573369 0.414728
-33.134239 -0.481432 -15.898499 0.699967 0.601703 0.384708
-33.415344 -0.000000 -16.077652 0.699967 0.601703 0.384708
-34.527412 -0.000000 -14.116639 0.699967 0.601703 0.384708
-33.954353 -0.481432 -14.343953 0.699967 0.601703 0.384708
-32.277405 -0.481432 -16.290195 0.418679 0.799296 0.431085
-32.859314 -0.000000 -17.058159 0.418679 0.799296 0.431085
-33.415344 -0.000000 -16.077652 0.418679 0.799296 0.431085
-33.134239 -0.481432 -15.898499 0.418679 0.799296 0.431085
-32.245796 -0.100476 -17.023905 0.156554 0.984188 0.082854
-32.286968 -0.080148 -17.187578 0.156554 0.984188 0.082854
-32.859314 -0.000000 -17.058159 0.156554 0.984188 0.082854
-32.859314 -0.000000 -17.058159 0.059374 0.865411 0.497532
-32.277405 -0.481432 -16.290195 0.059374 0.865411 0.497532
-32.067947 -0.135485 -16.916935 0.059374 0.865411 0.497532
-32.859314 -0.000000 -17.058159 0.158079 0.985617 0.059747
-32.067947 -0.135485 -16.916935 0.158079 0.985617 0.059747
-32.245796 -0.100476 -17.023905 0.158079 0.985617 0.059747
-30.600454 -0.481432 -15.837296 0.021685 0.960272 0.278224
-30.310478 -0.481432 -15.859898 0.021685 0.960272 0.278224
-31.890097 -0.170493 -16.809967 0.021685 0.960272 0.278224
-31.890097 -0.170493 -16.809967 -0.099567 0.884837 0.455137
-32.067947 -0.135485 -16.916935 -0.099567 0.884837 0.455137
-32.277405 -0.481432 -16.290195 -0.099567 0.884837 0.455137
-30.600454 -0.481432 -15.837296 0.000000 1.000000 0.000000
-31.890097 -0.170493 -16.809967 -0.119531 0.888724 0.442586
-32.277405 -0.481432 -16.290195 -0.119531 0.888724 0.442586
-30.600454 -0.481432 -15.837296 -0.119531 0.888724 0.442586
-32.248188 -0.049934 -17.600697 -0.071853 0.989938 0.121904
-32.207764 -0.000008 -17.982300 -0.071853 0.989938 0.121904
-32.303280 -0.000000 -18.038666 -0.071853 0.989938 0.121904
-32.303280 -0.000000 -18.038666 0.157961 0.983374 0.089578
-32.859314 -0.000000 -17.058159 0.157961 0.983374 0.089578
-32.286968 -0.080148 -17.187578 0.157961 0.983374 0.089578
-32.248188 -0.049934 -17.600697 0.182229 0.979245 0.088724
-32.303280 -0.000000 -18.038666 0.182229 0.979245 0.088724
-32.286968 -0.080148 -17.187578 0.182229 0.979245 0.088724
3 0 1 2
3 3 4 5
3 6 7 8
4 9 10 11 12
4 13 14 15 16
4 17 18 19 20
3 21 22 23
3 24 25 26
3 27 28 29
3 30 31 32
4 33 34 35 36
4 37 38 39 40
4 41 42 43 44
3 45 46 47
3 48 49 50
3 51 52 53
3 54 55 56
4 57 58 59 60
4 61 62 63 64
4 65 66 67 68
4 69 70 71 72
4 73 74 75 76
4 77 78 79 80
4 81 82 83 84
4 85 86 87 88
3 89 90 91
3 92 93 94
4 95 96 97 98
4 99 100 101 102
4 103 104 105 106
3 107 108 109
3 110 111 112
3 113 114 115
3 116 117 118
3 119 120 121
3 122 123 124
3 125 126 127
3 127 128 129
3 129 130 131
3 131 132 133
3 134 135 136
3 137 138 139
3 125 127 129
3 140 141 142
3 143 144 145
3 146 147 125
3 148 149 150
3 151 152 153
3 154 155 156
3 157 146 125
3 158 159 160
3 161 162 163
3 164 165 161
3 151 153 164
3 166 167 168
3 164 161 163
3 169 170 171
3 151 164 163
3 172 173 174
4 175 176 177 178
4 179 180 181 182
4 183 184 185 186
4 187 188 189 190
4 191 192 193 194
3 195 196 197
3 198 199 200
3 201 202 203
3 204 205 206
3 207 208 209
3 152 151 210
3 211 212 213
3 214 215 216
3 217 218 219
3 220 221 222
