ply
format ascii 1.0
comment Created by Blender 2.78 (sub 0) - www.blender.org, source file: 'soult.blend'
element vertex 25
property float x
property float y
property float z
property float nx
property float ny
property float nz
element face 8
property list uchar uint vertex_indices
end_header
-32.303280 -0.000000 -18.038666 -0.508228 0.000000 0.861222
-32.303280 -0.500000 -18.038666 -0.508228 0.000000 0.861222
-28.830826 -0.500000 -15.989486 -0.508228 0.000000 0.861222
-28.830826 -0.000000 -15.989486 -0.508228 0.000000 0.861222
-37.025505 -0.000000 -9.711734 0.869859 0.000000 0.493300
-37.025505 -0.500000 -9.711734 0.869859 0.000000 0.493300
-32.303280 -0.500000 -18.038666 0.869859 0.000000 0.493300
-32.303280 -0.000000 -18.038666 0.869859 0.000000 0.493300
-34.492809 -0.500000 -7.605574 0.639392 0.000000 -0.768881
-37.025505 -0.500000 -9.711734 0.639392 0.000000 -0.768881
-37.025505 -0.000000 -9.711734 0.639392 0.000000 -0.768881
-34.492809 0.000000 -7.605574 0.639392 0.000000 -0.768881
-33.871758 -0.500000 -7.243611 -0.866390 0.000000 -0.499368
-33.871758 -0.000000 -7.243611 -0.866390 0.000000 -0.499368
-28.830826 -0.000000 -15.989486 -0.866390 0.000000 -0.499368
-28.830826 -0.500000 -15.989486 -0.866390 0.000000 -0.499368
-28.830826 -0.500000 -15.989486 -0.000000 1.000000 0.000000
-32.303280 -0.500000 -18.038666 -0.000000 1.000000 0.000000
-37.025505 -0.500000 -9.711734 -0.000000 1.000000 0.000000
-34.492809 -0.500000 -7.605574 0.000000 1.000000 0.000000
-33.871758 -0.500000 -7.243611 0.000000 1.000000 0.000000
-33.871758 -0.500000 -7.243611 0.503542 0.000000 -0.863971
-34.492809 -0.500000 -7.605574 0.503542 0.000000 -0.863971
-34.492809 0.000000 -7.605574 0.503542 0.000000 -0.863971
-33.871758 -0.000000 -7.243611 0.503542 0.000000 -0.863971
4 0 1 2 3
4 4 5 6 7
4 8 9 10 11
4 12 13 14 15
3 16 17 18
3 18 19 20
3 18 20 16
4 21 22 23 24
