ply
format ascii 1.0
comment Created by Blender 2.78 (sub 0) - www.blender.org, source file: 'soult.blend'
element vertex 64
property float x
property float y
property float z
property float nx
property float ny
property float nz
element face 54
property list uchar uint vertex_indices
end_header
-15.527596 -0.000000 -8.558411 -0.000000 1.000000 -0.000000
-15.363724 -0.000000 -8.424820 -0.000000 1.000000 -0.000000
-14.850555 -0.000000 -8.985906 -0.000000 1.000000 -0.000000
-14.876221 -0.000000 -8.999199 -0.000000 1.000000 -0.000000
-18.386251 -0.000000 -10.247392 0.000000 1.000000 -0.000000
-18.993301 -0.000000 -10.511428 0.000000 1.000000 -0.000000
-15.849518 -0.000000 -8.777794 0.000000 1.000000 -0.000000
-14.893870 -0.000000 -9.009868 0.000000 1.000000 -0.000000
-17.663149 -0.000000 -9.989522 0.000000 1.000000 -0.000000
-16.359085 -0.000000 -9.611130 -0.000000 1.000000 -0.000000
-17.010216 -0.000000 -9.804489 -0.000000 1.000000 -0.000000
-15.027130 -0.000000 -9.097550 -0.000000 1.000000 -0.000000
-15.636976 -0.000000 -9.353541 -0.000000 1.000000 -0.000000
-14.907715 -0.000000 -9.025162 0.000000 1.000000 -0.000000
-14.914373 -0.000000 -9.044676 0.000000 1.000000 -0.000000
-27.500969 -0.000001 -15.193604 0.000008 1.000000 -0.000023
-27.455910 -0.000001 -15.178116 0.000008 1.000000 -0.000023
-28.830820 -0.000008 -15.989491 0.000008 1.000000 -0.000023
-28.874084 -0.000001 -15.917595 -0.000000 1.000000 -0.000000
-28.937988 -0.000001 -15.817558 -0.000000 1.000000 -0.000000
-28.796265 -0.000001 -15.035873 -0.000000 1.000000 -0.000000
-27.500969 -0.000001 -15.193604 0.000042 1.000000 -0.000081
-28.830820 -0.000008 -15.989491 0.000042 1.000000 -0.000081
-28.874084 -0.000001 -15.917595 0.000042 1.000000 -0.000081
-27.649750 -0.000001 -15.219254 0.000000 1.000000 -0.000000
-27.500969 -0.000001 -15.193604 0.000000 1.000000 -0.000000
-28.197159 -0.000001 -15.225525 0.000000 1.000000 -0.000000
-27.842560 -0.000001 -15.238358 -0.000000 1.000000 -0.000000
-21.856354 -0.000000 -8.808289 0.000000 1.000000 -0.000000
-21.885117 -0.000000 -8.811836 0.000000 1.000000 -0.000000
-20.971985 -0.000000 -8.549629 0.000000 1.000000 -0.000000
-21.036369 -0.000000 -8.578848 -0.000000 1.000000 -0.000000
-21.827408 -0.000000 -8.809792 -0.000000 1.000000 -0.000000
-21.096939 -0.000000 -8.653036 -0.000000 1.000000 -0.000000
-21.799149 -0.000000 -8.816292 -0.000000 1.000000 -0.000000
-21.106121 -0.000000 -8.736944 0.000000 1.000000 -0.000000
-21.772461 -0.000000 -8.827614 0.000000 1.000000 -0.000000
-21.089371 -0.000000 -8.791367 -0.000000 1.000000 -0.000000
-21.080032 -0.000000 -8.806404 -0.000000 1.000000 -0.000000
-21.709473 -0.000000 -8.886284 -0.000000 1.000000 -0.000000
-21.748138 -0.000000 -8.843376 0.000000 1.000000 -0.000000
-21.726929 -0.000000 -8.863136 -0.000000 1.000000 -0.000000
-28.906738 -0.000001 -14.958992 -0.000000 1.000000 -0.000000
-30.868534 -0.000001 -12.462495 -0.000000 1.000000 -0.000000
-30.827486 -0.000001 -12.446134 -0.000000 1.000000 -0.000000
-30.734430 -0.000001 -12.408890 0.000000 1.000000 -0.000000
-30.727509 -0.000001 -12.418159 0.000000 1.000000 -0.000000
-30.695084 -0.000001 -12.461670 0.000000 1.000000 -0.000000
-30.030975 -0.000001 -13.040329 0.000000 1.000000 -0.000000
-30.685028 -0.000001 -12.468948 0.000000 1.000000 -0.000000
-30.673309 -0.000001 -12.473038 0.000000 1.000000 -0.000000
-30.080643 -0.000001 -12.881725 0.000000 1.000000 -0.000000
-30.098663 -0.000001 -12.716522 0.000000 1.000000 -0.000000
-30.660950 -0.000001 -12.474312 -0.000000 1.000000 -0.000000
-30.648758 -0.000001 -12.471996 0.000000 1.000000 -0.000000
-30.080397 -0.000001 -12.523225 -0.000000 1.000000 -0.000000
-30.637817 -0.000001 -12.467178 -0.000000 1.000000 -0.000000
-30.066620 -0.000001 -12.454372 -0.000000 1.000000 -0.000000
-30.628357 -0.000001 -12.459167 -0.000000 1.000000 -0.000000
-30.608198 -0.000001 -12.358460 0.000000 1.000000 -0.000000
-29.817093 -0.000001 -12.042187 0.000000 1.000000 -0.000000
-30.024658 -0.000001 -12.342300 0.000000 1.000000 -0.000000
-30.619339 -0.000001 -12.445366 0.000000 1.000000 -0.000000
-30.615677 -0.000001 -12.432232 0.000000 1.000000 -0.000000
3 0 1 2
3 0 2 3
3 4 5 6
3 6 0 3
3 6 3 7
3 8 4 6
3 9 10 8
3 11 12 9
3 13 14 11
3 6 7 13
3 9 8 6
3 13 11 9
3 13 9 6
3 15 16 17
3 18 19 20
3 21 22 23
3 24 25 18
3 18 20 26
3 27 24 18
3 18 26 27
3 28 29 30
3 28 30 31
3 32 28 31
3 32 31 33
3 34 32 33
3 34 33 35
3 36 34 35
3 37 38 39
3 36 35 37
3 40 36 37
3 37 39 41
3 37 41 40
3 42 20 19
3 19 43 44
3 44 45 46
3 44 46 47
3 42 19 44
3 48 42 44
3 44 47 49
3 44 49 50
3 51 48 44
3 52 51 44
3 52 44 50
3 52 50 53
3 52 53 54
3 55 52 54
3 55 54 56
3 57 55 56
3 57 56 58
3 59 60 61
3 61 57 58
3 61 58 62
3 63 59 61
3 62 63 61
