ply
format ascii 1.0
comment Created by Blender 2.78 (sub 0) - www.blender.org, source file: 'soult.blend'
element vertex 116
property float x
property float y
property float z
property float nx
property float ny
property float nz
element face 48
property list uchar uint vertex_indices
end_header
-29.212526 -0.000001 -16.313332 0.000052 1.000000 -0.000060
-28.784748 -0.000008 -16.066088 0.000052 1.000000 -0.000060
-28.556629 -0.000046 -16.506971 0.000052 1.000000 -0.000060
-28.556629 -0.000046 -16.506971 -0.000004 1.000000 -0.000002
-18.685928 -0.000000 -11.086223 -0.000004 1.000000 -0.000002
-18.556236 -0.000000 -11.328753 -0.000004 1.000000 -0.000002
-18.556236 -0.000000 -11.328753 -0.000000 1.000000 -0.000000
-17.952293 -0.000000 -11.069868 -0.000000 1.000000 -0.000000
-17.227160 -0.000000 -10.815798 -0.000000 1.000000 -0.000000
-16.889482 -0.000000 -10.722191 -0.000000 1.000000 -0.000000
-17.303177 -0.000000 -10.950073 -0.000000 1.000000 -0.000000
-18.426544 -0.000001 -11.571281 -0.000000 -1.000000 0.000000
-18.578205 -0.000001 -11.655513 -0.000000 -1.000000 0.000000
-18.832993 -0.000001 -11.797020 -0.000000 -1.000000 0.000000
-18.426544 -0.000001 -11.571281 0.000000 1.000000 -0.000000
-28.556629 -0.000046 -16.506971 0.000013 1.000000 -0.000035
-18.556236 -0.000000 -11.328753 0.000013 1.000000 -0.000035
-17.227160 -0.000000 -10.815798 0.000013 1.000000 -0.000035
-32.223793 -0.000001 -18.066822 0.000046 1.000000 -0.000080
-29.212526 -0.000001 -16.313332 0.000046 1.000000 -0.000080
-28.556629 -0.000046 -16.506971 0.000046 1.000000 -0.000080
-37.809692 -0.000001 -21.088661 0.000000 1.000000 -0.000000
-32.255043 -0.000001 -18.011948 0.000000 1.000000 -0.000000
-32.223793 -0.000001 -18.066822 0.000000 1.000000 -0.000000
-36.988251 -0.000001 -22.035599 0.000000 1.000000 -0.000000
-37.244381 -0.000001 -22.177429 0.000000 1.000000 -0.000000
-36.786102 -0.000001 -21.925552 0.000000 1.000000 -0.000000
-37.809692 -0.000001 -21.088661 0.000058 1.000000 -0.000108
-32.223793 -0.000001 -18.066822 0.000058 1.000000 -0.000108
-28.556629 -0.000046 -16.506971 0.000058 1.000000 -0.000108
-28.556629 -0.000046 -16.506971 -0.000020 1.000000 0.000032
-17.227160 -0.000000 -10.815798 -0.000020 1.000000 0.000032
-18.426544 -0.000001 -11.571281 -0.000020 1.000000 0.000032
-28.556629 -0.000046 -16.506971 -0.000037 1.000000 0.000066
-18.426544 -0.000001 -11.571281 -0.000037 1.000000 0.000066
-18.832993 -0.000001 -11.797020 -0.000037 1.000000 0.000066
-36.786102 -0.000001 -21.925552 0.000003 1.000000 0.000004
-37.809692 -0.000001 -21.088661 0.000003 1.000000 0.000004
-28.556629 -0.000046 -16.506971 0.000003 1.000000 0.000004
-36.560913 -0.000001 -21.820724 -0.000013 1.000000 0.000029
-36.786102 -0.000001 -21.925552 -0.000013 1.000000 0.000029
-28.556629 -0.000046 -16.506971 -0.000013 1.000000 0.000029
-28.556629 -0.000046 -16.506971 -0.000012 1.000000 0.000015
-18.832993 -0.000001 -11.797020 -0.000012 1.000000 0.000015
-18.869644 -0.000001 -11.826620 -0.000012 1.000000 0.000015
-18.869644 -0.000001 -11.826620 0.000001 1.000000 -0.000001
-18.910828 -0.000001 -11.892204 0.000001 1.000000 -0.000001
-19.720655 -0.000000 -12.482489 0.000001 1.000000 -0.000001
-18.869644 -0.000001 -11.826620 0.000000 1.000000 0.000000
-19.720655 -0.000000 -12.482489 0.000000 1.000000 0.000000
-19.736288 -0.000000 -12.444747 0.000000 1.000000 0.000000
-36.169281 -0.000001 -21.650223 -0.000011 1.000000 0.000025
-36.560913 -0.000001 -21.820724 -0.000011 1.000000 0.000025
-28.556629 -0.000046 -16.506971 -0.000011 1.000000 0.000025
-34.882843 -0.000001 -21.350805 -0.000000 1.000000 -0.000000
-35.375519 -0.000001 -21.663895 -0.000000 1.000000 -0.000000
-36.169281 -0.000001 -21.650223 -0.000000 1.000000 -0.000000
-34.862701 -0.000001 -21.277859 -0.000000 1.000000 -0.000000
-18.869644 -0.000001 -11.826620 0.000000 1.000000 0.000001
-19.736288 -0.000000 -12.444747 0.000000 1.000000 0.000001
-19.774031 -0.000000 -12.429113 0.000000 1.000000 0.000001
-18.869644 -0.000001 -11.826620 -0.000001 1.000000 0.000002
-19.774031 -0.000000 -12.429113 -0.000001 1.000000 0.000002
-19.811771 -0.000000 -12.444747 -0.000001 1.000000 0.000002
-34.828728 -0.000001 -21.240082 0.000000 1.000000 -0.000000
-34.342087 -0.000001 -20.794220 -0.000000 1.000000 -0.000000
-34.726494 -0.000001 -21.225529 -0.000000 1.000000 -0.000000
-34.311676 -0.000001 -20.664368 0.000000 1.000000 -0.000000
-28.556629 -0.000046 -16.506971 -0.000020 1.000000 0.000031
-18.869644 -0.000001 -11.826620 -0.000020 1.000000 0.000031
-19.811771 -0.000000 -12.444747 -0.000020 1.000000 0.000031
-19.827406 -0.000000 -12.482489 -0.000002 1.000000 -0.000001
-19.811771 -0.000000 -12.520230 -0.000002 1.000000 -0.000001
-20.010569 -0.000001 -12.773006 -0.000002 1.000000 -0.000001
-28.556629 -0.000046 -16.506971 -0.000007 1.000000 0.000003
-19.811771 -0.000000 -12.444747 -0.000007 1.000000 0.000003
-19.827406 -0.000000 -12.482489 -0.000007 1.000000 0.000003
-34.285858 -0.000001 -20.603806 -0.000000 1.000000 -0.000000
-19.827406 -0.000000 -12.482489 -0.000001 1.000000 -0.000002
-20.010569 -0.000001 -12.773006 -0.000001 1.000000 -0.000002
-20.080698 -0.000001 -12.716904 -0.000001 1.000000 -0.000002
-20.122776 -0.000001 -12.695865 -0.000001 1.000000 -0.000002
-34.155418 -0.000001 -20.473721 -0.000000 1.000000 -0.000000
-34.155418 -0.000001 -20.473721 -0.000038 1.000000 0.000066
-36.169281 -0.000001 -21.650223 -0.000038 1.000000 0.000066
-28.556629 -0.000046 -16.506971 -0.000038 1.000000 0.000066
-19.827406 -0.000000 -12.482489 -0.000000 1.000000 -0.000003
-20.122776 -0.000001 -12.695865 -0.000000 1.000000 -0.000003
-20.220957 -0.000001 -12.681839 -0.000000 1.000000 -0.000003
-19.827406 -0.000000 -12.482489 0.000005 1.000000 -0.000014
-20.220957 -0.000001 -12.681839 0.000005 1.000000 -0.000014
-20.277060 -0.000001 -12.702878 0.000005 1.000000 -0.000014
-28.842907 -0.000001 -17.479950 -0.000032 1.000000 0.000056
-34.155418 -0.000001 -20.473721 -0.000032 1.000000 0.000056
-28.556629 -0.000046 -16.506971 -0.000032 1.000000 0.000056
-28.790649 -0.000001 -17.456848 -0.000024 1.000000 0.000054
-28.842907 -0.000001 -17.479950 -0.000024 1.000000 0.000054
-28.556629 -0.000046 -16.506971 -0.000024 1.000000 0.000054
-28.556629 -0.000046 -16.506971 -0.000064 1.000000 0.000128
-19.827406 -0.000000 -12.482489 -0.000064 1.000000 0.000128
-20.277060 -0.000001 -12.702878 -0.000064 1.000000 0.000128
-28.556629 -0.000046 -16.506971 -0.000036 1.000000 0.000067
-20.277060 -0.000001 -12.702878 -0.000036 1.000000 0.000067
-27.412683 -0.000001 -16.569271 -0.000036 1.000000 0.000067
-28.518768 -0.000001 -17.374969 -0.000016 1.000000 0.000052
-28.790649 -0.000001 -17.456848 -0.000016 1.000000 0.000052
-28.556629 -0.000046 -16.506971 -0.000016 1.000000 0.000052
-27.459007 -0.000001 -16.691998 0.000000 1.000000 -0.000000
-28.445618 -0.000001 -17.372055 0.000000 1.000000 -0.000000
-28.518768 -0.000001 -17.374969 0.000000 1.000000 -0.000000
-27.458385 -0.000001 -16.636375 -0.000000 1.000000 -0.000000
-28.518768 -0.000001 -17.374969 -0.000037 1.000000 0.000051
-28.556629 -0.000046 -16.506971 -0.000037 1.000000 0.000051
-27.412683 -0.000001 -16.569271 -0.000037 1.000000 0.000051
-27.435215 -0.000001 -16.601103 -0.000000 1.000000 0.000000
-27.412683 -0.000001 -16.569271 -0.000000 1.000000 0.000000
3 0 1 2
3 3 4 5
3 6 7 8
3 8 9 10
3 11 12 13
3 8 10 14
3 15 16 17
3 18 19 20
3 21 22 23
3 24 25 21
3 26 24 21
3 27 28 29
3 30 31 32
3 33 34 35
3 36 37 38
3 39 40 41
3 42 43 44
3 45 46 47
3 48 49 50
3 51 52 53
3 54 55 56
3 57 54 56
3 58 59 60
3 61 62 63
3 64 57 56
3 65 66 64
3 67 65 64
3 68 69 70
3 71 72 73
3 74 75 76
3 67 64 56
3 77 67 56
3 78 79 80
3 78 80 81
3 82 77 56
3 83 84 85
3 86 87 88
3 89 90 91
3 92 93 94
3 95 96 97
3 98 99 100
3 101 102 103
3 104 105 106
3 107 108 109
3 110 107 109
3 111 112 113
3 114 110 109
3 115 114 109
