ply
format ascii 1.0
comment Created by Blender 2.78 (sub 0) - www.blender.org, source file: 'soult.blend'
element vertex 160
property float x
property float y
property float z
property float nx
property float ny
property float nz
element face 89
property list uchar uint vertex_indices
end_header
-34.726494 -0.000001 -21.225529 0.000000 1.000000 -0.000000
-34.342087 -0.000001 -20.794220 0.000000 1.000000 -0.000000
-34.340088 -0.000001 -20.886993 0.000000 1.000000 -0.000000
-34.658478 -0.000001 -21.253265 0.000000 1.000000 -0.000000
-34.555206 -0.000001 -21.382355 0.000000 1.000000 -0.000000
-34.074829 -0.000001 -21.608017 0.000000 1.000000 -0.000000
-34.474182 -0.000001 -21.545700 0.000000 1.000000 -0.000000
-34.034943 -0.000001 -21.706436 0.000000 1.000000 -0.000000
-34.446999 -0.000001 -21.654364 0.000000 1.000000 -0.000000
-33.944550 -0.000001 -21.892807 -0.000000 1.000000 -0.000000
-33.840954 -0.000001 -22.080238 -0.000000 1.000000 -0.000000
-34.404510 -0.000001 -22.391724 -0.000000 1.000000 -0.000000
-34.464806 -0.000001 -21.693481 -0.000000 1.000000 -0.000000
-34.568359 -0.000001 -22.167114 0.000000 1.000000 -0.000000
-34.759552 -0.000001 -21.981857 -0.000000 1.000000 -0.000000
-34.517738 -0.000001 -21.697712 0.000000 1.000000 -0.000000
-34.989166 -0.000001 -21.825134 -0.000000 1.000000 -0.000000
-34.623779 -0.000001 -21.650116 -0.000000 1.000000 -0.000000
-35.186005 -0.000001 -21.731705 0.000000 1.000000 -0.000000
-35.375519 -0.000001 -21.663895 0.000000 1.000000 -0.000000
-34.882843 -0.000001 -21.350805 0.000000 1.000000 -0.000000
-34.707855 -0.000001 -21.590347 0.000000 1.000000 -0.000000
-34.846649 -0.000001 -21.428009 -0.000000 1.000000 -0.000000
-34.768341 -0.000001 -21.530853 0.000000 1.000000 -0.000000
-26.422745 -0.000001 -18.733543 -0.000000 1.000000 0.000000
-27.599747 -0.000001 -19.311295 -0.000000 1.000000 0.000000
-27.506233 -0.000001 -19.242661 -0.000000 1.000000 0.000000
-27.463142 -0.000001 -19.191757 -0.000000 1.000000 0.000000
-28.445618 -0.000001 -17.372055 -0.000000 1.000000 -0.000000
-27.459007 -0.000001 -16.691998 -0.000000 1.000000 -0.000000
-27.441475 -0.000001 -16.744595 -0.000000 1.000000 -0.000000
-27.435883 -0.000001 -19.138153 -0.000000 1.000000 0.000000
-27.388443 -0.000001 -18.979034 -0.000000 1.000000 -0.000000
-28.315796 -0.000001 -17.384613 -0.000000 1.000000 -0.000000
-28.276184 -0.000001 -17.393082 -0.000000 1.000000 -0.000000
-27.404144 -0.000001 -18.969193 -0.000000 1.000000 -0.000000
-27.654083 -0.000001 -19.119125 -0.000000 1.000000 -0.000000
-27.965027 -0.000001 -18.558716 -0.000000 1.000000 -0.000000
-27.993179 -0.000001 -17.524918 -0.000000 1.000000 -0.000000
-27.939957 -0.000001 -17.559998 -0.000000 1.000000 -0.000000
-28.175659 -0.000001 -18.143951 0.000000 1.000000 -0.000000
-28.197144 -0.000001 -18.105484 -0.000000 1.000000 -0.000000
-27.710175 -0.000001 -17.838043 -0.000000 1.000000 -0.000000
-27.692413 -0.000001 -17.828079 0.000000 1.000000 -0.000000
-27.821960 -0.000001 -17.660583 -0.000000 1.000000 -0.000000
-27.723236 -0.000001 -17.780106 -0.000000 1.000000 -0.000000
-28.830818 -0.000001 -15.989493 0.000154 1.000000 -0.000007
-28.784748 -0.000008 -16.066088 0.000154 1.000000 -0.000007
-28.556629 -0.000046 -16.506971 0.000154 1.000000 -0.000007
-28.556629 -0.000046 -16.506971 -0.000004 1.000000 -0.000002
-18.685928 -0.000000 -11.086223 -0.000004 1.000000 -0.000002
-18.556236 -0.000000 -11.328753 -0.000004 1.000000 -0.000002
-18.556236 -0.000000 -11.328753 -0.000000 1.000000 -0.000000
-17.952293 -0.000000 -11.069868 -0.000000 1.000000 -0.000000
-17.227160 -0.000000 -10.815798 -0.000000 1.000000 -0.000000
-16.889482 -0.000000 -10.722191 -0.000000 1.000000 -0.000000
-17.303177 -0.000000 -10.950073 -0.000000 1.000000 -0.000000
-18.426544 -0.000001 -11.571281 -0.000000 -1.000000 0.000000
-18.578205 -0.000001 -11.655513 -0.000000 -1.000000 0.000000
-18.832993 -0.000001 -11.797020 -0.000000 -1.000000 0.000000
-18.426544 -0.000001 -11.571281 0.000000 1.000000 -0.000000
-28.556629 -0.000046 -16.506971 0.000013 1.000000 -0.000035
-18.556236 -0.000000 -11.328753 0.000013 1.000000 -0.000035
-17.227160 -0.000000 -10.815798 0.000013 1.000000 -0.000035
-32.255043 -0.000001 -18.011948 0.000040 1.000000 -0.000067
-28.830818 -0.000001 -15.989493 0.000040 1.000000 -0.000067
-28.556629 -0.000046 -16.506971 0.000040 1.000000 -0.000067
-37.244381 -0.000001 -22.177429 0.000000 1.000000 -0.000000
-37.809692 -0.000001 -21.088661 0.000000 1.000000 -0.000000
-32.255043 -0.000001 -18.011948 0.000000 1.000000 -0.000000
-36.988251 -0.000001 -22.035599 0.000000 1.000000 -0.000000
-28.556629 -0.000046 -16.506971 -0.000020 1.000000 0.000032
-17.227160 -0.000000 -10.815798 -0.000020 1.000000 0.000032
-18.426544 -0.000001 -11.571281 -0.000020 1.000000 0.000032
-36.988251 -0.000001 -22.035599 0.000024 1.000000 -0.000028
-32.255043 -0.000001 -18.011948 0.000024 1.000000 -0.000028
-28.556629 -0.000046 -16.506971 0.000024 1.000000 -0.000028
-36.786102 -0.000001 -21.925552 -0.000027 1.000000 0.000049
-36.988251 -0.000001 -22.035599 -0.000027 1.000000 0.000049
-28.556629 -0.000046 -16.506971 -0.000027 1.000000 0.000049
-28.556629 -0.000046 -16.506971 -0.000037 1.000000 0.000066
-18.426544 -0.000001 -11.571281 -0.000037 1.000000 0.000066
-18.832993 -0.000001 -11.797020 -0.000037 1.000000 0.000066
-18.869644 -0.000001 -11.826620 0.000001 1.000000 -0.000001
-18.910828 -0.000001 -11.892204 0.000001 1.000000 -0.000001
-19.720655 -0.000000 -12.482489 0.000001 1.000000 -0.000001
-28.556629 -0.000046 -16.506971 -0.000012 1.000000 0.000015
-18.832993 -0.000001 -11.797020 -0.000012 1.000000 0.000015
-18.869644 -0.000001 -11.826620 -0.000012 1.000000 0.000015
-36.560913 -0.000001 -21.820724 -0.000013 1.000000 0.000029
-36.786102 -0.000001 -21.925552 -0.000013 1.000000 0.000029
-28.556629 -0.000046 -16.506971 -0.000013 1.000000 0.000029
-36.169281 -0.000001 -21.650223 -0.000000 1.000000 -0.000000
-36.169281 -0.000001 -21.650223 -0.000011 1.000000 0.000025
-36.560913 -0.000001 -21.820724 -0.000011 1.000000 0.000025
-28.556629 -0.000046 -16.506971 -0.000011 1.000000 0.000025
-18.869644 -0.000001 -11.826620 0.000000 1.000000 0.000000
-19.720655 -0.000000 -12.482489 0.000000 1.000000 0.000000
-19.736288 -0.000000 -12.444747 0.000000 1.000000 0.000000
-18.869644 -0.000001 -11.826620 0.000000 1.000000 0.000001
-19.736288 -0.000000 -12.444747 0.000000 1.000000 0.000001
-19.774031 -0.000000 -12.429113 0.000000 1.000000 0.000001
-34.862701 -0.000001 -21.277859 -0.000000 1.000000 -0.000000
-34.828728 -0.000001 -21.240082 -0.000000 1.000000 -0.000000
-18.869644 -0.000001 -11.826620 -0.000001 1.000000 0.000002
-19.774031 -0.000000 -12.429113 -0.000001 1.000000 0.000002
-19.811771 -0.000000 -12.444747 -0.000001 1.000000 0.000002
-19.827406 -0.000000 -12.482489 -0.000002 1.000000 -0.000001
-19.811771 -0.000000 -12.520230 -0.000002 1.000000 -0.000001
-20.010569 -0.000001 -12.773006 -0.000002 1.000000 -0.000001
-28.556629 -0.000046 -16.506971 -0.000020 1.000000 0.000031
-18.869644 -0.000001 -11.826620 -0.000020 1.000000 0.000031
-19.811771 -0.000000 -12.444747 -0.000020 1.000000 0.000031
-19.811771 -0.000000 -12.444747 -0.000012 1.000000 0.000005
-19.827406 -0.000000 -12.482489 -0.000012 1.000000 0.000005
-20.010569 -0.000001 -12.773006 -0.000012 1.000000 0.000005
-19.811771 -0.000000 -12.444747 -0.000001 1.000000 -0.000001
-20.010569 -0.000001 -12.773006 -0.000001 1.000000 -0.000001
-20.080698 -0.000001 -12.716904 -0.000001 1.000000 -0.000001
-34.311676 -0.000001 -20.664368 0.000000 1.000000 -0.000000
-19.811771 -0.000000 -12.444747 -0.000001 1.000000 -0.000002
-20.080698 -0.000001 -12.716904 -0.000001 1.000000 -0.000002
-20.122776 -0.000001 -12.695865 -0.000001 1.000000 -0.000002
-19.811771 -0.000000 -12.444747 -0.000000 1.000000 -0.000002
-20.122776 -0.000001 -12.695865 -0.000000 1.000000 -0.000002
-20.220957 -0.000001 -12.681839 -0.000000 1.000000 -0.000002
-34.285858 -0.000001 -20.603806 -0.000000 1.000000 -0.000000
-34.155418 -0.000001 -20.473721 -0.000000 1.000000 -0.000000
-19.811771 -0.000000 -12.444747 0.000003 1.000000 -0.000009
-20.220957 -0.000001 -12.681839 0.000003 1.000000 -0.000009
-20.277060 -0.000001 -12.702878 0.000003 1.000000 -0.000009
-19.811771 -0.000000 -12.444747 0.000065 1.000000 -0.000121
-20.277060 -0.000001 -12.702878 0.000065 1.000000 -0.000121
-27.412683 -0.000001 -16.569271 0.000065 1.000000 -0.000121
-34.155418 -0.000001 -20.473721 -0.000038 1.000000 0.000066
-36.169281 -0.000001 -21.650223 -0.000038 1.000000 0.000066
-28.556629 -0.000046 -16.506971 -0.000038 1.000000 0.000066
-28.842907 -0.000001 -17.479950 -0.000032 1.000000 0.000056
-34.155418 -0.000001 -20.473721 -0.000032 1.000000 0.000056
-28.556629 -0.000046 -16.506971 -0.000032 1.000000 0.000056
-28.556629 -0.000046 -16.506971 -0.000036 1.000000 0.000067
-19.811771 -0.000000 -12.444747 -0.000036 1.000000 0.000067
-27.412683 -0.000001 -16.569271 -0.000036 1.000000 0.000067
-28.556629 -0.000046 -16.506971 -0.000039 1.000000 0.000027
-27.412683 -0.000001 -16.569271 -0.000039 1.000000 0.000027
-27.435215 -0.000001 -16.601103 -0.000039 1.000000 0.000027
-28.790649 -0.000001 -17.456848 -0.000024 1.000000 0.000054
-28.842907 -0.000001 -17.479950 -0.000024 1.000000 0.000054
-28.556629 -0.000046 -16.506971 -0.000024 1.000000 0.000054
-28.518768 -0.000001 -17.374969 0.000000 1.000000 -0.000000
-28.518768 -0.000001 -17.374969 -0.000016 1.000000 0.000052
-28.790649 -0.000001 -17.456848 -0.000016 1.000000 0.000052
-28.556629 -0.000046 -16.506971 -0.000016 1.000000 0.000052
-28.556629 -0.000046 -16.506971 -0.000039 1.000000 0.000025
-27.435215 -0.000001 -16.601103 -0.000039 1.000000 0.000025
-27.458385 -0.000001 -16.636375 -0.000039 1.000000 0.000025
-27.458385 -0.000001 -16.636375 -0.000000 1.000000 -0.000000
-28.556629 -0.000046 -16.506971 -0.000036 1.000000 0.000051
-27.458385 -0.000001 -16.636375 -0.000036 1.000000 0.000051
-28.518768 -0.000001 -17.374969 -0.000036 1.000000 0.000051
3 0 1 2
3 3 0 2
3 4 3 2
3 4 2 5
3 6 4 5
3 6 5 7
3 8 6 7
3 9 10 11
3 8 7 9
3 12 8 9
3 9 11 13
3 9 13 14
3 15 12 9
3 15 9 14
3 15 14 16
3 17 15 16
3 18 19 20
3 17 16 18
3 21 17 18
3 18 20 22
3 23 21 18
3 18 22 23
3 24 25 26
3 24 26 27
3 28 29 30
3 24 27 31
3 24 31 32
3 33 28 30
3 34 33 30
3 30 24 32
3 35 36 37
3 30 32 35
3 38 34 30
3 39 38 30
3 35 37 40
3 40 41 42
3 40 42 43
3 44 39 30
3 45 44 30
3 35 40 43
3 43 45 30
3 35 43 30
3 46 47 48
3 49 50 51
3 52 53 54
3 54 55 56
3 57 58 59
3 54 56 60
3 61 62 63
3 64 65 66
3 67 68 69
3 70 67 69
3 71 72 73
3 74 75 76
3 77 78 79
3 80 81 82
3 83 84 85
3 86 87 88
3 89 90 91
3 20 19 92
3 93 94 95
3 96 97 98
3 99 100 101
3 102 20 92
3 1 0 103
3 103 102 92
3 104 105 106
3 107 108 109
3 110 111 112
3 113 114 115
3 116 117 118
3 1 103 92
3 119 1 92
3 120 121 122
3 123 124 125
3 126 119 92
3 127 126 92
3 128 129 130
3 131 132 133
3 134 135 136
3 137 138 139
3 140 141 142
3 143 144 145
3 146 147 148
3 29 28 149
3 150 151 152
3 153 154 155
3 156 29 149
3 157 158 159
