ply
format ascii 1.0
comment Created by Blender 2.78 (sub 0) - www.blender.org, source file: 'soult.blend'
element vertex 57
property float x
property float y
property float z
property float nx
property float ny
property float nz
element face 55
property list uchar uint vertex_indices
end_header
-22.077652 -0.000000 -7.957153 0.000000 1.000000 -0.000000
-22.087173 -0.000000 -7.859917 0.000000 1.000000 -0.000000
-21.458836 -0.000000 -7.718599 0.000000 1.000000 -0.000000
-21.362865 -0.000000 -7.973746 0.000000 1.000000 -0.000000
-17.033157 -0.000000 -6.887421 0.000000 1.000000 -0.000000
-16.816864 -0.000000 -7.068859 0.000000 1.000000 -0.000000
-22.078049 -0.000000 -7.984779 -0.000000 1.000000 -0.000000
-15.388794 -0.000000 -6.823441 -0.000000 1.000000 -0.000000
-14.713902 -0.000000 -6.714509 -0.000000 1.000000 -0.000000
-14.831528 -0.000000 -7.335350 -0.000000 1.000000 -0.000000
-14.922584 -0.000000 -7.210086 -0.000000 1.000000 -0.000000
-15.088043 -0.000000 -7.145699 0.000000 1.000000 -0.000000
-22.094315 -0.000000 -8.027397 0.000000 1.000000 -0.000000
-22.103897 -0.000000 -8.045326 -0.000000 1.000000 -0.000000
-15.153717 -0.000000 -7.138649 -0.000000 1.000000 -0.000000
-15.220047 -0.000000 -7.145958 -0.000000 1.000000 -0.000000
-16.744514 -0.000000 -7.518044 -0.000000 1.000000 -0.000000
-17.961624 -0.000000 -7.808472 -0.000000 1.000000 -0.000000
-22.158707 -0.000000 -8.108978 -0.000000 1.000000 -0.000000
-19.209610 -0.000000 -8.123970 0.000000 1.000000 -0.000000
-20.536819 -0.000000 -8.449402 0.000000 1.000000 -0.000000
-22.223740 -0.000000 -8.162132 0.000000 1.000000 -0.000000
-22.297012 -0.000000 -8.203194 -0.000000 1.000000 -0.000000
-20.971985 -0.000000 -8.549629 -0.000000 1.000000 -0.000000
-22.308426 -0.000000 -8.208160 0.000000 1.000000 -0.000000
-30.598053 -0.000001 -11.721481 0.000000 1.000000 -0.000000
-30.494293 -0.000001 -11.469261 0.000000 1.000000 -0.000000
-30.885864 -0.000001 -12.133888 0.000000 1.000000 -0.000000
-31.119781 -0.000001 -11.924583 0.000000 1.000000 -0.000000
-30.874329 -0.000001 -12.128891 -0.000000 1.000000 -0.000000
-21.885117 -0.000000 -8.811836 0.000000 1.000000 -0.000000
-21.912827 -0.000000 -8.820328 0.000000 1.000000 -0.000000
-21.926971 -0.000000 -8.826828 0.000000 1.000000 -0.000000
-22.037338 -0.000000 -8.869888 0.000000 1.000000 -0.000000
-30.861893 -0.000001 -12.127411 0.000000 1.000000 -0.000000
-22.111893 -0.000000 -8.901230 -0.000000 1.000000 -0.000000
-22.654373 -0.000000 -9.118347 -0.000000 1.000000 -0.000000
-23.895950 -0.000000 -9.618340 0.000000 1.000000 -0.000000
-24.330154 -0.000000 -9.787872 0.000000 1.000000 -0.000000
-24.586227 -0.000000 -9.669899 0.000000 1.000000 -0.000000
-30.849426 -0.000001 -12.128853 0.000000 1.000000 -0.000000
-30.837891 -0.000001 -12.133789 -0.000000 1.000000 -0.000000
-25.226013 -0.000000 -9.927750 -0.000000 1.000000 -0.000000
-25.143801 -0.000000 -10.130260 -0.000000 1.000000 -0.000000
-29.817093 -0.000001 -12.042187 -0.000000 1.000000 -0.000000
-30.827820 -0.000001 -12.141273 0.000000 1.000000 -0.000000
-30.781342 -0.000001 -12.188171 0.000000 1.000000 -0.000000
-30.809143 -0.000001 -12.160439 0.000000 1.000000 -0.000000
-30.724304 -0.000001 -12.242157 -0.000000 1.000000 -0.000000
-30.753052 -0.000001 -12.215416 -0.000000 1.000000 -0.000000
-30.686127 -0.000001 -12.276260 0.000000 1.000000 -0.000000
-30.715485 -0.000001 -12.250168 0.000000 1.000000 -0.000000
-30.623093 -0.000001 -12.329334 0.000000 1.000000 -0.000000
-30.656311 -0.000001 -12.301819 0.000000 1.000000 -0.000000
-30.066620 -0.000001 -12.454372 0.000000 1.000000 -0.000000
-30.613190 -0.000001 -12.341061 0.000000 1.000000 -0.000000
-30.024658 -0.000001 -12.342300 -0.000000 1.000000 -0.000000
3 0 1 2
3 3 4 5
3 0 2 3
3 6 0 3
3 3 5 7
3 8 9 10
3 8 10 11
3 3 7 8
3 12 6 3
3 13 12 3
3 8 11 14
3 15 16 17
3 8 14 15
3 18 13 3
3 3 8 15
3 17 19 20
3 3 15 17
3 21 18 3
3 22 21 3
3 3 17 20
3 3 20 23
3 24 22 3
3 25 26 24
3 27 28 25
3 29 27 25
3 25 24 3
3 3 23 30
3 31 32 33
3 3 30 31
3 29 25 3
3 34 29 3
3 3 31 33
3 33 35 36
3 36 37 38
3 36 38 39
3 3 33 36
3 40 34 3
3 41 40 3
3 3 36 39
3 42 43 44
3 3 39 42
3 45 41 3
3 46 47 45
3 48 49 46
3 50 51 48
3 52 53 50
3 54 55 52
3 56 54 52
3 52 50 48
3 48 46 45
3 45 3 42
3 44 56 52
3 45 42 44
3 52 48 45
3 44 52 45
