ply
format ascii 1.0
comment Created by Blender 2.78 (sub 0) - www.blender.org, source file: 'soult.blend'
element vertex 295
property float x
property float y
property float z
property float nx
property float ny
property float nz
property float s
property float t
element face 111
property list uchar uint vertex_indices
end_header
-13.267250 -0.000000 -9.852661 -0.000000 1.000000 -0.000000 0.803050 0.562304
-12.925745 -0.000000 -9.646208 -0.000000 1.000000 -0.000000 0.773371 0.572453
-12.846539 -0.000000 -9.718211 -0.000000 1.000000 -0.000000 0.768491 0.565599
-12.846539 -0.000000 -9.718211 -0.000035 1.000000 -0.000027 0.768491 0.565599
-12.242778 0.000007 -10.224303 -0.000035 1.000000 -0.000027 0.730578 0.516640
-12.366318 -0.000000 -10.343292 -0.000035 1.000000 -0.000027 0.742055 0.509566
-12.366318 -0.000000 -10.343292 -0.000000 1.000000 -0.000000 0.742055 0.509566
-12.427170 -0.000000 -10.298233 -0.000000 1.000000 -0.000000 0.745975 0.514043
-13.284184 -0.000000 -9.901720 -0.000000 1.000000 -0.000000 0.805169 0.558819
-12.832359 -0.000000 -10.261528 0.000000 1.000000 -0.000000 0.776482 0.523634
-12.909691 -0.000000 -10.297127 0.000000 1.000000 -0.000000 0.783016 0.522192
-12.750031 -0.000000 -10.239891 -0.000000 1.000000 -0.000000 0.769797 0.523919
-12.496605 -0.000000 -10.263790 -0.000000 1.000000 -0.000000 0.750733 0.517849
-12.580421 -0.000000 -10.240723 0.000000 1.000000 -0.000000 0.756784 0.521021
-12.665192 -0.000000 -10.232887 0.000000 1.000000 -0.000000 0.763164 0.523039
-14.830066 -0.000002 -10.929637 0.000001 1.000000 -0.000003 0.767679 0.571791
-14.530040 -0.000002 -10.725725 0.000001 1.000000 -0.000003 0.753599 0.549706
-14.513722 -0.000002 -10.863701 0.000001 1.000000 -0.000003 0.764477 0.548742
-14.513722 -0.000002 -10.863701 -0.000000 1.000000 -0.000000 0.764477 0.548742
-14.513721 -0.000002 -11.000984 -0.000000 1.000000 -0.000000 0.775263 0.549059
-14.643379 -0.000002 -11.115389 -0.000000 1.000000 -0.000000 0.783951 0.559508
-14.909754 -0.000002 -11.288869 0.000000 1.000000 -0.000000 0.789571 0.568181
-14.830066 -0.000002 -10.929637 0.000000 1.000000 -0.000000 0.767679 0.571791
-13.573351 -0.000001 -10.075513 -0.000001 1.000000 0.000001 0.740895 0.618638
-13.569115 -0.000000 -10.751834 -0.000001 1.000000 0.000001 0.798374 0.591396
-13.930486 -0.000000 -11.001019 -0.000001 1.000000 0.000001 0.833977 0.612295
-13.901529 -0.000001 -10.298559 -0.000001 1.000000 0.000001 0.772950 0.637746
-14.530040 -0.000002 -10.725725 -0.000002 1.000000 0.000001 0.767766 0.570412
-13.901529 -0.000001 -10.298559 -0.000002 1.000000 0.000001 0.735657 0.520046
-13.930486 -0.000000 -11.001019 -0.000002 1.000000 0.000001 0.790779 0.523943
-13.930486 -0.000000 -11.001019 -0.000003 1.000000 -0.000000 0.790779 0.523943
-14.513721 -0.000002 -11.000984 -0.000003 1.000000 -0.000000 0.789430 0.569766
-14.513722 -0.000002 -10.863701 -0.000003 1.000000 -0.000000 0.778644 0.569448
-13.930486 -0.000000 -11.001019 -0.000004 1.000000 -0.000004 0.790779 0.523943
-14.513722 -0.000002 -10.863701 -0.000004 1.000000 -0.000004 0.778644 0.569448
-14.530040 -0.000002 -10.725725 -0.000004 1.000000 -0.000004 0.767766 0.570412
-17.695974 -0.000006 -12.877450 -0.000009 1.000000 0.000013 0.469853 0.837527
-17.825935 -0.000002 -13.333331 -0.000009 1.000000 0.000013 0.469853 0.788945
-18.068951 -0.000002 -13.503702 -0.000009 1.000000 0.000013 0.491888 0.788945
-17.934801 -0.000006 -13.039767 -0.000009 1.000000 0.000013 0.491888 0.837527
-17.934801 -0.000006 -13.039767 -0.000010 1.000000 0.000013 0.752343 0.531035
-18.068951 -0.000002 -13.503702 -0.000010 1.000000 0.000013 0.777853 0.528898
-18.331591 -0.000007 -13.309445 -0.000010 1.000000 0.000013 0.770177 0.559008
-14.830066 -0.000002 -10.929637 -0.000001 1.000000 0.000001 0.469853 0.837527
-14.909754 -0.000002 -11.288869 -0.000001 1.000000 0.000001 0.469853 0.788945
-15.152769 -0.000002 -11.459241 -0.000001 1.000000 0.000001 0.491888 0.788945
-15.068892 -0.000003 -11.091955 -0.000001 1.000000 0.000001 0.491888 0.837527
-15.068892 -0.000003 -11.091955 -0.000002 1.000000 0.000002 0.469853 0.837527
-15.152769 -0.000002 -11.459241 -0.000002 1.000000 0.000002 0.469853 0.788945
-15.395784 -0.000002 -11.629613 -0.000002 1.000000 0.000002 0.491888 0.788945
-15.307717 -0.000003 -11.254272 -0.000002 1.000000 0.000002 0.491888 0.837527
-15.307717 -0.000003 -11.254272 -0.000003 1.000000 0.000003 0.469853 0.837527
-15.395784 -0.000002 -11.629613 -0.000003 1.000000 0.000003 0.469853 0.788945
-15.638800 -0.000002 -11.799985 -0.000003 1.000000 0.000003 0.491888 0.788945
-15.546543 -0.000003 -11.416590 -0.000003 1.000000 0.000003 0.491888 0.837527
-15.546543 -0.000003 -11.416590 -0.000003 1.000000 0.000004 0.469853 0.837527
-15.638800 -0.000002 -11.799985 -0.000003 1.000000 0.000004 0.469853 0.788945
-15.881815 -0.000002 -11.970357 -0.000003 1.000000 0.000004 0.491888 0.788945
-15.785369 -0.000004 -11.578908 -0.000003 1.000000 0.000004 0.491888 0.837527
-15.785369 -0.000004 -11.578908 -0.000004 1.000000 0.000005 0.469853 0.837527
-15.881815 -0.000002 -11.970357 -0.000004 1.000000 0.000005 0.469853 0.788945
-16.124830 -0.000002 -12.140729 -0.000004 1.000000 0.000005 0.491888 0.788945
-16.024195 -0.000004 -11.741226 -0.000004 1.000000 0.000005 0.491888 0.837527
-16.263020 -0.000004 -11.903543 -0.000005 1.000000 0.000006 0.491888 0.837527
-16.024195 -0.000004 -11.741226 -0.000005 1.000000 0.000006 0.469853 0.837527
-16.124830 -0.000002 -12.140729 -0.000005 1.000000 0.000006 0.469853 0.788945
-16.262642 -0.000002 -12.237345 -0.000004 1.000000 0.000007 0.482349 0.788945
-16.367846 -0.000002 -12.311101 -0.000004 1.000000 0.000007 0.491888 0.788945
-16.263020 -0.000004 -11.903543 -0.000004 1.000000 0.000007 0.491888 0.837527
-16.124830 -0.000002 -12.140729 -0.000004 1.000000 0.000007 0.469853 0.788945
-16.263020 -0.000004 -11.903543 -0.000006 1.000000 0.000007 0.469853 0.837527
-16.367846 -0.000002 -12.311101 -0.000006 1.000000 0.000007 0.469853 0.788945
-16.610861 -0.000002 -12.481473 -0.000006 1.000000 0.000007 0.491888 0.788945
-16.501846 -0.000005 -12.065861 -0.000006 1.000000 0.000007 0.491888 0.837527
-16.740673 -0.000005 -12.228179 -0.000007 1.000000 0.000008 0.491888 0.837527
-16.501846 -0.000005 -12.065861 -0.000007 1.000000 0.000008 0.469853 0.837527
-16.610861 -0.000002 -12.481473 -0.000007 1.000000 0.000008 0.469853 0.788945
-16.772184 -0.000002 -12.594573 -0.000006 1.000000 0.000009 0.484481 0.788945
-16.853876 -0.000002 -12.651845 -0.000006 1.000000 0.000009 0.491888 0.788945
-16.740673 -0.000005 -12.228179 -0.000006 1.000000 0.000009 0.491888 0.837527
-16.610861 -0.000002 -12.481473 -0.000006 1.000000 0.000009 0.469853 0.788945
-16.740673 -0.000005 -12.228179 -0.000007 1.000000 0.000009 0.469853 0.837527
-16.853876 -0.000002 -12.651845 -0.000007 1.000000 0.000009 0.469853 0.788945
-17.096891 -0.000002 -12.822216 -0.000007 1.000000 0.000009 0.491888 0.788945
-16.979498 -0.000005 -12.390497 -0.000007 1.000000 0.000009 0.491888 0.837527
-17.218323 -0.000005 -12.552814 -0.000008 1.000000 0.000010 0.491888 0.837527
-16.979498 -0.000005 -12.390497 -0.000008 1.000000 0.000010 0.469853 0.837527
-17.096891 -0.000002 -12.822216 -0.000008 1.000000 0.000010 0.469853 0.788945
-17.260578 -0.000002 -12.936972 -0.000007 1.000000 0.000010 0.484695 0.788945
-17.339907 -0.000002 -12.992587 -0.000007 1.000000 0.000010 0.491888 0.788945
-17.218323 -0.000005 -12.552814 -0.000007 1.000000 0.000010 0.491888 0.837527
-17.096891 -0.000002 -12.822216 -0.000007 1.000000 0.000010 0.469853 0.788945
-17.218323 -0.000005 -12.552814 -0.000008 1.000000 0.000011 0.469853 0.837527
-17.339907 -0.000002 -12.992587 -0.000008 1.000000 0.000011 0.469853 0.788945
-17.582922 -0.000002 -13.162959 -0.000008 1.000000 0.000011 0.491888 0.788945
-17.457150 -0.000006 -12.715132 -0.000008 1.000000 0.000011 0.491888 0.837527
-17.695974 -0.000006 -12.877450 -0.000009 1.000000 0.000012 0.491888 0.837527
-17.457150 -0.000006 -12.715132 -0.000009 1.000000 0.000012 0.469853 0.837527
-17.582922 -0.000002 -13.162959 -0.000009 1.000000 0.000012 0.469853 0.788945
-17.738075 -0.000002 -13.271734 -0.000008 1.000000 0.000012 0.483922 0.788945
-17.825935 -0.000002 -13.333331 -0.000008 1.000000 0.000012 0.491888 0.788945
-17.695974 -0.000006 -12.877450 -0.000008 1.000000 0.000012 0.491888 0.837527
-17.582922 -0.000002 -13.162959 -0.000008 1.000000 0.000012 0.469853 0.788945
-18.006710 -0.000001 -14.175238 -0.000013 1.000000 0.000001 0.469853 0.837527
-18.465239 -0.000006 -14.030743 -0.000013 1.000000 0.000001 0.469853 0.788945
-18.539848 -0.000008 -13.830704 -0.000013 1.000000 0.000001 0.491888 0.788945
-18.082138 -0.000001 -13.984619 -0.000013 1.000000 0.000001 0.491888 0.837527
-17.704990 -0.000001 -14.937716 0.000018 1.000000 0.000007 0.491888 0.837527
-17.629560 -0.000001 -15.128335 0.000018 1.000000 0.000007 0.469853 0.837527
-18.092194 0.000007 -15.030937 0.000018 1.000000 0.000007 0.469853 0.788945
-18.092194 0.000007 -15.030937 -0.000005 1.000000 0.000011 0.469853 0.788945
-18.111801 0.000006 -14.978367 -0.000005 1.000000 0.000011 0.475644 0.788945
-18.166801 0.000004 -14.830898 -0.000005 1.000000 0.000011 0.491888 0.788945
-18.092194 0.000007 -15.030937 0.000015 1.000000 0.000018 0.469853 0.788945
-18.166801 0.000004 -14.830898 0.000015 1.000000 0.000018 0.491888 0.788945
-17.704990 -0.000001 -14.937716 0.000015 1.000000 0.000018 0.491888 0.837527
-17.704990 -0.000001 -14.937716 0.000011 1.000000 0.000011 0.469853 0.837527
-18.166801 0.000004 -14.830898 0.000011 1.000000 0.000011 0.469853 0.788945
-18.241411 0.000002 -14.630859 0.000011 1.000000 0.000011 0.491888 0.788945
-17.780420 -0.000001 -14.747096 0.000011 1.000000 0.000011 0.491888 0.837527
-17.780420 -0.000001 -14.747096 0.000005 1.000000 0.000008 0.469853 0.837527
-18.241411 0.000002 -14.630859 0.000005 1.000000 0.000008 0.469853 0.788945
-18.316021 -0.000001 -14.430820 0.000005 1.000000 0.000008 0.491888 0.788945
-17.855850 -0.000001 -14.556477 0.000005 1.000000 0.000008 0.491888 0.837527
-17.855850 -0.000001 -14.556477 -0.000001 1.000000 0.000006 0.469853 0.837527
-18.316021 -0.000001 -14.430820 -0.000001 1.000000 0.000006 0.469853 0.788945
-18.390629 -0.000003 -14.230782 -0.000001 1.000000 0.000006 0.491888 0.788945
-17.931280 -0.000001 -14.365857 -0.000001 1.000000 0.000006 0.491888 0.837527
-17.931280 -0.000001 -14.365857 -0.000007 1.000000 0.000004 0.469853 0.837527
-18.390629 -0.000003 -14.230782 -0.000007 1.000000 0.000004 0.469853 0.788945
-18.465239 -0.000006 -14.030743 -0.000007 1.000000 0.000004 0.491888 0.788945
-18.006710 -0.000001 -14.175238 -0.000007 1.000000 0.000004 0.491888 0.837527
-18.781633 -0.000005 -14.142853 0.000007 1.000000 0.000009 0.764699 0.570754
-18.927685 -0.000008 -13.714580 0.000007 1.000000 0.000009 0.740606 0.522426
-18.577354 -0.000010 -13.694768 0.000007 1.000000 0.000009 0.791544 0.514145
-18.539848 -0.000008 -13.830704 -0.000001 1.000000 0.000012 0.788909 0.529331
-18.465239 -0.000006 -14.030743 -0.000001 1.000000 0.000012 0.800874 0.551856
-18.781633 -0.000005 -14.142853 -0.000001 1.000000 0.000012 0.764699 0.570754
-18.577354 -0.000010 -13.694768 -0.000003 1.000000 0.000013 0.791544 0.514145
-18.539848 -0.000008 -13.830704 -0.000003 1.000000 0.000013 0.788909 0.529331
-18.781633 -0.000005 -14.142853 -0.000003 1.000000 0.000013 0.764699 0.570754
-18.165995 0.000007 -13.634937 -0.000042 1.000000 0.000001 0.308092 0.548195
-18.189350 0.000007 -13.767285 -0.000042 1.000000 0.000001 0.308089 0.567046
-18.577354 -0.000010 -13.694768 -0.000042 1.000000 0.000001 0.252725 0.566480
-18.546213 -0.000008 -13.577991 -0.000042 1.000000 0.000001 0.254182 0.549590
-18.082138 -0.000001 -13.984619 -0.000013 1.000000 0.000010 0.784521 0.540718
-18.539848 -0.000008 -13.830704 -0.000013 1.000000 0.000010 0.775413 0.576125
-18.577354 -0.000010 -13.694768 -0.000013 1.000000 0.000010 0.765826 0.572787
-18.189350 0.000007 -13.767285 0.000060 1.000000 -0.000011 0.769377 0.547723
-18.165995 0.000007 -13.634937 0.000060 1.000000 -0.000011 0.758592 0.544155
-18.078766 -0.000001 -13.861473 0.000060 1.000000 -0.000011 0.779258 0.540420
-18.082138 -0.000001 -13.984619 -0.000056 1.000000 -0.000063 0.784521 0.540718
-18.577354 -0.000010 -13.694768 -0.000056 1.000000 -0.000063 0.765826 0.572787
-18.189350 0.000007 -13.767285 -0.000056 1.000000 -0.000063 0.769377 0.547723
-18.189350 0.000007 -13.767285 0.000067 1.000000 -0.000002 0.769377 0.547723
-18.078766 -0.000001 -13.861473 0.000067 1.000000 -0.000002 0.779258 0.540420
-18.082138 -0.000001 -13.984619 0.000067 1.000000 -0.000002 0.784521 0.540718
-18.638857 -0.000002 -14.561523 0.000001 1.000000 0.000007 0.763723 0.574121
-18.781633 -0.000005 -14.142853 0.000001 1.000000 0.000007 0.740171 0.526876
-18.465239 -0.000006 -14.030743 0.000001 1.000000 0.000007 0.776345 0.507978
-18.465239 -0.000006 -14.030743 -0.000000 1.000000 0.000013 0.776345 0.507978
-18.390629 -0.000003 -14.230782 -0.000000 1.000000 0.000013 0.788311 0.530503
-18.316021 -0.000001 -14.430820 -0.000000 1.000000 0.000013 0.800274 0.553027
-18.465239 -0.000006 -14.030743 -0.000008 1.000000 0.000010 0.776345 0.507978
-18.316021 -0.000001 -14.430820 -0.000008 1.000000 0.000010 0.800274 0.553027
-18.638857 -0.000002 -14.561523 -0.000008 1.000000 0.000010 0.763723 0.574121
-18.446676 0.000002 -15.125066 -0.000006 1.000000 0.000005 0.763581 0.581730
-18.638857 -0.000002 -14.561523 -0.000006 1.000000 0.000005 0.731878 0.518138
-18.316021 -0.000001 -14.430820 -0.000006 1.000000 0.000005 0.768429 0.497045
-18.241411 0.000002 -14.630859 -0.000001 1.000000 0.000012 0.780394 0.519570
-18.166801 0.000004 -14.830898 -0.000001 1.000000 0.000012 0.792358 0.542094
-18.111801 0.000006 -14.978367 -0.000001 1.000000 0.000012 0.801178 0.558699
-18.446676 0.000002 -15.125066 -0.000016 1.000000 0.000007 0.763581 0.581730
-18.316021 -0.000001 -14.430820 -0.000016 1.000000 0.000007 0.768429 0.497045
-18.241411 0.000002 -14.630859 -0.000016 1.000000 0.000007 0.780394 0.519570
-18.111801 0.000006 -14.978367 -0.000016 1.000000 0.000007 0.801178 0.558699
-18.362606 0.000004 -15.371589 -0.000014 1.000000 0.000002 0.734290 0.511727
-18.446676 0.000002 -15.125066 -0.000014 1.000000 0.000002 0.762221 0.498084
-18.111801 0.000006 -14.978367 -0.000014 1.000000 0.000002 0.784947 0.535865
-18.362606 0.000004 -15.371589 -0.000019 1.000000 0.000005 0.734290 0.511727
-18.111801 0.000006 -14.978367 -0.000019 1.000000 0.000005 0.784947 0.535865
-18.092194 0.000007 -15.030937 -0.000019 1.000000 0.000005 0.779003 0.538962
-17.775826 0.000007 -15.146290 -0.000003 1.000000 -0.000008 0.769748 0.577829
-18.362606 0.000004 -15.371589 -0.000003 1.000000 -0.000008 0.734290 0.511727
-18.092194 0.000007 -15.030937 -0.000003 1.000000 -0.000008 0.779003 0.538962
-17.629560 -0.000001 -15.128335 -0.001043 0.999999 -0.000413 0.774063 0.594878
-17.607410 -0.000001 -15.184309 -0.001043 0.999999 -0.000413 0.767767 0.598339
-17.674206 -0.000054 -15.145018 -0.001043 0.999999 -0.000413 0.771419 0.589841
-17.727894 0.000007 -15.140888 -0.000000 1.000000 -0.000000 0.771105 0.583423
-17.775826 0.000007 -15.146290 -0.000000 1.000000 -0.000000 0.769748 0.577829
-18.092194 0.000007 -15.030937 -0.000000 1.000000 -0.000000 0.779003 0.538962
-17.629560 -0.000001 -15.128335 0.000738 0.999986 -0.005179 0.774063 0.594878
-17.674206 -0.000054 -15.145018 0.000738 0.999986 -0.005179 0.771419 0.589841
-17.727894 0.000007 -15.140888 0.000738 0.999986 -0.005179 0.771105 0.583423
-18.092194 0.000007 -15.030937 0.000054 1.000000 0.000180 0.779003 0.538962
-17.629560 -0.000001 -15.128335 0.000054 1.000000 0.000180 0.774063 0.594878
-17.727894 0.000007 -15.140888 0.000054 1.000000 0.000180 0.771105 0.583423
-18.331591 -0.000007 -13.309445 0.000018 1.000000 0.000052 0.748381 0.536123
-18.068951 -0.000002 -13.503702 0.000018 1.000000 0.000052 0.756058 0.506013
-18.165995 0.000007 -13.634937 0.000018 1.000000 0.000052 0.771669 0.521270
-18.546213 -0.000008 -13.577991 0.000008 1.000000 -0.000019 0.769986 0.547244
-18.577354 -0.000010 -13.694768 0.000008 1.000000 -0.000019 0.778904 0.549902
-18.927685 -0.000008 -13.714580 0.000008 1.000000 -0.000019 0.778834 0.583891
-18.331591 -0.000007 -13.309445 -0.000036 1.000000 0.000024 0.748381 0.536123
-18.165995 0.000007 -13.634937 -0.000036 1.000000 0.000024 0.771669 0.521270
-18.546213 -0.000008 -13.577991 -0.000036 1.000000 0.000024 0.769986 0.547244
-18.546213 -0.000008 -13.577991 0.000004 1.000000 -0.000009 0.769986 0.547244
-18.927685 -0.000008 -13.714580 0.000004 1.000000 -0.000009 0.778834 0.583891
-18.331591 -0.000007 -13.309445 0.000004 1.000000 -0.000009 0.748381 0.536123
-17.825935 -0.000002 -13.333331 -0.000002 1.000000 0.000003 0.736756 0.525549
-17.738075 -0.000002 -13.271734 -0.000002 1.000000 0.000003 0.732142 0.518428
-17.562399 -0.000001 -13.505411 -0.000002 1.000000 0.000003 0.759014 0.515376
-17.562399 -0.000001 -13.505411 0.000018 1.000000 -0.000027 0.759014 0.515376
-18.078766 -0.000001 -13.861473 0.000018 1.000000 -0.000027 0.785797 0.556767
-18.165995 0.000007 -13.634937 0.000018 1.000000 -0.000027 0.765130 0.560502
-18.165995 0.000007 -13.634937 -0.000095 1.000000 0.000135 0.765130 0.560502
-18.068951 -0.000002 -13.503702 -0.000095 1.000000 0.000135 0.749519 0.545245
-17.825935 -0.000002 -13.333331 -0.000095 1.000000 0.000135 0.736756 0.525549
-17.562399 -0.000001 -13.505411 0.000009 1.000000 0.000019 0.759014 0.515376
-18.165995 0.000007 -13.634937 0.000009 1.000000 0.000019 0.765130 0.560502
-17.825935 -0.000002 -13.333331 0.000009 1.000000 0.000019 0.736756 0.525549
-17.339907 -0.000002 -12.992587 -0.000002 1.000000 0.000003 0.739564 0.527569
-17.260578 -0.000002 -12.936972 -0.000002 1.000000 0.000003 0.735398 0.521139
-17.096289 -0.000001 -13.184004 -0.000002 1.000000 0.000003 0.763173 0.519426
-17.562399 -0.000001 -13.505411 -0.000002 1.000000 0.000003 0.787349 0.556788
-17.738075 -0.000002 -13.271734 -0.000002 1.000000 0.000003 0.760476 0.559840
-17.738075 -0.000002 -13.271734 0.000000 1.000000 0.000000 0.760476 0.559840
-17.582922 -0.000002 -13.162959 0.000000 1.000000 0.000000 0.752327 0.547265
-17.339907 -0.000002 -12.992587 0.000000 1.000000 0.000000 0.739564 0.527569
-16.853876 -0.000002 -12.651845 -0.000002 1.000000 0.000004 0.751091 0.543756
-16.772184 -0.000002 -12.594573 -0.000002 1.000000 0.000004 0.746801 0.537135
-16.580908 -0.000001 -12.828622 -0.000002 1.000000 0.000004 0.773496 0.533693
-16.580908 -0.000001 -12.828622 -0.000002 1.000000 0.000003 0.773496 0.533693
-17.096289 -0.000001 -13.184004 -0.000002 1.000000 0.000003 0.800227 0.575005
-17.260578 -0.000002 -12.936972 -0.000002 1.000000 0.000003 0.772451 0.576719
-17.096891 -0.000002 -12.822216 -0.000002 1.000000 0.000004 0.763855 0.563452
-17.260578 -0.000002 -12.936972 -0.000002 1.000000 0.000004 0.772451 0.576719
-16.367846 -0.000002 -12.311101 -0.000003 1.000000 0.000004 0.749541 0.539237
-16.262642 -0.000002 -12.237345 -0.000003 1.000000 0.000004 0.744015 0.530710
-16.102375 -0.000001 -12.498649 -0.000003 1.000000 0.000004 0.772651 0.530209
-16.102375 -0.000001 -12.498649 -0.000002 1.000000 0.000004 0.772651 0.530209
-16.580908 -0.000001 -12.828622 -0.000002 1.000000 0.000004 0.797471 0.568567
-16.772184 -0.000002 -12.594573 -0.000002 1.000000 0.000004 0.770777 0.572009
-16.610861 -0.000002 -12.481473 -0.000003 1.000000 0.000004 0.762304 0.558933
-16.772184 -0.000002 -12.594573 -0.000003 1.000000 0.000004 0.770777 0.572009
-15.881815 -0.000002 -11.970357 -0.000003 1.000000 0.000004 0.752349 0.541257
-15.638800 -0.000002 -11.799985 -0.000003 1.000000 0.000004 0.739586 0.521560
-15.419868 -0.000001 -12.028025 -0.000003 1.000000 0.000004 0.765587 0.516913
-16.102375 -0.000001 -12.498649 -0.000003 1.000000 0.000004 0.800986 0.571621
-16.262642 -0.000002 -12.237345 -0.000003 1.000000 0.000004 0.772350 0.572123
-16.124830 -0.000002 -12.140729 -0.000003 1.000000 0.000004 0.765112 0.560953
-15.152769 -0.000002 -11.459241 -0.000003 1.000000 0.000005 0.751113 0.537747
-14.909754 -0.000002 -11.288869 -0.000003 1.000000 0.000005 0.738350 0.518050
-14.717428 -0.000001 -11.543655 -0.000003 1.000000 0.000005 0.766207 0.516186
-14.717428 -0.000001 -11.543655 -0.000003 1.000000 0.000004 0.766207 0.516186
-15.419868 -0.000001 -12.028025 -0.000003 1.000000 0.000004 0.802640 0.572493
-15.638800 -0.000002 -11.799985 -0.000003 1.000000 0.000004 0.776640 0.577139
-15.395784 -0.000002 -11.629613 -0.000003 1.000000 0.000005 0.763876 0.557443
-15.638800 -0.000002 -11.799985 -0.000003 1.000000 0.000005 0.776640 0.577139
-14.643379 -0.000002 -11.115389 -0.000003 1.000000 0.000004 0.762155 0.563867
-14.513721 -0.000002 -11.000984 -0.000003 1.000000 0.000004 0.753467 0.553419
-13.930486 -0.000000 -11.001019 -0.000003 1.000000 0.000004 0.754816 0.507596
-13.930486 -0.000000 -11.001019 -0.000003 1.000000 0.000005 0.754816 0.507596
-14.717428 -0.000001 -11.543655 -0.000003 1.000000 0.000005 0.795632 0.570676
-14.909754 -0.000002 -11.288869 -0.000003 1.000000 0.000005 0.767775 0.572540
-13.930486 -0.000000 -11.001019 -0.000004 1.000000 0.000006 0.754816 0.507596
-14.909754 -0.000002 -11.288869 -0.000004 1.000000 0.000006 0.767775 0.572540
-14.643379 -0.000002 -11.115389 -0.000004 1.000000 0.000006 0.762155 0.563867
-13.330383 -0.000000 -9.933239 -0.000000 1.000000 -0.000000 0.742058 0.545167
-13.284184 -0.000000 -9.901720 -0.000000 1.000000 -0.000000 0.739688 0.541464
-12.909691 -0.000000 -10.297127 -0.000000 1.000000 -0.000000 0.771618 0.512955
-13.569115 -0.000000 -10.751834 -0.000000 1.000000 0.000000 0.805820 0.565813
-13.573351 -0.000001 -10.075513 -0.000000 1.000000 0.000000 0.752675 0.564584
-13.573351 -0.000001 -10.075513 0.000000 1.000000 -0.000002 0.752675 0.564584
-13.364077 -0.000000 -9.933280 0.000000 1.000000 -0.000002 0.741983 0.547814
-13.330383 -0.000000 -9.933239 0.000000 1.000000 -0.000002 0.742058 0.545167
-12.909691 -0.000000 -10.297127 -0.000001 1.000000 -0.000001 0.771618 0.512955
-13.573351 -0.000001 -10.075513 -0.000001 1.000000 -0.000001 0.752675 0.564584
-13.330383 -0.000000 -9.933239 -0.000001 1.000000 -0.000001 0.742058 0.545167
-12.366318 -0.000000 -10.343292 -0.000037 1.000000 -0.000029 0.778018 0.560787
-12.242778 0.000007 -10.224303 -0.000037 1.000000 -0.000029 0.766541 0.567860
-11.839977 0.000007 -10.759898 -0.000037 1.000000 -0.000029 0.744556 0.519994
-11.959340 -0.000000 -10.855522 -0.000037 1.000000 -0.000029 0.755321 0.514644
-11.413606 -0.000001 -11.542394 -0.000039 1.000000 -0.000031 0.749952 0.506171
-11.959340 -0.000000 -10.855522 -0.000039 1.000000 -0.000031 0.780386 0.568045
-11.839977 0.000007 -10.759898 -0.000039 1.000000 -0.000031 0.769621 0.573394
-11.839977 0.000007 -10.759898 -0.000064 1.000000 -0.000048 0.769621 0.573394
-11.434806 0.000007 -11.298645 -0.000064 1.000000 -0.000048 0.747506 0.525245
-11.334107 0.000006 -11.451463 -0.000064 1.000000 -0.000048 0.742326 0.511825
-11.839977 0.000007 -10.759898 -0.000045 1.000000 -0.000034 0.769621 0.573394
-11.334107 0.000006 -11.451463 -0.000045 1.000000 -0.000034 0.742326 0.511825
-11.413606 -0.000001 -11.542394 -0.000045 1.000000 -0.000034 0.749952 0.506171
-11.413606 -0.000001 -11.542394 -0.000044 1.000000 -0.000035 0.792454 0.585726
-11.334107 0.000006 -11.451463 -0.000044 1.000000 -0.000035 0.784828 0.591381
-10.596581 -0.000001 -12.570717 -0.000044 1.000000 -0.000035 0.746889 0.493093
3 0 1 2
3 3 4 5
3 2 6 7
3 8 0 2
3 9 10 8
3 11 9 8
3 2 7 12
3 2 12 13
3 11 8 2
3 2 13 14
3 2 14 11
3 15 16 17
3 18 19 20
3 20 21 22
3 18 20 22
4 23 24 25 26
3 27 28 29
3 30 31 32
3 33 34 35
4 36 37 38 39
3 40 41 42
4 43 44 45 46
4 47 48 49 50
4 51 52 53 54
4 55 56 57 58
4 59 60 61 62
3 63 64 65
3 66 67 68
3 69 66 68
4 70 71 72 73
3 74 75 76
3 77 78 79
3 80 77 79
4 81 82 83 84
3 85 86 87
3 88 89 90
3 91 88 90
4 92 93 94 95
3 96 97 98
3 99 100 101
3 102 99 101
4 103 104 105 106
3 107 108 109
3 110 111 112
3 113 114 115
4 116 117 118 119
4 120 121 122 123
4 124 125 126 127
4 128 129 130 131
3 132 133 134
3 135 136 137
3 138 139 140
4 141 142 143 144
3 145 146 147
3 148 149 150
3 151 152 153
3 154 155 156
3 157 158 159
3 160 161 162
3 163 164 165
3 166 167 168
3 169 170 171
3 172 173 174
3 174 175 172
3 176 177 178
3 179 180 181
3 182 183 184
3 185 186 187
3 188 189 190
3 191 192 193
3 194 195 196
3 197 198 199
3 200 201 202
3 203 204 205
3 206 207 208
3 209 210 211
3 212 213 214
3 215 216 217
3 218 219 220
3 221 222 223
3 223 224 225
3 226 227 228
3 223 225 221
3 229 230 231
3 232 233 234
3 235 229 231
3 231 236 235
3 237 238 239
3 240 241 242
3 243 237 239
3 239 244 243
3 245 246 247
3 247 248 249
3 250 245 247
3 247 249 250
3 251 252 253
3 254 255 256
3 257 251 253
3 253 258 257
3 259 260 261
3 262 263 264
3 265 266 267
3 268 269 270
3 270 271 272
3 273 274 275
3 276 277 278
4 279 280 281 282
3 283 284 285
3 286 287 288
3 289 290 291
3 292 293 294
