ply
format ascii 1.0
comment Created by Blender 2.78 (sub 0) - www.blender.org, source file: 'soult.blend'
element vertex 216
property float x
property float y
property float z
property float nx
property float ny
property float nz
property float s
property float t
element face 54
property list uchar uint vertex_indices
end_header
-19.081041 0.049920 -13.680738 0.383705 0.320475 -0.866064 0.427560 0.783486
-19.167734 0.051001 -13.718747 0.383705 0.320475 -0.866064 0.639921 0.783486
-19.178333 0.142146 -13.689716 0.383705 0.320475 -0.866064 0.639921 0.995847
-19.091637 0.141065 -13.651706 0.383705 0.320475 -0.866064 0.427560 0.995847
-19.091774 0.057736 -13.737744 -0.403447 0.819192 -0.407620 0.427560 0.783486
-19.170551 0.057639 -13.659966 -0.403447 0.819192 -0.407620 0.639921 0.783486
-19.124996 0.113642 -13.592506 -0.403447 0.819192 -0.407620 0.639921 0.995847
-19.046223 0.113739 -13.670278 -0.403447 0.819192 -0.407620 0.427560 0.995847
-19.120461 0.040926 -13.638216 0.576044 -0.801469 -0.160691 0.427560 0.783486
-19.142315 0.046665 -13.745192 0.576044 -0.801469 -0.160691 0.639921 0.783486
-19.067722 0.105654 -13.771999 0.576044 -0.801469 -0.160691 0.639921 0.995847
-19.045866 0.099913 -13.665025 0.576044 -0.801469 -0.160691 0.427560 0.995847
-19.176538 0.057736 -13.683619 0.010748 0.853763 0.520551 0.427560 0.783486
-19.080122 0.057639 -13.685449 0.010748 0.853763 0.520551 0.639921 0.783486
-19.071497 0.113642 -13.777481 0.010748 0.853763 0.520551 0.639921 0.995847
-19.167913 0.113739 -13.775646 0.010748 0.853763 0.520551 0.427560 0.995847
-19.143606 0.040926 -13.743024 -0.518631 -0.813071 0.264455 0.427560 0.783486
-19.103220 0.046665 -13.646175 -0.518631 -0.813071 0.264455 0.639921 0.783486
-19.173573 0.105654 -13.602785 -0.518631 -0.813071 0.264455 0.639921 0.995847
-19.213957 0.099913 -13.699633 -0.518631 -0.813071 0.264455 0.427560 0.995847
-19.124746 0.046815 -13.636544 0.906503 -0.420733 -0.035153 0.427560 0.783486
-19.128103 0.048995 -13.749283 0.906503 -0.420733 -0.035153 0.639921 0.783486
-19.088291 0.135207 -13.754399 0.906503 -0.420733 -0.035153 0.639921 0.995847
-19.084929 0.133026 -13.641656 0.906503 -0.420733 -0.035153 0.427560 0.995847
-19.082582 0.046815 -13.721019 -0.473550 -0.442661 -0.761447 0.427560 0.783486
-19.172819 0.048995 -13.666167 -0.473550 -0.442661 -0.761447 0.639921 0.783486
-19.185488 0.135207 -13.708407 -0.473550 -0.442661 -0.761447 0.639921 0.995847
-19.095253 0.133026 -13.763257 -0.473550 -0.442661 -0.761447 0.427560 0.995847
-19.106575 0.049920 -13.597919 0.383745 0.320437 -0.866060 0.427560 0.783486
-19.193266 0.051001 -13.635932 0.383745 0.320437 -0.866060 0.639921 0.783486
-19.203865 0.142146 -13.606904 0.383745 0.320437 -0.866060 0.639921 0.995847
-19.117170 0.141065 -13.568892 0.383745 0.320437 -0.866060 0.427560 0.995847
-19.117308 0.057736 -13.654929 -0.403447 0.819192 -0.407620 0.427560 0.783486
-19.196085 0.057639 -13.577152 -0.403447 0.819192 -0.407620 0.639921 0.783486
-19.150530 0.113642 -13.509691 -0.403447 0.819192 -0.407620 0.639921 0.995847
-19.071756 0.113739 -13.587464 -0.403447 0.819192 -0.407620 0.427560 0.995847
-19.145994 0.040926 -13.555402 0.576061 -0.801459 -0.160678 0.427560 0.783486
-19.167847 0.046665 -13.662380 0.576061 -0.801459 -0.160678 0.639921 0.783486
-19.093256 0.105654 -13.689186 0.576061 -0.801459 -0.160678 0.639921 0.995847
-19.071402 0.099913 -13.582208 0.576061 -0.801459 -0.160678 0.427560 0.995847
-19.202070 0.057736 -13.600807 0.010746 0.853760 0.520557 0.427560 0.783486
-19.105654 0.057639 -13.602634 0.010746 0.853760 0.520557 0.639921 0.783486
-19.097031 0.113642 -13.694668 0.010746 0.853760 0.520557 0.639921 0.995847
-19.193447 0.113739 -13.692831 0.010746 0.853760 0.520557 0.427560 0.995847
-19.169138 0.040926 -13.660211 -0.518629 -0.813076 0.264445 0.427560 0.783486
-19.128752 0.046665 -13.563359 -0.518629 -0.813076 0.264445 0.639921 0.783486
-19.199106 0.105654 -13.519969 -0.518629 -0.813076 0.264445 0.639921 0.995847
-19.239489 0.099913 -13.616817 -0.518629 -0.813076 0.264445 0.427560 0.995847
-19.150278 0.046815 -13.553730 0.906499 -0.420741 -0.035160 0.427560 0.783486
-19.153639 0.048995 -13.666472 0.906499 -0.420741 -0.035160 0.639921 0.783486
-19.113823 0.135207 -13.671586 0.906499 -0.420741 -0.035160 0.639921 0.995847
-19.110462 0.133026 -13.558843 0.906499 -0.420741 -0.035160 0.427560 0.995847
-19.108116 0.046815 -13.638205 -0.473538 -0.442653 -0.761460 0.427560 0.783486
-19.198353 0.048995 -13.583354 -0.473538 -0.442653 -0.761460 0.639921 0.783486
-19.211021 0.135207 -13.625594 -0.473538 -0.442653 -0.761460 0.639921 0.995847
-19.120787 0.133026 -13.680440 -0.473538 -0.442653 -0.761460 0.427560 0.995847
-19.130634 0.005415 -13.556542 0.946295 -0.045461 0.320093 0.885288 0.995496
-19.076385 0.005415 -13.716919 0.946295 -0.045461 0.320093 0.885288 0.985446
-19.071096 0.074973 -13.722676 0.946295 -0.045461 0.320093 0.873937 0.985021
-19.129927 0.074973 -13.548756 0.946295 -0.045461 0.320093 0.873937 0.995920
-19.147341 0.005415 -13.740917 -0.946294 -0.045441 -0.320099 0.885288 0.985446
-19.201590 0.005415 -13.580544 -0.946294 -0.045441 -0.320099 0.885288 0.995496
-19.206877 0.074973 -13.574788 -0.946294 -0.045441 -0.320099 0.873937 0.995920
-19.148046 0.074973 -13.748705 -0.946294 -0.045441 -0.320099 0.873937 0.985021
-19.201590 0.005415 -13.580544 -0.318764 -0.102223 0.942306 0.885288 0.995426
-19.130634 0.005415 -13.556542 -0.318764 -0.102223 0.942306 0.885288 0.985695
-19.129927 0.074973 -13.548756 -0.318764 -0.102223 0.942306 0.873937 0.985284
-19.206877 0.074973 -13.574788 -0.318764 -0.102223 0.942306 0.873937 0.995837
-19.076385 0.005415 -13.716919 0.318725 -0.102250 -0.942316 0.885288 0.985695
-19.147341 0.005415 -13.740917 0.318725 -0.102250 -0.942316 0.885288 0.995426
-19.148046 0.074973 -13.748705 0.318725 -0.102250 -0.942316 0.873937 0.995837
-19.071096 0.074973 -13.722676 0.318725 -0.102250 -0.942316 0.873937 0.985284
-19.196692 0.005415 -13.370175 0.318719 -0.102257 -0.942317 0.885288 0.985695
-19.267647 0.005415 -13.394173 0.318719 -0.102257 -0.942317 0.885288 0.995426
-19.268353 0.074973 -13.401961 0.318719 -0.102257 -0.942317 0.873937 0.995837
-19.191402 0.074973 -13.375933 0.318719 -0.102257 -0.942317 0.873937 0.985284
-19.321894 0.005415 -13.233799 -0.318768 -0.102227 0.942304 0.885288 0.995426
-19.250938 0.005415 -13.209798 -0.318768 -0.102227 0.942304 0.885288 0.985695
-19.250233 0.074973 -13.202011 -0.318768 -0.102227 0.942304 0.873937 0.985284
-19.327181 0.074973 -13.228044 -0.318768 -0.102227 0.942304 0.873937 0.995837
-19.267647 0.005415 -13.394173 -0.946297 -0.045444 -0.320088 0.885288 0.985446
-19.321894 0.005415 -13.233799 -0.946297 -0.045444 -0.320088 0.885288 0.995496
-19.327181 0.074973 -13.228044 -0.946297 -0.045444 -0.320088 0.873937 0.995920
-19.268353 0.074973 -13.401961 -0.946297 -0.045444 -0.320088 0.873937 0.985021
-19.250938 0.005415 -13.209798 0.946298 -0.045448 0.320087 0.885288 0.995496
-19.196692 0.005415 -13.370175 0.946298 -0.045448 0.320087 0.885288 0.985446
-19.191402 0.074973 -13.375933 0.946298 -0.045448 0.320087 0.873937 0.985021
-19.250233 0.074973 -13.202011 0.946298 -0.045448 0.320087 0.873937 0.995920
-19.228420 0.046815 -13.291461 -0.473539 -0.442657 -0.761456 0.427560 0.783486
-19.318657 0.048995 -13.236610 -0.473539 -0.442657 -0.761456 0.639921 0.783486
-19.331327 0.135207 -13.278850 -0.473539 -0.442657 -0.761456 0.639921 0.995847
-19.241093 0.133026 -13.333696 -0.473539 -0.442657 -0.761456 0.427560 0.995847
-19.270582 0.046815 -13.206986 0.906503 -0.420733 -0.035168 0.427560 0.783486
-19.273943 0.048995 -13.319728 0.906503 -0.420733 -0.035168 0.639921 0.783486
-19.234129 0.135207 -13.324841 0.906503 -0.420733 -0.035168 0.639921 0.995847
-19.230766 0.133026 -13.212098 0.906503 -0.420733 -0.035168 0.427560 0.995847
-19.289444 0.040926 -13.313466 -0.518635 -0.813073 0.264444 0.427560 0.783486
-19.249058 0.046665 -13.216616 -0.518635 -0.813073 0.264444 0.639921 0.783486
-19.319412 0.105654 -13.173225 -0.518635 -0.813073 0.264444 0.639921 0.995847
-19.359793 0.099913 -13.270073 -0.518635 -0.813073 0.264444 0.427560 0.995847
-19.202888 0.046815 -13.374274 -0.473542 -0.442659 -0.761454 0.427560 0.783486
-19.293123 0.048995 -13.319425 -0.473542 -0.442659 -0.761454 0.639921 0.783486
-19.305794 0.135207 -13.361664 -0.473542 -0.442659 -0.761454 0.639921 0.995847
-19.215557 0.133026 -13.416512 -0.473542 -0.442659 -0.761454 0.427560 0.995847
-19.245050 0.046815 -13.289800 0.906503 -0.420733 -0.035153 0.427560 0.783486
-19.248409 0.048995 -13.402539 0.906503 -0.420733 -0.035153 0.639921 0.783486
-19.208595 0.135207 -13.407655 0.906503 -0.420733 -0.035153 0.639921 0.995847
-19.205235 0.133026 -13.294912 0.906503 -0.420733 -0.035153 0.427560 0.995847
-19.263910 0.040926 -13.396280 -0.518629 -0.813075 0.264448 0.427560 0.783486
-19.223524 0.046665 -13.299431 -0.518629 -0.813075 0.264448 0.639921 0.783486
-19.293879 0.105654 -13.256041 -0.518629 -0.813075 0.264448 0.639921 0.995847
-19.334261 0.099913 -13.352888 -0.518629 -0.813075 0.264448 0.427560 0.995847
-19.296843 0.057736 -13.336874 0.010748 0.853763 0.520551 0.427560 0.783486
-19.200426 0.057639 -13.338705 0.010748 0.853763 0.520551 0.639921 0.783486
-19.191801 0.113642 -13.430737 0.010748 0.853763 0.520551 0.639921 0.995847
-19.288218 0.113739 -13.428903 0.010748 0.853763 0.520551 0.427560 0.995847
-19.240765 0.040926 -13.291471 0.576045 -0.801468 -0.160689 0.427560 0.783486
-19.262619 0.046665 -13.398449 0.576045 -0.801468 -0.160689 0.639921 0.783486
-19.188026 0.105654 -13.425256 0.576045 -0.801468 -0.160689 0.639921 0.995847
-19.166170 0.099913 -13.318280 0.576045 -0.801468 -0.160689 0.427560 0.995847
-19.212080 0.057736 -13.391000 -0.403447 0.819192 -0.407620 0.427560 0.783486
-19.290857 0.057639 -13.313222 -0.403447 0.819192 -0.407620 0.639921 0.783486
-19.245302 0.113642 -13.245762 -0.403447 0.819192 -0.407620 0.639921 0.995847
-19.166529 0.113739 -13.323534 -0.403447 0.819192 -0.407620 0.427560 0.995847
-19.201345 0.049920 -13.333994 0.383708 0.320478 -0.866061 0.427560 0.783486
-19.288038 0.051001 -13.372003 0.383708 0.320478 -0.866061 0.639921 0.783486
-19.298637 0.142146 -13.342972 0.383708 0.320478 -0.866061 0.639921 0.995847
-19.211943 0.141065 -13.304961 0.383708 0.320478 -0.866061 0.427560 0.995847
-19.226881 0.049920 -13.251175 0.383738 0.320430 -0.866066 0.427560 0.783486
-19.313572 0.051001 -13.289187 0.383738 0.320430 -0.866066 0.639921 0.783486
-19.324171 0.142146 -13.260160 0.383738 0.320430 -0.866066 0.639921 0.995847
-19.237474 0.141065 -13.222148 0.383738 0.320430 -0.866066 0.427560 0.995847
-19.266300 0.040926 -13.208657 0.576061 -0.801459 -0.160677 0.427560 0.783486
-19.288151 0.046665 -13.315637 0.576061 -0.801459 -0.160677 0.639921 0.783486
-19.213562 0.105654 -13.342443 0.576061 -0.801459 -0.160677 0.639921 0.995847
-19.191706 0.099913 -13.235463 0.576061 -0.801459 -0.160677 0.427560 0.995847
-19.237612 0.057736 -13.308186 -0.403443 0.819196 -0.407618 0.427560 0.783486
-19.316391 0.057639 -13.230409 -0.403443 0.819196 -0.407618 0.639921 0.783486
-19.270834 0.113642 -13.162947 -0.403443 0.819196 -0.407618 0.639921 0.995847
-19.192060 0.113739 -13.240721 -0.403443 0.819196 -0.407618 0.427560 0.995847
-19.322376 0.057736 -13.254064 0.010746 0.853757 0.520561 0.427560 0.783486
-19.225960 0.057639 -13.255891 0.010746 0.853757 0.520561 0.639921 0.783486
-19.217335 0.113642 -13.347923 0.010746 0.853757 0.520561 0.639921 0.995847
-19.313753 0.113739 -13.346087 0.010746 0.853757 0.520561 0.427560 0.995847
-19.309639 0.005415 -12.986748 0.318719 -0.102257 -0.942317 0.885288 0.985695
-19.380594 0.005415 -13.010745 0.318719 -0.102257 -0.942317 0.885288 0.995426
-19.381300 0.074973 -13.018534 0.318719 -0.102257 -0.942317 0.873937 0.995837
-19.304350 0.074973 -12.992505 0.318719 -0.102257 -0.942317 0.873937 0.985284
-19.434841 0.005415 -12.850371 -0.318768 -0.102227 0.942304 0.885288 0.995426
-19.363886 0.005415 -12.826370 -0.318768 -0.102227 0.942304 0.885288 0.985695
-19.363180 0.074973 -12.818583 -0.318768 -0.102227 0.942304 0.873937 0.985284
-19.440128 0.074973 -12.844616 -0.318768 -0.102227 0.942304 0.873937 0.995837
-19.380594 0.005415 -13.010745 -0.946297 -0.045444 -0.320088 0.885288 0.985446
-19.434841 0.005415 -12.850371 -0.946297 -0.045444 -0.320088 0.885288 0.995496
-19.440128 0.074973 -12.844616 -0.946297 -0.045444 -0.320088 0.873937 0.995920
-19.381300 0.074973 -13.018534 -0.946297 -0.045444 -0.320088 0.873937 0.985021
-19.363886 0.005415 -12.826370 0.946298 -0.045448 0.320087 0.885288 0.995496
-19.309639 0.005415 -12.986748 0.946298 -0.045448 0.320087 0.885288 0.985446
-19.304350 0.074973 -12.992505 0.946298 -0.045448 0.320087 0.873937 0.985021
-19.363180 0.074973 -12.818583 0.946298 -0.045448 0.320087 0.873937 0.995920
-19.341368 0.046815 -12.908033 -0.473539 -0.442657 -0.761456 0.427560 0.783486
-19.431604 0.048995 -12.853183 -0.473539 -0.442657 -0.761456 0.639921 0.783486
-19.444275 0.135207 -12.895422 -0.473539 -0.442657 -0.761456 0.639921 0.995847
-19.354040 0.133026 -12.950269 -0.473539 -0.442657 -0.761456 0.427560 0.995847
-19.383530 0.046815 -12.823559 0.906503 -0.420733 -0.035168 0.427560 0.783486
-19.386890 0.048995 -12.936300 0.906503 -0.420733 -0.035168 0.639921 0.783486
-19.347076 0.135207 -12.941413 0.906503 -0.420733 -0.035168 0.639921 0.995847
-19.343714 0.133026 -12.828671 0.906503 -0.420733 -0.035168 0.427560 0.995847
-19.402391 0.040926 -12.930038 -0.518635 -0.813073 0.264444 0.427560 0.783486
-19.362005 0.046665 -12.833188 -0.518635 -0.813073 0.264444 0.639921 0.783486
-19.432360 0.105654 -12.789798 -0.518635 -0.813073 0.264444 0.639921 0.995847
-19.472740 0.099913 -12.886645 -0.518635 -0.813073 0.264444 0.427560 0.995847
-19.315836 0.046815 -12.990847 -0.473542 -0.442658 -0.761453 0.427560 0.783486
-19.406071 0.048995 -12.935997 -0.473542 -0.442658 -0.761453 0.639921 0.783486
-19.418741 0.135207 -12.978236 -0.473542 -0.442658 -0.761453 0.639921 0.995847
-19.328505 0.133026 -13.033085 -0.473542 -0.442658 -0.761453 0.427560 0.995847
-19.357998 0.046815 -12.906372 0.906503 -0.420733 -0.035153 0.427560 0.783486
-19.361357 0.048995 -13.019112 0.906503 -0.420733 -0.035153 0.639921 0.783486
-19.321543 0.135207 -13.024227 0.906503 -0.420733 -0.035153 0.639921 0.995847
-19.318182 0.133026 -12.911485 0.906503 -0.420733 -0.035153 0.427560 0.995847
-19.376858 0.040926 -13.012853 -0.518629 -0.813075 0.264448 0.427560 0.783486
-19.336472 0.046665 -12.916003 -0.518629 -0.813075 0.264448 0.639921 0.783486
-19.406826 0.105654 -12.872613 -0.518629 -0.813075 0.264448 0.639921 0.995847
-19.447208 0.099913 -12.969460 -0.518629 -0.813075 0.264448 0.427560 0.995847
-19.409790 0.057736 -12.953446 0.010748 0.853763 0.520551 0.427560 0.783486
-19.313374 0.057639 -12.955277 0.010748 0.853763 0.520551 0.639921 0.783486
-19.304749 0.113642 -13.047309 0.010748 0.853763 0.520551 0.639921 0.995847
-19.401165 0.113739 -13.045475 0.010748 0.853763 0.520551 0.427560 0.995847
-19.353712 0.040926 -12.908044 0.576045 -0.801468 -0.160689 0.427560 0.783486
-19.375566 0.046665 -13.015021 0.576045 -0.801468 -0.160689 0.639921 0.783486
-19.300974 0.105654 -13.041828 0.576045 -0.801468 -0.160689 0.639921 0.995847
-19.279118 0.099913 -12.934853 0.576045 -0.801468 -0.160689 0.427560 0.995847
-19.325027 0.057736 -13.007572 -0.403447 0.819192 -0.407620 0.427560 0.783486
-19.403805 0.057639 -12.929794 -0.403447 0.819192 -0.407620 0.639921 0.783486
-19.358250 0.113642 -12.862334 -0.403447 0.819192 -0.407620 0.639921 0.995847
-19.279476 0.113739 -12.940106 -0.403447 0.819192 -0.407620 0.427560 0.995847
-19.314293 0.049920 -12.950566 0.383708 0.320478 -0.866061 0.427560 0.783486
-19.400986 0.051001 -12.988575 0.383708 0.320478 -0.866061 0.639921 0.783486
-19.411585 0.142146 -12.959544 0.383708 0.320478 -0.866061 0.639921 0.995847
-19.324890 0.141065 -12.921534 0.383708 0.320478 -0.866061 0.427560 0.995847
-19.339828 0.049920 -12.867747 0.383738 0.320430 -0.866066 0.427560 0.783486
-19.426519 0.051001 -12.905760 0.383738 0.320430 -0.866066 0.639921 0.783486
-19.437119 0.142146 -12.876733 0.383738 0.320430 -0.866066 0.639921 0.995847
-19.350422 0.141065 -12.838720 0.383738 0.320430 -0.866066 0.427560 0.995847
-19.379248 0.040926 -12.825230 0.576061 -0.801459 -0.160677 0.427560 0.783486
-19.401098 0.046665 -12.932209 0.576061 -0.801459 -0.160677 0.639921 0.783486
-19.326509 0.105654 -12.959015 0.576061 -0.801459 -0.160677 0.639921 0.995847
-19.304653 0.099913 -12.852036 0.576061 -0.801459 -0.160677 0.427560 0.995847
-19.350559 0.057736 -12.924758 -0.403443 0.819196 -0.407618 0.427560 0.783486
-19.429338 0.057639 -12.846981 -0.403443 0.819196 -0.407618 0.639921 0.783486
-19.383781 0.113642 -12.779519 -0.403443 0.819196 -0.407618 0.639921 0.995847
-19.305008 0.113739 -12.857293 -0.403443 0.819196 -0.407618 0.427560 0.995847
-19.435324 0.057736 -12.870636 0.010746 0.853757 0.520561 0.427560 0.783486
-19.338907 0.057639 -12.872463 0.010746 0.853757 0.520561 0.639921 0.783486
-19.330282 0.113642 -12.964496 0.010746 0.853757 0.520561 0.639921 0.995847
-19.426701 0.113739 -12.962659 0.010746 0.853757 0.520561 0.427560 0.995847
4 0 1 2 3
4 4 5 6 7
4 8 9 10 11
4 12 13 14 15
4 16 17 18 19
4 20 21 22 23
4 24 25 26 27
4 28 29 30 31
4 32 33 34 35
4 36 37 38 39
4 40 41 42 43
4 44 45 46 47
4 48 49 50 51
4 52 53 54 55
4 56 57 58 59
4 60 61 62 63
4 64 65 66 67
4 68 69 70 71
4 72 73 74 75
4 76 77 78 79
4 80 81 82 83
4 84 85 86 87
4 88 89 90 91
4 92 93 94 95
4 96 97 98 99
4 100 101 102 103
4 104 105 106 107
4 108 109 110 111
4 112 113 114 115
4 116 117 118 119
4 120 121 122 123
4 124 125 126 127
4 128 129 130 131
4 132 133 134 135
4 136 137 138 139
4 140 141 142 143
4 144 145 146 147
4 148 149 150 151
4 152 153 154 155
4 156 157 158 159
4 160 161 162 163
4 164 165 166 167
4 168 169 170 171
4 172 173 174 175
4 176 177 178 179
4 180 181 182 183
4 184 185 186 187
4 188 189 190 191
4 192 193 194 195
4 196 197 198 199
4 200 201 202 203
4 204 205 206 207
4 208 209 210 211
4 212 213 214 215
