ply
format ascii 1.0
comment Created by Blender 2.78 (sub 0) - www.blender.org, source file: 'soult.blend'
element vertex 129
property float x
property float y
property float z
property float nx
property float ny
property float nz
property float s
property float t
element face 48
property list uchar uint vertex_indices
end_header
-34.677704 -0.000000 -7.093819 -0.000000 1.000000 -0.000000 0.828935 0.207891
-34.199219 -0.000000 -6.444180 -0.000000 1.000000 -0.000000 0.801867 0.197457
-33.843746 -0.000000 -6.684927 -0.000000 1.000000 -0.000000 0.806846 0.182846
-33.890427 -0.000000 -6.724171 -0.000000 1.000000 -0.000000 0.808649 0.184092
-34.685791 -0.000000 -7.104179 0.000000 1.000000 -0.000000 0.829371 0.208073
-34.685791 -0.000000 -7.104179 -0.000017 1.000000 0.000036 0.829371 0.208073
-33.890427 -0.000000 -6.724171 -0.000017 1.000000 0.000036 0.808649 0.184092
-34.442608 0.000007 -7.202603 -0.000017 1.000000 0.000036 0.830478 0.198706
-34.695526 -0.000000 -7.112991 -0.000022 1.000000 0.000024 0.829769 0.208327
-34.685791 -0.000000 -7.104179 -0.000022 1.000000 0.000024 0.829371 0.208073
-34.442608 0.000007 -7.202603 -0.000022 1.000000 0.000024 0.830478 0.198706
-34.695526 -0.000000 -7.112991 -0.000024 1.000000 0.000017 0.829769 0.208327
-34.442608 0.000007 -7.202603 -0.000024 1.000000 0.000017 0.830478 0.198706
-34.503269 0.000007 -7.288235 -0.000024 1.000000 0.000017 0.834023 0.199998
-34.706696 -0.000000 -7.119957 -0.000016 1.000000 0.000026 0.830116 0.208648
-34.695526 -0.000000 -7.112991 -0.000016 1.000000 0.000026 0.829769 0.208327
-34.503269 0.000007 -7.288235 -0.000016 1.000000 0.000026 0.834023 0.199998
-34.706696 -0.000000 -7.119957 -0.000031 1.000000 0.000008 0.830116 0.208648
-34.503269 0.000007 -7.288235 -0.000031 1.000000 0.000008 0.834023 0.199998
-34.524666 0.000007 -7.366733 -0.000031 1.000000 0.000008 0.836948 0.199995
-34.716339 -0.000000 -7.124069 -0.000010 1.000000 0.000023 0.830350 0.208944
-34.706696 -0.000000 -7.119957 -0.000010 1.000000 0.000023 0.830116 0.208648
-34.524666 0.000007 -7.366733 -0.000010 1.000000 0.000023 0.836948 0.199995
-34.531807 0.000015 -7.491619 0.000051 1.000000 -0.000062 0.841347 0.199059
-34.492809 0.000006 -7.605572 0.000051 1.000000 -0.000062 0.844930 0.196626
-37.025505 0.000006 -9.711735 0.000051 1.000000 -0.000062 0.941990 0.264491
-34.716339 -0.000000 -7.124069 0.000035 1.000000 0.000059 0.830350 0.208944
-34.524666 0.000007 -7.366733 0.000035 1.000000 0.000059 0.836948 0.199995
-34.531807 0.000015 -7.491619 0.000035 1.000000 0.000059 0.841347 0.199059
-34.757172 -0.000000 -7.126663 0.000000 1.000000 -0.000000 0.830827 0.210335
-34.753357 -0.000000 -7.126450 0.000000 1.000000 -0.000000 0.830784 0.210205
-34.734833 -0.000000 -7.125427 0.000000 1.000000 -0.000000 0.830573 0.209572
-34.734833 -0.000000 -7.125427 -0.000003 1.000000 0.000040 0.830573 0.209572
-34.716339 -0.000000 -7.124069 -0.000003 1.000000 0.000040 0.830350 0.208944
-34.531807 0.000015 -7.491619 -0.000003 1.000000 0.000040 0.841347 0.199059
-37.025505 0.000006 -9.711735 -0.000001 1.000000 -0.000011 0.941990 0.264491
-36.764370 0.000001 -10.172003 -0.000001 1.000000 -0.000011 0.955481 0.251065
-36.970627 -0.000000 -10.293736 -0.000001 1.000000 -0.000011 0.961654 0.257068
-34.734833 -0.000000 -7.125427 -0.000027 1.000000 0.000027 0.830573 0.209572
-34.531807 0.000015 -7.491619 -0.000027 1.000000 0.000027 0.841347 0.199059
-37.025505 0.000006 -9.711735 -0.000027 1.000000 0.000027 0.941990 0.264491
-34.975189 -0.000000 -7.123970 0.000000 1.000000 -0.000000 0.832801 0.217922
-34.965271 -0.000000 -7.120590 0.000000 1.000000 -0.000000 0.832590 0.217610
-34.757172 -0.000000 -7.126663 -0.000000 1.000000 0.000003 0.830827 0.210335
-34.734833 -0.000000 -7.125427 -0.000000 1.000000 0.000003 0.830573 0.209572
-37.025505 0.000006 -9.711735 -0.000000 1.000000 0.000003 0.941990 0.264491
-37.025505 0.000006 -9.711735 -0.000002 1.000000 -0.000011 0.941990 0.264491
-36.970627 -0.000000 -10.293736 -0.000002 1.000000 -0.000011 0.961654 0.257068
-37.257248 -0.000000 -10.246250 -0.000002 1.000000 -0.000011 0.962725 0.267459
-37.257248 -0.000000 -10.246250 0.000000 1.000000 -0.000000 0.962725 0.267459
-37.390656 -0.000000 -10.249329 0.000000 1.000000 -0.000000 0.964097 0.272057
-37.931404 -0.000000 -9.608263 0.000000 1.000000 -0.000000 0.946992 0.296889
-37.931404 -0.000000 -9.608263 -0.000010 1.000000 0.000012 0.946992 0.296889
-37.869843 -0.000000 -9.556529 -0.000010 1.000000 0.000012 0.944614 0.295245
-37.702721 0.000003 -9.737499 -0.000010 1.000000 0.000012 0.949305 0.287733
-37.244160 -0.000000 -9.338108 0.000000 1.000000 -0.000000 0.931105 0.275617
-37.405060 -0.000000 -9.165943 0.000000 1.000000 -0.000000 0.926660 0.282829
-37.257248 -0.000000 -10.246250 -0.000041 1.000000 -0.000044 0.962725 0.267459
-37.931404 -0.000000 -9.608263 -0.000041 1.000000 -0.000044 0.946992 0.296889
-37.702721 0.000003 -9.737499 -0.000041 1.000000 -0.000044 0.949305 0.287733
-37.257248 -0.000000 -10.246250 0.000008 1.000000 -0.000000 0.962725 0.267459
-37.702721 0.000003 -9.737499 0.000008 1.000000 -0.000000 0.949305 0.287733
-37.244160 -0.000000 -9.338108 0.000008 1.000000 -0.000000 0.931105 0.275617
-37.244160 -0.000000 -9.338108 -0.000010 1.000000 0.000011 0.931105 0.275617
-34.757172 -0.000000 -7.126663 -0.000010 1.000000 0.000011 0.830827 0.210335
-37.025505 0.000006 -9.711735 -0.000010 1.000000 0.000011 0.941990 0.264491
-37.025505 0.000006 -9.711735 -0.000028 1.000000 0.000000 0.941990 0.264491
-37.257248 -0.000000 -10.246250 -0.000028 1.000000 0.000000 0.962725 0.267459
-37.244160 -0.000000 -9.338108 -0.000028 1.000000 0.000000 0.931105 0.275617
-37.931404 -0.000000 -9.608263 -0.000000 1.000000 -0.000000 0.724286 0.878106
-37.390656 -0.000000 -10.249329 -0.000000 1.000000 -0.000000 0.724820 0.831508
-37.798676 -0.000000 -10.383583 -0.000000 1.000000 -0.000000 0.746856 0.840676
-38.233685 -0.000000 -9.862288 -0.000000 1.000000 -0.000000 0.746224 0.878398
-38.588337 -0.000000 -10.160325 -0.000000 1.000000 -0.000000 0.878446 0.213997
-38.233685 -0.000000 -9.862288 -0.000000 1.000000 -0.000000 0.849631 0.238212
-37.798676 -0.000000 -10.383583 -0.000000 1.000000 -0.000000 0.814286 0.195857
-37.956818 -0.000000 -10.489220 0.000000 1.000000 -0.000000 0.827135 0.187274
-38.170044 -0.000000 -10.671661 0.000000 1.000000 -0.000000 0.844460 0.172451
-37.405060 -0.000000 -9.165943 -0.000003 1.000000 0.000008 0.527694 0.790687
-37.244160 -0.000000 -9.338108 -0.000003 1.000000 0.000008 0.548281 0.789758
-37.702721 0.000003 -9.737499 -0.000003 1.000000 0.000008 0.549157 0.836278
-37.869843 -0.000000 -9.556529 -0.000003 1.000000 0.000008 0.527631 0.837137
-31.244589 -0.000001 -11.703851 0.000000 1.000000 -0.000000 0.866577 0.252362
-31.119781 -0.000001 -11.924583 0.000000 1.000000 -0.000000 0.854408 0.230839
-30.827482 -0.000001 -12.446133 0.000000 1.000000 -0.000000 0.825908 0.179986
-30.868534 -0.000001 -12.462494 -0.000000 1.000000 -0.000000 0.829910 0.178391
-31.292095 -0.000001 -11.726395 -0.000000 1.000000 -0.000000 0.871209 0.250163
-34.146904 -0.000000 -6.946395 0.000000 1.000000 -0.000000 0.848418 0.226811
-33.890427 -0.000000 -6.724171 0.000000 1.000000 -0.000000 0.815903 0.220677
-34.005829 -0.000000 -6.864214 0.000000 1.000000 -0.000000 0.833593 0.221011
-34.063446 -0.000000 -6.988060 -0.000000 1.000000 -0.000000 0.846546 0.217911
-34.503269 0.000007 -7.288235 0.000067 1.000000 -0.000047 0.896123 0.233332
-34.442608 0.000007 -7.202603 0.000067 1.000000 -0.000047 0.885905 0.233885
-34.146904 -0.000000 -6.946395 0.000067 1.000000 -0.000047 0.848418 0.226811
-34.531807 0.000015 -7.491619 -0.000284 1.000000 0.000077 0.913391 0.223193
-34.524666 0.000007 -7.366733 -0.000284 1.000000 0.000077 0.903416 0.230212
-34.503269 0.000007 -7.288235 -0.000284 1.000000 0.000077 0.896123 0.233332
-34.299522 0.000007 -7.490854 0.000033 1.000000 -0.000068 0.899261 0.205491
-34.492809 0.000006 -7.605572 0.000033 1.000000 -0.000068 0.919735 0.213310
-34.531807 0.000015 -7.491619 0.000033 1.000000 -0.000068 0.913391 0.223193
-34.063732 -0.000000 -7.075988 0.000016 1.000000 0.000009 0.853281 0.212607
-33.939068 -0.000000 -7.282522 0.000016 1.000000 0.000009 0.861509 0.190571
-34.299522 0.000007 -7.490854 0.000016 1.000000 0.000009 0.899261 0.205491
-34.063732 -0.000000 -7.075988 0.000000 1.000000 -0.000000 0.853281 0.212607
-34.531807 0.000015 -7.491619 -0.000017 1.000000 0.000040 0.913391 0.223193
-34.503269 0.000007 -7.288235 -0.000017 1.000000 0.000040 0.896123 0.233332
-34.146904 -0.000000 -6.946395 -0.000017 1.000000 0.000040 0.848418 0.226811
-34.063732 -0.000000 -7.075988 0.000033 1.000000 -0.000000 0.853281 0.212607
-34.299522 0.000007 -7.490854 0.000033 1.000000 -0.000000 0.899261 0.205491
-34.531807 0.000015 -7.491619 0.000033 1.000000 -0.000000 0.913391 0.223193
-34.146904 -0.000000 -6.946395 0.000021 1.000000 0.000013 0.848418 0.226811
-34.063732 -0.000000 -7.075988 0.000021 1.000000 0.000013 0.853281 0.212607
-34.531807 0.000015 -7.491619 0.000021 1.000000 0.000013 0.913391 0.223193
-33.239414 -0.000000 -8.175798 -0.000000 1.000000 -0.000000 0.821718 0.222358
-33.310196 -0.000000 -8.219170 -0.000000 1.000000 -0.000000 0.826080 0.215539
-33.766052 -0.000000 -7.426944 -0.000000 1.000000 -0.000000 0.899799 0.265618
-33.607819 -0.000000 -7.524239 -0.000000 1.000000 -0.000000 0.881776 0.263822
-32.674469 -0.000000 -9.174963 -0.000000 1.000000 -0.000000 0.830905 0.199704
-32.738983 -0.000000 -9.211872 -0.000000 1.000000 -0.000000 0.834992 0.193719
-33.310196 -0.000000 -8.219170 -0.000000 1.000000 -0.000000 0.927366 0.256470
-33.239414 -0.000000 -8.175798 -0.000000 1.000000 -0.000000 0.923004 0.263289
-31.244589 -0.000001 -11.703851 0.000000 1.000000 -0.000000 0.817342 0.172070
-31.292095 -0.000001 -11.726395 0.000000 1.000000 -0.000000 0.820753 0.168243
-32.165485 -0.000000 -10.208545 0.000000 1.000000 -0.000000 0.956807 0.271412
-32.102322 -0.000000 -10.186863 0.000000 1.000000 -0.000000 0.951957 0.275757
-32.102322 -0.000000 -10.186863 0.000000 1.000000 -0.000000 0.839217 0.188036
-32.165485 -0.000000 -10.208545 0.000000 1.000000 -0.000000 0.843834 0.183444
-32.738983 -0.000000 -9.211872 0.000000 1.000000 -0.000000 0.936577 0.246446
-32.674469 -0.000000 -9.174963 0.000000 1.000000 -0.000000 0.932490 0.252431
3 0 1 2
3 0 2 3
3 4 0 3
3 5 6 7
3 8 9 10
3 11 12 13
3 14 15 16
3 17 18 19
3 20 21 22
3 23 24 25
3 26 27 28
3 29 30 31
3 32 33 34
3 35 36 37
3 38 39 40
3 41 42 29
3 43 44 45
3 46 47 48
3 49 50 51
3 52 53 54
3 55 56 41
3 57 58 59
3 55 41 29
3 60 61 62
3 63 64 65
3 66 67 68
4 69 70 71 72
3 73 74 75
3 76 77 73
3 75 76 73
4 78 79 80 81
3 82 83 84
3 84 85 86
3 84 86 82
3 87 88 89
3 87 89 90
3 91 92 93
3 94 95 96
3 97 98 99
3 100 101 102
3 87 90 103
3 104 105 106
3 107 108 109
3 110 111 112
4 113 114 115 116
4 117 118 119 120
4 121 122 123 124
4 125 126 127 128
