ply
format ascii 1.0
comment Created by Blender 2.78 (sub 0) - www.blender.org, source file: 'soult.blend'
element vertex 213
property float x
property float y
property float z
property float nx
property float ny
property float nz
element face 141
property list uchar uint vertex_indices
end_header
-33.970520 -0.000001 -11.540680 -0.000000 1.000000 -0.000000
-33.617859 -0.000001 -11.640999 -0.000000 1.000000 -0.000000
-33.694153 -0.000001 -11.985909 -0.000000 1.000000 -0.000000
-33.357147 -0.000001 -12.098328 -0.000000 1.000000 -0.000000
-33.454285 -0.000001 -12.452698 -0.000000 1.000000 -0.000000
-33.101105 -0.000001 -12.553467 -0.000000 1.000000 -0.000000
-33.177582 -0.000001 -12.898552 -0.000000 1.000000 -0.000000
-32.844177 -0.000001 -13.009087 0.000000 1.000000 -0.000000
-32.932922 -0.000001 -13.351120 0.000000 1.000000 -0.000000
-32.564423 -0.000001 -13.456429 -0.000000 1.000000 -0.000000
-32.660309 -0.000001 -13.813301 -0.000000 1.000000 -0.000000
-32.324127 -0.000001 -13.923210 -0.000000 1.000000 -0.000000
-32.399994 -0.000001 -14.268677 -0.000000 1.000000 -0.000000
-32.065765 -0.000001 -14.381668 -0.000000 1.000000 -0.000000
-32.159607 -0.000001 -14.734573 -0.000000 1.000000 -0.000000
-31.785065 -0.000001 -14.827759 -0.000000 1.000000 -0.000000
-31.789581 -0.000001 -14.844353 -0.000000 1.000000 -0.000000
-32.129822 -0.000001 -16.094406 0.000000 1.000000 -0.000000
-32.129608 -0.000001 -16.124725 -0.000000 1.000000 -0.000000
-34.213043 -0.000000 -11.071732 -0.000000 1.000000 -0.000000
-33.875824 -0.000000 -11.183434 -0.000000 1.000000 -0.000000
-34.490997 -0.000000 -10.626183 -0.000000 1.000000 -0.000000
-34.137115 -0.000000 -10.727501 -0.000000 1.000000 -0.000000
-34.748901 -0.000000 -10.171776 0.000000 1.000000 -0.000000
-34.396332 -0.000000 -10.272469 0.000000 1.000000 -0.000000
-35.005676 -0.000000 -9.713852 -0.000000 1.000000 -0.000000
-34.654022 -0.000000 -9.813789 -0.000000 1.000000 -0.000000
-35.701569 -0.000000 -9.515602 0.000000 1.000000 -0.000000
-35.826111 -0.000000 -9.421600 0.000000 -1.000000 0.000000
-35.820198 -0.000000 -9.426935 0.000000 -1.000000 0.000000
-35.767975 -0.000000 -9.474052 0.000000 -1.000000 0.000000
-35.767975 -0.000000 -9.474052 0.000000 1.000000 -0.000000
-35.826111 -0.000000 -9.421600 -0.000000 1.000000 -0.000000
-31.771179 -0.000001 -16.801895 0.000000 1.000000 -0.000000
-35.874298 -0.000000 -9.359840 -0.000000 1.000000 -0.000000
-34.182266 -0.000000 -8.486311 -0.000000 1.000000 -0.000000
-34.782150 -0.000000 -8.830814 -0.000000 1.000000 -0.000000
-34.831573 -0.000000 -8.795601 -0.000000 1.000000 -0.000000
-34.154503 -0.000000 -8.445082 -0.000000 1.000000 -0.000000
-34.143730 -0.000000 -8.464182 -0.000000 1.000000 -0.000000
-34.147186 -0.000000 -8.401993 -0.000000 1.000000 -0.000000
-34.935913 -0.000000 -8.741737 0.000000 1.000000 -0.000000
-35.112579 -0.000000 -8.680870 0.000000 1.000000 -0.000000
-35.297150 -0.000000 -8.651604 -0.000000 1.000000 -0.000000
-34.107327 -0.000000 -8.361510 -0.000000 1.000000 -0.000000
-35.483978 -0.000000 -8.654823 -0.000000 1.000000 -0.000000
-34.053772 -0.000000 -8.342583 0.000000 1.000000 -0.000000
-35.659485 -0.000000 -8.688202 0.000000 1.000000 -0.000000
-33.835064 -0.000000 -8.286922 0.000000 1.000000 -0.000000
-33.993824 -0.000000 -8.378098 0.000000 1.000000 -0.000000
-34.004517 -0.000000 -8.359281 0.000000 1.000000 -0.000000
-33.909519 -0.000000 -8.159310 0.000000 1.000000 -0.000000
-32.803329 -0.000001 -17.034731 0.000000 1.000000 -0.000000
-32.890625 -0.000001 -16.999687 0.000000 1.000000 -0.000000
-32.850090 -0.000001 -16.951454 0.000000 1.000000 -0.000000
-32.163239 -0.000001 -17.818954 0.000000 1.000000 -0.000000
-32.295288 -0.000001 -17.580276 0.000000 1.000000 -0.000000
-32.533691 -0.000001 -17.142975 0.000000 1.000000 -0.000000
-32.533691 -0.000001 -17.142975 -0.000006 1.000000 -0.000010
-32.850090 -0.000001 -16.951454 -0.000006 1.000000 -0.000010
-33.485367 0.000007 -15.820094 -0.000006 1.000000 -0.000010
-32.533691 -0.000001 -17.142975 0.000050 1.000000 0.000030
-33.485367 0.000007 -15.820094 0.000050 1.000000 0.000030
-36.516335 -0.000000 -10.547380 0.000050 1.000000 0.000030
-32.533691 -0.000001 -17.142975 0.000971 0.999999 0.000587
-36.516335 -0.000000 -10.547380 0.000971 0.999999 0.000587
-36.827789 -0.000016 -10.005570 0.000971 0.999999 0.000587
-32.533691 -0.000001 -17.142975 -0.003687 0.999991 -0.002216
-36.827789 -0.000016 -10.005570 -0.003687 0.999991 -0.002216
-37.266396 0.000038 -9.251742 -0.003687 0.999991 -0.002216
-34.299522 0.000007 -7.490854 0.000003 1.000000 -0.000010
-33.909519 -0.000000 -8.159310 0.000003 1.000000 -0.000010
-35.659485 -0.000000 -8.688202 0.000003 1.000000 -0.000010
-34.299522 0.000007 -7.490854 0.000015 1.000000 -0.000024
-35.659485 -0.000000 -8.688202 0.000015 1.000000 -0.000024
-35.756104 -0.000000 -8.750450 0.000015 1.000000 -0.000024
-32.223793 -0.000001 -18.066822 0.000000 1.000000 -0.000000
-32.255043 -0.000001 -18.011946 0.000000 1.000000 -0.000000
-32.240662 -0.000001 -18.003983 0.000000 1.000000 -0.000000
-30.496435 0.000015 -14.100286 0.828925 0.285685 0.480903
-29.436094 -0.000001 -15.927971 0.828925 0.285685 0.480903
-29.212526 -0.000001 -16.313332 0.828925 0.285685 0.480903
-29.749542 -0.000001 -15.467438 -0.000732 1.000000 -0.000411
-30.512190 -0.000001 -14.109352 -0.000732 1.000000 -0.000411
-30.496435 0.000015 -14.100286 -0.000732 1.000000 -0.000411
-29.749542 -0.000001 -15.467438 -0.000126 1.000000 -0.000080
-30.496435 0.000015 -14.100286 -0.000126 1.000000 -0.000080
-29.212526 -0.000001 -16.313332 -0.000126 1.000000 -0.000080
-29.212526 -0.000001 -16.313332 -0.000000 1.000000 -0.000000
-32.197266 -0.000001 -17.966660 -0.000000 1.000000 -0.000000
-29.726110 -0.000001 -15.581754 0.000000 1.000000 -0.000000
-29.749542 -0.000001 -15.467438 0.000000 1.000000 -0.000000
-29.706238 -0.000001 -15.726608 -0.000000 1.000000 -0.000000
-37.266396 0.000038 -9.251742 0.000044 1.000000 -0.000057
-34.299522 0.000007 -7.490854 0.000044 1.000000 -0.000057
-35.756104 -0.000000 -8.750450 0.000044 1.000000 -0.000057
-37.266396 0.000038 -9.251742 0.000041 1.000000 -0.000049
-35.756104 -0.000000 -8.750450 0.000041 1.000000 -0.000049
-35.802307 -0.000000 -8.789810 0.000041 1.000000 -0.000049
-37.266396 0.000038 -9.251742 0.000037 1.000000 -0.000035
-35.802307 -0.000000 -8.789810 0.000037 1.000000 -0.000035
-35.853607 -0.000000 -8.844681 0.000037 1.000000 -0.000035
-37.266396 0.000038 -9.251742 0.000033 1.000000 -0.000022
-35.853607 -0.000000 -8.844681 0.000033 1.000000 -0.000022
-35.895294 -0.000000 -8.908508 0.000033 1.000000 -0.000022
-37.266396 0.000038 -9.251742 0.000031 1.000000 -0.000013
-35.895294 -0.000000 -8.908508 0.000031 1.000000 -0.000013
-35.925232 -0.000000 -8.978600 0.000031 1.000000 -0.000013
-37.266396 0.000038 -9.251742 0.000030 1.000000 -0.000007
-35.925232 -0.000000 -8.978600 0.000030 1.000000 -0.000007
-35.942596 -0.000000 -9.052834 0.000030 1.000000 -0.000007
-37.266396 0.000038 -9.251742 0.000029 1.000000 -0.000002
-35.942596 -0.000000 -9.052834 0.000029 1.000000 -0.000002
-35.946747 -0.000000 -9.128937 0.000029 1.000000 -0.000002
-37.266396 0.000038 -9.251742 0.000029 1.000000 0.000003
-35.946747 -0.000000 -9.128937 0.000029 1.000000 0.000003
-35.937653 -0.000000 -9.204620 0.000029 1.000000 0.000003
-37.266396 0.000038 -9.251742 0.000028 1.000000 0.000006
-35.937653 -0.000000 -9.204620 0.000028 1.000000 0.000006
-35.935181 -0.000000 -9.216148 0.000028 1.000000 0.000006
-37.266396 0.000038 -9.251742 0.000028 1.000000 0.000009
-35.935181 -0.000000 -9.216148 0.000028 1.000000 0.000009
-35.911011 -0.000000 -9.290657 0.000028 1.000000 0.000009
-32.533691 -0.000001 -17.142975 0.000028 1.000000 0.000012
-37.266396 0.000038 -9.251742 0.000028 1.000000 0.000012
-35.911011 -0.000000 -9.290657 0.000028 1.000000 0.000012
-35.911011 -0.000000 -9.290657 -0.000000 1.000000 -0.000000
-32.155121 -0.000001 -17.881155 -0.000000 1.000000 -0.000000
-31.723480 -0.000001 -16.854187 0.000000 1.000000 -0.000000
-29.717072 -0.000001 -15.962341 0.000000 1.000000 -0.000000
-29.768707 -0.000001 -16.192627 -0.000000 1.000000 -0.000000
-31.580780 -0.000001 -16.977158 0.000000 1.000000 -0.000000
-31.460175 -0.000001 -17.052475 -0.000000 1.000000 -0.000000
-29.859497 -0.000001 -16.410446 -0.000000 1.000000 -0.000000
-29.981232 -0.000001 -16.601929 0.000000 1.000000 -0.000000
-31.307312 -0.000001 -17.111115 0.000000 1.000000 -0.000000
-30.139893 -0.000001 -16.776627 0.000000 1.000000 -0.000000
-30.326477 -0.000001 -16.921127 0.000000 1.000000 -0.000000
-31.269287 -0.000001 -17.121307 -0.000000 1.000000 -0.000000
-31.105438 -0.000001 -17.146774 -0.000000 1.000000 -0.000000
-30.442413 -0.000001 -16.991440 0.000000 1.000000 -0.000000
-31.086151 -0.000001 -17.147873 0.000000 1.000000 -0.000000
-30.857849 -0.000001 -17.131729 0.000000 1.000000 -0.000000
-30.652679 -0.000001 -17.081863 -0.000000 1.000000 -0.000000
-33.902557 -0.000000 -7.343010 0.000000 1.000000 -0.000000
-33.766052 -0.000000 -7.426944 0.000000 1.000000 -0.000000
-28.937988 -0.000001 -15.817558 0.000000 1.000000 -0.000000
-28.973839 -0.000001 -15.809788 -0.000000 1.000000 -0.000000
-34.299522 0.000007 -7.490854 0.000016 1.000000 0.000009
-33.939068 -0.000000 -7.282522 0.000016 1.000000 0.000009
-33.902557 -0.000000 -7.343010 0.000016 1.000000 0.000009
-33.835064 -0.000000 -8.286922 -0.663702 0.639959 -0.387237
-33.909519 -0.000000 -8.159310 -0.663702 0.639959 -0.387237
-34.299522 0.000007 -7.490854 -0.663702 0.639959 -0.387237
-28.973839 -0.000001 -15.809788 0.000016 1.000000 0.000009
-34.299522 0.000007 -7.490854 0.000000 1.000000 -0.000001
-28.973839 -0.000001 -15.809788 0.000000 1.000000 -0.000001
-29.011978 -0.000001 -15.818665 0.000000 1.000000 -0.000001
-32.374001 -0.000000 -11.228922 0.000000 1.000000 -0.000000
-33.835064 -0.000000 -8.286922 -0.000168 1.000000 -0.000108
-34.299522 0.000007 -7.490854 -0.000168 1.000000 -0.000108
-29.011978 -0.000001 -15.818665 -0.000168 1.000000 -0.000108
-29.011978 -0.000001 -15.818665 0.000000 1.000000 -0.000000
-29.037071 -0.000001 -15.843903 0.000000 1.000000 -0.000000
-29.050278 -0.000001 -15.880775 -0.000000 1.000000 -0.000000
-32.372528 -0.000000 -11.276329 0.000000 1.000000 -0.000000
-29.022308 -0.000001 -15.943840 0.000000 1.000000 -0.000000
-32.394875 -0.000000 -11.318148 0.000000 1.000000 -0.000000
-32.529755 -0.000000 -11.325958 -0.000000 1.000000 -0.000000
-34.681061 -0.000000 -8.902840 0.000000 1.000000 -0.000000
-32.740540 -0.000001 -12.101479 -0.000000 1.000000 -0.000000
-32.895355 -0.000001 -11.910576 -0.000000 1.000000 -0.000000
-34.551483 -0.000000 -9.034592 -0.000000 1.000000 -0.000000
-32.625824 -0.000001 -12.207642 0.000000 1.000000 -0.000000
-32.430237 -0.000001 -12.360634 -0.000000 1.000000 -0.000000
-32.430939 -0.000001 -12.360268 -0.000000 1.000000 -0.000000
-32.065552 -0.000001 -12.543602 -0.000000 1.000000 -0.000000
-32.066254 -0.000001 -12.543266 -0.000000 1.000000 -0.000000
-31.562897 -0.000001 -12.776428 0.000000 1.000000 -0.000000
-31.932220 -0.000001 -12.607742 0.000000 1.000000 -0.000000
-32.483246 -0.000000 -11.344505 -0.000000 1.000000 -0.000000
-31.367035 -0.000001 -12.889038 0.000000 1.000000 -0.000000
-32.433197 -0.000000 -11.345978 -0.000000 1.000000 -0.000000
-31.149414 -0.000001 -13.064842 0.000000 1.000000 -0.000000
-28.881691 -0.000001 -15.956203 0.000064 1.000000 -0.000013
-28.874084 -0.000001 -15.917595 0.000064 1.000000 -0.000013
-28.784748 -0.000008 -16.066088 0.000064 1.000000 -0.000013
-28.784748 -0.000008 -16.066088 0.000013 1.000000 0.000008
-29.212526 -0.000001 -16.313332 0.000013 1.000000 0.000008
-29.436094 -0.000001 -15.927971 0.000013 1.000000 0.000008
-31.019623 -0.000001 -13.205742 -0.000732 1.000000 -0.000411
-28.905853 -0.000001 -15.987267 0.000042 1.000000 -0.000033
-28.881691 -0.000001 -15.956203 0.000042 1.000000 -0.000033
-28.784748 -0.000008 -16.066088 0.000042 1.000000 -0.000033
-28.943100 -0.000001 -15.999973 0.000022 1.000000 -0.000064
-28.905853 -0.000001 -15.987267 0.000022 1.000000 -0.000064
-28.784748 -0.000008 -16.066088 0.000022 1.000000 -0.000064
-31.019623 -0.000001 -13.205742 0.000000 1.000000 -0.000000
-28.982086 -0.000001 -15.994583 -0.000024 1.000000 -0.000173
-28.943100 -0.000001 -15.999973 -0.000024 1.000000 -0.000173
-28.784748 -0.000008 -16.066088 -0.000024 1.000000 -0.000173
-30.496435 0.000015 -14.100286 0.000118 1.000000 0.000086
-31.019623 -0.000001 -13.205742 0.000118 1.000000 0.000086
-29.022308 -0.000001 -15.943840 0.000118 1.000000 0.000086
-28.982086 -0.000001 -15.994583 -0.000026 1.000000 -0.000179
-28.784748 -0.000008 -16.066088 -0.000026 1.000000 -0.000179
-29.436094 -0.000001 -15.927971 -0.000026 1.000000 -0.000179
-30.496435 0.000015 -14.100286 0.001191 0.999999 0.000944
-29.022308 -0.000001 -15.943840 0.001191 0.999999 0.000944
-28.982086 -0.000001 -15.994583 0.001191 0.999999 0.000944
-28.982086 -0.000001 -15.994583 -0.000001 1.000000 -0.000009
-29.436094 -0.000001 -15.927971 -0.000001 1.000000 -0.000009
-30.496435 0.000015 -14.100286 -0.000001 1.000000 -0.000009
3 0 1 2
3 2 3 4
3 4 5 6
3 6 7 8
3 8 9 10
3 10 11 12
3 12 13 14
3 14 15 16
3 14 16 17
3 10 12 14
3 4 6 8
3 8 10 14
3 14 17 18
3 8 14 18
3 0 2 4
3 4 8 18
3 0 4 18
3 19 20 0
3 21 22 19
3 23 24 21
3 25 26 23
3 27 25 23
3 21 19 0
3 27 23 21
3 28 29 30
3 31 27 21
3 21 0 18
3 31 21 18
3 32 31 18
3 32 18 33
3 34 32 33
3 35 36 37
3 38 39 35
3 40 38 35
3 35 37 41
3 35 41 42
3 40 35 42
3 40 42 43
3 44 40 43
3 44 43 45
3 46 44 45
3 46 45 47
3 48 49 50
3 48 50 46
3 51 48 46
3 51 46 47
3 52 53 54
3 55 56 57
3 57 52 54
3 58 59 60
3 61 62 63
3 64 65 66
3 67 68 69
3 70 71 72
3 73 74 75
3 76 77 78
3 79 80 81
3 82 83 84
3 85 86 87
3 88 76 78
3 88 78 89
3 90 91 88
3 92 90 88
3 93 94 95
3 96 97 98
3 99 100 101
3 102 103 104
3 105 106 107
3 108 109 110
3 111 112 113
3 114 115 116
3 117 118 119
3 120 121 122
3 123 124 125
3 57 126 34
3 55 57 34
3 55 34 33
3 127 55 33
3 127 33 128
3 129 92 88
3 130 129 88
3 127 128 131
3 127 131 132
3 133 130 88
3 134 133 88
3 89 127 132
3 89 132 135
3 136 134 88
3 137 136 88
3 89 135 138
3 89 138 139
3 140 137 88
3 140 88 89
3 89 139 141
3 89 141 142
3 143 140 89
3 142 143 89
3 144 145 146
3 144 146 147
3 148 149 150
3 151 152 153
3 148 150 154
3 155 156 157
3 158 49 48
3 159 160 161
3 48 162 163
3 158 48 163
3 158 163 164
3 165 158 164
3 165 164 166
3 167 165 166
3 35 39 168
3 169 36 35
3 170 171 172
3 172 169 35
3 172 35 168
3 173 170 172
3 174 175 173
3 176 177 174
3 178 179 176
3 178 176 174
3 174 173 172
3 174 172 168
3 178 174 168
3 178 168 180
3 181 178 180
3 181 180 182
3 183 181 182
3 184 185 186
3 187 188 189
3 84 83 190
3 191 192 193
3 194 195 196
3 197 183 182
3 198 199 200
3 197 182 167
3 197 167 166
3 201 202 203
3 204 205 206
3 207 208 209
3 210 211 212
