ply
format ascii 1.0
comment Created by Blender 2.78 (sub 0) - www.blender.org, source file: 'soult.blend'
element vertex 295
property float x
property float y
property float z
property float nx
property float ny
property float nz
property float s
property float t
element face 111
property list uchar uint vertex_indices
end_header
-13.267250 -0.000000 -9.852661 -0.000000 1.000000 -0.000000 0.919626 0.221131
-12.925745 -0.000000 -9.646208 -0.000000 1.000000 -0.000000 0.897037 0.252069
-12.846539 -0.000000 -9.718211 -0.000000 1.000000 -0.000000 0.887355 0.248628
-12.846539 -0.000000 -9.718211 -0.000035 1.000000 -0.000027 0.887355 0.248628
-12.242778 0.000007 -10.224303 -0.000035 1.000000 -0.000027 0.815138 0.226191
-12.366318 -0.000000 -10.343292 -0.000035 1.000000 -0.000027 0.821667 0.211077
-12.366318 -0.000000 -10.343292 -0.000000 1.000000 -0.000000 0.821667 0.211077
-12.427170 -0.000000 -10.298233 -0.000000 1.000000 -0.000000 0.828725 0.212811
-13.284184 -0.000000 -9.901720 -0.000000 1.000000 -0.000000 0.919307 0.216161
-12.832359 -0.000000 -10.261528 0.000000 1.000000 -0.000000 0.865965 0.201045
-12.909691 -0.000000 -10.297127 0.000000 1.000000 -0.000000 0.871493 0.195026
-12.750031 -0.000000 -10.239891 -0.000000 1.000000 -0.000000 0.859476 0.206011
-12.496605 -0.000000 -10.263790 -0.000000 1.000000 -0.000000 0.836150 0.213287
-12.580421 -0.000000 -10.240723 0.000000 1.000000 -0.000000 0.844427 0.212223
-12.665192 -0.000000 -10.232887 0.000000 1.000000 -0.000000 0.852223 0.209775
-14.830066 -0.000002 -10.929637 0.000001 1.000000 -0.000003 0.890880 0.255393
-14.530040 -0.000002 -10.725725 0.000001 1.000000 -0.000003 0.861326 0.243154
-14.513722 -0.000002 -10.863701 0.000001 1.000000 -0.000003 0.871535 0.234573
-14.513722 -0.000002 -10.863701 -0.000000 1.000000 -0.000000 0.871535 0.234573
-14.513721 -0.000002 -11.000984 -0.000000 1.000000 -0.000000 0.882550 0.227338
-14.643379 -0.000002 -11.115389 -0.000000 1.000000 -0.000000 0.898559 0.231708
-14.909754 -0.000002 -11.288869 0.000000 1.000000 -0.000000 0.910256 0.236450
-14.830066 -0.000002 -10.929637 0.000000 1.000000 -0.000000 0.890880 0.255393
-13.573351 -0.000001 -10.075513 -0.000001 1.000000 0.000001 0.725087 0.878509
-13.569115 -0.000000 -10.751834 -0.000001 1.000000 0.000001 0.723233 0.839912
-13.930486 -0.000000 -11.001019 -0.000001 1.000000 0.000001 0.746660 0.824966
-13.901529 -0.000001 -10.298559 -0.000001 1.000000 0.000001 0.746370 0.865121
-14.530040 -0.000002 -10.725725 -0.000002 1.000000 0.000001 0.890001 0.253951
-13.901529 -0.000001 -10.298559 -0.000002 1.000000 0.000001 0.822605 0.226043
-13.930486 -0.000000 -11.001019 -0.000002 1.000000 0.000001 0.880487 0.191342
-13.930486 -0.000000 -11.001019 -0.000003 1.000000 -0.000000 0.880487 0.191342
-14.513721 -0.000002 -11.000984 -0.000003 1.000000 -0.000000 0.911225 0.238134
-14.513722 -0.000002 -10.863701 -0.000003 1.000000 -0.000000 0.900210 0.245370
-13.930486 -0.000000 -11.001019 -0.000004 1.000000 -0.000004 0.880487 0.191342
-14.513722 -0.000002 -10.863701 -0.000004 1.000000 -0.000004 0.900210 0.245370
-14.530040 -0.000002 -10.725725 -0.000004 1.000000 -0.000004 0.890001 0.253951
-17.695974 -0.000006 -12.877450 -0.000009 1.000000 0.000013 0.500410 0.837527
-17.825935 -0.000002 -13.333331 -0.000009 1.000000 0.000013 0.500410 0.788945
-18.068951 -0.000002 -13.503702 -0.000009 1.000000 0.000013 0.522445 0.788945
-17.934801 -0.000006 -13.039767 -0.000009 1.000000 0.000013 0.522445 0.837527
-17.934801 -0.000006 -13.039767 -0.000010 1.000000 0.000013 0.846995 0.225353
-18.068951 -0.000002 -13.503702 -0.000010 1.000000 0.000013 0.871023 0.205351
-18.331591 -0.000007 -13.309445 -0.000010 1.000000 0.000013 0.884427 0.240854
-14.830066 -0.000002 -10.929637 -0.000001 1.000000 0.000001 0.500410 0.837527
-14.909754 -0.000002 -11.288869 -0.000001 1.000000 0.000001 0.500410 0.788945
-15.152769 -0.000002 -11.459241 -0.000001 1.000000 0.000001 0.522445 0.788945
-15.068892 -0.000003 -11.091955 -0.000001 1.000000 0.000001 0.522445 0.837527
-15.068892 -0.000003 -11.091955 -0.000002 1.000000 0.000002 0.500410 0.837527
-15.152769 -0.000002 -11.459241 -0.000002 1.000000 0.000002 0.500410 0.788945
-15.395784 -0.000002 -11.629613 -0.000002 1.000000 0.000002 0.522445 0.788945
-15.307717 -0.000003 -11.254272 -0.000002 1.000000 0.000002 0.522445 0.837527
-15.307717 -0.000003 -11.254272 -0.000003 1.000000 0.000003 0.500410 0.837527
-15.395784 -0.000002 -11.629613 -0.000003 1.000000 0.000003 0.500410 0.788945
-15.638800 -0.000002 -11.799985 -0.000003 1.000000 0.000003 0.522445 0.788945
-15.546543 -0.000003 -11.416590 -0.000003 1.000000 0.000003 0.522445 0.837527
-15.546543 -0.000003 -11.416590 -0.000003 1.000000 0.000004 0.500410 0.837527
-15.638800 -0.000002 -11.799985 -0.000003 1.000000 0.000004 0.500410 0.788945
-15.881815 -0.000002 -11.970357 -0.000003 1.000000 0.000004 0.522445 0.788945
-15.785369 -0.000004 -11.578908 -0.000003 1.000000 0.000004 0.522445 0.837527
-15.785369 -0.000004 -11.578908 -0.000004 1.000000 0.000005 0.500410 0.837527
-15.881815 -0.000002 -11.970357 -0.000004 1.000000 0.000005 0.500410 0.788945
-16.124830 -0.000002 -12.140729 -0.000004 1.000000 0.000005 0.522445 0.788945
-16.024195 -0.000004 -11.741226 -0.000004 1.000000 0.000005 0.522445 0.837527
-16.263020 -0.000004 -11.903543 -0.000005 1.000000 0.000006 0.522445 0.837527
-16.024195 -0.000004 -11.741226 -0.000005 1.000000 0.000006 0.500410 0.837527
-16.124830 -0.000002 -12.140729 -0.000005 1.000000 0.000006 0.500410 0.788945
-16.262642 -0.000002 -12.237345 -0.000004 1.000000 0.000007 0.512906 0.788945
-16.367846 -0.000002 -12.311101 -0.000004 1.000000 0.000007 0.522445 0.788945
-16.263020 -0.000004 -11.903543 -0.000004 1.000000 0.000007 0.522445 0.837527
-16.124830 -0.000002 -12.140729 -0.000004 1.000000 0.000007 0.500410 0.788945
-16.263020 -0.000004 -11.903543 -0.000006 1.000000 0.000007 0.500410 0.837527
-16.367846 -0.000002 -12.311101 -0.000006 1.000000 0.000007 0.500410 0.788945
-16.610861 -0.000002 -12.481473 -0.000006 1.000000 0.000007 0.522445 0.788945
-16.501846 -0.000005 -12.065861 -0.000006 1.000000 0.000007 0.522445 0.837527
-16.740673 -0.000005 -12.228179 -0.000007 1.000000 0.000008 0.522445 0.837527
-16.501846 -0.000005 -12.065861 -0.000007 1.000000 0.000008 0.500410 0.837527
-16.610861 -0.000002 -12.481473 -0.000007 1.000000 0.000008 0.500410 0.788945
-16.772184 -0.000002 -12.594573 -0.000006 1.000000 0.000009 0.515037 0.788945
-16.853876 -0.000002 -12.651845 -0.000006 1.000000 0.000009 0.522445 0.788945
-16.740673 -0.000005 -12.228179 -0.000006 1.000000 0.000009 0.522445 0.837527
-16.610861 -0.000002 -12.481473 -0.000006 1.000000 0.000009 0.500410 0.788945
-16.740673 -0.000005 -12.228179 -0.000007 1.000000 0.000009 0.500410 0.837527
-16.853876 -0.000002 -12.651845 -0.000007 1.000000 0.000009 0.500410 0.788945
-17.096891 -0.000002 -12.822216 -0.000007 1.000000 0.000009 0.522445 0.788945
-16.979498 -0.000005 -12.390497 -0.000007 1.000000 0.000009 0.522445 0.837527
-17.218323 -0.000005 -12.552814 -0.000008 1.000000 0.000010 0.522445 0.837527
-16.979498 -0.000005 -12.390497 -0.000008 1.000000 0.000010 0.500410 0.837527
-17.096891 -0.000002 -12.822216 -0.000008 1.000000 0.000010 0.500410 0.788945
-17.260578 -0.000002 -12.936972 -0.000007 1.000000 0.000010 0.515252 0.788945
-17.339907 -0.000002 -12.992587 -0.000007 1.000000 0.000010 0.522445 0.788945
-17.218323 -0.000005 -12.552814 -0.000007 1.000000 0.000010 0.522445 0.837527
-17.096891 -0.000002 -12.822216 -0.000007 1.000000 0.000010 0.500410 0.788945
-17.218323 -0.000005 -12.552814 -0.000008 1.000000 0.000011 0.500410 0.837527
-17.339907 -0.000002 -12.992587 -0.000008 1.000000 0.000011 0.500410 0.788945
-17.582922 -0.000002 -13.162959 -0.000008 1.000000 0.000011 0.522445 0.788945
-17.457150 -0.000006 -12.715132 -0.000008 1.000000 0.000011 0.522445 0.837527
-17.695974 -0.000006 -12.877450 -0.000009 1.000000 0.000012 0.522445 0.837527
-17.457150 -0.000006 -12.715132 -0.000009 1.000000 0.000012 0.500410 0.837527
-17.582922 -0.000002 -13.162959 -0.000009 1.000000 0.000012 0.500410 0.788945
-17.738075 -0.000002 -13.271734 -0.000008 1.000000 0.000012 0.514478 0.788945
-17.825935 -0.000002 -13.333331 -0.000008 1.000000 0.000012 0.522445 0.788945
-17.695974 -0.000006 -12.877450 -0.000008 1.000000 0.000012 0.522445 0.837527
-17.582922 -0.000002 -13.162959 -0.000008 1.000000 0.000012 0.500410 0.788945
-18.006710 -0.000001 -14.175238 -0.000013 1.000000 0.000001 0.500410 0.837527
-18.465239 -0.000006 -14.030743 -0.000013 1.000000 0.000001 0.500410 0.788945
-18.539848 -0.000008 -13.830704 -0.000013 1.000000 0.000001 0.522445 0.788945
-18.082138 -0.000001 -13.984619 -0.000013 1.000000 0.000001 0.522445 0.837527
-17.704990 -0.000001 -14.937716 0.000018 1.000000 0.000007 0.522445 0.837527
-17.629560 -0.000001 -15.128335 0.000018 1.000000 0.000007 0.500410 0.837527
-18.092194 0.000007 -15.030937 0.000018 1.000000 0.000007 0.500410 0.788945
-18.092194 0.000007 -15.030937 -0.000005 1.000000 0.000011 0.500410 0.788945
-18.111801 0.000006 -14.978367 -0.000005 1.000000 0.000011 0.506201 0.788945
-18.166801 0.000004 -14.830898 -0.000005 1.000000 0.000011 0.522445 0.788945
-18.092194 0.000007 -15.030937 0.000015 1.000000 0.000018 0.500410 0.788945
-18.166801 0.000004 -14.830898 0.000015 1.000000 0.000018 0.522445 0.788945
-17.704990 -0.000001 -14.937716 0.000015 1.000000 0.000018 0.522445 0.837527
-17.704990 -0.000001 -14.937716 0.000011 1.000000 0.000011 0.500410 0.837527
-18.166801 0.000004 -14.830898 0.000011 1.000000 0.000011 0.500410 0.788945
-18.241411 0.000002 -14.630859 0.000011 1.000000 0.000011 0.522445 0.788945
-17.780420 -0.000001 -14.747096 0.000011 1.000000 0.000011 0.522445 0.837527
-17.780420 -0.000001 -14.747096 0.000005 1.000000 0.000008 0.500410 0.837527
-18.241411 0.000002 -14.630859 0.000005 1.000000 0.000008 0.500410 0.788945
-18.316021 -0.000001 -14.430820 0.000005 1.000000 0.000008 0.522445 0.788945
-17.855850 -0.000001 -14.556477 0.000005 1.000000 0.000008 0.522445 0.837527
-17.855850 -0.000001 -14.556477 -0.000001 1.000000 0.000006 0.500410 0.837527
-18.316021 -0.000001 -14.430820 -0.000001 1.000000 0.000006 0.500410 0.788945
-18.390629 -0.000003 -14.230782 -0.000001 1.000000 0.000006 0.522445 0.788945
-17.931280 -0.000001 -14.365857 -0.000001 1.000000 0.000006 0.522445 0.837527
-17.931280 -0.000001 -14.365857 -0.000007 1.000000 0.000004 0.500410 0.837527
-18.390629 -0.000003 -14.230782 -0.000007 1.000000 0.000004 0.500410 0.788945
-18.465239 -0.000006 -14.030743 -0.000007 1.000000 0.000004 0.522445 0.788945
-18.006710 -0.000001 -14.175238 -0.000007 1.000000 0.000004 0.522445 0.837527
-18.781633 -0.000005 -14.142853 0.000007 1.000000 0.000009 0.887171 0.256442
-18.927685 -0.000008 -13.714580 0.000007 1.000000 0.000009 0.829223 0.224958
-18.577354 -0.000010 -13.694768 0.000007 1.000000 0.000009 0.874391 0.181003
-18.539848 -0.000008 -13.830704 -0.000001 1.000000 0.000012 0.882389 0.198042
-18.465239 -0.000006 -14.030743 -0.000001 1.000000 0.000012 0.910133 0.212202
-18.781633 -0.000005 -14.142853 -0.000001 1.000000 0.000012 0.887171 0.256442
-18.577354 -0.000010 -13.694768 -0.000003 1.000000 0.000013 0.874391 0.181003
-18.539848 -0.000008 -13.830704 -0.000003 1.000000 0.000013 0.882389 0.198042
-18.781633 -0.000005 -14.142853 -0.000003 1.000000 0.000013 0.887171 0.256442
-18.165995 0.000007 -13.634937 -0.000042 1.000000 0.000001 0.308092 0.548195
-18.189350 0.000007 -13.767285 -0.000042 1.000000 0.000001 0.308089 0.567046
-18.577354 -0.000010 -13.694768 -0.000042 1.000000 0.000001 0.252725 0.566480
-18.546213 -0.000008 -13.577991 -0.000042 1.000000 0.000001 0.254182 0.549590
-18.082138 -0.000001 -13.984619 -0.000013 1.000000 0.000010 0.885972 0.212509
-18.539848 -0.000008 -13.830704 -0.000013 1.000000 0.000010 0.901652 0.254313
-18.577354 -0.000010 -13.694768 -0.000013 1.000000 0.000010 0.889723 0.257687
-18.189350 0.000007 -13.767285 0.000060 1.000000 -0.000011 0.875724 0.230122
-18.165995 0.000007 -13.634937 0.000060 1.000000 -0.000011 0.862435 0.234105
-18.078766 -0.000001 -13.861473 0.000060 1.000000 -0.000011 0.880497 0.215896
-18.082138 -0.000001 -13.984619 -0.000056 1.000000 -0.000063 0.885972 0.212509
-18.577354 -0.000010 -13.694768 -0.000056 1.000000 -0.000063 0.889723 0.257687
-18.189350 0.000007 -13.767285 -0.000056 1.000000 -0.000063 0.875724 0.230122
-18.189350 0.000007 -13.767285 0.000067 1.000000 -0.000002 0.875724 0.230122
-18.078766 -0.000001 -13.861473 0.000067 1.000000 -0.000002 0.880497 0.215896
-18.082138 -0.000001 -13.984619 0.000067 1.000000 -0.000002 0.885972 0.212509
-18.638857 -0.000002 -14.561523 0.000001 1.000000 0.000007 0.888553 0.260494
-18.781633 -0.000005 -14.142853 0.000001 1.000000 0.000007 0.831904 0.229715
-18.465239 -0.000006 -14.030743 0.000001 1.000000 0.000007 0.854865 0.185475
-18.465239 -0.000006 -14.030743 -0.000000 1.000000 0.000013 0.854865 0.185475
-18.390629 -0.000003 -14.230782 -0.000000 1.000000 0.000013 0.882610 0.199634
-18.316021 -0.000001 -14.430820 -0.000000 1.000000 0.000013 0.910354 0.213793
-18.465239 -0.000006 -14.030743 -0.000008 1.000000 0.000010 0.854865 0.185475
-18.316021 -0.000001 -14.430820 -0.000008 1.000000 0.000010 0.910354 0.213793
-18.638857 -0.000002 -14.561523 -0.000008 1.000000 0.000010 0.888553 0.260494
-18.446676 0.000002 -15.125066 -0.000006 1.000000 0.000005 0.893739 0.268207
-18.638857 -0.000002 -14.561523 -0.000006 1.000000 0.000005 0.817488 0.226780
-18.316021 -0.000001 -14.430820 -0.000006 1.000000 0.000005 0.839288 0.180079
-18.241411 0.000002 -14.630859 -0.000001 1.000000 0.000012 0.867033 0.194239
-18.166801 0.000004 -14.830898 -0.000001 1.000000 0.000012 0.894777 0.208398
-18.111801 0.000006 -14.978367 -0.000001 1.000000 0.000012 0.915230 0.218835
-18.446676 0.000002 -15.125066 -0.000016 1.000000 0.000007 0.893739 0.268207
-18.316021 -0.000001 -14.430820 -0.000016 1.000000 0.000007 0.839288 0.180079
-18.241411 0.000002 -14.630859 -0.000016 1.000000 0.000007 0.867033 0.194239
-18.111801 0.000006 -14.978367 -0.000016 1.000000 0.000007 0.915230 0.218835
-18.362606 0.000004 -15.371589 -0.000014 1.000000 0.000002 0.815411 0.218676
-18.446676 0.000002 -15.125066 -0.000014 1.000000 0.000002 0.833804 0.185466
-18.111801 0.000006 -14.978367 -0.000014 1.000000 0.000002 0.883000 0.207355
-18.362606 0.000004 -15.371589 -0.000019 1.000000 0.000005 0.815411 0.218676
-18.111801 0.000006 -14.978367 -0.000019 1.000000 0.000005 0.883000 0.207355
-18.092194 0.000007 -15.030937 -0.000019 1.000000 0.000005 0.879221 0.214615
-17.775826 0.000007 -15.146290 -0.000003 1.000000 -0.000008 0.897178 0.259984
-18.362606 0.000004 -15.371589 -0.000003 1.000000 -0.000008 0.815411 0.218676
-18.092194 0.000007 -15.030937 -0.000003 1.000000 -0.000008 0.879221 0.214615
-17.629560 -0.000001 -15.128335 -0.001043 0.999999 -0.000413 0.913434 0.274022
-17.607410 -0.000001 -15.184309 -0.001043 0.999999 -0.000413 0.909558 0.281894
-17.674206 -0.000054 -15.145018 -0.001043 0.999999 -0.000413 0.907261 0.270834
-17.727894 0.000007 -15.140888 -0.000000 1.000000 -0.000000 0.902452 0.264632
-17.775826 0.000007 -15.146290 -0.000000 1.000000 -0.000000 0.897178 0.259984
-18.092194 0.000007 -15.030937 -0.000000 1.000000 -0.000000 0.879221 0.214615
-17.629560 -0.000001 -15.128335 0.000738 0.999986 -0.005179 0.913434 0.274022
-17.674206 -0.000054 -15.145018 0.000738 0.999986 -0.005179 0.907261 0.270834
-17.727894 0.000007 -15.140888 0.000738 0.999986 -0.005179 0.902452 0.264632
-18.092194 0.000007 -15.030937 0.000054 1.000000 0.000180 0.879221 0.214615
-17.629560 -0.000001 -15.128335 0.000054 1.000000 0.000180 0.913434 0.274022
-17.727894 0.000007 -15.140888 0.000054 1.000000 0.000180 0.902452 0.264632
-18.331591 -0.000007 -13.309445 0.000018 1.000000 0.000052 0.846594 0.233218
-18.068951 -0.000002 -13.503702 0.000018 1.000000 0.000052 0.833190 0.197715
-18.165995 0.000007 -13.634937 0.000018 1.000000 0.000052 0.859494 0.202049
-18.546213 -0.000008 -13.577991 0.000008 1.000000 -0.000019 0.875999 0.229216
-18.577354 -0.000010 -13.694768 0.000008 1.000000 -0.000019 0.886782 0.225631
-18.927685 -0.000008 -13.714580 0.000008 1.000000 -0.000019 0.910514 0.259688
-18.331591 -0.000007 -13.309445 -0.000036 1.000000 0.000024 0.846594 0.233218
-18.165995 0.000007 -13.634937 -0.000036 1.000000 0.000024 0.859494 0.202049
-18.546213 -0.000008 -13.577991 -0.000036 1.000000 0.000024 0.875999 0.229216
-18.546213 -0.000008 -13.577991 0.000004 1.000000 -0.000009 0.875999 0.229216
-18.927685 -0.000008 -13.714580 0.000004 1.000000 -0.000009 0.910514 0.259688
-18.331591 -0.000007 -13.309445 0.000004 1.000000 -0.000009 0.846594 0.233218
-17.825935 -0.000002 -13.333331 -0.000002 1.000000 0.000003 0.827558 0.230779
-17.738075 -0.000002 -13.271734 -0.000002 1.000000 0.000003 0.817954 0.226885
-17.562399 -0.000001 -13.505411 -0.000002 1.000000 0.000003 0.842704 0.205013
-17.562399 -0.000001 -13.505411 0.000018 1.000000 -0.000027 0.842704 0.205013
-18.078766 -0.000001 -13.861473 0.000018 1.000000 -0.000027 0.898486 0.227673
-18.165995 0.000007 -13.634937 0.000018 1.000000 -0.000027 0.880424 0.245882
-18.165995 0.000007 -13.634937 -0.000095 1.000000 0.000135 0.880424 0.245882
-18.068951 -0.000002 -13.503702 -0.000095 1.000000 0.000135 0.854120 0.241549
-17.825935 -0.000002 -13.333331 -0.000095 1.000000 0.000135 0.827558 0.230779
-17.562399 -0.000001 -13.505411 0.000009 1.000000 0.000019 0.842704 0.205013
-18.165995 0.000007 -13.634937 0.000009 1.000000 0.000019 0.880424 0.245882
-17.825935 -0.000002 -13.333331 0.000009 1.000000 0.000019 0.827558 0.230779
-17.339907 -0.000002 -12.992587 -0.000002 1.000000 0.000003 0.831782 0.230833
-17.260578 -0.000002 -12.936972 -0.000002 1.000000 0.000003 0.823111 0.227317
-17.096289 -0.000001 -13.184004 -0.000002 1.000000 0.000003 0.849702 0.206153
-17.562399 -0.000001 -13.505411 -0.000002 1.000000 0.000003 0.900054 0.226607
-17.738075 -0.000002 -13.271734 -0.000002 1.000000 0.000003 0.875304 0.248479
-17.738075 -0.000002 -13.271734 0.000000 1.000000 0.000000 0.875304 0.248479
-17.582922 -0.000002 -13.162959 0.000000 1.000000 0.000000 0.858345 0.241603
-17.339907 -0.000002 -12.992587 0.000000 1.000000 0.000000 0.831782 0.230833
-16.853876 -0.000002 -12.651845 -0.000002 1.000000 0.000004 0.854651 0.238958
-16.772184 -0.000002 -12.594573 -0.000002 1.000000 0.000004 0.845721 0.235337
-16.580908 -0.000001 -12.828622 -0.000002 1.000000 0.000004 0.870021 0.213201
-16.580908 -0.000001 -12.828622 -0.000002 1.000000 0.000003 0.870021 0.213201
-17.096289 -0.000001 -13.184004 -0.000002 1.000000 0.000003 0.925696 0.235817
-17.260578 -0.000002 -12.936972 -0.000002 1.000000 0.000003 0.899105 0.256981
-17.096891 -0.000002 -12.822216 -0.000002 1.000000 0.000004 0.881214 0.249727
-17.260578 -0.000002 -12.936972 -0.000002 1.000000 0.000004 0.899105 0.256981
-16.367846 -0.000002 -12.311101 -0.000003 1.000000 0.000004 0.849935 0.235522
-16.262642 -0.000002 -12.237345 -0.000003 1.000000 0.000004 0.838436 0.230860
-16.102375 -0.000001 -12.498649 -0.000003 1.000000 0.000004 0.866736 0.210306
-16.102375 -0.000001 -12.498649 -0.000002 1.000000 0.000004 0.866736 0.210306
-16.580908 -0.000001 -12.828622 -0.000002 1.000000 0.000004 0.918431 0.231305
-16.772184 -0.000002 -12.594573 -0.000002 1.000000 0.000004 0.894131 0.253441
-16.610861 -0.000002 -12.481473 -0.000003 1.000000 0.000004 0.876498 0.246291
-16.772184 -0.000002 -12.594573 -0.000003 1.000000 0.000004 0.894131 0.253441
-15.881815 -0.000002 -11.970357 -0.000003 1.000000 0.000004 0.854159 0.235576
-15.638800 -0.000002 -11.799985 -0.000003 1.000000 0.000004 0.827596 0.224805
-15.419868 -0.000001 -12.028025 -0.000003 1.000000 0.000004 0.850357 0.201949
-16.102375 -0.000001 -12.498649 -0.000003 1.000000 0.000004 0.924086 0.231900
-16.262642 -0.000002 -12.237345 -0.000003 1.000000 0.000004 0.895785 0.252453
-16.124830 -0.000002 -12.140729 -0.000003 1.000000 0.000004 0.880722 0.246346
-15.152769 -0.000002 -11.459241 -0.000003 1.000000 0.000005 0.850465 0.232930
-14.909754 -0.000002 -11.288869 -0.000003 1.000000 0.000005 0.823902 0.222159
-14.717428 -0.000001 -11.543655 -0.000003 1.000000 0.000005 0.850469 0.200787
-14.717428 -0.000001 -11.543655 -0.000003 1.000000 0.000004 0.850469 0.200787
-15.419868 -0.000001 -12.028025 -0.000003 1.000000 0.000004 0.926351 0.231613
-15.638800 -0.000002 -11.799985 -0.000003 1.000000 0.000004 0.903590 0.254469
-15.395784 -0.000002 -11.629613 -0.000003 1.000000 0.000005 0.877028 0.243700
-15.638800 -0.000002 -11.799985 -0.000003 1.000000 0.000005 0.903590 0.254469
-14.643379 -0.000002 -11.115389 -0.000003 1.000000 0.000004 0.879803 0.251332
-14.513721 -0.000002 -11.000984 -0.000003 1.000000 0.000004 0.863794 0.246962
-13.930486 -0.000000 -11.001019 -0.000003 1.000000 0.000004 0.833057 0.200169
-13.930486 -0.000000 -11.001019 -0.000003 1.000000 0.000005 0.833057 0.200169
-14.717428 -0.000001 -11.543655 -0.000003 1.000000 0.000005 0.918067 0.234703
-14.909754 -0.000002 -11.288869 -0.000003 1.000000 0.000005 0.891500 0.256075
-13.930486 -0.000000 -11.001019 -0.000004 1.000000 0.000006 0.833057 0.200169
-14.909754 -0.000002 -11.288869 -0.000004 1.000000 0.000006 0.891500 0.256075
-14.643379 -0.000002 -11.115389 -0.000004 1.000000 0.000006 0.879803 0.251332
-13.330383 -0.000000 -9.933239 -0.000000 1.000000 -0.000000 0.846600 0.246695
-13.284184 -0.000000 -9.901720 -0.000000 1.000000 -0.000000 0.841636 0.244649
-12.909691 -0.000000 -10.297127 -0.000000 1.000000 -0.000000 0.853620 0.193765
-13.569115 -0.000000 -10.751834 -0.000000 1.000000 0.000000 0.924856 0.222702
-13.573351 -0.000001 -10.075513 -0.000000 1.000000 0.000000 0.870820 0.258688
-13.573351 -0.000001 -10.075513 0.000000 1.000000 -0.000002 0.870820 0.258688
-13.364077 -0.000000 -9.933280 0.000000 1.000000 -0.000002 0.848379 0.249396
-13.330383 -0.000000 -9.933239 0.000000 1.000000 -0.000002 0.846600 0.246695
-12.909691 -0.000000 -10.297127 -0.000001 1.000000 -0.000001 0.853620 0.193765
-13.573351 -0.000001 -10.075513 -0.000001 1.000000 -0.000001 0.870820 0.258688
-13.330383 -0.000000 -9.933239 -0.000001 1.000000 -0.000001 0.846600 0.246695
-12.366318 -0.000000 -10.343292 -0.000037 1.000000 -0.000029 0.893518 0.237143
-12.242778 0.000007 -10.224303 -0.000037 1.000000 -0.000029 0.886988 0.252257
-11.839977 0.000007 -10.759898 -0.000037 1.000000 -0.000029 0.831472 0.219759
-11.959340 -0.000000 -10.855522 -0.000037 1.000000 -0.000029 0.838497 0.206868
-11.413606 -0.000001 -11.542394 -0.000039 1.000000 -0.000031 0.827191 0.202150
-11.959340 -0.000000 -10.855522 -0.000039 1.000000 -0.000031 0.900970 0.242746
-11.839977 0.000007 -10.759898 -0.000039 1.000000 -0.000031 0.893945 0.255637
-11.839977 0.000007 -10.759898 -0.000064 1.000000 -0.000048 0.893945 0.255637
-11.434806 0.000007 -11.298645 -0.000064 1.000000 -0.000048 0.838101 0.222947
-11.334107 0.000006 -11.451463 -0.000064 1.000000 -0.000048 0.823521 0.213147
-11.839977 0.000007 -10.759898 -0.000045 1.000000 -0.000034 0.893945 0.255637
-11.334107 0.000006 -11.451463 -0.000045 1.000000 -0.000034 0.823521 0.213147
-11.413606 -0.000001 -11.542394 -0.000045 1.000000 -0.000034 0.827191 0.202150
-11.413606 -0.000001 -11.542394 -0.000044 1.000000 -0.000035 0.925426 0.251987
-11.334107 0.000006 -11.451463 -0.000044 1.000000 -0.000035 0.921756 0.262984
-10.596581 -0.000001 -12.570717 -0.000044 1.000000 -0.000035 0.814969 0.191209
3 0 1 2
3 3 4 5
3 2 6 7
3 8 0 2
3 9 10 8
3 11 9 8
3 2 7 12
3 2 12 13
3 11 8 2
3 2 13 14
3 2 14 11
3 15 16 17
3 18 19 20
3 20 21 22
3 18 20 22
4 23 24 25 26
3 27 28 29
3 30 31 32
3 33 34 35
4 36 37 38 39
3 40 41 42
4 43 44 45 46
4 47 48 49 50
4 51 52 53 54
4 55 56 57 58
4 59 60 61 62
3 63 64 65
3 66 67 68
3 69 66 68
4 70 71 72 73
3 74 75 76
3 77 78 79
3 80 77 79
4 81 82 83 84
3 85 86 87
3 88 89 90
3 91 88 90
4 92 93 94 95
3 96 97 98
3 99 100 101
3 102 99 101
4 103 104 105 106
3 107 108 109
3 110 111 112
3 113 114 115
4 116 117 118 119
4 120 121 122 123
4 124 125 126 127
4 128 129 130 131
3 132 133 134
3 135 136 137
3 138 139 140
4 141 142 143 144
3 145 146 147
3 148 149 150
3 151 152 153
3 154 155 156
3 157 158 159
3 160 161 162
3 163 164 165
3 166 167 168
3 169 170 171
3 172 173 174
3 174 175 172
3 176 177 178
3 179 180 181
3 182 183 184
3 185 186 187
3 188 189 190
3 191 192 193
3 194 195 196
3 197 198 199
3 200 201 202
3 203 204 205
3 206 207 208
3 209 210 211
3 212 213 214
3 215 216 217
3 218 219 220
3 221 222 223
3 223 224 225
3 226 227 228
3 223 225 221
3 229 230 231
3 232 233 234
3 235 229 231
3 231 236 235
3 237 238 239
3 240 241 242
3 243 237 239
3 239 244 243
3 245 246 247
3 247 248 249
3 250 245 247
3 247 249 250
3 251 252 253
3 254 255 256
3 257 251 253
3 253 258 257
3 259 260 261
3 262 263 264
3 265 266 267
3 268 269 270
3 270 271 272
3 273 274 275
3 276 277 278
4 279 280 281 282
3 283 284 285
3 286 287 288
3 289 290 291
3 292 293 294
