ply
format ascii 1.0
comment Created by Blender 2.78 (sub 0) - www.blender.org, source file: 'soult.blend'
element vertex 93
property float x
property float y
property float z
property float nx
property float ny
property float nz
element face 71
property list uchar uint vertex_indices
end_header
-22.077652 -0.000000 -7.957153 0.000000 1.000000 -0.000000
-22.087173 -0.000000 -7.859917 0.000000 1.000000 -0.000000
-21.458836 -0.000000 -7.718599 0.000000 1.000000 -0.000000
-21.362865 -0.000000 -7.973746 0.000000 1.000000 -0.000000
-17.033157 -0.000000 -6.887421 0.000000 1.000000 -0.000000
-16.816864 -0.000000 -7.068859 0.000000 1.000000 -0.000000
-22.078049 -0.000000 -7.984779 -0.000000 1.000000 -0.000000
-15.388794 -0.000000 -6.823441 -0.000000 1.000000 -0.000000
-14.713902 -0.000000 -6.714509 0.000000 1.000000 -0.000000
-22.094315 -0.000000 -8.027397 0.000000 1.000000 -0.000000
-22.103897 -0.000000 -8.045326 -0.000000 1.000000 -0.000000
-22.158707 -0.000000 -8.108978 -0.000000 1.000000 -0.000000
-22.223740 -0.000000 -8.162132 0.000000 1.000000 -0.000000
-22.297012 -0.000000 -8.203194 -0.000000 1.000000 -0.000000
-22.308426 -0.000000 -8.208160 0.000000 1.000000 -0.000000
-30.598053 -0.000001 -11.721481 0.000000 1.000000 -0.000000
-30.494293 -0.000001 -11.469261 0.000000 1.000000 -0.000000
-31.166174 -0.000001 -11.945230 0.000002 1.000000 -0.000005
-31.119781 -0.000001 -11.924583 0.000002 1.000000 -0.000005
-30.598053 -0.000001 -11.721481 0.000002 1.000000 -0.000005
-30.734423 -0.000001 -12.408900 -0.000000 1.000000 0.000000
-30.868534 -0.000001 -12.462497 -0.000000 1.000000 0.000000
-31.166174 -0.000001 -11.945230 -0.000000 1.000000 0.000000
-30.792969 -0.000001 -12.332077 0.000007 1.000000 0.000006
-30.759857 -0.000001 -12.374840 0.000007 1.000000 0.000006
-30.734423 -0.000001 -12.408900 0.000007 1.000000 0.000006
-30.832855 -0.000001 -12.282562 0.000000 1.000000 -0.000000
-30.798889 -0.000001 -12.324631 0.000000 1.000000 -0.000000
-30.792969 -0.000001 -12.332077 0.000000 1.000000 -0.000000
-30.903015 -0.000001 -12.200249 0.000000 1.000000 -0.000000
-30.867584 -0.000001 -12.241096 0.000000 1.000000 -0.000000
-30.907217 -0.000001 -12.189774 -0.000000 1.000000 -0.000000
-30.909348 -0.000001 -12.169189 -0.000000 1.000000 -0.000000
-30.906311 -0.000001 -12.157021 -0.000000 1.000000 -0.000000
-30.898560 -0.000001 -12.144623 -0.000000 1.000000 -0.000000
-30.885864 -0.000001 -12.133888 -0.000000 1.000000 -0.000000
-30.874329 -0.000001 -12.128891 -0.000000 1.000000 -0.000000
-14.442527 -0.000000 -6.292448 -0.000000 1.000000 -0.000000
-14.427067 -0.000000 -6.158739 -0.000000 1.000000 -0.000000
-14.302048 -0.000000 -6.971276 -0.000000 1.000000 -0.000000
-14.613737 -0.000581 -7.027776 -0.191315 0.003013 0.981524
-14.779371 -0.000000 -7.060063 -0.191315 0.003013 0.981524
-15.220047 -0.000000 -7.145958 -0.191315 0.003013 0.981524
-14.442527 -0.000000 -6.292448 -0.001795 0.999998 -0.000371
-14.302048 -0.000000 -6.971276 -0.001795 0.999998 -0.000371
-14.613737 -0.000581 -7.027776 -0.001795 0.999998 -0.000371
-14.489500 -0.000000 -6.471804 0.027142 0.999606 -0.007109
-14.442527 -0.000000 -6.292448 0.027142 0.999606 -0.007109
-14.613737 -0.000581 -7.027776 0.027142 0.999606 -0.007109
-15.220047 -0.000000 -7.145958 -0.000000 1.000000 -0.000000
-16.744514 -0.000000 -7.518044 -0.000000 1.000000 -0.000000
-17.961624 -0.000000 -7.808472 -0.000000 1.000000 -0.000000
-14.609731 -0.000000 -6.640695 0.002137 0.999997 -0.001521
-14.489500 -0.000000 -6.471804 0.002137 0.999997 -0.001521
-14.613737 -0.000581 -7.027776 0.002137 0.999997 -0.001521
-14.713902 -0.000000 -6.714509 0.001070 0.999998 -0.001510
-14.609731 -0.000000 -6.640695 0.001070 0.999998 -0.001510
-14.613737 -0.000581 -7.027776 0.001070 0.999998 -0.001510
-14.713902 -0.000000 -6.714509 0.001241 0.999998 -0.001456
-14.613737 -0.000581 -7.027776 0.001241 0.999998 -0.001456
-15.220047 -0.000000 -7.145958 0.001241 0.999998 -0.001456
-30.861893 -0.000001 -12.127411 0.000000 1.000000 -0.000000
-19.209610 -0.000000 -8.123970 0.000000 1.000000 -0.000000
-20.536819 -0.000000 -8.449402 0.000000 1.000000 -0.000000
-30.849426 -0.000001 -12.128853 0.000000 1.000000 -0.000000
-30.837891 -0.000001 -12.133789 -0.000000 1.000000 -0.000000
-20.971985 -0.000000 -8.549629 -0.000000 1.000000 -0.000000
-30.827820 -0.000001 -12.141273 0.000000 1.000000 -0.000000
-30.781342 -0.000001 -12.188171 0.000000 1.000000 -0.000000
-30.809143 -0.000001 -12.160439 0.000000 1.000000 -0.000000
-30.724304 -0.000001 -12.242157 -0.000000 1.000000 -0.000000
-30.753052 -0.000001 -12.215416 -0.000000 1.000000 -0.000000
-30.686127 -0.000001 -12.276260 0.000000 1.000000 -0.000000
-30.715485 -0.000001 -12.250168 0.000000 1.000000 -0.000000
-30.623093 -0.000001 -12.329334 0.000000 1.000000 -0.000000
-30.656311 -0.000001 -12.301819 0.000000 1.000000 -0.000000
-21.885117 -0.000000 -8.811836 0.000000 1.000000 -0.000000
-21.912827 -0.000000 -8.820328 0.000000 1.000000 -0.000000
-21.926971 -0.000000 -8.826828 0.000000 1.000000 -0.000000
-22.037338 -0.000000 -8.869888 0.000000 1.000000 -0.000000
-22.111893 -0.000000 -8.901230 -0.000000 1.000000 -0.000000
-22.654373 -0.000000 -9.118347 -0.000000 1.000000 -0.000000
-23.895950 -0.000000 -9.618340 0.000000 1.000000 -0.000000
-24.330154 -0.000000 -9.787872 0.000000 1.000000 -0.000000
-24.586227 -0.000000 -9.669899 0.000000 1.000000 -0.000000
-30.613190 -0.000001 -12.341061 -0.000000 1.000000 -0.000000
-29.817093 -0.000001 -12.042187 -0.000001 1.000000 0.000003
-30.608202 -0.000001 -12.358460 -0.000001 1.000000 0.000003
-30.607885 -0.000001 -12.355556 -0.000001 1.000000 0.000003
-30.607885 -0.000001 -12.355556 0.000000 1.000000 -0.000000
-25.226013 -0.000000 -9.927750 -0.000000 1.000000 -0.000000
-25.143801 -0.000000 -10.130260 -0.000000 1.000000 -0.000000
-29.817093 -0.000001 -12.042187 -0.000000 1.000000 -0.000000
3 0 1 2
3 3 4 5
3 0 2 3
3 6 0 3
3 3 5 7
3 3 7 8
3 9 6 3
3 10 9 3
3 11 10 3
3 12 11 3
3 12 3 8
3 13 12 8
3 14 13 8
3 15 16 14
3 17 18 19
3 20 21 22
3 23 24 25
3 26 27 28
3 29 30 26
3 29 26 28
3 28 20 22
3 29 28 22
3 31 29 22
3 32 31 22
3 33 32 22
3 34 33 22
3 35 34 22
3 35 22 15
3 36 35 15
3 37 38 39
3 40 41 42
3 43 44 45
3 46 47 48
3 49 50 51
3 52 53 54
3 55 56 57
3 58 59 60
3 36 15 14
3 61 36 14
3 14 8 49
3 51 62 63
3 14 49 51
3 64 61 14
3 65 64 14
3 14 51 63
3 14 63 66
3 67 65 14
3 68 69 67
3 70 71 68
3 72 73 70
3 74 75 72
3 74 72 70
3 70 68 67
3 14 66 76
3 77 78 79
3 14 76 77
3 70 67 14
3 74 70 14
3 14 77 79
3 79 80 81
3 81 82 83
3 81 83 84
3 14 79 81
3 85 74 14
3 86 87 88
3 89 85 14
3 14 81 84
3 90 91 92
3 14 84 90
3 92 89 14
3 90 92 14
