ply
format ascii 1.0
comment Created by Blender 2.78 (sub 0) - www.blender.org, source file: 'soult.blend'
element vertex 432
property float x
property float y
property float z
property float nx
property float ny
property float nz
property float s
property float t
element face 142
property list uchar uint vertex_indices
end_header
-14.779371 -0.000000 -7.060063 -0.000000 1.000000 -0.000000 0.884781 0.224683
-15.220047 -0.000000 -7.145958 -0.000000 1.000000 -0.000000 0.903350 0.232093
-15.388794 -0.000000 -6.823441 -0.000000 1.000000 -0.000000 0.901891 0.248236
-14.713902 -0.000000 -6.714509 0.000000 1.000000 -0.000000 0.873998 0.236041
-14.613737 -0.000581 -7.027776 0.003638 0.999993 -0.000689 0.877802 0.221898
-14.779371 -0.000000 -7.060063 0.003638 0.999993 -0.000689 0.884781 0.224683
-14.713902 -0.000000 -6.714509 0.003638 0.999993 -0.000689 0.873998 0.236041
-14.613737 -0.000581 -7.027776 0.001070 0.999998 -0.001510 0.877802 0.221898
-14.713902 -0.000000 -6.714509 0.001070 0.999998 -0.001510 0.873998 0.236041
-14.609731 -0.000000 -6.640695 0.001070 0.999998 -0.001510 0.868318 0.236293
-14.442527 -0.000000 -6.292448 -0.000000 1.000000 -0.000000 0.853662 0.245299
-14.427067 -0.000000 -6.158739 -0.000000 1.000000 -0.000000 0.849859 0.249931
-14.302048 -0.000000 -6.971276 -0.000000 1.000000 -0.000000 0.864770 0.216498
-14.613737 -0.000581 -7.027776 0.002137 0.999997 -0.001521 0.877802 0.221898
-14.609731 -0.000000 -6.640695 0.002137 0.999997 -0.001521 0.868318 0.236293
-14.489500 -0.000000 -6.471804 0.002137 0.999997 -0.001521 0.859745 0.239717
-14.489500 -0.000000 -6.471804 -0.000000 1.000000 0.000000 0.859745 0.239717
-14.489500 -0.000000 -6.471804 -0.001743 0.999998 -0.000654 0.859745 0.239717
-14.302048 -0.000000 -6.971276 -0.001743 0.999998 -0.000654 0.864770 0.216498
-14.613737 -0.000581 -7.027776 -0.001743 0.999998 -0.000654 0.877802 0.221898
-16.744514 -0.000000 -7.518044 -0.000000 1.000000 -0.000000 0.914146 0.235338
-16.839752 -0.000000 -7.049658 -0.000000 1.000000 -0.000000 0.906024 0.253899
-15.388794 -0.000000 -6.823441 -0.000000 1.000000 -0.000000 0.846643 0.228653
-15.220047 -0.000000 -7.145958 -0.000000 1.000000 -0.000000 0.848102 0.212510
-19.095369 -0.000000 -7.404830 0.000000 1.000000 -0.000000 0.554186 0.792297
-19.046515 -0.000000 -7.613236 0.000000 1.000000 -0.000000 0.572563 0.792297
-19.664766 -0.000000 -7.771106 0.000000 1.000000 -0.000000 0.572563 0.835735
-19.717503 -0.000000 -7.560924 0.000000 1.000000 -0.000000 0.554186 0.835735
-18.010942 -0.000000 -7.348802 0.000000 1.000000 -0.000000 0.572563 0.835735
-18.057087 -0.000000 -7.144325 0.000000 1.000000 -0.000000 0.554186 0.835735
-17.522816 -0.000000 -7.010276 0.000000 1.000000 -0.000000 0.554186 0.792297
-17.479879 -0.000000 -7.213195 0.000000 1.000000 -0.000000 0.572563 0.792297
-17.419464 -0.000002 -7.480127 0.000002 1.000000 -0.000007 0.889498 0.236848
-17.479879 -0.000000 -7.213195 0.000002 1.000000 -0.000007 0.883118 0.258033
-16.839752 -0.000000 -7.049658 0.000002 1.000000 -0.000007 0.831570 0.244046
-16.839752 -0.000000 -7.049658 -0.000000 1.000000 -0.000000 0.831570 0.244046
-16.744514 -0.000000 -7.518044 -0.000000 1.000000 -0.000000 0.843523 0.207300
-17.378937 -0.000000 -7.669430 -0.000000 1.000000 -0.000000 0.894186 0.221915
-17.419464 -0.000002 -7.480127 -0.000009 1.000000 0.000008 0.889498 0.236848
-16.839752 -0.000000 -7.049658 -0.000009 1.000000 0.000008 0.831570 0.244046
-17.378937 -0.000000 -7.669430 -0.000009 1.000000 0.000008 0.894186 0.221915
-22.655712 0.000001 -8.896223 0.000003 1.000000 -0.000003 0.885701 0.236541
-22.761900 0.000001 -8.625858 0.000003 1.000000 -0.000003 0.879667 0.259235
-22.257318 0.000002 -8.426526 0.000003 1.000000 -0.000003 0.837258 0.248050
-22.198215 -0.000000 -8.711248 0.000003 1.000000 -0.000003 0.847045 0.226676
-25.361410 -0.000000 -9.424414 -0.000002 1.000000 0.000005 0.554186 0.792297
-25.284813 0.000001 -9.622519 -0.000002 1.000000 0.000005 0.572563 0.792297
-25.789394 0.000001 -9.821851 -0.000002 1.000000 0.000005 0.572563 0.835735
-25.864908 -0.000000 -9.624998 -0.000002 1.000000 0.000005 0.554186 0.835735
-18.570507 -0.000000 -7.273142 -0.000000 1.000000 -0.000000 0.554186 0.835735
-18.057087 -0.000000 -7.144325 -0.000000 1.000000 -0.000000 0.554186 0.792297
-18.010942 -0.000000 -7.348802 -0.000000 1.000000 -0.000000 0.572563 0.792297
-18.521875 -0.000000 -7.479268 -0.000000 1.000000 -0.000000 0.572563 0.835735
-18.570507 -0.000000 -7.273142 -0.000000 1.000000 -0.000000 0.554186 0.792297
-18.521875 -0.000000 -7.479268 -0.000000 1.000000 -0.000000 0.572563 0.792297
-19.046515 -0.000000 -7.613236 -0.000000 1.000000 -0.000000 0.572563 0.835735
-19.095369 -0.000000 -7.404830 -0.000000 1.000000 -0.000000 0.554186 0.835735
-17.479879 -0.000000 -7.213195 0.000000 1.000000 -0.000000 0.573434 0.835755
-17.522816 -0.000000 -7.010276 0.000000 1.000000 -0.000000 0.554112 0.835210
-17.033157 -0.000000 -6.887421 0.000000 1.000000 -0.000000 0.554214 0.801628
-16.839752 -0.000000 -7.049658 0.000000 1.000000 -0.000000 0.573303 0.791805
-20.268297 -0.000000 -7.699118 -0.000000 1.000000 -0.000000 0.554186 0.792297
-20.211254 -0.000000 -7.910651 -0.000000 1.000000 -0.000000 0.572563 0.792297
-20.770987 -0.000000 -8.053585 -0.000000 1.000000 -0.000000 0.572563 0.835735
-20.818230 -0.000000 -7.837097 -0.000000 1.000000 -0.000000 0.554186 0.835735
-20.818230 -0.000000 -7.837097 0.000000 1.000000 -0.000000 0.554186 0.792220
-20.770987 -0.000000 -8.053585 0.000000 1.000000 -0.000000 0.572563 0.792220
-21.310495 -0.000000 -8.191347 0.000000 1.000000 -0.000000 0.572563 0.837749
-21.362865 -0.000000 -7.973746 0.000000 1.000000 -0.000000 0.554186 0.837749
-19.717503 -0.000000 -7.560924 -0.000000 1.000000 -0.000000 0.554186 0.792297
-19.664766 -0.000000 -7.771106 -0.000000 1.000000 -0.000000 0.572563 0.792297
-20.211254 -0.000000 -7.910651 -0.000000 1.000000 -0.000000 0.572563 0.835735
-20.268297 -0.000000 -7.699118 -0.000000 1.000000 -0.000000 0.554186 0.835735
-20.668583 -0.000000 -8.479750 0.000003 1.000000 -0.000008 0.554551 0.792114
-20.709105 0.000002 -8.297747 0.000003 1.000000 -0.000008 0.572929 0.792114
-20.133499 0.000001 -8.154684 0.000003 1.000000 -0.000008 0.572929 0.837855
-20.092623 -0.000000 -8.340485 0.000003 1.000000 -0.000008 0.554551 0.837855
-18.936514 -0.000000 -8.054930 0.000000 1.000000 0.000002 0.554551 0.792297
-18.984562 -0.000000 -7.869123 0.000000 1.000000 0.000002 0.572929 0.792297
-18.473375 -0.000001 -7.742070 0.000000 1.000000 0.000002 0.572929 0.835735
-18.424206 -0.000000 -7.925415 0.000000 1.000000 0.000002 0.554551 0.835735
-18.424206 -0.000000 -7.925415 -0.000001 1.000000 0.000005 0.554551 0.792297
-18.473375 -0.000001 -7.742070 -0.000001 1.000000 0.000005 0.572929 0.792297
-17.934635 -0.000002 -7.608170 -0.000001 1.000000 0.000005 0.572929 0.835735
-17.887932 -0.000000 -7.790887 -0.000001 1.000000 0.000005 0.554551 0.835735
-17.887932 -0.000000 -7.790887 -0.000001 1.000000 0.000008 0.554551 0.792297
-17.934635 -0.000002 -7.608170 -0.000001 1.000000 0.000008 0.572929 0.792297
-17.419464 -0.000002 -7.480127 -0.000001 1.000000 0.000008 0.572929 0.838060
-17.378937 -0.000000 -7.669430 -0.000001 1.000000 0.000008 0.554551 0.838060
-19.524281 -0.000000 -8.201127 0.000001 1.000000 -0.000001 0.554551 0.792297
-19.569668 0.000000 -8.014547 0.000001 1.000000 -0.000001 0.572929 0.792297
-18.984562 -0.000000 -7.869123 0.000001 1.000000 -0.000001 0.572929 0.835735
-18.936514 -0.000000 -8.054930 0.000001 1.000000 -0.000001 0.554551 0.835735
-20.092623 -0.000000 -8.340485 0.000002 1.000000 -0.000005 0.554551 0.792297
-20.133499 0.000001 -8.154684 0.000002 1.000000 -0.000005 0.572929 0.792297
-19.569668 0.000000 -8.014547 0.000002 1.000000 -0.000005 0.572929 0.835735
-19.524281 -0.000000 -8.201127 0.000002 1.000000 -0.000005 0.554551 0.835735
-22.094315 -0.000000 -8.027397 -0.000037 1.000000 0.000014 0.739085 0.830730
-22.078049 -0.000000 -7.984779 -0.000037 1.000000 0.000014 0.739059 0.830797
-22.079887 0.000002 -8.124887 -0.000037 1.000000 0.000014 0.739062 0.830575
-22.079887 0.000002 -8.124887 -0.000000 1.000000 -0.000000 0.739062 0.830575
-22.124245 0.000002 -8.311193 -0.000000 1.000000 -0.000000 0.739133 0.830280
-22.257318 0.000002 -8.426526 -0.000000 1.000000 -0.000000 0.739343 0.830097
-22.257318 0.000002 -8.426526 -0.000003 1.000000 0.000008 0.739343 0.830097
-22.340422 -0.000000 -8.220907 -0.000003 1.000000 0.000008 0.739475 0.830423
-22.308426 -0.000000 -8.208160 -0.000003 1.000000 0.000008 0.739424 0.830443
-22.297012 -0.000000 -8.203194 -0.000003 1.000000 0.000008 0.739406 0.830451
-22.094315 -0.000000 -8.027397 -0.000027 1.000000 0.000016 0.739085 0.830730
-22.079887 0.000002 -8.124887 -0.000027 1.000000 0.000016 0.739062 0.830575
-22.257318 0.000002 -8.426526 -0.000027 1.000000 0.000016 0.739343 0.830097
-22.103897 -0.000000 -8.045326 -0.000038 1.000000 0.000020 0.739100 0.830701
-22.094315 -0.000000 -8.027397 -0.000038 1.000000 0.000020 0.739085 0.830730
-22.257318 0.000002 -8.426526 -0.000038 1.000000 0.000020 0.739343 0.830097
-22.257318 0.000002 -8.426526 -0.000004 1.000000 0.000008 0.739343 0.830097
-22.297012 -0.000000 -8.203194 -0.000004 1.000000 0.000008 0.739406 0.830451
-22.223740 -0.000000 -8.162132 -0.000004 1.000000 0.000008 0.739290 0.830516
-22.158707 -0.000000 -8.108978 -0.000011 1.000000 0.000009 0.739187 0.830600
-22.103897 -0.000000 -8.045326 -0.000011 1.000000 0.000009 0.739100 0.830701
-22.257318 0.000002 -8.426526 -0.000011 1.000000 0.000009 0.739343 0.830097
-22.223740 -0.000000 -8.162132 -0.000007 1.000000 0.000008 0.739290 0.830516
-22.158707 -0.000000 -8.108978 -0.000007 1.000000 0.000008 0.739187 0.830600
-22.257318 0.000002 -8.426526 -0.000007 1.000000 0.000008 0.739343 0.830097
-25.864908 -0.000000 -9.624998 -0.000002 1.000000 0.000004 0.554186 0.792297
-25.789394 0.000001 -9.821851 -0.000002 1.000000 0.000004 0.572563 0.792297
-26.363861 0.000001 -10.048790 -0.000002 1.000000 0.000004 0.572563 0.835735
-26.440075 -0.000000 -9.854134 -0.000002 1.000000 0.000004 0.554186 0.835735
-22.340422 -0.000000 -8.220907 -0.000003 1.000000 0.000008 0.554186 0.790012
-22.257318 0.000002 -8.426526 -0.000003 1.000000 0.000008 0.572563 0.790012
-22.761900 0.000001 -8.625858 -0.000003 1.000000 0.000008 0.572563 0.835694
-22.843920 -0.000000 -8.421492 -0.000003 1.000000 0.000008 0.554186 0.835694
-22.843920 -0.000000 -8.421492 -0.000003 1.000000 0.000007 0.554186 0.792297
-22.761900 0.000001 -8.625858 -0.000003 1.000000 0.000007 0.572563 0.792297
-23.266483 0.000001 -8.825191 -0.000003 1.000000 0.000007 0.572563 0.835735
-23.347418 -0.000000 -8.622076 -0.000003 1.000000 0.000007 0.554186 0.835735
-23.347418 -0.000000 -8.622076 -0.000003 1.000000 0.000007 0.554186 0.792297
-23.266483 0.000001 -8.825191 -0.000003 1.000000 0.000007 0.572563 0.792297
-23.771065 0.000001 -9.024523 -0.000003 1.000000 0.000007 0.572563 0.835735
-23.850916 -0.000000 -8.822660 -0.000003 1.000000 0.000007 0.554186 0.835735
-23.850916 -0.000000 -8.822660 -0.000003 1.000000 0.000006 0.554186 0.792297
-23.771065 0.000001 -9.024523 -0.000003 1.000000 0.000006 0.572563 0.792297
-24.275646 0.000001 -9.223855 -0.000003 1.000000 0.000006 0.572563 0.835735
-24.354414 -0.000000 -9.023245 -0.000003 1.000000 0.000006 0.554186 0.835735
-24.354414 -0.000000 -9.023245 -0.000002 1.000000 0.000006 0.554186 0.792297
-24.275646 0.000001 -9.223855 -0.000002 1.000000 0.000006 0.572563 0.792297
-24.780230 0.000001 -9.423187 -0.000002 1.000000 0.000006 0.572563 0.835735
-24.857912 -0.000000 -9.223829 -0.000002 1.000000 0.000006 0.554186 0.835735
-24.857912 -0.000000 -9.223829 -0.000002 1.000000 0.000005 0.554186 0.792297
-24.780230 0.000001 -9.423187 -0.000002 1.000000 0.000005 0.572563 0.792297
-25.284813 0.000001 -9.622519 -0.000002 1.000000 0.000005 0.572563 0.835735
-25.361410 -0.000000 -9.424414 -0.000002 1.000000 0.000005 0.554186 0.835735
-26.440075 -0.000000 -9.854134 -0.000002 1.000000 0.000004 0.554186 0.792297
-26.363861 0.000001 -10.048790 -0.000002 1.000000 0.000004 0.572563 0.792297
-26.919060 0.000000 -10.268118 -0.000002 1.000000 0.000004 0.572563 0.835735
-26.994484 -0.000000 -10.075001 -0.000002 1.000000 0.000004 0.554186 0.835735
-29.762589 -0.000000 -11.177763 -0.000000 1.000000 0.000000 0.554186 0.792314
-29.685823 -0.000000 -11.361111 -0.000000 1.000000 0.000000 0.572563 0.792314
-30.598053 -0.000001 -11.721481 -0.000000 1.000000 0.000000 0.572563 0.835435
-30.494293 -0.000001 -11.469261 -0.000000 1.000000 0.000000 0.554186 0.825951
-26.994484 -0.000000 -10.075001 -0.000001 1.000000 0.000003 0.554186 0.792297
-26.919060 0.000000 -10.268118 -0.000001 1.000000 0.000003 0.572563 0.792297
-27.488609 0.000000 -10.493114 -0.000001 1.000000 0.000003 0.572563 0.835735
-27.567474 -0.000000 -10.303269 -0.000001 1.000000 0.000003 0.554186 0.835735
-27.567474 -0.000000 -10.303269 -0.000001 1.000000 0.000003 0.554186 0.792297
-27.488609 0.000000 -10.493114 -0.000001 1.000000 0.000003 0.572563 0.792297
-28.213770 0.000000 -10.779585 -0.000001 1.000000 0.000003 0.572563 0.835735
-28.299179 -0.000000 -10.594768 -0.000001 1.000000 0.000003 0.554186 0.835735
-28.299179 -0.000000 -10.594768 -0.000001 1.000000 0.000002 0.554186 0.792297
-28.213770 0.000000 -10.779585 -0.000001 1.000000 0.000002 0.572563 0.792297
-28.963463 -0.000000 -11.075746 -0.000001 1.000000 0.000002 0.572563 0.835735
-29.030884 -0.000000 -10.886266 -0.000001 1.000000 0.000002 0.554186 0.835735
-29.030884 -0.000000 -10.886266 -0.000001 1.000000 0.000001 0.554186 0.792297
-28.963463 -0.000000 -11.075746 -0.000001 1.000000 0.000001 0.572563 0.792297
-29.685823 -0.000000 -11.361111 -0.000001 1.000000 0.000001 0.572563 0.835735
-29.762589 -0.000000 -11.177763 -0.000001 1.000000 0.000001 0.554186 0.835735
-30.809143 -0.000001 -12.160439 0.000051 1.000000 0.000050 0.740234 0.830991
-30.819691 -0.000001 -12.149615 0.000051 1.000000 0.000050 0.740250 0.831008
-30.256704 -0.000041 -11.924812 0.000051 1.000000 0.000050 0.739358 0.831364
-30.809143 -0.000001 -12.160439 0.000168 1.000000 -0.000224 0.740234 0.830991
-30.256704 -0.000041 -11.924812 0.000168 1.000000 -0.000224 0.739358 0.831364
-30.445026 -0.000041 -12.066053 0.000168 1.000000 -0.000224 0.739657 0.831140
-30.753052 -0.000001 -12.215416 0.000000 1.000000 -0.000000 0.740145 0.830904
-30.781342 -0.000001 -12.188171 0.000000 1.000000 -0.000000 0.740189 0.830947
-30.809143 -0.000001 -12.160439 0.000000 1.000000 -0.000000 0.740234 0.830991
-30.715485 -0.000001 -12.250168 -0.000000 1.000000 -0.000000 0.740085 0.830849
-30.724304 -0.000001 -12.242157 -0.000000 1.000000 -0.000000 0.740099 0.830861
-30.656311 -0.000001 -12.301819 -0.000000 1.000000 -0.000000 0.739991 0.830767
-30.686127 -0.000001 -12.276260 -0.000000 1.000000 -0.000000 0.740039 0.830807
-30.623093 -0.000001 -12.329334 -0.000000 1.000000 -0.000000 0.739939 0.830723
-30.809143 -0.000001 -12.160439 0.000042 1.000000 0.000261 0.740234 0.830991
-30.445026 -0.000041 -12.066053 0.000042 1.000000 0.000261 0.739657 0.831140
-30.522064 -0.000014 -12.155932 0.000042 1.000000 0.000261 0.739779 0.830998
-30.573425 -0.000014 -12.280052 -0.000083 1.000000 0.000207 0.739860 0.830801
-30.598234 -0.000001 -12.354475 -0.000083 1.000000 0.000207 0.739899 0.830683
-30.608202 -0.000001 -12.358460 -0.000083 1.000000 0.000207 0.739915 0.830677
-30.809143 -0.000001 -12.160439 0.000047 1.000000 -0.000019 0.740234 0.830991
-30.522064 -0.000014 -12.155932 0.000047 1.000000 -0.000019 0.739779 0.830998
-30.573425 -0.000014 -12.280052 0.000047 1.000000 -0.000019 0.739860 0.830801
-30.623093 -0.000001 -12.329334 0.000128 1.000000 0.000141 0.739939 0.830723
-30.809143 -0.000001 -12.160439 0.000128 1.000000 0.000141 0.740234 0.830991
-30.573425 -0.000014 -12.280052 0.000128 1.000000 0.000141 0.739860 0.830801
-30.573425 -0.000014 -12.280052 0.000500 1.000000 -0.000051 0.739860 0.830801
-30.608202 -0.000001 -12.358460 0.000500 1.000000 -0.000051 0.739915 0.830677
-30.607885 -0.000001 -12.355556 0.000500 1.000000 -0.000051 0.739915 0.830682
-30.613190 -0.000001 -12.341061 0.000146 1.000000 0.000123 0.739923 0.830705
-30.623093 -0.000001 -12.329334 0.000146 1.000000 0.000123 0.739939 0.830723
-30.573425 -0.000014 -12.280052 0.000146 1.000000 0.000123 0.739860 0.830801
-30.573425 -0.000014 -12.280052 0.000215 1.000000 0.000078 0.739860 0.830801
-30.607885 -0.000001 -12.355556 0.000215 1.000000 0.000078 0.739915 0.830682
-30.613190 -0.000001 -12.341061 0.000215 1.000000 0.000078 0.739923 0.830705
-24.586227 -0.000000 -9.669899 -0.000000 1.000000 -0.000001 0.573050 0.807997
-24.200851 -0.000000 -9.515455 -0.000000 1.000000 -0.000001 0.573122 0.835615
-24.127758 -0.000000 -9.706974 -0.000000 1.000000 -0.000001 0.554012 0.835414
-24.330154 -0.000000 -9.787872 -0.000000 1.000000 -0.000001 0.553993 0.820915
-23.595198 -0.000000 -9.494109 0.000001 1.000000 -0.000005 0.554551 0.792297
-23.674585 0.000000 -9.304548 0.000001 1.000000 -0.000005 0.572929 0.792297
-23.180460 0.000001 -9.106522 0.000001 1.000000 -0.000005 0.572929 0.835735
-23.096306 -0.000000 -9.294702 0.000001 1.000000 -0.000005 0.554551 0.835735
-24.127758 -0.000000 -9.706974 0.000001 1.000000 -0.000003 0.554551 0.792297
-24.200851 -0.000000 -9.515455 0.000001 1.000000 -0.000003 0.572929 0.792297
-23.674585 0.000000 -9.304548 0.000001 1.000000 -0.000003 0.572929 0.835735
-23.595198 -0.000000 -9.494109 0.000001 1.000000 -0.000003 0.554551 0.835735
-23.096306 -0.000000 -9.294702 0.000002 1.000000 -0.000007 0.554551 0.792297
-23.180460 0.000001 -9.106522 0.000002 1.000000 -0.000007 0.572929 0.792297
-22.655712 0.000001 -8.896223 0.000002 1.000000 -0.000007 0.572929 0.835735
-22.563751 -0.000000 -9.081839 0.000002 1.000000 -0.000007 0.554551 0.835735
-22.563751 -0.000000 -9.081839 0.000003 1.000000 -0.000003 0.554551 0.790012
-22.655712 0.000001 -8.896223 0.000003 1.000000 -0.000003 0.572929 0.790012
-22.198215 -0.000000 -8.711248 0.000003 1.000000 -0.000003 0.572929 0.835694
-22.111893 -0.000000 -8.901230 0.000003 1.000000 -0.000003 0.554551 0.835694
-23.180460 0.000001 -9.106522 -0.000000 1.000000 -0.000001 0.887079 0.230310
-23.266483 0.000001 -8.825191 -0.000000 1.000000 -0.000001 0.879207 0.252753
-22.761900 0.000001 -8.625858 -0.000000 1.000000 -0.000001 0.836797 0.241568
-22.655712 0.000001 -8.896223 -0.000000 1.000000 -0.000001 0.842831 0.218873
-22.111893 -0.000000 -8.901230 -0.000027 1.000000 -0.000012 0.937831 0.265645
-22.198215 -0.000000 -8.711248 -0.000027 1.000000 -0.000012 0.928760 0.269811
-22.257318 0.000002 -8.426526 -0.000027 1.000000 -0.000012 0.915151 0.272693
-22.111893 -0.000000 -8.901230 0.000003 1.000000 -0.000003 0.937831 0.265645
-22.257318 0.000002 -8.426526 0.000003 1.000000 -0.000003 0.915151 0.272693
-22.124245 0.000002 -8.311193 0.000003 1.000000 -0.000003 0.909609 0.266349
-21.912827 -0.000000 -8.820328 0.000000 1.000000 -0.000000 0.933923 0.256138
-21.926971 -0.000000 -8.826828 0.000000 1.000000 -0.000000 0.934236 0.256814
-22.037338 -0.000000 -8.869888 0.000000 1.000000 -0.000000 0.936317 0.262085
-22.037338 -0.000000 -8.869888 0.000001 1.000000 -0.000003 0.936317 0.262085
-22.111893 -0.000000 -8.901230 0.000001 1.000000 -0.000003 0.937831 0.265645
-22.124245 0.000002 -8.311193 0.000001 1.000000 -0.000003 0.909609 0.266349
-22.079887 0.000002 -8.124887 -0.011002 0.999939 0.000158 0.900688 0.264263
-22.078049 -0.000000 -7.984779 -0.011002 0.999939 0.000158 0.893986 0.264202
-22.077652 -0.000000 -7.957153 -0.011002 0.999939 0.000158 0.892664 0.264188
-22.037338 -0.000000 -8.869888 0.000009 1.000000 -0.000002 0.936317 0.262085
-22.124245 0.000002 -8.311193 0.000009 1.000000 -0.000002 0.909609 0.266349
-22.079887 0.000002 -8.124887 0.000009 1.000000 -0.000002 0.900688 0.264263
-21.912827 -0.000000 -8.820328 0.000001 1.000000 -0.000003 0.933923 0.256138
-22.079887 0.000002 -8.124887 0.000001 1.000000 -0.000003 0.900688 0.264263
-22.077652 -0.000000 -7.957153 0.000000 1.000000 -0.000000 0.892664 0.264188
-22.087173 -0.000000 -7.859917 0.000000 1.000000 -0.000000 0.888015 0.264663
-21.458836 -0.000000 -7.718599 0.000000 1.000000 -0.000000 0.881134 0.234633
-21.912827 -0.000000 -8.820328 0.000056 1.000000 0.000011 0.933923 0.256138
-22.079887 0.000002 -8.124887 0.000056 1.000000 0.000011 0.900688 0.264263
-22.077652 -0.000000 -7.957153 0.000056 1.000000 0.000011 0.892664 0.264188
-21.362865 -0.000000 -7.973746 0.000000 1.000000 -0.000000 0.893321 0.229993
-21.365364 -0.000000 -8.662588 0.000000 1.000000 -0.000000 0.926272 0.229981
-21.885117 -0.000000 -8.811836 0.000000 1.000000 -0.000000 0.933511 0.254815
-23.674585 0.000000 -9.304548 0.000000 1.000000 -0.000002 0.882966 0.233720
-23.771065 0.000001 -9.024523 0.000000 1.000000 -0.000002 0.875837 0.256579
-23.266483 0.000001 -8.825191 0.000000 1.000000 -0.000002 0.833427 0.245394
-23.180460 0.000001 -9.106522 0.000000 1.000000 -0.000002 0.841299 0.222951
-24.200851 -0.000000 -9.515455 0.000001 1.000000 -0.000003 0.884472 0.227523
-24.275646 0.000001 -9.223855 0.000001 1.000000 -0.000003 0.875377 0.250097
-23.771065 0.000001 -9.024523 0.000001 1.000000 -0.000003 0.832967 0.238911
-23.674585 0.000000 -9.304548 0.000001 1.000000 -0.000003 0.840096 0.216053
-24.586227 -0.000000 -9.669899 0.000001 1.000000 -0.000004 0.861911 0.225943
-24.780230 0.000001 -9.423187 0.000001 1.000000 -0.000004 0.862730 0.251303
-24.275646 0.000001 -9.223855 0.000001 1.000000 -0.000004 0.820320 0.240118
-24.200851 -0.000000 -9.515455 0.000001 1.000000 -0.000004 0.829415 0.217544
-25.226013 -0.000000 -9.927750 0.000001 1.000000 -0.000004 0.890026 0.236932
-25.284813 0.000001 -9.622519 0.000001 1.000000 -0.000004 0.879236 0.259628
-24.780230 0.000001 -9.423187 0.000001 1.000000 -0.000004 0.836826 0.248442
-24.586227 -0.000000 -9.669899 0.000001 1.000000 -0.000004 0.836008 0.223082
-25.699448 -0.000004 -10.115692 -0.000007 1.000000 0.000007 0.880589 0.252377
-25.226013 -0.000000 -9.927750 -0.000007 1.000000 0.000007 0.840754 0.241942
-25.143801 -0.000000 -10.130260 -0.000007 1.000000 0.000007 0.845099 0.224815
-25.633646 -0.000000 -10.330666 -0.000007 1.000000 0.000007 0.886600 0.235225
-25.789394 0.000001 -9.821851 0.000000 1.000000 -0.000010 0.878776 0.253145
-25.284813 0.000001 -9.622519 0.000000 1.000000 -0.000010 0.836366 0.241960
-25.226013 -0.000000 -9.927750 0.000000 1.000000 -0.000010 0.847156 0.219265
-25.699448 -0.000004 -10.115692 0.000000 1.000000 -0.000010 0.886992 0.229700
-30.598053 -0.000001 -11.721481 0.000041 1.000000 -0.000103 0.887785 0.262923
-29.685823 -0.000000 -11.361111 0.000041 1.000000 -0.000103 0.819771 0.244015
-29.565269 -0.000035 -11.650330 0.000041 1.000000 -0.000103 0.825404 0.222178
-30.256704 -0.000041 -11.924812 0.000051 1.000000 0.000050 0.877014 0.236433
-30.819691 -0.000001 -12.149615 0.000051 1.000000 0.000050 0.919094 0.247964
-30.827820 -0.000001 -12.141273 0.000051 1.000000 0.000050 0.919198 0.248796
-30.598053 -0.000001 -11.721481 0.000042 1.000000 -0.000126 0.887785 0.262923
-29.565269 -0.000035 -11.650330 0.000042 1.000000 -0.000126 0.825404 0.222178
-30.256704 -0.000041 -11.924812 0.000042 1.000000 -0.000126 0.877014 0.236433
-31.166174 -0.000001 -11.945230 0.000002 1.000000 -0.000005 0.930114 0.274738
-31.119781 -0.000001 -11.924583 0.000002 1.000000 -0.000005 0.926554 0.273909
-30.598053 -0.000001 -11.721481 0.000002 1.000000 -0.000005 0.887785 0.262923
-30.734423 -0.000001 -12.408900 -0.000000 1.000000 0.000000 0.925453 0.229377
-30.868534 -0.000001 -12.462497 -0.000000 1.000000 0.000000 0.935479 0.232122
-31.166174 -0.000001 -11.945230 -0.000000 1.000000 0.000000 0.930114 0.274738
-30.792969 -0.000001 -12.332077 0.000007 1.000000 0.000006 0.925480 0.236329
-30.759857 -0.000001 -12.374840 0.000007 1.000000 0.000006 0.925435 0.232437
-30.734423 -0.000001 -12.408900 0.000007 1.000000 0.000006 0.925453 0.229377
-30.832855 -0.000001 -12.282562 0.000000 1.000000 -0.000000 0.925620 0.240903
-30.798889 -0.000001 -12.324631 0.000000 1.000000 -0.000000 0.925496 0.237014
-30.792969 -0.000001 -12.332077 0.000000 1.000000 -0.000000 0.925480 0.236329
-30.903015 -0.000001 -12.200249 0.000000 1.000000 -0.000000 0.926075 0.248674
-30.867584 -0.000001 -12.241096 0.000000 1.000000 -0.000000 0.925814 0.244791
-31.166174 -0.000001 -11.945230 0.000047 1.000000 -0.000119 0.930114 0.274738
-30.598053 -0.000001 -11.721481 0.000047 1.000000 -0.000119 0.887785 0.262923
-30.256704 -0.000041 -11.924812 0.000047 1.000000 -0.000119 0.877014 0.236433
-30.256704 -0.000041 -11.924812 0.000046 1.000000 0.000062 0.877014 0.236433
-30.827820 -0.000001 -12.141273 0.000046 1.000000 0.000062 0.919198 0.248796
-30.837891 -0.000001 -12.133789 0.000046 1.000000 0.000062 0.919452 0.249663
-30.256704 -0.000041 -11.924812 0.000037 1.000000 0.000087 0.877014 0.236433
-30.837891 -0.000001 -12.133789 0.000037 1.000000 0.000087 0.919452 0.249663
-30.849426 -0.000001 -12.128853 0.000037 1.000000 0.000087 0.919900 0.250447
-30.907217 -0.000001 -12.189774 -0.000000 1.000000 -0.000000 0.925862 0.249458
-31.166174 -0.000001 -11.945230 0.000042 1.000000 0.000073 0.930114 0.274738
-30.256704 -0.000041 -11.924812 0.000042 1.000000 0.000073 0.877014 0.236433
-30.849426 -0.000001 -12.128853 0.000042 1.000000 0.000073 0.919900 0.250447
-30.849426 -0.000001 -12.128853 0.000000 1.000000 0.000000 0.919900 0.250447
-30.861893 -0.000001 -12.127411 0.000000 1.000000 0.000000 0.920553 0.251071
-30.909348 -0.000001 -12.169189 -0.000000 1.000000 -0.000000 0.925091 0.250732
-30.906311 -0.000001 -12.157021 -0.000000 1.000000 -0.000000 0.924388 0.251299
-30.874329 -0.000001 -12.128891 -0.000000 1.000000 0.000000 0.921331 0.251526
-30.885864 -0.000001 -12.133888 -0.000000 1.000000 -0.000000 0.922210 0.251740
-30.898560 -0.000001 -12.144623 -0.000000 1.000000 -0.000000 0.923405 0.251674
-30.445026 -0.000041 -12.066053 -0.000017 1.000000 0.000023 0.905374 0.251582
-30.256704 -0.000041 -11.924812 -0.000017 1.000000 0.000023 0.886344 0.251761
-29.565269 -0.000035 -11.650330 -0.000017 1.000000 0.000023 0.828166 0.236521
-29.565269 -0.000035 -11.650330 -0.000048 1.000000 0.000120 0.828166 0.236521
-29.462418 -0.000001 -11.897084 -0.000048 1.000000 0.000120 0.833286 0.215524
-30.337124 -0.000001 -12.250088 -0.000048 1.000000 0.000120 0.907161 0.234428
-30.337124 -0.000001 -12.250088 -0.000083 1.000000 0.000207 0.907161 0.234428
-30.598234 -0.000001 -12.354475 -0.000083 1.000000 0.000207 0.929166 0.240136
-30.573425 -0.000014 -12.280052 -0.000083 1.000000 0.000207 0.923986 0.243795
-30.573425 -0.000014 -12.280052 0.000670 1.000000 -0.000277 0.923986 0.243795
-30.522064 -0.000014 -12.155932 0.000670 1.000000 -0.000277 0.914696 0.249418
-30.445026 -0.000041 -12.066053 0.000670 1.000000 -0.000277 0.905374 0.251582
-30.445026 -0.000041 -12.066053 -0.000085 1.000000 0.000168 0.905374 0.251582
-29.565269 -0.000035 -11.650330 -0.000085 1.000000 0.000168 0.828166 0.236521
-30.337124 -0.000001 -12.250088 -0.000085 1.000000 0.000168 0.907161 0.234428
-30.337124 -0.000001 -12.250088 -0.000078 1.000000 0.000172 0.907161 0.234428
-30.573425 -0.000014 -12.280052 -0.000078 1.000000 0.000172 0.923986 0.243795
-30.445026 -0.000041 -12.066053 -0.000078 1.000000 0.000172 0.905374 0.251582
-29.565269 -0.000035 -11.650330 -0.000048 1.000000 0.000110 0.890014 0.253982
-28.854090 -0.000029 -11.368009 -0.000048 1.000000 0.000110 0.830174 0.238306
-28.763157 -0.000001 -11.611003 -0.000048 1.000000 0.000110 0.835890 0.218125
-29.462418 -0.000001 -11.897084 -0.000048 1.000000 0.000110 0.895134 0.232985
-29.685823 -0.000000 -11.361111 0.000034 1.000000 -0.000097 0.890416 0.255914
-28.963463 -0.000000 -11.075746 0.000034 1.000000 -0.000097 0.829702 0.239901
-28.854090 -0.000029 -11.368009 0.000034 1.000000 -0.000097 0.836577 0.215628
-29.565269 -0.000035 -11.650330 0.000034 1.000000 -0.000097 0.896416 0.231304
-28.854090 -0.000029 -11.368009 -0.000041 1.000000 0.000093 0.893054 0.256058
-28.112343 -0.000023 -11.073553 -0.000041 1.000000 0.000093 0.830642 0.239708
-28.030348 -0.000000 -11.311198 -0.000041 1.000000 0.000093 0.836684 0.220304
-28.763157 -0.000001 -11.611003 -0.000041 1.000000 0.000093 0.898770 0.235877
-28.963463 -0.000000 -11.075746 0.000028 1.000000 -0.000080 0.892581 0.257653
-28.213770 0.000000 -10.779585 0.000028 1.000000 -0.000080 0.829570 0.241034
-28.112343 -0.000023 -11.073553 0.000028 1.000000 -0.000080 0.837044 0.217031
-28.854090 -0.000029 -11.368009 0.000028 1.000000 -0.000080 0.899456 0.233380
-28.112343 -0.000023 -11.073553 -0.000034 1.000000 0.000074 0.887336 0.255714
-27.388113 -0.000018 -10.786051 -0.000034 1.000000 0.000074 0.826398 0.239751
-27.309172 -0.000000 -11.016151 -0.000034 1.000000 0.000074 0.832278 0.220984
-28.030348 -0.000000 -11.311198 -0.000034 1.000000 0.000074 0.893378 0.236310
-28.213770 0.000000 -10.779585 0.000021 1.000000 -0.000063 0.886265 0.257040
-27.488609 0.000000 -10.493114 0.000021 1.000000 -0.000063 0.825315 0.240965
-27.388113 -0.000018 -10.786051 0.000021 1.000000 -0.000063 0.832801 0.217073
-28.112343 -0.000023 -11.073553 0.000021 1.000000 -0.000063 0.893739 0.233036
-27.388113 -0.000018 -10.786051 -0.000027 1.000000 0.000057 0.878970 0.254593
-26.818001 -0.000013 -10.559730 -0.000027 1.000000 0.000057 0.830999 0.242027
-26.740456 -0.000000 -10.783480 -0.000027 1.000000 0.000057 0.836666 0.223740
-27.309172 -0.000000 -11.016151 -0.000027 1.000000 0.000057 0.884849 0.235826
-27.488609 0.000000 -10.493114 0.000015 1.000000 -0.000049 0.877887 0.255807
-26.919060 0.000000 -10.268118 0.000015 1.000000 -0.000049 0.830016 0.243181
-26.818001 -0.000013 -10.559730 0.000015 1.000000 -0.000049 0.837402 0.219349
-27.388113 -0.000018 -10.786051 0.000015 1.000000 -0.000049 0.885372 0.231915
-26.818001 -0.000013 -10.559730 -0.000020 1.000000 0.000040 0.886057 0.252005
-26.257156 -0.000009 -10.337089 -0.000020 1.000000 0.000040 0.838866 0.239643
-26.177223 -0.000000 -10.553052 -0.000020 1.000000 0.000040 0.844004 0.221749
-26.740456 -0.000000 -10.783480 -0.000020 1.000000 0.000040 0.891723 0.233719
-26.919060 0.000000 -10.268118 0.000010 1.000000 -0.000036 0.885074 0.253160
-26.363861 0.000001 -10.048790 0.000010 1.000000 -0.000036 0.838410 0.240853
-26.257156 -0.000009 -10.337089 0.000010 1.000000 -0.000036 0.845268 0.216965
-26.818001 -0.000013 -10.559730 0.000010 1.000000 -0.000036 0.892459 0.229327
-26.257156 -0.000009 -10.337089 -0.000013 1.000000 0.000023 0.881736 0.257311
-25.699448 -0.000004 -10.115692 -0.000013 1.000000 0.000023 0.834809 0.245018
-25.633646 -0.000000 -10.330666 -0.000013 1.000000 0.000023 0.840820 0.227866
-26.177223 -0.000000 -10.553052 -0.000013 1.000000 0.000023 0.886874 0.239417
-26.363861 0.000001 -10.048790 0.000005 1.000000 -0.000023 0.881280 0.258520
-25.789394 0.000001 -9.821851 0.000005 1.000000 -0.000023 0.832996 0.245786
-25.699448 -0.000004 -10.115692 0.000005 1.000000 -0.000023 0.841212 0.222340
-26.257156 -0.000009 -10.337089 0.000005 1.000000 -0.000023 0.888138 0.234633
-21.365364 -0.000000 -8.662588 0.000000 1.000000 -0.000000 0.849630 0.208386
-21.362865 -0.000000 -7.973746 0.000000 1.000000 -0.000000 0.893223 0.220949
-21.310495 -0.000000 -8.191347 0.000000 1.000000 -0.000000 0.878495 0.220348
-21.310495 -0.000000 -8.191347 -0.000002 1.000000 0.000007 0.878495 0.220348
-20.770987 -0.000000 -8.053585 -0.000002 1.000000 0.000007 0.877506 0.257008
-20.709105 0.000002 -8.297747 -0.000002 1.000000 0.000007 0.860924 0.256531
-20.709105 0.000002 -8.297747 0.000002 1.000000 -0.000010 0.860924 0.256531
-20.668583 -0.000000 -8.479750 0.000002 1.000000 -0.000010 0.848664 0.255820
-20.971985 -0.000000 -8.549629 0.000002 1.000000 -0.000010 0.849701 0.235341
-20.971985 -0.000000 -8.549629 0.000000 1.000000 -0.000000 0.849701 0.235341
-21.310495 -0.000000 -8.191347 -0.000004 1.000000 -0.000004 0.878495 0.220348
-20.709105 0.000002 -8.297747 -0.000004 1.000000 -0.000004 0.860924 0.256531
-20.971985 -0.000000 -8.549629 -0.000004 1.000000 -0.000004 0.849701 0.235341
-20.709105 0.000002 -8.297747 -0.000001 1.000000 0.000006 0.889478 0.240250
-20.770987 -0.000000 -8.053585 -0.000001 1.000000 0.000006 0.884108 0.259892
-20.211254 -0.000000 -7.910651 -0.000001 1.000000 0.000006 0.839036 0.247657
-20.133499 0.000001 -8.154684 -0.000001 1.000000 0.000006 0.843285 0.227391
-20.133499 0.000001 -8.154684 -0.000000 1.000000 0.000004 0.886870 0.238583
-20.211254 -0.000000 -7.910651 -0.000000 1.000000 0.000004 0.882621 0.258848
-19.664766 -0.000000 -7.771106 -0.000000 1.000000 0.000004 0.838616 0.246902
-19.569668 0.000000 -8.014547 -0.000000 1.000000 0.000004 0.841621 0.225988
-19.569668 0.000000 -8.014547 0.000000 1.000000 0.000001 0.884915 0.238210
-19.664766 -0.000000 -7.771106 0.000000 1.000000 0.000001 0.881911 0.259125
-19.046515 -0.000000 -7.613236 0.000000 1.000000 0.000001 0.832127 0.245609
-18.984562 -0.000000 -7.869123 0.000000 1.000000 0.000001 0.837959 0.225140
-18.984562 -0.000000 -7.869123 0.000001 1.000000 -0.000001 0.884636 0.237204
-19.046515 -0.000000 -7.613236 0.000001 1.000000 -0.000001 0.878804 0.257674
-18.521875 -0.000000 -7.479268 0.000001 1.000000 -0.000001 0.836559 0.246206
-18.473375 -0.000001 -7.742070 0.000001 1.000000 -0.000001 0.843612 0.225785
-18.473375 -0.000001 -7.742070 0.000001 1.000000 -0.000004 0.887197 0.236977
-18.521875 -0.000000 -7.479268 0.000001 1.000000 -0.000004 0.880144 0.257397
-18.010942 -0.000000 -7.348802 0.000001 1.000000 -0.000004 0.839002 0.246228
-17.934635 -0.000002 -7.608170 0.000001 1.000000 -0.000004 0.843962 0.224942
-17.934635 -0.000002 -7.608170 0.000002 1.000000 -0.000006 0.887257 0.237164
-18.010942 -0.000000 -7.348802 0.000002 1.000000 -0.000006 0.882296 0.258451
-17.479879 -0.000000 -7.213195 0.000002 1.000000 -0.000006 0.839533 0.246842
-17.419464 -0.000002 -7.480127 0.000002 1.000000 -0.000006 0.845913 0.225656
3 0 1 2
3 0 2 3
3 4 5 6
3 7 8 9
3 10 11 12
3 13 14 15
3 16 10 12
3 17 18 19
4 20 21 22 23
4 24 25 26 27
4 28 29 30 31
3 32 33 34
3 35 36 37
3 38 39 40
4 41 42 43 44
4 45 46 47 48
4 49 50 51 52
4 53 54 55 56
4 57 58 59 60
4 61 62 63 64
4 65 66 67 68
4 69 70 71 72
4 73 74 75 76
4 77 78 79 80
4 81 82 83 84
4 85 86 87 88
4 89 90 91 92
4 93 94 95 96
3 97 98 99
3 100 101 102
3 103 104 105
3 103 105 106
3 107 108 109
3 110 111 112
3 113 114 115
3 116 117 118
3 119 120 121
4 122 123 124 125
4 126 127 128 129
4 130 131 132 133
4 134 135 136 137
4 138 139 140 141
4 142 143 144 145
4 146 147 148 149
4 150 151 152 153
4 154 155 156 157
4 158 159 160 161
4 162 163 164 165
4 166 167 168 169
4 170 171 172 173
3 174 175 176
3 177 178 179
3 180 181 182
3 183 184 180
3 185 186 183
3 187 185 183
3 183 180 182
3 188 189 190
3 191 192 193
3 194 195 196
3 187 183 182
3 197 198 199
3 200 201 202
3 203 204 205
3 206 207 208
4 209 210 211 212
4 213 214 215 216
4 217 218 219 220
4 221 222 223 224
4 225 226 227 228
4 229 230 231 232
3 233 234 235
3 236 237 238
3 239 240 241
3 242 243 244
3 245 246 247
3 248 249 250
3 251 242 252
3 253 254 255
3 256 257 258
3 259 260 261
3 261 239 253
3 253 255 259
3 253 259 261
4 262 263 264 265
4 266 267 268 269
4 270 271 272 273
4 274 275 276 277
4 278 279 280 281
4 282 283 284 285
3 286 287 288
3 289 290 291
3 292 293 294
3 295 296 297
3 298 299 300
3 301 302 303
3 304 305 306
3 307 308 304
3 307 304 306
3 306 298 300
3 309 310 311
3 312 313 314
3 315 316 317
3 307 306 300
3 318 307 300
3 319 320 321
3 300 322 323
3 324 318 300
3 325 324 300
3 300 323 326
3 300 326 327
3 328 325 300
3 327 328 300
3 329 330 331
3 332 333 334
3 335 336 337
3 338 339 340
3 341 342 343
3 344 345 346
4 347 348 349 350
4 351 352 353 354
4 355 356 357 358
4 359 360 361 362
4 363 364 365 366
4 367 368 369 370
4 371 372 373 374
4 375 376 377 378
4 379 380 381 382
4 383 384 385 386
4 387 388 389 390
4 391 392 393 394
3 395 396 397
3 398 399 400
3 401 402 403
3 404 395 397
3 405 406 407
4 408 409 410 411
4 412 413 414 415
4 416 417 418 419
4 420 421 422 423
4 424 425 426 427
4 428 429 430 431
