ply
format ascii 1.0
comment Created by Blender 2.78 (sub 0) - www.blender.org, source file: 'soult.blend'
element vertex 86
property float x
property float y
property float z
property float nx
property float ny
property float nz
property float s
property float t
element face 38
property list uchar uint vertex_indices
end_header
-27.490196 -0.000042 -15.921312 0.000033 1.000000 -0.000069 0.706466 0.535657
-28.556629 -0.000046 -16.506971 0.000033 1.000000 -0.000069 0.769075 0.501274
-28.784748 -0.000008 -16.066088 0.000033 1.000000 -0.000069 0.782468 0.527157
-28.784748 -0.000008 -16.066088 0.000010 1.000000 -0.000020 0.782468 0.527157
-28.830814 -0.000006 -15.989474 0.000010 1.000000 -0.000020 0.785173 0.531655
-27.794189 -0.000005 -15.377741 0.000010 1.000000 -0.000020 0.724313 0.567569
-28.784748 -0.000008 -16.066088 0.000031 1.000000 -0.000050 0.782468 0.527157
-27.794189 -0.000005 -15.377741 0.000031 1.000000 -0.000050 0.724313 0.567569
-27.490196 -0.000042 -15.921312 0.000031 1.000000 -0.000050 0.706466 0.535657
-17.952293 -0.000000 -11.069868 -0.000000 1.000000 -0.000000 0.703090 0.837385
-18.325792 -0.000000 -11.229971 -0.000000 1.000000 -0.000000 0.719449 0.839129
-18.796110 -0.000000 -10.425659 -0.000000 1.000000 -0.000000 0.720384 0.879430
-18.386251 -0.000000 -10.247392 -0.000000 1.000000 -0.000000 0.702382 0.877614
-17.663149 -0.000000 -9.989522 -0.000000 1.000000 -0.000000 0.671728 0.872263
-17.380608 -0.000000 -9.909453 0.000000 0.000000 0.000000 0.660155 0.869389
-16.889482 -0.000000 -10.722191 0.000000 0.000000 0.000000 0.658647 0.828335
-16.889482 -0.000000 -10.722191 0.000000 0.000000 0.000000 0.658647 0.828335
-17.227160 -0.000000 -10.815798 -0.000000 1.000000 -0.000000 0.672438 0.831849
-17.380608 -0.000000 -9.909453 -0.000000 1.000000 -0.000000 0.660155 0.869389
-16.889482 -0.000000 -10.722191 -0.000000 1.000000 -0.000000 0.658647 0.828335
-15.604338 -0.000000 -10.014273 0.000000 1.000000 -0.000000 0.638111 0.838110
-15.729555 -0.000000 -10.083248 0.000000 1.000000 -0.000000 0.642825 0.838114
-16.038010 -0.000000 -9.496596 0.000000 1.000000 -0.000000 0.642382 0.858174
-15.636976 -0.000000 -9.353541 0.000000 1.000000 -0.000000 0.628525 0.856099
-15.027130 -0.000000 -9.097550 0.000000 1.000000 -0.000000 0.606841 0.853963
-14.743088 -0.000000 -9.665253 0.000000 1.000000 -0.000000 0.607687 0.834762
-15.392548 -0.000000 -9.897609 0.000000 1.000000 -0.000000 0.630138 0.838104
-15.076920 -0.000000 -9.760559 0.000000 1.000000 -0.000000 0.618843 0.837119
-15.174628 -0.000000 -9.798629 0.000000 1.000000 -0.000000 0.622270 0.837540
-16.612337 -0.000000 -10.569526 -0.000000 1.000000 -0.000000 0.703756 0.828323
-16.889482 -0.000000 -10.722191 -0.000000 1.000000 -0.000000 0.718132 0.828335
-17.380608 -0.000000 -9.909453 -0.000000 1.000000 -0.000000 0.719825 0.869389
-17.010216 -0.000000 -9.804489 -0.000000 1.000000 -0.000000 0.702787 0.865622
-15.729555 -0.000000 -10.083248 -0.000001 1.000000 0.000003 0.657964 0.828287
-16.032742 -0.000000 -10.250257 -0.000001 1.000000 0.000003 0.673691 0.828299
-16.133331 -0.000000 -10.304138 -0.000001 1.000000 0.000003 0.678875 0.828361
-16.133331 -0.000000 -10.304138 0.000000 1.000000 -0.000000 0.678875 0.828361
-16.359085 -0.000000 -9.611130 -0.000000 1.000000 -0.000000 0.672640 0.859332
-16.038010 -0.000000 -9.496596 -0.000000 1.000000 -0.000000 0.657353 0.856958
-15.729555 -0.000000 -10.083248 -0.000000 1.000000 -0.000000 0.657964 0.828287
-18.993301 -0.000000 -10.511428 0.000000 1.000000 -0.000000 0.718807 0.880304
-18.796110 -0.000000 -10.425659 0.000000 1.000000 -0.000000 0.708715 0.879430
-18.325792 -0.000000 -11.229971 0.000000 1.000000 -0.000000 0.707626 0.839129
-18.556236 -0.000000 -11.328753 -0.000000 1.000000 -0.000000 0.719386 0.840205
-18.685928 -0.000000 -11.086223 -0.000000 1.000000 -0.000000 0.719214 0.852104
-19.809692 -0.000006 -11.703366 -0.000000 1.000000 -0.000004 0.719821 0.852221
-20.115429 -0.000001 -11.130222 -0.000000 1.000000 -0.000004 0.719384 0.880324
-18.993301 -0.000000 -10.511428 -0.000000 1.000000 -0.000004 0.658979 0.880304
-18.685928 -0.000000 -11.086223 -0.000000 1.000000 -0.000004 0.659387 0.852104
-20.846436 -0.000011 -12.272720 0.000004 1.000000 -0.000013 0.746582 0.852326
-21.144987 -0.000001 -11.697969 0.000004 1.000000 -0.000013 0.746582 0.879293
-20.867359 -0.000001 -11.544872 0.000004 1.000000 -0.000013 0.723787 0.879288
-20.581738 -0.000009 -12.127355 0.000004 1.000000 -0.000013 0.723787 0.852300
-21.962109 -0.000016 -12.885421 0.000007 1.000000 -0.000017 0.719458 0.852446
-22.279022 -0.000002 -12.323331 0.000007 1.000000 -0.000017 0.719733 0.880364
-21.144987 -0.000001 -11.697969 0.000007 1.000000 -0.000017 0.658688 0.880343
-20.846436 -0.000011 -12.272720 0.000007 1.000000 -0.000017 0.659458 0.852330
-23.091053 -0.000021 -13.505409 0.000010 1.000000 -0.000023 0.719728 0.852564
-23.395222 -0.000003 -12.938857 0.000010 1.000000 -0.000023 0.719376 0.880385
-22.279022 -0.000002 -12.323331 0.000010 1.000000 -0.000023 0.659291 0.880364
-21.962109 -0.000016 -12.885421 0.000010 1.000000 -0.000023 0.659015 0.852446
-24.228292 -0.000026 -14.129953 0.000014 1.000000 -0.000030 0.721368 0.852683
-24.538227 -0.000003 -13.569165 0.000014 1.000000 -0.000030 0.721385 0.880405
-23.395222 -0.000003 -12.938857 0.000014 1.000000 -0.000030 0.659856 0.880385
-23.091053 -0.000021 -13.505409 0.000014 1.000000 -0.000030 0.660208 0.852564
-25.320194 -0.000031 -14.729599 0.000017 1.000000 -0.000036 0.719954 0.852797
-25.625113 -0.000004 -14.168526 0.000017 1.000000 -0.000036 0.719757 0.880425
-24.538227 -0.000003 -13.569165 0.000017 1.000000 -0.000036 0.661250 0.880405
-24.228292 -0.000026 -14.129953 0.000017 1.000000 -0.000036 0.661233 0.852683
-26.421675 -0.000037 -15.334506 0.000021 1.000000 -0.000043 0.721833 0.852912
-26.728939 -0.000004 -14.777228 0.000021 1.000000 -0.000043 0.721820 0.880446
-25.625113 -0.000004 -14.168526 0.000021 1.000000 -0.000043 0.662400 0.880425
-25.320194 -0.000031 -14.729599 0.000021 1.000000 -0.000043 0.662597 0.852797
-26.421675 -0.000037 -15.334506 0.000025 1.000000 -0.000054 0.691403 0.852912
-27.490196 -0.000042 -15.921312 0.000025 1.000000 -0.000054 0.746134 0.853024
-27.794189 -0.000005 -15.377741 0.000025 1.000000 -0.000054 0.746290 0.879970
-27.794189 -0.000005 -15.377741 0.000013 1.000000 -0.000025 0.746290 0.879970
-27.455912 -0.000004 -15.178116 0.000013 1.000000 -0.000025 0.728663 0.880459
-26.728939 -0.000004 -14.777228 0.000013 1.000000 -0.000025 0.691390 0.880446
-27.794189 -0.000005 -15.377741 0.000024 1.000000 -0.000045 0.746290 0.879970
-26.728939 -0.000004 -14.777228 0.000024 1.000000 -0.000045 0.691390 0.880446
-26.421675 -0.000037 -15.334506 0.000024 1.000000 -0.000045 0.691403 0.852912
-20.581738 -0.000009 -12.127355 0.000003 1.000000 -0.000010 0.705205 0.852302
-20.867359 -0.000001 -11.544872 0.000003 1.000000 -0.000010 0.703724 0.880338
-20.115429 -0.000001 -11.130222 0.000003 1.000000 -0.000010 0.663247 0.880324
-19.809692 -0.000006 -11.703366 0.000003 1.000000 -0.000010 0.663685 0.852221
3 0 1 2
3 3 4 5
3 6 7 8
3 9 10 11
3 11 12 13
3 14 15 16
3 17 9 11
3 18 19 17
3 11 13 18
3 17 11 18
3 20 21 22
3 23 24 25
3 20 22 23
3 26 20 23
3 23 25 27
3 28 26 23
3 23 27 28
3 29 30 31
3 29 31 32
3 33 34 35
3 36 29 32
3 37 38 39
3 36 32 37
3 37 39 36
3 40 41 42
3 42 43 44
3 42 44 40
4 45 46 47 48
4 49 50 51 52
4 53 54 55 56
4 57 58 59 60
4 61 62 63 64
4 65 66 67 68
4 69 70 71 72
3 73 74 75
3 76 77 78
3 79 80 81
4 82 83 84 85
