ply
format ascii 1.0
comment Created by Blender 2.78 (sub 0) - www.blender.org, source file: 'soult.blend'
element vertex 31
property float x
property float y
property float z
property float nx
property float ny
property float nz
element face 13
property list uchar uint vertex_indices
end_header
-33.607819 -0.000000 -7.524239 0.000000 1.000000 -0.000000
-31.119781 -0.000001 -11.924583 0.000000 1.000000 -0.000000
-30.827482 -0.000001 -12.446133 0.000000 1.000000 -0.000000
-30.868534 -0.000001 -12.462494 -0.000000 1.000000 -0.000000
-33.766052 -0.000000 -7.426944 -0.000000 1.000000 -0.000000
-34.146904 -0.000000 -6.946395 0.000000 1.000000 -0.000000
-33.890427 -0.000000 -6.724171 0.000000 1.000000 -0.000000
-34.005829 -0.000000 -6.864214 0.000000 1.000000 -0.000000
-34.063446 -0.000000 -6.988060 -0.000000 1.000000 -0.000000
-34.503269 0.000007 -7.288235 0.000067 1.000000 -0.000047
-34.442608 0.000007 -7.202603 0.000067 1.000000 -0.000047
-34.146904 -0.000000 -6.946395 0.000067 1.000000 -0.000047
-34.531807 0.000015 -7.491619 -0.000284 1.000000 0.000077
-34.524666 0.000007 -7.366733 -0.000284 1.000000 0.000077
-34.503269 0.000007 -7.288235 -0.000284 1.000000 0.000077
-34.299522 0.000007 -7.490854 0.000033 1.000000 -0.000038
-34.492809 0.000009 -7.605573 0.000033 1.000000 -0.000038
-34.531807 0.000015 -7.491619 0.000033 1.000000 -0.000038
-34.063732 -0.000000 -7.075988 0.000016 1.000000 0.000009
-33.939068 -0.000000 -7.282522 0.000016 1.000000 0.000009
-34.299522 0.000007 -7.490854 0.000016 1.000000 0.000009
-34.063732 -0.000000 -7.075988 0.000000 1.000000 -0.000000
-34.531807 0.000015 -7.491619 -0.000017 1.000000 0.000040
-34.503269 0.000007 -7.288235 -0.000017 1.000000 0.000040
-34.146904 -0.000000 -6.946395 -0.000017 1.000000 0.000040
-34.063732 -0.000000 -7.075988 0.000033 1.000000 -0.000000
-34.299522 0.000007 -7.490854 0.000033 1.000000 -0.000000
-34.531807 0.000015 -7.491619 0.000033 1.000000 -0.000000
-34.146904 -0.000000 -6.946395 0.000021 1.000000 0.000013
-34.063732 -0.000000 -7.075988 0.000021 1.000000 0.000013
-34.531807 0.000015 -7.491619 0.000021 1.000000 0.000013
3 0 1 2
3 2 3 4
3 2 4 0
3 5 6 7
3 5 7 8
3 9 10 11
3 12 13 14
3 15 16 17
3 18 19 20
3 5 8 21
3 22 23 24
3 25 26 27
3 28 29 30
