ply
format ascii 1.0
comment Created by Blender 2.78 (sub 0) - www.blender.org, source file: 'soult.blend'
element vertex 68
property float x
property float y
property float z
property float nx
property float ny
property float nz
property float s
property float t
element face 58
property list uchar uint vertex_indices
end_header
-12.588280 -0.000000 -9.346069 0.000000 1.000000 -0.000000 0.858545 0.354405
-12.575886 -0.000000 -9.376068 0.000000 1.000000 -0.000000 0.858112 0.356382
-12.574539 -0.000000 -9.408501 0.000000 1.000000 -0.000000 0.857027 0.358091
-12.587173 -0.000000 -9.434896 -0.000000 1.000000 -0.000000 0.855441 0.358993
-12.619659 -0.000000 -9.461166 -0.000000 1.000000 -0.000000 0.852842 0.359182
-12.664368 -0.000000 -9.464470 -0.000000 1.000000 -0.000000 0.850435 0.357760
-12.694359 -0.000000 -9.452049 -0.000000 1.000000 -0.000000 0.849341 0.356057
-12.769974 -0.000000 -9.407665 0.000000 1.000000 -0.000000 0.847048 0.351093
-13.125674 -0.000000 -8.736328 -0.000000 1.000000 -0.000000 0.852725 0.304052
-13.083519 -0.000000 -8.761002 -0.000000 1.000000 -0.000000 0.854006 0.306816
-13.247816 -0.000000 -8.760567 0.000000 1.000000 -0.000000 0.845607 0.300946
-13.183615 -0.000000 -8.730101 0.000000 1.000000 -0.000000 0.849979 0.301671
-13.336273 -0.000000 -8.881706 -0.000000 1.000000 -0.000000 0.836765 0.304002
-13.282532 -0.000000 -8.798050 -0.000000 1.000000 -0.000000 0.842495 0.301630
-13.411507 -0.000000 -9.045448 -0.000000 1.000000 -0.000000 0.827085 0.309710
-13.375155 -0.000000 -8.962015 -0.000000 1.000000 -0.000000 0.831916 0.306731
-13.411265 -0.000000 -9.109198 -0.000000 1.000000 -0.000000 0.824828 0.312983
-13.417437 -0.000000 -9.070210 -0.000000 1.000000 -0.000000 0.825900 0.310767
-13.369942 -0.000000 -9.144920 -0.000000 1.000000 -0.000000 0.825673 0.316284
-13.391272 -0.000000 -9.132884 -0.000000 1.000000 -0.000000 0.825009 0.314908
-13.195964 -0.000000 -9.207428 0.000000 1.000000 -0.000000 0.832358 0.325677
-12.891151 -0.000000 -9.341751 -0.000000 1.000000 -0.000000 0.843188 0.343404
-12.982735 -0.000000 -9.297064 -0.000000 1.000000 -0.000000 0.840088 0.337856
-13.504164 -0.000000 -8.315821 -0.000000 1.000000 -0.000000 0.848307 0.269046
-13.461401 -0.000000 -8.331453 -0.000000 1.000000 -0.000000 0.849941 0.271368
-13.434568 -0.000000 -8.371628 -0.000000 1.000000 -0.000000 0.849885 0.274381
-13.435059 -0.000000 -8.409925 -0.000000 1.000000 -0.000000 0.848497 0.276325
-13.449986 -0.000000 -8.438343 -0.000000 1.000000 -0.000000 0.846721 0.277249
-13.755913 -0.000000 -8.597427 -0.000000 1.000000 -0.000000 0.825392 0.274508
-13.781292 -0.000000 -8.600700 -0.000000 1.000000 -0.000000 0.823976 0.273772
-13.814697 -0.000000 -8.595612 0.000000 1.000000 -0.000000 0.822446 0.272323
-13.827179 -0.000000 -8.588966 0.000000 1.000000 -0.000000 0.822043 0.271538
-13.855537 -0.000000 -8.568069 -0.000000 1.000000 -0.000000 0.821335 0.269459
-13.884573 -0.000000 -8.531858 -0.000000 1.000000 -0.000000 0.821136 0.266571
-13.878845 -0.000000 -8.502930 -0.000000 1.000000 -0.000000 0.822459 0.265293
-13.867340 -0.000000 -8.485344 -0.000000 1.000000 -0.000000 0.823674 0.264802
-13.531609 -0.000000 -8.317970 -0.000000 1.000000 -0.000000 0.846825 0.268179
-14.915146 -0.000000 -9.065293 0.000000 1.000000 -0.000000 0.749372 0.257211
-14.914373 -0.000000 -9.044677 0.000000 1.000000 -0.000000 0.750146 0.256183
-14.850555 -0.000000 -8.985906 0.000000 1.000000 -0.000000 0.755506 0.255444
-14.356110 -0.000000 -8.729805 0.000000 1.000000 -0.000000 0.789943 0.259926
-14.315654 -0.000000 -8.727443 0.000000 1.000000 -0.000000 0.792098 0.261245
-14.263362 -0.000000 -8.743973 0.000000 1.000000 -0.000000 0.794188 0.263952
-13.943176 -0.000000 -8.951576 0.000000 1.000000 -0.000000 0.803197 0.285980
-13.927843 -0.000000 -8.969109 0.000000 1.000000 -0.000000 0.803358 0.287424
-13.921350 -0.000000 -9.005371 0.000000 1.000000 -0.000000 0.802400 0.289512
-13.949255 -0.000000 -9.044123 0.000000 1.000000 -0.000000 0.799592 0.290503
-13.979149 -0.000000 -9.058113 0.000000 1.000000 -0.000000 0.797563 0.290156
-14.111685 -0.000000 -9.053801 -0.000000 1.000000 -0.000000 0.790929 0.285218
-14.886597 -0.000000 -9.106850 -0.000000 1.000000 -0.000000 0.749355 0.260355
-14.904547 -0.000000 -9.088590 -0.000000 1.000000 -0.000000 0.749086 0.258781
-14.658745 -0.000000 -9.083830 0.000000 1.000000 -0.000001 0.761844 0.267286
-14.862934 -0.000000 -9.113842 0.000000 1.000000 -0.000001 0.750318 0.261555
-14.886597 -0.000000 -9.106850 0.000000 1.000000 -0.000001 0.749355 0.260355
-14.377312 -0.000000 -9.056833 0.000000 1.000000 -0.000000 0.777218 0.275919
-14.658745 -0.000000 -9.083830 0.000000 1.000000 0.000000 0.761844 0.267286
-13.814283 -0.000000 -9.638521 0.000000 -1.000000 -0.000000 0.000000 0.000000
-14.081440 -0.000000 -9.608277 0.000000 -1.000000 -0.000000 0.000000 0.000000
-14.278027 -0.000000 -9.608277 0.000000 -1.000000 -0.000000 0.000000 0.000000
-14.605672 -0.000000 -9.643562 -0.000000 -1.000000 0.000000 0.000000 0.000000
-14.761933 -0.000000 -9.673806 -0.000000 -1.000000 0.000000 0.000000 0.000000
-15.114782 -0.000000 -9.769579 0.000000 -1.000000 0.000000 0.000000 0.000000
-16.929432 -0.000000 -10.737392 0.000000 -1.000000 0.000000 0.000000 0.000000
-16.415281 -0.000000 -10.596253 -0.000000 -1.000000 0.000000 0.000000 0.000000
-16.032188 -0.000000 -10.475277 -0.000000 -1.000000 0.000000 0.000000 0.000000
-15.568444 -0.000000 -10.319016 0.000000 -1.000000 0.000000 0.000000 0.000000
-15.034131 -0.000000 -10.122429 0.000000 -1.000000 0.000000 0.000000 0.000000
-14.560306 -0.000000 -9.920801 0.000000 -1.000000 -0.000000 0.000000 0.000000
3 0 1 2
3 2 3 4
3 4 5 6
3 4 6 7
3 0 2 4
3 8 9 0
3 10 11 8
3 12 13 10
3 14 15 12
3 16 17 14
3 18 19 16
3 20 18 16
3 16 14 12
3 12 10 8
3 8 0 4
3 4 7 21
3 22 20 16
3 4 21 22
3 12 8 4
3 22 16 12
3 4 22 12
3 23 24 25
3 25 26 27
3 27 28 29
3 29 30 31
3 31 32 33
3 33 34 35
3 35 36 23
3 23 25 27
3 27 29 31
3 31 33 35
3 35 23 27
3 27 31 35
3 37 38 39
3 39 40 41
3 41 42 43
3 43 44 45
3 45 46 47
3 45 47 48
3 41 43 45
3 37 39 41
3 49 50 37
3 51 52 53
3 45 48 54
3 55 49 37
3 45 54 55
3 37 41 45
3 45 55 37
3 56 57 58
3 58 59 60
3 60 61 62
3 62 63 64
3 64 65 66
3 67 56 58
3 64 66 67
3 60 62 64
3 67 58 60
3 60 64 67
