ply
format ascii 1.0
comment Created by Blender 2.78 (sub 0) - www.blender.org, source file: 'soult.blend'
element vertex 47
property float x
property float y
property float z
property float nx
property float ny
property float nz
property float s
property float t
element face 17
property list uchar uint vertex_indices
end_header
-31.244589 -0.000001 -11.703851 0.000000 1.000000 -0.000000 0.866577 0.252362
-31.119781 -0.000001 -11.924583 0.000000 1.000000 -0.000000 0.854408 0.230839
-30.827482 -0.000001 -12.446133 0.000000 1.000000 -0.000000 0.825908 0.179986
-30.868534 -0.000001 -12.462494 -0.000000 1.000000 -0.000000 0.829910 0.178391
-31.292095 -0.000001 -11.726395 -0.000000 1.000000 -0.000000 0.871209 0.250163
-34.146904 -0.000000 -6.946395 0.000000 1.000000 -0.000000 0.751125 0.574628
-33.890427 -0.000000 -6.724171 0.000000 1.000000 -0.000000 0.726117 0.596295
-34.005829 -0.000000 -6.864214 0.000000 1.000000 -0.000000 0.737370 0.582641
-34.063446 -0.000000 -6.988060 -0.000000 1.000000 -0.000000 0.742988 0.570565
-34.503269 0.000007 -7.288235 0.000067 1.000000 -0.000047 0.785872 0.541297
-34.442608 0.000007 -7.202603 0.000067 1.000000 -0.000047 0.779957 0.549647
-34.146904 -0.000000 -6.946395 0.000067 1.000000 -0.000047 0.751125 0.574628
-34.531807 0.000015 -7.491619 -0.000284 1.000000 0.000077 0.788654 0.521467
-34.524666 0.000007 -7.366733 -0.000284 1.000000 0.000077 0.787958 0.533643
-34.503269 0.000007 -7.288235 -0.000284 1.000000 0.000077 0.785872 0.541297
-34.299522 0.000007 -7.490854 0.000033 1.000000 -0.000038 0.766006 0.521541
-34.492809 0.000009 -7.605573 0.000033 1.000000 -0.000038 0.784852 0.510356
-34.531807 0.000015 -7.491619 0.000033 1.000000 -0.000038 0.788654 0.521467
-34.063732 -0.000000 -7.075988 0.000016 1.000000 0.000009 0.743015 0.561992
-33.939068 -0.000000 -7.282522 0.000016 1.000000 0.000009 0.730860 0.541854
-34.299522 0.000007 -7.490854 0.000016 1.000000 0.000009 0.766006 0.521541
-34.063732 -0.000000 -7.075988 0.000000 1.000000 -0.000000 0.743015 0.561992
-34.531807 0.000015 -7.491619 -0.000017 1.000000 0.000040 0.788654 0.521467
-34.503269 0.000007 -7.288235 -0.000017 1.000000 0.000040 0.785872 0.541297
-34.146904 -0.000000 -6.946395 -0.000017 1.000000 0.000040 0.751125 0.574628
-34.063732 -0.000000 -7.075988 0.000033 1.000000 -0.000000 0.743015 0.561992
-34.299522 0.000007 -7.490854 0.000033 1.000000 -0.000000 0.766006 0.521541
-34.531807 0.000015 -7.491619 0.000033 1.000000 -0.000000 0.788654 0.521467
-34.146904 -0.000000 -6.946395 0.000021 1.000000 0.000013 0.751125 0.574628
-34.063732 -0.000000 -7.075988 0.000021 1.000000 0.000013 0.743015 0.561992
-34.531807 0.000015 -7.491619 0.000021 1.000000 0.000013 0.788654 0.521467
-33.239414 -0.000000 -8.175798 -0.000000 1.000000 -0.000000 0.703657 0.520186
-33.310196 -0.000000 -8.219170 -0.000000 1.000000 -0.000000 0.710559 0.515958
-33.766052 -0.000000 -7.426944 -0.000000 1.000000 -0.000000 0.755006 0.593202
-33.607819 -0.000000 -7.524239 -0.000000 1.000000 -0.000000 0.739578 0.583716
-32.674469 -0.000000 -9.174963 -0.000000 1.000000 -0.000000 0.721815 0.503819
-32.738983 -0.000000 -9.211872 -0.000000 1.000000 -0.000000 0.728106 0.500221
-33.310196 -0.000000 -8.219170 -0.000000 1.000000 -0.000000 0.783801 0.597012
-33.239414 -0.000000 -8.175798 -0.000000 1.000000 -0.000000 0.776899 0.601241
-31.244589 -0.000001 -11.703851 0.000000 1.000000 -0.000000 0.817342 0.172070
-31.292095 -0.000001 -11.726395 0.000000 1.000000 -0.000000 0.820753 0.168243
-32.165485 -0.000000 -10.208545 0.000000 1.000000 -0.000000 0.956807 0.271412
-32.102322 -0.000000 -10.186863 0.000000 1.000000 -0.000000 0.951957 0.275757
-32.102322 -0.000000 -10.186863 0.000000 1.000000 -0.000000 0.734388 0.496953
-32.165485 -0.000000 -10.208545 0.000000 1.000000 -0.000000 0.740547 0.494839
-32.738983 -0.000000 -9.211872 0.000000 1.000000 -0.000000 0.796465 0.592017
-32.674469 -0.000000 -9.174963 0.000000 1.000000 -0.000000 0.790175 0.595616
3 0 1 2
3 2 3 4
3 2 4 0
3 5 6 7
3 5 7 8
3 9 10 11
3 12 13 14
3 15 16 17
3 18 19 20
3 5 8 21
3 22 23 24
3 25 26 27
3 28 29 30
4 31 32 33 34
4 35 36 37 38
4 39 40 41 42
4 43 44 45 46
