ply
format ascii 1.0
comment Created by Blender 2.78 (sub 0) - www.blender.org, source file: 'soult.blend'
element vertex 400
property float x
property float y
property float z
property float nx
property float ny
property float nz
property float s
property float t
element face 145
property list uchar uint vertex_indices
end_header
-18.751884 -0.000001 -12.082531 0.000000 1.000000 -0.000000 0.835377 0.610065
-18.735958 -0.000001 -12.078197 0.000000 1.000000 -0.000000 0.836518 0.610258
-19.351465 -0.000001 -12.493242 0.000000 1.000000 -0.000000 0.794809 0.628806
-19.963806 -0.000001 -12.906153 -0.000000 1.000000 -0.000000 0.753316 0.647259
-20.010569 -0.000001 -12.773006 -0.000000 1.000000 -0.000000 0.748556 0.631364
-20.010569 -0.000001 -12.773006 -0.000001 1.000000 -0.000002 0.748556 0.631364
-19.811771 -0.000000 -12.520230 -0.000001 1.000000 -0.000002 0.760881 0.612897
-19.774031 -0.000000 -12.535863 -0.000001 1.000000 -0.000002 0.763835 0.616077
-19.736288 -0.000000 -12.520230 0.000001 1.000000 -0.000000 0.766487 0.615971
-19.720655 -0.000000 -12.482489 0.000001 1.000000 -0.000000 0.767284 0.612642
-18.910828 -0.000001 -11.892204 0.000001 1.000000 -0.000000 0.821733 0.583593
-20.010569 -0.000001 -12.773006 0.000002 1.000000 -0.000005 0.748556 0.631364
-19.774031 -0.000000 -12.535863 0.000002 1.000000 -0.000005 0.763835 0.616077
-19.736288 -0.000000 -12.520230 0.000002 1.000000 -0.000005 0.766487 0.615971
-18.804047 -0.000001 -12.078175 -0.000000 1.000000 -0.000000 0.831461 0.607483
-20.010569 -0.000001 -12.773006 0.000016 1.000000 -0.000020 0.748556 0.631364
-19.736288 -0.000000 -12.520230 0.000016 1.000000 -0.000020 0.766487 0.615971
-18.910828 -0.000001 -11.892204 0.000016 1.000000 -0.000020 0.821733 0.583593
-18.910828 -0.000001 -11.892204 -0.000000 1.000000 -0.000000 0.821733 0.583593
-18.909290 -0.000001 -11.969631 -0.000000 1.000000 -0.000000 0.822595 0.591791
-18.851562 -0.000001 -12.056240 -0.000000 1.000000 -0.000000 0.827719 0.603243
-18.888710 -0.000001 -12.019382 -0.000000 1.000000 -0.000000 0.824604 0.597857
-13.560364 -0.000000 -9.706429 -0.000000 1.000000 -0.000000 0.749115 0.552658
-13.577530 -0.000000 -9.933540 -0.000000 1.000000 -0.000000 0.764014 0.550201
-13.889236 -0.000000 -10.000381 -0.000000 1.000000 -0.000000 0.773210 0.569231
-13.879494 -0.000000 -9.980040 0.000000 1.000000 -0.000000 0.771747 0.568922
-13.872158 -0.000000 -9.861916 -0.000000 1.000000 -0.000000 0.764022 0.570303
-13.860168 -0.000000 -9.657035 0.000000 1.000000 -0.000000 0.750637 0.572745
-13.626974 -0.000000 -9.579306 0.000000 1.000000 -0.000000 0.741971 0.558943
-13.297442 -0.000000 -9.562407 -0.000000 1.000000 0.000000 0.735713 0.537980
-12.925745 -0.000000 -9.646208 -0.000000 1.000000 0.000000 0.735279 0.512722
-13.267250 -0.000000 -9.852661 0.000000 1.000000 -0.000000 0.753936 0.531482
-13.285917 -0.000000 -9.797937 0.000000 1.000000 -0.000000 0.750704 0.533543
-13.313766 -0.000000 -9.773613 0.000000 1.000000 -0.000000 0.749574 0.535718
-13.549042 -0.000000 -9.700706 -0.000000 1.000000 -0.000000 0.748568 0.552018
-13.364077 -0.000000 -9.933280 0.000002 1.000000 -0.000005 0.734414 0.520785
-13.573351 -0.000001 -10.075513 0.000002 1.000000 -0.000005 0.746859 0.532035
-13.573711 -0.000000 -10.017752 0.000002 1.000000 -0.000005 0.743147 0.532968
-13.573711 -0.000000 -10.017752 -0.000000 1.000000 -0.000000 0.743147 0.532968
-13.889236 -0.000000 -10.000381 -0.000000 1.000000 -0.000000 0.746976 0.553562
-13.577530 -0.000000 -9.933540 -0.000000 1.000000 -0.000000 0.737779 0.534532
-13.364077 -0.000000 -9.933280 0.000000 1.000000 -0.000000 0.734414 0.520785
-17.934801 -0.000006 -13.039767 0.000006 1.000000 -0.000010 0.752670 0.523016
-18.331591 -0.000007 -13.309445 0.000006 1.000000 -0.000010 0.773430 0.541780
-18.372919 -0.000005 -13.182272 0.000006 1.000000 -0.000010 0.765887 0.546439
-18.372919 -0.000005 -13.182272 0.000000 1.000000 -0.000000 0.765887 0.546439
-18.395802 -0.000005 -13.029733 0.000000 1.000000 -0.000000 0.756417 0.550304
-18.289179 -0.000005 -12.882950 0.000000 1.000000 -0.000000 0.749307 0.551004
-18.289179 -0.000005 -12.882950 0.000001 1.000000 -0.000004 0.749307 0.551004
-17.855795 -0.000005 -12.603408 0.000001 1.000000 -0.000004 0.728978 0.531720
-17.934801 -0.000006 -13.039767 0.000001 1.000000 -0.000004 0.752670 0.523016
-18.372919 -0.000005 -13.182272 0.000003 1.000000 -0.000001 0.765887 0.546439
-18.289179 -0.000005 -12.882950 0.000003 1.000000 -0.000001 0.749307 0.551004
-17.934801 -0.000006 -13.039767 0.000003 1.000000 -0.000001 0.752670 0.523016
-13.889236 -0.000000 -10.000381 0.000000 1.000000 -0.000003 0.747046 0.648549
-13.573711 -0.000000 -10.017752 0.000000 1.000000 -0.000003 0.735991 0.620969
-13.573351 -0.000001 -10.075513 0.000000 1.000000 -0.000003 0.740895 0.618638
-13.901529 -0.000001 -10.298559 0.000000 1.000000 -0.000003 0.772950 0.637746
-13.889236 -0.000000 -10.000381 0.000023 1.000000 -0.000003 0.733662 0.508601
-13.901529 -0.000001 -10.298559 0.000023 1.000000 -0.000003 0.753062 0.504715
-14.254647 0.000007 -10.288165 0.000023 1.000000 -0.000003 0.757944 0.527637
-14.754203 -0.000000 -10.314116 0.000023 1.000000 0.000033 0.768026 0.560149
-14.760691 0.000003 -10.424408 0.000023 1.000000 0.000033 0.775580 0.559291
-15.090378 -0.000000 -10.083290 0.000023 1.000000 0.000033 0.757847 0.584674
-13.924513 -0.000000 -10.014671 -0.000022 1.000000 0.000055 0.735135 0.510649
-13.889236 -0.000000 -10.000381 -0.000022 1.000000 0.000055 0.733662 0.508601
-14.254647 0.000007 -10.288165 -0.000022 1.000000 0.000055 0.757944 0.527637
-15.021454 -0.000000 -10.067627 -0.000000 1.000000 -0.000000 0.755756 0.580480
-14.653702 -0.000000 -10.049377 -0.000000 1.000000 -0.000000 0.748811 0.557077
-13.924513 -0.000000 -10.014671 -0.000000 1.000000 -0.000000 0.735135 0.510649
-15.090378 -0.000000 -10.083290 0.000000 1.000000 -0.000000 0.757847 0.584674
-15.043723 -0.000000 -10.070930 0.000000 1.000000 -0.000000 0.756319 0.581863
-14.254647 0.000007 -10.288165 -0.000014 1.000000 -0.000021 0.757944 0.527637
-14.754203 -0.000000 -10.314116 -0.000014 1.000000 -0.000021 0.768026 0.560149
-15.090378 -0.000000 -10.083290 -0.000014 1.000000 -0.000021 0.757847 0.584674
-15.021454 -0.000000 -10.067627 -0.000001 1.000000 0.000030 0.755756 0.580480
-13.924513 -0.000000 -10.014671 -0.000001 1.000000 0.000030 0.735135 0.510649
-14.254647 0.000007 -10.288165 -0.000001 1.000000 0.000030 0.757944 0.527637
-14.254647 0.000007 -10.288165 -0.000004 1.000000 0.000019 0.757944 0.527637
-15.090378 -0.000000 -10.083290 -0.000004 1.000000 0.000019 0.757847 0.584674
-15.021454 -0.000000 -10.067627 -0.000004 1.000000 0.000019 0.755756 0.580480
-14.530040 -0.000002 -10.725725 0.000008 1.000000 -0.000013 0.744129 0.522630
-14.830066 -0.000002 -10.929637 0.000008 1.000000 -0.000013 0.760519 0.537445
-14.765563 0.000001 -10.610141 0.000008 1.000000 -0.000013 0.744389 0.544872
-14.734901 0.000001 -10.619641 0.000001 1.000000 -0.000030 0.740510 0.537491
-14.578548 0.000001 -10.612778 0.000001 1.000000 -0.000030 0.737614 0.527525
-14.530040 -0.000002 -10.725725 0.000001 1.000000 -0.000030 0.744129 0.522630
-14.765563 0.000001 -10.610141 -0.000025 1.000000 -0.000080 0.744389 0.544872
-14.734901 0.000001 -10.619641 -0.000025 1.000000 -0.000080 0.740510 0.537491
-14.530040 -0.000002 -10.725725 -0.000025 1.000000 -0.000080 0.744129 0.522630
-15.068892 -0.000003 -11.091955 0.000007 1.000000 -0.000013 0.469853 0.837527
-15.003274 0.000001 -10.763469 0.000007 1.000000 -0.000013 0.469853 0.788945
-14.765563 0.000001 -10.610141 0.000007 1.000000 -0.000013 0.491888 0.788945
-14.830066 -0.000002 -10.929637 0.000007 1.000000 -0.000013 0.491888 0.837527
-17.934801 -0.000006 -13.039767 0.000002 1.000000 -0.000005 0.469853 0.837527
-17.855795 -0.000005 -12.603408 0.000002 1.000000 -0.000005 0.469853 0.788945
-17.618084 -0.000004 -12.450080 0.000002 1.000000 -0.000005 0.491888 0.788945
-17.695974 -0.000006 -12.877450 0.000002 1.000000 -0.000005 0.491888 0.837527
-17.695974 -0.000006 -12.877450 0.000002 1.000000 -0.000005 0.469853 0.837527
-17.618084 -0.000004 -12.450080 0.000002 1.000000 -0.000005 0.469853 0.788945
-17.380373 -0.000004 -12.296752 0.000002 1.000000 -0.000005 0.491888 0.788945
-17.457150 -0.000006 -12.715132 0.000002 1.000000 -0.000005 0.491888 0.837527
-17.457150 -0.000006 -12.715132 0.000002 1.000000 -0.000006 0.469853 0.837527
-17.380373 -0.000004 -12.296752 0.000002 1.000000 -0.000006 0.469853 0.788945
-17.142662 -0.000003 -12.143424 0.000002 1.000000 -0.000006 0.491888 0.788945
-17.218323 -0.000005 -12.552814 0.000002 1.000000 -0.000006 0.491888 0.837527
-17.218323 -0.000005 -12.552814 0.000003 1.000000 -0.000006 0.469853 0.837527
-17.142662 -0.000003 -12.143424 0.000003 1.000000 -0.000006 0.469853 0.788945
-16.904953 -0.000003 -11.990096 0.000003 1.000000 -0.000006 0.491888 0.788945
-16.979498 -0.000005 -12.390497 0.000003 1.000000 -0.000006 0.491888 0.837527
-16.979498 -0.000005 -12.390497 0.000003 1.000000 -0.000007 0.469853 0.837527
-16.904953 -0.000003 -11.990096 0.000003 1.000000 -0.000007 0.469853 0.788945
-16.667242 -0.000002 -11.836768 0.000003 1.000000 -0.000007 0.491888 0.788945
-16.740673 -0.000005 -12.228179 0.000003 1.000000 -0.000007 0.491888 0.837527
-16.740673 -0.000005 -12.228179 0.000003 1.000000 -0.000008 0.469853 0.837527
-16.667242 -0.000002 -11.836768 0.000003 1.000000 -0.000008 0.469853 0.788945
-16.429531 -0.000002 -11.683440 0.000003 1.000000 -0.000008 0.491888 0.788945
-16.501846 -0.000005 -12.065861 0.000003 1.000000 -0.000008 0.491888 0.837527
-16.501846 -0.000005 -12.065861 0.000004 1.000000 -0.000008 0.469853 0.837527
-16.429531 -0.000002 -11.683440 0.000004 1.000000 -0.000008 0.469853 0.788945
-16.191822 -0.000001 -11.530111 0.000004 1.000000 -0.000008 0.491888 0.788945
-16.263020 -0.000004 -11.903543 0.000004 1.000000 -0.000008 0.491888 0.837527
-16.263020 -0.000004 -11.903543 0.000004 1.000000 -0.000009 0.469853 0.837527
-16.191822 -0.000001 -11.530111 0.000004 1.000000 -0.000009 0.469853 0.788945
-15.954114 -0.000001 -11.376782 0.000004 1.000000 -0.000009 0.491888 0.788945
-16.024195 -0.000004 -11.741226 0.000004 1.000000 -0.000009 0.491888 0.837527
-16.024195 -0.000004 -11.741226 0.000005 1.000000 -0.000010 0.469853 0.837527
-15.954114 -0.000001 -11.376782 0.000005 1.000000 -0.000010 0.469853 0.788945
-15.716404 -0.000000 -11.223454 0.000005 1.000000 -0.000010 0.491888 0.788945
-15.785369 -0.000004 -11.578908 0.000005 1.000000 -0.000010 0.491888 0.837527
-15.785369 -0.000004 -11.578908 0.000005 1.000000 -0.000010 0.469853 0.837527
-15.716404 -0.000000 -11.223454 0.000005 1.000000 -0.000010 0.469853 0.788945
-15.478694 0.000000 -11.070127 0.000005 1.000000 -0.000010 0.491888 0.788945
-15.546543 -0.000003 -11.416590 0.000005 1.000000 -0.000010 0.491888 0.837527
-15.546543 -0.000003 -11.416590 0.000006 1.000000 -0.000011 0.469853 0.837527
-15.478694 0.000000 -11.070127 0.000006 1.000000 -0.000011 0.469853 0.788945
-15.240984 0.000001 -10.916798 0.000006 1.000000 -0.000011 0.491888 0.788945
-15.307717 -0.000003 -11.254272 0.000006 1.000000 -0.000011 0.491888 0.837527
-15.307717 -0.000003 -11.254272 0.000006 1.000000 -0.000012 0.469853 0.837527
-15.240984 0.000001 -10.916798 0.000006 1.000000 -0.000012 0.469853 0.788945
-15.003274 0.000001 -10.763469 0.000006 1.000000 -0.000012 0.491888 0.788945
-15.068892 -0.000003 -11.091955 0.000006 1.000000 -0.000012 0.491888 0.837527
-19.174551 -0.000001 -15.153424 -0.000003 1.000000 0.000003 0.469853 0.837527
-18.596077 -0.000000 -14.933622 -0.000003 1.000000 0.000003 0.469853 0.788945
-18.526875 0.000001 -15.128254 -0.000003 1.000000 0.000003 0.491888 0.788945
-19.106766 -0.000001 -15.346431 -0.000003 1.000000 0.000003 0.491888 0.837527
-19.513475 -0.000001 -14.188393 0.000009 1.000000 0.000007 0.469853 0.837527
-18.942087 -0.000008 -13.960461 0.000009 1.000000 0.000007 0.469853 0.788945
-18.872885 -0.000007 -14.155093 0.000009 1.000000 0.000007 0.491888 0.788945
-19.445690 -0.000001 -14.381399 0.000009 1.000000 0.000007 0.491888 0.837527
-19.445690 -0.000001 -14.381399 0.000006 1.000000 0.000006 0.469853 0.837527
-18.872885 -0.000007 -14.155093 0.000006 1.000000 0.000006 0.469853 0.788945
-18.803682 -0.000005 -14.349726 0.000006 1.000000 0.000006 0.491888 0.788945
-19.377907 -0.000001 -14.574405 0.000006 1.000000 0.000006 0.491888 0.837527
-19.377907 -0.000001 -14.574405 0.000004 1.000000 0.000006 0.469853 0.837527
-18.803682 -0.000005 -14.349726 0.000004 1.000000 0.000006 0.469853 0.788945
-18.734480 -0.000003 -14.544357 0.000004 1.000000 0.000006 0.491888 0.788945
-19.310122 -0.000001 -14.767411 0.000004 1.000000 0.000006 0.491888 0.837527
-19.310122 -0.000001 -14.767411 0.000002 1.000000 0.000005 0.469853 0.837527
-18.734480 -0.000003 -14.544357 0.000002 1.000000 0.000005 0.469853 0.788945
-18.665277 -0.000002 -14.738990 0.000002 1.000000 0.000005 0.491888 0.788945
-19.242336 -0.000001 -14.960418 0.000002 1.000000 0.000005 0.491888 0.837527
-19.242336 -0.000001 -14.960418 -0.000001 1.000000 0.000004 0.469853 0.837527
-18.665277 -0.000002 -14.738990 -0.000001 1.000000 0.000004 0.469853 0.788945
-18.596077 -0.000000 -14.933622 -0.000001 1.000000 0.000004 0.491888 0.788945
-19.174551 -0.000001 -15.153424 -0.000001 1.000000 0.000004 0.491888 0.837527
-15.607437 -0.000000 -10.364883 -0.000004 1.000000 0.000007 0.766752 0.567804
-15.090378 -0.000000 -10.083290 -0.000004 1.000000 0.000007 0.740501 0.538914
-14.760691 0.000003 -10.424408 -0.000004 1.000000 0.000007 0.758234 0.513531
-15.194686 0.000000 -10.481747 0.000025 1.000000 -0.000042 0.769469 0.541499
-15.252031 0.000000 -10.516642 0.000025 1.000000 -0.000042 0.772659 0.544697
-15.260512 0.000001 -10.498247 0.000025 1.000000 -0.000042 0.771479 0.545370
-15.607437 -0.000000 -10.364883 -0.000005 1.000000 -0.000010 0.766752 0.567804
-14.760691 0.000003 -10.424408 -0.000005 1.000000 -0.000010 0.758234 0.513531
-15.194686 0.000000 -10.481747 -0.000005 1.000000 -0.000010 0.769469 0.541499
-15.260512 0.000001 -10.498247 -0.000006 1.000000 -0.000001 0.771479 0.545370
-15.445017 0.000000 -10.609505 -0.000006 1.000000 -0.000001 0.781678 0.555679
-15.607437 -0.000000 -10.364883 -0.000006 1.000000 -0.000001 0.766752 0.567804
-15.194686 0.000000 -10.481747 0.000007 1.000000 0.000031 0.769469 0.541499
-15.260512 0.000001 -10.498247 0.000007 1.000000 0.000031 0.771479 0.545370
-15.607437 -0.000000 -10.364883 0.000007 1.000000 0.000031 0.766752 0.567804
-14.254647 0.000007 -10.288165 0.000001 1.000000 -0.000031 0.252066 0.568394
-14.267623 -0.000004 -10.424408 0.000001 1.000000 -0.000031 0.253044 0.551784
-14.760691 0.000003 -10.424408 0.000001 1.000000 -0.000031 0.312950 0.549618
-14.754203 -0.000000 -10.314116 0.000001 1.000000 -0.000031 0.312646 0.563046
-18.735958 -0.000001 -12.078197 0.000004 1.000000 -0.000004 0.730201 0.542741
-18.367874 -0.000004 -12.513460 0.000004 1.000000 -0.000004 0.755331 0.515603
-18.772070 -0.000003 -12.818501 0.000004 1.000000 -0.000004 0.780478 0.535851
-19.351465 -0.000001 -12.493242 0.000004 1.000000 -0.000004 0.766594 0.575879
-17.829395 -0.000004 -12.383707 0.000002 1.000000 -0.000007 0.251810 0.549840
-18.283535 -0.000004 -12.630239 0.000002 1.000000 -0.000007 0.308754 0.550653
-18.367874 -0.000004 -12.513460 0.000002 1.000000 -0.000007 0.310558 0.566426
-17.900761 -0.000002 -12.260439 0.000002 1.000000 -0.000007 0.252016 0.565536
-17.829395 -0.000004 -12.383707 0.000005 1.000000 -0.000013 0.777015 0.569465
-17.900761 -0.000002 -12.260439 0.000005 1.000000 -0.000013 0.770312 0.572948
-17.829227 -0.000001 -12.084894 0.000005 1.000000 -0.000013 0.756688 0.570144
-17.829227 -0.000001 -12.084894 0.000003 1.000000 -0.000005 0.756688 0.570144
-17.117624 -0.000000 -11.651876 0.000003 1.000000 -0.000005 0.717109 0.530460
-16.904953 -0.000003 -11.990096 0.000003 1.000000 -0.000005 0.739602 0.515815
-17.142662 -0.000003 -12.143424 0.529999 0.000000 -0.847998 0.753554 0.529050
-17.380373 -0.000004 -12.296752 0.529999 0.000000 -0.847998 0.767505 0.542284
-17.618084 -0.000004 -12.450080 0.529999 0.000000 -0.847998 0.781457 0.555519
-17.829227 -0.000001 -12.084894 0.000003 1.000000 -0.000008 0.756688 0.570144
-16.904953 -0.000003 -11.990096 0.000003 1.000000 -0.000008 0.739602 0.515815
-17.142662 -0.000003 -12.143424 0.000003 1.000000 -0.000008 0.753554 0.529050
-17.618084 -0.000004 -12.450080 -0.000005 1.000000 -0.000013 0.781457 0.555519
-17.829395 -0.000004 -12.383707 -0.000005 1.000000 -0.000013 0.777015 0.569465
-17.829227 -0.000001 -12.084894 -0.000005 1.000000 -0.000013 0.756688 0.570144
-17.618084 -0.000004 -12.450080 0.000003 1.000000 -0.000008 0.781457 0.555519
-14.734901 0.000001 -10.619641 -0.000003 1.000000 -0.000010 0.769005 0.554445
-14.765563 0.000001 -10.610141 -0.000003 1.000000 -0.000010 0.772883 0.561826
-14.760691 0.000003 -10.424408 -0.000003 1.000000 -0.000010 0.757765 0.560376
-14.267623 -0.000004 -10.424408 0.000021 1.000000 -0.000086 0.749067 0.527369
-14.254647 0.000007 -10.288165 0.000021 1.000000 -0.000086 0.740128 0.528721
-13.901529 -0.000001 -10.298559 0.000021 1.000000 -0.000086 0.735247 0.505799
-14.734901 0.000001 -10.619641 0.000015 1.000000 -0.000008 0.769005 0.554445
-14.760691 0.000003 -10.424408 0.000015 1.000000 -0.000008 0.757765 0.560376
-14.267623 -0.000004 -10.424408 0.000015 1.000000 -0.000008 0.749067 0.527369
-13.901529 -0.000001 -10.298559 0.000015 1.000000 -0.000024 0.735247 0.505799
-14.530040 -0.000002 -10.725725 0.000015 1.000000 -0.000024 0.772624 0.539584
-14.578548 0.000001 -10.612778 0.000015 1.000000 -0.000024 0.766109 0.544479
-14.578548 0.000001 -10.612778 -0.000001 1.000000 0.000033 0.766109 0.544479
-14.734901 0.000001 -10.619641 -0.000001 1.000000 0.000033 0.769005 0.554445
-14.267623 -0.000004 -10.424408 -0.000001 1.000000 0.000033 0.749067 0.527369
-14.267623 -0.000004 -10.424408 -0.000044 1.000000 0.000103 0.749067 0.527369
-13.901529 -0.000001 -10.298559 -0.000044 1.000000 0.000103 0.735247 0.505799
-14.578548 0.000001 -10.612778 -0.000044 1.000000 0.000103 0.766109 0.544479
-15.841599 -0.000000 -10.492409 -0.000001 1.000000 0.000002 0.741833 0.547991
-15.607437 -0.000000 -10.364883 -0.000001 1.000000 0.000002 0.726800 0.531447
-15.445017 0.000000 -10.609505 -0.000001 1.000000 0.000002 0.745673 0.516115
-15.931154 0.000000 -10.902645 -0.000001 1.000000 0.000002 0.779610 0.550406
-16.107843 -0.000000 -10.638695 -0.000001 1.000000 0.000002 0.759030 0.566776
-15.003274 0.000001 -10.763469 -0.000002 1.000000 -0.000001 0.762087 0.537056
-15.240984 0.000001 -10.916798 -0.000002 1.000000 -0.000001 0.776038 0.550290
-15.433397 0.000000 -10.627005 -0.000002 1.000000 -0.000001 0.757528 0.563651
-15.433397 0.000000 -10.627005 -0.000000 1.000000 -0.000000 0.757528 0.563651
-15.252031 0.000000 -10.516642 -0.000000 1.000000 -0.000000 0.747441 0.553537
-15.194686 0.000000 -10.481747 -0.000000 1.000000 -0.000000 0.744252 0.550339
-15.194686 0.000000 -10.481747 -0.000005 1.000000 -0.000010 0.744252 0.550339
-14.760691 0.000003 -10.424408 -0.000005 1.000000 -0.000010 0.733016 0.522371
-14.765563 0.000001 -10.610141 -0.000005 1.000000 -0.000010 0.748135 0.523821
-14.765563 0.000001 -10.610141 -0.000002 1.000000 -0.000001 0.748135 0.523821
-15.433397 0.000000 -10.627005 -0.000002 1.000000 0.000002 0.757528 0.563651
-15.194686 0.000000 -10.481747 -0.000002 1.000000 0.000002 0.744252 0.550339
-14.765563 0.000001 -10.610141 -0.000002 1.000000 0.000002 0.748135 0.523821
-16.107843 -0.000000 -10.638695 -0.000001 1.000000 0.000001 0.725592 0.530169
-15.931154 0.000000 -10.902645 -0.000001 1.000000 0.000001 0.741868 0.517223
-16.426535 -0.000000 -11.201361 -0.000001 1.000000 0.000001 0.769215 0.544854
-16.625277 -0.000000 -10.922993 -0.000001 1.000000 0.000001 0.752024 0.559040
-15.478694 0.000000 -11.070127 -0.000000 1.000000 -0.000002 0.759369 0.531901
-15.716404 -0.000000 -11.223454 -0.000000 1.000000 -0.000002 0.773320 0.545135
-15.918193 0.000000 -10.922009 -0.000000 1.000000 -0.000002 0.753872 0.559063
-15.918193 0.000000 -10.922009 -0.000000 1.000000 0.000000 0.753872 0.559063
-15.433397 0.000000 -10.627005 -0.000000 1.000000 0.000000 0.726907 0.532027
-15.240984 0.000001 -10.916798 -0.000000 1.000000 0.000000 0.745417 0.518666
-15.240984 0.000001 -10.916798 -0.000000 1.000000 -0.000002 0.745417 0.518666
-16.878906 -0.000000 -11.062347 -0.000001 1.000000 0.000001 0.736464 0.545757
-16.625277 -0.000000 -10.922993 -0.000001 1.000000 0.000001 0.723508 0.531605
-16.426535 -0.000000 -11.201361 -0.000001 1.000000 0.000001 0.740698 0.517419
-16.426535 -0.000000 -11.201361 -0.000001 1.000000 0.000000 0.740698 0.517419
-17.133030 -0.000000 -11.627378 -0.000001 1.000000 0.000000 0.779699 0.556826
-17.331223 -0.000000 -11.312181 -0.000001 1.000000 0.000000 0.759654 0.570975
-17.331223 -0.000000 -11.312181 -0.000001 1.000000 0.000001 0.759654 0.570975
-15.954114 -0.000001 -11.376782 0.000001 1.000000 -0.000004 0.758755 0.530935
-16.191822 -0.000001 -11.530111 0.000001 1.000000 -0.000004 0.772706 0.544169
-16.411613 0.000000 -11.222260 0.000001 1.000000 -0.000004 0.752799 0.559144
-16.411613 0.000000 -11.222260 0.000001 1.000000 -0.000002 0.752799 0.559144
-15.918193 0.000000 -10.922009 0.000001 1.000000 -0.000002 0.725355 0.531628
-15.716404 -0.000000 -11.223454 0.000001 1.000000 -0.000002 0.744804 0.517700
-15.716404 -0.000000 -11.223454 0.000001 1.000000 -0.000004 0.744804 0.517700
-17.839127 -0.000001 -11.592720 -0.000000 1.000000 0.000001 0.747474 0.557363
-17.331223 -0.000000 -11.312181 -0.000000 1.000000 0.000001 0.721433 0.529047
-17.133030 -0.000000 -11.627378 -0.000000 1.000000 0.000001 0.741478 0.514898
-17.133030 -0.000000 -11.627378 -0.000000 1.000000 -0.000000 0.741478 0.514898
-17.849083 -0.000001 -12.059160 -0.000000 1.000000 -0.000000 0.781004 0.554834
-18.098492 -0.000001 -11.735920 -0.000000 1.000000 -0.000000 0.760767 0.571824
-18.098492 -0.000001 -11.735920 -0.000000 1.000000 0.000001 0.760767 0.571824
-16.667242 -0.000002 -11.836768 0.000002 1.000000 -0.000006 0.773134 0.540056
-16.904953 -0.000003 -11.990096 0.000002 1.000000 -0.000006 0.787086 0.553290
-17.117624 -0.000000 -11.651876 0.000002 1.000000 -0.000006 0.764592 0.567935
-17.117624 -0.000000 -11.651876 0.000002 1.000000 -0.000003 0.764592 0.567935
-16.411613 0.000000 -11.222260 0.000002 1.000000 -0.000003 0.725325 0.528562
-16.191822 -0.000001 -11.530111 0.000002 1.000000 -0.000003 0.745232 0.513587
-16.191822 -0.000001 -11.530111 -0.000001 1.000000 -0.000002 0.745232 0.513587
-16.429531 -0.000002 -11.683440 -0.000001 1.000000 -0.000002 0.759183 0.526822
-16.667242 -0.000002 -11.836768 -0.000001 1.000000 -0.000002 0.773134 0.540056
-16.191822 -0.000001 -11.530111 0.000002 1.000000 -0.000006 0.745232 0.513587
-18.701393 -0.000001 -12.068790 -0.000000 1.000000 -0.000000 0.758455 0.567854
-18.098492 -0.000001 -11.735920 -0.000000 1.000000 -0.000000 0.727554 0.534239
-17.849083 -0.000001 -12.059160 -0.000000 1.000000 -0.000000 0.747791 0.517250
-17.849083 -0.000001 -12.059160 -0.000009 1.000000 -0.000007 0.747791 0.517250
-17.829227 -0.000001 -12.084894 -0.000009 1.000000 -0.000007 0.749402 0.515897
-17.900761 -0.000002 -12.260439 -0.000009 1.000000 -0.000007 0.763026 0.518702
-17.900761 -0.000002 -12.260439 0.000000 1.000000 -0.000008 0.763026 0.518702
-18.367874 -0.000004 -12.513460 0.000000 1.000000 -0.000008 0.784734 0.542795
-18.735958 -0.000001 -12.078197 0.000000 1.000000 -0.000008 0.759603 0.569933
-18.735958 -0.000001 -12.078197 -0.000000 1.000000 -0.000000 0.759603 0.569933
-17.849083 -0.000001 -12.059160 0.000000 1.000000 -0.000010 0.747791 0.517250
-17.900761 -0.000002 -12.260439 0.000000 1.000000 -0.000010 0.763026 0.518702
-18.735958 -0.000001 -12.078197 0.000000 1.000000 -0.000010 0.759603 0.569933
-18.927685 -0.000008 -13.714580 0.000007 1.000000 -0.000006 0.772919 0.533180
-19.738449 -0.000001 -13.547817 0.000007 1.000000 -0.000006 0.774896 0.588024
-18.772070 -0.000003 -12.818501 0.000007 1.000000 -0.000006 0.714776 0.539613
-18.772070 -0.000003 -12.818501 0.000006 1.000000 0.000001 0.714776 0.539613
-18.395802 -0.000005 -13.029733 0.000006 1.000000 0.000001 0.720457 0.509661
-18.372919 -0.000005 -13.182272 0.000006 1.000000 0.000001 0.729927 0.505797
-18.372919 -0.000005 -13.182272 0.000006 1.000000 -0.000010 0.729927 0.505797
-18.331591 -0.000007 -13.309445 0.000006 1.000000 -0.000010 0.737469 0.501138
-18.927685 -0.000008 -13.714580 0.000006 1.000000 -0.000010 0.772919 0.533180
-18.772070 -0.000003 -12.818501 0.000001 1.000000 -0.000005 0.714776 0.539613
-18.372919 -0.000005 -13.182272 0.000001 1.000000 -0.000005 0.729927 0.505797
-18.927685 -0.000008 -13.714580 0.000001 1.000000 -0.000005 0.772919 0.533180
-19.351465 -0.000001 -12.493242 0.000002 1.000000 -0.000001 0.718800 0.544210
-18.772070 -0.000003 -12.818501 0.000002 1.000000 -0.000001 0.732683 0.504182
-19.738449 -0.000001 -13.547817 0.000002 1.000000 -0.000001 0.792804 0.552593
-19.963806 -0.000001 -12.906153 0.000002 1.000000 -0.000001 0.755005 0.577177
-18.289179 -0.000005 -12.882950 0.000004 1.000000 -0.000003 0.763644 0.544203
-18.395802 -0.000005 -13.029733 0.000004 1.000000 -0.000003 0.770754 0.543502
-18.772070 -0.000003 -12.818501 0.000004 1.000000 -0.000003 0.765074 0.573454
-18.772070 -0.000003 -12.818501 0.000002 1.000000 0.000001 0.765074 0.573454
-18.367874 -0.000004 -12.513460 0.000002 1.000000 0.000001 0.739928 0.553206
-18.283535 -0.000004 -12.630239 0.000002 1.000000 0.000001 0.747160 0.547225
-18.283535 -0.000004 -12.630239 -0.000001 1.000000 0.000002 0.747160 0.547225
-17.829395 -0.000004 -12.383707 -0.000001 1.000000 0.000002 0.724922 0.525630
-17.618084 -0.000004 -12.450080 -0.000001 1.000000 0.000002 0.729364 0.511684
-17.855795 -0.000005 -12.603408 0.000003 1.000000 -0.000008 0.743316 0.524918
-18.289179 -0.000005 -12.882950 0.000003 1.000000 -0.000008 0.763644 0.544203
-18.772070 -0.000003 -12.818501 0.000003 1.000000 -0.000008 0.765074 0.573454
-18.283535 -0.000004 -12.630239 0.000001 1.000000 -0.000004 0.747160 0.547225
-17.618084 -0.000004 -12.450080 0.000001 1.000000 -0.000004 0.729364 0.511684
-17.855795 -0.000005 -12.603408 0.000001 1.000000 -0.000004 0.743316 0.524918
-18.772070 -0.000003 -12.818501 -0.000000 1.000000 0.000006 0.765074 0.573454
-18.283535 -0.000004 -12.630239 -0.000000 1.000000 0.000006 0.747160 0.547225
-17.855795 -0.000005 -12.603408 -0.000000 1.000000 0.000006 0.743316 0.524918
-18.927685 -0.000008 -13.714580 -0.000009 1.000000 0.000004 0.748978 0.512323
-18.456097 0.000002 -15.097439 -0.000009 1.000000 0.000004 0.816241 0.582030
-18.526875 0.000001 -15.128254 -0.000009 1.000000 0.000004 0.812900 0.585825
-18.526875 0.000001 -15.128254 -0.000004 1.000000 0.000007 0.812900 0.585825
-18.596077 -0.000000 -14.933622 -0.000004 1.000000 0.000007 0.803265 0.576091
-18.665277 -0.000002 -14.738990 -0.000004 1.000000 0.000007 0.793630 0.566358
-18.665277 -0.000002 -14.738990 0.000023 -1.000000 0.000000 0.793630 0.566358
-18.734480 -0.000003 -14.544357 0.000023 -1.000000 0.000000 0.783994 0.556625
-18.803682 -0.000005 -14.349726 0.000023 -1.000000 0.000000 0.774360 0.546891
-18.803682 -0.000005 -14.349726 0.000000 0.000000 0.000000 0.774360 0.546891
-18.872885 -0.000007 -14.155093 0.000000 0.000000 0.000000 0.764724 0.537157
-18.942087 -0.000008 -13.960461 0.000000 0.000000 0.000000 0.755089 0.527424
-18.942087 -0.000008 -13.960461 0.000012 1.000000 0.000004 0.755089 0.527424
-19.513475 -0.000001 -14.188393 0.000012 1.000000 0.000004 0.727169 0.557264
-19.738449 -0.000001 -13.547817 0.000012 1.000000 0.000004 0.695620 0.525157
-18.927685 -0.000008 -13.714580 -0.000025 1.000000 -0.000001 0.748978 0.512323
-18.526875 0.000001 -15.128254 -0.000025 1.000000 -0.000001 0.812900 0.585825
-18.665277 -0.000002 -14.738990 -0.000025 1.000000 -0.000001 0.793630 0.566358
-18.665277 -0.000002 -14.738990 -0.000024 1.000000 -0.000001 0.793630 0.566358
-18.803682 -0.000005 -14.349726 -0.000024 1.000000 -0.000001 0.774360 0.546891
-18.942087 -0.000008 -13.960461 -0.000024 1.000000 -0.000001 0.755089 0.527424
-18.942087 -0.000008 -13.960461 0.000008 1.000000 -0.000003 0.755089 0.527424
-19.738449 -0.000001 -13.547817 0.000008 1.000000 -0.000003 0.695620 0.525157
-18.927685 -0.000008 -13.714580 0.000008 1.000000 -0.000003 0.748978 0.512323
-18.942087 -0.000008 -13.960461 -0.000025 1.000000 -0.000001 0.755089 0.527424
-18.526875 0.000001 -15.128254 -0.000009 1.000000 0.000004 0.732054 0.531103
-18.456097 0.000002 -15.097439 -0.000009 1.000000 0.000004 0.728998 0.527076
-18.362606 0.000004 -15.371589 -0.000009 1.000000 0.000004 0.745192 0.516752
-19.128134 -0.000001 -15.665519 -0.000076 1.000000 0.000199 0.776137 0.561454
-19.162535 -0.000001 -15.678728 -0.000076 1.000000 0.000199 0.777527 0.563462
-19.211100 -0.000001 -15.697374 -0.000076 1.000000 0.000199 0.779490 0.566298
-18.526875 0.000001 -15.128254 -0.000008 1.000000 0.000005 0.732054 0.531103
-18.362606 0.000004 -15.371589 -0.000008 1.000000 0.000005 0.745192 0.516752
-19.128134 -0.000001 -15.665519 -0.000008 1.000000 0.000005 0.776137 0.561454
-19.091883 -0.000001 -15.388807 -0.000003 1.000000 -0.000001 0.757743 0.563460
-19.106766 -0.000001 -15.346431 -0.000003 1.000000 -0.000001 0.755246 0.565083
-18.526875 0.000001 -15.128254 -0.000003 1.000000 -0.000001 0.732054 0.531103
-19.077856 -0.000001 -15.465949 -0.000003 1.000000 -0.000001 0.762492 0.561346
-19.128134 -0.000001 -15.665519 -0.000000 1.000000 0.000000 0.776137 0.561454
-19.211100 -0.000001 -15.697374 -0.000000 1.000000 0.000000 0.779490 0.566298
-19.147984 -0.000001 -15.648284 -0.000000 1.000000 0.000000 0.775338 0.563003
-19.098894 -0.000001 -15.571142 -0.000004 1.000000 0.000001 0.769598 0.561051
-19.077856 -0.000001 -15.465949 -0.000004 1.000000 0.000001 0.762492 0.561346
-18.526875 0.000001 -15.128254 -0.000004 1.000000 0.000001 0.732054 0.531103
-19.098894 -0.000001 -15.571142 -0.000000 1.000000 0.000000 0.769598 0.561051
-18.526875 0.000001 -15.128254 -0.000005 1.000000 0.000001 0.732054 0.531103
-19.128134 -0.000001 -15.665519 -0.000005 1.000000 0.000001 0.776137 0.561454
-19.098894 -0.000001 -15.571142 -0.000005 1.000000 0.000001 0.769598 0.561051
-17.133030 -0.000000 -11.627378 -0.000001 1.000000 0.000001 0.883589 0.446140
-16.426535 -0.000000 -11.201361 -0.000001 1.000000 0.000001 0.881899 0.398736
-16.411613 0.000000 -11.222260 -0.000001 1.000000 0.000001 0.884415 0.398624
-17.117624 -0.000000 -11.651876 -0.000001 1.000000 0.000001 0.886436 0.446112
-15.445017 0.000000 -10.609505 0.000009 1.000000 -0.000020 0.879551 0.332877
-15.260512 0.000001 -10.498247 0.000009 1.000000 -0.000020 0.879110 0.320497
-15.252031 0.000000 -10.516642 0.000009 1.000000 -0.000020 0.881096 0.320627
-15.433397 0.000000 -10.627005 0.000009 1.000000 -0.000020 0.881615 0.332826
-15.931154 0.000000 -10.902645 -0.000001 1.000000 0.000001 0.880714 0.365496
-15.918193 0.000000 -10.922009 -0.000001 1.000000 0.000001 0.883003 0.365435
-17.849083 -0.000001 -12.059160 -0.000000 1.000000 0.000000 0.885302 0.494187
-17.133030 -0.000000 -11.627378 -0.000000 1.000000 0.000000 0.883589 0.446140
-17.117624 -0.000000 -11.651876 -0.000000 1.000000 0.000000 0.886436 0.446112
-17.829227 -0.000001 -12.084894 -0.000000 1.000000 0.000000 0.888473 0.493976
-15.931154 0.000000 -10.902645 -0.000001 1.000000 0.000002 0.880714 0.365496
-15.445017 0.000000 -10.609505 -0.000001 1.000000 0.000002 0.879551 0.332877
-15.433397 0.000000 -10.627005 -0.000001 1.000000 0.000002 0.881615 0.332826
-15.918193 0.000000 -10.922009 -0.000001 1.000000 0.000002 0.883003 0.365435
3 0 1 2
3 2 3 4
3 5 6 7
3 8 9 10
3 11 12 13
3 0 2 4
3 14 0 4
3 15 16 17
3 4 18 19
3 20 14 4
3 4 19 21
3 4 21 20
3 22 23 24
3 22 24 25
3 22 25 26
3 26 27 28
3 28 29 30
3 30 31 32
3 30 32 33
3 22 26 28
3 30 33 34
3 34 22 28
3 28 30 34
3 35 36 37
3 38 39 40
3 41 38 40
3 42 43 44
3 45 46 47
3 48 49 50
3 51 52 53
4 54 55 56 57
3 58 59 60
3 61 62 63
3 64 65 66
3 67 68 69
3 70 71 67
3 72 73 74
3 75 76 77
3 78 79 80
3 81 82 83
3 84 85 86
3 87 88 89
4 90 91 92 93
4 94 95 96 97
4 98 99 100 101
4 102 103 104 105
4 106 107 108 109
4 110 111 112 113
4 114 115 116 117
4 118 119 120 121
4 122 123 124 125
4 126 127 128 129
4 130 131 132 133
4 134 135 136 137
4 138 139 140 141
4 142 143 144 145
4 146 147 148 149
4 150 151 152 153
4 154 155 156 157
4 158 159 160 161
4 162 163 164 165
3 166 167 168
3 169 170 171
3 172 173 174
3 175 176 177
3 178 179 180
4 181 182 183 184
4 185 186 187 188
4 189 190 191 192
3 193 194 195
3 196 197 198
3 199 200 201
3 202 203 204
3 205 206 207
3 202 204 208
3 209 210 211
3 212 213 214
3 215 216 217
3 218 219 220
3 221 222 223
3 224 225 226
3 227 228 229
3 229 230 231
3 229 231 227
3 232 233 234
3 235 236 237
3 238 239 240
3 241 232 234
3 242 243 244
4 245 246 247 248
3 249 250 251
3 252 253 254
3 251 255 249
3 256 257 258
3 259 260 261
3 258 262 256
3 263 264 265
3 266 267 268
3 265 269 263
3 270 271 272
3 273 274 275
3 272 276 270
3 277 278 279
3 280 281 282
3 283 284 285
3 279 286 277
3 287 288 289
3 290 291 292
3 293 294 295
3 296 287 289
3 297 298 299
3 300 301 302
3 303 304 305
3 306 307 308
3 309 310 311
4 312 313 314 315
3 316 317 318
3 319 320 321
3 322 323 324
3 325 326 327
3 328 329 330
3 331 332 333
3 334 335 336
3 337 338 339
3 340 341 342
3 343 344 345
3 346 347 348
3 349 350 351
3 352 353 354
3 355 356 357
3 349 351 358
3 359 360 361
3 362 363 364
3 365 366 367
3 368 369 370
3 371 368 370
3 372 373 374
3 375 376 377
3 372 374 378
3 379 380 381
4 382 383 384 385
4 386 387 388 389
4 383 390 391 384
4 392 393 394 395
4 396 397 398 399
