ply
format ascii 1.0
comment Created by Blender 2.78 (sub 0) - www.blender.org, source file: 'soult.blend'
element vertex 30
property float x
property float y
property float z
property float nx
property float ny
property float nz
element face 11
property list uchar uint vertex_indices
end_header
-31.119781 -0.000001 -11.924583 0.000000 1.000000 -0.000000
-28.937988 -0.000001 -15.817558 0.000000 1.000000 -0.000000
-33.766052 -0.000000 -7.426944 0.000000 1.000000 -0.000000
-33.607819 -0.000000 -7.524239 0.000000 1.000000 -0.000000
-34.146904 -0.000000 -6.946395 0.000000 1.000000 -0.000000
-33.890427 -0.000000 -6.724171 0.000000 1.000000 -0.000000
-34.005829 -0.000000 -6.864214 0.000000 1.000000 -0.000000
-34.063446 -0.000000 -6.988060 -0.000000 1.000000 -0.000000
-34.503269 0.000007 -7.288235 0.000067 1.000000 -0.000047
-34.442608 0.000007 -7.202603 0.000067 1.000000 -0.000047
-34.146904 -0.000000 -6.946395 0.000067 1.000000 -0.000047
-34.531807 0.000015 -7.491619 -0.000284 1.000000 0.000077
-34.524666 0.000007 -7.366733 -0.000284 1.000000 0.000077
-34.503269 0.000007 -7.288235 -0.000284 1.000000 0.000077
-34.299522 0.000007 -7.490854 0.000033 1.000000 -0.000038
-34.492809 0.000009 -7.605573 0.000033 1.000000 -0.000038
-34.531807 0.000015 -7.491619 0.000033 1.000000 -0.000038
-34.063732 -0.000000 -7.075988 0.000016 1.000000 0.000009
-33.939068 -0.000000 -7.282522 0.000016 1.000000 0.000009
-34.299522 0.000007 -7.490854 0.000016 1.000000 0.000009
-34.063732 -0.000000 -7.075988 0.000000 1.000000 -0.000000
-34.531807 0.000015 -7.491619 -0.000017 1.000000 0.000040
-34.503269 0.000007 -7.288235 -0.000017 1.000000 0.000040
-34.146904 -0.000000 -6.946395 -0.000017 1.000000 0.000040
-34.063732 -0.000000 -7.075988 0.000033 1.000000 -0.000000
-34.299522 0.000007 -7.490854 0.000033 1.000000 -0.000000
-34.531807 0.000015 -7.491619 0.000033 1.000000 -0.000000
-34.146904 -0.000000 -6.946395 0.000021 1.000000 0.000013
-34.063732 -0.000000 -7.075988 0.000021 1.000000 0.000013
-34.531807 0.000015 -7.491619 0.000021 1.000000 0.000013
4 0 1 2 3
3 4 5 6
3 4 6 7
3 8 9 10
3 11 12 13
3 14 15 16
3 17 18 19
3 4 7 20
3 21 22 23
3 24 25 26
3 27 28 29
