ply
format ascii 1.0
comment Created by Blender 2.78 (sub 0) - www.blender.org, source file: 'soult.blend'
element vertex 84
property float x
property float y
property float z
property float nx
property float ny
property float nz
property float s
property float t
element face 72
property list uchar uint vertex_indices
end_header
-34.555206 -0.000001 -21.382355 -0.000000 1.000000 -0.000000 0.740204 0.568591
-34.474182 -0.000001 -21.545700 -0.000000 1.000000 -0.000000 0.735996 0.557704
-34.446999 -0.000001 -21.654364 -0.000000 1.000000 -0.000000 0.734900 0.550618
-34.464806 -0.000001 -21.693481 0.000000 1.000000 -0.000000 0.736264 0.548229
-34.517738 -0.000001 -21.697712 0.000000 1.000000 -0.000000 0.739663 0.548269
-34.623779 -0.000001 -21.650116 -0.000000 1.000000 -0.000000 0.746143 0.551925
-34.707855 -0.000001 -21.590347 -0.000000 1.000000 -0.000000 0.751153 0.556227
-34.768341 -0.000001 -21.530853 0.000000 1.000000 -0.000000 0.754660 0.560374
-34.846649 -0.000001 -21.428009 0.000000 1.000000 -0.000000 0.759049 0.567388
-34.882843 -0.000001 -21.350805 0.000000 1.000000 -0.000000 0.760904 0.572521
-34.866177 -0.000001 -21.290445 0.000000 1.000000 -0.000000 0.767840 0.605934
-34.862701 -0.000001 -21.277859 0.000000 1.000000 -0.000000 0.767802 0.606906
-34.828728 -0.000001 -21.240082 0.000000 1.000000 -0.000000 0.766438 0.609218
-34.760147 -0.000001 -21.230320 -0.000000 1.000000 -0.000000 0.752377 0.579483
-34.726494 -0.000001 -21.225529 -0.000000 1.000000 -0.000000 0.750204 0.579591
-34.658478 -0.000001 -21.253265 -0.000000 1.000000 -0.000000 0.746031 0.577425
-12.588280 -0.000000 -9.346069 0.000000 1.000000 -0.000000 0.858545 0.354405
-12.575886 -0.000000 -9.376068 0.000000 1.000000 -0.000000 0.858112 0.356382
-12.574539 -0.000000 -9.408501 0.000000 1.000000 -0.000000 0.857027 0.358091
-12.587173 -0.000000 -9.434896 -0.000000 1.000000 -0.000000 0.855441 0.358993
-12.619659 -0.000000 -9.461166 -0.000000 1.000000 -0.000000 0.852842 0.359182
-12.664368 -0.000000 -9.464470 -0.000000 1.000000 -0.000000 0.850435 0.357760
-12.694359 -0.000000 -9.452049 -0.000000 1.000000 -0.000000 0.849341 0.356057
-12.769974 -0.000000 -9.407665 0.000000 1.000000 -0.000000 0.847048 0.351093
-13.125674 -0.000000 -8.736328 -0.000000 1.000000 -0.000000 0.852725 0.304052
-13.083519 -0.000000 -8.761002 -0.000000 1.000000 -0.000000 0.854006 0.306816
-13.247816 -0.000000 -8.760567 0.000000 1.000000 -0.000000 0.845607 0.300946
-13.183615 -0.000000 -8.730101 0.000000 1.000000 -0.000000 0.849979 0.301671
-13.336273 -0.000000 -8.881706 -0.000000 1.000000 -0.000000 0.836765 0.304002
-13.282532 -0.000000 -8.798050 -0.000000 1.000000 -0.000000 0.842495 0.301630
-13.411507 -0.000000 -9.045448 -0.000000 1.000000 -0.000000 0.827085 0.309710
-13.375155 -0.000000 -8.962015 -0.000000 1.000000 -0.000000 0.831916 0.306731
-13.411265 -0.000000 -9.109198 -0.000000 1.000000 -0.000000 0.824828 0.312983
-13.417437 -0.000000 -9.070210 -0.000000 1.000000 -0.000000 0.825900 0.310767
-13.369942 -0.000000 -9.144920 -0.000000 1.000000 -0.000000 0.825673 0.316284
-13.391272 -0.000000 -9.132884 -0.000000 1.000000 -0.000000 0.825009 0.314908
-13.195964 -0.000000 -9.207428 0.000000 1.000000 -0.000000 0.832358 0.325677
-12.891151 -0.000000 -9.341751 -0.000000 1.000000 -0.000000 0.843188 0.343404
-12.982735 -0.000000 -9.297064 -0.000000 1.000000 -0.000000 0.840088 0.337856
-13.504164 -0.000000 -8.315821 -0.000000 1.000000 -0.000000 0.848307 0.269046
-13.461401 -0.000000 -8.331453 -0.000000 1.000000 -0.000000 0.849941 0.271368
-13.434568 -0.000000 -8.371628 -0.000000 1.000000 -0.000000 0.849885 0.274381
-13.435059 -0.000000 -8.409925 -0.000000 1.000000 -0.000000 0.848497 0.276325
-13.449986 -0.000000 -8.438343 -0.000000 1.000000 -0.000000 0.846721 0.277249
-13.755913 -0.000000 -8.597427 -0.000000 1.000000 -0.000000 0.825392 0.274508
-13.781292 -0.000000 -8.600700 -0.000000 1.000000 -0.000000 0.823976 0.273772
-13.814697 -0.000000 -8.595612 0.000000 1.000000 -0.000000 0.822446 0.272323
-13.827179 -0.000000 -8.588966 0.000000 1.000000 -0.000000 0.822043 0.271538
-13.855537 -0.000000 -8.568069 -0.000000 1.000000 -0.000000 0.821335 0.269459
-13.884573 -0.000000 -8.531858 -0.000000 1.000000 -0.000000 0.821136 0.266571
-13.878845 -0.000000 -8.502930 -0.000000 1.000000 -0.000000 0.822459 0.265293
-13.867340 -0.000000 -8.485344 -0.000000 1.000000 -0.000000 0.823674 0.264802
-13.531609 -0.000000 -8.317970 -0.000000 1.000000 -0.000000 0.846825 0.268179
-14.915146 -0.000000 -9.065293 0.000000 1.000000 -0.000000 0.749372 0.257211
-14.914373 -0.000000 -9.044677 0.000000 1.000000 -0.000000 0.750146 0.256183
-14.850555 -0.000000 -8.985906 0.000000 1.000000 -0.000000 0.755506 0.255444
-14.356110 -0.000000 -8.729805 0.000000 1.000000 -0.000000 0.789943 0.259926
-14.315654 -0.000000 -8.727443 0.000000 1.000000 -0.000000 0.792098 0.261245
-14.263362 -0.000000 -8.743973 0.000000 1.000000 -0.000000 0.794188 0.263952
-13.943176 -0.000000 -8.951576 0.000000 1.000000 -0.000000 0.803197 0.285980
-13.927843 -0.000000 -8.969109 0.000000 1.000000 -0.000000 0.803358 0.287424
-13.921350 -0.000000 -9.005371 0.000000 1.000000 -0.000000 0.802400 0.289512
-13.949255 -0.000000 -9.044123 0.000000 1.000000 -0.000000 0.799592 0.290503
-13.979149 -0.000000 -9.058113 0.000000 1.000000 -0.000000 0.797563 0.290156
-14.111685 -0.000000 -9.053801 -0.000000 1.000000 -0.000000 0.790929 0.285218
-14.886597 -0.000000 -9.106850 -0.000000 1.000000 -0.000000 0.749355 0.260355
-14.904547 -0.000000 -9.088590 -0.000000 1.000000 -0.000000 0.749086 0.258781
-14.658745 -0.000000 -9.083830 0.000000 1.000000 -0.000001 0.761844 0.267286
-14.862934 -0.000000 -9.113842 0.000000 1.000000 -0.000001 0.750318 0.261555
-14.886597 -0.000000 -9.106850 0.000000 1.000000 -0.000001 0.749355 0.260355
-14.377312 -0.000000 -9.056833 0.000000 1.000000 -0.000000 0.777218 0.275919
-14.658745 -0.000000 -9.083830 0.000000 1.000000 0.000000 0.761844 0.267286
-13.814283 -0.000000 -9.638521 0.000000 -1.000000 -0.000000 0.000000 0.000000
-14.081440 -0.000000 -9.608277 0.000000 -1.000000 -0.000000 0.000000 0.000000
-14.278027 -0.000000 -9.608277 0.000000 -1.000000 -0.000000 0.000000 0.000000
-14.605672 -0.000000 -9.643562 -0.000000 -1.000000 0.000000 0.000000 0.000000
-14.761933 -0.000000 -9.673806 -0.000000 -1.000000 0.000000 0.000000 0.000000
-15.114782 -0.000000 -9.769579 0.000000 -1.000000 0.000000 0.000000 0.000000
-16.929432 -0.000000 -10.737392 0.000000 -1.000000 0.000000 0.000000 0.000000
-16.415281 -0.000000 -10.596253 -0.000000 -1.000000 0.000000 0.000000 0.000000
-16.032188 -0.000000 -10.475277 -0.000000 -1.000000 0.000000 0.000000 0.000000
-15.568444 -0.000000 -10.319016 0.000000 -1.000000 0.000000 0.000000 0.000000
-15.034131 -0.000000 -10.122429 0.000000 -1.000000 0.000000 0.000000 0.000000
-14.560306 -0.000000 -9.920801 0.000000 -1.000000 -0.000000 0.000000 0.000000
3 0 1 2
3 2 3 4
3 4 5 6
3 6 7 8
3 8 9 10
3 10 11 12
3 13 14 15
3 10 12 13
3 6 8 10
3 2 4 6
3 15 0 2
3 10 13 15
3 2 6 10
3 2 10 15
3 16 17 18
3 18 19 20
3 20 21 22
3 20 22 23
3 16 18 20
3 24 25 16
3 26 27 24
3 28 29 26
3 30 31 28
3 32 33 30
3 34 35 32
3 36 34 32
3 32 30 28
3 28 26 24
3 24 16 20
3 20 23 37
3 38 36 32
3 20 37 38
3 28 24 20
3 38 32 28
3 20 38 28
3 39 40 41
3 41 42 43
3 43 44 45
3 45 46 47
3 47 48 49
3 49 50 51
3 51 52 39
3 39 41 43
3 43 45 47
3 47 49 51
3 51 39 43
3 43 47 51
3 53 54 55
3 55 56 57
3 57 58 59
3 59 60 61
3 61 62 63
3 61 63 64
3 57 59 61
3 53 55 57
3 65 66 53
3 67 68 69
3 61 64 70
3 71 65 53
3 61 70 71
3 53 57 61
3 61 71 53
3 72 73 74
3 74 75 76
3 76 77 78
3 78 79 80
3 80 81 82
3 83 72 74
3 80 82 83
3 76 78 80
3 83 74 76
3 76 80 83
