ply
format ascii 1.0
comment Created by Blender 2.78 (sub 0) - www.blender.org, source file: 'soult.blend'
element vertex 105
property float x
property float y
property float z
property float nx
property float ny
property float nz
property float s
property float t
element face 73
property list uchar uint vertex_indices
end_header
-15.527596 -0.000000 -8.558411 -0.000000 1.000000 -0.000000 0.678433 0.880126
-15.363724 -0.000000 -8.424820 -0.000000 1.000000 -0.000000 0.668981 0.881663
-14.850555 -0.000000 -8.985906 -0.000000 1.000000 -0.000000 0.660887 0.851597
-14.876221 -0.000000 -8.999199 -0.000000 1.000000 -0.000000 0.662199 0.851628
-16.038010 -0.000000 -9.496596 -0.000000 1.000000 -0.000000 0.719334 0.856750
-16.288631 -0.000000 -9.019942 -0.000000 1.000000 -0.000000 0.718839 0.878649
-15.849518 -0.000000 -8.777794 -0.000000 1.000000 -0.000000 0.696055 0.878641
-14.893870 -0.000000 -9.009868 0.000000 1.000000 -0.000000 0.663136 0.851595
-15.636976 -0.000000 -9.353541 -0.000000 1.000000 -0.000000 0.700241 0.853962
-14.914373 -0.000000 -9.044676 0.000000 1.000000 -0.000000 0.664716 0.850758
-15.027130 -0.000000 -9.097550 0.000000 1.000000 -0.000000 0.670362 0.851092
-14.907715 -0.000000 -9.025162 0.000000 1.000000 -0.000000 0.664022 0.851322
-27.500969 -0.000001 -15.193604 0.000008 1.000000 -0.000023 0.833506 0.178661
-27.455910 -0.000001 -15.178116 0.000008 1.000000 -0.000023 0.830837 0.176118
-28.830820 -0.000008 -15.989491 0.000008 1.000000 -0.000023 0.935546 0.241638
-28.874084 -0.000001 -15.917595 0.000000 1.000000 -0.000000 0.932150 0.247171
-28.937988 -0.000001 -15.817558 0.000000 1.000000 -0.000000 0.927556 0.255124
-28.834200 -0.000001 -15.245108 0.000000 1.000000 -0.000000 0.884543 0.268391
-27.500969 -0.000001 -15.193604 0.000042 1.000000 -0.000081 0.833506 0.178661
-28.830820 -0.000008 -15.989491 0.000042 1.000000 -0.000081 0.935546 0.241638
-28.874084 -0.000001 -15.917595 0.000042 1.000000 -0.000081 0.932150 0.247171
-27.649750 -0.000001 -15.219254 0.000000 1.000000 -0.000000 0.840568 0.187965
-27.500969 -0.000001 -15.193604 0.000000 1.000000 -0.000000 0.833506 0.178661
-28.579521 -0.000001 -15.104486 -0.000000 1.000000 -0.000000 0.865811 0.255910
-28.197159 -0.000001 -15.225525 0.000000 1.000000 -0.000000 0.860502 0.225337
-27.842560 -0.000001 -15.238358 -0.000000 1.000000 -0.000000 0.848749 0.200527
-21.856354 -0.000000 -8.808289 0.000000 1.000000 -0.000000 0.919017 0.220872
-21.885117 -0.000000 -8.811836 0.000000 1.000000 -0.000000 0.922240 0.220474
-20.971985 -0.000000 -8.549629 0.000000 1.000000 -0.000000 0.819915 0.249857
-21.036369 -0.000000 -8.578848 -0.000000 1.000000 -0.000000 0.827131 0.246583
-21.827408 -0.000000 -8.809792 -0.000000 1.000000 -0.000000 0.915773 0.220703
-21.096939 -0.000000 -8.653036 -0.000000 1.000000 -0.000000 0.833918 0.238269
-21.799149 -0.000000 -8.816292 -0.000000 1.000000 -0.000000 0.912606 0.219975
-21.106121 -0.000000 -8.736944 0.000000 1.000000 -0.000000 0.834947 0.228867
-21.772461 -0.000000 -8.827614 0.000000 1.000000 -0.000000 0.909615 0.218706
-21.089371 -0.000000 -8.791367 -0.000000 1.000000 -0.000000 0.833070 0.222768
-21.080032 -0.000000 -8.806404 -0.000000 1.000000 -0.000000 0.832023 0.221083
-21.709473 -0.000000 -8.886284 -0.000000 1.000000 -0.000000 0.902557 0.212132
-21.748138 -0.000000 -8.843376 0.000000 1.000000 -0.000000 0.906890 0.216940
-21.726929 -0.000000 -8.863136 -0.000000 1.000000 -0.000000 0.904514 0.214726
-30.080397 -0.000001 -12.523225 0.000000 1.000000 -0.000000 0.785508 0.196359
-30.094011 -0.000001 -12.667292 0.000000 1.000000 -0.000000 0.793503 0.187138
-30.574537 -0.000001 -12.345003 0.000000 1.000000 -0.000000 0.810691 0.232809
-30.196209 -0.000001 -12.193752 0.000000 1.000000 -0.000000 0.777310 0.224650
-29.992405 -0.000001 -12.295666 0.000000 1.000000 -0.000000 0.768316 0.207666
-30.024658 -0.000001 -12.342300 0.000000 1.000000 -0.000000 0.772815 0.206046
-30.066620 -0.000001 -12.454372 0.000000 1.000000 -0.000000 0.781188 0.200410
-17.507292 -0.000000 -9.691971 -0.000000 1.000000 -0.000000 0.720089 0.880276
-16.288631 -0.000000 -9.019942 -0.000000 1.000000 -0.000000 0.656858 0.880254
-16.038010 -0.000000 -9.496596 -0.000000 1.000000 -0.000000 0.657353 0.856958
-16.359085 -0.000000 -9.611130 -0.000000 1.000000 -0.000000 0.672640 0.859332
-17.010216 -0.000000 -9.804489 -0.000000 1.000000 -0.000000 0.702787 0.865622
-17.384197 -0.000000 -9.910470 -0.000000 1.000000 -0.000000 0.719990 0.869426
-17.507292 -0.000000 -9.691971 -0.000000 1.000000 -0.000000 0.660390 0.880276
-17.384197 -0.000000 -9.910470 -0.000000 1.000000 -0.000000 0.660302 0.869426
-17.663149 -0.000000 -9.989522 -0.000000 1.000000 -0.000000 0.671728 0.872263
-18.386251 -0.000000 -10.247392 0.000000 1.000000 -0.000000 0.702382 0.877614
-18.796110 -0.000000 -10.425659 0.000000 1.000000 -0.000000 0.720384 0.879430
-18.806269 -0.000000 -10.408289 0.000000 1.000000 -0.000000 0.720404 0.880300
-18.806269 -0.000000 -10.408289 0.000000 1.000000 -0.000000 0.202505 0.886307
-18.796110 -0.000000 -10.425659 0.000000 1.000000 -0.000000 0.202483 0.885437
-18.993301 -0.000000 -10.511428 0.000000 1.000000 -0.000000 0.211746 0.886311
-28.579521 -0.000001 -15.104486 -0.000000 1.000000 -0.000000 0.852078 0.605014
-28.834200 -0.000001 -15.245108 -0.000000 1.000000 -0.000000 0.827172 0.615547
-28.796265 -0.000001 -15.035873 -0.000000 1.000000 -0.000000 0.830315 0.591057
-29.162758 -0.000001 -15.426936 -0.000000 1.000000 -0.000000 0.795044 0.629185
-29.288731 -0.000001 -15.208012 -0.000000 1.000000 -0.000000 0.781856 0.599277
-28.878822 -0.000001 -14.978419 -0.000000 1.000000 -0.000000 0.821932 0.581928
-29.162758 -0.000001 -15.426936 -0.000000 1.000000 -0.000000 0.908736 0.284478
-30.608198 -0.000001 -12.358460 0.000000 1.000000 -0.000000 0.903859 0.267359
-30.574537 -0.000001 -12.345003 0.000000 1.000000 -0.000000 0.900087 0.268867
-30.094011 -0.000001 -12.667292 0.000000 1.000000 -0.000000 0.846240 0.232752
-30.098663 -0.000001 -12.716522 0.000000 1.000000 -0.000000 0.846761 0.227235
-30.615677 -0.000001 -12.432232 -0.000000 1.000000 -0.000000 0.904697 0.259092
-30.080643 -0.000001 -12.881725 -0.000000 1.000000 -0.000000 0.844742 0.208723
-30.030975 -0.000001 -13.040329 -0.000000 1.000000 -0.000000 0.839176 0.190950
-30.440380 -0.000001 -13.206577 -0.000000 1.000000 -0.000000 0.885053 0.172320
-30.619339 -0.000001 -12.445366 0.000000 1.000000 -0.000000 0.905107 0.257620
-30.868534 -0.000001 -12.462495 -0.000000 1.000000 -0.000000 0.933032 0.255701
-30.827486 -0.000001 -12.446134 0.000000 1.000000 -0.000000 0.928432 0.257534
-30.734430 -0.000001 -12.408890 0.000000 1.000000 -0.000000 0.918004 0.261708
-30.727509 -0.000001 -12.418159 0.000000 1.000000 -0.000000 0.917229 0.260669
-30.628357 -0.000001 -12.459167 -0.000000 1.000000 -0.000000 0.906118 0.256074
-30.637817 -0.000001 -12.467178 0.000000 1.000000 -0.000000 0.907178 0.255176
-30.695084 -0.000001 -12.461670 0.000000 1.000000 -0.000000 0.913595 0.255793
-30.685028 -0.000001 -12.468948 0.000000 1.000000 -0.000000 0.912468 0.254978
-30.648758 -0.000001 -12.471996 -0.000000 1.000000 -0.000000 0.908404 0.254636
-30.660950 -0.000001 -12.474312 0.000000 1.000000 -0.000000 0.909770 0.254377
-30.673309 -0.000001 -12.473038 -0.000000 1.000000 -0.000000 0.911155 0.254520
-29.992405 -0.000001 -12.295666 0.000000 1.000000 -0.000000 0.898797 0.230963
-30.196209 -0.000001 -12.193752 0.000000 1.000000 -0.000000 0.921635 0.242383
-29.817093 -0.000001 -12.042187 0.000000 1.000000 -0.000000 0.879152 0.259367
-30.440380 -0.000001 -13.206577 -0.000000 1.000000 -0.000000 0.928486 0.241089
-30.030975 -0.000001 -13.040329 -0.000000 1.000000 -0.000000 0.882609 0.259718
-29.693047 -0.000001 -13.617049 -0.000000 1.000000 -0.000000 0.844741 0.195092
-30.098627 -0.000001 -13.800503 -0.000000 1.000000 -0.000000 0.890190 0.174534
-30.098627 -0.000001 -13.800503 -0.000000 1.000000 -0.000000 0.936036 0.248129
-29.693047 -0.000001 -13.617049 -0.000000 1.000000 -0.000000 0.890587 0.268686
-29.306856 -0.000001 -14.276134 -0.000000 1.000000 -0.000000 0.847311 0.194830
-29.699238 -0.000001 -14.494596 -0.000000 1.000000 -0.000000 0.891281 0.170350
-29.288731 -0.000001 -15.208012 -0.000000 1.000000 -0.000000 0.891126 0.167620
-29.699238 -0.000001 -14.494596 -0.000000 1.000000 -0.000000 0.937127 0.247564
-29.306856 -0.000001 -14.276134 -0.000000 1.000000 -0.000000 0.893157 0.272044
-28.906738 -0.000001 -14.958992 -0.000000 1.000000 -0.000000 0.848320 0.195524
-28.878822 -0.000001 -14.978419 -0.000000 1.000000 -0.000000 0.845192 0.193347
3 0 1 2
3 0 2 3
3 4 5 6
3 6 0 3
3 6 3 7
3 8 4 6
3 9 10 8
3 6 7 11
3 11 9 8
3 11 8 6
3 12 13 14
3 15 16 17
3 18 19 20
3 21 22 15
3 15 17 23
3 15 23 24
3 25 21 15
3 15 24 25
3 26 27 28
3 26 28 29
3 30 26 29
3 30 29 31
3 32 30 31
3 32 31 33
3 34 32 33
3 35 36 37
3 34 33 35
3 38 34 35
3 35 37 39
3 35 39 38
3 40 41 42
3 42 43 44
3 42 44 45
3 46 40 42
3 46 42 45
3 47 48 49
3 49 50 51
3 51 52 47
3 49 51 47
3 53 54 55
3 56 57 58
3 53 55 56
3 53 56 58
3 59 60 61
3 62 63 64
3 65 66 67
3 67 64 63
3 67 63 65
3 68 17 16
3 69 70 71
3 69 71 72
3 73 69 72
3 74 75 76
3 73 72 74
3 77 73 74
3 74 76 78
3 79 80 81
3 74 78 79
3 82 77 74
3 83 82 74
3 79 81 84
3 79 84 85
3 86 83 74
3 87 86 74
3 74 79 85
3 88 87 74
3 74 85 88
3 89 90 91
4 92 93 94 95
4 96 97 98 99
3 100 101 102
3 103 104 100
3 102 103 100
