ply
format ascii 1.0
comment Created by Blender 2.78 (sub 0) - www.blender.org, source file: 'soult.blend'
element vertex 34
property float x
property float y
property float z
property float nx
property float ny
property float nz
element face 22
property list uchar uint vertex_indices
end_header
-18.685928 -0.000000 -11.086223 0.000033 1.000000 -0.000069
-28.556629 -0.000046 -16.506971 0.000033 1.000000 -0.000069
-28.784748 -0.000008 -16.066088 0.000033 1.000000 -0.000069
-28.784748 -0.000008 -16.066088 0.000010 1.000000 -0.000020
-28.830814 -0.000006 -15.989474 0.000010 1.000000 -0.000020
-27.455912 -0.000004 -15.178116 0.000010 1.000000 -0.000020
-27.455912 -0.000004 -15.178116 -0.000000 1.000000 -0.000000
-18.993301 -0.000000 -10.511428 -0.000000 1.000000 -0.000000
-18.685928 -0.000000 -11.086223 -0.000000 1.000000 -0.000000
-28.784748 -0.000008 -16.066088 0.000005 1.000000 -0.000012
-27.455912 -0.000004 -15.178116 0.000005 1.000000 -0.000012
-18.685928 -0.000000 -11.086223 0.000005 1.000000 -0.000012
-17.952293 -0.000000 -11.069868 -0.000000 1.000000 -0.000000
-18.556236 -0.000000 -11.328753 -0.000000 1.000000 -0.000000
-18.386251 -0.000000 -10.247392 0.000000 1.000000 -0.000000
-17.663149 -0.000000 -9.989522 -0.000000 1.000000 -0.000000
-17.010216 -0.000000 -9.804489 -0.000000 1.000000 -0.000000
-16.359085 -0.000000 -9.611130 -0.000000 1.000000 -0.000000
-16.612337 -0.000000 -10.569526 -0.000000 1.000000 -0.000000
-16.889482 -0.000000 -10.722191 -0.000000 1.000000 -0.000000
-17.227160 -0.000000 -10.815798 -0.000000 1.000000 -0.000000
-16.133331 -0.000000 -10.304138 -0.000000 1.000000 0.000000
-15.604338 -0.000000 -10.014273 -0.000001 1.000000 0.000003
-16.032742 -0.000000 -10.250257 -0.000001 1.000000 0.000003
-16.133331 -0.000000 -10.304138 -0.000001 1.000000 0.000003
-15.392548 -0.000000 -9.897609 -0.000002 1.000000 0.000003
-15.604338 -0.000000 -10.014273 -0.000002 1.000000 0.000003
-16.133331 -0.000000 -10.304138 -0.000002 1.000000 0.000003
-15.636976 -0.000000 -9.353541 0.000000 1.000000 -0.000000
-15.027130 -0.000000 -9.097550 0.000000 1.000000 -0.000000
-14.743088 -0.000000 -9.665253 0.000000 1.000000 -0.000000
-15.392548 -0.000000 -9.897609 0.000000 1.000000 -0.000000
-15.076920 -0.000000 -9.760559 0.000000 1.000000 -0.000000
-15.174628 -0.000000 -9.798629 0.000000 1.000000 -0.000000
3 0 1 2
3 3 4 5
3 6 7 8
3 9 10 11
3 12 13 8
3 8 7 14
3 14 15 16
3 14 16 17
3 12 8 14
3 18 19 20
3 20 12 14
3 20 14 17
3 21 18 20
3 22 23 24
3 25 26 27
3 21 20 17
3 28 29 30
3 21 17 28
3 31 21 28
3 28 30 32
3 33 31 28
3 28 32 33
