ply
format ascii 1.0
comment Created by Blender 2.78 (sub 0) - www.blender.org, source file: 'soult.blend'
element vertex 76
property float x
property float y
property float z
property float nx
property float ny
property float nz
element face 30
property list uchar uint vertex_indices
end_header
-13.577530 -0.000000 -9.933540 0.000000 1.000000 -0.000002
-13.364077 -0.000000 -9.933280 0.000000 1.000000 -0.000002
-18.927685 -0.000008 -13.714580 0.000000 1.000000 -0.000002
-19.128134 -0.000001 -15.665519 -0.000076 1.000000 0.000199
-19.162535 -0.000001 -15.678728 -0.000076 1.000000 0.000199
-19.211100 -0.000001 -15.697374 -0.000076 1.000000 0.000199
-19.128134 -0.000001 -15.665519 -0.000000 1.000000 0.000000
-19.211100 -0.000001 -15.697374 -0.000000 1.000000 0.000000
-19.147984 -0.000001 -15.648284 -0.000000 1.000000 0.000000
-13.889236 -0.000000 -10.000381 0.000001 1.000000 -0.000003
-13.577530 -0.000000 -9.933540 0.000001 1.000000 -0.000003
-18.927685 -0.000008 -13.714580 0.000001 1.000000 -0.000003
-15.021454 -0.000000 -10.067627 -0.000000 1.000000 -0.000000
-14.653702 -0.000000 -10.049377 -0.000000 1.000000 -0.000000
-13.924513 -0.000000 -10.014671 -0.000000 1.000000 -0.000000
-13.924513 -0.000000 -10.014671 0.000002 1.000000 -0.000004
-13.889236 -0.000000 -10.000381 0.000002 1.000000 -0.000004
-18.927685 -0.000008 -13.714580 0.000002 1.000000 -0.000004
-18.362606 0.000004 -15.371589 -0.000004 1.000000 -0.000005
-19.128134 -0.000001 -15.665519 -0.000004 1.000000 -0.000005
-19.147984 -0.000001 -15.648284 -0.000004 1.000000 -0.000005
-18.362606 0.000004 -15.371589 -0.000007 1.000000 0.000005
-19.147984 -0.000001 -15.648284 -0.000007 1.000000 0.000005
-19.098894 -0.000001 -15.571142 -0.000007 1.000000 0.000005
-15.021454 -0.000000 -10.067627 0.000000 1.000000 -0.000002
-13.924513 -0.000000 -10.014671 0.000000 1.000000 -0.000002
-18.362606 0.000004 -15.371589 -0.000006 1.000000 0.000001
-19.098894 -0.000001 -15.571142 -0.000006 1.000000 0.000001
-19.077856 -0.000001 -15.465949 -0.000006 1.000000 0.000001
-19.091883 -0.000001 -15.388807 -0.000003 1.000000 -0.000001
-20.010569 -0.000001 -12.773006 -0.000003 1.000000 -0.000001
-19.811771 -0.000000 -12.520230 -0.000003 1.000000 -0.000001
-18.362606 0.000004 -15.371589 -0.000006 1.000000 -0.000001
-19.077856 -0.000001 -15.465949 -0.000006 1.000000 -0.000001
-19.091883 -0.000001 -15.388807 -0.000006 1.000000 -0.000001
-15.043723 -0.000000 -10.070930 0.000000 1.000000 -0.000002
-18.927685 -0.000008 -13.714580 -0.000006 1.000000 0.000005
-18.362606 0.000004 -15.371589 -0.000006 1.000000 0.000005
-19.091883 -0.000001 -15.388807 -0.000006 1.000000 0.000005
-19.091883 -0.000001 -15.388807 -0.000000 1.000000 -0.000000
-19.811771 -0.000000 -12.520230 -0.000000 1.000000 -0.000000
-19.774031 -0.000000 -12.535863 -0.000000 1.000000 -0.000000
-19.736288 -0.000000 -12.520230 0.000001 1.000000 -0.000000
-19.720655 -0.000000 -12.482489 0.000001 1.000000 -0.000000
-18.910828 -0.000001 -11.892204 0.000001 1.000000 -0.000000
-19.736288 -0.000000 -12.520230 0.000000 1.000000 -0.000000
-15.090378 -0.000000 -10.083290 0.000001 1.000000 -0.000003
-15.043723 -0.000000 -10.070930 0.000001 1.000000 -0.000003
-18.927685 -0.000008 -13.714580 0.000014 1.000000 0.000003
-19.091883 -0.000001 -15.388807 0.000014 1.000000 0.000003
-19.736288 -0.000000 -12.520230 0.000014 1.000000 0.000003
-18.909290 -0.000001 -11.969631 0.000001 1.000000 -0.000000
-18.888710 -0.000001 -12.019382 0.000001 1.000000 0.000000
-15.841599 -0.000000 -10.492409 0.000003 1.000000 -0.000005
-15.090378 -0.000000 -10.083290 0.000003 1.000000 -0.000005
-18.927685 -0.000008 -13.714580 0.000003 1.000000 -0.000005
-17.839127 -0.000001 -11.592720 0.000000 1.000000 -0.000000
-16.878906 -0.000000 -11.062347 0.000000 1.000000 -0.000000
-15.841599 -0.000000 -10.492409 0.000000 1.000000 -0.000000
-18.701393 -0.000001 -12.068790 -0.000000 1.000000 -0.000000
-18.927685 -0.000008 -13.714580 0.000003 1.000000 -0.000004
-19.736288 -0.000000 -12.520230 0.000003 1.000000 -0.000004
-18.888710 -0.000001 -12.019382 0.000003 1.000000 -0.000004
-18.927685 -0.000008 -13.714580 -0.000004 1.000000 -0.000004
-18.888710 -0.000001 -12.019382 -0.000004 1.000000 -0.000004
-18.851562 -0.000001 -12.056240 -0.000004 1.000000 -0.000004
-18.701393 -0.000001 -12.068790 0.000003 1.000000 -0.000005
-18.751884 -0.000001 -12.082531 0.000001 1.000000 -0.000005
-18.701393 -0.000001 -12.068790 0.000001 1.000000 -0.000005
-18.927685 -0.000008 -13.714580 0.000001 1.000000 -0.000005
-18.927685 -0.000008 -13.714580 -0.000002 1.000000 -0.000004
-18.851562 -0.000001 -12.056240 -0.000002 1.000000 -0.000004
-18.804047 -0.000001 -12.078175 -0.000002 1.000000 -0.000004
-18.927685 -0.000008 -13.714580 -0.000000 1.000000 -0.000004
-18.804047 -0.000001 -12.078175 -0.000000 1.000000 -0.000004
-18.751884 -0.000001 -12.082531 -0.000000 1.000000 -0.000004
3 0 1 2
3 3 4 5
3 6 7 8
3 9 10 11
3 12 13 14
3 15 16 17
3 18 19 20
3 21 22 23
3 24 25 2
3 26 27 28
3 29 30 31
3 32 33 34
3 35 24 2
3 36 37 38
3 39 40 41
3 42 43 44
3 39 41 45
3 46 47 11
3 48 49 50
3 42 44 51
3 42 51 52
3 53 54 55
3 56 57 58
3 59 56 58
3 60 61 62
3 63 64 65
3 66 53 55
3 67 68 69
3 70 71 72
3 73 74 75
