ply
format ascii 1.0
comment Created by Blender 2.78 (sub 0) - www.blender.org, source file: 'soult.blend'
element vertex 135
property float x
property float y
property float z
property float nx
property float ny
property float nz
property float s
property float t
element face 49
property list uchar uint vertex_indices
end_header
-34.677704 -0.000000 -7.093819 -0.000000 1.000000 -0.000000 0.828935 0.207891
-34.199219 -0.000000 -6.444180 -0.000000 1.000000 -0.000000 0.801867 0.197457
-33.843746 -0.000000 -6.684927 -0.000000 1.000000 -0.000000 0.806846 0.182846
-33.890427 -0.000000 -6.724171 -0.000000 1.000000 -0.000000 0.808649 0.184092
-34.685791 -0.000000 -7.104179 0.000000 1.000000 -0.000000 0.829371 0.208073
-34.685791 -0.000000 -7.104179 -0.000017 1.000000 0.000036 0.829371 0.208073
-33.890427 -0.000000 -6.724171 -0.000017 1.000000 0.000036 0.808649 0.184092
-34.442608 0.000007 -7.202603 -0.000017 1.000000 0.000036 0.830478 0.198706
-34.695526 -0.000000 -7.112991 -0.000022 1.000000 0.000024 0.829769 0.208327
-34.685791 -0.000000 -7.104179 -0.000022 1.000000 0.000024 0.829371 0.208073
-34.442608 0.000007 -7.202603 -0.000022 1.000000 0.000024 0.830478 0.198706
-34.695526 -0.000000 -7.112991 -0.000024 1.000000 0.000017 0.829769 0.208327
-34.442608 0.000007 -7.202603 -0.000024 1.000000 0.000017 0.830478 0.198706
-34.503269 0.000007 -7.288235 -0.000024 1.000000 0.000017 0.834023 0.199998
-34.706696 -0.000000 -7.119957 -0.000016 1.000000 0.000026 0.830116 0.208648
-34.695526 -0.000000 -7.112991 -0.000016 1.000000 0.000026 0.829769 0.208327
-34.503269 0.000007 -7.288235 -0.000016 1.000000 0.000026 0.834023 0.199998
-34.706696 -0.000000 -7.119957 -0.000031 1.000000 0.000008 0.830116 0.208648
-34.503269 0.000007 -7.288235 -0.000031 1.000000 0.000008 0.834023 0.199998
-34.524666 0.000007 -7.366733 -0.000031 1.000000 0.000008 0.836948 0.199995
-34.716339 -0.000000 -7.124069 -0.000010 1.000000 0.000023 0.830350 0.208944
-34.706696 -0.000000 -7.119957 -0.000010 1.000000 0.000023 0.830116 0.208648
-34.524666 0.000007 -7.366733 -0.000010 1.000000 0.000023 0.836948 0.199995
-34.531807 0.000015 -7.491619 0.000051 1.000000 -0.000062 0.841347 0.199059
-34.492809 0.000006 -7.605572 0.000051 1.000000 -0.000062 0.844930 0.196626
-37.025505 0.000006 -9.711735 0.000051 1.000000 -0.000062 0.941990 0.264491
-34.716339 -0.000000 -7.124069 0.000035 1.000000 0.000059 0.830350 0.208944
-34.524666 0.000007 -7.366733 0.000035 1.000000 0.000059 0.836948 0.199995
-34.531807 0.000015 -7.491619 0.000035 1.000000 0.000059 0.841347 0.199059
-34.757172 -0.000000 -7.126663 0.000000 1.000000 -0.000000 0.830827 0.210335
-34.753357 -0.000000 -7.126450 0.000000 1.000000 -0.000000 0.830784 0.210205
-34.734833 -0.000000 -7.125427 0.000000 1.000000 -0.000000 0.830573 0.209572
-34.734833 -0.000000 -7.125427 -0.000003 1.000000 0.000040 0.830573 0.209572
-34.716339 -0.000000 -7.124069 -0.000003 1.000000 0.000040 0.830350 0.208944
-34.531807 0.000015 -7.491619 -0.000003 1.000000 0.000040 0.841347 0.199059
-37.025505 0.000006 -9.711735 -0.000015 1.000000 -0.000016 0.941990 0.264491
-36.534546 -0.000000 -10.577084 -0.000015 1.000000 -0.000016 0.967345 0.239258
-36.685150 -0.000000 -10.436134 -0.000015 1.000000 -0.000016 0.963885 0.245818
-34.734833 -0.000000 -7.125427 -0.000027 1.000000 0.000027 0.830573 0.209572
-34.531807 0.000015 -7.491619 -0.000027 1.000000 0.000027 0.841347 0.199059
-37.025505 0.000006 -9.711735 -0.000027 1.000000 0.000027 0.941990 0.264491
-34.975189 -0.000000 -7.123970 0.000000 1.000000 -0.000000 0.832801 0.217922
-34.965271 -0.000000 -7.120590 0.000000 1.000000 -0.000000 0.832590 0.217610
-34.757172 -0.000000 -7.126663 -0.000000 1.000000 0.000003 0.830827 0.210335
-34.734833 -0.000000 -7.125427 -0.000000 1.000000 0.000003 0.830573 0.209572
-37.025505 0.000006 -9.711735 -0.000000 1.000000 0.000003 0.941990 0.264491
-37.025505 0.000006 -9.711735 -0.000006 1.000000 -0.000011 0.941990 0.264491
-36.685150 -0.000000 -10.436134 -0.000006 1.000000 -0.000011 0.963885 0.245818
-36.970627 -0.000000 -10.293736 -0.000006 1.000000 -0.000011 0.961654 0.257068
-37.257248 -0.000000 -10.246250 0.000000 1.000000 -0.000000 0.962725 0.267459
-37.390656 -0.000000 -10.249329 0.000000 1.000000 -0.000000 0.964097 0.272057
-37.931404 -0.000000 -9.608263 0.000000 1.000000 -0.000000 0.946992 0.296889
-37.025505 0.000006 -9.711735 -0.000002 1.000000 -0.000011 0.941990 0.264491
-36.970627 -0.000000 -10.293736 -0.000002 1.000000 -0.000011 0.961654 0.257068
-37.257248 -0.000000 -10.246250 -0.000002 1.000000 -0.000011 0.962725 0.267459
-34.975189 -0.000000 -7.123970 0.000000 1.000000 0.000002 0.832801 0.217922
-34.757172 -0.000000 -7.126663 0.000000 1.000000 0.000002 0.830827 0.210335
-37.025505 0.000006 -9.711735 0.000000 1.000000 0.000002 0.941990 0.264491
-37.244160 -0.000000 -9.338108 0.000000 1.000000 -0.000000 0.931105 0.275617
-37.405060 -0.000000 -9.165943 0.000000 1.000000 -0.000000 0.926660 0.282829
-37.931404 -0.000000 -9.608263 -0.000010 1.000000 0.000012 0.946992 0.296889
-37.869843 -0.000000 -9.556529 -0.000010 1.000000 0.000012 0.944614 0.295245
-37.702721 0.000003 -9.737499 -0.000010 1.000000 0.000012 0.949305 0.287733
-37.244160 -0.000000 -9.338108 -0.000011 1.000000 0.000011 0.931105 0.275617
-34.975189 -0.000000 -7.123970 -0.000011 1.000000 0.000011 0.832801 0.217922
-37.025505 0.000006 -9.711735 -0.000011 1.000000 0.000011 0.941990 0.264491
-37.257248 -0.000000 -10.246250 -0.000041 1.000000 -0.000044 0.962725 0.267459
-37.931404 -0.000000 -9.608263 -0.000041 1.000000 -0.000044 0.946992 0.296889
-37.702721 0.000003 -9.737499 -0.000041 1.000000 -0.000044 0.949305 0.287733
-37.702721 0.000003 -9.737499 -0.000004 1.000000 0.000014 0.949305 0.287733
-37.244160 -0.000000 -9.338108 -0.000004 1.000000 0.000014 0.931105 0.275617
-37.025505 0.000006 -9.711735 -0.000004 1.000000 0.000014 0.941990 0.264491
-37.025505 0.000006 -9.711735 -0.000003 1.000000 -0.000010 0.941990 0.264491
-37.257248 -0.000000 -10.246250 -0.000003 1.000000 -0.000010 0.962725 0.267459
-37.702721 0.000003 -9.737499 -0.000003 1.000000 -0.000010 0.949305 0.287733
-37.931404 -0.000000 -9.608263 -0.000000 1.000000 -0.000000 0.802285 0.625716
-37.390656 -0.000000 -10.249329 -0.000000 1.000000 -0.000000 0.741019 0.652222
-37.798676 -0.000000 -10.383583 -0.000000 1.000000 -0.000000 0.740148 0.618044
-38.233685 -0.000000 -9.862288 -0.000000 1.000000 -0.000000 0.789859 0.596849
-38.588337 -0.000000 -10.160325 -0.000000 1.000000 -0.000000 0.878446 0.213997
-38.233685 -0.000000 -9.862288 -0.000000 1.000000 -0.000000 0.849631 0.238212
-37.798676 -0.000000 -10.383583 -0.000000 1.000000 -0.000000 0.814286 0.195857
-37.956818 -0.000000 -10.489220 0.000000 1.000000 -0.000000 0.827135 0.187274
-38.170044 -0.000000 -10.671661 0.000000 1.000000 -0.000000 0.844460 0.172451
-37.405060 -0.000000 -9.165943 -0.000003 1.000000 0.000008 0.552302 0.790687
-37.244160 -0.000000 -9.338108 -0.000003 1.000000 0.000008 0.572888 0.789758
-37.702721 0.000003 -9.737499 -0.000003 1.000000 0.000008 0.573765 0.836278
-37.869843 -0.000000 -9.556529 -0.000003 1.000000 0.000008 0.552239 0.837137
-31.244589 -0.000001 -11.703851 0.000000 1.000000 -0.000000 0.866577 0.252362
-31.119781 -0.000001 -11.924583 0.000000 1.000000 -0.000000 0.854408 0.230839
-30.827482 -0.000001 -12.446133 0.000000 1.000000 -0.000000 0.825908 0.179986
-30.868534 -0.000001 -12.462494 -0.000000 1.000000 -0.000000 0.829910 0.178391
-31.292095 -0.000001 -11.726395 -0.000000 1.000000 -0.000000 0.871209 0.250163
-34.146904 -0.000000 -6.946395 0.000000 1.000000 -0.000000 0.751125 0.574628
-33.890427 -0.000000 -6.724171 0.000000 1.000000 -0.000000 0.726117 0.596295
-34.005829 -0.000000 -6.864214 0.000000 1.000000 -0.000000 0.737370 0.582641
-34.063446 -0.000000 -6.988060 -0.000000 1.000000 -0.000000 0.742988 0.570565
-34.503269 0.000007 -7.288235 0.000067 1.000000 -0.000047 0.785872 0.541297
-34.442608 0.000007 -7.202603 0.000067 1.000000 -0.000047 0.779957 0.549647
-34.146904 -0.000000 -6.946395 0.000067 1.000000 -0.000047 0.751125 0.574628
-34.531807 0.000015 -7.491619 -0.000284 1.000000 0.000077 0.788654 0.521467
-34.524666 0.000007 -7.366733 -0.000284 1.000000 0.000077 0.787958 0.533643
-34.503269 0.000007 -7.288235 -0.000284 1.000000 0.000077 0.785872 0.541297
-34.299522 0.000007 -7.490854 0.000033 1.000000 -0.000038 0.766006 0.521541
-34.492809 0.000009 -7.605573 0.000033 1.000000 -0.000038 0.784852 0.510356
-34.531807 0.000015 -7.491619 0.000033 1.000000 -0.000038 0.788654 0.521467
-34.063732 -0.000000 -7.075988 0.000016 1.000000 0.000009 0.743015 0.561992
-33.939068 -0.000000 -7.282522 0.000016 1.000000 0.000009 0.730860 0.541854
-34.299522 0.000007 -7.490854 0.000016 1.000000 0.000009 0.766006 0.521541
-34.063732 -0.000000 -7.075988 0.000000 1.000000 -0.000000 0.743015 0.561992
-34.531807 0.000015 -7.491619 -0.000017 1.000000 0.000040 0.788654 0.521467
-34.503269 0.000007 -7.288235 -0.000017 1.000000 0.000040 0.785872 0.541297
-34.146904 -0.000000 -6.946395 -0.000017 1.000000 0.000040 0.751125 0.574628
-34.063732 -0.000000 -7.075988 0.000033 1.000000 -0.000000 0.743015 0.561992
-34.299522 0.000007 -7.490854 0.000033 1.000000 -0.000000 0.766006 0.521541
-34.531807 0.000015 -7.491619 0.000033 1.000000 -0.000000 0.788654 0.521467
-34.146904 -0.000000 -6.946395 0.000021 1.000000 0.000013 0.751125 0.574628
-34.063732 -0.000000 -7.075988 0.000021 1.000000 0.000013 0.743015 0.561992
-34.531807 0.000015 -7.491619 0.000021 1.000000 0.000013 0.788654 0.521467
-33.239414 -0.000000 -8.175798 -0.000000 1.000000 -0.000000 0.703657 0.520186
-33.310196 -0.000000 -8.219170 -0.000000 1.000000 -0.000000 0.710559 0.515958
-33.766052 -0.000000 -7.426944 -0.000000 1.000000 -0.000000 0.755006 0.593202
-33.607819 -0.000000 -7.524239 -0.000000 1.000000 -0.000000 0.739578 0.583716
-32.674469 -0.000000 -9.174963 -0.000000 1.000000 -0.000000 0.721815 0.503819
-32.738983 -0.000000 -9.211872 -0.000000 1.000000 -0.000000 0.728106 0.500221
-33.310196 -0.000000 -8.219170 -0.000000 1.000000 -0.000000 0.783801 0.597012
-33.239414 -0.000000 -8.175798 -0.000000 1.000000 -0.000000 0.776899 0.601241
-31.244589 -0.000001 -11.703851 0.000000 1.000000 -0.000000 0.817342 0.172070
-31.292095 -0.000001 -11.726395 0.000000 1.000000 -0.000000 0.820753 0.168243
-32.165485 -0.000000 -10.208545 0.000000 1.000000 -0.000000 0.956807 0.271412
-32.102322 -0.000000 -10.186863 0.000000 1.000000 -0.000000 0.951957 0.275757
-32.102322 -0.000000 -10.186863 0.000000 1.000000 -0.000000 0.734388 0.496953
-32.165485 -0.000000 -10.208545 0.000000 1.000000 -0.000000 0.740547 0.494839
-32.738983 -0.000000 -9.211872 0.000000 1.000000 -0.000000 0.796465 0.592017
-32.674469 -0.000000 -9.174963 0.000000 1.000000 -0.000000 0.790175 0.595616
3 0 1 2
3 0 2 3
3 4 0 3
3 5 6 7
3 8 9 10
3 11 12 13
3 14 15 16
3 17 18 19
3 20 21 22
3 23 24 25
3 26 27 28
3 29 30 31
3 32 33 34
3 35 36 37
3 38 39 40
3 41 42 29
3 43 44 45
3 46 47 48
3 49 50 51
3 52 53 54
3 55 56 57
3 58 59 41
3 60 61 62
3 63 64 65
3 66 67 68
3 69 70 71
3 72 73 74
4 75 76 77 78
3 79 80 81
3 82 83 79
3 81 82 79
4 84 85 86 87
3 88 89 90
3 90 91 92
3 90 92 88
3 93 94 95
3 93 95 96
3 97 98 99
3 100 101 102
3 103 104 105
3 106 107 108
3 93 96 109
3 110 111 112
3 113 114 115
3 116 117 118
4 119 120 121 122
4 123 124 125 126
4 127 128 129 130
4 131 132 133 134
