ply
format ascii 1.0
comment Created by Blender 2.78 (sub 0) - www.blender.org, source file: 'soult.blend'
element vertex 33
property float x
property float y
property float z
property float nx
property float ny
property float nz
element face 21
property list uchar uint vertex_indices
end_header
-18.685928 -0.000000 -11.086223 0.000033 1.000000 -0.000069
-28.556629 -0.000046 -16.506971 0.000033 1.000000 -0.000069
-28.784748 -0.000008 -16.066088 0.000033 1.000000 -0.000069
-28.784748 -0.000008 -16.066088 0.000011 1.000000 -0.000021
-27.455912 -0.000004 -15.178116 0.000011 1.000000 -0.000021
-18.993301 -0.000000 -10.511428 0.000011 1.000000 -0.000021
-28.784748 -0.000008 -16.066088 -0.000001 1.000000 -0.000000
-18.993301 -0.000000 -10.511428 -0.000001 1.000000 -0.000000
-18.685928 -0.000000 -11.086223 -0.000001 1.000000 -0.000000
-17.952293 -0.000000 -11.069868 -0.000000 1.000000 -0.000000
-18.556236 -0.000000 -11.328753 -0.000000 1.000000 -0.000000
-18.685928 -0.000000 -11.086223 -0.000000 1.000000 -0.000000
-18.993301 -0.000000 -10.511428 0.000000 1.000000 -0.000000
-18.386251 -0.000000 -10.247392 0.000000 1.000000 -0.000000
-17.663149 -0.000000 -9.989522 -0.000000 1.000000 -0.000000
-17.010216 -0.000000 -9.804489 -0.000000 1.000000 -0.000000
-16.359085 -0.000000 -9.611130 -0.000000 1.000000 -0.000000
-16.612337 -0.000000 -10.569526 -0.000000 1.000000 -0.000000
-16.889482 -0.000000 -10.722191 -0.000000 1.000000 -0.000000
-17.227160 -0.000000 -10.815798 -0.000000 1.000000 -0.000000
-16.133331 -0.000000 -10.304138 -0.000000 1.000000 0.000000
-15.604338 -0.000000 -10.014273 -0.000001 1.000000 0.000003
-16.032742 -0.000000 -10.250257 -0.000001 1.000000 0.000003
-16.133331 -0.000000 -10.304138 -0.000001 1.000000 0.000003
-15.392548 -0.000000 -9.897609 -0.000002 1.000000 0.000003
-15.604338 -0.000000 -10.014273 -0.000002 1.000000 0.000003
-16.133331 -0.000000 -10.304138 -0.000002 1.000000 0.000003
-15.636976 -0.000000 -9.353541 0.000000 1.000000 -0.000000
-15.027130 -0.000000 -9.097550 0.000000 1.000000 -0.000000
-14.743088 -0.000000 -9.665253 0.000000 1.000000 -0.000000
-15.392548 -0.000000 -9.897609 0.000000 1.000000 -0.000000
-15.076920 -0.000000 -9.760559 0.000000 1.000000 -0.000000
-15.174628 -0.000000 -9.798629 0.000000 1.000000 -0.000000
3 0 1 2
3 3 4 5
3 6 7 8
3 9 10 11
3 11 12 13
3 13 14 15
3 13 15 16
3 9 11 13
3 17 18 19
3 19 9 13
3 19 13 16
3 20 17 19
3 21 22 23
3 24 25 26
3 20 19 16
3 27 28 29
3 20 16 27
3 30 20 27
3 27 29 31
3 32 30 27
3 27 31 32
