ply
format ascii 1.0
comment Created by Blender 2.78 (sub 0) - www.blender.org, source file: 'soult.blend'
element vertex 76
property float x
property float y
property float z
property float nx
property float ny
property float nz
element face 41
property list uchar uint vertex_indices
end_header
-13.577530 -0.000000 -9.933540 0.000000 1.000000 -0.000002
-13.364077 -0.000000 -9.933280 0.000000 1.000000 -0.000002
-18.927685 -0.000008 -13.714580 0.000000 1.000000 -0.000002
-19.128134 -0.000001 -15.665519 -0.000076 1.000000 0.000199
-19.162535 -0.000001 -15.678728 -0.000076 1.000000 0.000199
-19.211100 -0.000001 -15.697374 -0.000076 1.000000 0.000199
-19.128134 -0.000001 -15.665519 -0.000000 1.000000 0.000000
-19.211100 -0.000001 -15.697374 -0.000000 1.000000 0.000000
-19.147984 -0.000001 -15.648284 -0.000000 1.000000 0.000000
-12.925747 -0.000000 -9.646208 0.000000 1.000000 -0.000000
-13.267250 -0.000000 -9.852661 0.000000 1.000000 -0.000000
-13.285917 -0.000000 -9.797937 0.000000 1.000000 -0.000000
-13.626974 -0.000000 -9.579306 -0.000000 1.000000 0.000000
-13.297442 -0.000000 -9.562407 -0.000000 1.000000 0.000000
-13.872158 -0.000000 -9.861916 0.000000 1.000000 -0.000000
-13.860168 -0.000000 -9.657035 0.000000 1.000000 -0.000000
-13.879494 -0.000000 -9.980040 0.000000 1.000000 -0.000000
-13.313766 -0.000000 -9.773613 0.000000 1.000000 -0.000000
-13.549042 -0.000000 -9.700706 -0.000000 1.000000 -0.000000
-13.889236 -0.000000 -10.000381 0.000000 1.000000 -0.000000
-15.021454 -0.000000 -10.067627 -0.000000 1.000000 -0.000000
-14.653702 -0.000000 -10.049377 -0.000000 1.000000 -0.000000
-13.924513 -0.000000 -10.014671 -0.000000 1.000000 -0.000000
-15.043723 -0.000000 -10.070930 -0.000000 1.000000 -0.000000
-15.841599 -0.000000 -10.492409 0.000000 1.000000 -0.000000
-15.090378 -0.000000 -10.083290 0.000000 1.000000 -0.000000
-17.839127 -0.000001 -11.592720 0.000000 1.000000 -0.000000
-16.878906 -0.000000 -11.062347 0.000000 1.000000 -0.000000
-18.701393 -0.000001 -12.068790 -0.000000 1.000000 -0.000000
-13.560364 -0.000000 -9.706429 -0.000000 1.000000 -0.000000
-18.362606 0.000004 -15.371589 -0.000004 1.000000 -0.000005
-19.128134 -0.000001 -15.665519 -0.000004 1.000000 -0.000005
-19.147984 -0.000001 -15.648284 -0.000004 1.000000 -0.000005
-18.362606 0.000004 -15.371589 -0.000007 1.000000 0.000005
-19.147984 -0.000001 -15.648284 -0.000007 1.000000 0.000005
-19.098894 -0.000001 -15.571142 -0.000007 1.000000 0.000005
-18.362606 0.000004 -15.371589 -0.000006 1.000000 0.000001
-19.098894 -0.000001 -15.571142 -0.000006 1.000000 0.000001
-19.077856 -0.000001 -15.465949 -0.000006 1.000000 0.000001
-19.091883 -0.000001 -15.388807 -0.000003 1.000000 -0.000001
-20.010569 -0.000001 -12.773006 -0.000003 1.000000 -0.000001
-19.811771 -0.000000 -12.520230 -0.000003 1.000000 -0.000001
-18.362606 0.000004 -15.371589 -0.000006 1.000000 -0.000001
-19.077856 -0.000001 -15.465949 -0.000006 1.000000 -0.000001
-19.091883 -0.000001 -15.388807 -0.000006 1.000000 -0.000001
-18.927685 -0.000008 -13.714580 -0.000006 1.000000 0.000005
-18.362606 0.000004 -15.371589 -0.000006 1.000000 0.000005
-19.091883 -0.000001 -15.388807 -0.000006 1.000000 0.000005
-19.091883 -0.000001 -15.388807 -0.000000 1.000000 -0.000000
-19.811771 -0.000000 -12.520230 -0.000000 1.000000 -0.000000
-19.774031 -0.000000 -12.535863 -0.000000 1.000000 -0.000000
-19.736288 -0.000000 -12.520230 0.000001 1.000000 -0.000000
-19.720655 -0.000000 -12.482489 0.000001 1.000000 -0.000000
-18.910828 -0.000001 -11.892204 0.000001 1.000000 -0.000000
-19.736288 -0.000000 -12.520230 0.000000 1.000000 -0.000000
-18.927685 -0.000008 -13.714580 0.000014 1.000000 0.000003
-19.091883 -0.000001 -15.388807 0.000014 1.000000 0.000003
-19.736288 -0.000000 -12.520230 0.000014 1.000000 0.000003
-18.909290 -0.000001 -11.969631 0.000001 1.000000 -0.000000
-18.888710 -0.000001 -12.019382 0.000001 1.000000 0.000000
-13.577530 -0.000000 -9.933540 0.000002 1.000000 -0.000005
-18.927685 -0.000008 -13.714580 0.000002 1.000000 -0.000005
-19.736288 -0.000000 -12.520230 0.000002 1.000000 -0.000005
-13.577530 -0.000000 -9.933540 -0.000000 1.000000 -0.000000
-18.888710 -0.000001 -12.019382 0.000000 1.000000 0.000000
-18.851562 -0.000001 -12.056240 0.000000 1.000000 0.000000
-19.736288 -0.000000 -12.520230 0.000000 1.000000 0.000001
-18.851562 -0.000001 -12.056240 0.000000 1.000000 0.000001
-18.804047 -0.000001 -12.078175 0.000000 1.000000 0.000001
-18.701393 -0.000001 -12.068790 -0.000011 1.000000 0.000027
-13.577530 -0.000000 -9.933540 -0.000011 1.000000 0.000027
-19.736288 -0.000000 -12.520230 -0.000011 1.000000 0.000027
-18.751884 -0.000001 -12.082531 0.000000 1.000000 0.000001
-19.736288 -0.000000 -12.520230 -0.000001 1.000000 0.000003
-18.751884 -0.000001 -12.082531 -0.000001 1.000000 0.000003
-18.701393 -0.000001 -12.068790 -0.000001 1.000000 0.000003
3 0 1 2
3 3 4 5
3 6 7 8
3 9 10 11
3 12 13 9
3 14 15 12
3 16 14 12
3 9 11 17
3 9 17 18
3 19 16 12
3 20 21 22
3 23 20 22
3 24 25 23
3 26 27 24
3 28 26 24
3 24 23 22
3 28 24 22
3 28 22 19
3 12 9 18
3 12 18 29
3 19 12 29
3 30 31 32
3 33 34 35
3 36 37 38
3 39 40 41
3 42 43 44
3 45 46 47
3 48 49 50
3 51 52 53
3 48 50 54
3 55 56 57
3 51 53 58
3 51 58 59
3 60 61 62
3 19 29 63
3 28 19 63
3 54 64 65
3 66 67 68
3 69 70 71
3 66 68 72
3 73 74 75
