ply
format ascii 1.0
comment Created by Blender 2.78 (sub 0) - www.blender.org, source file: 'soult.blend'
element vertex 72
property float x
property float y
property float z
property float nx
property float ny
property float nz
element face 54
property list uchar uint vertex_indices
end_header
-33.970520 -0.000001 -11.540680 -0.000000 1.000000 -0.000000
-33.617859 -0.000001 -11.640999 -0.000000 1.000000 -0.000000
-33.694153 -0.000001 -11.985909 -0.000000 1.000000 -0.000000
-33.357147 -0.000001 -12.098328 -0.000000 1.000000 -0.000000
-33.454285 -0.000001 -12.452698 -0.000000 1.000000 -0.000000
-33.101105 -0.000001 -12.553467 -0.000000 1.000000 -0.000000
-33.177582 -0.000001 -12.898552 -0.000000 1.000000 -0.000000
-32.844177 -0.000001 -13.009087 0.000000 1.000000 -0.000000
-32.932922 -0.000001 -13.351120 0.000000 1.000000 -0.000000
-32.564423 -0.000001 -13.456429 -0.000000 1.000000 -0.000000
-32.660309 -0.000001 -13.813301 -0.000000 1.000000 -0.000000
-32.324127 -0.000001 -13.923210 -0.000000 1.000000 -0.000000
-32.399994 -0.000001 -14.268677 -0.000000 1.000000 -0.000000
-32.065765 -0.000001 -14.381668 -0.000000 1.000000 -0.000000
-32.159607 -0.000001 -14.734573 -0.000000 1.000000 -0.000000
-31.785065 -0.000001 -14.827759 -0.000000 1.000000 -0.000000
-31.789581 -0.000001 -14.844353 -0.000000 1.000000 -0.000000
-33.485367 0.000007 -15.820094 -0.000001 1.000000 0.000001
-36.516335 -0.000000 -10.547380 -0.000001 1.000000 0.000001
-35.834373 -0.000000 -9.435077 -0.000001 1.000000 0.000001
-35.834373 -0.000000 -9.435077 0.000000 1.000000 -0.000000
-35.820198 -0.000000 -9.426935 0.000000 1.000000 -0.000000
-35.767975 -0.000000 -9.474052 0.000000 1.000000 -0.000000
-35.701569 -0.000000 -9.515602 -0.000000 1.000000 -0.000000
-32.159607 -0.000001 -14.734573 0.000002 1.000000 0.000005
-31.789581 -0.000001 -14.844353 0.000002 1.000000 0.000005
-33.485367 0.000007 -15.820094 0.000002 1.000000 0.000005
-32.159607 -0.000001 -14.734573 0.000004 1.000000 0.000003
-33.485367 0.000007 -15.820094 0.000004 1.000000 0.000003
-35.834373 -0.000000 -9.435077 0.000004 1.000000 0.000003
-34.213043 -0.000000 -11.071732 -0.000000 1.000000 -0.000000
-33.875824 -0.000000 -11.183434 -0.000000 1.000000 -0.000000
-34.490997 -0.000000 -10.626183 -0.000000 1.000000 -0.000000
-34.137115 -0.000000 -10.727501 -0.000000 1.000000 -0.000000
-34.748901 -0.000000 -10.171776 0.000000 1.000000 -0.000000
-34.396332 -0.000000 -10.272469 0.000000 1.000000 -0.000000
-35.005676 -0.000000 -9.713852 -0.000000 1.000000 -0.000000
-34.654022 -0.000000 -9.813789 -0.000000 1.000000 -0.000000
-32.374001 -0.000000 -11.228922 0.000000 1.000000 -0.000000
-33.993824 -0.000000 -8.378098 0.000000 1.000000 -0.000000
-33.835064 -0.000000 -8.286922 0.000000 1.000000 -0.000000
-30.496435 0.000015 -14.100286 -0.000732 1.000000 -0.000411
-30.512190 -0.000001 -14.109352 -0.000732 1.000000 -0.000411
-31.019623 -0.000001 -13.205742 -0.000732 1.000000 -0.000411
-33.835064 -0.000000 -8.286922 -0.001366 0.999999 -0.000782
-30.496435 0.000015 -14.100286 -0.001366 0.999999 -0.000782
-31.019623 -0.000001 -13.205742 -0.001366 0.999999 -0.000782
-31.019623 -0.000001 -13.205742 0.000000 1.000000 -0.000000
-31.149414 -0.000001 -13.064842 0.000000 1.000000 -0.000000
-32.372528 -0.000000 -11.276329 0.000000 1.000000 -0.000000
-31.367035 -0.000001 -12.889038 0.000000 1.000000 -0.000000
-32.394875 -0.000000 -11.318148 0.000000 1.000000 -0.000000
-31.562897 -0.000001 -12.776428 0.000000 1.000000 -0.000000
-31.932220 -0.000001 -12.607742 0.000000 1.000000 -0.000000
-32.065552 -0.000001 -12.543602 0.000000 1.000000 -0.000000
-32.433197 -0.000000 -11.345978 -0.000000 1.000000 -0.000000
-32.066254 -0.000001 -12.543266 0.000000 1.000000 -0.000000
-32.430237 -0.000001 -12.360634 0.000000 1.000000 -0.000000
-32.430939 -0.000001 -12.360268 0.000000 1.000000 -0.000000
-32.625824 -0.000001 -12.207642 -0.000000 1.000000 -0.000000
-32.740540 -0.000001 -12.101479 -0.000000 1.000000 -0.000000
-32.895355 -0.000001 -11.910576 -0.000000 1.000000 -0.000000
-34.551483 -0.000000 -9.034592 -0.000000 1.000000 -0.000000
-34.182266 -0.000000 -8.486311 -0.000000 1.000000 -0.000000
-34.143730 -0.000000 -8.464182 -0.000000 1.000000 -0.000000
-32.529755 -0.000000 -11.325958 0.000000 1.000000 -0.000000
-32.483246 -0.000000 -11.344505 -0.000000 1.000000 -0.000000
-36.516335 -0.000000 -10.547380 -0.000024 1.000000 0.000014
-36.827789 -0.000016 -10.005570 -0.000024 1.000000 0.000014
-35.834373 -0.000000 -9.435077 -0.000024 1.000000 0.000014
-34.782150 -0.000000 -8.830814 0.000000 1.000000 -0.000000
-34.681061 -0.000000 -8.902840 0.000000 1.000000 -0.000000
3 0 1 2
3 2 3 4
3 4 5 6
3 6 7 8
3 8 9 10
3 10 11 12
3 12 13 14
3 14 15 16
3 17 18 19
3 20 21 22
3 20 22 23
3 24 25 26
3 10 12 14
3 4 6 8
3 8 10 14
3 27 28 29
3 14 20 23
3 4 8 14
3 0 2 4
3 30 31 0
3 32 33 30
3 34 35 32
3 36 37 34
3 4 14 23
3 32 30 0
3 0 4 23
3 23 36 34
3 32 0 23
3 23 34 32
3 38 39 40
3 41 42 43
3 44 45 46
3 38 40 47
3 38 47 48
3 49 38 48
3 49 48 50
3 51 49 50
3 52 53 54
3 51 50 52
3 55 51 52
3 52 54 56
3 56 57 58
3 58 59 60
3 60 61 62
3 62 63 64
3 62 64 65
3 58 60 62
3 52 56 58
3 66 55 52
3 58 62 65
3 65 66 52
3 52 58 65
3 67 68 69
4 70 63 62 71
