ply
format ascii 1.0
comment Created by Blender 2.78 (sub 0) - www.blender.org, source file: 'soult.blend'
element vertex 72
property float x
property float y
property float z
property float nx
property float ny
property float nz
element face 62
property list uchar uint vertex_indices
end_header
-15.527596 -0.000000 -8.558411 -0.000000 1.000000 -0.000000
-15.363724 -0.000000 -8.424820 -0.000000 1.000000 -0.000000
-14.850555 -0.000000 -8.985906 -0.000000 1.000000 -0.000000
-14.876221 -0.000000 -8.999199 -0.000000 1.000000 -0.000000
-18.386251 -0.000000 -10.247392 0.000000 1.000000 -0.000000
-18.993301 -0.000000 -10.511428 0.000000 1.000000 -0.000000
-15.849518 -0.000000 -8.777794 0.000000 1.000000 -0.000000
-14.893870 -0.000000 -9.009868 0.000000 1.000000 -0.000000
-17.663149 -0.000000 -9.989522 0.000000 1.000000 -0.000000
-16.359085 -0.000000 -9.611130 -0.000000 1.000000 -0.000000
-17.010216 -0.000000 -9.804489 -0.000000 1.000000 -0.000000
-15.027130 -0.000000 -9.097550 -0.000000 1.000000 -0.000000
-15.636976 -0.000000 -9.353541 -0.000000 1.000000 -0.000000
-14.907715 -0.000000 -9.025162 0.000000 1.000000 -0.000000
-14.914373 -0.000000 -9.044676 0.000000 1.000000 -0.000000
-30.613190 -0.000001 -12.341061 -0.000000 1.000000 -0.000000
-30.066620 -0.000001 -12.454372 -0.000000 1.000000 -0.000000
-30.080397 -0.000001 -12.523225 -0.000000 1.000000 -0.000000
-30.098663 -0.000001 -12.716522 -0.000000 1.000000 -0.000000
-30.607895 -0.000001 -12.355465 -0.000000 1.000000 -0.000000
-30.080643 -0.000001 -12.881725 -0.000000 1.000000 -0.000000
-30.615677 -0.000001 -12.432232 0.000000 1.000000 -0.000000
-30.030975 -0.000001 -13.040329 -0.000000 1.000000 -0.000000
-30.619339 -0.000001 -12.445366 0.000000 1.000000 -0.000000
-28.906738 -0.000001 -14.958992 -0.000000 1.000000 -0.000000
-28.796265 -0.000001 -15.035873 -0.000000 1.000000 -0.000000
-28.937988 -0.000001 -15.817558 -0.000000 1.000000 -0.000000
-30.628357 -0.000001 -12.459167 -0.000000 1.000000 -0.000000
-31.119781 -0.000001 -11.924583 0.000000 1.000000 -0.000000
-30.885864 -0.000001 -12.133888 0.000000 1.000000 -0.000000
-30.898560 -0.000001 -12.144623 0.000000 1.000000 -0.000000
-30.906311 -0.000001 -12.157021 -0.000000 1.000000 -0.000000
-30.637817 -0.000001 -12.467178 0.000000 1.000000 -0.000000
-30.648758 -0.000001 -12.471996 -0.000000 1.000000 -0.000000
-30.909348 -0.000001 -12.169189 -0.000000 1.000000 -0.000000
-30.907217 -0.000001 -12.189774 0.000000 1.000000 -0.000000
-30.660950 -0.000001 -12.474312 0.000000 1.000000 -0.000000
-30.673309 -0.000001 -12.473038 -0.000000 1.000000 -0.000000
-30.903015 -0.000001 -12.200249 -0.000000 1.000000 -0.000000
-30.867584 -0.000001 -12.241096 0.000000 1.000000 -0.000000
-30.832855 -0.000001 -12.282562 0.000000 1.000000 -0.000000
-30.798889 -0.000001 -12.324631 0.000000 1.000000 -0.000000
-30.792969 -0.000001 -12.332077 0.000000 1.000000 -0.000000
-30.759857 -0.000001 -12.374840 -0.000000 1.000000 -0.000000
-30.727509 -0.000001 -12.418159 -0.000000 1.000000 -0.000000
-30.695084 -0.000001 -12.461670 -0.000000 1.000000 -0.000000
-30.685028 -0.000001 -12.468948 0.000000 1.000000 -0.000000
-27.500969 -0.000001 -15.193604 0.000006 1.000000 -0.000018
-27.455910 -0.000001 -15.178116 0.000006 1.000000 -0.000018
-28.784748 -0.000008 -16.066088 0.000006 1.000000 -0.000018
-28.874084 -0.000001 -15.917595 -0.000000 1.000000 -0.000000
-27.500969 -0.000001 -15.193604 0.000021 1.000000 -0.000039
-28.784748 -0.000008 -16.066088 0.000021 1.000000 -0.000039
-28.874084 -0.000001 -15.917595 0.000021 1.000000 -0.000039
-27.649750 -0.000001 -15.219254 0.000000 1.000000 -0.000000
-27.500969 -0.000001 -15.193604 0.000000 1.000000 -0.000000
-28.197159 -0.000001 -15.225525 0.000000 1.000000 -0.000000
-27.842560 -0.000001 -15.238358 -0.000000 1.000000 -0.000000
-21.856354 -0.000000 -8.808289 0.000000 1.000000 -0.000000
-21.885117 -0.000000 -8.811836 0.000000 1.000000 -0.000000
-20.971985 -0.000000 -8.549629 0.000000 1.000000 -0.000000
-21.036369 -0.000000 -8.578848 -0.000000 1.000000 -0.000000
-21.827408 -0.000000 -8.809792 -0.000000 1.000000 -0.000000
-21.096939 -0.000000 -8.653036 -0.000000 1.000000 -0.000000
-21.799149 -0.000000 -8.816292 -0.000000 1.000000 -0.000000
-21.106121 -0.000000 -8.736944 0.000000 1.000000 -0.000000
-21.772461 -0.000000 -8.827614 0.000000 1.000000 -0.000000
-21.089371 -0.000000 -8.791367 -0.000000 1.000000 -0.000000
-21.080032 -0.000000 -8.806404 -0.000000 1.000000 -0.000000
-21.709473 -0.000000 -8.886284 -0.000000 1.000000 -0.000000
-21.748138 -0.000000 -8.843376 0.000000 1.000000 -0.000000
-21.726929 -0.000000 -8.863136 -0.000000 1.000000 -0.000000
3 0 1 2
3 0 2 3
3 4 5 6
3 6 0 3
3 6 3 7
3 8 4 6
3 9 10 8
3 11 12 9
3 13 14 11
3 6 7 13
3 9 8 6
3 13 11 9
3 13 9 6
3 15 16 17
3 15 17 18
3 19 15 18
3 19 18 20
3 21 19 20
3 21 20 22
3 23 21 22
3 24 25 26
3 23 22 24
3 27 23 24
3 24 26 28
3 28 29 30
3 28 30 31
3 32 27 24
3 33 32 24
3 28 31 34
3 28 34 35
3 36 33 24
3 37 36 24
3 28 35 38
3 38 39 40
3 40 41 42
3 42 43 44
3 42 44 45
3 38 40 42
3 24 28 38
3 46 37 24
3 38 42 45
3 45 46 24
3 24 38 45
3 47 48 49
3 50 26 25
3 51 52 53
3 54 55 50
3 50 25 56
3 57 54 50
3 50 56 57
3 58 59 60
3 58 60 61
3 62 58 61
3 62 61 63
3 64 62 63
3 64 63 65
3 66 64 65
3 67 68 69
3 66 65 67
3 70 66 67
3 67 69 71
3 67 71 70
