ply
format ascii 1.0
comment Created by Blender 2.78 (sub 0) - www.blender.org, source file: 'soult.blend'
element vertex 202
property float x
property float y
property float z
property float nx
property float ny
property float nz
element face 138
property list uchar uint vertex_indices
end_header
-33.970520 -0.000001 -11.540680 -0.000000 1.000000 -0.000000
-33.617859 -0.000001 -11.640999 -0.000000 1.000000 -0.000000
-33.694153 -0.000001 -11.985909 -0.000000 1.000000 -0.000000
-33.357147 -0.000001 -12.098328 -0.000000 1.000000 -0.000000
-33.454285 -0.000001 -12.452698 -0.000000 1.000000 -0.000000
-33.101105 -0.000001 -12.553467 -0.000000 1.000000 -0.000000
-33.177582 -0.000001 -12.898552 -0.000000 1.000000 -0.000000
-32.844177 -0.000001 -13.009087 0.000000 1.000000 -0.000000
-32.932922 -0.000001 -13.351120 0.000000 1.000000 -0.000000
-32.564423 -0.000001 -13.456429 -0.000000 1.000000 -0.000000
-32.660309 -0.000001 -13.813301 -0.000000 1.000000 -0.000000
-32.324127 -0.000001 -13.923210 -0.000000 1.000000 -0.000000
-32.399994 -0.000001 -14.268677 -0.000000 1.000000 -0.000000
-32.065765 -0.000001 -14.381668 -0.000000 1.000000 -0.000000
-32.159607 -0.000001 -14.734573 -0.000000 1.000000 -0.000000
-31.785065 -0.000001 -14.827759 -0.000000 1.000000 -0.000000
-31.789581 -0.000001 -14.844353 -0.000000 1.000000 -0.000000
-32.129822 -0.000001 -16.094406 0.000000 1.000000 -0.000000
-32.129608 -0.000001 -16.124725 -0.000000 1.000000 -0.000000
-34.213043 -0.000000 -11.071732 -0.000000 1.000000 -0.000000
-33.875824 -0.000000 -11.183434 -0.000000 1.000000 -0.000000
-34.490997 -0.000000 -10.626183 -0.000000 1.000000 -0.000000
-34.137115 -0.000000 -10.727501 -0.000000 1.000000 -0.000000
-34.748901 -0.000000 -10.171776 0.000000 1.000000 -0.000000
-34.396332 -0.000000 -10.272469 0.000000 1.000000 -0.000000
-35.005676 -0.000000 -9.713852 -0.000000 1.000000 -0.000000
-34.654022 -0.000000 -9.813789 -0.000000 1.000000 -0.000000
-35.701569 -0.000000 -9.515602 0.000000 1.000000 -0.000000
-35.826111 -0.000000 -9.421600 0.000000 -1.000000 0.000000
-35.820198 -0.000000 -9.426935 0.000000 -1.000000 0.000000
-35.767975 -0.000000 -9.474052 0.000000 -1.000000 0.000000
-35.767975 -0.000000 -9.474052 0.000000 1.000000 -0.000000
-35.826111 -0.000000 -9.421600 -0.000000 1.000000 -0.000000
-31.771179 -0.000001 -16.801895 0.000000 1.000000 -0.000000
-35.874298 -0.000000 -9.359840 -0.000000 1.000000 -0.000000
-34.182266 -0.000000 -8.486311 -0.000000 1.000000 -0.000000
-34.782150 -0.000000 -8.830814 -0.000000 1.000000 -0.000000
-34.831573 -0.000000 -8.795601 -0.000000 1.000000 -0.000000
-34.154503 -0.000000 -8.445082 -0.000000 1.000000 -0.000000
-34.143730 -0.000000 -8.464182 -0.000000 1.000000 -0.000000
-34.147186 -0.000000 -8.401993 -0.000000 1.000000 -0.000000
-34.935913 -0.000000 -8.741737 0.000000 1.000000 -0.000000
-35.112579 -0.000000 -8.680870 0.000000 1.000000 -0.000000
-35.297150 -0.000000 -8.651604 -0.000000 1.000000 -0.000000
-34.107327 -0.000000 -8.361510 -0.000000 1.000000 -0.000000
-35.483978 -0.000000 -8.654823 -0.000000 1.000000 -0.000000
-34.053772 -0.000000 -8.342583 0.000000 1.000000 -0.000000
-35.659485 -0.000000 -8.688202 0.000000 1.000000 -0.000000
-33.835064 -0.000000 -8.286922 0.000000 1.000000 -0.000000
-33.993824 -0.000000 -8.378098 0.000000 1.000000 -0.000000
-34.004517 -0.000000 -8.359281 0.000000 1.000000 -0.000000
-34.492809 0.000007 -7.605571 0.000005 1.000000 -0.000009
-34.299522 0.000007 -7.490854 0.000005 1.000000 -0.000009
-33.909519 -0.000000 -8.159310 0.000005 1.000000 -0.000009
-33.909519 -0.000000 -8.159310 0.000000 1.000000 -0.000000
-32.890625 -0.000001 -16.999687 -0.001259 0.999999 -0.000715
-32.900116 -0.000001 -16.982977 -0.001259 0.999999 -0.000715
-37.025505 0.000006 -9.711736 -0.001259 0.999999 -0.000715
-32.803329 -0.000001 -17.034731 -0.000000 1.000000 -0.000001
-32.890625 -0.000001 -16.999687 -0.000000 1.000000 -0.000001
-37.025505 0.000006 -9.711736 -0.000000 1.000000 -0.000001
-34.492809 0.000007 -7.605571 0.000003 1.000000 -0.000010
-33.909519 -0.000000 -8.159310 0.000003 1.000000 -0.000010
-35.659485 -0.000000 -8.688202 0.000003 1.000000 -0.000010
-34.492809 0.000007 -7.605571 0.000015 1.000000 -0.000023
-35.659485 -0.000000 -8.688202 0.000015 1.000000 -0.000023
-35.756104 -0.000000 -8.750450 0.000015 1.000000 -0.000023
-32.533691 -0.000001 -17.142975 -0.000000 1.000000 -0.000001
-32.163239 -0.000001 -17.818954 0.000000 1.000000 -0.000000
-32.295288 -0.000001 -17.580276 0.000000 1.000000 -0.000000
-32.533691 -0.000001 -17.142975 0.000000 1.000000 -0.000000
-37.025505 0.000006 -9.711736 0.000060 1.000000 -0.000073
-34.492809 0.000007 -7.605571 0.000060 1.000000 -0.000073
-35.756104 -0.000000 -8.750450 0.000060 1.000000 -0.000073
-37.025505 0.000006 -9.711736 0.000044 1.000000 -0.000052
-35.756104 -0.000000 -8.750450 0.000044 1.000000 -0.000052
-35.802307 -0.000000 -8.789810 0.000044 1.000000 -0.000052
-37.025505 0.000006 -9.711736 0.000017 1.000000 -0.000016
-35.802307 -0.000000 -8.789810 0.000017 1.000000 -0.000016
-35.853607 -0.000000 -8.844681 0.000017 1.000000 -0.000016
-37.025505 0.000006 -9.711736 0.000010 1.000000 -0.000007
-35.853607 -0.000000 -8.844681 0.000010 1.000000 -0.000007
-35.895294 -0.000000 -8.908508 0.000010 1.000000 -0.000007
-37.025505 0.000006 -9.711736 0.000008 1.000000 -0.000003
-35.895294 -0.000000 -8.908508 0.000008 1.000000 -0.000003
-35.925232 -0.000000 -8.978600 0.000008 1.000000 -0.000003
-37.025505 0.000006 -9.711736 0.000007 1.000000 -0.000002
-35.925232 -0.000000 -8.978600 0.000007 1.000000 -0.000002
-35.942596 -0.000000 -9.052834 0.000007 1.000000 -0.000002
-37.025505 0.000006 -9.711736 0.000006 1.000000 -0.000000
-35.942596 -0.000000 -9.052834 0.000006 1.000000 -0.000000
-35.946747 -0.000000 -9.128937 0.000006 1.000000 -0.000000
-37.025505 0.000006 -9.711736 0.000005 1.000000 0.000001
-35.946747 -0.000000 -9.128937 0.000005 1.000000 0.000001
-35.937653 -0.000000 -9.204620 0.000005 1.000000 0.000001
-35.935181 -0.000000 -9.216148 0.000005 1.000000 0.000001
-37.025505 0.000006 -9.711736 0.000005 1.000000 0.000002
-35.935181 -0.000000 -9.216148 0.000005 1.000000 0.000002
-35.911011 -0.000000 -9.290657 0.000005 1.000000 0.000002
-32.533691 -0.000001 -17.142975 0.000005 1.000000 0.000002
-35.911011 -0.000000 -9.290657 -0.000000 1.000000 -0.000000
-32.155121 -0.000001 -17.881155 -0.000000 1.000000 -0.000000
-31.723480 -0.000001 -16.854187 0.000000 1.000000 -0.000000
-31.580780 -0.000001 -16.977158 0.000000 1.000000 -0.000000
-31.460175 -0.000001 -17.052475 -0.000000 1.000000 -0.000000
-32.197266 -0.000001 -17.966660 0.000000 1.000000 -0.000000
-31.307312 -0.000001 -17.111115 0.000000 1.000000 -0.000000
-31.269287 -0.000001 -17.121307 -0.000000 1.000000 -0.000000
-31.105438 -0.000001 -17.146774 -0.000000 1.000000 -0.000000
-32.240662 -0.000001 -18.003983 -0.000000 1.000000 -0.000000
-31.086151 -0.000001 -17.147873 0.000000 1.000000 -0.000000
-30.857849 -0.000001 -17.131729 0.000000 1.000000 -0.000000
-30.662279 -0.000001 -17.050823 0.000000 1.000000 -0.000000
-30.460657 -0.000001 -16.943111 0.000000 1.000000 -0.000000
-30.496435 0.000015 -14.100286 0.767187 0.461871 0.445084
-29.436094 -0.000001 -15.927971 0.767187 0.461871 0.445084
-29.255409 -0.000001 -16.239416 0.767187 0.461871 0.445084
-29.749542 -0.000001 -15.467438 -0.000732 1.000000 -0.000411
-30.512190 -0.000001 -14.109352 -0.000732 1.000000 -0.000411
-30.496435 0.000015 -14.100286 -0.000732 1.000000 -0.000411
-29.749542 -0.000001 -15.467438 -0.000119 1.000000 -0.000076
-30.496435 0.000015 -14.100286 -0.000119 1.000000 -0.000076
-29.255409 -0.000001 -16.239416 -0.000119 1.000000 -0.000076
-29.726110 -0.000001 -15.581754 0.000000 1.000000 -0.000000
-29.749542 -0.000001 -15.467438 0.000000 1.000000 -0.000000
-29.255409 -0.000001 -16.239416 0.000000 1.000000 -0.000000
-29.706238 -0.000001 -15.726608 -0.000000 1.000000 -0.000000
-29.717072 -0.000001 -15.962341 0.000000 1.000000 -0.000000
-29.768707 -0.000001 -16.192627 0.000000 1.000000 -0.000000
-29.859497 -0.000001 -16.410446 0.000000 1.000000 -0.000000
-29.981232 -0.000001 -16.601929 0.000000 1.000000 -0.000000
-30.149492 -0.000001 -16.745586 0.000000 1.000000 -0.000000
-30.344721 -0.000001 -16.872799 0.000000 1.000000 -0.000000
-29.255409 -0.000001 -16.239416 -0.000000 -1.000000 0.000000
-32.255043 -0.000001 -18.011946 -0.000000 -1.000000 0.000000
-32.240662 -0.000001 -18.003983 -0.000000 -1.000000 0.000000
-33.902557 -0.000000 -7.343010 0.000000 1.000000 -0.000000
-33.766052 -0.000000 -7.426944 0.000000 1.000000 -0.000000
-28.937988 -0.000001 -15.817558 0.000000 1.000000 -0.000000
-28.973839 -0.000001 -15.809788 -0.000000 1.000000 -0.000000
-34.299522 0.000007 -7.490854 0.000016 1.000000 0.000009
-33.939068 -0.000000 -7.282522 0.000016 1.000000 0.000009
-33.902557 -0.000000 -7.343010 0.000016 1.000000 0.000009
-33.835064 -0.000000 -8.286922 -0.663702 0.639959 -0.387237
-33.909519 -0.000000 -8.159310 -0.663702 0.639959 -0.387237
-34.299522 0.000007 -7.490854 -0.663702 0.639959 -0.387237
-28.973839 -0.000001 -15.809788 0.000016 1.000000 0.000009
-34.299522 0.000007 -7.490854 0.000000 1.000000 -0.000001
-28.973839 -0.000001 -15.809788 0.000000 1.000000 -0.000001
-29.011978 -0.000001 -15.818665 0.000000 1.000000 -0.000001
-32.374001 -0.000000 -11.228922 0.000000 1.000000 -0.000000
-33.835064 -0.000000 -8.286922 -0.000168 1.000000 -0.000108
-34.299522 0.000007 -7.490854 -0.000168 1.000000 -0.000108
-29.011978 -0.000001 -15.818665 -0.000168 1.000000 -0.000108
-29.011978 -0.000001 -15.818665 0.000000 1.000000 -0.000000
-29.037071 -0.000001 -15.843903 0.000000 1.000000 -0.000000
-29.050278 -0.000001 -15.880775 -0.000000 1.000000 -0.000000
-32.372528 -0.000000 -11.276329 0.000000 1.000000 -0.000000
-29.022308 -0.000001 -15.943840 0.000000 1.000000 -0.000000
-32.394875 -0.000000 -11.318148 0.000000 1.000000 -0.000000
-32.529755 -0.000000 -11.325958 -0.000000 1.000000 -0.000000
-34.681061 -0.000000 -8.902840 0.000000 1.000000 -0.000000
-32.740540 -0.000001 -12.101479 -0.000000 1.000000 -0.000000
-32.895355 -0.000001 -11.910576 -0.000000 1.000000 -0.000000
-34.551483 -0.000000 -9.034592 -0.000000 1.000000 -0.000000
-32.625824 -0.000001 -12.207642 0.000000 1.000000 -0.000000
-32.430237 -0.000001 -12.360634 -0.000000 1.000000 -0.000000
-32.430939 -0.000001 -12.360268 -0.000000 1.000000 -0.000000
-32.065552 -0.000001 -12.543602 -0.000000 1.000000 -0.000000
-32.066254 -0.000001 -12.543266 -0.000000 1.000000 -0.000000
-31.562897 -0.000001 -12.776428 0.000000 1.000000 -0.000000
-31.932220 -0.000001 -12.607742 0.000000 1.000000 -0.000000
-32.483246 -0.000000 -11.344505 -0.000000 1.000000 -0.000000
-31.367035 -0.000001 -12.889038 0.000000 1.000000 -0.000000
-32.433197 -0.000000 -11.345978 -0.000000 1.000000 -0.000000
-31.149414 -0.000001 -13.064842 0.000000 1.000000 -0.000000
-28.881691 -0.000001 -15.956203 0.000064 1.000000 -0.000013
-28.874084 -0.000001 -15.917595 0.000064 1.000000 -0.000013
-28.830826 -0.000004 -15.989490 0.000064 1.000000 -0.000013
-31.019623 -0.000001 -13.205742 -0.000732 1.000000 -0.000411
-31.019623 -0.000001 -13.205742 0.000000 1.000000 -0.000000
-28.905853 -0.000001 -15.987267 0.000048 1.000000 -0.000037
-28.881691 -0.000001 -15.956203 0.000048 1.000000 -0.000037
-28.830826 -0.000004 -15.989490 0.000048 1.000000 -0.000037
-30.496435 0.000015 -14.100286 0.000118 1.000000 0.000086
-31.019623 -0.000001 -13.205742 0.000118 1.000000 0.000086
-29.022308 -0.000001 -15.943840 0.000118 1.000000 0.000086
-30.496435 0.000015 -14.100286 0.001191 0.999999 0.000944
-29.022308 -0.000001 -15.943840 0.001191 0.999999 0.000944
-28.982086 -0.000001 -15.994583 0.001191 0.999999 0.000944
-29.436094 -0.000001 -15.927971 -0.000001 1.000000 -0.000009
-30.496435 0.000015 -14.100286 -0.000001 1.000000 -0.000009
-28.982086 -0.000001 -15.994583 -0.000001 1.000000 -0.000009
-28.943100 -0.000001 -15.999973 0.000045 1.000000 -0.000132
-28.905853 -0.000001 -15.987267 0.000045 1.000000 -0.000132
-28.830826 -0.000004 -15.989490 0.000045 1.000000 -0.000132
-29.436094 -0.000001 -15.927971 0.000000 1.000000 -0.000000
-28.982086 -0.000001 -15.994583 0.000000 1.000000 -0.000000
-28.943100 -0.000001 -15.999973 0.000037 1.000000 -0.000049
-28.830826 -0.000004 -15.989490 0.000037 1.000000 -0.000049
-29.255409 -0.000001 -16.239416 0.000037 1.000000 -0.000049
-28.943100 -0.000001 -15.999973 -0.000000 1.000000 -0.000000
3 0 1 2
3 2 3 4
3 4 5 6
3 6 7 8
3 8 9 10
3 10 11 12
3 12 13 14
3 14 15 16
3 14 16 17
3 10 12 14
3 4 6 8
3 8 10 14
3 14 17 18
3 8 14 18
3 0 2 4
3 4 8 18
3 0 4 18
3 19 20 0
3 21 22 19
3 23 24 21
3 25 26 23
3 27 25 23
3 21 19 0
3 27 23 21
3 28 29 30
3 31 27 21
3 21 0 18
3 31 21 18
3 32 31 18
3 32 18 33
3 34 32 33
3 35 36 37
3 38 39 35
3 40 38 35
3 35 37 41
3 35 41 42
3 40 35 42
3 40 42 43
3 44 40 43
3 44 43 45
3 46 44 45
3 46 45 47
3 48 49 50
3 48 50 46
3 51 52 53
3 54 48 46
3 54 46 47
3 55 56 57
3 58 59 60
3 61 62 63
3 64 65 66
3 67 58 60
3 68 69 70
3 71 72 73
3 74 75 76
3 77 78 79
3 80 81 82
3 83 84 85
3 86 87 88
3 89 90 91
3 92 93 94
3 92 94 95
3 96 97 98
3 99 96 98
3 70 100 34
3 68 70 34
3 68 34 33
3 101 68 33
3 101 33 102
3 101 102 103
3 101 103 104
3 105 101 104
3 105 104 106
3 105 106 107
3 105 107 108
3 109 105 108
3 109 108 110
3 109 110 111
3 109 111 112
3 109 112 113
3 114 115 116
3 117 118 119
3 120 121 122
3 123 124 125
3 126 123 125
3 127 126 125
3 128 127 125
3 129 128 125
3 130 129 125
3 131 130 125
3 132 131 125
3 113 132 125
3 109 113 125
3 133 134 135
3 136 137 138
3 136 138 139
3 140 141 142
3 143 144 145
3 140 142 146
3 147 148 149
3 150 49 48
3 151 152 153
3 48 154 155
3 150 48 155
3 150 155 156
3 157 150 156
3 157 156 158
3 159 157 158
3 35 39 160
3 161 36 35
3 162 163 164
3 164 161 35
3 164 35 160
3 165 162 164
3 166 167 165
3 168 169 166
3 170 171 168
3 170 168 166
3 166 165 164
3 166 164 160
3 170 166 160
3 170 160 172
3 173 170 172
3 173 172 174
3 175 173 174
3 176 177 178
3 119 118 179
3 180 175 174
3 181 182 183
3 180 174 159
3 180 159 158
3 184 185 186
3 187 188 189
3 190 191 192
3 193 194 195
3 125 196 197
3 198 199 200
3 197 201 125
