ply
format ascii 1.0
comment Created by Blender 2.78 (sub 0) - www.blender.org, source file: 'soult.blend'
element vertex 56
property float x
property float y
property float z
property float nx
property float ny
property float nz
element face 41
property list uchar uint vertex_indices
end_header
-28.937988 -0.000001 -15.817558 -0.001382 0.999999 -0.000883
-28.874084 -0.000001 -15.917595 -0.001382 0.999999 -0.000883
-28.784748 -0.000008 -16.066088 -0.001382 0.999999 -0.000883
-28.784748 -0.000008 -16.066088 0.000001 1.000000 -0.000001
-32.223709 -0.000008 -18.066809 0.000001 1.000000 -0.000001
-34.581455 -0.000001 -13.946027 0.000001 1.000000 -0.000001
-34.581455 -0.000001 -13.946027 0.000000 1.000000 -0.000000
-30.827486 -0.000001 -12.446129 0.000000 1.000000 -0.000000
-28.937988 -0.000001 -15.817558 0.000000 1.000000 -0.000000
-28.937988 -0.000001 -15.817558 -0.000013 1.000000 -0.000039
-28.784748 -0.000008 -16.066088 -0.000013 1.000000 -0.000039
-34.581455 -0.000001 -13.946027 -0.000013 1.000000 -0.000039
-28.874084 -0.000001 -15.917595 -0.000000 1.000000 -0.000000
-29.817093 -0.000001 -12.042187 -0.000000 1.000000 -0.000000
-27.455910 -0.000001 -15.178116 0.000020 1.000000 -0.000039
-28.784748 -0.000008 -16.066088 0.000020 1.000000 -0.000039
-28.874084 -0.000001 -15.917595 0.000020 1.000000 -0.000039
-18.993301 -0.000000 -10.511428 -0.000000 1.000000 -0.000000
-27.455910 -0.000001 -15.178116 -0.000000 1.000000 -0.000000
-25.143801 -0.000000 -10.130260 -0.000000 1.000000 -0.000000
-24.330154 -0.000000 -9.787872 -0.000000 1.000000 -0.000000
-23.895950 -0.000000 -9.618340 -0.000000 1.000000 -0.000000
-22.654373 -0.000000 -9.118347 -0.000000 1.000000 -0.000000
-22.111893 -0.000000 -8.901230 -0.000000 1.000000 -0.000000
-22.037338 -0.000000 -8.869888 0.000000 1.000000 -0.000000
-21.926971 -0.000000 -8.826828 0.000000 1.000000 -0.000000
-21.912827 -0.000000 -8.820328 0.000000 1.000000 -0.000000
-21.885117 -0.000000 -8.811836 0.000000 1.000000 -0.000000
-20.971985 -0.000000 -8.549629 -0.000000 1.000000 -0.000000
-20.536819 -0.000000 -8.449402 -0.000000 1.000000 -0.000000
-19.209610 -0.000000 -8.123970 -0.000000 1.000000 -0.000000
-17.961624 -0.000000 -7.808472 -0.000000 1.000000 -0.000000
-16.744514 -0.000000 -7.518044 -0.000000 1.000000 -0.000000
-18.386251 -0.000000 -10.247392 0.000000 1.000000 -0.000000
-15.220047 -0.000000 -7.145958 0.000000 1.000000 -0.000000
-14.613736 -0.000000 -7.027779 0.000000 1.000000 -0.000000
-14.562354 -0.000000 -7.300105 -0.000000 1.000000 0.000000
-14.500695 -0.000000 -7.608398 -0.000000 1.000000 0.000000
-14.449313 -0.000000 -7.952660 -0.000000 1.000000 0.000000
-17.663149 -0.000000 -9.989522 0.000000 1.000000 -0.000000
-16.359085 -0.000000 -9.611130 -0.000000 1.000000 -0.000000
-17.010216 -0.000000 -9.804489 -0.000000 1.000000 -0.000000
-15.027130 -0.000000 -9.097550 -0.000000 1.000000 -0.000000
-15.636976 -0.000000 -9.353541 -0.000000 1.000000 -0.000000
-14.768309 -0.000000 -8.971005 -0.000007 1.000000 0.000013
-14.863209 -0.000000 -9.023190 -0.000007 1.000000 0.000013
-14.914373 -0.000000 -9.044676 -0.000007 1.000000 0.000013
-14.914373 -0.000000 -9.044676 0.000000 1.000000 -0.000000
-14.441092 -0.000000 -8.193643 -0.000000 1.000000 -0.000000
-14.497613 -0.000000 -8.445415 -0.000000 1.000000 0.000000
-14.579824 -0.000000 -8.697188 -0.000000 1.000000 0.000000
-14.677451 -0.000000 -8.871888 -0.000000 1.000000 -0.000000
-14.768309 -0.000000 -8.971005 -0.000000 1.000000 -0.000000
-14.768309 -0.000000 -8.971005 0.000002 1.000000 -0.000005
-14.914373 -0.000000 -9.044676 0.000002 1.000000 -0.000005
-16.359085 -0.000000 -9.611130 0.000002 1.000000 -0.000005
3 0 1 2
3 3 4 5
3 6 7 8
3 9 10 11
3 12 8 7
3 12 7 13
3 14 15 16
3 17 18 12
3 12 13 19
3 19 20 21
3 21 22 23
3 23 24 25
3 25 26 27
3 27 28 29
3 30 31 32
3 27 29 30
3 23 25 27
3 19 21 23
3 17 12 19
3 33 17 19
3 19 23 27
3 27 30 32
3 32 34 35
3 36 37 38
3 32 35 36
3 19 27 32
3 39 33 19
3 40 41 39
3 42 43 40
3 44 45 46
3 47 42 40
3 40 39 19
3 19 32 36
3 36 38 48
3 48 49 50
3 50 51 52
3 53 54 55
3 40 19 36
3 36 48 50
3 50 52 40
3 36 50 40
