ply
format ascii 1.0
comment Created by Blender 2.78 (sub 0) - www.blender.org, source file: 'soult.blend'
element vertex 48
property float x
property float y
property float z
property float nx
property float ny
property float nz
element face 35
property list uchar uint vertex_indices
end_header
-28.830828 -0.000008 -15.989495 0.000001 1.000000 -0.000002
-30.868534 -0.000001 -12.462496 0.000001 1.000000 -0.000002
-29.817093 -0.000001 -12.042187 0.000001 1.000000 -0.000002
-25.143801 -0.000000 -10.130260 -0.000000 1.000000 -0.000000
-24.330154 -0.000000 -9.787872 -0.000000 1.000000 -0.000000
-23.895950 -0.000000 -9.618340 -0.000000 1.000000 -0.000000
-25.143801 -0.000000 -10.130260 0.000001 1.000000 -0.000002
-27.455910 -0.000001 -15.178116 -0.000008 1.000000 0.000003
-28.830828 -0.000008 -15.989495 -0.000008 1.000000 0.000003
-25.143801 -0.000000 -10.130260 -0.000008 1.000000 0.000003
-22.654373 -0.000000 -9.118347 -0.000000 1.000000 0.000000
-22.111893 -0.000000 -8.901230 0.000000 1.000000 -0.000000
-22.037338 -0.000000 -8.869888 0.000000 1.000000 -0.000000
-21.926971 -0.000000 -8.826828 0.000000 1.000000 -0.000000
-18.993301 -0.000000 -10.511428 0.000000 1.000000 -0.000000
-27.455910 -0.000001 -15.178116 0.000000 1.000000 -0.000000
-18.386251 -0.000000 -10.247392 0.000000 1.000000 -0.000000
-21.912827 -0.000000 -8.820328 0.000000 1.000000 -0.000000
-21.885117 -0.000000 -8.811836 0.000000 1.000000 -0.000000
-20.971985 -0.000000 -8.549629 -0.000000 1.000000 -0.000000
-20.536819 -0.000000 -8.449402 -0.000000 1.000000 -0.000000
-19.209610 -0.000000 -8.123970 -0.000000 1.000000 -0.000000
-17.961624 -0.000000 -7.808472 -0.000000 1.000000 -0.000000
-16.744514 -0.000000 -7.518044 -0.000000 1.000000 -0.000000
-17.663149 -0.000000 -9.989522 0.000000 1.000000 -0.000000
-16.359085 -0.000000 -9.611130 -0.000000 1.000000 -0.000000
-17.010216 -0.000000 -9.804489 -0.000000 1.000000 -0.000000
-15.027130 -0.000000 -9.097550 -0.000000 1.000000 -0.000000
-15.636976 -0.000000 -9.353541 -0.000000 1.000000 -0.000000
-14.768309 -0.000000 -8.971005 -0.000007 1.000000 0.000013
-14.863209 -0.000000 -9.023190 -0.000007 1.000000 0.000013
-14.914373 -0.000000 -9.044676 -0.000007 1.000000 0.000013
-14.914373 -0.000000 -9.044676 0.000000 1.000000 -0.000000
-15.220047 -0.000000 -7.145958 0.000000 1.000000 -0.000000
-14.613736 -0.000000 -7.027779 -0.000000 1.000000 0.000000
-14.562354 -0.000000 -7.300105 -0.000000 1.000000 0.000000
-14.500695 -0.000000 -7.608398 -0.000000 1.000000 0.000000
-14.449313 -0.000000 -7.952660 -0.000000 1.000000 0.000000
-14.441092 -0.000000 -8.193643 -0.000000 1.000000 -0.000000
-14.497613 -0.000000 -8.445415 -0.000000 1.000000 -0.000000
-14.579824 -0.000000 -8.697188 -0.000000 1.000000 -0.000000
-14.677451 -0.000000 -8.871888 -0.000000 1.000000 -0.000000
-14.677451 -0.000000 -8.871888 -0.000001 1.000000 0.000001
-14.768309 -0.000000 -8.971005 -0.000001 1.000000 0.000001
-14.914373 -0.000000 -9.044676 -0.000001 1.000000 0.000001
-14.677451 -0.000000 -8.871888 0.000000 1.000000 -0.000001
-14.914373 -0.000000 -9.044676 0.000000 1.000000 -0.000001
-25.143801 -0.000000 -10.130260 0.000000 1.000000 -0.000001
3 0 1 2
3 3 4 5
3 0 2 6
3 7 8 9
3 3 5 10
3 11 12 13
3 3 10 11
3 14 15 3
3 16 14 3
3 3 11 13
3 13 17 18
3 18 19 20
3 21 22 23
3 18 20 21
3 3 13 18
3 24 16 3
3 25 26 24
3 27 28 25
3 29 30 31
3 32 27 25
3 25 24 3
3 3 18 21
3 21 23 33
3 33 34 35
3 35 36 37
3 37 38 39
3 39 40 41
3 42 43 44
3 32 25 3
3 3 21 33
3 33 35 37
3 37 39 41
3 45 46 47
3 3 33 37
3 3 37 41
