ply
format ascii 1.0
comment Created by Blender 2.78 (sub 0) - www.blender.org, source file: 'soult.blend'
element vertex 5
property float x
property float y
property float z
property float nx
property float ny
property float nz
element face 3
property list uchar uint vertex_indices
end_header
-32.890625 -0.000006 -16.999687 0.000001 1.000000 -0.000002
-34.616879 0.000000 -13.957073 0.000001 1.000000 -0.000002
-30.868534 -0.000001 -12.462496 0.000001 1.000000 -0.000002
-28.830828 -0.000008 -15.989495 0.000001 1.000000 -0.000002
-32.303280 -0.000008 -18.038666 0.000001 1.000000 -0.000002
3 0 1 2
3 2 3 4
3 0 2 4
