ply
format ascii 1.0
comment Created by Blender 2.78 (sub 0) - www.blender.org, source file: 'soult.blend'
element vertex 269
property float x
property float y
property float z
property float nx
property float ny
property float nz
element face 103
property list uchar uint vertex_indices
end_header
-32.813995 0.052189 -16.697002 0.000003 1.000000 -0.000001
-33.657181 0.052192 -15.210844 0.000003 1.000000 -0.000001
-33.003456 0.052190 -15.022490 0.000003 1.000000 -0.000001
-33.003456 0.052190 -15.022490 0.000004 1.000000 -0.000017
-31.918747 0.052192 -14.675386 0.000004 1.000000 -0.000017
-31.572405 0.052190 -14.711843 0.000004 1.000000 -0.000017
-31.572405 0.052190 -14.711843 -0.000044 1.000000 -0.000038
-31.497988 0.052192 -14.746571 -0.000044 1.000000 -0.000038
-31.414366 0.052190 -14.891009 -0.000044 1.000000 -0.000038
-31.414366 0.052190 -14.891009 0.000000 1.000000 0.000000
-31.275078 0.052190 -15.209383 0.000000 1.000000 0.000000
-31.249884 0.052190 -15.444557 0.000000 1.000000 0.000000
-31.340826 0.052190 -15.717395 -0.000000 1.000000 0.000000
-31.752583 0.052190 -16.089935 -0.000000 1.000000 0.000000
-32.512009 0.052190 -16.508171 -0.000005 1.000000 -0.000001
-32.813995 0.052189 -16.697002 -0.000005 1.000000 -0.000001
-33.003456 0.052190 -15.022490 -0.000005 1.000000 -0.000001
-32.512009 0.052190 -16.508171 -0.000000 1.000000 0.000000
-31.572405 0.052190 -14.711843 -0.000001 1.000000 -0.000000
-31.414366 0.052190 -14.891009 -0.000001 1.000000 -0.000000
-31.249884 0.052190 -15.444557 -0.000001 1.000000 -0.000000
-33.003456 0.052190 -15.022490 -0.000000 1.000000 0.000000
-31.572405 0.052190 -14.711843 -0.000000 1.000000 0.000000
-33.657181 0.052192 -15.210844 -0.204277 0.972028 -0.115901
-32.813995 0.052189 -16.697002 -0.204277 0.972028 -0.115901
-32.890625 -0.000006 -16.999687 -0.204277 0.972028 -0.115901
-33.980270 -0.000003 -15.079132 -0.204277 0.972028 -0.115901
-33.003456 0.052190 -15.022490 -0.065024 0.972028 0.225687
-33.657181 0.052192 -15.210844 -0.065024 0.972028 0.225687
-33.980270 -0.000003 -15.079132 -0.065024 0.972028 0.225687
-33.066292 -0.000004 -14.815791 -0.065024 0.972028 0.225687
-31.918747 0.052192 -14.675386 -0.071582 0.972028 0.223692
-33.003456 0.052190 -15.022490 -0.071582 0.972028 0.223692
-33.066292 -0.000004 -14.815791 -0.071582 0.972028 0.223692
-31.941315 -0.000003 -14.455803 -0.071582 0.972028 0.223692
-31.572405 0.052190 -14.711843 0.024592 0.972028 0.233575
-31.918747 0.052192 -14.675386 0.024592 0.972028 0.233575
-31.941315 -0.000003 -14.455803 0.024592 0.972028 0.233575
-31.513828 -0.000004 -14.500801 0.024592 0.972028 0.233575
-31.497988 0.052192 -14.746571 0.099307 0.972027 0.212840
-31.572405 0.052190 -14.711843 0.099307 0.972027 0.212840
-31.513828 -0.000004 -14.500801 0.099307 0.972027 0.212840
-31.345079 -0.000003 -14.579548 0.099307 0.972027 0.212840
-31.414366 0.052190 -14.891009 0.203265 0.972027 0.117669
-31.497988 0.052192 -14.746571 0.203265 0.972027 0.117669
-31.345079 -0.000003 -14.579548 0.203265 0.972027 0.117669
-31.221333 -0.000004 -14.793295 0.203265 0.972027 0.117669
-31.275078 0.052190 -15.209383 0.215175 0.972028 0.094139
-31.414366 0.052190 -14.891009 0.215175 0.972028 0.094139
-31.221333 -0.000004 -14.793295 0.215175 0.972028 0.094139
-31.063837 -0.000004 -15.153286 0.215175 0.972028 0.094139
-31.249884 0.052190 -15.444557 0.233530 0.972028 0.025019
-31.275078 0.052190 -15.209383 0.233530 0.972028 0.025019
-31.063837 -0.000004 -15.153286 0.233530 0.972028 0.025019
-31.030090 -0.000004 -15.468278 0.233530 0.972028 0.025019
-31.340826 0.052190 -15.717395 0.222814 0.972028 -0.074269
-31.249884 0.052190 -15.444557 0.222814 0.972028 -0.074269
-31.030090 -0.000004 -15.468278 0.222814 0.972028 -0.074269
-31.153833 -0.000005 -15.839520 0.222814 0.972028 -0.074269
-31.752583 0.052190 -16.089935 0.157575 0.972027 -0.174163
-31.340826 0.052190 -15.717395 0.157575 0.972027 -0.174163
-31.153833 -0.000005 -15.839520 0.157575 0.972027 -0.174163
-31.626324 -0.000005 -16.267008 0.157575 0.972027 -0.174163
-32.512009 0.052190 -16.508171 0.113302 0.972027 -0.205732
-31.752583 0.052190 -16.089935 0.113302 0.972027 -0.205732
-31.626324 -0.000005 -16.267008 0.113302 0.972027 -0.205732
-32.402557 -0.000005 -16.694500 0.113302 0.972027 -0.205732
-32.813995 0.052189 -16.697002 0.124518 0.972028 -0.199141
-32.512009 0.052190 -16.508171 0.124518 0.972028 -0.199141
-32.402557 -0.000005 -16.694500 0.124518 0.972028 -0.199141
-32.890625 -0.000006 -16.999687 0.124518 0.972028 -0.199141
-31.644575 -0.158332 -17.306610 0.136566 0.986628 0.088967
-31.668505 -0.152166 -17.336819 0.136566 0.986628 0.088967
-32.286968 -0.080148 -17.187578 0.136566 0.986628 0.088967
-32.245796 -0.100476 -17.023905 0.136566 0.986628 0.088967
-31.673361 -0.000008 -17.459261 -0.998749 0.007863 0.049382
-31.673761 -0.065295 -17.458214 -0.998749 0.007863 0.049382
-31.668505 -0.152166 -17.336819 -0.998749 0.007863 0.049382
-31.667273 0.000011 -17.337376 -0.998749 0.007863 0.049382
-32.207764 -0.000008 -17.982300 -0.000000 1.000000 -0.000002
-32.303280 -0.000008 -18.038666 -0.000000 1.000000 -0.000002
-32.461014 -0.000008 -17.759644 -0.000000 1.000000 -0.000002
-32.461014 -0.000008 -17.759644 -0.000002 1.000000 -0.000003
-32.890625 -0.000006 -16.999687 -0.000002 1.000000 -0.000003
-32.402557 -0.000005 -16.694500 -0.000002 1.000000 -0.000003
-32.207764 -0.000008 -17.982300 -0.000001 1.000000 -0.000003
-32.461014 -0.000008 -17.759644 -0.000001 1.000000 -0.000003
-32.402557 -0.000005 -16.694500 -0.000001 1.000000 -0.000003
-32.247448 -0.000012 -17.601025 0.000284 1.000000 0.000040
-32.207764 -0.000008 -17.982300 0.000284 1.000000 0.000040
-32.402557 -0.000005 -16.694500 0.000284 1.000000 0.000040
-32.284012 -0.000006 -17.186602 -0.000065 1.000000 -0.000020
-32.247448 -0.000012 -17.601025 -0.000065 1.000000 -0.000020
-32.402557 -0.000005 -16.694500 -0.000065 1.000000 -0.000020
-32.241348 -0.000008 -17.022051 0.000031 1.000000 0.000004
-32.284012 -0.000006 -17.186602 0.000031 1.000000 0.000004
-32.402557 -0.000005 -16.694500 0.000031 1.000000 0.000004
-32.241348 -0.000008 -17.022051 0.000005 1.000000 -0.000009
-32.402557 -0.000005 -16.694500 0.000005 1.000000 -0.000009
-31.626324 -0.000005 -16.267008 0.000005 1.000000 -0.000009
-30.310677 0.000005 -15.860014 -0.000008 1.000000 0.000001
-32.241348 -0.000008 -17.022051 -0.000008 1.000000 0.000001
-31.626324 -0.000005 -16.267008 -0.000008 1.000000 0.000001
-30.310677 0.000005 -15.860014 -0.000011 1.000000 0.000012
-31.626324 -0.000005 -16.267008 -0.000011 1.000000 0.000012
-31.153833 -0.000005 -15.839520 -0.000011 1.000000 0.000012
-31.618509 -0.000012 -17.276424 -0.000000 1.000000 -0.000000
-31.563656 -0.000012 -17.221573 -0.000000 1.000000 -0.000000
-30.035168 -0.000012 -16.327288 -0.000000 1.000000 -0.000000
-30.310677 0.000005 -15.860014 -0.000011 1.000000 0.000004
-31.153833 -0.000005 -15.839520 -0.000011 1.000000 0.000004
-31.030090 -0.000004 -15.468278 -0.000011 1.000000 0.000004
-31.642891 -0.000001 -17.306900 -0.000433 1.000000 0.000722
-31.618509 -0.000012 -17.276424 -0.000433 1.000000 0.000722
-30.035168 -0.000012 -16.327288 -0.000433 1.000000 0.000722
-30.310677 0.000005 -15.860014 -0.000014 1.000000 -0.000002
-31.030090 -0.000004 -15.468278 -0.000014 1.000000 -0.000002
-31.063837 -0.000004 -15.153286 -0.000014 1.000000 -0.000002
-31.667273 0.000011 -17.337376 -0.000433 1.000000 0.000722
-30.310677 0.000005 -15.860014 -0.000021 1.000000 -0.000009
-31.063837 -0.000004 -15.153286 -0.000021 1.000000 -0.000009
-31.221333 -0.000004 -14.793295 -0.000021 1.000000 -0.000009
-31.673361 -0.000008 -17.459261 0.000114 1.000000 -0.000162
-31.667273 0.000011 -17.337376 0.000114 1.000000 -0.000162
-30.035168 -0.000012 -16.327288 0.000114 1.000000 -0.000162
-30.310677 0.000005 -15.860014 -0.000065 1.000000 -0.000046
-31.221333 -0.000004 -14.793295 -0.000065 1.000000 -0.000046
-31.345079 -0.000003 -14.579548 -0.000065 1.000000 -0.000046
-31.610064 -0.000007 -17.629583 -0.000002 1.000000 0.000006
-31.673361 -0.000008 -17.459261 -0.000002 1.000000 0.000006
-30.035168 -0.000012 -16.327288 -0.000002 1.000000 0.000006
-27.455910 -0.000001 -15.178116 -0.000013 1.000000 0.000020
-31.610064 -0.000007 -17.629583 -0.000013 1.000000 0.000020
-30.035168 -0.000012 -16.327288 -0.000013 1.000000 0.000020
-18.993301 -0.000000 -10.511428 -0.000023 1.000000 0.000042
-27.455910 -0.000001 -15.178116 -0.000023 1.000000 0.000042
-30.035168 -0.000012 -16.327288 -0.000023 1.000000 0.000042
-18.993301 -0.000000 -10.511428 0.000014 1.000000 -0.000028
-30.035168 -0.000012 -16.327288 0.000014 1.000000 -0.000028
-30.310677 0.000005 -15.860014 0.000014 1.000000 -0.000028
-18.993301 -0.000000 -10.511428 -0.000002 1.000000 0.000005
-30.310677 0.000005 -15.860014 -0.000002 1.000000 0.000005
-31.345079 -0.000003 -14.579548 -0.000002 1.000000 0.000005
-18.993301 -0.000000 -10.511428 -0.000005 1.000000 0.000014
-31.345079 -0.000003 -14.579548 -0.000005 1.000000 0.000014
-31.513828 -0.000004 -14.500801 -0.000005 1.000000 0.000014
-18.386251 -0.000000 -10.247392 -0.000001 1.000000 0.000003
-18.993301 -0.000000 -10.511428 -0.000001 1.000000 0.000003
-31.513828 -0.000004 -14.500801 -0.000001 1.000000 0.000003
-31.941315 -0.000003 -14.455803 0.000035 1.000000 -0.000116
-33.066292 -0.000004 -14.815791 0.000035 1.000000 -0.000116
-33.980270 -0.000003 -15.079132 0.000035 1.000000 -0.000116
-18.386251 -0.000000 -10.247392 0.000003 1.000000 -0.000011
-31.513828 -0.000004 -14.500801 0.000003 1.000000 -0.000011
-31.941315 -0.000003 -14.455803 0.000003 1.000000 -0.000011
-16.359085 -0.000000 -9.611130 -0.000000 1.000000 -0.000000
-17.010216 -0.000000 -9.804489 -0.000000 1.000000 -0.000000
-17.663149 -0.000000 -9.989522 -0.000000 1.000000 -0.000000
-17.663149 -0.000000 -9.989522 -0.000001 1.000000 0.000003
-31.941315 -0.000003 -14.455803 -0.000001 1.000000 0.000003
-31.941315 -0.000003 -14.455803 0.000000 1.000000 -0.000002
-33.980270 -0.000003 -15.079132 0.000000 1.000000 -0.000002
-34.616882 -0.000001 -13.957072 0.000000 1.000000 -0.000002
-31.941315 -0.000003 -14.455803 0.000001 1.000000 -0.000001
-34.616882 -0.000001 -13.957072 0.000001 1.000000 -0.000001
-30.827486 -0.000001 -12.446129 0.000001 1.000000 -0.000001
-15.636976 -0.000000 -9.353541 -0.000000 1.000000 -0.000000
-17.663149 -0.000000 -9.989522 0.000000 1.000000 -0.000001
-31.941315 -0.000003 -14.455803 0.000000 1.000000 -0.000001
-30.827486 -0.000001 -12.446129 0.000000 1.000000 -0.000001
-30.827486 -0.000001 -12.446129 0.000000 1.000000 -0.000000
-29.817093 -0.000001 -12.042187 0.000000 1.000000 -0.000000
-15.027130 -0.000000 -9.097550 -0.000000 1.000000 -0.000000
-14.768309 -0.000000 -8.971005 -0.000007 1.000000 0.000013
-14.863209 -0.000000 -9.023190 -0.000007 1.000000 0.000013
-14.914373 -0.000000 -9.044676 -0.000007 1.000000 0.000013
-14.914373 -0.000000 -9.044676 -0.000000 1.000000 -0.000000
-25.143801 -0.000000 -10.130260 0.000000 1.000000 -0.000000
-24.330154 -0.000000 -9.787872 -0.000000 1.000000 -0.000000
-23.895950 -0.000000 -9.618340 -0.000000 1.000000 -0.000000
-22.654373 -0.000000 -9.118347 -0.000000 1.000000 -0.000000
-22.111893 -0.000000 -8.901230 -0.000000 1.000000 -0.000000
-22.037338 -0.000000 -8.869888 0.000000 1.000000 -0.000000
-21.926971 -0.000000 -8.826828 0.000000 1.000000 -0.000000
-21.912827 -0.000000 -8.820328 0.000000 1.000000 -0.000000
-21.885117 -0.000000 -8.811836 0.000000 1.000000 -0.000000
-20.971985 -0.000000 -8.549629 -0.000000 1.000000 -0.000000
-20.536819 -0.000000 -8.449402 -0.000000 1.000000 -0.000000
-19.209610 -0.000000 -8.123970 -0.000000 1.000000 -0.000000
-17.961624 -0.000000 -7.808472 -0.000000 1.000000 -0.000000
-16.744514 -0.000000 -7.518044 -0.000000 1.000000 -0.000000
-14.514232 -0.000000 -8.812532 -0.000003 1.000000 0.000005
-14.768309 -0.000000 -8.971005 -0.000003 1.000000 0.000005
-14.914373 -0.000000 -9.044676 -0.000003 1.000000 0.000005
-14.196824 -0.000000 -8.400114 -0.000000 1.000000 -0.000000
-14.329722 -0.000000 -8.626567 -0.000000 1.000000 -0.000000
-14.514232 -0.000000 -8.812532 -0.000000 1.000000 -0.000000
-14.176014 -0.000000 -7.846039 -0.000000 1.000000 -0.000000
-14.156026 -0.000000 -8.130208 -0.000000 1.000000 -0.000000
-14.302048 -0.000000 -6.971276 -0.000000 1.000000 -0.000000
-14.228832 -0.000000 -7.429367 -0.000000 1.000000 -0.000000
-15.220047 -0.000000 -7.145958 0.000000 1.000000 -0.000000
-14.613736 -0.000000 -7.027779 0.000000 1.000000 -0.000000
-30.035168 -0.000012 -16.327288 -0.861419 -0.000472 -0.507894
-30.034975 -0.481500 -16.327173 -0.861419 -0.000472 -0.507894
-30.310478 -0.481432 -15.859898 -0.861419 -0.000472 -0.507894
-30.310677 0.000005 -15.860014 -0.861419 -0.000472 -0.507894
-32.284012 -0.000006 -17.186602 0.995564 -0.028741 0.089593
-32.286968 -0.080148 -17.187578 0.995564 -0.028741 0.089593
-32.248188 -0.049934 -17.600697 0.995564 -0.028741 0.089593
-32.247448 -0.000012 -17.601025 0.995564 -0.028741 0.089593
-31.618509 -0.000012 -17.276424 -0.707742 0.009753 0.706403
-31.620646 -0.164498 -17.276400 -0.707742 0.009753 0.706403
-31.566725 -0.177194 -17.222095 -0.707742 0.009753 0.706403
-31.563656 -0.000012 -17.221573 -0.707742 0.009753 0.706403
-31.642891 -0.000001 -17.306900 -0.781834 0.009860 0.623409
-31.644575 -0.158332 -17.306610 -0.781834 0.009860 0.623409
-31.620646 -0.164498 -17.276400 -0.781834 0.009860 0.623409
-31.618509 -0.000012 -17.276424 -0.781834 0.009860 0.623409
-30.035168 -0.000012 -16.327288 -0.504603 0.001668 0.863350
-31.563656 -0.000012 -17.221573 -0.504603 0.001668 0.863350
-31.566725 -0.177194 -17.222095 -0.504603 0.001668 0.863350
-30.034975 -0.481500 -16.327173 -0.504603 0.001668 0.863350
-32.245796 -0.100476 -17.023905 0.515668 -0.007020 -0.856760
-32.241348 -0.000008 -17.022051 0.515668 -0.007020 -0.856760
-30.310677 0.000005 -15.860014 0.515668 -0.007020 -0.856760
-30.310677 0.000005 -15.860014 0.515413 0.000005 -0.856942
-30.310478 -0.481432 -15.859898 0.515413 0.000005 -0.856942
-31.890097 -0.170493 -16.809967 0.515413 0.000005 -0.856942
-31.890097 -0.170493 -16.809967 -0.115081 -0.984723 -0.130678
-32.067947 -0.135485 -16.916935 -0.115081 -0.984723 -0.130678
-32.245796 -0.100476 -17.023905 -0.115081 -0.984723 -0.130678
-30.310677 0.000005 -15.860014 0.515413 0.000001 -0.856942
-31.890097 -0.170493 -16.809967 0.515413 0.000001 -0.856942
-32.245796 -0.100476 -17.023905 0.515413 0.000001 -0.856942
-32.286968 -0.080148 -17.187578 0.072528 0.973306 0.217751
-31.668505 -0.152166 -17.336819 0.072528 0.973306 0.217751
-31.673761 -0.065295 -17.458214 0.072528 0.973306 0.217751
-32.248188 -0.049934 -17.600697 0.072528 0.973306 0.217751
-31.610064 -0.000007 -17.629583 -0.067956 0.979192 0.191221
-32.207764 -0.000008 -17.982300 -0.067956 0.979192 0.191221
-32.248188 -0.049934 -17.600697 -0.067956 0.979192 0.191221
-31.673761 -0.065295 -17.458214 -0.067956 0.979192 0.191221
-32.248188 -0.049934 -17.600697 0.994529 -0.014063 0.103513
-32.207764 -0.000008 -17.982300 0.994529 -0.014063 0.103513
-32.247448 -0.000012 -17.601025 0.994529 -0.014063 0.103513
-31.673761 -0.065295 -17.458214 -0.937363 0.000164 -0.348354
-31.673361 -0.000008 -17.459261 -0.937363 0.000164 -0.348354
-31.610064 -0.000007 -17.629583 -0.937363 0.000164 -0.348354
-30.034975 -0.481500 -16.327173 0.142069 0.985833 0.089161
-31.566725 -0.177194 -17.222095 0.142069 0.985833 0.089161
-31.890097 -0.170493 -16.809967 0.142069 0.985833 0.089161
-30.310478 -0.481432 -15.859898 0.142069 0.985833 0.089161
-31.566725 -0.177194 -17.222095 0.138471 0.986022 0.092666
-31.620646 -0.164498 -17.276400 0.138471 0.986022 0.092666
-32.067947 -0.135485 -16.916935 0.138471 0.986022 0.092666
-31.890097 -0.170493 -16.809967 0.138471 0.986022 0.092666
-31.667273 0.000011 -17.337376 -0.781871 0.009044 0.623375
-31.668505 -0.152166 -17.336819 -0.781871 0.009044 0.623375
-31.644575 -0.158332 -17.306610 -0.781871 0.009044 0.623375
-31.642891 -0.000001 -17.306900 -0.781871 0.009044 0.623375
-31.620646 -0.164498 -17.276400 0.138338 0.986057 0.092485
-31.644575 -0.158332 -17.306610 0.138338 0.986057 0.092485
-32.245796 -0.100476 -17.023905 0.138338 0.986057 0.092485
-32.067947 -0.135485 -16.916935 0.138338 0.986057 0.092485
-32.245796 -0.100476 -17.023905 0.967741 -0.035765 -0.249397
-32.286968 -0.080148 -17.187578 0.967741 -0.035765 -0.249397
-32.284012 -0.000006 -17.186602 0.967741 -0.035765 -0.249397
-32.241348 -0.000008 -17.022051 0.967741 -0.035765 -0.249397
3 0 1 2
3 3 4 5
3 6 7 8
3 9 10 11
3 11 12 13
3 14 15 16
3 11 13 17
3 18 19 20
3 17 21 22
3 22 11 17
4 23 24 25 26
4 27 28 29 30
4 31 32 33 34
4 35 36 37 38
4 39 40 41 42
4 43 44 45 46
4 47 48 49 50
4 51 52 53 54
4 55 56 57 58
4 59 60 61 62
4 63 64 65 66
4 67 68 69 70
4 71 72 73 74
4 75 76 77 78
3 79 80 81
3 82 83 84
3 85 86 87
3 88 89 90
3 91 92 93
3 94 95 96
3 97 98 99
3 100 101 102
3 103 104 105
3 106 107 108
3 109 110 111
3 112 113 114
3 115 116 117
3 118 112 114
3 119 120 121
3 122 123 124
3 125 126 127
3 128 129 130
3 131 132 133
3 134 135 136
3 137 138 139
3 140 141 142
3 143 144 145
3 146 147 148
3 149 150 151
3 152 153 154
3 155 156 157
3 158 146 159
3 160 161 162
3 163 164 165
3 166 155 157
3 167 168 169
3 157 170 171
3 172 166 157
3 173 174 175
3 176 172 157
3 157 171 177
3 177 178 179
3 179 180 181
3 181 182 183
3 183 184 185
3 185 186 187
3 188 189 190
3 185 187 188
3 181 183 185
3 177 179 181
3 176 157 177
3 191 192 193
3 194 195 196
3 197 198 194
3 199 200 197
3 201 202 199
3 188 190 201
3 181 185 188
3 176 177 181
3 194 196 176
3 199 197 194
3 188 201 199
3 176 181 188
3 199 194 176
3 188 199 176
4 203 204 205 206
4 207 208 209 210
4 211 212 213 214
4 215 216 217 218
4 219 220 221 222
3 223 224 225
3 226 227 228
3 229 230 231
3 232 233 234
4 235 236 237 238
4 239 240 241 242
3 243 244 245
3 246 247 248
4 249 250 251 252
4 253 254 255 256
4 257 258 259 260
4 261 262 263 264
4 265 266 267 268
