ply
format ascii 1.0
comment Created by Blender 2.78 (sub 0) - www.blender.org, source file: 'soult.blend'
element vertex 104
property float x
property float y
property float z
property float nx
property float ny
property float nz
element face 98
property list uchar uint vertex_indices
end_header
-30.907217 -0.000001 -12.189774 -0.000000 1.000000 -0.000000
-30.909348 -0.000001 -12.169189 -0.000000 1.000000 -0.000000
-30.906311 -0.000001 -12.157021 -0.000000 1.000000 -0.000000
-30.898560 -0.000001 -12.144623 0.000000 1.000000 -0.000000
-30.885864 -0.000001 -12.133888 0.000000 1.000000 -0.000000
-30.874329 -0.000001 -12.128891 0.000000 1.000000 -0.000000
-30.861893 -0.000001 -12.127411 0.000000 1.000000 -0.000000
-30.849426 -0.000001 -12.128853 0.000000 1.000000 -0.000000
-30.837891 -0.000001 -12.133789 0.000000 1.000000 -0.000000
-30.827820 -0.000001 -12.141273 0.000000 1.000000 -0.000000
-30.809143 -0.000001 -12.160439 0.000000 1.000000 -0.000000
-30.781342 -0.000001 -12.188171 0.000000 1.000000 -0.000000
-30.867584 -0.000001 -12.241096 -0.000000 1.000000 -0.000000
-30.903015 -0.000001 -12.200249 -0.000000 1.000000 -0.000000
-30.832855 -0.000001 -12.282562 -0.000000 1.000000 -0.000000
-30.753052 -0.000001 -12.215416 -0.000000 1.000000 -0.000000
-30.798889 -0.000001 -12.324631 0.000000 1.000000 -0.000000
-30.724304 -0.000001 -12.242157 -0.000000 1.000000 -0.000000
-30.792969 -0.000001 -12.332077 -0.000000 1.000000 -0.000000
-30.715485 -0.000001 -12.250168 -0.000000 1.000000 -0.000000
-30.759857 -0.000001 -12.374840 -0.000000 1.000000 -0.000000
-30.686127 -0.000001 -12.276260 0.000000 1.000000 -0.000000
-30.685028 -0.000001 -12.468948 -0.000000 1.000000 -0.000000
-30.695084 -0.000001 -12.461670 -0.000000 1.000000 -0.000000
-30.727509 -0.000001 -12.418159 -0.000000 1.000000 -0.000000
-30.656311 -0.000001 -12.301819 0.000000 1.000000 -0.000000
-30.623093 -0.000001 -12.329334 0.000000 1.000000 -0.000000
-30.613190 -0.000001 -12.341061 0.000000 1.000000 -0.000000
-30.673309 -0.000001 -12.473038 0.000000 1.000000 -0.000000
-30.648758 -0.000001 -12.471996 -0.000000 1.000000 -0.000000
-30.660950 -0.000001 -12.474312 -0.000000 1.000000 -0.000000
-30.628357 -0.000001 -12.459167 -0.000000 1.000000 -0.000000
-30.637817 -0.000001 -12.467178 -0.000000 1.000000 -0.000000
-30.615677 -0.000001 -12.432232 -0.000000 1.000000 -0.000000
-30.619339 -0.000001 -12.445366 -0.000000 1.000000 -0.000000
-30.607895 -0.000001 -12.355465 0.000000 1.000000 -0.000000
-28.982086 -0.000001 -15.994583 0.000000 1.000000 -0.000000
-29.022308 -0.000001 -15.943840 0.000000 1.000000 -0.000000
-29.050278 -0.000001 -15.880775 0.000000 1.000000 -0.000000
-29.037071 -0.000001 -15.843903 0.000000 1.000000 -0.000000
-29.011978 -0.000001 -15.818665 0.000000 1.000000 -0.000000
-28.973839 -0.000001 -15.809788 -0.000000 1.000000 -0.000000
-28.937988 -0.000001 -15.817558 -0.000000 1.000000 -0.000000
-28.874084 -0.000001 -15.917595 0.000000 1.000000 -0.000000
-28.881691 -0.000001 -15.956203 0.000000 1.000000 -0.000000
-28.905853 -0.000001 -15.987267 0.000000 1.000000 -0.000000
-28.943100 -0.000001 -15.999973 0.000000 1.000000 -0.000000
-16.744514 -0.000000 -7.518044 0.000000 1.000000 -0.000000
-15.220047 -0.000000 -7.145958 0.000000 1.000000 -0.000000
-15.153717 -0.000000 -7.138649 0.000000 1.000000 -0.000000
-15.088043 -0.000000 -7.145699 -0.000000 1.000000 -0.000000
-14.922584 -0.000000 -7.210086 -0.000000 1.000000 -0.000000
-14.831528 -0.000000 -7.335350 -0.000000 1.000000 -0.000000
-14.817917 -0.000000 -7.366112 -0.000000 1.000000 -0.000000
-14.800591 -0.000000 -7.430374 0.000000 1.000000 -0.000000
-14.796402 -0.000000 -7.538101 0.000000 1.000000 -0.000000
-14.799403 -0.000000 -7.601680 -0.000000 1.000000 -0.000000
-14.807419 -0.000000 -7.686157 -0.000000 1.000000 -0.000000
-14.820076 -0.000000 -7.749386 0.000000 1.000000 -0.000000
-14.869171 -0.000000 -7.859421 0.000000 1.000000 -0.000000
-15.074020 -0.000000 -8.129738 -0.000000 1.000000 -0.000000
-15.108292 -0.000000 -8.174011 -0.000000 1.000000 -0.000000
-15.363724 -0.000000 -8.424820 -0.000000 1.000000 -0.000000
-15.527596 -0.000000 -8.558411 -0.000000 1.000000 -0.000000
-15.849518 -0.000000 -8.777794 -0.000000 1.000000 -0.000000
-27.455910 -0.000001 -15.178116 -0.000000 1.000000 -0.000000
-27.500969 -0.000001 -15.193604 0.000000 1.000000 -0.000000
-27.649750 -0.000001 -15.219254 0.000000 1.000000 -0.000000
-27.842560 -0.000001 -15.238358 -0.000000 1.000000 -0.000000
-28.197159 -0.000001 -15.225525 -0.000000 1.000000 -0.000000
-28.796265 -0.000001 -15.035873 0.000000 1.000000 -0.000000
-28.906738 -0.000001 -14.958992 0.000000 1.000000 -0.000000
-30.030975 -0.000001 -13.040329 -0.000000 1.000000 -0.000000
-30.080643 -0.000001 -12.881725 -0.000000 1.000000 -0.000000
-30.098663 -0.000001 -12.716522 -0.000000 1.000000 -0.000000
-30.080397 -0.000001 -12.523225 -0.000000 1.000000 -0.000000
-30.066620 -0.000001 -12.454372 -0.000000 1.000000 -0.000000
-30.024658 -0.000001 -12.342300 -0.000000 1.000000 -0.000000
-29.817093 -0.000001 -12.042187 -0.000000 1.000000 -0.000000
-25.143801 -0.000000 -10.130260 -0.000000 1.000000 -0.000000
-24.330154 -0.000000 -9.787872 -0.000000 1.000000 -0.000000
-23.895950 -0.000000 -9.618340 -0.000000 1.000000 -0.000000
-22.654373 -0.000000 -9.118347 -0.000000 1.000000 -0.000000
-22.111893 -0.000000 -8.901230 -0.000000 1.000000 -0.000000
-22.037338 -0.000000 -8.869888 0.000000 1.000000 -0.000000
-21.926971 -0.000000 -8.826828 0.000000 1.000000 -0.000000
-21.912827 -0.000000 -8.820328 0.000000 1.000000 -0.000000
-21.885117 -0.000000 -8.811836 0.000000 1.000000 -0.000000
-21.856354 -0.000000 -8.808289 -0.000000 1.000000 -0.000000
-21.827408 -0.000000 -8.809792 -0.000000 1.000000 -0.000000
-21.799149 -0.000000 -8.816292 -0.000000 1.000000 -0.000000
-21.772461 -0.000000 -8.827614 -0.000000 1.000000 -0.000000
-21.748138 -0.000000 -8.843376 0.000000 1.000000 -0.000000
-21.726929 -0.000000 -8.863136 0.000000 1.000000 -0.000000
-21.709473 -0.000000 -8.886284 -0.000000 1.000000 -0.000000
-19.209610 -0.000000 -8.123970 -0.000000 1.000000 -0.000000
-17.961624 -0.000000 -7.808472 -0.000000 1.000000 -0.000000
-21.036369 -0.000000 -8.578848 -0.000000 1.000000 -0.000000
-20.971985 -0.000000 -8.549629 -0.000000 1.000000 -0.000000
-20.536819 -0.000000 -8.449402 -0.000000 1.000000 -0.000000
-21.106121 -0.000000 -8.736944 0.000000 1.000000 -0.000000
-21.096939 -0.000000 -8.653036 0.000000 1.000000 -0.000000
-21.080032 -0.000000 -8.806404 -0.000000 1.000000 -0.000000
-21.089371 -0.000000 -8.791367 -0.000000 1.000000 -0.000000
3 0 1 2
3 2 3 4
3 4 5 6
3 6 7 8
3 8 9 10
3 8 10 11
3 4 6 8
3 0 2 4
3 12 13 0
3 14 12 0
3 0 4 8
3 8 11 15
3 0 8 15
3 16 14 0
3 16 0 15
3 16 15 17
3 18 16 17
3 18 17 19
3 20 18 19
3 20 19 21
3 22 23 24
3 24 20 21
3 25 26 27
3 24 21 25
3 28 22 24
3 29 30 28
3 31 32 29
3 33 34 31
3 27 35 33
3 24 25 27
3 29 28 24
3 33 31 29
3 24 27 33
3 33 29 24
3 36 37 38
3 38 39 40
3 40 41 42
3 42 43 44
3 44 45 46
3 46 36 38
3 38 40 42
3 42 44 46
3 38 42 46
3 47 48 49
3 49 50 51
3 51 52 53
3 53 54 55
3 55 56 57
3 57 58 59
3 59 60 61
3 61 62 63
3 63 64 65
3 65 66 67
3 67 68 69
3 69 70 71
3 71 72 73
3 73 74 75
3 75 76 77
3 77 78 79
3 79 80 81
3 81 82 83
3 83 84 85
3 85 86 87
3 87 88 89
3 89 90 91
3 91 92 93
3 91 93 94
3 87 89 91
3 83 85 87
3 79 81 83
3 75 77 79
3 71 73 75
3 67 69 71
3 63 65 67
3 59 61 63
3 55 57 59
3 51 53 55
3 47 49 51
3 95 96 47
3 97 98 99
3 95 47 51
3 97 99 95
3 100 101 97
3 102 103 100
3 87 91 94
3 102 100 97
3 83 87 94
3 102 97 95
3 79 83 94
3 102 95 51
3 79 94 102
3 71 75 79
3 63 67 71
3 55 59 63
3 102 51 55
3 71 79 102
3 55 63 71
3 55 71 102
