ply
format ascii 1.0
comment Created by Blender 2.78 (sub 0) - www.blender.org, source file: 'soult.blend'
element vertex 69
property float x
property float y
property float z
property float nx
property float ny
property float nz
element face 65
property list uchar uint vertex_indices
end_header
-16.744514 -0.000000 -7.518044 0.000000 1.000000 -0.000000
-15.220047 -0.000000 -7.145958 0.000000 1.000000 -0.000000
-15.153717 -0.000000 -7.138649 0.000000 1.000000 -0.000000
-15.088043 -0.000000 -7.145699 -0.000000 1.000000 -0.000000
-14.922584 -0.000000 -7.210086 -0.000000 1.000000 -0.000000
-14.831528 -0.000000 -7.335350 -0.000000 1.000000 -0.000000
-14.817917 -0.000000 -7.366112 -0.000000 1.000000 -0.000000
-14.800591 -0.000000 -7.430374 0.000000 1.000000 -0.000000
-14.796402 -0.000000 -7.538101 0.000000 1.000000 -0.000000
-14.799403 -0.000000 -7.601680 -0.000000 1.000000 -0.000000
-14.807419 -0.000000 -7.686157 -0.000000 1.000000 -0.000000
-14.820076 -0.000000 -7.749386 0.000000 1.000000 -0.000000
-14.869171 -0.000000 -7.859421 0.000000 1.000000 -0.000000
-15.074020 -0.000000 -8.129738 -0.000000 1.000000 -0.000000
-15.108292 -0.000000 -8.174011 -0.000000 1.000000 -0.000000
-15.363724 -0.000000 -8.424820 -0.000000 1.000000 -0.000000
-15.527596 -0.000000 -8.558411 -0.000000 1.000000 -0.000000
-15.849518 -0.000000 -8.777794 -0.000000 1.000000 -0.000000
-27.455910 -0.000001 -15.178116 -0.000000 1.000000 -0.000000
-27.500969 -0.000001 -15.193604 0.000000 1.000000 -0.000000
-27.649750 -0.000001 -15.219254 0.000000 1.000000 -0.000000
-27.842560 -0.000001 -15.238358 -0.000000 1.000000 -0.000000
-28.197159 -0.000001 -15.225525 -0.000000 1.000000 -0.000000
-28.796265 -0.000001 -15.035873 0.000000 1.000000 -0.000000
-28.906738 -0.000001 -14.958992 0.000000 1.000000 -0.000000
-30.030975 -0.000001 -13.040329 -0.000000 1.000000 -0.000000
-30.080643 -0.000001 -12.881725 -0.000000 1.000000 -0.000000
-30.098663 -0.000001 -12.716522 -0.000000 1.000000 -0.000000
-30.080397 -0.000001 -12.523225 -0.000000 1.000000 -0.000000
-30.066620 -0.000001 -12.454372 -0.000000 1.000000 -0.000000
-30.024658 -0.000001 -12.342300 -0.000000 1.000000 -0.000000
-29.817093 -0.000001 -12.042187 -0.000000 1.000000 -0.000000
-25.143801 -0.000000 -10.130260 -0.000000 1.000000 -0.000000
-24.330154 -0.000000 -9.787872 -0.000000 1.000000 -0.000000
-23.895950 -0.000000 -9.618340 -0.000000 1.000000 -0.000000
-22.654373 -0.000000 -9.118347 -0.000000 1.000000 -0.000000
-22.111893 -0.000000 -8.901230 -0.000000 1.000000 -0.000000
-22.037338 -0.000000 -8.869888 0.000000 1.000000 -0.000000
-21.926971 -0.000000 -8.826828 0.000000 1.000000 -0.000000
-21.912827 -0.000000 -8.820328 0.000000 1.000000 -0.000000
-21.885117 -0.000000 -8.811836 0.000000 1.000000 -0.000000
-21.856354 -0.000000 -8.808289 -0.000000 1.000000 -0.000000
-21.827408 -0.000000 -8.809792 -0.000000 1.000000 -0.000000
-21.799149 -0.000000 -8.816292 -0.000000 1.000000 -0.000000
-21.772461 -0.000000 -8.827614 -0.000000 1.000000 -0.000000
-21.748138 -0.000000 -8.843376 0.000000 1.000000 -0.000000
-21.726929 -0.000000 -8.863136 0.000000 1.000000 -0.000000
-21.709473 -0.000000 -8.886284 -0.000000 1.000000 -0.000000
-19.209610 -0.000000 -8.123970 -0.000000 1.000000 -0.000000
-17.961624 -0.000000 -7.808472 -0.000000 1.000000 -0.000000
-21.036369 -0.000000 -8.578848 -0.000000 1.000000 -0.000000
-20.971985 -0.000000 -8.549629 -0.000000 1.000000 -0.000000
-20.536819 -0.000000 -8.449402 -0.000000 1.000000 -0.000000
-21.106121 -0.000000 -8.736944 0.000000 1.000000 -0.000000
-21.096939 -0.000000 -8.653036 0.000000 1.000000 -0.000000
-21.080032 -0.000000 -8.806404 -0.000000 1.000000 -0.000000
-21.089371 -0.000000 -8.791367 -0.000000 1.000000 -0.000000
-30.727509 -0.000001 -12.418159 0.000000 1.000000 -0.000000
-30.734470 -0.000001 -12.408835 0.000000 1.000000 -0.000000
-30.608194 -0.000001 -12.358411 0.000000 1.000000 -0.000000
-30.615677 -0.000001 -12.432232 0.000000 1.000000 -0.000000
-30.619339 -0.000001 -12.445366 0.000000 1.000000 -0.000000
-30.628357 -0.000001 -12.459167 0.000000 1.000000 -0.000000
-30.637817 -0.000001 -12.467178 0.000000 1.000000 -0.000000
-30.648758 -0.000001 -12.471996 0.000000 1.000000 -0.000000
-30.660950 -0.000001 -12.474312 0.000000 1.000000 -0.000000
-30.673309 -0.000001 -12.473038 -0.000000 1.000000 -0.000000
-30.685028 -0.000001 -12.468948 -0.000000 1.000000 -0.000000
-30.695084 -0.000001 -12.461670 -0.000000 1.000000 -0.000000
3 0 1 2
3 2 3 4
3 4 5 6
3 6 7 8
3 8 9 10
3 10 11 12
3 12 13 14
3 14 15 16
3 16 17 18
3 18 19 20
3 20 21 22
3 22 23 24
3 24 25 26
3 26 27 28
3 28 29 30
3 30 31 32
3 32 33 34
3 34 35 36
3 36 37 38
3 38 39 40
3 40 41 42
3 42 43 44
3 44 45 46
3 44 46 47
3 40 42 44
3 36 38 40
3 32 34 36
3 28 30 32
3 24 26 28
3 20 22 24
3 16 18 20
3 12 14 16
3 8 10 12
3 4 6 8
3 0 2 4
3 48 49 0
3 50 51 52
3 48 0 4
3 50 52 48
3 53 54 50
3 55 56 53
3 40 44 47
3 55 53 50
3 36 40 47
3 55 50 48
3 32 36 47
3 55 48 4
3 32 47 55
3 24 28 32
3 16 20 24
3 8 12 16
3 55 4 8
3 24 32 55
3 8 16 24
3 8 24 55
3 57 58 59
3 59 60 61
3 61 62 63
3 63 64 65
3 65 66 67
3 67 68 57
3 57 59 61
3 61 63 65
3 65 67 57
3 61 65 57
