ply
format ascii 1.0
comment Created by Blender 2.78 (sub 0) - www.blender.org, source file: 'soult.blend'
element vertex 147
property float x
property float y
property float z
property float nx
property float ny
property float nz
element face 45
property list uchar uint vertex_indices
end_header
-31.644575 -0.158332 -17.306610 0.136566 0.986628 0.088967
-31.668505 -0.152166 -17.336819 0.136566 0.986628 0.088967
-32.286968 -0.080148 -17.187578 0.136566 0.986628 0.088967
-32.245796 -0.100476 -17.023905 0.136566 0.986628 0.088967
-31.673361 -0.000008 -17.459261 -0.998749 0.007863 0.049382
-31.673761 -0.065295 -17.458214 -0.998749 0.007863 0.049382
-31.668505 -0.152166 -17.336819 -0.998749 0.007863 0.049382
-31.667273 0.000011 -17.337376 -0.998749 0.007863 0.049382
-30.035168 -0.000012 -16.327288 -0.861419 -0.000472 -0.507894
-30.034975 -0.481500 -16.327173 -0.861419 -0.000472 -0.507894
-30.310478 -0.481432 -15.859898 -0.861419 -0.000472 -0.507894
-30.310677 0.000005 -15.860014 -0.861419 -0.000472 -0.507894
-32.284012 -0.000006 -17.186602 0.995564 -0.028741 0.089593
-32.286968 -0.080148 -17.187578 0.995564 -0.028741 0.089593
-32.248188 -0.049934 -17.600697 0.995564 -0.028741 0.089593
-32.247448 -0.000012 -17.601025 0.995564 -0.028741 0.089593
-31.618509 -0.000012 -17.276424 -0.707742 0.009753 0.706403
-31.620646 -0.164498 -17.276400 -0.707742 0.009753 0.706403
-31.566725 -0.177194 -17.222095 -0.707742 0.009753 0.706403
-31.563656 -0.000012 -17.221573 -0.707742 0.009753 0.706403
-31.642891 -0.000001 -17.306900 -0.781834 0.009860 0.623409
-31.644575 -0.158332 -17.306610 -0.781834 0.009860 0.623409
-31.620646 -0.164498 -17.276400 -0.781834 0.009860 0.623409
-31.618509 -0.000012 -17.276424 -0.781834 0.009860 0.623409
-30.035168 -0.000012 -16.327288 -0.504603 0.001668 0.863350
-31.563656 -0.000012 -17.221573 -0.504603 0.001668 0.863350
-31.566725 -0.177194 -17.222095 -0.504603 0.001668 0.863350
-30.034975 -0.481500 -16.327173 -0.504603 0.001668 0.863350
-32.245796 -0.100476 -17.023905 0.515668 -0.007020 -0.856760
-32.241348 -0.000008 -17.022051 0.515668 -0.007020 -0.856760
-30.310677 0.000005 -15.860014 0.515668 -0.007020 -0.856760
-30.310677 0.000005 -15.860014 0.515413 0.000005 -0.856942
-30.310478 -0.481432 -15.859898 0.515413 0.000005 -0.856942
-31.890097 -0.170493 -16.809967 0.515413 0.000005 -0.856942
-31.890097 -0.170493 -16.809967 -0.115081 -0.984723 -0.130678
-32.067947 -0.135485 -16.916935 -0.115081 -0.984723 -0.130678
-32.245796 -0.100476 -17.023905 -0.115081 -0.984723 -0.130678
-30.310677 0.000005 -15.860014 0.515413 0.000001 -0.856942
-31.890097 -0.170493 -16.809967 0.515413 0.000001 -0.856942
-32.245796 -0.100476 -17.023905 0.515413 0.000001 -0.856942
-32.286968 -0.080148 -17.187578 0.072528 0.973306 0.217751
-31.668505 -0.152166 -17.336819 0.072528 0.973306 0.217751
-31.673761 -0.065295 -17.458214 0.072528 0.973306 0.217751
-32.248188 -0.049934 -17.600697 0.072528 0.973306 0.217751
-31.610064 -0.000007 -17.629583 -0.067956 0.979192 0.191221
-32.207764 -0.000008 -17.982300 -0.067956 0.979192 0.191221
-32.248188 -0.049934 -17.600697 -0.067956 0.979192 0.191221
-31.673761 -0.065295 -17.458214 -0.067956 0.979192 0.191221
-32.248188 -0.049934 -17.600697 0.994529 -0.014063 0.103513
-32.207764 -0.000008 -17.982300 0.994529 -0.014063 0.103513
-32.247448 -0.000012 -17.601025 0.994529 -0.014063 0.103513
-31.673761 -0.065295 -17.458214 -0.937363 0.000164 -0.348354
-31.673361 -0.000008 -17.459261 -0.937363 0.000164 -0.348354
-31.610064 -0.000007 -17.629583 -0.937363 0.000164 -0.348354
-30.034975 -0.481500 -16.327173 0.142069 0.985833 0.089161
-31.566725 -0.177194 -17.222095 0.142069 0.985833 0.089161
-31.890097 -0.170493 -16.809967 0.142069 0.985833 0.089161
-30.310478 -0.481432 -15.859898 0.142069 0.985833 0.089161
-31.566725 -0.177194 -17.222095 0.138471 0.986022 0.092666
-31.620646 -0.164498 -17.276400 0.138471 0.986022 0.092666
-32.067947 -0.135485 -16.916935 0.138471 0.986022 0.092666
-31.890097 -0.170493 -16.809967 0.138471 0.986022 0.092666
-31.667273 0.000011 -17.337376 -0.781871 0.009044 0.623375
-31.668505 -0.152166 -17.336819 -0.781871 0.009044 0.623375
-31.644575 -0.158332 -17.306610 -0.781871 0.009044 0.623375
-31.642891 -0.000001 -17.306900 -0.781871 0.009044 0.623375
-31.620646 -0.164498 -17.276400 0.138338 0.986057 0.092485
-31.644575 -0.158332 -17.306610 0.138338 0.986057 0.092485
-32.245796 -0.100476 -17.023905 0.138338 0.986057 0.092485
-32.067947 -0.135485 -16.916935 0.138338 0.986057 0.092485
-32.245796 -0.100476 -17.023905 0.967741 -0.035765 -0.249397
-32.286968 -0.080148 -17.187578 0.967741 -0.035765 -0.249397
-32.284012 -0.000006 -17.186602 0.967741 -0.035765 -0.249397
-32.241348 -0.000008 -17.022051 0.967741 -0.035765 -0.249397
-32.890625 -0.000006 -16.999687 0.000001 1.000000 -0.000002
-34.616879 0.000000 -13.957073 0.000001 1.000000 -0.000002
-30.868534 -0.000001 -12.462496 0.000001 1.000000 -0.000002
-28.830828 -0.000008 -15.989495 -0.000003 1.000000 0.000006
-31.610064 -0.000007 -17.629583 -0.000003 1.000000 0.000006
-31.673361 -0.000008 -17.459261 -0.000003 1.000000 0.000006
-31.673361 -0.000008 -17.459261 0.000709 1.000000 -0.000192
-31.667273 0.000011 -17.337376 0.000709 1.000000 -0.000192
-31.642891 -0.000001 -17.306900 0.000709 1.000000 -0.000192
-31.642891 -0.000001 -17.306900 -0.001878 0.999997 0.001878
-31.618509 -0.000012 -17.276424 -0.001878 0.999997 0.001878
-31.563656 -0.000012 -17.221573 -0.001878 0.999997 0.001878
-31.642891 -0.000001 -17.306900 -0.000172 1.000000 0.000294
-31.563656 -0.000012 -17.221573 -0.000172 1.000000 0.000294
-30.035168 -0.000012 -16.327288 -0.000172 1.000000 0.000294
-28.830828 -0.000008 -15.989495 0.000029 1.000000 -0.000056
-31.673361 -0.000008 -17.459261 0.000029 1.000000 -0.000056
-31.642891 -0.000001 -17.306900 0.000029 1.000000 -0.000056
-32.207764 -0.000008 -17.982300 -0.000000 1.000000 -0.000002
-32.303280 -0.000008 -18.038666 -0.000000 1.000000 -0.000002
-32.890625 -0.000006 -16.999687 -0.000000 1.000000 -0.000002
-32.247448 -0.000012 -17.601025 0.000021 1.000000 0.000013
-32.207764 -0.000008 -17.982300 0.000021 1.000000 0.000013
-32.890625 -0.000006 -16.999687 0.000021 1.000000 0.000013
-28.830828 -0.000008 -15.989495 -0.000012 1.000000 0.000031
-31.642891 -0.000001 -17.306900 -0.000012 1.000000 0.000031
-30.035168 -0.000012 -16.327288 -0.000012 1.000000 0.000031
-28.830828 -0.000008 -15.989495 0.000006 1.000000 -0.000033
-30.035168 -0.000012 -16.327288 0.000006 1.000000 -0.000033
-30.310677 0.000005 -15.860014 0.000006 1.000000 -0.000033
-32.284012 -0.000006 -17.186602 -0.000004 1.000000 -0.000014
-32.247448 -0.000012 -17.601025 -0.000004 1.000000 -0.000014
-32.890625 -0.000006 -16.999687 -0.000004 1.000000 -0.000014
-32.241348 -0.000008 -17.022051 0.000004 1.000000 0.000011
-32.284012 -0.000006 -17.186602 0.000004 1.000000 0.000011
-32.890625 -0.000006 -16.999687 0.000004 1.000000 0.000011
-30.868534 -0.000001 -12.462496 0.000009 1.000000 0.000003
-28.830828 -0.000008 -15.989495 0.000009 1.000000 0.000003
-30.310677 0.000005 -15.860014 0.000009 1.000000 0.000003
-30.310677 0.000005 -15.860014 0.000003 1.000000 -0.000016
-32.241348 -0.000008 -17.022051 0.000003 1.000000 -0.000016
-32.890625 -0.000006 -16.999687 0.000003 1.000000 -0.000016
-32.890625 -0.000006 -16.999687 -0.000005 1.000000 0.000001
-30.868534 -0.000001 -12.462496 -0.000005 1.000000 0.000001
-30.310677 0.000005 -15.860014 -0.000005 1.000000 0.000001
-31.610064 -0.000007 -17.629583 -0.000007 1.000000 0.000010
-32.207764 -0.000008 -17.982300 -0.000007 1.000000 0.000010
-32.247448 -0.000012 -17.601025 -0.000007 1.000000 0.000010
-32.247448 -0.000012 -17.601025 0.000073 1.000000 -0.000007
-32.284012 -0.000006 -17.186602 0.000073 1.000000 -0.000007
-32.241348 -0.000008 -17.022051 0.000073 1.000000 -0.000007
-32.241348 -0.000008 -17.022051 0.000011 1.000000 -0.000030
-30.310677 0.000005 -15.860014 0.000011 1.000000 -0.000030
-30.035168 -0.000012 -16.327288 0.000011 1.000000 -0.000030
-32.241348 -0.000008 -17.022051 0.000004 1.000000 -0.000006
-30.035168 -0.000012 -16.327288 0.000004 1.000000 -0.000006
-31.563656 -0.000012 -17.221573 0.000004 1.000000 -0.000006
-31.610064 -0.000007 -17.629583 -0.000008 1.000000 -0.000007
-32.247448 -0.000012 -17.601025 -0.000008 1.000000 -0.000007
-32.241348 -0.000008 -17.022051 -0.000008 1.000000 -0.000007
-31.673361 -0.000008 -17.459261 0.000007 1.000000 0.000010
-31.610064 -0.000007 -17.629583 0.000007 1.000000 0.000010
-32.241348 -0.000008 -17.022051 0.000007 1.000000 0.000010
-32.241348 -0.000008 -17.022051 0.000004 1.000000 -0.000004
-31.563656 -0.000012 -17.221573 0.000004 1.000000 -0.000004
-31.618509 -0.000012 -17.276424 0.000004 1.000000 -0.000004
-32.241348 -0.000008 -17.022051 0.000120 1.000000 0.000279
-31.618509 -0.000012 -17.276424 0.000120 1.000000 0.000279
-31.642891 -0.000001 -17.306900 0.000120 1.000000 0.000279
-31.667273 0.000011 -17.337376 -0.000116 1.000000 -0.000151
-31.673361 -0.000008 -17.459261 -0.000116 1.000000 -0.000151
-32.241348 -0.000008 -17.022051 -0.000116 1.000000 -0.000151
-31.667273 0.000011 -17.337376 0.000120 1.000000 0.000279
4 0 1 2 3
4 4 5 6 7
4 8 9 10 11
4 12 13 14 15
4 16 17 18 19
4 20 21 22 23
4 24 25 26 27
3 28 29 30
3 31 32 33
3 34 35 36
3 37 38 39
4 40 41 42 43
4 44 45 46 47
3 48 49 50
3 51 52 53
4 54 55 56 57
4 58 59 60 61
4 62 63 64 65
4 66 67 68 69
4 70 71 72 73
3 74 75 76
3 77 78 79
3 80 81 82
3 83 84 85
3 86 87 88
3 89 90 91
3 92 93 94
3 95 96 97
3 98 99 100
3 101 102 103
3 104 105 106
3 107 108 109
3 110 111 112
3 113 114 115
3 116 117 118
3 119 120 121
3 122 123 124
3 125 126 127
3 128 129 130
3 131 132 133
3 134 135 136
3 137 138 139
3 140 141 142
3 143 144 145
3 140 142 146
