ply
format ascii 1.0
comment Created by Blender 2.78 (sub 0) - www.blender.org, source file: 'soult.blend'
element vertex 54
property float x
property float y
property float z
property float nx
property float ny
property float nz
element face 37
property list uchar uint vertex_indices
end_header
-27.455910 -0.000001 -15.178116 -0.000000 1.000000 -0.000002
-32.303280 -0.000008 -18.038666 -0.000000 1.000000 -0.000002
-32.890625 -0.000006 -16.999687 -0.000000 1.000000 -0.000002
-32.890625 -0.000006 -16.999687 0.000001 1.000000 -0.000002
-34.616882 -0.000001 -13.957072 0.000001 1.000000 -0.000002
-30.827486 -0.000001 -12.446129 0.000001 1.000000 -0.000002
-29.817093 -0.000001 -12.042187 0.000001 1.000000 -0.000002
-18.993301 -0.000000 -10.511428 -0.000003 1.000000 0.000005
-27.455910 -0.000001 -15.178116 -0.000003 1.000000 0.000005
-32.890625 -0.000006 -16.999687 -0.000003 1.000000 0.000005
-18.993301 -0.000000 -10.511428 0.000000 1.000000 -0.000001
-32.890625 -0.000006 -16.999687 0.000000 1.000000 -0.000001
-29.817093 -0.000001 -12.042187 0.000000 1.000000 -0.000001
-25.143801 -0.000000 -10.130260 -0.000000 1.000000 -0.000000
-24.330154 -0.000000 -9.787872 -0.000000 1.000000 -0.000000
-23.895950 -0.000000 -9.618340 -0.000000 1.000000 -0.000000
-18.993301 -0.000000 -10.511428 0.000000 1.000000 -0.000000
-29.817093 -0.000001 -12.042187 0.000000 1.000000 -0.000000
-18.386251 -0.000000 -10.247392 0.000000 1.000000 -0.000000
-22.654373 -0.000000 -9.118347 -0.000000 1.000000 0.000000
-22.111893 -0.000000 -8.901230 0.000000 1.000000 -0.000000
-22.037338 -0.000000 -8.869888 0.000000 1.000000 -0.000000
-21.926971 -0.000000 -8.826828 0.000000 1.000000 -0.000000
-17.663149 -0.000000 -9.989522 0.000000 1.000000 -0.000000
-16.359085 -0.000000 -9.611130 -0.000000 1.000000 -0.000000
-17.010216 -0.000000 -9.804489 -0.000000 1.000000 -0.000000
-15.027130 -0.000000 -9.097550 -0.000000 1.000000 -0.000000
-15.636976 -0.000000 -9.353541 -0.000000 1.000000 -0.000000
-14.768309 -0.000000 -8.971005 -0.000007 1.000000 0.000013
-14.863209 -0.000000 -9.023190 -0.000007 1.000000 0.000013
-14.914373 -0.000000 -9.044676 -0.000007 1.000000 0.000013
-14.914373 -0.000000 -9.044676 0.000000 1.000000 -0.000000
-21.912827 -0.000000 -8.820328 0.000000 1.000000 -0.000000
-21.885117 -0.000000 -8.811836 0.000000 1.000000 -0.000000
-20.971985 -0.000000 -8.549629 -0.000000 1.000000 -0.000000
-20.536819 -0.000000 -8.449402 -0.000000 1.000000 -0.000000
-19.209610 -0.000000 -8.123970 -0.000000 1.000000 -0.000000
-17.961624 -0.000000 -7.808472 -0.000000 1.000000 -0.000000
-16.744514 -0.000000 -7.518044 -0.000000 1.000000 -0.000000
-14.677451 -0.000000 -8.871888 -0.000001 1.000000 0.000001
-14.768309 -0.000000 -8.971005 -0.000001 1.000000 0.000001
-14.914373 -0.000000 -9.044676 -0.000001 1.000000 0.000001
-14.497613 -0.000000 -8.445415 -0.000000 1.000000 -0.000000
-14.579824 -0.000000 -8.697188 -0.000000 1.000000 -0.000000
-14.677451 -0.000000 -8.871888 -0.000000 1.000000 -0.000000
-14.449313 -0.000000 -7.952660 -0.000000 1.000000 -0.000000
-14.441092 -0.000000 -8.193643 -0.000000 1.000000 -0.000000
-14.562354 -0.000000 -7.300105 -0.000000 1.000000 0.000000
-14.500695 -0.000000 -7.608398 -0.000000 1.000000 0.000000
-15.220047 -0.000000 -7.145958 -0.000000 1.000000 0.000000
-14.613736 -0.000000 -7.027779 -0.000000 1.000000 0.000000
-14.677451 -0.000000 -8.871888 0.000000 1.000000 -0.000001
-14.914373 -0.000000 -9.044676 0.000000 1.000000 -0.000001
-25.143801 -0.000000 -10.130260 0.000000 1.000000 -0.000001
3 0 1 2
3 3 4 5
3 3 5 6
3 7 8 9
3 10 11 12
3 13 14 15
3 16 17 13
3 18 16 13
3 13 15 19
3 20 21 22
3 13 19 20
3 23 18 13
3 24 25 23
3 26 27 24
3 28 29 30
3 31 26 24
3 24 23 13
3 13 20 22
3 22 32 33
3 33 34 35
3 36 37 38
3 33 35 36
3 13 22 33
3 31 24 13
3 39 40 41
3 42 43 44
3 45 46 42
3 47 48 45
3 49 50 47
3 36 38 49
3 13 33 36
3 51 52 53
3 45 42 44
3 49 47 45
3 13 36 49
3 45 44 13
3 13 49 45
