ply
format ascii 1.0
comment Created by Blender 2.78 (sub 0) - www.blender.org, source file: 'soult.blend'
element vertex 55
property float x
property float y
property float z
property float nx
property float ny
property float nz
element face 46
property list uchar uint vertex_indices
end_header
-28.982086 -0.000001 -15.994583 0.000000 1.000000 -0.000000
-29.022308 -0.000001 -15.943840 0.000000 1.000000 -0.000000
-29.050278 -0.000001 -15.880775 0.000000 1.000000 -0.000000
-29.037071 -0.000001 -15.843903 0.000000 1.000000 -0.000000
-29.011978 -0.000001 -15.818665 0.000000 1.000000 -0.000000
-28.973839 -0.000001 -15.809788 -0.000000 1.000000 -0.000000
-28.937988 -0.000001 -15.817558 -0.000000 1.000000 -0.000000
-28.874084 -0.000001 -15.917595 0.000000 1.000000 -0.000000
-28.881691 -0.000001 -15.956203 0.000000 1.000000 -0.000000
-28.905853 -0.000001 -15.987267 0.000000 1.000000 -0.000000
-28.943100 -0.000001 -15.999973 0.000000 1.000000 -0.000000
-30.827486 -0.000001 -12.446129 -0.000000 1.000000 -0.000000
-29.817093 -0.000001 -12.042187 -0.000000 1.000000 -0.000000
-27.455910 -0.000001 -15.178116 0.000020 1.000000 -0.000039
-28.784748 -0.000008 -16.066088 0.000020 1.000000 -0.000039
-28.874084 -0.000001 -15.917595 0.000020 1.000000 -0.000039
-18.993301 -0.000000 -10.511428 -0.000000 1.000000 -0.000000
-27.455910 -0.000001 -15.178116 -0.000000 1.000000 -0.000000
-25.143801 -0.000000 -10.130260 -0.000000 1.000000 -0.000000
-24.330154 -0.000000 -9.787872 -0.000000 1.000000 -0.000000
-23.895950 -0.000000 -9.618340 -0.000000 1.000000 -0.000000
-22.654373 -0.000000 -9.118347 -0.000000 1.000000 -0.000000
-22.111893 -0.000000 -8.901230 -0.000000 1.000000 -0.000000
-22.037338 -0.000000 -8.869888 0.000000 1.000000 -0.000000
-21.926971 -0.000000 -8.826828 0.000000 1.000000 -0.000000
-21.912827 -0.000000 -8.820328 0.000000 1.000000 -0.000000
-21.885117 -0.000000 -8.811836 0.000000 1.000000 -0.000000
-20.971985 -0.000000 -8.549629 -0.000000 1.000000 -0.000000
-20.536819 -0.000000 -8.449402 -0.000000 1.000000 -0.000000
-19.209610 -0.000000 -8.123970 -0.000000 1.000000 -0.000000
-17.961624 -0.000000 -7.808472 -0.000000 1.000000 -0.000000
-16.744514 -0.000000 -7.518044 -0.000000 1.000000 -0.000000
-18.386251 -0.000000 -10.247392 0.000000 1.000000 -0.000000
-15.220047 -0.000000 -7.145958 0.000000 1.000000 -0.000000
-14.613736 -0.000000 -7.027779 0.000000 1.000000 -0.000000
-14.562354 -0.000000 -7.300105 -0.000000 1.000000 0.000000
-14.500695 -0.000000 -7.608398 -0.000000 1.000000 0.000000
-14.449313 -0.000000 -7.952660 -0.000000 1.000000 0.000000
-17.663149 -0.000000 -9.989522 0.000000 1.000000 -0.000000
-16.359085 -0.000000 -9.611130 -0.000000 1.000000 -0.000000
-17.010216 -0.000000 -9.804489 -0.000000 1.000000 -0.000000
-15.027130 -0.000000 -9.097550 -0.000000 1.000000 -0.000000
-15.636976 -0.000000 -9.353541 -0.000000 1.000000 -0.000000
-14.768309 -0.000000 -8.971005 -0.000007 1.000000 0.000013
-14.863209 -0.000000 -9.023190 -0.000007 1.000000 0.000013
-14.914373 -0.000000 -9.044676 -0.000007 1.000000 0.000013
-14.914373 -0.000000 -9.044676 0.000000 1.000000 -0.000000
-14.441092 -0.000000 -8.193643 -0.000000 1.000000 -0.000000
-14.497613 -0.000000 -8.445415 -0.000000 1.000000 0.000000
-14.579824 -0.000000 -8.697188 -0.000000 1.000000 0.000000
-14.677451 -0.000000 -8.871888 -0.000000 1.000000 -0.000000
-14.768309 -0.000000 -8.971005 -0.000000 1.000000 -0.000000
-14.768309 -0.000000 -8.971005 0.000002 1.000000 -0.000005
-14.914373 -0.000000 -9.044676 0.000002 1.000000 -0.000005
-16.359085 -0.000000 -9.611130 0.000002 1.000000 -0.000005
3 0 1 2
3 2 3 4
3 4 5 6
3 6 7 8
3 8 9 10
3 10 0 2
3 2 4 6
3 6 8 10
3 2 6 10
3 7 6 11
3 7 11 12
3 13 14 15
3 16 17 7
3 7 12 18
3 18 19 20
3 20 21 22
3 22 23 24
3 24 25 26
3 26 27 28
3 29 30 31
3 26 28 29
3 22 24 26
3 18 20 22
3 16 7 18
3 32 16 18
3 18 22 26
3 26 29 31
3 31 33 34
3 35 36 37
3 31 34 35
3 18 26 31
3 38 32 18
3 39 40 38
3 41 42 39
3 43 44 45
3 46 41 39
3 39 38 18
3 18 31 35
3 35 37 47
3 47 48 49
3 49 50 51
3 52 53 54
3 39 18 35
3 35 47 49
3 49 51 39
3 35 49 39
