ply
format ascii 1.0
comment Created by Blender 2.78 (sub 0) - www.blender.org, source file: 'soult.blend'
element vertex 118
property float x
property float y
property float z
property float nx
property float ny
property float nz
element face 72
property list uchar uint vertex_indices
end_header
-19.774031 -0.000000 -12.429113 0.000000 1.000000 0.000000
-19.736288 -0.000000 -12.444747 0.000000 1.000000 0.000000
-19.720655 -0.000000 -12.482489 0.000000 1.000000 0.000000
-19.736288 -0.000000 -12.520230 0.000000 1.000000 0.000000
-19.774031 -0.000000 -12.535863 0.000000 1.000000 0.000000
-19.811771 -0.000000 -12.520230 0.000000 1.000000 0.000000
-19.827406 -0.000000 -12.482489 0.000000 1.000000 0.000000
-19.811771 -0.000000 -12.444747 -0.000000 1.000000 0.000000
-27.599747 -0.000001 -19.311295 -0.000003 1.000000 0.000005
-27.731209 -0.000001 -19.384535 -0.000003 1.000000 0.000005
-28.405201 -0.000008 -18.180338 -0.000003 1.000000 0.000005
-28.405201 -0.000008 -18.180338 -0.000000 1.000000 -0.000000
-29.787970 -0.000008 -18.968369 -0.000000 1.000000 -0.000000
-29.854876 -0.000008 -18.901463 -0.000000 1.000000 -0.000000
-33.148247 -0.000001 -20.752592 -0.000022 1.000000 0.000020
-33.341537 0.000007 -21.339899 -0.000022 1.000000 0.000020
-34.034943 -0.000001 -21.706436 -0.000022 1.000000 0.000020
-33.148247 -0.000001 -20.752592 -0.000000 1.000000 -0.000000
-34.034943 -0.000001 -21.706436 -0.000000 1.000000 -0.000000
-34.074829 -0.000001 -21.608017 -0.000000 1.000000 -0.000000
-34.340088 -0.000001 -20.886993 -0.000000 1.000000 -0.000000
-34.342087 -0.000001 -20.794220 -0.000000 1.000000 -0.000000
-34.311676 -0.000001 -20.664368 0.000000 1.000000 -0.000000
-34.285858 -0.000001 -20.603806 0.000000 1.000000 -0.000000
-34.155418 -0.000001 -20.473721 -0.000000 1.000000 -0.000000
-28.842907 -0.000001 -17.479950 -0.000000 1.000000 -0.000000
-28.790649 -0.000001 -17.456848 0.000000 1.000000 -0.000000
-28.518768 -0.000001 -17.374969 0.000000 1.000000 -0.000000
-28.445618 -0.000001 -17.372055 0.000000 1.000000 -0.000000
-28.315796 -0.000001 -17.384613 0.000000 1.000000 -0.000000
-28.276184 -0.000001 -17.393082 -0.000000 1.000000 -0.000000
-27.993179 -0.000001 -17.524918 -0.000000 1.000000 -0.000000
-27.939957 -0.000001 -17.559998 0.000000 1.000000 -0.000000
-27.821960 -0.000001 -17.660583 0.000000 1.000000 -0.000000
-27.723236 -0.000001 -17.780106 0.000000 1.000000 -0.000000
-27.692413 -0.000001 -17.828079 0.000000 1.000000 -0.000000
-27.710175 -0.000001 -17.838043 -0.000000 1.000000 -0.000000
-28.197144 -0.000001 -18.105484 -0.000000 1.000000 -0.000000
-28.175659 -0.000001 -18.143951 -0.000000 1.000000 -0.000000
-27.965027 -0.000001 -18.558716 -0.000000 1.000000 -0.000000
-27.654083 -0.000001 -19.119125 0.000000 1.000000 -0.000000
-27.404144 -0.000001 -18.969193 0.000000 1.000000 -0.000000
-27.388443 -0.000001 -18.979034 0.000000 1.000000 -0.000000
-27.435883 -0.000001 -19.138153 -0.000000 1.000000 -0.000000
-27.463142 -0.000001 -19.191757 0.000000 1.000000 -0.000000
-27.506233 -0.000001 -19.242661 0.000000 1.000000 -0.000000
-29.854876 -0.000008 -18.901463 -0.000000 1.000000 0.000004
-33.148247 -0.000001 -20.752592 -0.000000 1.000000 0.000004
-34.342087 -0.000001 -20.794220 -0.000000 1.000000 0.000004
-28.405201 -0.000008 -18.180338 0.000011 1.000000 -0.000023
-29.854876 -0.000008 -18.901463 0.000011 1.000000 -0.000023
-34.342087 -0.000001 -20.794220 0.000011 1.000000 -0.000023
-28.405201 -0.000008 -18.180338 0.000006 1.000000 -0.000010
-34.342087 -0.000001 -20.794220 0.000006 1.000000 -0.000010
-28.315796 -0.000001 -17.384613 0.000006 1.000000 -0.000010
-28.405201 -0.000008 -18.180338 -0.000035 1.000000 -0.000006
-28.315796 -0.000001 -17.384613 -0.000035 1.000000 -0.000006
-28.197144 -0.000001 -18.105484 -0.000035 1.000000 -0.000006
-27.599747 -0.000001 -19.311295 -0.000000 1.000000 -0.000000
-28.405201 -0.000008 -18.180338 -0.000031 1.000000 -0.000016
-28.197144 -0.000001 -18.105484 -0.000031 1.000000 -0.000016
-27.965027 -0.000001 -18.558716 -0.000031 1.000000 -0.000016
-28.405201 -0.000008 -18.180338 -0.000030 1.000000 -0.000014
-27.965027 -0.000001 -18.558716 -0.000030 1.000000 -0.000014
-27.599747 -0.000001 -19.311295 -0.000030 1.000000 -0.000014
-20.277060 -0.000001 -12.702878 0.000000 1.000000 -0.000000
-20.220957 -0.000001 -12.681839 0.000000 1.000000 -0.000000
-20.122776 -0.000001 -12.695865 0.000000 1.000000 -0.000000
-20.080698 -0.000001 -12.716904 0.000000 1.000000 -0.000000
-20.010569 -0.000001 -12.773006 0.000000 1.000000 -0.000000
-19.091883 -0.000001 -15.388807 0.000000 1.000000 0.000000
-19.077856 -0.000001 -15.465949 0.000000 1.000000 0.000000
-19.098894 -0.000001 -15.571142 0.000000 1.000000 0.000000
-19.147984 -0.000001 -15.648284 0.000000 1.000000 0.000000
-19.211100 -0.000001 -15.697374 0.000000 1.000000 -0.000000
-19.275036 -0.000001 -15.583784 0.000000 1.000000 -0.000000
-19.708698 -0.000001 -14.561571 0.000000 1.000000 -0.000000
-20.232410 -0.000001 -13.003695 0.000000 1.000000 -0.000000
-27.329348 -0.000008 -16.691902 0.000000 1.000000 -0.000000
-26.744246 -0.000008 -17.763163 0.000000 1.000000 -0.000000
-26.804478 -0.000008 -17.788975 0.000000 1.000000 -0.000000
-27.412683 -0.000001 -16.569271 0.000000 1.000000 -0.000000
-27.458385 -0.000001 -16.636375 0.000000 1.000000 -0.000000
-27.435215 -0.000001 -16.601103 0.000000 1.000000 -0.000000
-27.441475 -0.000001 -16.744595 -0.000000 1.000000 -0.000000
-27.459007 -0.000001 -16.691998 -0.000000 1.000000 -0.000000
-26.342152 -0.000008 -18.699539 0.000079 1.000000 0.000040
-26.422815 -0.000001 -18.733406 0.000079 1.000000 0.000040
-27.441475 -0.000001 -16.744595 0.000079 1.000000 0.000040
-26.804478 -0.000008 -17.788975 0.000072 1.000000 0.000036
-26.342152 -0.000008 -18.699539 0.000072 1.000000 0.000036
-27.441475 -0.000001 -16.744595 0.000072 1.000000 0.000036
-20.122776 -0.000001 -12.695865 0.000001 1.000000 0.000000
-19.077856 -0.000001 -15.465949 0.000001 1.000000 0.000000
-20.232410 -0.000001 -13.003695 0.000001 1.000000 0.000000
-27.329348 -0.000008 -16.691902 0.000056 1.000000 0.000027
-26.804478 -0.000008 -17.788975 0.000056 1.000000 0.000027
-27.441475 -0.000001 -16.744595 0.000056 1.000000 0.000027
-20.122776 -0.000001 -12.695865 -0.000002 1.000000 0.000001
-20.232410 -0.000001 -13.003695 -0.000002 1.000000 0.000001
-27.329348 -0.000008 -16.691902 -0.000002 1.000000 0.000001
-20.122776 -0.000001 -12.695865 0.000453 1.000000 -0.000818
-27.329348 -0.000008 -16.691902 0.000453 1.000000 -0.000818
-27.441475 -0.000001 -16.744595 0.000453 1.000000 -0.000818
-34.555206 -0.000001 -21.382355 -0.000000 1.000000 -0.000000
-34.474182 -0.000001 -21.545700 -0.000000 1.000000 -0.000000
-34.446999 -0.000001 -21.654364 -0.000000 1.000000 -0.000000
-34.464806 -0.000001 -21.693481 0.000000 1.000000 -0.000000
-34.517738 -0.000001 -21.697712 0.000000 1.000000 -0.000000
-34.623779 -0.000001 -21.650116 -0.000000 1.000000 -0.000000
-34.707855 -0.000001 -21.590347 -0.000000 1.000000 -0.000000
-34.768341 -0.000001 -21.530853 0.000000 1.000000 -0.000000
-34.846649 -0.000001 -21.428009 0.000000 1.000000 -0.000000
-34.882843 -0.000001 -21.350805 0.000000 1.000000 -0.000000
-34.862701 -0.000001 -21.277859 0.000000 1.000000 -0.000000
-34.828728 -0.000001 -21.240082 0.000000 1.000000 -0.000000
-34.726494 -0.000001 -21.225529 0.000000 1.000000 -0.000000
-34.658478 -0.000001 -21.253265 0.000000 1.000000 -0.000000
3 0 1 2
3 2 3 4
3 4 5 6
3 6 7 0
3 0 2 4
3 4 6 0
3 8 9 10
3 11 12 13
3 14 15 16
3 17 18 19
3 19 20 21
3 21 22 23
3 23 24 25
3 25 26 27
3 27 28 29
3 29 30 31
3 31 32 33
3 33 34 35
3 35 36 37
3 37 38 39
3 40 41 42
3 40 42 43
3 43 44 45
3 17 19 21
3 21 23 25
3 25 27 29
3 29 31 33
3 33 35 37
3 29 33 37
3 21 25 29
3 46 47 48
3 49 50 51
3 40 43 45
3 52 53 54
3 55 56 57
3 40 45 58
3 59 60 61
3 39 40 58
3 62 63 64
3 65 66 67
3 67 68 69
3 69 70 71
3 71 72 73
3 73 74 75
3 75 76 77
3 78 79 80
3 73 75 77
3 71 73 77
3 67 69 71
3 81 65 67
3 82 83 81
3 84 85 82
3 86 87 88
3 89 90 91
3 84 82 81
3 92 93 94
3 95 96 97
3 98 99 100
3 84 81 67
3 101 102 103
3 104 105 106
3 106 107 108
3 108 109 110
3 110 111 112
3 112 113 114
3 114 115 116
3 116 117 104
3 104 106 108
3 108 110 112
3 112 114 116
3 116 104 108
3 108 112 116
