ply
format ascii 1.0
comment Created by Blender 2.78 (sub 0) - www.blender.org, source file: 'soult.blend'
element vertex 553
property float x
property float y
property float z
property float nx
property float ny
property float nz
property float s
property float t
element face 183
property list uchar uint vertex_indices
end_header
-25.128496 0.024797 -9.927577 -0.283161 0.952269 -0.114035 0.387423 0.929969
-25.114147 0.028332 -9.933691 -0.283161 0.952269 -0.114035 0.387503 0.930069
-25.070133 0.028332 -10.042977 -0.283161 0.952269 -0.114035 0.387503 0.931135
-25.076244 0.024797 -10.057330 -0.283161 0.952269 -0.114035 0.387423 0.931235
-25.076244 0.024797 -10.057330 0.113998 0.952300 -0.283070 0.387423 0.931235
-25.070133 0.028332 -10.042977 0.113998 0.952300 -0.283070 0.387503 0.931135
-24.960848 0.028332 -9.998964 0.113998 0.952300 -0.283070 0.388365 0.931135
-24.946491 0.024797 -10.005077 0.113998 0.952300 -0.283070 0.388447 0.931235
-24.946491 0.024797 -10.005077 0.283050 0.952307 0.113991 0.388447 0.931235
-24.960848 0.028332 -9.998964 0.283050 0.952307 0.113991 0.388365 0.931135
-25.004860 0.028332 -9.889677 0.283050 0.952307 0.113991 0.388365 0.930069
-24.998747 0.024797 -9.875323 0.283050 0.952307 0.113991 0.388447 0.929969
-25.114147 0.028332 -9.933691 -0.114009 0.952293 0.283090 0.387503 0.930069
-25.128496 0.024797 -9.927577 -0.114009 0.952293 0.283090 0.387423 0.929969
-24.998747 0.024797 -9.875323 -0.114009 0.952293 0.283090 0.388447 0.929969
-25.004860 0.028332 -9.889677 -0.114009 0.952293 0.283090 0.388365 0.930069
-25.011700 0.087015 -9.905737 0.927591 -0.000000 0.373597 0.391888 0.924905
-25.011700 0.028332 -9.905737 0.927591 -0.000000 0.373597 0.391888 0.924798
-24.976906 0.028332 -9.992126 0.927591 -0.000000 0.373597 0.392025 0.924798
-24.976906 0.028332 -9.992126 0.927604 0.000000 0.373565 0.392025 0.924798
-24.976906 0.152206 -9.992126 0.927604 0.000000 0.373565 0.392025 0.925024
-24.994301 0.152206 -9.948932 0.927604 0.000000 0.373565 0.391957 0.925024
-24.976906 0.028332 -9.992126 0.927587 -0.000017 0.373606 0.392025 0.924798
-24.994301 0.152206 -9.948932 0.927587 -0.000017 0.373606 0.391957 0.925024
-25.011700 0.087015 -9.905737 0.927587 -0.000017 0.373606 0.391888 0.924905
-25.098083 0.028332 -9.940528 -0.000000 1.000000 -0.000000 0.387471 0.927251
-25.063293 0.028332 -10.026920 -0.000000 1.000000 -0.000000 0.387471 0.928094
-25.070133 0.028332 -10.042977 -0.000000 1.000000 -0.000000 0.387381 0.928206
-25.114147 0.028332 -9.933691 -0.000000 1.000000 -0.000000 0.387381 0.927139
-24.976906 0.028332 -9.992126 0.000000 1.000000 -0.000000 0.388153 0.928094
-24.960848 0.028332 -9.998964 0.000000 1.000000 -0.000000 0.388243 0.928206
-25.011700 0.028332 -9.905737 0.000000 1.000000 0.000000 0.388153 0.927251
-25.004860 0.028332 -9.889677 0.000000 1.000000 0.000000 0.388243 0.927139
-25.072748 0.143113 -9.973522 0.927657 -0.000049 0.373432 0.389053 0.923888
-25.085289 0.096108 -9.942378 0.927657 -0.000049 0.373432 0.389053 0.924411
-25.081440 0.088746 -9.951938 0.927657 -0.000049 0.373432 0.388960 0.924411
-25.068901 0.135751 -9.983083 0.927657 -0.000049 0.373432 0.388960 0.923888
-25.063293 0.152206 -10.026920 -0.927611 0.000000 -0.373547 0.392025 0.925024
-25.063293 0.028332 -10.026920 -0.927611 0.000000 -0.373547 0.392025 0.925251
-25.098083 0.028332 -9.940528 -0.927611 0.000000 -0.373547 0.391888 0.925251
-25.098083 0.028332 -9.940528 -0.927604 -0.000000 -0.373565 0.391888 0.925251
-25.098083 0.087015 -9.940528 -0.927604 -0.000000 -0.373565 0.391888 0.925143
-25.080688 0.152206 -9.983722 -0.927604 -0.000000 -0.373565 0.391957 0.925024
-25.098083 0.028332 -9.940528 -0.927618 0.000014 -0.373529 0.391888 0.925251
-25.080688 0.152206 -9.983722 -0.927618 0.000014 -0.373529 0.391957 0.925024
-25.063293 0.152206 -10.026920 -0.927618 0.000014 -0.373529 0.392025 0.925024
-25.098083 0.028332 -9.940528 -0.373588 0.000000 0.927595 0.391819 0.925280
-25.011700 0.028332 -9.905737 -0.373588 0.000000 0.927595 0.391681 0.925280
-25.011700 0.087015 -9.905737 -0.373588 0.000000 0.927595 0.391681 0.925173
-25.098083 0.087015 -9.940528 -0.373588 0.000000 0.927595 0.391819 0.925173
-24.976906 0.028332 -9.992126 0.373609 0.000000 -0.927586 0.392025 0.924798
-25.063293 0.028332 -10.026920 0.373609 0.000000 -0.927586 0.392163 0.924798
-25.063293 0.152206 -10.026920 0.373609 0.000000 -0.927586 0.392163 0.925024
-24.976906 0.152206 -9.992126 0.373609 0.000000 -0.927586 0.392025 0.925024
-24.976906 0.152206 -9.992126 0.000000 1.000000 0.000000 0.391819 0.925224
-25.063293 0.152206 -10.026920 0.000000 1.000000 0.000000 0.391819 0.925054
-25.080688 0.152206 -9.983722 0.000000 1.000000 0.000000 0.391888 0.925054
-24.994301 0.152206 -9.948932 0.000000 1.000000 0.000000 0.391888 0.925224
-25.007097 0.143113 -9.947080 -0.303863 0.581244 0.754866 0.390958 0.930651
-25.019638 0.096108 -9.915936 -0.303863 0.581244 0.754866 0.390958 0.930923
-25.011700 0.087015 -9.905737 -0.303863 0.581244 0.754866 0.390906 0.930976
-24.994301 0.152206 -9.948932 -0.303863 0.581244 0.754866 0.390906 0.930599
-25.019638 0.096108 -9.915936 -0.304011 0.581227 0.754820 0.390958 0.930923
-25.085289 0.096108 -9.942378 -0.304011 0.581227 0.754820 0.391289 0.930923
-25.098083 0.087015 -9.940528 -0.304011 0.581227 0.754820 0.391342 0.930976
-25.011700 0.087015 -9.905737 -0.304011 0.581227 0.754820 0.390906 0.930976
-25.085289 0.096108 -9.942378 -0.303955 0.581233 0.754837 0.391289 0.930923
-25.072748 0.143113 -9.973522 -0.303955 0.581233 0.754837 0.391289 0.930651
-25.080688 0.152206 -9.983722 -0.303955 0.581233 0.754837 0.391342 0.930599
-25.098083 0.087015 -9.940528 -0.303955 0.581233 0.754837 0.391342 0.930976
-25.072748 0.143113 -9.973522 -0.303980 0.581305 0.754772 0.391289 0.930651
-25.007097 0.143113 -9.947080 -0.303980 0.581305 0.754772 0.390958 0.930651
-24.994301 0.152206 -9.948932 -0.303980 0.581305 0.754772 0.390906 0.930599
-25.080688 0.152206 -9.983722 -0.303980 0.581305 0.754772 0.391342 0.930599
-25.003244 0.135751 -9.956641 -0.303991 0.581243 0.754816 0.387261 0.924182
-25.068901 0.135751 -9.983083 -0.303991 0.581243 0.754816 0.387779 0.924182
-25.081440 0.088746 -9.951938 -0.303991 0.581243 0.754816 0.387779 0.924608
-25.015789 0.088746 -9.925497 -0.303991 0.581243 0.754816 0.387261 0.924608
-25.019638 0.096108 -9.915936 -0.927596 -0.000009 -0.373585 0.388978 0.924531
-25.007097 0.143113 -9.947080 -0.927596 -0.000009 -0.373585 0.388978 0.925054
-25.003244 0.135751 -9.956641 -0.927596 -0.000009 -0.373585 0.388885 0.925054
-25.015789 0.088746 -9.925497 -0.927596 -0.000009 -0.373585 0.388885 0.924531
-25.007097 0.143113 -9.947080 -0.217141 -0.813738 0.539147 0.387261 0.924115
-25.072748 0.143113 -9.973522 -0.217141 -0.813738 0.539147 0.387779 0.924115
-25.068901 0.135751 -9.983083 -0.217141 -0.813738 0.539147 0.387779 0.924182
-25.003244 0.135751 -9.956641 -0.217141 -0.813738 0.539147 0.387261 0.924182
-25.085289 0.096108 -9.942378 0.217157 0.813717 -0.539173 0.388885 0.924531
-25.019638 0.096108 -9.915936 0.217157 0.813717 -0.539173 0.388885 0.923891
-25.015789 0.088746 -9.925497 0.217157 0.813717 -0.539173 0.388960 0.923888
-25.081440 0.088746 -9.951938 0.217157 0.813717 -0.539173 0.388960 0.924528
-24.977043 0.024797 -9.867063 -0.283042 0.952310 -0.113988 0.387423 0.929969
-24.962687 0.028332 -9.873172 -0.283042 0.952310 -0.113988 0.387503 0.930069
-24.918674 0.028332 -9.982462 -0.283042 0.952310 -0.113988 0.387503 0.931135
-24.924788 0.024797 -9.996814 -0.283042 0.952310 -0.113988 0.387423 0.931235
-24.924788 0.024797 -9.996814 0.114017 0.952284 -0.283118 0.387423 0.931235
-24.918674 0.028332 -9.982462 0.114017 0.952284 -0.283118 0.387503 0.931135
-24.809389 0.028332 -9.938450 0.114017 0.952284 -0.283118 0.388365 0.931135
-24.795034 0.024797 -9.944561 0.114017 0.952284 -0.283118 0.388447 0.931235
-24.795034 0.024797 -9.944561 0.283107 0.952287 0.114016 0.388447 0.931235
-24.809389 0.028332 -9.938450 0.283107 0.952287 0.114016 0.388365 0.931135
-24.853401 0.028332 -9.829161 0.283107 0.952287 0.114016 0.388365 0.930069
-24.847292 0.024797 -9.814808 0.283107 0.952287 0.114016 0.388447 0.929969
-24.847292 0.024797 -9.814808 -0.114012 0.952289 0.283103 0.388447 0.929969
-24.853401 0.028332 -9.829161 -0.114012 0.952289 0.283103 0.388365 0.930069
-24.962687 0.028332 -9.873172 -0.114012 0.952289 0.283103 0.387503 0.930069
-24.977043 0.024797 -9.867063 -0.114012 0.952289 0.283103 0.387423 0.929969
-24.860243 0.087015 -9.845221 0.927600 -0.000000 0.373575 0.391926 0.923980
-24.860243 0.028332 -9.845221 0.927600 -0.000000 0.373575 0.391926 0.923873
-24.825451 0.028332 -9.931610 0.927600 -0.000000 0.373575 0.392064 0.923873
-24.825451 0.028332 -9.931610 0.927604 0.000000 0.373565 0.392064 0.923873
-24.825451 0.152206 -9.931610 0.927604 0.000000 0.373565 0.392064 0.924099
-24.842846 0.152206 -9.888416 0.927604 0.000000 0.373565 0.391995 0.924099
-24.825451 0.028332 -9.931610 0.927598 -0.000006 0.373579 0.392064 0.923873
-24.842846 0.152206 -9.888416 0.927598 -0.000006 0.373579 0.391995 0.924099
-24.860243 0.087015 -9.845221 0.927598 -0.000006 0.373579 0.391926 0.923980
-24.946630 0.028332 -9.880013 -0.000000 1.000000 0.000000 0.387471 0.927251
-24.911837 0.028332 -9.966403 -0.000000 1.000000 0.000000 0.387471 0.928094
-24.918674 0.028332 -9.982462 -0.000000 1.000000 0.000000 0.387381 0.928206
-24.962687 0.028332 -9.873172 -0.000000 1.000000 0.000000 0.387381 0.927139
-24.825451 0.028332 -9.931610 -0.000000 1.000000 0.000000 0.388153 0.928094
-24.809389 0.028332 -9.938450 -0.000000 1.000000 0.000000 0.388243 0.928206
-24.860243 0.028332 -9.845221 -0.000000 1.000000 -0.000000 0.388153 0.927251
-24.853401 0.028332 -9.829161 -0.000000 1.000000 -0.000000 0.388243 0.927139
-24.921289 0.143113 -9.913007 0.927590 -0.000037 0.373600 0.389053 0.923888
-24.933836 0.096108 -9.881862 0.927590 -0.000037 0.373600 0.389053 0.924411
-24.929985 0.088746 -9.891422 0.927590 -0.000037 0.373600 0.388960 0.924411
-24.917440 0.135751 -9.922565 0.927590 -0.000037 0.373600 0.388960 0.923888
-24.911837 0.152206 -9.966403 -0.927594 0.000000 -0.373589 0.392064 0.924099
-24.911837 0.028332 -9.966403 -0.927594 0.000000 -0.373589 0.392064 0.924326
-24.946630 0.028332 -9.880013 -0.927594 0.000000 -0.373589 0.391926 0.924326
-24.946630 0.028332 -9.880013 -0.927562 -0.000000 -0.373671 0.391926 0.924326
-24.946630 0.087015 -9.880013 -0.927562 -0.000000 -0.373671 0.391926 0.924218
-24.929230 0.152206 -9.923206 -0.927562 -0.000000 -0.373671 0.391995 0.924099
-24.946630 0.028332 -9.880013 -0.927627 0.000066 -0.373508 0.391926 0.924326
-24.929230 0.152206 -9.923206 -0.927627 0.000066 -0.373508 0.391995 0.924099
-24.911837 0.152206 -9.966403 -0.927627 0.000066 -0.373508 0.392064 0.924099
-24.946630 0.028332 -9.880013 -0.373582 0.000000 0.927597 0.391857 0.924355
-24.860243 0.028332 -9.845221 -0.373582 0.000000 0.927597 0.391720 0.924355
-24.860243 0.087015 -9.845221 -0.373582 0.000000 0.927597 0.391720 0.924248
-24.946630 0.087015 -9.880013 -0.373582 0.000000 0.927597 0.391857 0.924248
-24.825451 0.028332 -9.931610 0.373598 0.000000 -0.927591 0.392064 0.923873
-24.911837 0.028332 -9.966403 0.373598 0.000000 -0.927591 0.392202 0.923873
-24.911837 0.152206 -9.966403 0.373598 0.000000 -0.927591 0.392202 0.924099
-24.825451 0.152206 -9.931610 0.373598 0.000000 -0.927591 0.392064 0.924099
-24.825451 0.152206 -9.931610 0.000000 1.000000 0.000000 0.391858 0.924299
-24.911837 0.152206 -9.966403 0.000000 1.000000 0.000000 0.391858 0.924129
-24.929230 0.152206 -9.923206 0.000000 1.000000 0.000000 0.391926 0.924129
-24.842846 0.152206 -9.888416 0.000000 1.000000 0.000000 0.391926 0.924299
-24.855639 0.143113 -9.886563 -0.303886 0.581248 0.754854 0.391080 0.927722
-24.868183 0.096108 -9.855420 -0.303886 0.581248 0.754854 0.391080 0.927994
-24.860243 0.087015 -9.845221 -0.303886 0.581248 0.754854 0.391028 0.928046
-24.842846 0.152206 -9.888416 -0.303886 0.581248 0.754854 0.391028 0.927669
-24.868183 0.096108 -9.855420 -0.304007 0.581206 0.754838 0.391080 0.927994
-24.933836 0.096108 -9.881862 -0.304007 0.581206 0.754838 0.391411 0.927994
-24.946630 0.087015 -9.880013 -0.304007 0.581206 0.754838 0.391464 0.928046
-24.860243 0.087015 -9.845221 -0.304007 0.581206 0.754838 0.391028 0.928046
-24.933836 0.096108 -9.881862 -0.303978 0.581258 0.754809 0.391411 0.927994
-24.921289 0.143113 -9.913007 -0.303978 0.581258 0.754809 0.391411 0.927722
-24.929230 0.152206 -9.923206 -0.303978 0.581258 0.754809 0.391464 0.927669
-24.946630 0.087015 -9.880013 -0.303978 0.581258 0.754809 0.391464 0.928046
-24.921289 0.143113 -9.913007 -0.303995 0.581289 0.754779 0.391411 0.927722
-24.855639 0.143113 -9.886563 -0.303995 0.581289 0.754779 0.391080 0.927722
-24.842846 0.152206 -9.888416 -0.303995 0.581289 0.754779 0.391028 0.927669
-24.929230 0.152206 -9.923206 -0.303995 0.581289 0.754779 0.391464 0.927669
-24.851786 0.135751 -9.896126 -0.303981 0.581251 0.754813 0.387261 0.924182
-24.917440 0.135751 -9.922565 -0.303981 0.581251 0.754813 0.387779 0.924182
-24.929985 0.088746 -9.891422 -0.303981 0.581251 0.754813 0.387779 0.924608
-24.864328 0.088746 -9.864980 -0.303981 0.581251 0.754813 0.387261 0.924608
-24.868183 0.096108 -9.855420 -0.927525 -0.000129 -0.373760 0.388978 0.924531
-24.855639 0.143113 -9.886563 -0.927525 -0.000129 -0.373760 0.388978 0.925054
-24.851786 0.135751 -9.896126 -0.927525 -0.000129 -0.373760 0.388885 0.925054
-24.864328 0.088746 -9.864980 -0.927525 -0.000129 -0.373760 0.388885 0.924531
-24.855639 0.143113 -9.886563 -0.217142 -0.813736 0.539150 0.387261 0.924115
-24.921289 0.143113 -9.913007 -0.217142 -0.813736 0.539150 0.387779 0.924115
-24.917440 0.135751 -9.922565 -0.217142 -0.813736 0.539150 0.387779 0.924182
-24.851786 0.135751 -9.896126 -0.217142 -0.813736 0.539150 0.387261 0.924182
-24.933836 0.096108 -9.881862 0.217136 0.813743 -0.539142 0.388885 0.924531
-24.868183 0.096108 -9.855420 0.217136 0.813743 -0.539142 0.388885 0.923891
-24.864328 0.088746 -9.864980 0.217136 0.813743 -0.539142 0.388960 0.923888
-24.929985 0.088746 -9.891422 0.217136 0.813743 -0.539142 0.388960 0.924528
-24.821791 0.024797 -9.805554 -0.283097 0.952292 -0.114005 0.387423 0.929969
-24.807438 0.028332 -9.811666 -0.283097 0.952292 -0.114005 0.387503 0.930069
-24.763426 0.028332 -9.920956 -0.283097 0.952292 -0.114005 0.387503 0.931135
-24.769539 0.024797 -9.935307 -0.283097 0.952292 -0.114005 0.387423 0.931235
-24.769539 0.024797 -9.935307 0.114026 0.952277 -0.283136 0.387423 0.931235
-24.763426 0.028332 -9.920956 0.114026 0.952277 -0.283136 0.387503 0.931135
-24.654140 0.028332 -9.876943 0.114026 0.952277 -0.283136 0.388365 0.931135
-24.639788 0.024797 -9.883054 0.114026 0.952277 -0.283136 0.388447 0.931235
-24.639788 0.024797 -9.883054 0.283090 0.952293 0.114008 0.388447 0.931235
-24.654140 0.028332 -9.876943 0.283090 0.952293 0.114008 0.388365 0.931135
-24.698154 0.028332 -9.767654 0.283090 0.952293 0.114008 0.388365 0.930069
-24.692041 0.024797 -9.753303 0.283090 0.952293 0.114008 0.388447 0.929969
-24.692041 0.024797 -9.753303 -0.114020 0.952281 0.283126 0.388447 0.929969
-24.698154 0.028332 -9.767654 -0.114020 0.952281 0.283126 0.388365 0.930069
-24.807438 0.028332 -9.811666 -0.114020 0.952281 0.283126 0.387503 0.930069
-24.821791 0.024797 -9.805554 -0.114020 0.952281 0.283126 0.387423 0.929969
-24.704992 0.087015 -9.783713 0.927607 -0.000000 0.373558 0.391926 0.922940
-24.704992 0.028332 -9.783713 0.927607 -0.000000 0.373558 0.391926 0.922832
-24.670202 0.028332 -9.870103 0.927607 -0.000000 0.373558 0.392064 0.922832
-24.670202 0.028332 -9.870103 0.927618 0.000000 0.373530 0.392064 0.922832
-24.670202 0.152206 -9.870103 0.927618 0.000000 0.373530 0.392064 0.923059
-24.687595 0.152206 -9.826909 0.927618 0.000000 0.373530 0.391995 0.923059
-24.670202 0.028332 -9.870103 0.927603 -0.000015 0.373566 0.392064 0.922832
-24.687595 0.152206 -9.826909 0.927603 -0.000015 0.373566 0.391995 0.923059
-24.704992 0.087015 -9.783713 0.927603 -0.000015 0.373566 0.391926 0.922940
-24.791380 0.028332 -9.818505 0.000000 1.000000 0.000000 0.387471 0.927251
-24.756588 0.028332 -9.904893 0.000000 1.000000 0.000000 0.387471 0.928094
-24.763426 0.028332 -9.920956 0.000000 1.000000 0.000000 0.387381 0.928206
-24.807438 0.028332 -9.811666 0.000000 1.000000 0.000000 0.387381 0.927139
-24.670202 0.028332 -9.870103 -0.000000 1.000000 0.000000 0.388153 0.928094
-24.654140 0.028332 -9.876943 -0.000000 1.000000 0.000000 0.388243 0.928206
-24.704992 0.028332 -9.783713 -0.000000 1.000000 -0.000000 0.388153 0.927251
-24.698154 0.028332 -9.767654 -0.000000 1.000000 -0.000000 0.388243 0.927139
-24.766043 0.143113 -9.851498 0.927599 -0.000027 0.373578 0.389053 0.923888
-24.778585 0.096108 -9.820354 0.927599 -0.000027 0.373578 0.389053 0.924411
-24.774736 0.088746 -9.829915 0.927599 -0.000027 0.373578 0.388960 0.924411
-24.762192 0.135751 -9.861057 0.927599 -0.000027 0.373578 0.388960 0.923888
-24.756588 0.152206 -9.904893 -0.927597 0.000000 -0.373582 0.392064 0.923059
-24.756588 0.028332 -9.904893 -0.927597 0.000000 -0.373582 0.392064 0.923285
-24.791380 0.028332 -9.818505 -0.927597 0.000000 -0.373582 0.391926 0.923285
-24.791380 0.028332 -9.818505 -0.927559 -0.000000 -0.373678 0.391926 0.923285
-24.791380 0.087015 -9.818505 -0.927559 -0.000000 -0.373678 0.391926 0.923178
-24.773979 0.152206 -9.861698 -0.927559 -0.000000 -0.373678 0.391995 0.923059
-24.791380 0.028332 -9.818505 -0.927635 0.000077 -0.373487 0.391926 0.923285
-24.773979 0.152206 -9.861698 -0.927635 0.000077 -0.373487 0.391995 0.923059
-24.756588 0.152206 -9.904893 -0.927635 0.000077 -0.373487 0.392064 0.923059
-24.791380 0.028332 -9.818505 -0.373582 0.000000 0.927597 0.391857 0.923314
-24.704992 0.028332 -9.783713 -0.373582 0.000000 0.927597 0.391720 0.923314
-24.704992 0.087015 -9.783713 -0.373582 0.000000 0.927597 0.391720 0.923207
-24.791380 0.087015 -9.818505 -0.373582 0.000000 0.927597 0.391857 0.923207
-24.670202 0.028332 -9.870103 0.373572 0.000000 -0.927601 0.392064 0.922832
-24.756588 0.028332 -9.904893 0.373572 0.000000 -0.927601 0.392202 0.922832
-24.756588 0.152206 -9.904893 0.373572 0.000000 -0.927601 0.392202 0.923059
-24.670202 0.152206 -9.870103 0.373572 0.000000 -0.927601 0.392064 0.923059
-24.670202 0.152206 -9.870103 -0.000000 1.000000 0.000000 0.391858 0.923258
-24.756588 0.152206 -9.904893 -0.000000 1.000000 0.000000 0.391858 0.923088
-24.773979 0.152206 -9.861698 -0.000000 1.000000 0.000000 0.391926 0.923088
-24.687595 0.152206 -9.826909 -0.000000 1.000000 0.000000 0.391926 0.923258
-24.700388 0.143113 -9.825057 -0.303915 0.581252 0.754839 0.391080 0.924426
-24.712933 0.096108 -9.793913 -0.303915 0.581252 0.754839 0.391080 0.924698
-24.704992 0.087015 -9.783713 -0.303915 0.581252 0.754839 0.391028 0.924751
-24.687595 0.152206 -9.826909 -0.303915 0.581252 0.754839 0.391028 0.924373
-24.712933 0.096108 -9.793913 -0.304007 0.581206 0.754837 0.391080 0.924698
-24.778585 0.096108 -9.820354 -0.304007 0.581206 0.754837 0.391411 0.924698
-24.791380 0.087015 -9.818505 -0.304007 0.581206 0.754837 0.391464 0.924751
-24.704992 0.087015 -9.783713 -0.304007 0.581206 0.754837 0.391028 0.924751
-24.778585 0.096108 -9.820354 -0.304062 0.581238 0.754790 0.391411 0.924698
-24.766043 0.143113 -9.851498 -0.304062 0.581238 0.754790 0.391411 0.924426
-24.773979 0.152206 -9.861698 -0.304062 0.581238 0.754790 0.391464 0.924373
-24.791380 0.087015 -9.818505 -0.304062 0.581238 0.754790 0.391464 0.924751
-24.766043 0.143113 -9.851498 -0.303960 0.581332 0.754759 0.391411 0.924426
-24.700388 0.143113 -9.825057 -0.303960 0.581332 0.754759 0.391080 0.924426
-24.687595 0.152206 -9.826909 -0.303960 0.581332 0.754759 0.391028 0.924373
-24.773979 0.152206 -9.861698 -0.303960 0.581332 0.754759 0.391464 0.924373
-24.696537 0.135751 -9.834620 -0.303974 0.581255 0.754813 0.387261 0.924182
-24.762192 0.135751 -9.861057 -0.303974 0.581255 0.754813 0.387779 0.924182
-24.774736 0.088746 -9.829915 -0.303974 0.581255 0.754813 0.387779 0.924608
-24.709082 0.088746 -9.803473 -0.303974 0.581255 0.754813 0.387261 0.924608
-24.712933 0.096108 -9.793913 -0.927587 0.000000 -0.373607 0.388978 0.924531
-24.700388 0.143113 -9.825057 -0.927587 0.000000 -0.373607 0.388978 0.925054
-24.696537 0.135751 -9.834620 -0.927587 0.000000 -0.373607 0.388885 0.925054
-24.709082 0.088746 -9.803473 -0.927587 0.000000 -0.373607 0.388885 0.924531
-24.700388 0.143113 -9.825057 -0.217113 -0.813748 0.539144 0.387261 0.924115
-24.766043 0.143113 -9.851498 -0.217113 -0.813748 0.539144 0.387779 0.924115
-24.762192 0.135751 -9.861057 -0.217113 -0.813748 0.539144 0.387779 0.924182
-24.696537 0.135751 -9.834620 -0.217113 -0.813748 0.539144 0.387261 0.924182
-24.778585 0.096108 -9.820354 0.217154 0.813715 -0.539178 0.388885 0.924531
-24.712933 0.096108 -9.793913 0.217154 0.813715 -0.539178 0.388885 0.923891
-24.709082 0.088746 -9.803473 0.217154 0.813715 -0.539178 0.388960 0.923888
-24.774736 0.088746 -9.829915 0.217154 0.813715 -0.539178 0.388960 0.924528
-30.907217 -0.000001 -12.189774 -0.000000 1.000000 -0.000000 0.746682 0.972968
-30.909348 -0.000001 -12.169189 -0.000000 1.000000 -0.000000 0.746656 0.973054
-30.906311 -0.000001 -12.157021 -0.000000 1.000000 -0.000000 0.746624 0.973098
-30.898560 -0.000001 -12.144623 0.000000 1.000000 -0.000000 0.746572 0.973135
-30.885864 -0.000001 -12.133888 0.000000 1.000000 -0.000000 0.746503 0.973157
-30.874329 -0.000001 -12.128891 0.000000 1.000000 -0.000000 0.746448 0.973158
-30.861893 -0.000001 -12.127411 0.000000 1.000000 -0.000000 0.746396 0.973143
-30.849426 -0.000001 -12.128853 0.000000 1.000000 -0.000000 0.746348 0.973117
-30.837891 -0.000001 -12.133789 0.000000 1.000000 -0.000000 0.746310 0.973078
-30.827820 -0.000001 -12.141273 0.000000 1.000000 -0.000000 0.746282 0.973031
-30.809143 -0.000001 -12.160439 0.000000 1.000000 -0.000000 0.746239 0.972923
-30.781342 -0.000001 -12.188171 0.000000 1.000000 -0.000000 0.746173 0.972765
-30.867584 -0.000001 -12.241096 -0.000000 1.000000 -0.000000 0.746608 0.972695
-30.903015 -0.000001 -12.200249 -0.000000 1.000000 -0.000000 0.746683 0.972919
-30.832855 -0.000001 -12.282562 -0.000000 1.000000 -0.000000 0.746537 0.972471
-30.753052 -0.000001 -12.215416 -0.000000 1.000000 -0.000000 0.746104 0.972608
-30.798889 -0.000001 -12.324631 0.000000 1.000000 -0.000000 0.746471 0.972245
-30.724304 -0.000001 -12.242157 -0.000000 1.000000 -0.000000 0.746033 0.972453
-30.792969 -0.000001 -12.332077 -0.000000 1.000000 -0.000000 0.746459 0.972205
-30.715485 -0.000001 -12.250168 -0.000000 1.000000 -0.000000 0.746011 0.972406
-30.608194 -0.000001 -12.358411 0.000000 1.000000 -0.000000 0.745760 0.971792
-30.734470 -0.000001 -12.408835 0.000000 1.000000 -0.000000 0.746352 0.971799
-30.759857 -0.000001 -12.374840 0.000000 1.000000 -0.000000 0.746397 0.971978
-30.686127 -0.000001 -12.276260 0.000000 1.000000 -0.000000 0.745937 0.972252
-30.607895 -0.000001 -12.355465 -0.000000 1.000000 -0.000000 0.745754 0.971803
-30.623093 -0.000001 -12.329334 -0.000000 1.000000 -0.000000 0.745771 0.971933
-30.613190 -0.000001 -12.341061 -0.000000 1.000000 -0.000000 0.745751 0.971870
-30.656311 -0.000001 -12.301819 0.000000 1.000000 -0.000000 0.745859 0.972099
-30.598053 0.025291 -11.721481 -0.000001 1.000000 0.000002 0.744659 0.974337
-30.636646 0.025291 -11.736506 -0.000001 1.000000 0.000002 0.744839 0.974341
-30.509808 0.025291 -11.448462 -0.000001 1.000000 0.000002 0.743816 0.975290
-30.509808 0.025291 -11.448462 -0.000000 1.000000 0.000000 0.743816 0.975290
-22.275204 0.025292 -8.162597 -0.000000 1.000000 0.000000 0.705249 0.974803
-22.308426 0.025292 -8.208160 -0.000000 1.000000 0.000000 0.705459 0.974675
-30.494293 0.025291 -11.469261 -0.000019 1.000000 0.000008 0.743822 0.975179
-30.598053 0.025291 -11.721481 -0.000019 1.000000 0.000008 0.744659 0.974337
-30.509808 0.025291 -11.448462 -0.000019 1.000000 0.000008 0.743816 0.975290
-30.509808 0.025291 -11.448462 -0.000007 1.000000 0.000017 0.743816 0.975290
-22.308426 0.025292 -8.208160 -0.000007 1.000000 0.000017 0.705459 0.974675
-30.494293 0.025291 -11.469261 -0.000007 1.000000 0.000017 0.743822 0.975179
-22.110001 0.025292 -7.936024 -0.000101 1.000000 0.000042 0.391156 0.858465
-22.114662 0.025301 -7.993576 -0.000101 1.000000 0.000042 0.391586 0.857848
-22.176584 0.025291 -8.084393 -0.000101 1.000000 0.000042 0.392880 0.857231
-22.275204 0.025292 -8.162597 -0.000101 1.000000 0.000042 0.394504 0.856997
-24.330154 0.025291 -9.787872 0.000000 1.000000 -0.000000 0.716222 0.971684
-25.143801 0.025291 -10.130260 0.000000 1.000000 -0.000000 0.720066 0.971661
-25.226013 0.025291 -9.927750 0.000000 1.000000 -0.000000 0.720060 0.972613
-24.586227 0.025291 -9.669899 0.000000 1.000000 -0.000000 0.717056 0.972585
-30.636646 0.025291 -11.736506 -0.000000 1.000000 -0.000000 0.512178 0.871624
-31.119436 0.025291 -11.924449 -0.000000 1.000000 -0.000000 0.518852 0.872676
-31.119991 0.025291 -11.509005 -0.000000 1.000000 -0.000000 0.516130 0.877361
-25.908009 0.025291 -9.423003 0.000000 1.000000 -0.000000 0.443711 0.866646
-25.908005 0.025291 -9.423003 0.000000 1.000000 -0.000000 0.443711 0.866646
-22.110001 0.025292 -7.936024 0.000000 1.000000 -0.000000 0.391156 0.858465
-22.275204 0.025292 -8.162597 0.000000 1.000000 -0.000000 0.394504 0.856997
-30.509808 0.025291 -11.448462 0.000001 1.000000 0.000001 0.508759 0.874026
-30.636646 0.025291 -11.736506 0.000001 1.000000 0.000001 0.512178 0.871624
-31.119991 0.025291 -11.509005 0.000001 1.000000 0.000001 0.516130 0.877361
-25.908005 0.025291 -9.423003 0.000000 1.000000 -0.000001 0.443711 0.866646
-22.275204 0.025292 -8.162597 0.000000 1.000000 -0.000001 0.394504 0.856997
-30.509808 0.025291 -11.448462 0.000000 1.000000 -0.000001 0.508759 0.874026
-31.119991 0.025291 -11.509005 0.000001 1.000000 -0.000002 0.516130 0.877361
-25.908005 0.025291 -9.423003 0.000001 1.000000 -0.000002 0.443711 0.866646
-30.509808 0.025291 -11.448462 0.000001 1.000000 -0.000002 0.508759 0.874026
-22.297012 0.025292 -8.203194 0.000000 1.000000 -0.000000 0.705405 0.974676
-22.297012 0.025292 -8.203194 0.000008 1.000000 -0.000004 0.705405 0.974676
-22.275204 0.025292 -8.162597 0.000008 1.000000 -0.000004 0.705249 0.974803
-22.176584 0.025291 -8.084393 0.000008 1.000000 -0.000004 0.704722 0.974953
-22.158707 0.025292 -8.108978 0.000000 1.000000 -0.000000 0.704691 0.974825
-22.223740 0.025292 -8.162132 0.000000 1.000000 -0.000000 0.705042 0.974719
-22.094315 0.025292 -8.027397 0.000000 1.000000 -0.000000 0.704297 0.975046
-22.103897 0.025292 -8.045326 0.000000 1.000000 -0.000000 0.704365 0.974990
-22.077652 0.025292 -7.957153 -0.000000 1.000000 0.000000 0.704113 0.975301
-22.078049 0.025292 -7.984779 -0.000000 1.000000 0.000000 0.704160 0.975190
-22.110001 0.025292 -7.936024 0.000000 1.000000 -0.000000 0.704208 0.975440
-22.085941 0.025292 -7.872500 0.000000 1.000000 -0.000000 0.704005 0.975655
-22.114662 0.025301 -7.993576 0.000098 1.000000 0.000150 0.704322 0.975216
-22.110001 0.025292 -7.936024 0.000098 1.000000 0.000150 0.704208 0.975440
-22.077652 0.025292 -7.957153 0.000098 1.000000 0.000150 0.704113 0.975301
-22.158707 0.025292 -8.108978 -0.000008 1.000000 0.000012 0.704691 0.974825
-22.297012 0.025292 -8.203194 -0.000008 1.000000 0.000012 0.705405 0.974676
-22.176584 0.025291 -8.084393 -0.000008 1.000000 0.000012 0.704722 0.974953
-22.176584 0.025291 -8.084393 0.001061 0.999999 -0.000828 0.704722 0.974953
-22.114662 0.025301 -7.993576 0.001061 0.999999 -0.000828 0.704322 0.975216
-22.077652 0.025292 -7.957153 0.001061 0.999999 -0.000828 0.704113 0.975301
-22.176584 0.025291 -8.084393 -0.000014 1.000000 0.000008 0.704722 0.974953
-22.077652 0.025292 -7.957153 -0.000014 1.000000 0.000008 0.704113 0.975301
-22.158707 0.025292 -8.108978 -0.000014 1.000000 0.000008 0.704691 0.974825
-21.362865 0.025292 -7.973746 0.000012 1.000000 0.000004 0.735834 0.974385
-21.457523 0.025292 -7.722090 0.000012 1.000000 0.000004 0.737024 0.980567
-20.890985 0.025284 -7.528021 0.000012 1.000000 0.000004 0.723183 0.982805
-20.890985 0.025284 -7.528021 -0.000006 1.000000 0.000021 0.723183 0.982805
-20.179932 0.025284 -7.321974 -0.000006 1.000000 0.000021 0.705959 0.984748
-20.086973 0.025292 -7.653624 -0.000006 1.000000 0.000021 0.705126 0.976727
-20.890985 0.025284 -7.528021 -0.000006 1.000000 0.000023 0.723183 0.982805
-20.086973 0.025292 -7.653624 -0.000006 1.000000 0.000023 0.705126 0.976727
-21.362865 0.025292 -7.973746 -0.000006 1.000000 0.000023 0.735834 0.974385
-21.362865 -0.000000 -7.973746 -0.935978 0.000000 -0.352059 0.733228 0.983064
-21.457523 -0.000000 -7.722090 -0.935978 0.000000 -0.352059 0.733190 0.984234
-21.457523 0.025292 -7.722090 -0.935978 0.000000 -0.352059 0.733190 0.984234
-21.362865 0.025292 -7.973746 -0.935978 0.000000 -0.352059 0.733228 0.983064
-22.103897 -0.000000 -8.045326 0.757780 0.000000 -0.652510 0.704365 0.974990
-22.158707 -0.000000 -8.108978 0.757780 0.000000 -0.652510 0.704691 0.974825
-22.158707 0.025292 -8.108978 0.757780 0.000000 -0.652510 0.704691 0.974825
-22.103897 0.025292 -8.045326 0.757780 0.000000 -0.652510 0.704365 0.974990
-25.226013 -0.000000 -9.927750 -0.373809 0.000000 0.927505 0.720060 0.972613
-24.586227 -0.000000 -9.669899 -0.373809 0.000000 0.927505 0.717056 0.972585
-24.586227 0.025291 -9.669899 -0.373809 0.000000 0.927505 0.717056 0.972585
-25.226013 0.025291 -9.927750 -0.373809 0.000000 0.927505 0.720060 0.972613
-14.758003 -0.000031 -6.198952 -0.004083 0.000000 0.999992 0.703700 0.979211
-14.650432 -0.000000 -6.198513 -0.004083 0.000000 0.999992 0.703267 0.979034
-14.650432 0.025292 -6.198513 -0.004083 0.000000 0.999992 0.703267 0.979034
-14.758003 0.025261 -6.198952 -0.004083 0.000000 0.999992 0.703700 0.979211
-30.598053 0.025291 -11.721481 0.362768 0.000000 -0.931879 0.744659 0.974337
-30.598053 -0.000001 -11.721481 0.362768 0.000000 -0.931879 0.744659 0.974337
-31.119436 -0.000001 -11.924449 0.362768 0.000000 -0.931879 0.747094 0.974388
-31.119436 -0.000001 -11.924449 0.362768 0.000000 -0.931880 0.747094 0.974388
-31.119436 0.025291 -11.924449 0.362768 0.000000 -0.931880 0.747094 0.974388
-30.636646 0.025291 -11.736506 0.362768 0.000000 -0.931880 0.744839 0.974341
-31.119436 -0.000001 -11.924449 0.362775 -0.000162 -0.931877 0.747094 0.974388
-30.636646 0.025291 -11.736506 0.362775 -0.000162 -0.931877 0.744839 0.974341
-30.598053 0.025291 -11.721481 0.362775 -0.000162 -0.931877 0.744659 0.974337
-25.143801 -0.000000 -10.130260 -0.926558 0.000000 -0.376151 0.720066 0.971661
-25.226013 -0.000000 -9.927750 -0.926558 0.000000 -0.376151 0.720060 0.972613
-25.226013 0.025291 -9.927750 -0.926558 0.000000 -0.376151 0.720060 0.972613
-25.143801 0.025291 -10.130260 -0.926558 0.000000 -0.376151 0.720066 0.971661
-18.830881 0.025284 -6.873967 -0.163504 0.000000 0.986543 0.721211 0.983274
-18.830881 -0.000008 -6.873967 -0.163504 0.000000 0.986543 0.721211 0.983274
-14.758003 -0.000031 -6.198952 -0.163504 0.000000 0.986543 0.703700 0.979211
-14.758003 0.025261 -6.198952 -0.163504 0.000000 0.986543 0.703700 0.979211
-17.050455 0.025274 -6.578889 -0.163504 0.000000 0.986543 0.713556 0.981498
-14.758003 -0.000031 -6.198952 -0.163504 -0.000012 0.986543 0.703700 0.979211
-17.050455 0.025274 -6.578889 -0.163504 -0.000012 0.986543 0.713556 0.981498
-18.830881 0.025284 -6.873967 -0.163504 -0.000012 0.986543 0.721211 0.983274
-22.110001 -0.000000 -7.936024 -0.935173 0.000000 0.354192 0.704208 0.975440
-22.085941 -0.000000 -7.872500 -0.935173 0.000000 0.354192 0.704005 0.975655
-22.085941 0.025292 -7.872500 -0.935173 0.000000 0.354192 0.704005 0.975655
-22.110001 0.025292 -7.936024 -0.935173 0.000000 0.354192 0.704208 0.975440
-24.586227 -0.000000 -9.669899 0.418432 0.000000 0.908248 0.717056 0.972585
-24.330154 -0.000000 -9.787872 0.418432 0.000000 0.908248 0.716222 0.971684
-24.330154 0.025291 -9.787872 0.418432 0.000000 0.908248 0.716222 0.971684
-24.586227 0.025291 -9.669899 0.418432 0.000000 0.908248 0.717056 0.972585
-20.179932 -0.000008 -7.321974 -0.315166 0.000000 0.949037 0.727384 0.983717
-18.830881 -0.000008 -6.873967 -0.315166 0.000000 0.949037 0.721211 0.983274
-18.830881 0.025284 -6.873967 -0.315166 0.000000 0.949037 0.721211 0.983274
-20.179932 0.025284 -7.321974 -0.315166 0.000000 0.949037 0.727384 0.983717
-25.908005 -0.000000 -9.423003 -0.364570 0.000000 0.931176 0.721963 0.975779
-22.110001 -0.000000 -7.936024 -0.364570 0.000000 0.931176 0.704208 0.975440
-22.110001 0.025292 -7.936024 -0.364570 0.000000 0.931176 0.704208 0.975440
-25.908005 0.025291 -9.423003 -0.364570 0.000000 0.931176 0.721963 0.975779
-24.330154 -0.000000 -9.787872 0.387865 0.000000 -0.921716 0.716222 0.971684
-25.143801 -0.000000 -10.130260 0.387865 0.000000 -0.921716 0.720066 0.971661
-25.143801 0.025291 -10.130260 0.387865 0.000000 -0.921716 0.720066 0.971661
-24.330154 0.025291 -9.787872 0.387865 0.000000 -0.921716 0.716222 0.971684
-20.890985 -0.000008 -7.528021 -0.278327 0.000000 0.960486 0.730588 0.984072
-20.179932 -0.000008 -7.321974 -0.278327 0.000000 0.960486 0.727384 0.983717
-20.179932 0.025284 -7.321974 -0.278327 0.000000 0.960486 0.727384 0.983717
-20.890985 0.025284 -7.528021 -0.278327 0.000000 0.960486 0.730588 0.984072
-31.119991 -0.000001 -11.509005 -0.371576 0.000000 0.928402 0.746405 0.976061
-25.908009 -0.000000 -9.423003 -0.371576 0.000000 0.928402 0.721963 0.975779
-25.908009 0.025291 -9.423003 -0.371576 0.000000 0.928402 0.721963 0.975779
-31.119991 0.025291 -11.509005 -0.371576 0.000000 0.928402 0.746405 0.976061
-22.085941 -0.000000 -7.872500 0.995240 0.000000 0.097455 0.704005 0.975655
-22.077652 -0.000000 -7.957153 0.995240 0.000000 0.097455 0.704113 0.975301
-22.077652 0.025292 -7.957153 0.995240 0.000000 0.097455 0.704113 0.975301
-22.085941 0.025292 -7.872500 0.995240 0.000000 0.097455 0.704005 0.975655
-21.457523 -0.000000 -7.722090 -0.324066 0.000000 0.946034 0.733190 0.984234
-20.890985 -0.000008 -7.528021 -0.324066 0.000000 0.946034 0.730588 0.984072
-20.890985 0.025284 -7.528021 -0.324066 0.000000 0.946034 0.730588 0.984072
-21.457523 0.025292 -7.722090 -0.324066 0.000000 0.946034 0.733190 0.984234
-31.119436 -0.000001 -11.924449 -0.999999 0.000000 -0.001336 0.747094 0.974388
-31.119991 -0.000001 -11.509005 -0.999999 0.000000 -0.001336 0.746405 0.976061
-31.119991 0.025291 -11.509005 -0.999999 0.000000 -0.001336 0.746405 0.976061
-31.119436 0.025291 -11.924449 -0.999999 0.000000 -0.001336 0.747094 0.974388
-22.297012 -0.000000 -8.203194 0.399018 0.000000 -0.916943 0.705405 0.974676
-22.308426 -0.000000 -8.208160 0.399018 0.000000 -0.916943 0.705459 0.974675
-22.308426 0.025292 -8.208160 0.399018 0.000000 -0.916943 0.705459 0.974675
-22.297012 0.025292 -8.203194 0.399018 0.000000 -0.916943 0.705405 0.974676
-14.650432 -0.000000 -6.198513 -0.175319 0.000000 0.984512 0.703267 0.979034
-14.427069 -0.000000 -6.158737 -0.175319 0.000000 0.984512 0.702302 0.978822
-14.427069 0.025292 -6.158737 -0.175319 0.000000 0.984512 0.702302 0.978822
-14.650432 0.025292 -6.198513 -0.175319 0.000000 0.984512 0.703267 0.979034
-22.094315 -0.000000 -8.027397 0.881937 0.000000 -0.471367 0.704297 0.975046
-22.103897 -0.000000 -8.045326 0.881937 0.000000 -0.471367 0.704365 0.974990
-22.103897 0.025292 -8.045326 0.881937 0.000000 -0.471367 0.704365 0.974990
-22.094315 0.025292 -8.027397 0.881937 0.000000 -0.471367 0.704297 0.975046
-14.489500 -0.000000 -6.471804 0.814658 0.000000 -0.579942 0.703074 0.977666
-14.609731 -0.000000 -6.640695 0.814658 0.000000 -0.579942 0.703839 0.977187
-14.609731 0.025292 -6.640695 0.814658 0.000000 -0.579942 0.703839 0.977187
-14.489500 0.025292 -6.471804 0.814658 0.000000 -0.579942 0.703074 0.977666
-25.908009 -0.000000 -9.423003 0.000000 0.000000 1.000000 0.721963 0.975779
-25.908005 -0.000000 -9.423003 0.000000 0.000000 1.000000 0.721963 0.975779
-25.908005 0.025291 -9.423003 0.000000 0.000000 1.000000 0.721963 0.975779
-25.908009 0.025291 -9.423003 0.000000 0.000000 1.000000 0.721963 0.975779
-22.158707 -0.000000 -8.108978 0.632847 0.000000 -0.774277 0.704691 0.974825
-22.223740 -0.000000 -8.162132 0.632847 0.000000 -0.774277 0.705042 0.974719
-22.223740 0.025292 -8.162132 0.632847 0.000000 -0.774277 0.705042 0.974719
-22.158707 0.025292 -8.108978 0.632847 0.000000 -0.774277 0.704691 0.974825
-14.427069 -0.000000 -6.158737 0.993384 0.000000 -0.114844 0.702302 0.978822
-14.442527 -0.000000 -6.292448 0.993384 0.000000 -0.114844 0.702587 0.978310
-14.442527 0.025292 -6.292448 0.993384 0.000000 -0.114844 0.702587 0.978310
-14.427069 0.025292 -6.158737 0.993384 0.000000 -0.114844 0.702302 0.978822
-15.388794 -0.000000 -6.823441 0.169370 0.000000 -0.985552 0.707278 0.977748
-16.816864 -0.000000 -7.068859 0.169370 0.000000 -0.985552 0.713432 0.979138
-16.816864 0.025292 -7.068859 0.169370 0.000000 -0.985552 0.713432 0.979138
-15.388794 0.025292 -6.823441 0.169370 0.000000 -0.985552 0.707278 0.977748
-22.077652 -0.000000 -7.957153 0.999897 0.000000 -0.014359 0.704113 0.975301
-22.078049 -0.000000 -7.984779 0.999897 0.000000 -0.014359 0.704160 0.975190
-22.078049 0.025292 -7.984779 0.999897 0.000000 -0.014359 0.704160 0.975190
-22.077652 0.025292 -7.957153 0.999897 0.000000 -0.014359 0.704113 0.975301
-14.442527 -0.000000 -6.292448 0.967374 0.000000 -0.253354 0.702587 0.978310
-14.489500 -0.000000 -6.471804 0.967374 0.000000 -0.253354 0.703074 0.977666
-14.489500 0.025292 -6.471804 0.967374 0.000000 -0.253354 0.703074 0.977666
-14.442527 0.025292 -6.292448 0.967374 0.000000 -0.253354 0.702587 0.978310
-14.713902 -0.000000 -6.714509 0.159344 0.000000 -0.987223 0.704381 0.977063
-15.388794 -0.000000 -6.823441 0.159344 0.000000 -0.987223 0.707278 0.977748
-15.388794 0.025292 -6.823441 0.159344 0.000000 -0.987223 0.707278 0.977748
-14.713902 0.025292 -6.714509 0.159344 0.000000 -0.987223 0.704381 0.977063
-30.494293 -0.000001 -11.469261 0.924802 0.000000 -0.380450 0.743822 0.975179
-30.598053 -0.000001 -11.721481 0.924802 0.000000 -0.380450 0.744659 0.974337
-30.598053 0.025291 -11.721481 0.924802 0.000000 -0.380450 0.744659 0.974337
-30.494293 0.025291 -11.469261 0.924802 0.000000 -0.380450 0.743822 0.975179
-16.816864 -0.000000 -7.068859 -0.642677 0.000000 -0.766137 0.713432 0.979138
-17.033157 -0.000000 -6.887421 -0.642677 0.000000 -0.766137 0.714000 0.980228
-17.033157 0.025292 -6.887421 -0.642677 0.000000 -0.766137 0.714000 0.980228
-16.816864 0.025292 -7.068859 -0.642677 0.000000 -0.766137 0.713432 0.979138
-22.223740 -0.000000 -8.162132 0.488863 0.000000 -0.872360 0.705042 0.974719
-22.297012 -0.000000 -8.203194 0.488863 0.000000 -0.872360 0.705405 0.974676
-22.297012 0.025292 -8.203194 0.488863 0.000000 -0.872360 0.705405 0.974676
-22.223740 0.025292 -8.162132 0.488863 0.000000 -0.872360 0.705042 0.974719
-14.609731 -0.000000 -6.640695 0.578151 0.000000 -0.815930 0.703839 0.977187
-14.713902 -0.000000 -6.714509 0.578151 0.000000 -0.815930 0.704381 0.977063
-14.713902 0.025292 -6.714509 0.578151 0.000000 -0.815930 0.704381 0.977063
-14.609731 0.025292 -6.640695 0.578151 0.000000 -0.815930 0.703839 0.977187
-22.308426 -0.000000 -8.208160 0.370094 0.000000 -0.928994 0.705459 0.974675
-30.494293 -0.000001 -11.469261 0.370094 0.000000 -0.928994 0.743822 0.975179
-30.494293 0.025291 -11.469261 0.370094 0.000000 -0.928994 0.743822 0.975179
-22.308426 0.025292 -8.208160 0.370094 0.000000 -0.928994 0.705459 0.974675
-17.033157 0.025292 -6.887421 0.243357 0.000000 -0.969937 0.714000 0.980228
-17.033157 -0.000000 -6.887421 0.243357 0.000000 -0.969937 0.714000 0.980228
-21.362865 -0.000000 -7.973746 0.243357 0.000000 -0.969937 0.733228 0.983064
-21.362865 0.025292 -7.973746 0.243357 0.000000 -0.969937 0.733228 0.983064
-20.086973 0.025292 -7.653624 0.243357 0.000000 -0.969937 0.727562 0.982228
-18.740442 0.025292 -7.315779 0.243358 -0.000021 -0.969937 0.721582 0.981346
-17.033157 0.025292 -6.887421 0.243358 -0.000021 -0.969937 0.714000 0.980228
-21.362865 -0.000000 -7.973746 0.243358 -0.000021 -0.969937 0.733228 0.983064
-21.362865 -0.000000 -7.973746 0.243357 0.000006 -0.969937 0.733228 0.983064
-20.086973 0.025292 -7.653624 0.243357 0.000006 -0.969937 0.727562 0.982228
-18.740442 0.025292 -7.315779 0.243357 0.000006 -0.969937 0.721582 0.981346
-22.078049 -0.000000 -7.984779 0.934265 0.000000 -0.356580 0.704160 0.975190
-22.094315 -0.000000 -8.027397 0.934265 0.000000 -0.356580 0.704297 0.975046
-22.094315 0.025292 -8.027397 0.934265 0.000000 -0.356580 0.704297 0.975046
-22.078049 0.025292 -7.984779 0.934265 0.000000 -0.356580 0.704160 0.975190
-20.086973 0.025292 -7.653624 -0.000005 1.000000 0.000018 0.737158 0.973082
-20.179932 0.025284 -7.321974 -0.000005 1.000000 0.000018 0.737991 0.981103
-18.830881 0.025284 -6.873967 -0.000005 1.000000 0.000018 0.705089 0.986106
-18.740442 0.025292 -7.315779 -0.000005 1.000000 0.000018 0.704750 0.975553
-18.740442 0.025292 -7.315779 -0.000004 1.000000 0.000033 0.742324 0.972986
-18.830881 0.025284 -6.873967 -0.000004 1.000000 0.000033 0.742664 0.983539
-17.050455 0.025274 -6.578889 -0.000004 1.000000 0.000033 0.700412 0.983307
-17.033157 0.025292 -6.887421 -0.000004 1.000000 0.000033 0.701233 0.976120
-16.816864 0.025292 -7.068859 0.000050 1.000000 0.000060 0.748458 0.973838
-17.033157 0.025292 -6.887421 0.000050 1.000000 0.000060 0.752732 0.978880
-17.050455 0.025274 -6.578889 0.000050 1.000000 0.000060 0.751911 0.986068
-17.050455 0.025274 -6.578889 -0.000291 0.999998 0.001790 0.751911 0.986068
-14.758003 0.025261 -6.198952 -0.000291 0.999998 0.001790 0.697508 0.985770
-14.650432 0.025292 -6.198513 -0.000291 0.999998 0.001790 0.695024 0.985355
-14.650432 0.025292 -6.198513 0.000000 1.000000 -0.000000 0.695024 0.985355
-14.427069 0.025292 -6.158737 0.000000 1.000000 -0.000000 0.689712 0.985389
-14.442527 0.025292 -6.292448 0.000000 1.000000 -0.000000 0.690598 0.982365
-14.489500 0.025292 -6.471804 -0.000000 1.000000 0.000000 0.692391 0.978412
-14.609731 0.025292 -6.640695 -0.000000 1.000000 0.000000 0.695834 0.974990
-14.713902 0.025292 -6.714509 0.000000 1.000000 -0.000000 0.698529 0.973699
-15.388794 0.025292 -6.823441 0.000000 1.000000 -0.000000 0.714534 0.973854
-15.388794 0.025292 -6.823441 -0.000006 1.000000 0.000033 0.714534 0.973854
-16.816864 0.025292 -7.068859 -0.000006 1.000000 0.000033 0.748458 0.973838
-17.050455 0.025274 -6.578889 -0.000006 1.000000 0.000033 0.751911 0.986068
-17.050455 0.025274 -6.578889 -0.000005 1.000000 -0.000012 0.751911 0.986068
-14.650432 0.025292 -6.198513 -0.000005 1.000000 -0.000012 0.695024 0.985355
-14.442527 0.025292 -6.292448 -0.000005 1.000000 -0.000012 0.690598 0.982365
-17.050455 0.025274 -6.578889 -0.000008 1.000000 0.000015 0.751911 0.986068
-14.442527 0.025292 -6.292448 -0.000008 1.000000 0.000015 0.690598 0.982365
-15.388794 0.025292 -6.823441 -0.000008 1.000000 0.000015 0.714534 0.973854
4 0 1 2 3
4 4 5 6 7
4 8 9 10 11
4 12 13 14 15
3 16 17 18
3 19 20 21
3 22 23 24
4 25 26 27 28
4 26 29 30 27
4 29 31 32 30
4 31 25 28 32
4 33 34 35 36
3 37 38 39
3 40 41 42
3 43 44 45
4 46 47 48 49
4 50 51 52 53
4 54 55 56 57
4 58 59 60 61
4 62 63 64 65
4 66 67 68 69
4 70 71 72 73
4 74 75 76 77
4 78 79 80 81
4 82 83 84 85
4 86 87 88 89
4 90 91 92 93
4 94 95 96 97
4 98 99 100 101
4 102 103 104 105
3 106 107 108
3 109 110 111
3 112 113 114
4 115 116 117 118
4 116 119 120 117
4 119 121 122 120
4 121 115 118 122
4 123 124 125 126
3 127 128 129
3 130 131 132
3 133 134 135
4 136 137 138 139
4 140 141 142 143
4 144 145 146 147
4 148 149 150 151
4 152 153 154 155
4 156 157 158 159
4 160 161 162 163
4 164 165 166 167
4 168 169 170 171
4 172 173 174 175
4 176 177 178 179
4 180 181 182 183
4 184 185 186 187
4 188 189 190 191
4 192 193 194 195
3 196 197 198
3 199 200 201
3 202 203 204
4 205 206 207 208
4 206 209 210 207
4 209 211 212 210
4 211 205 208 212
4 213 214 215 216
3 217 218 219
3 220 221 222
3 223 224 225
4 226 227 228 229
4 230 231 232 233
4 234 235 236 237
4 238 239 240 241
4 242 243 244 245
4 246 247 248 249
4 250 251 252 253
4 254 255 256 257
4 258 259 260 261
4 262 263 264 265
4 266 267 268 269
3 270 271 272
3 272 273 274
3 274 275 276
3 276 277 278
3 278 279 280
3 278 280 281
3 274 276 278
3 270 272 274
3 282 283 270
3 284 282 270
3 270 274 278
3 278 281 285
3 270 278 285
3 286 284 270
3 286 270 285
3 286 285 287
3 288 286 287
3 288 287 289
3 290 291 292
3 292 288 289
3 292 289 293
3 294 290 292
3 295 296 294
3 292 293 297
3 297 295 294
3 297 294 292
3 298 299 300
3 301 302 303
3 304 305 306
3 307 308 309
4 310 311 312 313
4 314 315 316 317
3 318 319 320
3 320 321 322
3 322 323 324
3 325 326 327
3 328 329 330
3 331 332 333
3 334 303 302
3 335 336 337
3 338 339 334
3 340 341 338
3 342 343 340
3 344 345 342
3 346 347 348
3 342 340 338
3 349 350 351
3 352 353 354
3 355 356 357
3 358 359 360
3 361 362 363
3 364 365 366
4 367 368 369 370
4 371 372 373 374
4 375 376 377 378
4 379 380 381 382
3 383 384 385
3 386 387 388
3 389 390 391
4 392 393 394 395
3 396 397 398
3 398 399 400
3 401 402 403
4 404 405 406 407
4 408 409 410 411
4 412 413 414 415
4 416 417 418 419
4 420 421 422 423
4 424 425 426 427
4 428 429 430 431
4 432 433 434 435
4 436 437 438 439
4 440 441 442 443
4 444 445 446 447
4 448 449 450 451
4 452 453 454 455
4 456 457 458 459
4 460 461 462 463
4 464 465 466 467
4 468 469 470 471
4 472 473 474 475
4 476 477 478 479
4 480 481 482 483
4 484 485 486 487
4 488 489 490 491
4 492 493 494 495
4 496 497 498 499
4 500 501 502 503
4 504 505 506 507
3 508 509 510
3 510 511 512
3 513 514 515
3 516 517 518
4 519 520 521 522
4 523 524 525 526
4 527 528 529 530
3 531 532 533
3 534 535 536
3 537 538 539
3 539 540 541
3 541 542 543
3 544 545 546
3 547 548 549
3 539 541 543
3 550 551 552
