ply
format ascii 1.0
comment Created by Blender 2.78 (sub 0) - www.blender.org, source file: 'soult.blend'
element vertex 75
property float x
property float y
property float z
property float nx
property float ny
property float nz
element face 54
property list uchar uint vertex_indices
end_header
-30.907217 -0.000001 -12.189774 -0.000000 1.000000 -0.000000
-30.909348 -0.000001 -12.169189 -0.000000 1.000000 -0.000000
-30.906311 -0.000001 -12.157021 -0.000000 1.000000 -0.000000
-30.898560 -0.000001 -12.144623 0.000000 1.000000 -0.000000
-30.885864 -0.000001 -12.133888 0.000000 1.000000 -0.000000
-30.874329 -0.000001 -12.128891 0.000000 1.000000 -0.000000
-30.861893 -0.000001 -12.127411 0.000000 1.000000 -0.000000
-30.849426 -0.000001 -12.128853 0.000000 1.000000 -0.000000
-30.837891 -0.000001 -12.133789 0.000000 1.000000 -0.000000
-30.827820 -0.000001 -12.141273 0.000000 1.000000 -0.000000
-30.809143 -0.000001 -12.160439 0.000000 1.000000 -0.000000
-30.781342 -0.000001 -12.188171 0.000000 1.000000 -0.000000
-30.867584 -0.000001 -12.241096 -0.000000 1.000000 -0.000000
-30.903015 -0.000001 -12.200249 -0.000000 1.000000 -0.000000
-30.832855 -0.000001 -12.282562 -0.000000 1.000000 -0.000000
-30.753052 -0.000001 -12.215416 -0.000000 1.000000 -0.000000
-30.798889 -0.000001 -12.324631 0.000000 1.000000 -0.000000
-30.724304 -0.000001 -12.242157 -0.000000 1.000000 -0.000000
-30.792969 -0.000001 -12.332077 -0.000000 1.000000 -0.000000
-30.715485 -0.000001 -12.250168 -0.000000 1.000000 -0.000000
-30.608194 -0.000001 -12.358411 0.000000 1.000000 -0.000000
-30.734470 -0.000001 -12.408835 0.000000 1.000000 -0.000000
-30.759857 -0.000001 -12.374840 0.000000 1.000000 -0.000000
-30.686127 -0.000001 -12.276260 0.000000 1.000000 -0.000000
-30.607895 -0.000001 -12.355465 -0.000000 1.000000 -0.000000
-30.623093 -0.000001 -12.329334 -0.000000 1.000000 -0.000000
-30.613190 -0.000001 -12.341061 -0.000000 1.000000 -0.000000
-30.656311 -0.000001 -12.301819 0.000000 1.000000 -0.000000
-24.330154 -0.000000 -9.787872 -0.000000 1.000000 -0.000000
-25.143801 -0.000000 -10.130260 -0.000000 1.000000 -0.000000
-25.226013 -0.000000 -9.927750 -0.000000 1.000000 -0.000000
-24.586227 -0.000000 -9.669899 -0.000000 1.000000 -0.000000
-30.598053 -0.000001 -11.721481 0.000000 1.000000 -0.000000
-31.119436 -0.000001 -11.924449 0.000000 1.000000 -0.000000
-31.119991 -0.000001 -11.509005 0.000000 1.000000 -0.000000
-25.908009 -0.000000 -9.423003 0.000000 1.000000 -0.000000
-25.908005 -0.000000 -9.423003 0.000000 1.000000 -0.000000
-22.110001 -0.000000 -7.936024 -0.000000 1.000000 -0.000000
-22.308426 -0.000000 -8.208160 -0.000000 1.000000 -0.000000
-30.494293 -0.000001 -11.469261 0.000000 1.000000 -0.000000
-22.297012 -0.000000 -8.203194 -0.000000 1.000000 -0.000000
-22.085941 -0.000000 -7.872500 0.000000 1.000000 -0.000000
-22.077652 -0.000000 -7.957153 0.000000 1.000000 -0.000000
-22.078049 -0.000000 -7.984779 -0.000000 1.000000 -0.000000
-22.094315 -0.000000 -8.027397 -0.000000 1.000000 -0.000000
-22.103897 -0.000000 -8.045326 -0.000000 1.000000 -0.000000
-22.158707 -0.000000 -8.108978 -0.000000 1.000000 -0.000000
-22.223740 -0.000000 -8.162132 0.000000 1.000000 -0.000000
-21.362865 -0.000000 -7.973746 0.000012 1.000000 0.000004
-21.457523 -0.000000 -7.722090 0.000012 1.000000 0.000004
-20.890985 -0.000008 -7.528021 0.000012 1.000000 0.000004
-20.179932 -0.000008 -7.321974 0.000011 1.000000 -0.000034
-18.830881 -0.000008 -6.873967 0.000011 1.000000 -0.000034
-14.758003 -0.000031 -6.198952 0.000011 1.000000 -0.000034
-21.362865 -0.000000 -7.973746 -0.000007 1.000000 0.000025
-20.890985 -0.000008 -7.528021 -0.000007 1.000000 0.000025
-20.179932 -0.000008 -7.321974 -0.000007 1.000000 0.000025
-15.388794 -0.000000 -6.823441 -0.000000 1.000000 -0.000000
-16.816864 -0.000000 -7.068859 -0.000000 1.000000 -0.000000
-17.033157 -0.000000 -6.887421 -0.000000 1.000000 -0.000000
-17.033157 -0.000000 -6.887421 -0.000005 1.000000 0.000021
-21.362865 -0.000000 -7.973746 -0.000005 1.000000 0.000021
-20.179932 -0.000008 -7.321974 -0.000005 1.000000 0.000021
-20.179932 -0.000008 -7.321974 -0.000290 0.999999 0.001418
-14.758003 -0.000031 -6.198952 -0.000290 0.999999 0.001418
-14.650432 -0.000000 -6.198513 -0.000290 0.999999 0.001418
-14.650432 -0.000000 -6.198513 0.000000 1.000000 -0.000000
-14.427069 -0.000000 -6.158737 0.000000 1.000000 -0.000000
-14.442527 -0.000000 -6.292448 0.000000 1.000000 -0.000000
-14.489500 -0.000000 -6.471804 -0.000000 1.000000 -0.000000
-14.609731 -0.000000 -6.640695 -0.000000 1.000000 -0.000000
-14.713902 -0.000000 -6.714509 0.000000 1.000000 -0.000000
-17.033157 -0.000000 -6.887421 -0.000005 1.000000 0.000016
-20.179932 -0.000008 -7.321974 -0.000005 1.000000 0.000016
-14.650432 -0.000000 -6.198513 -0.000005 1.000000 0.000016
3 0 1 2
3 2 3 4
3 4 5 6
3 6 7 8
3 8 9 10
3 8 10 11
3 4 6 8
3 0 2 4
3 12 13 0
3 14 12 0
3 0 4 8
3 8 11 15
3 0 8 15
3 16 14 0
3 16 0 15
3 16 15 17
3 18 16 17
3 18 17 19
3 20 21 22
3 22 18 19
3 22 19 23
3 24 20 22
3 25 26 24
3 22 23 27
3 27 25 24
3 27 24 22
4 28 29 30 31
3 32 33 34
3 34 35 36
3 36 37 38
3 39 32 34
3 36 38 39
3 34 36 39
3 40 38 37
3 37 41 42
3 42 43 44
3 44 45 46
3 46 47 40
3 40 37 42
3 42 44 46
3 42 46 40
3 48 49 50
3 51 52 53
3 54 55 56
3 57 58 59
3 60 61 62
3 63 64 65
3 66 67 68
3 68 69 70
3 70 71 57
3 72 73 74
3 70 57 59
3 66 68 70
3 66 70 59
