ply
format ascii 1.0
comment Created by Blender 2.78 (sub 0) - www.blender.org, source file: 'soult.blend'
element vertex 71
property float x
property float y
property float z
property float nx
property float ny
property float nz
element face 67
property list uchar uint vertex_indices
end_header
-32.529755 -0.000000 -11.325958 -0.000000 1.000000 -0.000000
-34.154503 -0.000000 -8.445082 -0.000000 1.000000 -0.000000
-34.147186 -0.000000 -8.401993 -0.000000 1.000000 -0.000000
-34.107327 -0.000000 -8.361510 -0.000000 1.000000 -0.000000
-34.053772 -0.000000 -8.342583 -0.000000 1.000000 -0.000000
-34.004517 -0.000000 -8.359281 -0.000000 1.000000 -0.000000
-32.374001 -0.000000 -11.228922 -0.000000 1.000000 -0.000000
-32.372528 -0.000000 -11.276329 0.000000 1.000000 -0.000000
-32.394875 -0.000000 -11.318148 0.000000 1.000000 -0.000000
-32.433197 -0.000000 -11.345978 -0.000000 1.000000 -0.000000
-32.483246 -0.000000 -11.344505 -0.000000 1.000000 -0.000000
-31.019623 -0.000001 -13.205742 0.000000 1.000000 -0.000000
-30.514397 -0.000001 -14.105425 0.000000 1.000000 -0.000000
-31.789265 -0.000001 -14.843187 0.000000 1.000000 -0.000000
-31.785065 -0.000001 -14.827759 -0.000000 1.000000 -0.000000
-32.159607 -0.000001 -14.734573 -0.000000 1.000000 -0.000000
-32.065765 -0.000001 -14.381668 -0.000000 1.000000 -0.000000
-31.367035 -0.000001 -12.889038 0.000000 1.000000 -0.000000
-31.149414 -0.000001 -13.064842 0.000000 1.000000 -0.000000
-31.932220 -0.000001 -12.607742 -0.000000 1.000000 -0.000000
-31.562897 -0.000001 -12.776428 -0.000000 1.000000 -0.000000
-32.066254 -0.000001 -12.543266 -0.000000 1.000000 -0.000000
-32.065552 -0.000001 -12.543602 -0.000000 1.000000 -0.000000
-32.399994 -0.000001 -14.268677 -0.000000 1.000000 -0.000000
-32.324127 -0.000001 -13.923210 -0.000000 1.000000 -0.000000
-32.660309 -0.000001 -13.813301 -0.000000 1.000000 -0.000000
-32.564423 -0.000001 -13.456429 -0.000000 1.000000 -0.000000
-32.430237 -0.000001 -12.360634 0.000000 1.000000 -0.000000
-32.932922 -0.000001 -13.351120 0.000000 1.000000 -0.000000
-32.844177 -0.000001 -13.009087 0.000000 1.000000 -0.000000
-32.430939 -0.000001 -12.360268 -0.000000 1.000000 -0.000000
-33.177582 -0.000001 -12.898552 0.000000 1.000000 -0.000000
-33.101105 -0.000001 -12.553467 0.000000 1.000000 -0.000000
-32.625824 -0.000001 -12.207642 -0.000000 1.000000 -0.000000
-33.454285 -0.000001 -12.452698 -0.000000 1.000000 -0.000000
-33.357147 -0.000001 -12.098328 -0.000000 1.000000 -0.000000
-32.740540 -0.000001 -12.101479 0.000000 1.000000 -0.000000
-33.694153 -0.000001 -11.985909 0.000000 1.000000 -0.000000
-33.617859 -0.000001 -11.640999 0.000000 1.000000 -0.000000
-34.681061 -0.000000 -8.902840 -0.000000 1.000000 -0.000000
-34.551483 -0.000000 -9.034592 -0.000000 1.000000 -0.000000
-32.895355 -0.000001 -11.910576 -0.000000 1.000000 -0.000000
-33.970520 -0.000001 -11.540680 -0.000000 1.000000 -0.000000
-33.875824 -0.000000 -11.183434 -0.000000 1.000000 -0.000000
-34.831573 -0.000000 -8.795601 -0.000000 1.000000 -0.000000
-35.112579 -0.000000 -8.680870 0.000000 1.000000 -0.000000
-34.935913 -0.000000 -8.741737 0.000000 1.000000 -0.000000
-35.483978 -0.000000 -8.654823 -0.000000 1.000000 -0.000000
-35.297150 -0.000000 -8.651604 -0.000000 1.000000 -0.000000
-35.756104 -0.000000 -8.750450 0.000000 1.000000 -0.000000
-35.659485 -0.000000 -8.688202 0.000000 1.000000 -0.000000
-35.853607 -0.000000 -8.844681 -0.000000 1.000000 -0.000000
-35.802307 -0.000000 -8.789810 -0.000000 1.000000 -0.000000
-35.925232 -0.000000 -8.978600 0.000000 1.000000 -0.000000
-35.895294 -0.000000 -8.908508 0.000000 1.000000 -0.000000
-35.946747 -0.000000 -9.128937 -0.000000 1.000000 -0.000000
-35.942596 -0.000000 -9.052834 -0.000000 1.000000 -0.000000
-35.935181 -0.000000 -9.216148 0.000000 1.000000 -0.000000
-35.937653 -0.000000 -9.204620 0.000000 1.000000 -0.000000
-35.874298 -0.000000 -9.359840 0.000000 1.000000 -0.000000
-35.911011 -0.000000 -9.290657 0.000000 1.000000 -0.000000
-35.767975 -0.000000 -9.474052 0.000000 1.000000 -0.000000
-35.826111 -0.000000 -9.421600 0.000000 1.000000 -0.000000
-35.005676 -0.000000 -9.713852 -0.000000 1.000000 -0.000000
-35.701569 -0.000000 -9.515602 -0.000000 1.000000 -0.000000
-34.396332 -0.000000 -10.272469 0.000000 1.000000 -0.000000
-34.748901 -0.000000 -10.171776 0.000000 1.000000 -0.000000
-34.654022 -0.000000 -9.813789 0.000000 1.000000 -0.000000
-34.213043 -0.000000 -11.071732 -0.000000 1.000000 -0.000000
-34.137115 -0.000000 -10.727501 -0.000000 1.000000 -0.000000
-34.490997 -0.000000 -10.626183 -0.000000 1.000000 -0.000000
3 0 1 2
3 2 3 4
3 4 5 6
3 6 7 8
3 8 9 10
3 10 0 2
3 2 4 6
3 6 8 10
3 2 6 10
3 11 12 13
3 14 15 16
3 11 13 14
3 17 18 11
3 19 20 17
3 21 22 19
3 21 19 17
3 17 11 14
3 16 23 24
3 17 14 16
3 21 17 16
3 24 25 26
3 21 16 24
3 27 21 24
3 26 28 29
3 27 24 26
3 30 27 26
3 29 31 32
3 30 26 29
3 33 30 29
3 32 34 35
3 33 29 32
3 36 33 32
3 35 37 38
3 36 32 35
3 39 40 41
3 41 36 35
3 38 42 43
3 41 35 38
3 44 39 41
3 45 46 44
3 47 48 45
3 49 50 47
3 51 52 49
3 53 54 51
3 55 56 53
3 57 58 55
3 59 60 57
3 61 62 59
3 63 64 61
3 65 66 67
3 67 63 61
3 61 59 57
3 57 55 53
3 53 51 49
3 49 47 45
3 45 44 41
3 41 38 43
3 43 68 69
3 69 70 65
3 67 61 57
3 69 65 67
3 41 43 69
3 53 49 45
3 67 57 53
3 41 69 67
3 67 53 45
3 67 45 41
