ply
format ascii 1.0
comment Created by Blender 2.78 (sub 0) - www.blender.org, source file: 'soult.blend'
element vertex 56
property float x
property float y
property float z
property float nx
property float ny
property float nz
element face 50
property list uchar uint vertex_indices
end_header
-12.664368 -0.000000 -9.464470 0.000000 1.000000 -0.000000
-12.694359 -0.000000 -9.452049 0.000000 1.000000 -0.000000
-12.769974 -0.000000 -9.407665 0.000000 1.000000 -0.000000
-12.891151 -0.000000 -9.341751 -0.000000 1.000000 -0.000000
-12.587173 -0.000000 -9.434896 -0.000000 1.000000 -0.000000
-12.619659 -0.000000 -9.461166 -0.000000 1.000000 -0.000000
-12.575886 -0.000000 -9.376068 0.000000 1.000000 -0.000000
-12.574539 -0.000000 -9.408501 0.000000 1.000000 -0.000000
-13.083519 -0.000000 -8.761002 -0.000000 1.000000 -0.000000
-12.588280 -0.000000 -9.346069 -0.000000 1.000000 -0.000000
-13.183615 -0.000000 -8.730101 0.000000 1.000000 -0.000000
-13.125674 -0.000000 -8.736328 0.000000 1.000000 -0.000000
-13.282532 -0.000000 -8.798050 0.000000 1.000000 -0.000000
-13.247816 -0.000000 -8.760567 0.000000 1.000000 -0.000000
-13.375155 -0.000000 -8.962015 0.000000 1.000000 -0.000000
-13.336273 -0.000000 -8.881706 0.000000 1.000000 -0.000000
-13.417437 -0.000000 -9.070210 0.000000 1.000000 -0.000000
-13.411507 -0.000000 -9.045448 0.000000 1.000000 -0.000000
-13.391272 -0.000000 -9.132884 0.000000 1.000000 -0.000000
-13.411265 -0.000000 -9.109198 0.000000 1.000000 -0.000000
-13.195964 -0.000000 -9.207428 0.000000 1.000000 -0.000000
-13.369942 -0.000000 -9.144920 0.000000 1.000000 -0.000000
-12.982735 -0.000000 -9.297064 0.000000 1.000000 -0.000000
-14.907715 -0.000000 -9.025162 -0.000000 1.000000 -0.000000
-14.893870 -0.000000 -9.009868 -0.000000 1.000000 -0.000000
-14.876221 -0.000000 -8.999199 -0.000000 1.000000 -0.000000
-14.356110 -0.000000 -8.729805 0.000000 1.000000 -0.000000
-14.315654 -0.000000 -8.727443 0.000000 1.000000 -0.000000
-14.263362 -0.000000 -8.743973 0.000000 1.000000 -0.000000
-13.943176 -0.000000 -8.951576 0.000000 1.000000 -0.000000
-13.927843 -0.000000 -8.969109 0.000000 1.000000 -0.000000
-13.921350 -0.000000 -9.005371 0.000000 1.000000 -0.000000
-13.949255 -0.000000 -9.044123 0.000000 1.000000 -0.000000
-13.979149 -0.000000 -9.058113 0.000000 1.000000 -0.000000
-14.111685 -0.000000 -9.053801 -0.000000 1.000000 -0.000000
-14.915146 -0.000000 -9.065292 0.000000 1.000000 -0.000000
-14.914373 -0.000000 -9.044676 0.000000 1.000000 -0.000000
-14.886597 -0.000000 -9.106850 0.000000 1.000000 -0.000000
-14.904549 -0.000000 -9.088591 0.000000 1.000000 -0.000000
-14.658745 -0.000000 -9.083830 0.000000 1.000000 -0.000000
-14.862934 -0.000000 -9.113842 0.000000 1.000000 -0.000000
-14.377312 -0.000000 -9.056833 0.000000 1.000000 -0.000000
-13.504164 -0.000000 -8.315821 -0.000000 1.000000 -0.000000
-13.461401 -0.000000 -8.331453 -0.000000 1.000000 -0.000000
-13.434568 -0.000000 -8.371628 -0.000000 1.000000 -0.000000
-13.435059 -0.000000 -8.409925 -0.000000 1.000000 -0.000000
-13.449986 -0.000000 -8.438343 -0.000000 1.000000 -0.000000
-13.755913 -0.000000 -8.597427 -0.000000 1.000000 -0.000000
-13.781292 -0.000000 -8.600700 -0.000000 1.000000 -0.000000
-13.814697 -0.000000 -8.595612 0.000000 1.000000 -0.000000
-13.827179 -0.000000 -8.588966 0.000000 1.000000 -0.000000
-13.855537 -0.000000 -8.568069 -0.000000 1.000000 -0.000000
-13.884573 -0.000000 -8.531858 -0.000000 1.000000 -0.000000
-13.878845 -0.000000 -8.502930 -0.000000 1.000000 -0.000000
-13.867340 -0.000000 -8.485344 -0.000000 1.000000 -0.000000
-13.531609 -0.000000 -8.317970 -0.000000 1.000000 -0.000000
3 0 1 2
3 0 2 3
3 4 5 0
3 6 7 4
3 8 9 6
3 10 11 8
3 12 13 10
3 14 15 12
3 16 17 14
3 18 19 16
3 20 21 18
3 20 18 16
3 16 14 12
3 12 10 8
3 8 6 4
3 4 0 3
3 22 20 16
3 4 3 22
3 12 8 4
3 22 16 12
3 22 12 4
3 23 24 25
3 25 26 27
3 27 28 29
3 29 30 31
3 31 32 33
3 31 33 34
3 27 29 31
3 23 25 27
3 35 36 23
3 37 38 35
3 39 40 37
3 31 34 41
3 39 37 35
3 31 41 39
3 23 27 31
3 39 35 23
3 31 39 23
3 42 43 44
3 44 45 46
3 46 47 48
3 48 49 50
3 50 51 52
3 52 53 54
3 54 55 42
3 42 44 46
3 46 48 50
3 50 52 54
3 54 42 46
3 46 50 54
