ply
format ascii 1.0
comment Created by Blender 2.78 (sub 0) - www.blender.org, source file: 'soult.blend'
element vertex 82
property float x
property float y
property float z
property float nx
property float ny
property float nz
element face 72
property list uchar uint vertex_indices
end_header
-13.641563 -0.000000 -5.845490 0.000000 1.000000 -0.000000
-13.717010 -0.000000 -5.617111 0.000000 1.000000 -0.000000
-12.632401 -0.000000 -6.514542 0.000000 1.000000 -0.000000
-12.629959 -0.000000 -6.632771 -0.000000 1.000000 -0.000000
-12.639931 -0.000000 -6.699120 -0.000000 1.000000 -0.000000
-12.661270 -0.000000 -6.762730 -0.000000 1.000000 -0.000000
-12.693336 -0.000000 -6.821659 -0.000000 1.000000 -0.000000
-12.735153 -0.000000 -6.874142 -0.000000 1.000000 -0.000000
-12.785439 -0.000000 -6.918549 -0.000000 1.000000 -0.000000
-12.830688 -0.000000 -6.947330 0.000000 1.000000 -0.000000
-12.892227 -0.000000 -6.974041 0.000000 1.000000 -0.000000
-12.957481 -0.000000 -6.989658 -0.000000 1.000000 -0.000000
-13.024452 -0.000000 -6.993710 -0.000000 1.000000 -0.000000
-13.060478 -0.000000 -6.991051 -0.000000 1.000000 -0.000000
-13.103249 -0.000000 -6.960312 -0.000000 1.000000 -0.000000
-13.140030 -0.000000 -6.922611 -0.000000 1.000000 -0.000000
-13.168770 -0.000000 -6.880741 -0.000000 1.000000 -0.000000
-13.356369 -0.000000 -6.499340 0.000000 1.000000 -0.000000
-13.472687 -0.000000 -6.248821 0.000000 1.000000 -0.000000
-14.145220 -0.000000 -9.605927 0.000000 1.000000 -0.000000
-14.034693 -0.000000 -9.611000 0.000000 1.000000 -0.000000
-13.858513 -0.000000 -9.628761 0.000000 1.000000 -0.000000
-13.860168 -0.000000 -9.657037 0.000000 1.000000 -0.000000
-14.598668 -0.000000 -9.942636 0.000000 1.000000 -0.000000
-14.743088 -0.000000 -9.665253 -0.000000 1.000000 -0.000000
-14.284088 -0.000000 -9.607407 -0.000000 1.000000 -0.000000
-12.664368 -0.000000 -9.464470 0.000000 1.000000 -0.000000
-12.694359 -0.000000 -9.452049 0.000000 1.000000 -0.000000
-12.769974 -0.000000 -9.407665 0.000000 1.000000 -0.000000
-12.891151 -0.000000 -9.341751 -0.000000 1.000000 -0.000000
-12.587173 -0.000000 -9.434896 -0.000000 1.000000 -0.000000
-12.619659 -0.000000 -9.461166 -0.000000 1.000000 -0.000000
-12.575886 -0.000000 -9.376068 0.000000 1.000000 -0.000000
-12.574539 -0.000000 -9.408501 0.000000 1.000000 -0.000000
-13.083519 -0.000000 -8.761002 -0.000000 1.000000 -0.000000
-12.588280 -0.000000 -9.346069 -0.000000 1.000000 -0.000000
-13.183615 -0.000000 -8.730101 0.000000 1.000000 -0.000000
-13.125674 -0.000000 -8.736328 0.000000 1.000000 -0.000000
-13.282532 -0.000000 -8.798050 0.000000 1.000000 -0.000000
-13.247816 -0.000000 -8.760567 0.000000 1.000000 -0.000000
-13.375155 -0.000000 -8.962015 0.000000 1.000000 -0.000000
-13.336273 -0.000000 -8.881706 0.000000 1.000000 -0.000000
-13.417437 -0.000000 -9.070210 0.000000 1.000000 -0.000000
-13.411507 -0.000000 -9.045448 0.000000 1.000000 -0.000000
-13.391272 -0.000000 -9.132884 0.000000 1.000000 -0.000000
-13.411265 -0.000000 -9.109198 0.000000 1.000000 -0.000000
-13.195964 -0.000000 -9.207428 0.000000 1.000000 -0.000000
-13.369942 -0.000000 -9.144920 0.000000 1.000000 -0.000000
-12.982735 -0.000000 -9.297064 0.000000 1.000000 -0.000000
-14.907715 -0.000000 -9.025162 -0.000000 1.000000 -0.000000
-14.893870 -0.000000 -9.009868 -0.000000 1.000000 -0.000000
-14.876221 -0.000000 -8.999199 -0.000000 1.000000 -0.000000
-14.356110 -0.000000 -8.729805 0.000000 1.000000 -0.000000
-14.315654 -0.000000 -8.727443 0.000000 1.000000 -0.000000
-14.263362 -0.000000 -8.743973 0.000000 1.000000 -0.000000
-13.943176 -0.000000 -8.951576 0.000000 1.000000 -0.000000
-13.927843 -0.000000 -8.969109 0.000000 1.000000 -0.000000
-13.921350 -0.000000 -9.005371 0.000000 1.000000 -0.000000
-13.949255 -0.000000 -9.044123 0.000000 1.000000 -0.000000
-13.979149 -0.000000 -9.058113 0.000000 1.000000 -0.000000
-14.111685 -0.000000 -9.053801 -0.000000 1.000000 -0.000000
-14.915146 -0.000000 -9.065292 0.000000 1.000000 -0.000000
-14.914373 -0.000000 -9.044676 0.000000 1.000000 -0.000000
-14.886597 -0.000000 -9.106850 0.000000 1.000000 -0.000000
-14.904549 -0.000000 -9.088591 0.000000 1.000000 -0.000000
-14.658745 -0.000000 -9.083830 0.000000 1.000000 -0.000000
-14.862934 -0.000000 -9.113842 0.000000 1.000000 -0.000000
-14.377312 -0.000000 -9.056833 0.000000 1.000000 -0.000000
-13.504164 -0.000000 -8.315821 -0.000000 1.000000 -0.000000
-13.461401 -0.000000 -8.331453 -0.000000 1.000000 -0.000000
-13.434568 -0.000000 -8.371628 -0.000000 1.000000 -0.000000
-13.435059 -0.000000 -8.409925 -0.000000 1.000000 -0.000000
-13.449986 -0.000000 -8.438343 -0.000000 1.000000 -0.000000
-13.755913 -0.000000 -8.597427 -0.000000 1.000000 -0.000000
-13.781292 -0.000000 -8.600700 -0.000000 1.000000 -0.000000
-13.814697 -0.000000 -8.595612 0.000000 1.000000 -0.000000
-13.827179 -0.000000 -8.588966 0.000000 1.000000 -0.000000
-13.855537 -0.000000 -8.568069 -0.000000 1.000000 -0.000000
-13.884573 -0.000000 -8.531858 -0.000000 1.000000 -0.000000
-13.878845 -0.000000 -8.502930 -0.000000 1.000000 -0.000000
-13.867340 -0.000000 -8.485344 -0.000000 1.000000 -0.000000
-13.531609 -0.000000 -8.317970 -0.000000 1.000000 -0.000000
3 0 1 2
3 2 3 4
3 4 5 6
3 6 7 8
3 8 9 10
3 10 11 12
3 12 13 14
3 14 15 16
3 16 17 18
3 18 0 2
3 2 4 6
3 6 8 10
3 10 12 14
3 14 16 18
3 18 2 6
3 6 10 14
3 6 14 18
3 19 20 21
3 21 22 23
3 23 24 25
3 25 19 21
3 21 23 25
3 26 27 28
3 26 28 29
3 30 31 26
3 32 33 30
3 34 35 32
3 36 37 34
3 38 39 36
3 40 41 38
3 42 43 40
3 44 45 42
3 46 47 44
3 46 44 42
3 42 40 38
3 38 36 34
3 34 32 30
3 30 26 29
3 48 46 42
3 30 29 48
3 38 34 30
3 48 42 38
3 48 38 30
3 49 50 51
3 51 52 53
3 53 54 55
3 55 56 57
3 57 58 59
3 57 59 60
3 53 55 57
3 49 51 53
3 61 62 49
3 63 64 61
3 65 66 63
3 57 60 67
3 65 63 61
3 57 67 65
3 49 53 57
3 65 61 49
3 57 65 49
3 68 69 70
3 70 71 72
3 72 73 74
3 74 75 76
3 76 77 78
3 78 79 80
3 80 81 68
3 68 70 72
3 72 74 76
3 76 78 80
3 80 68 72
3 72 76 80
