ply
format ascii 1.0
comment Created by Blender 2.78 (sub 0) - www.blender.org, source file: 'soult.blend'
element vertex 13
property float x
property float y
property float z
property float nx
property float ny
property float nz
element face 9
property list uchar uint vertex_indices
end_header
-34.005829 -0.000000 -6.864214 0.000000 1.000000 -0.000000
-33.890427 -0.000000 -6.724171 0.000000 1.000000 -0.000000
-33.836044 -0.000000 -6.678452 0.000000 1.000000 -0.000000
-33.836044 -0.000000 -6.678452 0.006410 0.999973 0.003604
-33.768002 -0.000031 -6.791000 0.006410 0.999973 0.003604
-31.119991 -0.000001 -11.509005 0.006410 0.999973 0.003604
-31.119991 -0.000001 -11.509005 -0.000000 1.000000 -0.000000
-31.119436 -0.000001 -11.924449 -0.000000 1.000000 -0.000000
-31.119781 -0.000001 -11.924583 -0.000000 1.000000 -0.000000
-33.607819 -0.000000 -7.524239 -0.000000 1.000000 -0.000000
-33.902557 -0.000000 -7.343010 -0.000000 1.000000 -0.000000
-34.063732 -0.000000 -7.075988 -0.000000 1.000000 -0.000000
-34.063446 -0.000000 -6.988060 -0.000000 1.000000 -0.000000
3 0 1 2
3 3 4 5
3 6 7 8
3 9 10 11
3 6 8 9
3 0 2 6
3 11 12 0
3 0 6 9
3 9 11 0
