ply
format ascii 1.0
comment Created by Blender 2.78 (sub 0) - www.blender.org, source file: 'soult.blend'
element vertex 47
property float x
property float y
property float z
property float nx
property float ny
property float nz
element face 24
property list uchar uint vertex_indices
end_header
-24.330154 -0.000000 -9.787872 -0.000000 1.000000 -0.000000
-25.143801 -0.000000 -10.130260 -0.000000 1.000000 -0.000000
-25.226013 -0.000000 -9.927750 -0.000000 1.000000 -0.000000
-24.586227 -0.000000 -9.669899 -0.000000 1.000000 -0.000000
-30.598053 -0.000001 -11.721481 0.000000 1.000000 -0.000000
-31.119436 -0.000001 -11.924449 0.000000 1.000000 -0.000000
-31.119991 -0.000001 -11.509005 0.000000 1.000000 -0.000000
-25.908009 -0.000000 -9.423003 0.000000 1.000000 -0.000000
-25.908005 -0.000000 -9.423003 0.000000 1.000000 -0.000000
-22.110001 -0.000000 -7.936024 -0.000000 1.000000 -0.000000
-22.308426 -0.000000 -8.208160 -0.000000 1.000000 -0.000000
-30.494293 -0.000001 -11.469261 0.000000 1.000000 -0.000000
-22.297012 -0.000000 -8.203194 -0.000000 1.000000 -0.000000
-22.085941 -0.000000 -7.872500 0.000000 1.000000 -0.000000
-22.077652 -0.000000 -7.957153 0.000000 1.000000 -0.000000
-22.078049 -0.000000 -7.984779 -0.000000 1.000000 -0.000000
-22.094315 -0.000000 -8.027397 -0.000000 1.000000 -0.000000
-22.103897 -0.000000 -8.045326 -0.000000 1.000000 -0.000000
-22.158707 -0.000000 -8.108978 -0.000000 1.000000 -0.000000
-22.223740 -0.000000 -8.162132 0.000000 1.000000 -0.000000
-21.362865 -0.000000 -7.973746 0.000012 1.000000 0.000004
-21.457523 -0.000000 -7.722090 0.000012 1.000000 0.000004
-20.890985 -0.000008 -7.528021 0.000012 1.000000 0.000004
-20.179932 -0.000008 -7.321974 -0.000004 1.000000 0.000012
-18.830881 -0.000008 -6.873967 -0.000004 1.000000 0.000012
-17.033157 -0.000000 -6.887421 -0.000004 1.000000 0.000012
-21.362865 -0.000000 -7.973746 -0.000007 1.000000 0.000025
-20.890985 -0.000008 -7.528021 -0.000007 1.000000 0.000025
-20.179932 -0.000008 -7.321974 -0.000007 1.000000 0.000025
-20.179932 -0.000008 -7.321974 -0.000005 1.000000 0.000021
-17.033157 -0.000000 -6.887421 -0.000005 1.000000 0.000021
-21.362865 -0.000000 -7.973746 -0.000005 1.000000 0.000021
-17.033157 -0.000000 -6.887421 -0.000004 1.000000 0.000057
-18.830881 -0.000008 -6.873967 -0.000004 1.000000 0.000057
-14.758003 -0.000031 -6.198952 -0.000004 1.000000 0.000057
-14.758003 -0.000031 -6.198952 -0.000284 1.000000 0.000035
-14.650432 -0.000000 -6.198513 -0.000284 1.000000 0.000035
-14.713902 -0.000000 -6.714509 -0.000284 1.000000 0.000035
-15.388794 -0.000000 -6.823441 -0.000000 1.000000 -0.000000
-16.816864 -0.000000 -7.068859 -0.000000 1.000000 -0.000000
-17.033157 -0.000000 -6.887421 -0.000000 1.000000 -0.000000
-14.758003 -0.000031 -6.198952 -0.000009 1.000000 0.000058
-14.713902 -0.000000 -6.714509 -0.000009 1.000000 0.000058
-15.388794 -0.000000 -6.823441 -0.000009 1.000000 0.000058
-17.033157 -0.000000 -6.887421 -0.000002 1.000000 0.000051
-14.758003 -0.000031 -6.198952 -0.000002 1.000000 0.000051
-15.388794 -0.000000 -6.823441 -0.000002 1.000000 0.000051
4 0 1 2 3
3 4 5 6
3 6 7 8
3 8 9 10
3 11 4 6
3 8 10 11
3 6 8 11
3 12 10 9
3 9 13 14
3 14 15 16
3 16 17 18
3 18 19 12
3 12 9 14
3 14 16 18
3 14 18 12
3 20 21 22
3 23 24 25
3 26 27 28
3 29 30 31
3 32 33 34
3 35 36 37
3 38 39 40
3 41 42 43
3 44 45 46
