ply
format ascii 1.0
comment Created by Blender 2.78 (sub 0) - www.blender.org, source file: 'soult.blend'
element vertex 103
property float x
property float y
property float z
property float nx
property float ny
property float nz
element face 95
property list uchar uint vertex_indices
end_header
-32.240662 -0.000001 -18.003983 -0.000000 1.000000 -0.000000
-32.255032 -0.000001 -18.011942 -0.000000 1.000000 -0.000000
-32.816151 -0.000001 -17.029587 -0.000000 1.000000 -0.000000
-32.533691 -0.000001 -17.142975 0.000000 1.000000 -0.000000
-32.295288 -0.000001 -17.580276 0.000000 1.000000 -0.000000
-32.163239 -0.000001 -17.818954 0.000000 1.000000 -0.000000
-32.155121 -0.000001 -17.881155 0.000000 1.000000 -0.000000
-32.197266 -0.000001 -17.966660 0.000000 1.000000 -0.000000
-32.529755 -0.000000 -11.325958 -0.000000 1.000000 -0.000000
-34.154503 -0.000000 -8.445082 -0.000000 1.000000 -0.000000
-34.147186 -0.000000 -8.401993 -0.000000 1.000000 -0.000000
-34.107327 -0.000000 -8.361510 -0.000000 1.000000 -0.000000
-34.053772 -0.000000 -8.342583 -0.000000 1.000000 -0.000000
-34.004517 -0.000000 -8.359281 -0.000000 1.000000 -0.000000
-32.374001 -0.000000 -11.228922 -0.000000 1.000000 -0.000000
-32.372528 -0.000000 -11.276329 0.000000 1.000000 -0.000000
-32.394875 -0.000000 -11.318148 0.000000 1.000000 -0.000000
-32.433197 -0.000000 -11.345978 -0.000000 1.000000 -0.000000
-32.483246 -0.000000 -11.344505 -0.000000 1.000000 -0.000000
-30.857849 -0.000001 -17.131729 0.000000 1.000000 -0.000000
-31.086151 -0.000001 -17.147873 0.000000 1.000000 -0.000000
-31.105438 -0.000001 -17.146774 0.000000 1.000000 -0.000000
-31.269287 -0.000001 -17.121307 -0.000000 1.000000 -0.000000
-31.307312 -0.000001 -17.111115 -0.000000 1.000000 -0.000000
-31.460175 -0.000001 -17.052475 0.000000 1.000000 -0.000000
-31.580780 -0.000001 -16.977158 0.000000 1.000000 -0.000000
-31.723480 -0.000001 -16.854187 -0.000000 1.000000 -0.000000
-31.771179 -0.000001 -16.801895 -0.000000 1.000000 -0.000000
-32.129608 -0.000001 -16.124725 -0.000000 1.000000 -0.000000
-32.129822 -0.000001 -16.094406 -0.000000 1.000000 -0.000000
-31.789265 -0.000001 -14.843187 0.000000 1.000000 -0.000000
-31.785065 -0.000001 -14.827759 0.000000 1.000000 -0.000000
-32.159607 -0.000001 -14.734573 -0.000000 1.000000 -0.000000
-32.065765 -0.000001 -14.381668 -0.000000 1.000000 -0.000000
-32.399994 -0.000001 -14.268677 -0.000000 1.000000 -0.000000
-32.324127 -0.000001 -13.923210 -0.000000 1.000000 -0.000000
-32.660309 -0.000001 -13.813301 -0.000000 1.000000 -0.000000
-32.564423 -0.000001 -13.456429 -0.000000 1.000000 -0.000000
-32.932922 -0.000001 -13.351120 0.000000 1.000000 -0.000000
-32.844177 -0.000001 -13.009087 0.000000 1.000000 -0.000000
-33.177582 -0.000001 -12.898552 0.000000 1.000000 -0.000000
-33.101105 -0.000001 -12.553467 0.000000 1.000000 -0.000000
-33.454285 -0.000001 -12.452698 -0.000000 1.000000 -0.000000
-33.357147 -0.000001 -12.098328 -0.000000 1.000000 -0.000000
-33.694153 -0.000001 -11.985909 0.000000 1.000000 -0.000000
-33.617859 -0.000001 -11.640999 0.000000 1.000000 -0.000000
-33.970520 -0.000001 -11.540680 -0.000000 1.000000 -0.000000
-33.875824 -0.000000 -11.183434 -0.000000 1.000000 -0.000000
-34.213043 -0.000000 -11.071732 -0.000000 1.000000 -0.000000
-34.137115 -0.000000 -10.727501 -0.000000 1.000000 -0.000000
-34.490997 -0.000000 -10.626183 -0.000000 1.000000 -0.000000
-34.396332 -0.000000 -10.272469 -0.000000 1.000000 -0.000000
-34.748901 -0.000000 -10.171776 0.000000 1.000000 -0.000000
-34.654022 -0.000000 -9.813789 0.000000 1.000000 -0.000000
-35.005676 -0.000000 -9.713852 -0.000000 1.000000 -0.000000
-35.701569 -0.000000 -9.515602 -0.000000 1.000000 -0.000000
-35.767975 -0.000000 -9.474052 0.000000 1.000000 -0.000000
-35.826111 -0.000000 -9.421600 0.000000 1.000000 -0.000000
-35.874298 -0.000000 -9.359840 -0.000000 1.000000 -0.000000
-35.911011 -0.000000 -9.290657 -0.000000 1.000000 -0.000000
-35.935181 -0.000000 -9.216148 -0.000000 1.000000 -0.000000
-35.937653 -0.000000 -9.204620 -0.000000 1.000000 -0.000000
-35.946747 -0.000000 -9.128937 0.000000 1.000000 -0.000000
-35.942596 -0.000000 -9.052834 0.000000 1.000000 -0.000000
-35.925232 -0.000000 -8.978600 -0.000000 1.000000 -0.000000
-35.895294 -0.000000 -8.908508 -0.000000 1.000000 -0.000000
-35.853607 -0.000000 -8.844681 0.000000 1.000000 -0.000000
-35.802307 -0.000000 -8.789810 0.000000 1.000000 -0.000000
-35.756104 -0.000000 -8.750450 -0.000000 1.000000 -0.000000
-35.659485 -0.000000 -8.688202 -0.000000 1.000000 -0.000000
-35.483978 -0.000000 -8.654823 -0.000000 1.000000 -0.000000
-35.297150 -0.000000 -8.651604 -0.000000 1.000000 -0.000000
-35.112579 -0.000000 -8.680870 -0.000000 1.000000 -0.000000
-34.935913 -0.000000 -8.741737 -0.000000 1.000000 -0.000000
-34.831573 -0.000000 -8.795601 0.000000 1.000000 -0.000000
-34.681061 -0.000000 -8.902840 0.000000 1.000000 -0.000000
-34.551483 -0.000000 -9.034592 -0.000000 1.000000 -0.000000
-32.895355 -0.000001 -11.910576 -0.000000 1.000000 -0.000000
-32.066254 -0.000001 -12.543266 -0.000000 1.000000 -0.000000
-32.065552 -0.000001 -12.543602 -0.000000 1.000000 -0.000000
-31.932220 -0.000001 -12.607742 -0.000000 1.000000 -0.000000
-31.562897 -0.000001 -12.776428 -0.000000 1.000000 -0.000000
-31.367035 -0.000001 -12.889038 -0.000000 1.000000 -0.000000
-31.149414 -0.000001 -13.064842 0.000000 1.000000 -0.000000
-31.019623 -0.000001 -13.205742 0.000000 1.000000 -0.000000
-31.019623 -0.000001 -13.205742 -0.000000 -1.000000 0.000000
-30.514397 -0.000001 -14.105425 -0.000000 -1.000000 0.000000
-29.749542 -0.000001 -15.467438 -0.000000 -1.000000 0.000000
-29.749542 -0.000001 -15.467438 -0.000000 1.000000 -0.000000
-29.726110 -0.000001 -15.581754 -0.000000 1.000000 -0.000000
-29.706238 -0.000001 -15.726608 -0.000000 1.000000 -0.000000
-29.717072 -0.000001 -15.962341 -0.000000 1.000000 -0.000000
-29.768707 -0.000001 -16.192627 -0.000000 1.000000 -0.000000
-29.859497 -0.000001 -16.410446 -0.000000 1.000000 -0.000000
-29.981232 -0.000001 -16.601929 -0.000000 1.000000 -0.000000
-30.139893 -0.000001 -16.776627 0.000000 1.000000 -0.000000
-30.326477 -0.000001 -16.921127 0.000000 1.000000 -0.000000
-30.442413 -0.000001 -16.991440 0.000000 1.000000 -0.000000
-30.652679 -0.000001 -17.081863 0.000000 1.000000 -0.000000
-32.430237 -0.000001 -12.360634 0.000000 1.000000 -0.000000
-32.430939 -0.000001 -12.360268 -0.000000 1.000000 -0.000000
-32.625824 -0.000001 -12.207642 -0.000000 1.000000 -0.000000
-32.740540 -0.000001 -12.101479 0.000000 1.000000 -0.000000
3 0 1 2
3 2 3 4
3 4 5 6
3 6 7 0
3 0 2 4
3 4 6 0
3 8 9 10
3 10 11 12
3 12 13 14
3 14 15 16
3 16 17 18
3 18 8 10
3 10 12 14
3 14 16 18
3 10 14 18
3 19 20 21
3 21 22 23
3 23 24 25
3 25 26 27
3 27 28 29
3 29 30 31
3 31 32 33
3 33 34 35
3 35 36 37
3 37 38 39
3 39 40 41
3 41 42 43
3 43 44 45
3 45 46 47
3 47 48 49
3 49 50 51
3 51 52 53
3 53 54 55
3 55 56 57
3 57 58 59
3 59 60 61
3 61 62 63
3 63 64 65
3 65 66 67
3 67 68 69
3 69 70 71
3 71 72 73
3 73 74 75
3 75 76 77
3 73 75 77
3 69 71 73
3 65 67 69
3 61 63 65
3 57 59 61
3 53 55 57
3 49 51 53
3 43 45 47
3 47 49 53
3 53 57 61
3 61 65 69
3 78 79 80
3 80 81 82
3 82 83 84
3 85 86 87
3 88 89 90
3 90 91 92
3 92 93 94
3 94 95 96
3 96 97 98
3 98 19 21
3 21 23 25
3 25 27 29
3 31 33 35
3 25 29 31
3 98 21 25
3 94 96 98
3 90 92 94
3 84 88 90
3 80 82 84
3 78 80 84
3 84 90 94
3 94 98 25
3 31 35 37
3 94 25 31
3 78 84 94
3 99 78 94
3 94 31 37
3 37 39 41
3 37 41 43
3 99 94 37
3 100 99 37
3 37 43 47
3 53 61 69
3 37 47 53
3 101 100 37
3 102 101 37
3 53 69 73
3 102 37 53
3 53 73 77
3 53 77 102
