ply
format ascii 1.0
comment Created by Blender 2.78 (sub 0) - www.blender.org, source file: 'soult.blend'
element vertex 163
property float x
property float y
property float z
property float nx
property float ny
property float nz
property float s
property float t
element face 52
property list uchar uint vertex_indices
end_header
-15.654707 0.025290 -10.350972 -0.000000 1.000000 0.000001 0.458220 0.856128
-15.929528 0.025290 -10.447291 -0.000000 1.000000 0.000001 0.472878 0.858135
-16.577452 0.025290 -10.635694 -0.000000 1.000000 0.000001 0.506541 0.864615
-16.577452 0.025290 -10.635694 0.000000 1.000000 -0.000000 0.506541 0.864615
-16.803059 0.025290 -10.698233 0.000000 1.000000 -0.000000 0.518191 0.867010
-15.615997 0.025290 -10.045393 0.000000 1.000000 -0.000000 0.449395 0.869051
-15.615997 0.025290 -10.045393 0.000034 1.000000 -0.000069 0.449395 0.869051
-15.368715 0.025291 -9.910227 0.000034 1.000000 -0.000069 0.435083 0.869438
-15.069043 0.025290 -9.777156 0.000034 1.000000 -0.000069 0.418451 0.868518
-15.069043 0.025290 -9.777156 0.000000 1.000000 0.000000 0.418451 0.868518
-14.732840 0.025290 -9.684936 0.000000 1.000000 0.000000 0.401112 0.864905
-14.598668 0.025290 -9.942636 0.000000 1.000000 0.000000 0.401011 0.850145
-14.598668 0.025290 -9.942636 0.000004 1.000000 -0.000011 0.401011 0.850145
-14.802271 0.025290 -10.026818 0.000004 1.000000 -0.000011 0.412167 0.851052
-15.056318 0.025291 -10.035378 0.000004 1.000000 -0.000011 0.423854 0.856546
-15.154394 0.025291 -10.076117 0.000670 0.999999 -0.001224 0.429232 0.856975
-15.296224 0.025290 -10.154577 0.000670 0.999999 -0.001224 0.437462 0.856710
-15.654707 0.025290 -10.350972 0.000670 0.999999 -0.001224 0.458220 0.856128
-15.069043 0.025290 -9.777156 0.000001 1.000000 0.000004 0.418451 0.868518
-14.598668 0.025290 -9.942636 0.000001 1.000000 0.000004 0.401011 0.850145
-15.056318 0.025291 -10.035378 0.000001 1.000000 0.000004 0.423854 0.856546
-15.154394 0.025291 -10.076117 0.000003 1.000000 -0.000008 0.429232 0.856975
-15.654707 0.025290 -10.350972 0.000003 1.000000 -0.000008 0.458220 0.856128
-16.577452 0.025290 -10.635694 0.000003 1.000000 -0.000008 0.506541 0.864615
-15.069043 0.025290 -9.777156 -0.000001 1.000000 0.000004 0.418451 0.868518
-15.056318 0.025291 -10.035378 -0.000001 1.000000 0.000004 0.423854 0.856546
-15.154394 0.025291 -10.076117 -0.000001 1.000000 0.000004 0.429232 0.856975
-16.577452 0.025290 -10.635694 0.000000 1.000000 -0.000001 0.506541 0.864615
-15.615997 0.025290 -10.045393 0.000000 1.000000 -0.000001 0.449395 0.869051
-15.069043 0.025290 -9.777156 0.000000 1.000000 -0.000001 0.418451 0.868518
-16.577452 0.025290 -10.635694 -0.000002 1.000000 0.000004 0.506541 0.864615
-15.069043 0.025290 -9.777156 -0.000002 1.000000 0.000004 0.418451 0.868518
-15.154394 0.025291 -10.076117 -0.000002 1.000000 0.000004 0.429232 0.856975
-15.392548 -0.000000 -9.897609 -0.413546 0.000000 0.910483 0.817291 0.987448
-15.174628 -0.000000 -9.798629 -0.413546 0.000000 0.910483 0.805144 0.986879
-15.174628 0.025290 -9.798629 -0.413546 0.000000 0.910483 0.805144 0.986879
-15.392548 0.025290 -9.897609 -0.413546 0.000000 0.910483 0.817291 0.987448
-15.929528 -0.000000 -10.447291 0.279214 0.000000 -0.960229 0.854300 0.975022
-16.577452 -0.000000 -10.635694 0.279214 0.000000 -0.960229 0.887962 0.981502
-16.577452 0.025290 -10.635694 0.279214 0.000000 -0.960229 0.887962 0.981502
-15.929528 0.025290 -10.447291 0.279214 0.000000 -0.960229 0.854300 0.975022
-16.718254 -0.000000 -10.627106 -0.483366 0.000000 0.875418 0.894131 0.985150
-16.133331 -0.000000 -10.304138 -0.483366 0.000000 0.875418 0.860202 0.986214
-16.133331 0.025290 -10.304138 -0.483366 0.000000 0.875418 0.860202 0.986214
-16.718254 0.025290 -10.627106 -0.483366 0.000000 0.875418 0.894131 0.985150
-15.174628 -0.000000 -9.798629 -0.363042 0.000000 0.931773 0.805144 0.986879
-15.076920 -0.000000 -9.760559 -0.363042 0.000000 0.931773 0.799844 0.986338
-15.076920 0.025290 -9.760559 -0.363042 0.000000 0.931773 0.799844 0.986338
-15.174628 0.025290 -9.798629 -0.363042 0.000000 0.931773 0.805144 0.986879
-14.743088 0.025290 -9.665253 0.886981 -0.000000 0.461806 0.782541 0.982920
-14.743088 -0.000000 -9.665253 0.886981 -0.000000 0.461806 0.782541 0.982920
-14.598668 -0.000000 -9.942636 0.886981 -0.000000 0.461806 0.782432 0.967032
-14.598668 -0.000000 -9.942636 0.886981 0.000000 0.461805 0.782432 0.967032
-14.598668 0.025290 -9.942636 0.886981 0.000000 0.461805 0.782432 0.967032
-14.732840 0.025290 -9.684936 0.886981 0.000000 0.461805 0.782533 0.981792
-14.598668 -0.000000 -9.942636 0.886975 -0.000151 0.461817 0.782432 0.967032
-14.732840 0.025290 -9.684936 0.886975 -0.000151 0.461817 0.782533 0.981792
-14.743088 0.025290 -9.665253 0.886975 -0.000151 0.461817 0.782541 0.982920
-14.884539 -0.000000 -10.060833 0.049561 0.000000 -0.998771 0.798096 0.968305
-15.021454 -0.000000 -10.067627 0.049561 0.000000 -0.998771 0.804445 0.971168
-15.021454 0.025290 -10.067627 0.049561 0.000000 -0.998771 0.804445 0.971168
-14.884539 0.025290 -10.060833 0.049561 0.000000 -0.998771 0.798096 0.968305
-15.090378 -0.000000 -10.083290 0.478276 0.000000 -0.878210 0.807925 0.972055
-15.450436 -0.000000 -10.279379 0.478276 0.000000 -0.878210 0.828747 0.971524
-15.450436 0.025290 -10.279379 0.478276 0.000000 -0.878210 0.828747 0.971524
-15.090378 0.025290 -10.083290 0.478276 0.000000 -0.878210 0.807925 0.972055
-15.076920 -0.000000 -9.760559 -0.274524 0.000000 0.961580 0.799844 0.986338
-14.743088 -0.000000 -9.665253 -0.274524 0.000000 0.961580 0.782541 0.982920
-14.743088 0.025290 -9.665253 -0.274524 0.000000 0.961580 0.782541 0.982920
-15.076920 0.025290 -9.760559 -0.274524 0.000000 0.961580 0.799844 0.986338
-16.891453 -0.000000 -10.722736 -0.483359 0.000000 0.875422 0.904177 0.984835
-16.718254 -0.000000 -10.627106 -0.483359 0.000000 0.875422 0.894131 0.985150
-16.718254 0.025290 -10.627106 -0.483359 0.000000 0.875422 0.894131 0.985150
-16.891453 0.025290 -10.722736 -0.483359 0.000000 0.875422 0.904177 0.984835
-15.021454 -0.000000 -10.067627 0.146698 0.000000 -0.989181 0.804445 0.971168
-15.043723 -0.000000 -10.070930 0.146698 0.000000 -0.989181 0.805529 0.971534
-15.043723 0.025290 -10.070930 0.146698 0.000000 -0.989181 0.805529 0.971534
-15.021454 0.025290 -10.067627 0.146698 0.000000 -0.989181 0.804445 0.971168
-15.450436 0.025290 -10.279379 0.330754 0.000000 -0.943717 0.828747 0.971524
-15.450436 -0.000000 -10.279379 0.330754 0.000000 -0.943717 0.828747 0.971524
-15.929528 -0.000000 -10.447291 0.330754 0.000000 -0.943717 0.854300 0.975022
-15.929528 -0.000000 -10.447291 0.330753 0.000000 -0.943717 0.854300 0.975022
-15.929528 0.025290 -10.447291 0.330753 0.000000 -0.943717 0.854300 0.975022
-15.654707 0.025290 -10.350972 0.330753 0.000000 -0.943717 0.839642 0.973015
-15.929528 -0.000000 -10.447291 0.330755 -0.000020 -0.943717 0.854300 0.975022
-15.654707 0.025290 -10.350972 0.330755 -0.000020 -0.943717 0.839642 0.973015
-15.450436 0.025290 -10.279379 0.330755 -0.000020 -0.943717 0.828747 0.971524
-16.133331 -0.000000 -10.304138 -0.481099 0.000000 0.876666 0.860202 0.986214
-15.392548 -0.000000 -9.897609 -0.481099 0.000000 0.876666 0.817291 0.987448
-15.392548 0.025290 -9.897609 -0.481099 0.000000 0.876666 0.817291 0.987448
-16.133331 0.025290 -10.304138 -0.481099 0.000000 0.876666 0.860202 0.986214
-16.577452 0.025290 -10.635694 0.267132 0.000000 -0.963660 0.887962 0.981502
-16.577452 -0.000000 -10.635694 0.267132 0.000000 -0.963660 0.887962 0.981502
-16.891453 -0.000000 -10.722736 0.267132 0.000000 -0.963660 0.904177 0.984835
-16.891453 -0.000000 -10.722736 0.267136 0.000000 -0.963659 0.904177 0.984835
-16.891453 0.025290 -10.722736 0.267136 0.000000 -0.963659 0.904177 0.984835
-16.803059 0.025290 -10.698233 0.267136 0.000000 -0.963659 0.899612 0.983897
-16.891453 -0.000000 -10.722736 0.267130 0.000019 -0.963660 0.904177 0.984835
-16.803059 0.025290 -10.698233 0.267130 0.000019 -0.963660 0.899612 0.983897
-16.577452 0.025290 -10.635694 0.267130 0.000019 -0.963660 0.887962 0.981502
-15.043723 -0.000000 -10.070930 0.256102 0.000000 -0.966650 0.805529 0.971534
-15.090378 -0.000000 -10.083290 0.256102 0.000000 -0.966650 0.807925 0.972055
-15.090378 0.025290 -10.083290 0.256102 0.000000 -0.966650 0.807925 0.972055
-15.043723 0.025290 -10.070930 0.256102 0.000000 -0.966650 0.805529 0.971534
-14.598668 0.025290 -9.942636 0.382090 0.000000 -0.924125 0.782432 0.967032
-14.598668 -0.000000 -9.942636 0.382090 0.000000 -0.924125 0.782432 0.967032
-14.884539 -0.000000 -10.060833 0.382090 0.000000 -0.924125 0.798096 0.968305
-14.884539 -0.000000 -10.060833 0.382092 0.000000 -0.924124 0.798096 0.968305
-14.884539 0.025290 -10.060833 0.382092 0.000000 -0.924124 0.798096 0.968305
-14.802271 0.025290 -10.026818 0.382092 0.000000 -0.924124 0.793588 0.967939
-14.884539 -0.000000 -10.060833 0.382090 0.000007 -0.924125 0.798096 0.968305
-14.802271 0.025290 -10.026818 0.382090 0.000007 -0.924125 0.793588 0.967939
-14.598668 0.025290 -9.942636 0.382090 0.000007 -0.924125 0.782432 0.967032
-14.743088 0.025290 -9.665253 0.000000 1.000000 0.000000 0.782541 0.982920
-14.732840 0.025290 -9.684936 0.000000 1.000000 0.000000 0.782533 0.981792
-15.069043 0.025290 -9.777156 0.000000 1.000000 0.000000 0.799872 0.985405
-15.076920 0.025290 -9.760559 -0.000001 1.000000 0.000003 0.799844 0.986338
-14.743088 0.025290 -9.665253 -0.000001 1.000000 0.000003 0.782541 0.982920
-15.069043 0.025290 -9.777156 -0.000001 1.000000 0.000003 0.799872 0.985405
-15.392548 0.025290 -9.897609 -0.000000 1.000000 0.000000 0.817291 0.987448
-15.174628 0.025290 -9.798629 -0.000000 1.000000 0.000000 0.805144 0.986879
-15.076920 0.025290 -9.760559 -0.000000 1.000000 0.000000 0.799844 0.986338
-16.718254 0.025290 -10.627106 -0.000000 1.000000 0.000001 0.894131 0.985150
-16.133331 0.025290 -10.304138 -0.000000 1.000000 0.000001 0.860202 0.986214
-15.392548 0.025290 -9.897609 -0.000000 1.000000 0.000001 0.817291 0.987448
-16.803059 0.025290 -10.698233 -0.000000 1.000000 -0.000000 0.899612 0.983897
-16.891453 0.025290 -10.722736 -0.000000 1.000000 -0.000000 0.904177 0.984835
-16.718254 0.025290 -10.627106 -0.000000 1.000000 -0.000000 0.894131 0.985150
-15.615997 0.025290 -10.045393 -0.000000 1.000000 0.000000 0.830817 0.985938
-15.392548 0.025290 -9.897609 -0.000001 1.000000 0.000003 0.817291 0.987448
-15.368715 0.025291 -9.910227 0.000107 1.000000 -0.000202 0.816505 0.986326
-15.615997 0.025290 -10.045393 0.000107 1.000000 -0.000202 0.830817 0.985938
-16.718254 0.025290 -10.627106 0.000107 1.000000 -0.000202 0.894131 0.985150
-15.392548 0.025290 -9.897609 -0.000018 1.000000 0.000047 0.817291 0.987448
-15.069043 0.025290 -9.777156 -0.000018 1.000000 0.000047 0.799872 0.985405
-15.368715 0.025291 -9.910227 -0.000018 1.000000 0.000047 0.816505 0.986326
-15.368715 0.025291 -9.910227 -0.000022 1.000000 0.000039 0.816505 0.986326
-16.718254 0.025290 -10.627106 -0.000022 1.000000 0.000039 0.894131 0.985150
-15.392548 0.025290 -9.897609 -0.000022 1.000000 0.000039 0.817291 0.987448
-15.450436 0.025290 -10.279379 0.000000 1.000000 -0.000001 0.828747 0.971524
-15.654707 0.025290 -10.350972 0.000000 1.000000 -0.000001 0.839642 0.973015
-15.296224 0.025290 -10.154577 0.000000 1.000000 -0.000001 0.818884 0.973597
-15.296224 0.025290 -10.154577 0.000020 1.000000 -0.000049 0.818884 0.973597
-15.154394 0.025291 -10.076117 0.000020 1.000000 -0.000049 0.810653 0.973862
-15.056318 0.025291 -10.035378 0.000020 1.000000 -0.000049 0.805275 0.973433
-15.056318 0.025291 -10.035378 0.000004 1.000000 -0.000011 0.805275 0.973433
-14.802271 0.025290 -10.026818 0.000004 1.000000 -0.000011 0.793588 0.967939
-14.884539 0.025290 -10.060833 0.000004 1.000000 -0.000011 0.798096 0.968305
-15.056318 0.025291 -10.035378 0.000001 1.000000 -0.000030 0.805275 0.973433
-14.884539 0.025290 -10.060833 0.000001 1.000000 -0.000030 0.798096 0.968305
-15.021454 0.025290 -10.067627 0.000001 1.000000 -0.000030 0.804445 0.971168
-15.450436 0.025290 -10.279379 -0.000010 1.000000 0.000011 0.828747 0.971524
-15.296224 0.025290 -10.154577 -0.000010 1.000000 0.000011 0.818884 0.973597
-15.056318 0.025291 -10.035378 -0.000010 1.000000 0.000011 0.805275 0.973433
-15.090378 0.025290 -10.083290 0.000019 1.000000 -0.000034 0.807925 0.972055
-15.450436 0.025290 -10.279379 0.000019 1.000000 -0.000034 0.828747 0.971524
-15.056318 0.025291 -10.035378 0.000019 1.000000 -0.000034 0.805275 0.973433
-15.056318 0.025291 -10.035378 0.000004 1.000000 -0.000027 0.805275 0.973433
-15.021454 0.025290 -10.067627 0.000004 1.000000 -0.000027 0.804445 0.971168
-15.043723 0.025290 -10.070930 0.000004 1.000000 -0.000027 0.805529 0.971534
-15.056318 0.025291 -10.035378 0.000007 1.000000 -0.000026 0.805275 0.973433
-15.043723 0.025290 -10.070930 0.000007 1.000000 -0.000026 0.805529 0.971534
-15.090378 0.025290 -10.083290 0.000007 1.000000 -0.000026 0.807925 0.972055
3 0 1 2
3 3 4 5
3 6 7 8
3 9 10 11
3 12 13 14
3 15 16 17
3 18 19 20
3 21 22 23
3 24 25 26
3 27 28 29
3 30 31 32
4 33 34 35 36
4 37 38 39 40
4 41 42 43 44
4 45 46 47 48
3 49 50 51
3 52 53 54
3 55 56 57
4 58 59 60 61
4 62 63 64 65
4 66 67 68 69
4 70 71 72 73
4 74 75 76 77
3 78 79 80
3 81 82 83
3 84 85 86
4 87 88 89 90
3 91 92 93
3 94 95 96
3 97 98 99
4 100 101 102 103
3 104 105 106
3 107 108 109
3 110 111 112
3 113 114 115
3 116 117 118
3 119 120 121
3 122 123 124
3 125 126 127
3 128 125 127
3 129 116 118
3 130 131 132
3 133 134 135
3 136 137 138
3 139 140 141
3 142 143 144
3 145 146 147
3 148 149 150
3 151 152 153
3 154 155 156
3 157 158 159
3 160 161 162
