ply
format ascii 1.0
comment Created by Blender 2.78 (sub 0) - www.blender.org, source file: 'soult.blend'
element vertex 33
property float x
property float y
property float z
property float nx
property float ny
property float nz
element face 26
property list uchar uint vertex_indices
end_header
-17.602934 -0.000001 -15.195622 -0.000000 1.000000 -0.000000
-18.082138 -0.000001 -13.984619 -0.000000 1.000000 -0.000000
-18.078766 -0.000001 -13.861473 -0.000000 1.000000 -0.000000
-12.909691 -0.000000 -10.297127 0.000000 1.000000 -0.000000
-12.832359 -0.000000 -10.261528 0.000000 1.000000 -0.000000
-12.750031 -0.000000 -10.239891 -0.000000 1.000000 -0.000000
-12.665192 -0.000000 -10.232887 -0.000000 1.000000 -0.000000
-12.580421 -0.000000 -10.240723 0.000000 1.000000 -0.000000
-12.496605 -0.000000 -10.263790 0.000000 1.000000 -0.000000
-12.427170 -0.000000 -10.298233 -0.000000 1.000000 -0.000000
-12.366318 -0.000000 -10.343292 -0.000000 1.000000 -0.000000
-10.596581 -0.000001 -12.570717 0.000000 1.000000 -0.000000
-12.224453 -0.000001 -13.126476 0.000000 1.000000 -0.000000
-12.633333 -0.000001 -12.271540 0.000000 1.000000 -0.000000
-12.162502 -0.000001 -12.054708 -0.000000 1.000000 -0.000000
-12.112943 -0.000001 -12.141443 -0.000000 1.000000 -0.000000
-17.400879 -0.000001 -15.104387 0.000000 1.000000 0.000000
-17.876410 -0.000001 -14.056222 0.000000 1.000000 -0.000000
-12.001427 -0.000001 -12.085686 0.000000 1.000000 -0.000000
-12.664314 -0.000000 -10.555476 0.000000 1.000000 -0.000000
-13.401539 -0.000000 -10.995333 0.000000 1.000000 -0.000000
-13.364079 -0.000000 -9.933280 -0.000000 1.000000 -0.000000
-13.267250 -0.000000 -9.852661 -0.000000 1.000000 -0.000000
-13.284184 -0.000000 -9.901720 -0.000000 1.000000 -0.000000
-13.330383 -0.000000 -9.933239 -0.000000 1.000000 -0.000000
-19.774031 -0.000000 -12.429113 0.000000 1.000000 0.000000
-19.736288 -0.000000 -12.444747 0.000000 1.000000 0.000000
-19.720655 -0.000000 -12.482489 0.000000 1.000000 0.000000
-19.736288 -0.000000 -12.520230 0.000000 1.000000 0.000000
-19.774031 -0.000000 -12.535863 0.000000 1.000000 0.000000
-19.811771 -0.000000 -12.520230 0.000000 1.000000 0.000000
-19.827406 -0.000000 -12.482489 0.000000 1.000000 0.000000
-19.811771 -0.000000 -12.444747 -0.000000 1.000000 0.000000
3 0 1 2
3 2 3 4
3 4 5 6
3 6 7 8
3 8 9 10
3 11 12 13
3 13 14 15
3 11 13 15
3 8 10 11
3 4 6 8
3 16 0 2
3 17 16 2
3 2 4 8
3 11 15 18
3 11 18 19
3 17 2 8
3 20 17 8
3 8 11 19
3 8 19 20
4 21 22 23 24
3 25 26 27
3 27 28 29
3 29 30 31
3 31 32 25
3 25 27 29
3 29 31 25
