ply
format ascii 1.0
comment Created by Blender 2.78 (sub 0) - www.blender.org, source file: 'soult.blend'
element vertex 314
property float x
property float y
property float z
property float nx
property float ny
property float nz
property float s
property float t
element face 108
property list uchar uint vertex_indices
end_header
-14.799612 0.025290 -10.025719 0.000000 1.000000 -0.000001 0.504560 0.870747
-14.598668 0.025290 -9.942636 0.000000 1.000000 -0.000001 0.500046 0.870276
-13.907982 0.025290 -9.675528 0.000000 1.000000 -0.000001 0.484717 0.868317
-13.907982 0.025290 -9.675528 -0.000000 1.000000 0.000000 0.484717 0.868317
-13.917823 0.025290 -9.964273 -0.000000 1.000000 0.000000 0.487766 0.863116
-13.933540 0.025290 -9.979990 -0.000000 1.000000 0.000000 0.488210 0.862983
-14.122145 0.025290 -9.990469 -0.000000 1.000000 0.000000 0.491776 0.864665
-14.295033 0.025290 -9.994659 -0.000000 1.000000 0.000000 0.494991 0.866305
-14.467921 0.025290 -10.000948 0.000037 1.000000 -0.000495 0.498226 0.867907
-14.737208 0.025289 -10.022952 0.000037 1.000000 -0.000495 0.503387 0.870178
-14.799612 0.025290 -10.025719 0.000037 1.000000 -0.000495 0.504560 0.870747
-13.933540 0.025290 -9.979990 0.000000 1.000000 -0.000004 0.488210 0.862983
-14.295033 0.025290 -9.994659 0.000000 1.000000 -0.000004 0.494991 0.866305
-14.467921 0.025290 -10.000948 0.000000 1.000000 -0.000004 0.498226 0.867907
-14.467921 0.025290 -10.000948 -0.000000 1.000000 0.000000 0.498226 0.867907
-14.799612 0.025290 -10.025719 -0.000000 1.000000 0.000000 0.504560 0.870747
-15.929528 0.025290 -10.447291 0.000002 1.000000 -0.000006 0.437206 0.868698
-15.653329 0.025290 -10.350489 0.000002 1.000000 -0.000006 0.431175 0.867731
-16.473309 0.025289 -10.805267 0.000002 1.000000 -0.000006 0.450743 0.867530
-15.929528 0.025290 -10.447291 0.000023 1.000000 -0.000038 0.437206 0.868698
-16.473309 0.025289 -10.805267 0.000023 1.000000 -0.000038 0.450743 0.867530
-17.265921 0.025291 -11.240685 0.000023 1.000000 -0.000038 0.469615 0.867412
-17.753475 0.025290 -11.235470 -0.000000 1.000000 0.000000 0.478511 0.872351
-16.792526 0.025290 -10.695313 -0.000000 1.000000 0.000000 0.455509 0.872719
-16.577452 0.025290 -10.635694 -0.000000 1.000000 0.000000 0.450969 0.871677
-16.577452 0.025290 -10.635694 -0.000001 1.000000 0.000002 0.450969 0.871677
-15.929528 0.025290 -10.447291 -0.000001 1.000000 0.000002 0.437206 0.868698
-17.265921 0.025291 -11.240685 -0.000001 1.000000 0.000002 0.469615 0.867412
-17.967274 0.025291 -11.626560 0.000123 1.000000 -0.000225 0.486320 0.867297
-18.692093 0.025290 -12.025471 0.000123 1.000000 -0.000225 0.503586 0.867176
-18.765099 0.025292 -12.056761 0.000123 1.000000 -0.000225 0.505237 0.867327
-16.577452 0.025290 -10.635694 -0.000002 1.000000 0.000004 0.450969 0.871677
-17.265921 0.025291 -11.240685 -0.000002 1.000000 0.000004 0.469615 0.867412
-17.967274 0.025291 -11.626560 -0.000002 1.000000 0.000004 0.486320 0.867297
-18.780743 0.025290 -11.801247 0.000000 1.000000 -0.000000 0.502986 0.872172
-18.877209 0.025292 -11.960291 -0.000033 1.000000 0.000032 0.506336 0.870212
-18.866779 0.025290 -11.889894 -0.000033 1.000000 0.000032 0.505445 0.871400
-18.780743 0.025290 -11.801247 -0.000033 1.000000 0.000032 0.502986 0.872172
-18.765099 0.025292 -12.056761 -0.000089 1.000000 -0.000104 0.505237 0.867327
-18.838099 0.025288 -12.030687 -0.000089 1.000000 -0.000104 0.506317 0.868531
-18.877209 0.025292 -11.960291 -0.000089 1.000000 -0.000104 0.506336 0.870212
-16.577452 0.025290 -10.635694 0.000003 1.000000 -0.000003 0.450969 0.871677
-17.967274 0.025291 -11.626560 0.000003 1.000000 -0.000003 0.486320 0.867297
-18.765099 0.025292 -12.056761 0.000003 1.000000 -0.000003 0.505237 0.867327
-18.877209 0.025292 -11.960291 -0.000009 1.000000 0.000018 0.506336 0.870212
-18.780743 0.025290 -11.801247 -0.000009 1.000000 0.000018 0.502986 0.872172
-16.577452 0.025290 -10.635694 -0.000009 1.000000 0.000018 0.450969 0.871677
-16.577452 0.025290 -10.635694 0.000000 1.000000 0.000001 0.450969 0.871677
-18.765099 0.025292 -12.056761 0.000000 1.000000 0.000001 0.505237 0.867327
-18.877209 0.025292 -11.960291 0.000000 1.000000 0.000001 0.506336 0.870212
-13.541684 0.025290 -9.900261 0.000000 1.000000 -0.000000 0.484702 0.861429
-13.537340 0.025290 -9.732031 0.000000 1.000000 -0.000000 0.481532 0.867678
-13.330328 0.025290 -9.803275 0.000000 1.000000 -0.000000 0.474782 0.860775
-13.314495 0.025290 -9.817104 -0.000000 1.000000 -0.000000 0.474468 0.859932
-13.306087 0.025290 -9.841750 -0.000000 1.000000 -0.000000 0.474653 0.858835
-13.376122 0.025290 -9.900060 0.000000 1.000000 -0.000000 0.478473 0.858067
-15.841599 -0.000000 -10.492409 0.481542 0.000000 -0.876423 0.845761 0.966658
-16.878906 -0.000000 -11.062347 0.481542 0.000000 -0.876423 0.870461 0.966502
-16.878906 0.025290 -11.062347 0.481542 0.000000 -0.876423 0.870461 0.966502
-15.841599 0.025290 -10.492409 0.481542 0.000000 -0.876423 0.845761 0.966658
-15.929528 0.025290 -10.447291 -0.330754 0.000000 0.943717 0.846927 0.968360
-15.929528 -0.000000 -10.447291 -0.330754 0.000000 0.943717 0.846927 0.968360
-15.450436 -0.000000 -10.279379 -0.330754 0.000000 0.943717 0.836466 0.966682
-15.450436 -0.000000 -10.279379 -0.330753 0.000000 0.943717 0.836466 0.966682
-15.450436 0.025290 -10.279379 -0.330753 0.000000 0.943717 0.836466 0.966682
-15.653329 0.025290 -10.350489 -0.330753 0.000000 0.943717 0.840896 0.967393
-15.450436 -0.000000 -10.279379 -0.330755 -0.000020 0.943717 0.836466 0.966682
-15.653329 0.025290 -10.350489 -0.330755 -0.000020 0.943717 0.840896 0.967393
-15.929528 0.025290 -10.447291 -0.330755 -0.000020 0.943717 0.846927 0.968360
-13.924513 -0.000000 -10.014671 0.047542 0.000000 -0.998869 0.786144 0.974223
-14.653702 -0.000000 -10.049377 0.047542 0.000000 -0.998869 0.799872 0.980829
-14.653702 0.025290 -10.049377 0.047542 0.000000 -0.998869 0.799872 0.980829
-13.924513 0.025290 -10.014671 0.047542 0.000000 -0.998869 0.786144 0.974223
-16.577452 -0.000000 -10.635694 -0.279214 0.000000 0.960229 0.860690 0.971338
-15.929528 -0.000000 -10.447291 -0.279214 0.000000 0.960229 0.846927 0.968360
-15.929528 0.025290 -10.447291 -0.279214 0.000000 0.960229 0.846927 0.968360
-16.577452 0.025290 -10.635694 -0.279214 0.000000 0.960229 0.860690 0.971338
-16.891453 0.025290 -10.722736 -0.267132 0.000000 0.963660 0.867317 0.972860
-16.891453 -0.000000 -10.722736 -0.267132 0.000000 0.963660 0.867317 0.972860
-16.577452 -0.000000 -10.635694 -0.267132 0.000000 0.963660 0.860690 0.971338
-16.577452 0.025290 -10.635694 -0.267132 0.000000 0.963660 0.860690 0.971338
-16.792526 0.025290 -10.695313 -0.267132 0.000000 0.963660 0.865229 0.972381
-16.577452 -0.000000 -10.635694 -0.267131 0.000009 0.963660 0.860690 0.971338
-16.792526 0.025290 -10.695313 -0.267131 0.000009 0.963660 0.865229 0.972381
-16.891453 0.025290 -10.722736 -0.267131 0.000009 0.963660 0.867317 0.972860
-16.878906 -0.000000 -11.062347 0.483494 0.000000 -0.875348 0.870461 0.966502
-17.839127 -0.000001 -11.592720 0.483494 0.000000 -0.875348 0.893353 0.966307
-17.839127 0.025290 -11.592720 0.483494 0.000000 -0.875348 0.893353 0.966307
-16.878906 0.025290 -11.062347 0.483494 0.000000 -0.875348 0.870461 0.966502
-18.426544 -0.000001 -11.571281 -0.483925 0.000000 0.875110 0.903921 0.972536
-17.303177 -0.000000 -10.950073 -0.483925 0.000000 0.875110 0.877132 0.972778
-17.303177 0.025290 -10.950073 -0.483925 0.000000 0.875110 0.877132 0.972778
-18.426544 0.025290 -11.571281 -0.483925 0.000000 0.875110 0.903921 0.972536
-14.884539 -0.000000 -10.060833 -0.382094 0.000000 0.924124 0.804222 0.982912
-14.799612 -0.000000 -10.025719 -0.382094 0.000000 0.924124 0.802315 0.982713
-14.799612 0.025290 -10.025719 -0.382094 0.000000 0.924124 0.802315 0.982713
-14.884539 0.025290 -10.060833 -0.382094 0.000000 0.924124 0.804222 0.982912
-18.701393 -0.000001 -12.068790 0.262587 0.000000 -0.964908 0.913907 0.966135
-18.751884 -0.000001 -12.082531 0.262587 0.000000 -0.964908 0.914971 0.966385
-18.751884 0.025290 -12.082531 0.262587 0.000000 -0.964908 0.914971 0.966385
-18.701393 0.025290 -12.068790 0.262587 0.000000 -0.964908 0.913907 0.966135
-13.549042 -0.000000 -9.700706 0.295992 0.000000 0.955190 0.776134 0.976255
-13.313766 -0.000000 -9.773613 0.295992 0.000000 0.955190 0.772540 0.972580
-13.313766 0.025290 -9.773613 0.295992 0.000000 0.955190 0.772540 0.972580
-13.549042 0.025290 -9.700706 0.295992 0.000000 0.955190 0.776134 0.976255
-13.860168 -0.000000 -9.657037 0.998292 0.000000 -0.058420 0.781410 0.980147
-13.872158 -0.000000 -9.861916 0.998292 0.000000 -0.058420 0.783666 0.976506
-13.872158 0.025290 -9.861916 0.998292 0.000000 -0.058420 0.783666 0.976506
-13.860168 0.025290 -9.657037 0.998292 0.000000 -0.058420 0.781410 0.980147
-13.577530 -0.000000 -9.933540 -0.997156 0.000000 0.075370 0.778970 0.972265
-13.560364 -0.000000 -9.706429 -0.997156 0.000000 0.075370 0.776398 0.976262
-13.560364 0.025290 -9.706429 -0.997156 0.000000 0.075370 0.776398 0.976262
-13.577530 0.025290 -9.933540 -0.997156 0.000000 0.075370 0.778970 0.972265
-13.313766 -0.000000 -9.773613 0.657836 0.000000 0.753161 0.772540 0.972580
-13.285917 -0.000000 -9.797937 0.657836 0.000000 0.753161 0.772271 0.971857
-13.285917 0.025290 -9.797937 0.657836 0.000000 0.753161 0.772271 0.971857
-13.313766 0.025290 -9.773613 0.657836 0.000000 0.753161 0.772540 0.972580
-14.598668 -0.000000 -9.942636 -0.360696 0.000000 0.932683 0.797801 0.982242
-13.907982 -0.000000 -9.675528 -0.360696 0.000000 0.932683 0.782471 0.980283
-13.907982 0.025290 -9.675528 -0.360696 0.000000 0.932683 0.782471 0.980283
-14.598668 0.025290 -9.942636 -0.360696 0.000000 0.932683 0.797801 0.982242
-13.879494 -0.000000 -9.980040 0.901892 0.000000 -0.431961 0.784974 0.974411
-13.889236 -0.000000 -10.000381 0.901892 0.000000 -0.431961 0.785354 0.974135
-13.889236 0.025290 -10.000381 0.901892 0.000000 -0.431961 0.785354 0.974135
-13.879494 0.025290 -9.980040 0.901892 0.000000 -0.431961 0.784974 0.974411
-13.560364 -0.000000 -9.706429 -0.451058 0.000000 0.892494 0.776398 0.976262
-13.549042 -0.000000 -9.700706 -0.451058 0.000000 0.892494 0.776134 0.976255
-13.549042 0.025290 -9.700706 -0.451058 0.000000 0.892494 0.776134 0.976255
-13.560364 0.025290 -9.706429 -0.451058 0.000000 0.892494 0.776398 0.976262
-13.364079 -0.000000 -9.933280 0.001220 0.000000 -0.999999 0.775050 0.970149
-13.577530 -0.000000 -9.933540 0.001220 0.000000 -0.999999 0.778970 0.972265
-13.577530 0.025290 -9.933540 0.001220 0.000000 -0.999999 0.778970 0.972265
-13.364079 0.025290 -9.933280 0.001220 0.000000 -0.999999 0.775050 0.970149
-13.889236 -0.000000 -10.000381 0.375448 0.000000 -0.926843 0.785354 0.974135
-13.924513 -0.000000 -10.014671 0.375448 0.000000 -0.926843 0.786144 0.974223
-13.924513 0.025290 -10.014671 0.375448 0.000000 -0.926843 0.786144 0.974223
-13.889236 0.025290 -10.000381 0.375448 0.000000 -0.926843 0.785354 0.974135
-18.832993 -0.000001 -11.797020 -0.485534 0.000000 0.874218 0.913623 0.972431
-18.426544 -0.000001 -11.571281 -0.485534 0.000000 0.874218 0.903921 0.972536
-18.426544 0.025290 -11.571281 -0.485534 0.000000 0.874218 0.903921 0.972536
-18.832993 0.025290 -11.797020 -0.485534 0.000000 0.874218 0.913623 0.972431
-13.267250 -0.000000 -9.852661 0.639846 0.000000 -0.768504 0.772472 0.970667
-13.364079 -0.000000 -9.933280 0.639846 0.000000 -0.768504 0.775050 0.970149
-13.364079 0.025290 -9.933280 0.639846 0.000000 -0.768504 0.775050 0.970149
-13.267250 0.025290 -9.852661 0.639846 0.000000 -0.768504 0.772472 0.970667
-13.285917 -0.000000 -9.797937 0.946450 0.000000 0.322851 0.772271 0.971857
-13.267250 -0.000000 -9.852661 0.946450 0.000000 0.322851 0.772472 0.970667
-13.267250 0.025290 -9.852661 0.946450 0.000000 0.322851 0.772472 0.970667
-13.285917 0.025290 -9.797937 0.946450 0.000000 0.322851 0.772271 0.971857
-18.851562 -0.000001 -12.056240 -0.704331 0.000000 -0.709871 0.916539 0.967858
-18.888710 -0.000001 -12.019382 -0.704331 0.000000 -0.709871 0.916855 0.968903
-18.888710 0.025290 -12.019382 -0.704331 0.000000 -0.709871 0.916855 0.968903
-18.851562 0.025290 -12.056240 -0.704331 0.000000 -0.709871 0.916539 0.967858
-18.869644 -0.000001 -11.826620 -0.628298 0.000000 0.777973 0.914590 0.972252
-18.832993 -0.000001 -11.797020 -0.628298 0.000000 0.777973 0.913623 0.972431
-18.832993 0.025290 -11.797020 -0.628298 0.000000 0.777973 0.913623 0.972431
-18.869644 0.025290 -11.826620 -0.628298 0.000000 0.777973 0.914590 0.972252
-18.804047 -0.000001 -12.078175 -0.419123 0.000000 -0.907929 0.915885 0.966983
-18.851562 -0.000001 -12.056240 -0.419123 0.000000 -0.907929 0.916539 0.967858
-18.851562 0.025290 -12.056240 -0.419123 0.000000 -0.907929 0.916539 0.967858
-18.804047 0.025290 -12.078175 -0.419123 0.000000 -0.907929 0.915885 0.966983
-18.909290 -0.000001 -11.969631 -0.999803 0.000000 -0.019851 0.916738 0.970021
-18.910828 -0.000001 -11.892204 -0.999803 0.000000 -0.019851 0.915997 0.971457
-18.910828 0.025290 -11.892204 -0.999803 0.000000 -0.019851 0.915997 0.971457
-18.909290 0.025290 -11.969631 -0.999803 0.000000 -0.019851 0.916738 0.970021
-18.751884 -0.000001 -12.082531 -0.083226 0.000000 -0.996531 0.914971 0.966385
-18.804047 -0.000001 -12.078175 -0.083226 0.000000 -0.996531 0.915885 0.966983
-18.804047 0.025290 -12.078175 -0.083226 0.000000 -0.996531 0.915885 0.966983
-18.751884 0.025290 -12.082531 -0.083226 0.000000 -0.996531 0.914971 0.966385
-13.872158 -0.000000 -9.861916 0.998077 0.000000 -0.061982 0.783666 0.976506
-13.879494 -0.000000 -9.980040 0.998077 0.000000 -0.061982 0.784974 0.974411
-13.879494 0.025290 -9.980040 0.998077 0.000000 -0.061982 0.784974 0.974411
-13.872158 0.025290 -9.861916 0.998077 0.000000 -0.061982 0.783666 0.976506
-18.888710 -0.000001 -12.019382 -0.924059 0.000000 -0.382250 0.916855 0.968903
-18.909290 -0.000001 -11.969631 -0.924059 0.000000 -0.382250 0.916738 0.970021
-18.909290 0.025290 -11.969631 -0.924059 0.000000 -0.382250 0.916738 0.970021
-18.888710 0.025290 -12.019382 -0.924059 0.000000 -0.382250 0.916855 0.968903
-15.450436 -0.000000 -10.279379 0.478278 0.000000 -0.878208 0.836466 0.966682
-15.841599 -0.000000 -10.492409 0.478278 0.000000 -0.878208 0.845761 0.966658
-15.841599 0.025290 -10.492409 0.478278 0.000000 -0.878208 0.845761 0.966658
-15.450436 0.025290 -10.279379 0.478278 0.000000 -0.878208 0.836466 0.966682
-18.910828 -0.000001 -11.892204 -0.846874 0.000000 0.531793 0.915997 0.971457
-18.869644 -0.000001 -11.826620 -0.846874 0.000000 0.531793 0.914590 0.972252
-18.869644 0.025290 -11.826620 -0.846874 0.000000 0.531793 0.914590 0.972252
-18.910828 0.025290 -11.892204 -0.846874 0.000000 0.531793 0.915997 0.971457
-14.653702 -0.000000 -10.049377 0.049565 0.000000 -0.998771 0.799872 0.980829
-14.884539 -0.000000 -10.060833 0.049565 0.000000 -0.998771 0.804222 0.982912
-14.884539 0.025290 -10.060833 0.049565 0.000000 -0.998771 0.804222 0.982912
-14.653702 0.025290 -10.049377 0.049565 0.000000 -0.998771 0.799872 0.980829
-17.839127 -0.000001 -11.592720 0.483340 0.000000 -0.875433 0.893353 0.966307
-18.701393 -0.000001 -12.068790 0.483340 0.000000 -0.875433 0.913907 0.966135
-18.701393 0.025290 -12.068790 0.483340 0.000000 -0.875433 0.913907 0.966135
-17.839127 0.025290 -11.592720 0.483340 0.000000 -0.875433 0.893353 0.966307
-17.303177 -0.000000 -10.950073 -0.483369 0.000000 0.875417 0.877132 0.972778
-16.891453 -0.000000 -10.722736 -0.483369 0.000000 0.875417 0.867317 0.972860
-16.891453 0.025290 -10.722736 -0.483369 0.000000 0.875417 0.867317 0.972860
-17.303177 0.025290 -10.950073 -0.483369 0.000000 0.875417 0.877132 0.972778
-13.330328 0.025290 -9.803275 0.000000 1.000000 -0.000000 0.773139 0.972200
-13.537340 0.025290 -9.732031 0.000000 1.000000 -0.000000 0.776434 0.975569
-13.549042 0.025290 -9.700706 0.000000 1.000000 -0.000000 0.776134 0.976255
-13.313766 0.025290 -9.773613 0.000000 1.000000 -0.000000 0.772540 0.972580
-13.314495 0.025290 -9.817104 0.000000 1.000000 -0.000000 0.772985 0.971789
-13.285917 0.025290 -9.797937 0.000000 1.000000 -0.000000 0.772271 0.971857
-13.537340 0.025290 -9.732031 0.000000 1.000000 0.000000 0.776027 0.975558
-13.560364 0.025290 -9.706429 0.000000 1.000000 0.000000 0.776398 0.976262
-13.541684 0.025290 -9.900261 -0.000000 1.000000 -0.000000 0.777981 0.972519
-13.577530 0.025290 -9.933540 -0.000000 1.000000 -0.000000 0.778970 0.972265
-13.306087 0.025290 -9.841750 0.000000 1.000000 -0.000000 0.773076 0.971253
-13.267250 0.025290 -9.852661 0.000000 1.000000 -0.000000 0.772472 0.970667
-13.376122 0.025290 -9.900060 0.000000 1.000000 -0.000000 0.774941 0.970878
-13.364079 0.025290 -9.933280 0.000000 1.000000 -0.000000 0.775050 0.970149
-13.907982 0.025290 -9.675528 -0.360695 0.000000 0.932684 0.782471 0.980283
-13.907982 -0.000000 -9.675528 -0.360695 0.000000 0.932684 0.782471 0.980283
-13.860168 -0.000000 -9.657037 -0.360695 0.000000 0.932684 0.781410 0.980147
-13.860168 0.025290 -9.657037 -0.360695 0.000000 0.932684 0.781410 0.980147
-14.799612 0.025290 -10.025719 -0.382089 0.000000 0.924126 0.802315 0.982713
-14.799612 -0.000000 -10.025719 -0.382089 0.000000 0.924126 0.802315 0.982713
-14.598668 -0.000000 -9.942636 -0.382089 0.000000 0.924126 0.797801 0.982242
-14.598668 0.025290 -9.942636 -0.382089 0.000000 0.924126 0.797801 0.982242
-14.884539 0.025290 -10.060833 0.000017 1.000000 -0.000041 0.804222 0.982912
-14.799612 0.025290 -10.025719 0.000017 1.000000 -0.000041 0.802315 0.982713
-14.737208 0.025289 -10.022952 0.000017 1.000000 -0.000041 0.801142 0.982144
-14.737208 0.025289 -10.022952 0.000003 1.000000 -0.000078 0.801142 0.982144
-14.467921 0.025290 -10.000948 0.000003 1.000000 -0.000078 0.795981 0.979873
-14.295033 0.025290 -9.994659 0.000003 1.000000 -0.000078 0.792745 0.978271
-14.737208 0.025289 -10.022952 0.000001 1.000000 -0.000054 0.801142 0.982144
-14.295033 0.025290 -9.994659 0.000001 1.000000 -0.000054 0.792745 0.978271
-14.122145 0.025290 -9.990469 0.000001 1.000000 -0.000054 0.789531 0.976630
-14.653702 0.025290 -10.049377 -0.000002 1.000000 0.000030 0.799872 0.980829
-14.884539 0.025290 -10.060833 -0.000002 1.000000 0.000030 0.804222 0.982912
-14.737208 0.025289 -10.022952 -0.000002 1.000000 0.000030 0.801142 0.982144
-13.889236 0.025290 -10.000381 -0.000000 1.000000 0.000000 0.785354 0.974135
-13.924513 0.025290 -10.014671 -0.000000 1.000000 0.000000 0.786144 0.974223
-14.653702 0.025290 -10.049377 -0.000000 1.000000 0.000000 0.799872 0.980829
-13.872158 0.025290 -9.861916 -0.000000 1.000000 -0.000000 0.783666 0.976506
-13.879494 0.025290 -9.980040 -0.000000 1.000000 -0.000000 0.784974 0.974411
-13.907982 0.025290 -9.675528 0.000000 1.000000 -0.000000 0.782471 0.980283
-13.860168 0.025290 -9.657037 0.000000 1.000000 -0.000000 0.781410 0.980147
-13.917823 0.025290 -9.964273 0.000000 1.000000 0.000000 0.785520 0.975081
-13.889236 0.025290 -10.000381 -0.000002 1.000000 0.000029 0.785354 0.974135
-14.653702 0.025290 -10.049377 -0.000002 1.000000 0.000029 0.799872 0.980829
-14.737208 0.025289 -10.022952 -0.000002 1.000000 0.000029 0.801142 0.982144
-13.889236 0.025290 -10.000381 -0.000001 1.000000 -0.000017 0.785354 0.974135
-14.737208 0.025289 -10.022952 -0.000001 1.000000 -0.000017 0.801142 0.982144
-14.122145 0.025290 -9.990469 -0.000001 1.000000 -0.000017 0.789531 0.976630
-13.917823 0.025290 -9.964273 0.000001 1.000000 -0.000000 0.785520 0.975081
-13.872158 0.025290 -9.861916 0.000001 1.000000 -0.000000 0.783666 0.976506
-13.889236 0.025290 -10.000381 0.000001 1.000000 -0.000000 0.785354 0.974135
-13.889236 0.025290 -10.000381 0.000000 1.000000 -0.000001 0.785354 0.974135
-14.122145 0.025290 -9.990469 0.000000 1.000000 -0.000001 0.789531 0.976630
-13.933540 0.025290 -9.979990 0.000000 1.000000 -0.000001 0.785965 0.974949
-13.933540 0.025290 -9.979990 0.000000 1.000000 -0.000000 0.785965 0.974949
-16.891453 0.025290 -10.722736 -0.000000 1.000000 0.000000 0.867317 0.972860
-16.792526 0.025290 -10.695313 -0.000000 1.000000 0.000000 0.865229 0.972381
-17.753475 0.025290 -11.235470 -0.000000 1.000000 0.000000 0.888232 0.972013
-18.780743 0.025290 -11.801247 -0.000000 1.000000 0.000000 0.912706 0.971834
-18.426544 0.025290 -11.571281 0.000001 1.000000 -0.000003 0.903921 0.972536
-17.303177 0.025290 -10.950073 0.000001 1.000000 -0.000003 0.877132 0.972778
-16.891453 0.025290 -10.722736 0.000001 1.000000 -0.000003 0.867317 0.972860
-18.869644 0.025290 -11.826620 0.000000 1.000000 -0.000000 0.914590 0.972252
-18.832993 0.025290 -11.797020 0.000000 1.000000 -0.000000 0.913623 0.972431
-18.426544 0.025290 -11.571281 0.000000 1.000000 -0.000000 0.903921 0.972536
-18.909290 0.025290 -11.969631 0.000000 1.000000 -0.000000 0.916738 0.970021
-18.910828 0.025290 -11.892204 0.000000 1.000000 -0.000000 0.915997 0.971457
-18.851562 0.025290 -12.056240 0.000000 1.000000 -0.000000 0.916539 0.967858
-18.888710 0.025290 -12.019382 0.000000 1.000000 -0.000000 0.916855 0.968903
-18.751884 0.025290 -12.082531 0.000000 1.000000 0.000000 0.914971 0.966385
-18.804047 0.025290 -12.078175 0.000000 1.000000 0.000000 0.915885 0.966983
-17.839127 0.025290 -11.592720 -0.000000 1.000000 0.000000 0.893353 0.966307
-18.701393 0.025290 -12.068790 -0.000000 1.000000 0.000000 0.913907 0.966135
-16.878906 0.025290 -11.062347 -0.000000 1.000000 0.000000 0.870461 0.966502
-18.869644 0.025290 -11.826620 -0.000000 1.000000 0.000001 0.914590 0.972252
-16.891453 0.025290 -10.722736 -0.000000 1.000000 0.000001 0.867317 0.972860
-18.780743 0.025290 -11.801247 -0.000000 1.000000 0.000001 0.912706 0.971834
-15.841599 0.025290 -10.492409 0.000000 1.000000 -0.000000 0.845761 0.966658
-15.653329 0.025290 -10.350489 0.000000 1.000000 -0.000000 0.840896 0.967393
-15.450436 0.025290 -10.279379 0.000000 1.000000 -0.000000 0.836466 0.966682
-17.967274 0.025291 -11.626560 0.001563 0.999995 -0.002841 0.896041 0.966959
-17.265921 0.025291 -11.240685 0.001563 0.999995 -0.002841 0.879335 0.967074
-16.473309 0.025289 -10.805267 0.001563 0.999995 -0.002841 0.860463 0.967192
-16.473309 0.025289 -10.805267 -0.000004 1.000000 0.000006 0.860463 0.967192
-15.653329 0.025290 -10.350489 -0.000004 1.000000 0.000006 0.840896 0.967393
-15.841599 0.025290 -10.492409 -0.000004 1.000000 0.000006 0.845761 0.966658
-18.866779 0.025290 -11.889894 -0.000000 1.000000 0.000000 0.915166 0.971062
-18.869644 0.025290 -11.826620 0.000138 1.000000 0.000007 0.914590 0.972252
-18.866779 0.025290 -11.889894 0.000138 1.000000 0.000007 0.915166 0.971062
-18.877209 0.025292 -11.960291 0.000138 1.000000 0.000007 0.916056 0.969873
-16.473309 0.025289 -10.805267 -0.000016 1.000000 0.000029 0.860463 0.967192
-15.841599 0.025290 -10.492409 -0.000016 1.000000 0.000029 0.845761 0.966658
-18.751884 0.025290 -12.082531 -0.000016 1.000000 0.000029 0.914971 0.966385
-18.692093 0.025290 -12.025471 0.002302 0.999989 -0.004185 0.913306 0.966838
-17.967274 0.025291 -11.626560 0.002302 0.999989 -0.004185 0.896041 0.966959
-16.473309 0.025289 -10.805267 0.002302 0.999989 -0.004185 0.860463 0.967192
-18.692093 0.025290 -12.025471 0.000002 1.000000 -0.000002 0.913306 0.966838
-16.473309 0.025289 -10.805267 0.000002 1.000000 -0.000002 0.860463 0.967192
-18.751884 0.025290 -12.082531 0.000002 1.000000 -0.000002 0.914971 0.966385
-18.909290 0.025290 -11.969631 -0.000065 1.000000 0.000018 0.916738 0.970021
-18.869644 0.025290 -11.826620 -0.000065 1.000000 0.000018 0.914590 0.972252
-18.877209 0.025292 -11.960291 -0.000065 1.000000 0.000018 0.916056 0.969873
-18.909290 0.025290 -11.969631 -0.000038 1.000000 -0.000075 0.916738 0.970021
-18.877209 0.025292 -11.960291 -0.000038 1.000000 -0.000075 0.916056 0.969873
-18.838099 0.025288 -12.030687 -0.000038 1.000000 -0.000075 0.916038 0.968193
-18.765099 0.025292 -12.056761 0.000048 1.000000 -0.000050 0.914957 0.966989
-18.692093 0.025290 -12.025471 0.000048 1.000000 -0.000050 0.913306 0.966838
-18.751884 0.025290 -12.082531 0.000048 1.000000 -0.000050 0.914971 0.966385
-18.851562 0.025290 -12.056240 0.000062 1.000000 0.000041 0.916539 0.967858
-18.909290 0.025290 -11.969631 0.000062 1.000000 0.000041 0.916738 0.970021
-18.838099 0.025288 -12.030687 0.000062 1.000000 0.000041 0.916038 0.968193
-18.838099 0.025288 -12.030687 -0.000097 1.000000 -0.000125 0.916038 0.968193
-18.765099 0.025292 -12.056761 -0.000097 1.000000 -0.000125 0.914957 0.966989
-18.751884 0.025290 -12.082531 -0.000097 1.000000 -0.000125 0.914971 0.966385
-18.838099 0.025288 -12.030687 0.000017 1.000000 0.000065 0.916038 0.968193
-18.751884 0.025290 -12.082531 0.000017 1.000000 0.000065 0.914971 0.966385
-18.851562 0.025290 -12.056240 0.000017 1.000000 0.000065 0.916539 0.967858
3 0 1 2
3 3 4 5
3 5 6 7
3 8 9 10
3 11 12 13
3 14 15 3
3 3 5 14
3 16 17 18
3 19 20 21
3 22 23 24
3 25 26 27
3 28 29 30
3 31 32 33
3 34 22 24
3 35 36 37
3 38 39 40
3 41 42 43
3 44 45 46
3 47 48 49
3 50 51 52
3 52 53 54
3 54 55 50
3 52 54 50
4 56 57 58 59
3 60 61 62
3 63 64 65
3 66 67 68
4 69 70 71 72
4 73 74 75 76
3 77 78 79
3 79 80 81
3 82 83 84
4 85 86 87 88
4 89 90 91 92
4 93 94 95 96
4 97 98 99 100
4 101 102 103 104
4 105 106 107 108
4 109 110 111 112
4 113 114 115 116
4 117 118 119 120
4 121 122 123 124
4 125 126 127 128
4 129 130 131 132
4 133 134 135 136
4 137 138 139 140
4 141 142 143 144
4 145 146 147 148
4 149 150 151 152
4 153 154 155 156
4 157 158 159 160
4 161 162 163 164
4 165 166 167 168
4 169 170 171 172
4 173 174 175 176
4 177 178 179 180
4 181 182 183 184
4 185 186 187 188
4 189 190 191 192
4 193 194 195 196
4 197 198 199 200
4 201 197 200 202
3 203 204 199
4 203 205 206 204
4 207 201 202 208
4 205 209 210 206
4 209 207 208 210
4 211 212 213 214
4 215 216 217 218
3 219 220 221
3 222 223 224
3 225 226 227
3 228 229 230
3 231 232 233
3 234 235 231
3 236 237 234
3 238 236 234
3 239 240 241
3 242 243 244
3 245 246 247
3 248 249 250
3 251 238 231
3 252 253 254
3 252 254 255
3 256 257 258
3 259 260 261
3 262 263 259
3 264 265 262
3 266 267 264
3 268 269 266
3 270 268 266
3 259 261 252
3 271 272 273
3 274 270 266
3 275 276 274
3 277 278 279
3 280 281 282
3 259 255 283
3 284 285 286
3 287 288 289
3 290 291 292
3 293 294 295
3 296 297 298
3 299 300 301
3 302 303 304
3 305 306 307
3 308 309 310
3 311 312 313
