ply
format ascii 1.0
comment Created by Blender 2.78 (sub 0) - www.blender.org, source file: 'soult.blend'
element vertex 15
property float x
property float y
property float z
property float nx
property float ny
property float nz
element face 13
property list uchar uint vertex_indices
end_header
-15.450436 -0.000000 -10.279379 -0.000000 1.000000 0.000000
-15.929528 -0.000000 -10.447291 -0.000000 1.000000 0.000000
-16.577452 -0.000000 -10.635694 -0.000000 1.000000 0.000000
-16.891453 -0.000000 -10.722736 -0.000000 1.000000 0.000000
-16.718254 -0.000000 -10.627106 -0.000000 1.000000 0.000000
-16.133331 -0.000000 -10.304138 0.000000 1.000000 -0.000000
-15.392548 -0.000000 -9.897609 0.000000 1.000000 -0.000000
-15.174628 -0.000000 -9.798629 -0.000000 1.000000 -0.000000
-15.076920 -0.000000 -9.760559 -0.000000 1.000000 -0.000000
-14.743088 -0.000000 -9.665253 -0.000000 1.000000 -0.000000
-14.598668 -0.000000 -9.942636 -0.000000 1.000000 -0.000000
-14.884539 -0.000000 -10.060833 0.000000 1.000000 -0.000000
-15.021454 -0.000000 -10.067627 0.000000 1.000000 -0.000000
-15.043723 -0.000000 -10.070930 0.000000 1.000000 -0.000000
-15.090378 -0.000000 -10.083290 0.000000 1.000000 -0.000000
3 0 1 2
3 2 3 4
3 4 5 6
3 6 7 8
3 8 9 10
3 10 11 12
3 10 12 13
3 6 8 10
3 2 4 6
3 14 0 2
3 10 13 14
3 14 2 6
3 6 10 14
