ply
format ascii 1.0
comment Created by Blender 2.78 (sub 0) - www.blender.org, source file: 'soult.blend'
element vertex 35
property float x
property float y
property float z
property float nx
property float ny
property float nz
element face 27
property list uchar uint vertex_indices
end_header
-14.884539 -0.000000 -10.060833 0.000000 1.000000 -0.000001
-14.598668 -0.000000 -9.942636 0.000000 1.000000 -0.000001
-13.860168 -0.000000 -9.657037 0.000000 1.000000 -0.000001
-13.860168 -0.000000 -9.657037 0.000000 1.000000 -0.000000
-13.872158 -0.000000 -9.861916 0.000000 1.000000 -0.000000
-13.879494 -0.000000 -9.980040 0.000000 1.000000 -0.000000
-13.889236 -0.000000 -10.000381 0.000000 1.000000 -0.000000
-13.924513 -0.000000 -10.014671 0.000000 1.000000 -0.000000
-14.653702 -0.000000 -10.049377 0.000000 1.000000 -0.000000
-14.884539 -0.000000 -10.060833 0.000000 1.000000 -0.000000
-15.929528 -0.000000 -10.447291 0.000000 1.000000 -0.000000
-15.450436 -0.000000 -10.279379 0.000000 1.000000 -0.000000
-15.841599 -0.000000 -10.492409 0.000000 1.000000 -0.000000
-16.878906 -0.000000 -11.062347 0.000000 1.000000 -0.000000
-17.839127 -0.000001 -11.592720 0.000000 1.000000 -0.000000
-18.701393 -0.000001 -12.068790 0.000000 1.000000 -0.000000
-17.303177 -0.000000 -10.950073 -0.000000 1.000000 0.000000
-16.891453 -0.000000 -10.722736 -0.000000 1.000000 0.000000
-16.577452 -0.000000 -10.635694 -0.000000 1.000000 0.000000
-18.751884 -0.000001 -12.082531 0.000000 1.000000 -0.000000
-18.804047 -0.000001 -12.078175 0.000000 1.000000 -0.000000
-18.851562 -0.000001 -12.056240 0.000000 1.000000 -0.000000
-18.888710 -0.000001 -12.019382 0.000000 1.000000 -0.000000
-18.909290 -0.000001 -11.969631 0.000000 1.000000 -0.000000
-18.910828 -0.000001 -11.892204 0.000000 1.000000 -0.000000
-18.869644 -0.000001 -11.826620 0.000000 1.000000 -0.000000
-18.832993 -0.000001 -11.797020 0.000000 1.000000 -0.000000
-18.426544 -0.000001 -11.571281 0.000000 1.000000 -0.000000
-13.560364 -0.000000 -9.706429 0.000000 1.000000 -0.000000
-13.549042 -0.000000 -9.700706 0.000000 1.000000 -0.000000
-13.313766 -0.000000 -9.773613 0.000000 1.000000 -0.000000
-13.285917 -0.000000 -9.797937 -0.000000 1.000000 -0.000000
-13.267250 -0.000000 -9.852661 -0.000000 1.000000 -0.000000
-13.364079 -0.000000 -9.933280 0.000000 1.000000 -0.000000
-13.577530 -0.000000 -9.933540 0.000000 1.000000 -0.000000
3 0 1 2
3 3 4 5
3 5 6 7
3 8 9 3
3 5 7 8
3 3 5 8
3 10 11 12
3 13 14 15
3 10 12 13
3 16 17 18
3 18 10 13
3 13 15 19
3 19 20 21
3 21 22 23
3 23 24 25
3 25 26 27
3 27 16 18
3 18 13 19
3 19 21 23
3 23 25 27
3 27 18 19
3 19 23 27
3 28 29 30
3 30 31 32
3 32 33 34
3 34 28 30
3 30 32 34
