ply
format ascii 1.0
comment Created by Blender 2.78 (sub 0) - www.blender.org, source file: 'soult.blend'
element vertex 113
property float x
property float y
property float z
property float nx
property float ny
property float nz
element face 113
property list uchar uint vertex_indices
end_header
-12.632401 -0.000000 -6.514542 -0.000000 1.000000 -0.000000
-12.241920 -0.000000 -6.400181 -0.000000 1.000000 -0.000000
-12.177017 -0.000000 -6.594318 -0.000000 1.000000 -0.000000
-12.078621 -0.000000 -6.776020 -0.000000 1.000000 -0.000000
-12.629959 -0.000000 -6.632771 0.000000 1.000000 -0.000000
-12.063049 -0.000000 -6.791119 -0.000000 1.000000 -0.000000
-12.639931 -0.000000 -6.699120 0.000000 1.000000 -0.000000
-11.985580 -0.000000 -6.851688 0.000000 1.000000 -0.000000
-12.661270 -0.000000 -6.762730 0.000000 1.000000 -0.000000
-11.898758 -0.000000 -6.897881 -0.000000 1.000000 -0.000000
-12.693336 -0.000000 -6.821659 0.000000 1.000000 -0.000000
-11.805237 -0.000000 -6.928299 0.000000 1.000000 -0.000000
-12.735153 -0.000000 -6.874142 0.000000 1.000000 -0.000000
-11.707863 -0.000000 -6.942020 0.000000 1.000000 -0.000000
-11.609573 -0.000000 -6.938622 0.000000 1.000000 -0.000000
-13.461401 -0.000000 -8.331453 0.000000 1.000000 -0.000000
-12.785439 -0.000000 -6.918549 0.000000 1.000000 -0.000000
-13.504164 -0.000000 -8.315821 -0.000000 1.000000 -0.000000
-13.531609 -0.000000 -8.317970 -0.000000 1.000000 -0.000000
-12.830688 -0.000000 -6.947330 -0.000000 1.000000 -0.000000
-12.892227 -0.000000 -6.974041 -0.000000 1.000000 -0.000000
-13.867340 -0.000000 -8.485344 0.000000 1.000000 -0.000000
-13.878845 -0.000000 -8.502930 0.000000 1.000000 -0.000000
-13.884573 -0.000000 -8.531858 0.000000 1.000000 -0.000000
-15.074020 -0.000000 -8.129738 0.000000 1.000000 -0.000000
-14.869171 -0.000000 -7.859421 0.000000 1.000000 -0.000000
-12.957481 -0.000000 -6.989658 -0.000000 1.000000 -0.000000
-13.024452 -0.000000 -6.993710 -0.000000 1.000000 -0.000000
-14.820076 -0.000000 -7.749386 0.000000 1.000000 -0.000000
-14.807419 -0.000000 -7.686157 -0.000000 1.000000 -0.000000
-13.060478 -0.000000 -6.991051 -0.000000 1.000000 -0.000000
-13.103249 -0.000000 -6.960312 -0.000000 1.000000 -0.000000
-14.799403 -0.000000 -7.601680 -0.000000 1.000000 -0.000000
-14.796402 -0.000000 -7.538101 0.000000 1.000000 -0.000000
-13.140030 -0.000000 -6.922611 0.000000 1.000000 -0.000000
-13.168770 -0.000000 -6.880741 0.000000 1.000000 -0.000000
-14.800591 -0.000000 -7.430374 0.000000 1.000000 -0.000000
-14.817917 -0.000000 -7.366112 0.000000 1.000000 -0.000000
-14.831528 -0.000000 -7.335350 0.000000 1.000000 -0.000000
-14.713902 -0.000000 -6.714509 0.000000 1.000000 -0.000000
-13.356369 -0.000000 -6.499340 0.000000 1.000000 -0.000000
-14.650432 -0.000000 -6.198513 0.000000 1.000000 -0.000000
-13.641563 -0.000000 -5.845490 0.000000 1.000000 -0.000000
-13.472687 -0.000000 -6.248821 0.000000 1.000000 -0.000000
-14.356110 -0.000000 -8.729805 -0.000000 1.000000 -0.000000
-14.850555 -0.000000 -8.985906 -0.000000 1.000000 -0.000000
-15.363724 -0.000000 -8.424820 -0.000000 1.000000 -0.000000
-15.108292 -0.000000 -8.174011 -0.000000 1.000000 -0.000000
-11.448700 -0.000000 -7.252670 -0.000000 1.000000 -0.000000
-11.623749 -0.000000 -7.581062 0.000000 1.000000 -0.000000
-13.434568 -0.000000 -8.371628 0.000000 1.000000 -0.000000
-11.635559 -0.000000 -7.614021 -0.000000 1.000000 -0.000000
-13.435059 -0.000000 -8.409925 -0.000000 1.000000 -0.000000
-11.688927 -0.000000 -7.819649 -0.000000 1.000000 -0.000000
-13.449986 -0.000000 -8.438343 -0.000000 1.000000 -0.000000
-11.696892 -0.000000 -7.922882 0.000000 1.000000 -0.000000
-13.755913 -0.000000 -8.597427 0.000000 1.000000 -0.000000
-11.696434 -0.000000 -7.940941 0.000000 1.000000 -0.000000
-11.683212 -0.000000 -8.043633 -0.000000 1.000000 -0.000000
-11.683090 -0.000000 -8.044159 0.000000 1.000000 -0.000000
-11.568100 -0.000000 -8.493599 -0.000000 1.000000 -0.000000
-11.439400 -0.000000 -8.872482 0.000000 1.000000 -0.000000
-11.384438 -0.000000 -8.988403 0.000000 1.000000 -0.000000
-12.574539 -0.000000 -9.408501 0.000000 1.000000 -0.000000
-13.781292 -0.000000 -8.600700 -0.000000 1.000000 -0.000000
-12.575886 -0.000000 -9.376068 0.000000 1.000000 -0.000000
-12.588280 -0.000000 -9.346069 0.000000 1.000000 -0.000000
-13.083519 -0.000000 -8.761002 0.000000 1.000000 -0.000000
-13.125674 -0.000000 -8.736328 0.000000 1.000000 -0.000000
-13.183615 -0.000000 -8.730101 0.000000 1.000000 -0.000000
-13.814697 -0.000000 -8.595612 0.000000 1.000000 -0.000000
-13.247816 -0.000000 -8.760567 0.000000 1.000000 -0.000000
-13.282532 -0.000000 -8.798050 -0.000000 1.000000 -0.000000
-13.336273 -0.000000 -8.881706 0.000000 1.000000 -0.000000
-13.827179 -0.000000 -8.588966 -0.000000 1.000000 -0.000000
-13.375155 -0.000000 -8.962015 -0.000000 1.000000 -0.000000
-13.855537 -0.000000 -8.568069 0.000000 1.000000 -0.000000
-13.411507 -0.000000 -9.045448 0.000000 1.000000 -0.000000
-14.315654 -0.000000 -8.727443 0.000000 1.000000 -0.000000
-13.417437 -0.000000 -9.070210 -0.000000 1.000000 -0.000000
-13.411265 -0.000000 -9.109198 0.000000 1.000000 -0.000000
-14.263362 -0.000000 -8.743973 0.000000 1.000000 -0.000000
-13.943176 -0.000000 -8.951576 -0.000000 1.000000 -0.000000
-13.927843 -0.000000 -8.969109 0.000000 1.000000 -0.000000
-13.391272 -0.000000 -9.132884 -0.000000 1.000000 -0.000000
-13.921350 -0.000000 -9.005371 0.000000 1.000000 -0.000000
-13.369942 -0.000000 -9.144920 0.000000 1.000000 -0.000000
-13.195964 -0.000000 -9.207428 0.000000 1.000000 -0.000000
-12.982735 -0.000000 -9.297064 0.000000 1.000000 -0.000000
-13.949255 -0.000000 -9.044123 -0.000000 1.000000 -0.000000
-12.891151 -0.000000 -9.341751 -0.000000 1.000000 -0.000000
-12.769974 -0.000000 -9.407665 0.000000 1.000000 -0.000000
-12.694359 -0.000000 -9.452049 0.000000 1.000000 -0.000000
-12.664368 -0.000000 -9.464470 -0.000000 1.000000 -0.000000
-12.619659 -0.000000 -9.461166 -0.000000 1.000000 -0.000000
-13.267250 -0.000000 -9.852661 -0.000000 1.000000 -0.000000
-13.285917 -0.000000 -9.797937 0.000000 1.000000 -0.000000
-14.377312 -0.000000 -9.056833 -0.000000 1.000000 -0.000000
-14.111685 -0.000000 -9.053801 -0.000000 1.000000 -0.000000
-13.979149 -0.000000 -9.058113 -0.000000 1.000000 -0.000000
-13.313766 -0.000000 -9.773613 0.000000 1.000000 -0.000000
-13.549042 -0.000000 -9.700706 -0.000000 1.000000 -0.000000
-14.862934 -0.000000 -9.113842 -0.000000 1.000000 -0.000000
-14.658745 -0.000000 -9.083830 -0.000000 1.000000 -0.000000
-14.145220 -0.000000 -9.605927 0.000000 1.000000 -0.000000
-14.284088 -0.000000 -9.607407 0.000000 1.000000 -0.000000
-14.034693 -0.000000 -9.611000 0.000000 1.000000 -0.000000
-13.858513 -0.000000 -9.628761 -0.000000 1.000000 -0.000000
-13.560364 -0.000000 -9.706429 -0.000000 1.000000 -0.000000
-13.577530 -0.000000 -9.933540 -0.000000 1.000000 -0.000000
-13.889236 -0.000000 -10.000381 -0.000000 1.000000 -0.000000
-13.872158 -0.000000 -9.861916 -0.000000 1.000000 -0.000000
-13.879494 -0.000000 -9.980040 0.000000 1.000000 -0.000000
3 0 1 2
3 0 2 3
3 4 0 3
3 4 3 5
3 6 4 5
3 6 5 7
3 8 6 7
3 8 7 9
3 10 8 9
3 10 9 11
3 12 10 11
3 13 14 15
3 12 11 13
3 16 12 13
3 13 15 17
3 13 17 18
3 19 16 13
3 20 19 13
3 13 18 21
3 22 23 24
3 20 13 21
3 21 22 24
3 21 24 25
3 26 20 21
3 27 26 21
3 21 25 28
3 21 28 29
3 30 27 21
3 31 30 21
3 21 29 32
3 21 32 33
3 34 31 21
3 35 34 21
3 21 33 36
3 37 38 39
3 21 36 37
3 40 35 21
3 41 42 43
3 43 40 21
3 21 37 39
3 39 41 43
3 21 39 43
3 44 45 46
3 47 24 44
3 46 47 44
3 15 14 48
3 15 48 49
3 50 15 49
3 50 49 51
3 52 50 51
3 52 51 53
3 54 52 53
3 54 53 55
3 56 54 55
3 56 55 57
3 56 57 58
3 56 58 59
3 56 59 60
3 61 62 63
3 56 60 61
3 64 56 61
3 61 63 65
3 61 65 66
3 61 66 67
3 61 67 68
3 64 61 68
3 64 68 69
3 70 64 69
3 70 69 71
3 70 71 72
3 70 72 73
3 74 70 73
3 74 73 75
3 24 23 76
3 76 74 75
3 76 75 77
3 44 24 76
3 78 44 76
3 76 77 79
3 76 79 80
3 81 78 76
3 82 81 76
3 82 76 80
3 83 82 80
3 83 80 84
3 85 83 84
3 86 87 88
3 85 84 86
3 89 85 86
3 86 88 90
3 90 91 92
3 93 94 95
3 86 90 92
3 92 93 95
3 92 95 96
3 89 86 92
3 97 98 99
3 99 89 92
3 92 96 100
3 92 100 101
3 97 99 92
3 102 103 97
3 104 105 102
3 106 104 102
3 102 97 92
3 102 92 101
3 107 106 102
3 107 102 101
3 108 109 110
3 107 101 108
3 111 107 108
3 108 110 112
3 108 112 111
