ply
format ascii 1.0
comment Created by Blender 2.78 (sub 0) - www.blender.org, source file: 'soult.blend'
element vertex 61
property float x
property float y
property float z
property float nx
property float ny
property float nz
element face 46
property list uchar uint vertex_indices
end_header
-11.087990 -0.000000 -9.433647 0.000004 1.000000 0.000003
-10.315194 -0.000000 -10.495050 0.000004 1.000000 0.000003
-11.434806 0.000007 -11.298645 0.000004 1.000000 0.000003
-12.242778 0.000007 -10.224303 -0.000162 1.000000 -0.000178
-12.846539 -0.000000 -9.718211 -0.000162 1.000000 -0.000178
-12.925745 -0.000000 -9.646208 -0.000162 1.000000 -0.000178
-12.242778 0.000007 -10.224303 0.000004 1.000000 0.000003
-11.114777 -0.000000 -9.394157 0.000005 1.000000 0.000003
-11.087990 -0.000000 -9.433647 0.000005 1.000000 0.000003
-12.242778 0.000007 -10.224303 0.000005 1.000000 0.000003
-11.114777 -0.000000 -9.394157 -0.000002 1.000000 0.000011
-12.242778 0.000007 -10.224303 -0.000002 1.000000 0.000011
-12.925745 -0.000000 -9.646208 -0.000002 1.000000 0.000011
-11.384438 -0.000000 -8.988403 -0.000000 1.000000 -0.000000
-11.114777 -0.000000 -9.394157 -0.000000 1.000000 -0.000000
-12.925745 -0.000000 -9.646208 -0.000000 1.000000 -0.000000
-13.297442 -0.000000 -9.562407 -0.000000 1.000000 -0.000000
-11.439400 -0.000000 -8.872482 -0.000000 1.000000 -0.000000
-13.626974 -0.000000 -9.579306 0.000000 1.000000 -0.000000
-11.568100 -0.000000 -8.493599 -0.000000 1.000000 -0.000000
-13.860168 -0.000000 -9.657035 -0.000000 1.000000 -0.000000
-14.598668 -0.000000 -9.942636 -0.000000 1.000000 -0.000000
-14.743088 -0.000000 -9.665253 -0.000000 1.000000 -0.000000
-11.683090 -0.000000 -8.044159 -0.000000 1.000000 -0.000000
-14.885109 -0.000000 -9.381401 0.000000 1.000000 -0.000000
-15.027130 -0.000000 -9.097550 -0.000000 1.000000 -0.000000
-14.914371 -0.000000 -9.044675 -0.000000 1.000000 -0.000000
-14.861451 -0.000000 -9.022022 0.000000 1.000000 -0.000000
-11.683212 -0.000000 -8.043633 0.000000 1.000000 -0.000000
-14.762411 -0.000000 -8.965427 0.000000 1.000000 -0.000000
-14.514232 -0.000000 -8.812532 -0.000000 1.000000 0.000000
-11.696434 -0.000000 -7.940941 -0.000000 1.000000 -0.000000
-11.696892 -0.000000 -7.922882 0.000000 1.000000 -0.000000
-14.885109 -0.000000 -9.381401 0.000001 1.000000 -0.000001
-14.514232 -0.000000 -8.812532 0.000001 1.000000 -0.000001
-14.329722 -0.000000 -8.626567 0.000001 1.000000 -0.000001
-14.329722 -0.000000 -8.626567 0.000000 1.000000 -0.000000
-11.688927 -0.000000 -7.819649 0.000000 1.000000 -0.000000
-14.196824 -0.000000 -8.400114 0.000000 1.000000 -0.000000
-11.635559 -0.000000 -7.614021 0.000000 1.000000 -0.000000
-14.156026 -0.000000 -8.130208 0.000000 1.000000 -0.000000
-11.609573 -0.000000 -6.938622 -0.000000 1.000000 -0.000000
-11.448700 -0.000000 -7.252670 -0.000000 1.000000 -0.000000
-11.623749 -0.000000 -7.581062 -0.000000 1.000000 -0.000000
-14.176014 -0.000000 -7.846039 0.000000 1.000000 0.000000
-11.707863 -0.000000 -6.942020 0.000000 1.000000 -0.000000
-11.805237 -0.000000 -6.928299 -0.000000 1.000000 -0.000000
-14.228832 -0.000000 -7.429367 0.000000 1.000000 0.000000
-14.228832 -0.000000 -7.429367 -0.000012 1.000000 -0.000002
-14.302048 -0.000000 -6.971276 -0.000012 1.000000 -0.000002
-14.427068 -0.000000 -6.158738 -0.000012 1.000000 -0.000002
-14.427068 -0.000000 -6.158738 -0.000000 1.000000 -0.000000
-14.503682 -0.000000 -5.757178 -0.000000 1.000000 -0.000000
-13.717010 -0.000000 -5.617111 -0.000000 1.000000 -0.000000
-12.632401 -0.000000 -6.514542 -0.000000 1.000000 -0.000000
-12.241920 -0.000000 -6.400181 -0.000000 1.000000 -0.000000
-12.177017 -0.000000 -6.594318 -0.000000 1.000000 -0.000000
-11.898758 -0.000000 -6.897881 -0.000000 1.000000 -0.000000
-11.985580 -0.000000 -6.851688 0.000000 1.000000 -0.000000
-12.078621 -0.000000 -6.776020 -0.000000 1.000000 -0.000000
-12.063049 -0.000000 -6.791119 -0.000000 1.000000 -0.000000
3 0 1 2
3 3 4 5
3 0 2 6
3 7 8 9
3 10 11 12
3 13 14 15
3 13 15 16
3 17 13 16
3 17 16 18
3 19 17 18
3 20 21 22
3 19 18 20
3 23 19 20
3 20 22 24
3 24 25 26
3 24 26 27
3 23 20 24
3 28 23 24
3 24 27 29
3 24 29 30
3 31 28 24
3 32 31 24
3 33 34 35
3 32 24 36
3 37 32 36
3 37 36 38
3 39 37 38
3 39 38 40
3 41 42 43
3 43 39 40
3 43 40 44
3 45 41 43
3 46 45 43
3 43 44 47
3 48 49 50
3 51 52 53
3 54 55 56
3 51 53 54
3 43 47 51
3 57 46 43
3 58 57 43
3 43 51 54
3 54 56 59
3 60 58 43
3 54 59 60
3 54 60 43
