ply
format ascii 1.0
comment Created by Blender 2.78 (sub 0) - www.blender.org, source file: 'soult.blend'
element vertex 92
property float x
property float y
property float z
property float nx
property float ny
property float nz
element face 78
property list uchar uint vertex_indices
end_header
-14.284088 -0.000000 -9.607407 -0.000000 1.000000 -0.000000
-14.743088 -0.000000 -9.665253 -0.000000 1.000000 -0.000000
-14.885109 -0.000000 -9.381401 -0.000000 1.000000 -0.000000
-15.027130 -0.000000 -9.097550 -0.000000 1.000000 -0.000000
-14.914371 -0.000000 -9.044675 -0.000000 1.000000 -0.000000
-14.915146 -0.000000 -9.065293 -0.000000 1.000000 -0.000000
-14.904547 -0.000000 -9.088590 -0.000000 1.000000 -0.000000
-14.886597 -0.000000 -9.106850 0.000001 1.000000 0.000001
-14.862934 -0.000000 -9.113842 0.000001 1.000000 0.000001
-14.284088 -0.000000 -9.607407 0.000001 1.000000 0.000001
-14.886597 -0.000000 -9.106850 -0.000000 1.000000 -0.000000
-13.626974 -0.000000 -9.579306 0.000000 1.000000 -0.000000
-13.860168 -0.000000 -9.657035 0.000000 1.000000 -0.000000
-13.858513 -0.000000 -9.628761 0.000000 1.000000 -0.000000
-14.034693 -0.000000 -9.611000 0.000000 1.000000 0.000000
-12.619659 -0.000000 -9.461166 -0.000000 1.000000 -0.000000
-12.925747 -0.000000 -9.646208 -0.000000 1.000000 -0.000000
-13.297442 -0.000000 -9.562407 -0.000000 1.000000 -0.000000
-14.145220 -0.000000 -9.605927 0.000000 1.000000 0.000000
-12.574539 -0.000000 -9.408501 -0.000000 1.000000 -0.000000
-12.587173 -0.000000 -9.434896 -0.000000 1.000000 -0.000000
-11.439400 -0.000000 -8.872482 0.000000 1.000000 -0.000000
-11.384438 -0.000000 -8.988403 0.000000 1.000000 -0.000000
-11.568100 -0.000000 -8.493599 0.000000 1.000000 -0.000000
-14.904547 -0.000000 -9.088590 0.000001 1.000000 0.000001
-14.862934 -0.000000 -9.113842 0.000000 1.000000 -0.000000
-11.683090 -0.000000 -8.044159 -0.000000 1.000000 -0.000000
-13.626974 -0.000000 -9.579306 -0.000000 1.000000 -0.000001
-14.862934 -0.000000 -9.113842 -0.000000 1.000000 -0.000001
-14.904547 -0.000000 -9.088590 -0.000000 1.000000 -0.000001
-14.861451 -0.000000 -9.022022 0.000000 1.000000 -0.000000
-11.683212 -0.000000 -8.043633 0.000000 1.000000 -0.000000
-14.762411 -0.000000 -8.965427 0.000000 1.000000 -0.000000
-14.762411 -0.000000 -8.965427 -0.000101 1.000000 0.000091
-14.719965 -0.000000 -8.918265 -0.000101 1.000000 0.000091
-14.677451 -0.000000 -8.871888 -0.000101 1.000000 0.000091
-11.696434 -0.000000 -7.940941 0.000000 1.000000 -0.000000
-11.696434 -0.000000 -7.940941 0.000000 1.000000 -0.000001
-14.762411 -0.000000 -8.965427 0.000000 1.000000 -0.000001
-14.677451 -0.000000 -8.871888 0.000000 1.000000 -0.000001
-11.696892 -0.000000 -7.922882 0.000000 1.000000 -0.000000
-14.677451 -0.000000 -8.871888 0.000000 1.000000 -0.000000
-14.579824 -0.000000 -8.697188 0.000000 1.000000 -0.000000
-11.688927 -0.000000 -7.819649 0.000000 1.000000 -0.000000
-14.497613 -0.000000 -8.445415 -0.621102 0.771227 0.139432
-14.472405 -0.000000 -8.333128 -0.621102 0.771227 0.139432
-14.441092 0.000000 -8.193643 -0.621102 0.771227 0.139432
-14.497613 -0.000000 -8.445415 0.000000 1.000000 -0.000000
-11.635559 -0.000000 -7.614021 0.000000 1.000000 -0.000000
-11.635559 -0.000000 -7.614021 0.000001 1.000000 -0.000002
-14.497613 -0.000000 -8.445415 0.000001 1.000000 -0.000002
-14.441092 0.000000 -8.193643 0.000001 1.000000 -0.000002
-11.609573 -0.000000 -6.938622 -0.000000 1.000000 -0.000000
-11.448700 -0.000000 -7.252670 -0.000000 1.000000 -0.000000
-11.623749 -0.000000 -7.581062 -0.000000 1.000000 -0.000000
-14.441092 0.000000 -8.193643 0.000000 1.000000 -0.000000
-11.623749 -0.000000 -7.581062 -0.000000 1.000000 0.000002
-14.441092 0.000000 -8.193643 -0.000000 1.000000 0.000002
-14.449313 -0.000000 -7.952660 -0.000000 1.000000 0.000002
-11.707863 -0.000000 -6.942020 0.000000 1.000000 -0.000000
-11.805237 -0.000000 -6.928299 -0.000000 1.000000 -0.000000
-14.449313 -0.000000 -7.952660 0.000000 1.000000 0.000000
-14.500695 -0.000000 -7.608398 0.000000 1.000000 0.000000
-14.562354 -0.000000 -7.300105 -0.000000 1.000000 0.000000
-14.613736 -0.000000 -7.027779 -0.000000 1.000000 0.000000
-14.694793 -0.000000 -6.559154 0.000000 1.000000 -0.000000
-14.650432 -0.000000 -6.198513 0.000000 1.000000 -0.000000
-13.641564 -0.000000 -5.845489 0.000000 1.000000 0.000000
-13.472687 -0.000000 -6.248821 0.000000 1.000000 0.000000
-13.356369 -0.000000 -6.499340 0.000000 1.000000 -0.000000
-11.898758 -0.000000 -6.897881 0.000000 1.000000 -0.000000
-13.168770 -0.000000 -6.880741 0.000000 1.000000 -0.000000
-11.985580 -0.000000 -6.851688 0.000000 1.000000 -0.000000
-12.063049 -0.000000 -6.791119 0.000000 1.000000 -0.000000
-13.140030 -0.000000 -6.922611 0.000000 1.000000 -0.000000
-13.103249 -0.000000 -6.960312 0.000000 1.000000 -0.000000
-12.078621 -0.000000 -6.776020 0.000000 1.000000 -0.000000
-12.632401 -0.000000 -6.514542 -0.000000 1.000000 -0.000000
-12.241920 -0.000000 -6.400181 -0.000000 1.000000 -0.000000
-12.177017 -0.000000 -6.594318 -0.000000 1.000000 -0.000000
-13.060478 -0.000000 -6.991051 0.000000 1.000000 -0.000000
-13.024452 -0.000000 -6.993710 0.000000 1.000000 -0.000000
-12.629959 -0.000000 -6.632771 0.000000 1.000000 -0.000000
-12.957481 -0.000000 -6.989658 -0.000000 1.000000 -0.000000
-12.892227 -0.000000 -6.974041 -0.000000 1.000000 0.000000
-12.639931 -0.000000 -6.699120 0.000000 1.000000 -0.000000
-12.661270 -0.000000 -6.762730 0.000000 1.000000 -0.000000
-12.830688 -0.000000 -6.947330 -0.000000 1.000000 -0.000000
-12.693336 -0.000000 -6.821659 0.000000 1.000000 -0.000000
-12.735153 -0.000000 -6.874142 0.000000 1.000000 -0.000000
-12.785439 -0.000000 -6.918549 0.000000 1.000000 -0.000000
-14.598668 -0.000000 -9.942636 0.000000 1.000000 -0.000000
3 0 1 2
3 3 4 5
3 3 5 6
3 0 2 3
3 7 8 9
3 3 6 10
3 3 10 0
3 11 12 13
3 11 13 14
3 15 16 17
3 11 14 18
3 15 17 11
3 19 20 15
3 21 22 19
3 23 21 19
3 19 15 11
3 11 18 0
3 8 7 24
3 11 0 25
3 23 19 11
3 26 23 11
3 27 28 29
3 6 5 4
3 6 4 30
3 26 11 6
3 31 26 6
3 6 30 32
3 33 34 35
3 31 6 32
3 36 31 32
3 37 38 39
3 40 36 41
3 40 41 42
3 43 40 42
3 44 45 46
3 43 42 47
3 48 43 47
3 49 50 51
3 52 53 54
3 54 48 55
3 56 57 58
3 59 52 54
3 60 59 54
3 54 61 62
3 62 63 64
3 64 65 66
3 66 67 68
3 66 68 69
3 62 64 66
3 60 54 62
3 70 60 62
3 62 66 69
3 62 69 71
3 72 70 62
3 73 72 62
3 62 71 74
3 62 74 75
3 76 73 62
3 77 78 79
3 62 75 80
3 62 80 81
3 77 79 76
3 82 77 76
3 62 81 83
3 62 83 84
3 85 82 76
3 86 85 76
3 76 62 84
3 76 84 87
3 88 86 76
3 89 88 76
3 76 87 90
3 90 89 76
3 1 0 18
3 18 14 13
3 13 12 91
3 91 1 18
3 18 13 91
