ply
format ascii 1.0
comment Created by Blender 2.78 (sub 0) - www.blender.org, source file: 'soult.blend'
element vertex 96
property float x
property float y
property float z
property float nx
property float ny
property float nz
element face 78
property list uchar uint vertex_indices
end_header
-13.626974 -0.000000 -9.579306 0.000000 1.000000 -0.000000
-13.860169 -0.000000 -9.657037 0.000000 1.000000 -0.000000
-13.858513 -0.000000 -9.628761 0.000000 1.000000 -0.000000
-14.034693 -0.000000 -9.611000 0.000000 1.000000 0.000000
-12.619659 -0.000000 -9.461166 -0.000000 1.000000 -0.000000
-12.925745 -0.000000 -9.646208 -0.000000 1.000000 -0.000000
-13.297442 -0.000000 -9.562407 -0.000000 1.000000 -0.000000
-14.145220 -0.000000 -9.605927 0.000000 1.000000 0.000000
-12.574539 -0.000000 -9.408501 -0.000000 1.000000 -0.000000
-12.587175 -0.000000 -9.434897 -0.000000 1.000000 -0.000000
-11.439400 -0.000000 -8.872482 0.000000 1.000000 -0.000000
-11.384438 -0.000000 -8.988403 0.000000 1.000000 -0.000000
-11.568100 -0.000000 -8.493599 0.000000 1.000000 -0.000000
-14.284088 -0.000000 -9.607407 -0.000000 1.000000 0.000000
-14.862934 -0.000000 -9.113842 0.000001 1.000000 0.000001
-14.886597 -0.000000 -9.106850 0.000001 1.000000 0.000001
-14.904547 -0.000000 -9.088590 0.000001 1.000000 0.000001
-14.862934 -0.000000 -9.113842 0.000000 1.000000 -0.000000
-11.683090 -0.000000 -8.044159 -0.000000 1.000000 -0.000000
-13.626974 -0.000000 -9.579306 -0.000000 1.000000 -0.000001
-14.862934 -0.000000 -9.113842 -0.000000 1.000000 -0.000001
-14.904547 -0.000000 -9.088590 -0.000000 1.000000 -0.000001
-14.904547 -0.000000 -9.088590 0.000000 1.000000 -0.000000
-14.915146 -0.000000 -9.065293 0.000000 1.000000 -0.000000
-14.914373 -0.000000 -9.044677 0.000000 1.000000 -0.000000
-14.863253 -0.000000 -9.023246 0.000000 1.000000 -0.000000
-11.683212 -0.000000 -8.043633 0.000000 1.000000 -0.000000
-14.768228 -0.000000 -8.970951 0.000000 1.000000 -0.000000
-14.768228 -0.000000 -8.970951 -0.002601 0.999994 0.002382
-14.719965 -0.000000 -8.918265 -0.002601 0.999994 0.002382
-14.677451 -0.000000 -8.871888 -0.002601 0.999994 0.002382
-11.696434 -0.000000 -7.940941 0.000000 1.000000 -0.000000
-11.696434 -0.000000 -7.940941 0.000000 1.000000 -0.000001
-14.768228 -0.000000 -8.970951 0.000000 1.000000 -0.000001
-14.677451 -0.000000 -8.871888 0.000000 1.000000 -0.000001
-11.696892 -0.000000 -7.922882 0.000000 1.000000 -0.000000
-14.677451 -0.000000 -8.871888 0.000000 1.000000 -0.000000
-14.579824 -0.000000 -8.697188 0.000000 1.000000 -0.000000
-11.688927 -0.000000 -7.819649 0.000000 1.000000 -0.000000
-14.497613 -0.000000 -8.445415 -0.621102 0.771227 0.139432
-14.472405 -0.000000 -8.333128 -0.621102 0.771227 0.139432
-14.441092 0.000000 -8.193643 -0.621102 0.771227 0.139432
-14.497613 -0.000000 -8.445415 0.000000 1.000000 -0.000000
-11.635559 -0.000000 -7.614021 0.000000 1.000000 -0.000000
-11.635559 -0.000000 -7.614021 0.000001 1.000000 -0.000002
-14.497613 -0.000000 -8.445415 0.000001 1.000000 -0.000002
-14.441092 0.000000 -8.193643 0.000001 1.000000 -0.000002
-11.609573 -0.000000 -6.938622 -0.000000 1.000000 -0.000000
-11.448700 -0.000000 -7.252670 -0.000000 1.000000 -0.000000
-11.623749 -0.000000 -7.581062 -0.000000 1.000000 -0.000000
-14.441092 0.000000 -8.193643 0.000000 1.000000 -0.000000
-11.623749 -0.000000 -7.581062 -0.000000 1.000000 0.000002
-14.441092 0.000000 -8.193643 -0.000000 1.000000 0.000002
-14.449313 -0.000000 -7.952660 -0.000000 1.000000 0.000002
-11.707863 -0.000000 -6.942020 0.000000 1.000000 -0.000000
-11.805237 -0.000000 -6.928299 -0.000000 1.000000 -0.000000
-14.449313 -0.000000 -7.952660 0.000000 1.000000 0.000000
-14.500695 -0.000000 -7.608398 0.000000 1.000000 0.000000
-14.562354 -0.000000 -7.300105 -0.000000 1.000000 0.000000
-14.613736 -0.000000 -7.027779 -0.000000 1.000000 0.000000
-14.694793 -0.000000 -6.559155 0.000000 1.000000 -0.000000
-14.650432 -0.000000 -6.198513 0.000000 1.000000 -0.000000
-13.641563 -0.000000 -5.845490 -0.000000 1.000000 -0.000000
-13.472687 -0.000000 -6.248821 -0.000000 1.000000 -0.000000
-13.356369 -0.000000 -6.499340 0.000000 1.000000 -0.000000
-11.898758 -0.000000 -6.897881 0.000000 1.000000 -0.000000
-13.168770 -0.000000 -6.880741 0.000000 1.000000 -0.000000
-11.985580 -0.000000 -6.851688 0.000000 1.000000 -0.000000
-12.063049 -0.000000 -6.791119 0.000000 1.000000 -0.000000
-13.140030 -0.000000 -6.922611 0.000000 1.000000 -0.000000
-13.103249 -0.000000 -6.960312 0.000000 1.000000 -0.000000
-12.078621 -0.000000 -6.776020 0.000000 1.000000 -0.000000
-12.632401 -0.000000 -6.514542 -0.000000 1.000000 -0.000000
-12.241920 -0.000000 -6.400181 -0.000000 1.000000 -0.000000
-12.177017 -0.000000 -6.594318 -0.000000 1.000000 -0.000000
-13.060478 -0.000000 -6.991051 0.000000 1.000000 -0.000000
-13.024452 -0.000000 -6.993710 0.000000 1.000000 -0.000000
-12.629959 -0.000000 -6.632771 0.000000 1.000000 -0.000000
-12.957481 -0.000000 -6.989658 -0.000000 1.000000 -0.000000
-12.892227 -0.000000 -6.974041 -0.000000 1.000000 0.000000
-12.639931 -0.000000 -6.699120 0.000000 1.000000 -0.000000
-12.661270 -0.000000 -6.762730 0.000000 1.000000 -0.000000
-12.830688 -0.000000 -6.947330 -0.000000 1.000000 -0.000000
-12.693336 -0.000000 -6.821659 0.000000 1.000000 -0.000000
-12.735153 -0.000000 -6.874142 0.000000 1.000000 -0.000000
-12.785439 -0.000000 -6.918549 0.000000 1.000000 -0.000000
-14.743088 -0.000000 -9.665253 0.000000 -1.000000 0.000000
-14.885109 -0.000000 -9.381401 0.000000 -1.000000 0.000000
-15.027130 -0.000000 -9.097550 0.000000 -1.000000 0.000000
-15.027130 -0.000000 -9.097550 -0.000000 1.000000 0.000000
-14.598669 -0.000000 -9.942636 -0.000002 1.000000 -0.000001
-14.743088 -0.000000 -9.665253 -0.000002 1.000000 -0.000001
-15.027130 -0.000000 -9.097550 -0.000002 1.000000 -0.000001
-14.598669 -0.000000 -9.942636 0.000000 1.000000 -0.000000
-14.284088 -0.000000 -9.607407 0.000001 1.000000 0.000001
-14.886597 -0.000000 -9.106850 -0.000000 1.000000 -0.000000
3 0 1 2
3 0 2 3
3 4 5 6
3 0 3 7
3 4 6 0
3 8 9 4
3 10 11 8
3 12 10 8
3 8 4 0
3 0 7 13
3 14 15 16
3 0 13 17
3 12 8 0
3 18 12 0
3 19 20 21
3 22 23 24
3 22 24 25
3 18 0 22
3 26 18 22
3 22 25 27
3 28 29 30
3 26 22 27
3 31 26 27
3 32 33 34
3 35 31 36
3 35 36 37
3 38 35 37
3 39 40 41
3 38 37 42
3 43 38 42
3 44 45 46
3 47 48 49
3 49 43 50
3 51 52 53
3 54 47 49
3 55 54 49
3 49 56 57
3 57 58 59
3 59 60 61
3 61 62 63
3 61 63 64
3 57 59 61
3 55 49 57
3 65 55 57
3 57 61 64
3 57 64 66
3 67 65 57
3 68 67 57
3 57 66 69
3 57 69 70
3 71 68 57
3 72 73 74
3 57 70 75
3 57 75 76
3 72 74 71
3 77 72 71
3 57 76 78
3 57 78 79
3 80 77 71
3 81 80 71
3 71 57 79
3 71 79 82
3 83 81 71
3 84 83 71
3 71 82 85
3 85 84 71
3 86 87 88
3 89 24 23
3 89 23 22
3 90 91 92
3 2 1 93
3 7 3 2
3 15 14 94
3 13 7 2
3 93 89 22
3 93 22 95
3 13 2 93
3 95 13 93
