ply
format ascii 1.0
comment Created by Blender 2.78 (sub 0) - www.blender.org, source file: 'soult.blend'
element vertex 71
property float x
property float y
property float z
property float nx
property float ny
property float nz
element face 56
property list uchar uint vertex_indices
end_header
-12.574539 -0.000000 -9.408501 -0.000000 1.000000 -0.000000
-12.619659 -0.000000 -9.461166 -0.000000 1.000000 -0.000000
-13.267250 -0.000000 -9.852661 -0.000000 1.000000 -0.000000
-13.858513 -0.000000 -9.628761 -0.000000 1.000000 -0.000000
-14.497613 -0.000000 -8.445415 -0.621102 0.771227 0.139432
-14.472405 -0.000000 -8.333128 -0.621102 0.771227 0.139432
-14.441092 0.000000 -8.193643 -0.621102 0.771227 0.139432
-14.862934 -0.000000 -9.113842 -0.000009 1.000000 0.000006
-14.719965 -0.000000 -8.918265 -0.000009 1.000000 0.000006
-14.677451 -0.000000 -8.871888 -0.000009 1.000000 0.000006
-14.145220 -0.000000 -9.605927 0.000000 1.000000 -0.000000
-14.284088 -0.000000 -9.607407 0.000000 1.000000 -0.000000
-14.862934 -0.000000 -9.113842 0.000000 1.000000 -0.000000
-14.034693 -0.000000 -9.611000 0.000000 1.000000 -0.000000
-14.677451 -0.000000 -8.871888 -0.000000 1.000000 -0.000000
-11.384438 -0.000000 -8.988403 0.000000 1.000000 -0.000000
-11.439400 -0.000000 -8.872482 0.000000 1.000000 -0.000000
-14.579824 -0.000000 -8.697188 0.000000 1.000000 -0.000000
-14.497613 -0.000000 -8.445415 0.000000 1.000000 -0.000000
-11.568100 -0.000000 -8.493599 0.000000 1.000000 -0.000000
-11.683090 -0.000000 -8.044159 -0.000000 1.000000 -0.000000
-14.034693 -0.000000 -9.611000 -0.000003 1.000000 -0.000001
-14.497613 -0.000000 -8.445415 -0.000003 1.000000 -0.000001
-14.441092 0.000000 -8.193643 -0.000003 1.000000 -0.000001
-14.034693 -0.000000 -9.611000 0.000009 1.000000 0.000002
-14.441092 0.000000 -8.193643 0.000009 1.000000 0.000002
-14.449313 -0.000000 -7.952660 0.000009 1.000000 0.000002
-11.683212 -0.000000 -8.043633 0.000000 1.000000 -0.000000
-11.696434 -0.000000 -7.940941 -0.000000 1.000000 -0.000000
-14.034693 -0.000000 -9.611000 0.000001 1.000000 0.000000
-14.449313 -0.000000 -7.952660 0.000001 1.000000 0.000000
-14.500695 -0.000000 -7.608398 0.000001 1.000000 0.000000
-14.500695 -0.000000 -7.608398 -0.000000 1.000000 0.000000
-14.562354 -0.000000 -7.300105 -0.000000 1.000000 0.000000
-14.613736 -0.000000 -7.027779 -0.000000 1.000000 0.000000
-14.779371 -0.000000 -7.060062 0.000000 1.000000 -0.000000
-14.713902 -0.000000 -6.714509 0.000000 1.000000 -0.000000
-14.650432 -0.000000 -6.198513 -0.000000 1.000000 -0.000000
-13.641563 -0.000000 -5.845490 -0.000000 1.000000 -0.000000
-13.472687 -0.000000 -6.248821 0.000000 1.000000 -0.000000
-14.613736 -0.000000 -7.027779 0.000001 1.000000 0.000000
-13.356369 -0.000000 -6.499340 -0.000000 1.000000 -0.000000
-11.696892 -0.000000 -7.922882 -0.000000 1.000000 -0.000000
-13.168770 -0.000000 -6.880741 -0.000000 1.000000 -0.000000
-13.140030 -0.000000 -6.922611 -0.000000 1.000000 -0.000000
-11.688927 -0.000000 -7.819649 -0.000000 1.000000 -0.000000
-11.635559 -0.000000 -7.614021 -0.000000 1.000000 -0.000000
-13.103249 -0.000000 -6.960312 -0.000000 1.000000 -0.000000
-13.060478 -0.000000 -6.991051 -0.000000 1.000000 -0.000000
-11.623749 -0.000000 -7.581062 -0.000000 1.000000 -0.000000
-11.609573 -0.000000 -6.938622 -0.000000 1.000000 -0.000000
-11.448700 -0.000000 -7.252670 -0.000000 1.000000 -0.000000
-11.707863 -0.000000 -6.942020 0.000000 1.000000 -0.000000
-13.024452 -0.000000 -6.993710 -0.000000 1.000000 -0.000000
-11.805237 -0.000000 -6.928299 -0.000000 1.000000 -0.000000
-11.898758 -0.000000 -6.897881 -0.000000 1.000000 -0.000000
-12.957481 -0.000000 -6.989658 -0.000000 1.000000 -0.000000
-12.892227 -0.000000 -6.974041 -0.000000 1.000000 -0.000000
-11.985580 -0.000000 -6.851688 0.000000 1.000000 -0.000000
-12.063049 -0.000000 -6.791119 -0.000000 1.000000 -0.000000
-12.830688 -0.000000 -6.947330 0.000000 1.000000 -0.000000
-12.785439 -0.000000 -6.918549 -0.000000 1.000000 -0.000000
-12.078621 -0.000000 -6.776020 0.000000 1.000000 -0.000000
-12.632401 -0.000000 -6.514542 -0.000000 1.000000 -0.000000
-12.241920 -0.000000 -6.400181 -0.000000 1.000000 -0.000000
-12.177017 -0.000000 -6.594318 -0.000000 1.000000 -0.000000
-12.629959 -0.000000 -6.632771 0.000000 1.000000 -0.000000
-12.735153 -0.000000 -6.874142 0.000000 1.000000 -0.000000
-12.693336 -0.000000 -6.821659 0.000000 1.000000 -0.000000
-12.639931 -0.000000 -6.699120 0.000000 1.000000 -0.000000
-12.661270 -0.000000 -6.762730 0.000000 1.000000 -0.000000
4 0 1 2 3
3 4 5 6
3 7 8 9
3 10 11 12
3 0 3 13
3 13 10 12
3 13 12 14
3 15 0 13
3 16 15 13
3 13 14 17
3 13 17 18
3 19 16 13
3 20 19 13
3 21 22 23
3 24 25 26
3 27 20 13
3 28 27 13
3 29 30 31
3 32 33 34
3 34 35 36
3 36 37 38
3 36 38 39
3 29 31 40
3 34 36 39
3 34 39 41
3 28 13 34
3 42 28 34
3 34 41 43
3 34 43 44
3 45 42 34
3 46 45 34
3 34 44 47
3 34 47 48
3 49 46 34
3 50 51 49
3 52 50 49
3 49 34 48
3 49 48 53
3 54 52 49
3 55 54 49
3 49 53 56
3 49 56 57
3 58 55 49
3 59 58 49
3 49 57 60
3 49 60 61
3 62 59 49
3 63 64 65
3 62 49 61
3 63 65 62
3 66 63 62
3 62 61 67
3 62 67 68
3 69 66 62
3 62 68 70
3 70 69 62
