ply
format ascii 1.0
comment Created by Blender 2.78 (sub 0) - www.blender.org, source file: 'soult.blend'
element vertex 34
property float x
property float y
property float z
property float nx
property float ny
property float nz
element face 21
property list uchar uint vertex_indices
end_header
-14.817917 -0.000000 -7.366112 0.000000 1.000000 -0.000000
-14.831528 -0.000000 -7.335350 0.000000 1.000000 -0.000000
-14.779371 -0.000000 -7.060062 0.000000 1.000000 -0.000000
-14.613736 -0.000000 -7.027779 0.000000 1.000000 0.000000
-14.562354 -0.000000 -7.300105 0.000000 1.000000 0.000000
-14.500695 -0.000000 -7.608398 -0.000000 1.000000 0.000000
-14.449313 -0.000000 -7.952660 -0.000000 1.000000 0.000000
-14.449313 -0.000000 -7.952660 -0.000021 1.000000 0.000001
-14.441092 0.000000 -8.193643 -0.000021 1.000000 0.000001
-14.472405 -0.000000 -8.333128 -0.000021 1.000000 0.000001
-14.472405 -0.000000 -8.333128 -0.000005 1.000000 0.000002
-14.497613 -0.000000 -8.445415 -0.000005 1.000000 0.000002
-14.579824 -0.000000 -8.697188 -0.000005 1.000000 0.000002
-14.579824 -0.000000 -8.697188 -0.000005 1.000000 0.000003
-14.677451 -0.000000 -8.871888 -0.000005 1.000000 0.000003
-14.719965 -0.000000 -8.918265 -0.000005 1.000000 0.000003
-14.719965 -0.000000 -8.918265 -0.000000 1.000000 -0.000000
-14.850555 -0.000000 -8.985906 -0.000000 1.000000 -0.000000
-15.363724 -0.000000 -8.424820 -0.000000 1.000000 -0.000000
-15.108292 -0.000000 -8.174011 0.000000 1.000000 -0.000000
-14.472405 -0.000000 -8.333128 -0.000001 1.000000 0.000001
-14.579824 -0.000000 -8.697188 -0.000001 1.000000 0.000001
-14.719965 -0.000000 -8.918265 -0.000001 1.000000 0.000001
-14.562354 -0.000000 -7.300105 -0.000001 1.000000 -0.000000
-14.449313 -0.000000 -7.952660 -0.000001 1.000000 -0.000000
-14.472405 -0.000000 -8.333128 -0.000001 1.000000 -0.000000
-14.800591 -0.000000 -7.430374 -0.000000 1.000000 -0.000000
-14.472405 -0.000000 -8.333128 0.000000 1.000000 -0.000000
-15.074020 -0.000000 -8.129738 -0.000000 1.000000 -0.000000
-14.869171 -0.000000 -7.859421 0.000000 1.000000 -0.000000
-14.796402 -0.000000 -7.538101 0.000000 1.000000 -0.000000
-14.820076 -0.000000 -7.749386 0.000000 1.000000 -0.000000
-14.807419 -0.000000 -7.686157 -0.000000 1.000000 -0.000000
-14.799403 -0.000000 -7.601680 0.000000 1.000000 -0.000000
3 0 1 2
3 2 3 4
3 4 5 6
3 7 8 9
3 10 11 12
3 13 14 15
3 16 17 18
3 16 18 19
3 20 21 22
3 23 24 25
3 0 2 4
3 26 0 4
3 4 27 16
3 16 19 28
3 16 28 29
3 26 4 16
3 30 26 16
3 16 29 31
3 16 31 32
3 33 30 16
3 16 32 33
