ply
format ascii 1.0
comment Created by Blender 2.78 (sub 0) - www.blender.org, source file: 'soult.blend'
element vertex 152
property float x
property float y
property float z
property float nx
property float ny
property float nz
property float s
property float t
element face 132
property list uchar uint vertex_indices
end_header
-13.626974 -0.000000 -9.579306 0.000000 1.000000 -0.000000 0.797050 0.329382
-13.860168 -0.000000 -9.657035 0.000000 1.000000 -0.000000 0.782341 0.325063
-13.858513 -0.000000 -9.628761 0.000000 1.000000 -0.000000 0.783432 0.323674
-14.034693 -0.000000 -9.611000 0.000000 1.000000 0.000000 0.775041 0.316494
-12.619659 -0.000000 -9.461166 -0.000000 1.000000 -0.000000 0.852842 0.359182
-12.925745 -0.000000 -9.646208 -0.000000 1.000000 -0.000000 0.830581 0.357765
-13.297442 -0.000000 -9.562407 -0.000000 1.000000 -0.000000 0.814528 0.340244
-14.145220 -0.000000 -9.605927 0.000000 1.000000 0.000000 0.769561 0.312301
-12.664368 -0.000000 -9.464470 0.000000 1.000000 -0.000000 0.850435 0.357760
-14.284088 -0.000000 -9.607407 -0.000000 1.000000 0.000000 0.762397 0.307434
-14.862934 -0.000000 -9.113842 0.000000 1.000000 -0.000000 0.750318 0.261555
-14.658745 -0.000000 -9.083830 0.000000 1.000000 -0.000000 0.761844 0.267286
-14.377312 -0.000000 -9.056833 0.000000 1.000000 -0.000000 0.777218 0.275919
-14.111685 -0.000000 -9.053801 0.000000 1.000000 -0.000000 0.790929 0.285218
-13.979149 -0.000000 -9.058113 -0.000000 1.000000 -0.000000 0.797563 0.290156
-12.694359 -0.000000 -9.452049 -0.000000 1.000000 -0.000000 0.849341 0.356057
-12.891151 -0.000000 -9.341751 0.000000 1.000000 -0.000000 0.843188 0.343404
-12.769974 -0.000000 -9.407665 0.000000 1.000000 -0.000000 0.847048 0.351093
-13.195964 -0.000000 -9.207428 -0.000000 1.000000 -0.000000 0.832358 0.325677
-12.982735 -0.000000 -9.297064 -0.000000 1.000000 -0.000000 0.840088 0.337856
-13.369942 -0.000000 -9.144920 -0.000000 1.000000 -0.000000 0.825673 0.316284
-13.949255 -0.000000 -9.044123 0.000000 1.000000 -0.000000 0.799592 0.290503
-13.391272 -0.000000 -9.132884 -0.000000 1.000000 -0.000000 0.825009 0.314908
-13.921350 -0.000000 -9.005371 0.000000 1.000000 -0.000000 0.802400 0.289512
-13.927843 -0.000000 -8.969109 0.000000 1.000000 -0.000000 0.803358 0.287424
-13.411265 -0.000000 -9.109198 -0.000000 1.000000 -0.000000 0.824828 0.312983
-13.417437 -0.000000 -9.070210 -0.000000 1.000000 -0.000000 0.825900 0.310767
-13.411507 -0.000000 -9.045448 -0.000000 1.000000 -0.000000 0.827085 0.309710
-13.943176 -0.000000 -8.951576 -0.000000 1.000000 -0.000000 0.803197 0.285980
-13.375155 -0.000000 -8.962015 0.000000 1.000000 -0.000000 0.831916 0.306731
-14.263362 -0.000000 -8.743973 0.000000 1.000000 -0.000000 0.794188 0.263952
-13.336273 -0.000000 -8.881706 -0.000000 1.000000 -0.000000 0.836765 0.304002
-14.315654 -0.000000 -8.727443 0.000000 1.000000 -0.000000 0.792098 0.261245
-14.356110 -0.000000 -8.729805 0.000000 1.000000 -0.000000 0.789943 0.259926
-13.884573 -0.000000 -8.531858 0.000000 1.000000 -0.000000 0.821136 0.266571
-13.282532 -0.000000 -8.798050 0.000000 1.000000 -0.000000 0.842495 0.301630
-13.855537 -0.000000 -8.568069 0.000000 1.000000 -0.000000 0.821335 0.269459
-13.827179 -0.000000 -8.588966 -0.000000 1.000000 -0.000000 0.822043 0.271538
-13.247816 -0.000000 -8.760567 -0.000000 1.000000 -0.000000 0.845607 0.300946
-13.183615 -0.000000 -8.730101 0.000000 1.000000 -0.000000 0.849979 0.301671
-13.814697 -0.000000 -8.595612 -0.000000 1.000000 -0.000000 0.822446 0.272323
-13.781292 -0.000000 -8.600700 0.000000 1.000000 -0.000000 0.823976 0.273772
-13.755913 -0.000000 -8.597427 -0.000000 1.000000 -0.000000 0.825392 0.274508
-13.125674 -0.000000 -8.736328 0.000000 1.000000 -0.000000 0.852725 0.304052
-13.449986 -0.000000 -8.438343 0.000000 1.000000 -0.000000 0.846721 0.277249
-13.083519 -0.000000 -8.761002 -0.000000 1.000000 -0.000000 0.854006 0.306816
-13.435059 -0.000000 -8.409925 0.000000 1.000000 -0.000000 0.848497 0.276325
-13.434568 -0.000000 -8.371628 0.000000 1.000000 -0.000000 0.849885 0.274381
-13.461401 -0.000000 -8.331453 0.000000 1.000000 -0.000000 0.849941 0.271368
-11.609573 -0.000000 -6.938622 0.000000 1.000000 -0.000000 0.994350 0.265945
-11.448700 -0.000000 -7.252670 -0.000000 1.000000 -0.000000 0.991412 0.287754
-11.623749 -0.000000 -7.581062 -0.000000 1.000000 -0.000000 0.970759 0.298341
-11.635559 -0.000000 -7.614021 0.000000 1.000000 -0.000000 0.968982 0.299609
-12.588280 -0.000000 -9.346069 0.000000 1.000000 -0.000000 0.858545 0.354405
-11.688927 -0.000000 -7.819649 0.000000 1.000000 -0.000000 0.958930 0.308240
-11.384438 -0.000000 -8.988403 0.000000 1.000000 -0.000000 0.932927 0.378933
-12.574539 -0.000000 -9.408501 0.000000 1.000000 -0.000000 0.857027 0.358091
-12.575886 -0.000000 -9.376068 0.000000 1.000000 -0.000000 0.858112 0.356382
-11.696892 -0.000000 -7.922882 0.000000 1.000000 -0.000000 0.954848 0.313244
-11.439400 -0.000000 -8.872482 0.000000 1.000000 -0.000000 0.934238 0.371040
-11.568100 -0.000000 -8.493599 0.000000 1.000000 -0.000000 0.941132 0.347056
-11.696434 -0.000000 -7.940941 0.000000 1.000000 -0.000000 0.954229 0.314185
-11.683212 -0.000000 -8.043633 -0.000000 1.000000 -0.000000 0.951251 0.319915
-11.683090 -0.000000 -8.044159 -0.000000 1.000000 -0.000000 0.951239 0.319946
-11.087990 -0.000000 -9.433647 0.000004 1.000000 0.000003 0.932263 0.412286
-10.315194 -0.000000 -10.495050 0.000004 1.000000 0.000003 0.934064 0.494148
-11.434806 0.000007 -11.298645 0.000004 1.000000 0.000003 0.848125 0.495455
-12.242778 0.000007 -10.224303 -0.000162 1.000000 -0.000178 0.844983 0.411678
-12.846539 -0.000000 -9.718211 -0.000162 1.000000 -0.000178 0.832074 0.364272
-12.925745 -0.000000 -9.646208 -0.000162 1.000000 -0.000178 0.830581 0.357765
-12.242778 0.000007 -10.224303 0.000004 1.000000 0.000003 0.844983 0.411678
-11.114777 -0.000000 -9.394157 -0.000000 1.000000 -0.000000 0.932297 0.409310
-11.114777 -0.000000 -9.394157 0.000005 1.000000 0.000003 0.932297 0.409310
-11.087990 -0.000000 -9.433647 0.000005 1.000000 0.000003 0.932263 0.412286
-12.242778 0.000007 -10.224303 0.000005 1.000000 0.000003 0.844983 0.411678
-12.242778 0.000007 -10.224303 -0.000005 1.000000 0.000008 0.844983 0.411678
-12.925745 -0.000000 -9.646208 -0.000005 1.000000 0.000008 0.830581 0.357765
-12.619659 -0.000000 -9.461166 -0.000005 1.000000 0.000008 0.852842 0.359182
-12.587173 -0.000000 -9.434896 -0.000000 1.000000 -0.000000 0.855441 0.358993
-12.242778 0.000007 -10.224303 -0.000006 1.000000 0.000007 0.844983 0.411678
-12.619659 -0.000000 -9.461166 -0.000006 1.000000 0.000007 0.852842 0.359182
-12.587173 -0.000000 -9.434896 -0.000006 1.000000 0.000007 0.855441 0.358993
-12.242778 0.000007 -10.224303 -0.000000 1.000000 0.000010 0.844983 0.411678
-12.587173 -0.000000 -9.434896 -0.000000 1.000000 0.000010 0.855441 0.358993
-11.114777 -0.000000 -9.394157 -0.000000 1.000000 0.000010 0.932297 0.409310
-14.743088 -0.000000 -9.665253 -0.000000 1.000000 -0.000000 0.736831 0.294060
-14.885109 -0.000000 -9.381401 -0.000000 1.000000 -0.000000 0.739660 0.274469
-15.027130 -0.000000 -9.097550 -0.000000 1.000000 0.000000 0.742489 0.254877
-14.914373 -0.000000 -9.044677 -0.000000 1.000000 0.000000 0.750146 0.256183
-14.915146 -0.000000 -9.065293 -0.000000 1.000000 0.000000 0.749372 0.257211
-14.904547 -0.000000 -9.088590 -0.000000 1.000000 -0.000000 0.749086 0.258781
-14.886597 -0.000000 -9.106850 0.000001 1.000000 0.000001 0.749355 0.260355
-14.862934 -0.000000 -9.113842 0.000001 1.000000 0.000001 0.750318 0.261555
-14.284088 -0.000000 -9.607407 0.000001 1.000000 0.000001 0.762397 0.307434
-14.886597 -0.000000 -9.106850 -0.000000 1.000000 -0.000000 0.749355 0.260355
-14.850555 -0.000000 -8.985906 -0.000000 1.000000 -0.000000 0.755506 0.255444
-15.363724 -0.000000 -8.424820 -0.000000 1.000000 -0.000000 0.749194 0.208445
-15.108292 -0.000000 -8.174011 -0.000000 1.000000 -0.000000 0.771202 0.204692
-15.074020 -0.000000 -8.129738 -0.000000 1.000000 -0.000000 0.774533 0.203644
-13.878845 -0.000000 -8.502930 0.000000 1.000000 -0.000000 0.822459 0.265293
-14.869171 -0.000000 -7.859421 0.000000 1.000000 -0.000000 0.794645 0.197091
-13.867340 -0.000000 -8.485344 -0.000000 1.000000 -0.000000 0.823674 0.264802
-14.820076 -0.000000 -7.749386 0.000000 1.000000 -0.000000 0.801075 0.193203
-13.531609 -0.000000 -8.317970 0.000000 1.000000 -0.000000 0.846825 0.268179
-14.807419 -0.000000 -7.686157 -0.000000 1.000000 -0.000000 0.803974 0.190415
-13.504164 -0.000000 -8.315821 -0.000000 1.000000 -0.000000 0.848307 0.269046
-14.799403 -0.000000 -7.601680 -0.000000 1.000000 -0.000000 0.807391 0.186374
-11.707863 -0.000000 -6.942020 0.000000 1.000000 -0.000000 0.989195 0.262620
-11.805237 -0.000000 -6.928299 -0.000000 1.000000 -0.000000 0.984697 0.258452
-14.796402 -0.000000 -7.538101 0.000000 1.000000 -0.000000 0.809807 0.183225
-14.800591 -0.000000 -7.430374 0.000000 1.000000 -0.000000 0.813427 0.177559
-11.898758 -0.000000 -6.897881 -0.000000 1.000000 -0.000000 0.980990 0.253566
-11.985580 -0.000000 -6.851688 0.000000 1.000000 -0.000000 0.978188 0.248110
-14.817917 -0.000000 -7.366112 -0.000000 1.000000 -0.000000 0.814826 0.173651
-14.831528 -0.000000 -7.335350 -0.000000 1.000000 -0.000000 0.815224 0.171591
-12.063049 -0.000000 -6.791119 -0.000000 1.000000 -0.000000 0.976376 0.242251
-12.078621 -0.000000 -6.776020 0.000000 1.000000 -0.000000 0.976116 0.240924
-14.922584 -0.000000 -7.210086 0.000000 1.000000 -0.000000 0.815019 0.161935
-12.177017 -0.000000 -6.594318 0.000000 1.000000 -0.000000 0.977544 0.228116
-12.632401 -0.000000 -6.514542 -0.000000 1.000000 -0.000000 0.957061 0.207823
-12.241920 -0.000000 -6.400181 -0.000000 1.000000 -0.000000 0.981129 0.215864
-12.629959 -0.000000 -6.632771 -0.000000 1.000000 -0.000000 0.952978 0.213965
-15.153717 -0.000000 -7.138649 0.000000 1.000000 -0.000000 0.805725 0.150051
-15.220047 -0.000000 -7.145958 0.000000 1.000000 -0.000000 0.802068 0.148064
-14.779370 -0.000000 -7.060062 0.000000 1.000000 -0.000000 0.827693 0.159349
-14.779370 -0.000000 -7.060062 -0.000002 1.000000 0.000011 0.827693 0.159349
-14.613736 -0.000000 -7.027779 -0.000002 1.000000 0.000011 0.837325 0.163591
-14.302048 -0.000000 -6.971276 -0.000002 1.000000 0.000011 0.855298 0.171790
-14.427067 -0.000000 -6.158739 -0.000000 1.000000 -0.000000 0.877814 0.125728
-14.503672 -0.000000 -5.757176 -0.000000 1.000000 -0.000000 0.888183 0.102437
-13.717010 -0.000000 -5.617111 -0.000000 1.000000 -0.000000 0.933455 0.123261
-15.153717 -0.000000 -7.138649 -0.000001 1.000000 0.000003 0.805725 0.150051
-14.779370 -0.000000 -7.060062 -0.000001 1.000000 0.000003 0.827693 0.159349
-14.302048 -0.000000 -6.971276 -0.000001 1.000000 0.000003 0.855298 0.171790
-14.302048 -0.000000 -6.971276 -0.000000 1.000000 -0.000000 0.855298 0.171790
-13.641563 -0.000000 -5.845490 0.000000 1.000000 -0.000000 0.929191 0.137642
-15.088043 -0.000000 -7.145699 -0.000000 1.000000 -0.000000 0.808837 0.152749
-13.472687 -0.000000 -6.248821 0.000000 1.000000 -0.000000 0.923485 0.164309
-13.356369 -0.000000 -6.499340 0.000000 1.000000 -0.000000 0.920526 0.181278
-12.639931 -0.000000 -6.699120 -0.000000 1.000000 -0.000000 0.950106 0.217008
-12.661270 -0.000000 -6.762730 -0.000000 1.000000 -0.000000 0.946750 0.219506
-13.168770 -0.000000 -6.880741 0.000000 1.000000 -0.000000 0.916559 0.207488
-12.693336 -0.000000 -6.821659 0.000000 1.000000 -0.000000 0.943010 0.221383
-13.140030 -0.000000 -6.922611 0.000000 1.000000 -0.000000 0.916541 0.210655
-13.103249 -0.000000 -6.960312 -0.000000 1.000000 -0.000000 0.917083 0.213895
-12.735153 -0.000000 -6.874142 0.000000 1.000000 -0.000000 0.939001 0.222583
-12.785439 -0.000000 -6.918549 -0.000000 1.000000 -0.000000 0.934845 0.223067
-13.060478 -0.000000 -6.991051 -0.000000 1.000000 -0.000000 0.918179 0.216991
-13.024452 -0.000000 -6.993710 -0.000000 1.000000 -0.000000 0.919929 0.218410
-12.830688 -0.000000 -6.947330 -0.000000 1.000000 -0.000000 0.931503 0.222931
-12.892227 -0.000000 -6.974041 0.000000 1.000000 -0.000000 0.927401 0.222108
-12.957481 -0.000000 -6.989658 -0.000000 1.000000 -0.000000 0.923503 0.220586
3 0 1 2
3 0 2 3
3 4 5 6
3 0 3 7
3 4 6 0
3 8 4 0
3 0 7 9
3 9 10 11
3 11 12 13
3 11 13 14
3 0 9 11
3 15 8 0
3 16 17 15
3 18 19 16
3 20 18 16
3 16 15 0
3 0 11 14
3 0 14 21
3 20 16 0
3 22 20 0
3 0 21 23
3 0 23 24
3 25 22 0
3 26 25 0
3 26 0 24
3 27 26 24
3 27 24 28
3 29 27 28
3 29 28 30
3 31 29 30
3 32 33 34
3 31 30 32
3 35 31 32
3 32 34 36
3 32 36 37
3 38 35 32
3 39 38 32
3 32 37 40
3 32 40 41
3 39 32 41
3 39 41 42
3 43 39 42
3 43 42 44
3 45 43 44
3 45 44 46
3 45 46 47
3 47 48 49
3 49 50 51
3 49 51 52
3 45 47 49
3 53 45 49
3 49 52 54
3 53 49 54
3 55 56 57
3 57 53 54
3 57 54 58
3 59 55 57
3 60 59 57
3 57 58 61
3 57 61 62
3 63 60 57
3 62 63 57
3 64 65 66
3 67 68 69
3 64 66 70
3 56 55 71
3 72 73 74
3 75 76 77
3 78 56 71
3 79 80 81
3 82 83 84
3 9 85 86
3 87 88 89
3 87 89 90
3 9 86 87
3 91 92 93
3 87 90 94
3 87 94 9
3 33 95 96
3 97 98 33
3 96 97 33
3 34 33 98
3 99 34 98
3 99 98 100
3 101 99 100
3 101 100 102
3 103 101 102
3 103 102 104
3 49 48 105
3 105 103 104
3 105 104 106
3 107 49 105
3 108 107 105
3 105 106 109
3 105 109 110
3 111 108 105
3 112 111 105
3 105 110 113
3 105 113 114
3 115 112 105
3 116 115 105
3 105 114 117
3 118 116 105
3 119 120 118
3 121 119 118
3 122 123 124
3 125 126 127
3 128 129 130
3 131 132 133
3 134 128 130
3 134 130 135
3 136 122 134
3 117 136 134
3 134 135 137
3 134 137 138
3 105 117 134
3 139 121 118
3 140 139 118
3 105 134 138
3 105 138 141
3 140 118 105
3 142 140 105
3 105 141 143
3 105 143 144
3 145 142 105
3 146 145 105
3 105 144 147
3 105 147 148
3 149 146 105
3 150 149 105
3 105 148 151
3 151 150 105
