ply
format ascii 1.0
comment Created by Blender 2.78 (sub 0) - www.blender.org, source file: 'soult.blend'
element vertex 77
property float x
property float y
property float z
property float nx
property float ny
property float nz
property float s
property float t
element face 77
property list uchar uint vertex_indices
end_header
-13.363848 -0.000000 -5.909326 -0.000000 1.000000 -0.000000 0.000000 0.000000
-12.826330 -0.000000 -5.805757 -0.000000 1.000000 -0.000000 0.000000 0.000000
-12.758339 -0.000000 -5.860779 -0.000000 1.000000 -0.000000 0.000000 0.000000
-12.632401 -0.000000 -6.514542 -0.000000 1.000000 -0.000000 0.000000 0.000000
-11.609573 -0.000000 -6.938622 0.000000 1.000000 -0.000000 0.000000 0.000000
-11.707863 -0.000000 -6.942020 0.000000 1.000000 -0.000000 0.000000 0.000000
-11.805237 -0.000000 -6.928299 0.000000 1.000000 -0.000000 0.000000 0.000000
-11.898758 -0.000000 -6.897881 -0.000000 1.000000 -0.000000 0.000000 0.000000
-11.985580 -0.000000 -6.851688 -0.000000 1.000000 -0.000000 0.000000 0.000000
-12.063049 -0.000000 -6.791119 -0.000000 1.000000 -0.000000 0.000000 0.000000
-12.078621 -0.000000 -6.776020 -0.000000 1.000000 -0.000000 0.000000 0.000000
-12.177017 -0.000000 -6.594318 0.000000 1.000000 -0.000000 0.000000 0.000000
-12.241920 -0.000000 -6.400181 0.000000 1.000000 -0.000000 0.000000 0.000000
-12.378693 -0.000000 -5.714180 0.000000 1.000000 -0.000000 0.000000 0.000000
-11.789893 -0.000000 -5.621677 0.000000 1.000000 -0.000000 0.000000 0.000000
-11.595262 -0.000000 -6.570515 -0.000000 1.000000 -0.000000 0.000000 0.000000
-11.368191 -0.000000 -6.400211 -0.000000 1.000000 -0.000000 0.000000 0.000000
-11.158185 -0.000000 -6.621416 -0.000000 1.000000 -0.000000 0.000000 0.000000
-11.178619 -0.000000 -6.636440 -0.000000 1.000000 -0.000000 0.000000 0.000000
-11.436020 -0.000000 -6.839169 -0.000000 1.000000 -0.000000 0.000000 0.000000
-11.448700 -0.000000 -7.252670 0.000000 1.000000 -0.000000 0.000000 0.000000
-10.944691 -0.000000 -6.846297 0.000000 1.000000 -0.000000 0.000000 0.000000
-10.759959 -0.000000 -7.040877 0.000000 1.000000 -0.000000 0.000000 0.000000
-11.408737 -0.000000 -7.551792 0.000000 1.000000 -0.000000 0.000000 0.000000
-11.635559 -0.000000 -7.614021 -0.000000 1.000000 -0.000000 0.000000 0.000000
-11.623749 -0.000000 -7.581062 -0.000000 1.000000 -0.000000 0.000000 0.000000
-11.696892 -0.000000 -7.922882 0.000000 1.000000 -0.000000 0.000000 0.000000
-11.688927 -0.000000 -7.819649 0.000000 1.000000 -0.000000 0.000000 0.000000
-11.683212 -0.000000 -8.043633 -0.000000 1.000000 -0.000000 0.000000 0.000000
-11.696434 -0.000000 -7.940941 -0.000000 1.000000 -0.000000 0.000000 0.000000
-11.568100 -0.000000 -8.493599 -0.000000 1.000000 -0.000000 0.000000 0.000000
-11.683090 -0.000000 -8.044159 -0.000000 1.000000 -0.000000 0.000000 0.000000
-11.384438 -0.000000 -8.988403 0.000000 1.000000 -0.000000 0.000000 0.000000
-11.439400 -0.000000 -8.872482 0.000000 1.000000 -0.000000 0.000000 0.000000
-11.087990 -0.000000 -9.433647 0.000000 1.000000 -0.000000 0.000000 0.000000
-11.114777 -0.000000 -9.394157 0.000000 1.000000 -0.000000 0.000000 0.000000
-11.181667 -0.000000 -8.589836 0.000000 1.000000 -0.000000 0.000000 0.000000
-10.792401 -0.000000 -9.173735 0.000000 1.000000 -0.000000 0.000000 0.000000
-11.087990 -0.000000 -9.433647 0.000004 1.000000 0.000003 0.000000 0.000000
-10.315194 -0.000000 -10.495050 0.000004 1.000000 0.000003 0.000000 0.000000
-11.434806 0.000007 -11.298645 0.000004 1.000000 0.000003 0.000000 0.000000
-12.242778 0.000007 -10.224303 -0.000162 1.000000 -0.000178 0.000000 0.000000
-12.846539 -0.000000 -9.718211 -0.000162 1.000000 -0.000178 0.000000 0.000000
-12.925745 -0.000000 -9.646208 -0.000162 1.000000 -0.000178 0.000000 0.000000
-12.242778 0.000007 -10.224303 0.000004 1.000000 0.000003 0.000000 0.000000
-11.114777 -0.000000 -9.394157 0.000005 1.000000 0.000003 0.000000 0.000000
-11.087990 -0.000000 -9.433647 0.000005 1.000000 0.000003 0.000000 0.000000
-12.242778 0.000007 -10.224303 0.000005 1.000000 0.000003 0.000000 0.000000
-11.114777 -0.000000 -9.394157 -0.000002 1.000000 0.000011 0.000000 0.000000
-12.242778 0.000007 -10.224303 -0.000002 1.000000 0.000011 0.000000 0.000000
-12.925745 -0.000000 -9.646208 -0.000002 1.000000 0.000011 0.000000 0.000000
-12.925745 -0.000000 -9.646208 -0.000000 1.000000 -0.000000 0.000000 0.000000
-13.297442 -0.000000 -9.562407 -0.000000 1.000000 -0.000000 0.000000 0.000000
-13.626974 -0.000000 -9.579306 0.000000 1.000000 -0.000000 0.000000 0.000000
-13.860168 -0.000000 -9.657035 -0.000000 1.000000 -0.000000 0.000000 0.000000
-14.598668 -0.000000 -9.942636 -0.000000 1.000000 -0.000000 0.000000 0.000000
-14.743088 -0.000000 -9.665253 -0.000000 1.000000 -0.000000 0.000000 0.000000
-14.885109 -0.000000 -9.381401 0.000000 1.000000 -0.000000 0.000000 0.000000
-15.027130 -0.000000 -9.097550 -0.000000 1.000000 -0.000000 0.000000 0.000000
-14.914371 -0.000000 -9.044675 -0.000000 1.000000 -0.000000 0.000000 0.000000
-14.861451 -0.000000 -9.022022 0.000000 1.000000 -0.000000 0.000000 0.000000
-14.762411 -0.000000 -8.965427 0.000000 1.000000 -0.000000 0.000000 0.000000
-14.514232 -0.000000 -8.812532 -0.000000 1.000000 0.000000 0.000000 0.000000
-14.885109 -0.000000 -9.381401 0.000001 1.000000 -0.000001 0.000000 0.000000
-14.514232 -0.000000 -8.812532 0.000001 1.000000 -0.000001 0.000000 0.000000
-14.329722 -0.000000 -8.626567 0.000001 1.000000 -0.000001 0.000000 0.000000
-14.329722 -0.000000 -8.626567 0.000000 1.000000 -0.000000 0.000000 0.000000
-14.196824 -0.000000 -8.400114 0.000000 1.000000 -0.000000 0.000000 0.000000
-14.156026 -0.000000 -8.130208 0.000000 1.000000 -0.000000 0.000000 0.000000
-14.176014 -0.000000 -7.846039 0.000000 1.000000 0.000000 0.000000 0.000000
-14.228832 -0.000000 -7.429367 0.000000 1.000000 0.000000 0.000000 0.000000
-14.228832 -0.000000 -7.429367 -0.000012 1.000000 -0.000002 0.000000 0.000000
-14.302048 -0.000000 -6.971276 -0.000012 1.000000 -0.000002 0.000000 0.000000
-14.427068 -0.000000 -6.158738 -0.000012 1.000000 -0.000002 0.000000 0.000000
-14.427068 -0.000000 -6.158738 -0.000000 1.000000 -0.000000 0.000000 0.000000
-14.503682 -0.000000 -5.757178 -0.000000 1.000000 -0.000000 0.000000 0.000000
-13.717010 -0.000000 -5.617111 -0.000000 1.000000 -0.000000 0.000000 0.000000
4 0 1 2 3
3 4 5 6
3 6 7 8
3 8 9 10
3 10 11 12
3 12 13 14
3 15 16 17
3 12 14 15
3 8 10 12
3 4 6 8
3 18 19 4
3 15 17 18
3 8 12 15
3 18 4 8
3 8 15 18
3 20 21 22
3 20 22 23
3 24 25 20
3 26 27 24
3 28 29 26
3 30 31 28
3 32 33 30
3 34 35 32
3 36 37 34
3 24 20 23
3 23 36 34
3 34 32 30
3 30 28 26
3 26 24 23
3 23 34 30
3 23 30 26
3 38 39 40
3 41 42 43
3 38 40 44
3 45 46 47
3 48 49 50
3 32 35 51
3 32 51 52
3 33 32 52
3 33 52 53
3 30 33 53
3 54 55 56
3 30 53 54
3 31 30 54
3 54 56 57
3 57 58 59
3 57 59 60
3 31 54 57
3 28 31 57
3 57 60 61
3 57 61 62
3 29 28 57
3 26 29 57
3 63 64 65
3 26 57 66
3 27 26 66
3 27 66 67
3 24 27 67
3 24 67 68
3 4 20 25
3 25 24 68
3 25 68 69
3 5 4 25
3 6 5 25
3 25 69 70
3 71 72 73
3 74 75 76
3 3 12 11
3 74 76 3
3 25 70 74
3 7 6 25
3 8 7 25
3 25 74 3
3 3 11 10
3 9 8 25
3 3 10 9
3 3 9 25
