ply
format ascii 1.0
comment Created by Blender 2.78 (sub 0) - www.blender.org, source file: 'soult.blend'
element vertex 46
property float x
property float y
property float z
property float nx
property float ny
property float nz
element face 31
property list uchar uint vertex_indices
end_header
-15.220047 -0.000000 -7.145958 0.000082 1.000000 -0.000421
-14.779371 -0.000000 -7.060062 0.000082 1.000000 -0.000421
-14.613736 -0.000000 -7.027779 0.000082 1.000000 -0.000421
-14.562354 -0.000000 -7.300105 -0.000000 1.000000 0.000000
-14.500695 -0.000000 -7.608398 -0.000000 1.000000 0.000000
-14.449313 -0.000000 -7.952660 -0.000000 1.000000 0.000000
-15.153717 -0.000000 -7.138649 -0.000000 1.000000 0.000000
-15.220047 -0.000000 -7.145958 -0.000000 1.000000 0.000000
-14.613736 -0.000000 -7.027779 -0.000000 1.000000 0.000000
-15.088043 -0.000000 -7.145699 0.000000 1.000000 -0.000000
-14.449313 -0.000000 -7.952660 -0.000021 1.000000 0.000001
-14.441092 0.000000 -8.193643 -0.000021 1.000000 0.000001
-14.472405 -0.000000 -8.333128 -0.000021 1.000000 0.000001
-14.472405 -0.000000 -8.333128 -0.000005 1.000000 0.000002
-14.497613 -0.000000 -8.445415 -0.000005 1.000000 0.000002
-14.579824 -0.000000 -8.697188 -0.000005 1.000000 0.000002
-14.579824 -0.000000 -8.697188 -0.000005 1.000000 0.000003
-14.677451 -0.000000 -8.871888 -0.000005 1.000000 0.000003
-14.719965 -0.000000 -8.918265 -0.000005 1.000000 0.000003
-14.719965 -0.000000 -8.918265 0.000000 1.000000 -0.000000
-14.762411 -0.000000 -8.965427 0.000000 1.000000 -0.000000
-14.861451 -0.000000 -9.022022 0.000000 1.000000 -0.000000
-14.914371 -0.000000 -9.044675 -0.000000 1.000000 0.000000
-14.907715 -0.000000 -9.025162 -0.000000 1.000000 0.000000
-14.893870 -0.000000 -9.009868 -0.000000 1.000000 -0.000000
-14.876221 -0.000000 -8.999199 -0.000000 1.000000 -0.000000
-14.850555 -0.000000 -8.985906 0.000000 1.000000 -0.000000
-15.363724 -0.000000 -8.424820 0.000000 1.000000 -0.000000
-15.108292 -0.000000 -8.174011 0.000000 1.000000 -0.000000
-14.472405 -0.000000 -8.333128 -0.000001 1.000000 0.000001
-14.579824 -0.000000 -8.697188 -0.000001 1.000000 0.000001
-14.719965 -0.000000 -8.918265 -0.000001 1.000000 0.000001
-14.613736 -0.000000 -7.027779 -0.000001 1.000000 -0.000000
-14.449313 -0.000000 -7.952660 -0.000001 1.000000 -0.000000
-14.472405 -0.000000 -8.333128 -0.000001 1.000000 -0.000000
-14.922584 -0.000000 -7.210086 0.000000 1.000000 -0.000000
-14.831528 -0.000000 -7.335350 0.000000 1.000000 -0.000000
-14.472405 -0.000000 -8.333128 -0.000000 1.000000 -0.000000
-15.074020 -0.000000 -8.129738 -0.000000 1.000000 -0.000000
-14.869171 -0.000000 -7.859421 0.000000 1.000000 -0.000000
-14.817917 -0.000000 -7.366112 0.000000 1.000000 -0.000000
-14.800591 -0.000000 -7.430374 0.000000 1.000000 -0.000000
-14.820076 -0.000000 -7.749386 0.000000 1.000000 -0.000000
-14.807419 -0.000000 -7.686157 -0.000000 1.000000 -0.000000
-14.796402 -0.000000 -7.538101 0.000000 1.000000 -0.000000
-14.799403 -0.000000 -7.601680 -0.000000 1.000000 -0.000000
3 0 1 2
3 3 4 5
3 6 7 8
3 9 6 8
3 8 3 5
3 10 11 12
3 13 14 15
3 16 17 18
3 19 20 21
3 21 22 23
3 23 24 25
3 26 27 28
3 23 25 26
3 19 21 23
3 29 30 31
3 32 33 34
3 35 9 8
3 36 35 8
3 8 37 19
3 19 23 26
3 26 28 38
3 26 38 39
3 8 19 26
3 40 36 8
3 41 40 8
3 26 39 42
3 26 42 43
3 44 41 8
3 26 43 45
3 45 44 8
3 8 26 45
