ply
format ascii 1.0
comment Created by Blender 2.78 (sub 0) - www.blender.org, source file: 'soult.blend'
element vertex 21
property float x
property float y
property float z
property float nx
property float ny
property float nz
element face 9
property list uchar uint vertex_indices
end_header
-13.717010 -0.000000 -5.617111 0.000003 1.000000 0.000003
-12.632401 -0.000000 -6.514542 0.000003 1.000000 0.000003
-12.569278 0.000001 -6.843007 0.000003 1.000000 0.000003
-12.569278 0.000001 -6.843007 0.000002 1.000000 -0.000001
-12.585970 0.000000 -7.053219 0.000002 1.000000 -0.000001
-12.671557 0.000000 -7.208234 0.000002 1.000000 -0.000001
-12.671557 0.000000 -7.208234 0.000001 1.000000 -0.000000
-12.788819 0.000001 -7.282307 0.000001 1.000000 -0.000000
-12.920450 0.000001 -7.334410 0.000001 1.000000 -0.000000
-12.920450 0.000001 -7.334410 0.000002 1.000000 0.000000
-13.057837 0.000001 -7.342391 0.000002 1.000000 0.000000
-13.187826 0.000001 -7.323542 0.000002 1.000000 0.000000
-13.187826 0.000001 -7.323542 0.000001 1.000000 -0.000001
-13.341690 0.000001 -7.222007 0.000001 1.000000 -0.000001
-13.445141 0.000002 -7.038628 0.000001 1.000000 -0.000001
-13.445141 0.000002 -7.038628 0.000001 1.000000 0.000001
-13.717010 -0.000000 -5.617111 0.000001 1.000000 0.000001
-12.569278 0.000001 -6.843007 0.000001 1.000000 0.000001
-12.569278 0.000001 -6.843007 0.000001 1.000000 -0.000001
-12.671557 0.000000 -7.208234 0.000001 1.000000 -0.000001
-12.920450 0.000001 -7.334410 0.000001 1.000000 -0.000001
3 0 1 2
3 3 4 5
3 6 7 8
3 9 10 11
3 12 13 14
3 15 16 17
3 18 19 20
3 20 12 14
3 18 20 14
