ply
format ascii 1.0
comment Created by Blender 2.78 (sub 0) - www.blender.org, source file: 'soult.blend'
element vertex 203
property float x
property float y
property float z
property float nx
property float ny
property float nz
element face 129
property list uchar uint vertex_indices
end_header
-13.781292 -0.000000 -8.600700 -0.000000 1.000000 -0.000000
-13.755913 -0.000000 -8.597427 -0.000000 1.000000 -0.000000
-13.411507 -0.000000 -9.045448 -0.000000 1.000000 -0.000000
-12.619659 -0.000000 -9.461166 0.000000 1.000000 -0.000000
-13.267250 -0.000000 -9.852661 0.000000 1.000000 -0.000000
-13.285917 -0.000000 -9.797937 0.000000 1.000000 -0.000000
-13.285917 -0.000000 -9.797937 -0.657836 -0.000000 -0.753161
-13.313766 -0.000000 -9.773613 -0.657836 -0.000000 -0.753161
-13.313766 0.851814 -9.773613 -0.657836 -0.000000 -0.753161
-13.549042 0.851814 -9.700706 0.451058 0.000000 -0.892494
-13.549042 -0.000000 -9.700706 0.451058 0.000000 -0.892494
-13.560364 -0.000000 -9.706429 0.451058 0.000000 -0.892494
-12.619659 -0.000000 -9.461166 0.450748 0.040201 -0.891746
-13.285917 -0.000000 -9.797937 0.450748 0.040201 -0.891746
-13.313766 0.851814 -9.773613 0.450748 0.040201 -0.891746
-12.619659 -0.000000 -9.461166 0.254755 0.509142 0.822116
-13.313766 0.851814 -9.773613 0.254755 0.509142 0.822116
-13.549042 0.851814 -9.700706 0.254755 0.509142 0.822116
-13.814697 -0.000000 -8.595612 0.000000 1.000000 -0.000000
-13.411507 -0.000000 -9.045448 0.370769 0.603133 0.706230
-12.619659 -0.000000 -9.461166 0.370769 0.603133 0.706230
-13.549042 0.851814 -9.700706 0.370769 0.603133 0.706230
-13.560364 -0.000000 -9.706429 -0.000000 1.000000 -0.000000
-13.577530 -0.000000 -9.933540 -0.000000 1.000000 -0.000000
-13.889236 -0.000000 -10.000381 -0.000000 1.000000 -0.000000
-13.411507 -0.000000 -9.045448 -0.975502 0.011490 0.219690
-13.549042 0.851814 -9.700706 -0.975502 0.011490 0.219690
-13.560364 -0.000000 -9.706429 -0.975502 0.011490 0.219690
-13.827179 -0.000000 -8.588966 -0.000000 1.000000 -0.000000
-13.855537 -0.000000 -8.568069 -0.000000 1.000000 -0.000000
-13.879494 -0.000000 -9.980040 0.000000 1.000000 -0.000000
-13.872158 -0.000000 -9.861916 -0.000000 1.000000 -0.000000
-13.858513 -0.000000 -9.628761 0.000000 1.000000 -0.000000
-13.884573 -0.000000 -8.531858 -0.000000 1.000000 -0.000000
-13.641563 0.425907 -5.845490 0.268674 0.947057 -0.175774
-13.867340 -0.000000 -8.485344 0.268674 0.947057 -0.175774
-13.878845 -0.000000 -8.502930 0.268674 0.947057 -0.175774
-13.641563 0.425907 -5.845490 0.816700 0.553943 -0.161703
-13.878845 -0.000000 -8.502930 0.816700 0.553943 -0.161703
-13.884573 -0.000000 -8.531858 0.816700 0.553943 -0.161703
-14.650432 -0.000000 -6.198513 0.330283 0.000000 -0.943882
-14.650432 0.851814 -6.198513 0.330283 0.000000 -0.943882
-13.641563 0.425907 -5.845490 0.330283 0.000000 -0.943882
-14.613736 -0.000000 -7.027779 0.000000 1.000000 -0.000000
-14.779371 -0.000000 -7.060062 0.000000 1.000000 -0.000000
-14.713902 -0.000000 -6.714509 0.000000 1.000000 -0.000000
-14.713902 -0.000000 -6.714509 -0.403125 0.913801 0.049587
-14.650432 -0.000000 -6.198513 -0.403125 0.913801 0.049587
-13.641563 0.425907 -5.845490 -0.403125 0.913801 0.049587
-14.713902 -0.000000 -6.714509 -0.276257 0.952780 -0.126067
-13.641563 0.425907 -5.845490 -0.276257 0.952780 -0.126067
-13.884573 -0.000000 -8.531858 -0.276257 0.952780 -0.126067
-14.500695 -0.000000 -7.608398 -0.000000 1.000000 0.000000
-14.562354 -0.000000 -7.300105 -0.000000 1.000000 0.000000
-14.145220 -0.000000 -9.605927 0.000000 1.000000 -0.000000
-14.284088 -0.000000 -9.607407 0.000000 1.000000 -0.000000
-14.862934 -0.000000 -9.113842 0.000000 1.000000 -0.000000
-14.658745 -0.000000 -9.083830 -0.000000 1.000000 -0.000000
-14.377312 -0.000000 -9.056833 -0.000000 1.000000 -0.000000
-14.111685 -0.000000 -9.053801 0.000000 1.000000 -0.000000
-14.034693 -0.000000 -9.611000 0.000000 1.000000 -0.000000
-14.449313 -0.000000 -7.952660 0.000000 1.000000 0.000000
-14.441092 0.000000 -8.193643 0.000002 1.000000 0.000002
-14.449313 -0.000000 -7.952660 0.000002 1.000000 0.000002
-13.884573 -0.000000 -8.531858 0.000002 1.000000 0.000002
-14.497613 -0.000000 -8.445415 -0.621102 0.771227 0.139432
-14.472405 -0.000000 -8.333128 -0.621102 0.771227 0.139432
-14.441092 0.000000 -8.193643 -0.621102 0.771227 0.139432
-13.858513 -0.000000 -9.628761 -0.915204 -0.000000 -0.402991
-14.111685 -0.000000 -9.053801 -0.915204 -0.000000 -0.402991
-14.111685 0.851814 -9.053801 -0.915204 -0.000000 -0.402991
-14.356110 -0.000000 -8.729805 0.000002 1.000000 -0.000003
-14.719965 -0.000000 -8.918265 0.000002 1.000000 -0.000003
-14.677451 -0.000000 -8.871888 0.000002 1.000000 -0.000003
-14.356110 -0.000000 -8.729805 0.000000 1.000000 -0.000000
-14.677451 -0.000000 -8.871888 0.000000 1.000000 -0.000000
-14.579824 -0.000000 -8.697188 0.000000 1.000000 -0.000000
-14.315654 -0.000000 -8.727443 0.000000 1.000000 -0.000002
-14.356110 -0.000000 -8.729805 0.000000 1.000000 -0.000002
-14.579824 -0.000000 -8.697188 0.000000 1.000000 -0.000002
-14.497613 -0.000000 -8.445415 -0.000000 1.000000 -0.000002
-14.441092 0.000000 -8.193643 -0.000000 1.000000 -0.000002
-13.884573 -0.000000 -8.531858 -0.000000 1.000000 -0.000002
-14.315654 -0.000000 -8.727443 0.000000 1.000000 -0.000000
-14.497613 -0.000000 -8.445415 0.000000 1.000000 -0.000000
-14.263362 -0.000000 -8.743973 -0.000000 1.000000 -0.000000
-13.943176 -0.000000 -8.951576 -0.000000 1.000000 -0.000000
-14.111685 0.851814 -9.053801 -0.032521 0.000000 -0.999471
-13.979149 0.851814 -9.058113 -0.032521 0.000000 -0.999471
-13.979149 -0.000000 -9.058113 -0.032521 0.000000 -0.999471
-13.858513 -0.000000 -9.628761 0.967384 0.149482 0.204507
-14.111685 0.851814 -9.053801 0.967384 0.149482 0.204507
-13.979149 -0.000000 -9.058113 0.967384 0.149482 0.204507
-13.927843 -0.000000 -8.969109 -0.000000 1.000000 -0.000000
-13.921350 -0.000000 -9.005371 -0.000000 1.000000 -0.000000
-13.979149 -0.000000 -9.058113 0.000000 1.000000 -0.000000
-13.949255 -0.000000 -9.044123 0.000000 1.000000 -0.000000
-12.588280 0.851814 -9.346069 -0.694350 0.482671 -0.533766
-13.411507 -0.000000 -9.045448 -0.694350 0.482671 -0.533766
-13.755913 -0.000000 -8.597427 -0.694350 0.482671 -0.533766
-13.755913 -0.000000 -8.597427 -0.146221 0.978513 -0.145365
-13.867340 -0.000000 -8.485344 -0.146221 0.978513 -0.145365
-13.641563 0.425907 -5.845490 -0.146221 0.978513 -0.145365
-13.755913 -0.000000 -8.597427 0.885487 0.452228 -0.106784
-13.641563 0.425907 -5.845490 0.885487 0.452228 -0.106784
-13.472687 -0.000000 -6.248821 0.885487 0.452228 -0.106784
-12.588280 -0.000000 -9.346069 0.539747 0.000000 0.841827
-12.588280 0.851814 -9.346069 0.539747 0.000000 0.841827
-13.755913 -0.000000 -8.597427 0.539747 0.000000 0.841827
-11.384438 -0.000000 -8.988403 0.000000 1.000000 -0.000000
-12.574539 -0.000000 -9.408501 0.000000 1.000000 -0.000000
-12.575886 -0.000000 -9.376068 0.000000 1.000000 -0.000000
-12.588280 -0.000000 -9.346069 0.000000 1.000000 -0.000000
-13.472687 -0.000000 -6.248821 0.000000 1.000000 -0.000000
-11.568100 0.851814 -8.493599 0.946864 -0.000000 0.321634
-11.568100 -0.000000 -8.493599 0.946864 -0.000000 0.321634
-11.439400 -0.000000 -8.872482 0.946864 -0.000000 0.321634
-11.439400 -0.000000 -8.872482 0.000000 1.000000 -0.000000
-13.356369 -0.000000 -6.499340 -0.000000 1.000000 -0.000000
-13.168770 -0.000000 -6.880741 0.000000 1.000000 -0.000000
-11.568100 0.851814 -8.493599 0.345069 0.424477 -0.837106
-11.439400 -0.000000 -8.872482 0.345069 0.424477 -0.837106
-12.588280 -0.000000 -9.346069 0.345069 0.424477 -0.837106
-11.683212 -0.000000 -8.043633 0.974153 0.000000 0.225890
-11.683090 -0.000000 -8.044159 0.974153 0.000000 0.225890
-11.683090 0.851814 -8.044159 0.974153 0.000000 0.225890
-11.683090 0.851814 -8.044159 -0.560885 0.815361 -0.143504
-11.568100 0.851814 -8.493599 -0.560885 0.815361 -0.143504
-12.588280 -0.000000 -9.346069 -0.560885 0.815361 -0.143504
-13.140030 -0.000000 -6.922611 0.000000 1.000000 -0.000000
-13.103249 -0.000000 -6.960312 -0.000000 1.000000 -0.000000
-11.696434 -0.000000 -7.940941 0.991813 -0.000063 0.127698
-11.683212 -0.000000 -8.043633 0.991813 -0.000063 0.127698
-11.683090 0.851814 -8.044159 0.991813 -0.000063 0.127698
-13.060478 -0.000000 -6.991051 -0.000000 1.000000 -0.000000
-13.060478 -0.000000 -6.991051 0.073603 0.000000 0.997288
-13.024452 -0.000000 -6.993710 0.073603 0.000000 0.997288
-13.024452 0.851814 -6.993710 0.073603 0.000000 0.997288
-12.588280 -0.000000 -9.346069 -0.979668 0.040820 -0.196431
-13.060478 -0.000000 -6.991051 -0.979668 0.040820 -0.196431
-13.024452 0.851814 -6.993710 -0.979668 0.040820 -0.196431
-11.696434 -0.000000 -7.940941 -0.841727 0.077923 0.534250
-11.683090 0.851814 -8.044159 -0.841727 0.077923 0.534250
-12.588280 -0.000000 -9.346069 -0.841727 0.077923 0.534250
-11.696892 -0.000000 -7.922882 0.000000 1.000000 -0.000000
-11.696434 -0.000000 -7.940941 0.000000 1.000000 -0.000000
-12.588280 -0.000000 -9.346069 0.020390 0.941262 -0.337060
-13.024452 0.851814 -6.993710 0.020390 0.941262 -0.337060
-12.957481 0.851814 -6.989658 0.020390 0.941262 -0.337060
-12.588280 -0.000000 -9.346069 0.987947 -0.000000 0.154791
-12.957481 0.851814 -6.989658 0.987947 -0.000000 0.154791
-12.957481 -0.000000 -6.989658 0.987947 -0.000000 0.154791
-11.688927 -0.000000 -7.819649 0.000000 1.000000 -0.000000
-11.635559 -0.000000 -7.614021 -0.000000 1.000000 -0.000000
-12.957481 -0.000000 -6.989658 -0.000000 1.000000 -0.000000
-12.892227 -0.000000 -6.974041 -0.000000 1.000000 -0.000000
-12.830688 -0.000000 -6.947330 0.000000 1.000000 -0.000000
-11.623749 -0.000000 -7.581062 -0.000000 1.000000 -0.000000
-11.609573 -0.000000 -6.938622 -0.000000 1.000000 -0.000000
-11.448700 -0.000000 -7.252670 -0.000000 1.000000 -0.000000
-11.805237 0.851814 -6.928299 0.139537 -0.000000 0.990217
-11.805237 -0.000000 -6.928299 0.139537 -0.000000 0.990217
-11.707863 -0.000000 -6.942020 0.139537 -0.000000 0.990217
-11.707863 -0.000000 -6.942020 0.000000 1.000000 -0.000000
-12.785439 -0.000000 -6.918549 -0.000000 1.000000 -0.000000
-11.805237 0.851814 -6.928299 0.985371 0.110552 0.129700
-11.707863 -0.000000 -6.942020 0.985371 0.110552 0.129700
-11.623749 -0.000000 -7.581062 0.985371 0.110552 0.129700
-11.985580 -0.000000 -6.851688 0.469692 0.000000 0.882830
-11.898758 -0.000000 -6.897881 0.469692 0.000000 0.882830
-11.898758 0.851814 -6.897881 0.469692 0.000000 0.882830
-11.898758 0.851814 -6.897881 -0.257813 0.552491 -0.792645
-11.805237 0.851814 -6.928299 -0.257813 0.552491 -0.792645
-11.623749 -0.000000 -7.581062 -0.257813 0.552491 -0.792645
-12.735153 -0.000000 -6.874142 -0.000000 1.000000 -0.000000
-12.693336 -0.000000 -6.821659 0.000000 1.000000 -0.000000
-11.985580 -0.000000 -6.851688 -0.893809 0.067058 -0.443406
-11.898758 0.851814 -6.897881 -0.893809 0.067058 -0.443406
-11.623749 -0.000000 -7.581062 -0.893809 0.067058 -0.443406
-12.063049 -0.000000 -6.791119 -0.000000 1.000000 -0.000000
-11.985580 -0.000000 -6.851688 -0.000000 1.000000 -0.000000
-12.661270 -0.000000 -6.762730 0.000000 1.000000 -0.000000
-12.639931 -0.000000 -6.699120 0.000000 1.000000 -0.000000
-12.078621 -0.000000 -6.776020 0.000000 1.000000 -0.000000
-12.632401 -0.000000 -6.514542 -0.000000 1.000000 -0.000000
-12.241920 -0.000000 -6.400181 -0.000000 1.000000 -0.000000
-12.177017 -0.000000 -6.594318 -0.000000 1.000000 -0.000000
-12.629959 -0.000000 -6.632771 0.000000 1.000000 -0.000000
-13.878845 -0.000000 -8.502930 -0.000000 1.000000 -0.000000
-13.867340 -0.000000 -8.485344 -0.000000 1.000000 -0.000000
-14.862934 -0.000000 -9.113842 0.000001 1.000000 0.000001
-14.887390 -0.000000 -9.104556 0.000001 1.000000 0.000001
-14.903897 -0.000000 -9.090407 0.000001 1.000000 0.000001
-14.903897 -0.000000 -9.090407 0.000000 1.000000 0.000000
-14.915688 -0.000000 -9.062110 0.000000 1.000000 0.000000
-14.915688 -0.000000 -9.040887 0.000000 1.000000 0.000000
-14.861451 -0.000000 -9.022022 0.000000 1.000000 -0.000000
-14.762411 -0.000000 -8.965427 0.000000 1.000000 0.000000
-14.719965 -0.000000 -8.918265 -0.000000 1.000000 0.000000
-13.979149 -0.000000 -9.058113 0.032521 0.000000 0.999471
-13.979149 0.851814 -9.058113 0.032521 0.000000 0.999471
-14.111685 0.851814 -9.053801 0.032521 0.000000 0.999471
-14.111685 -0.000000 -9.053801 0.032521 -0.000000 0.999471
3 0 1 2
3 3 4 5
3 6 7 8
3 9 10 11
3 12 13 14
3 15 16 17
3 18 0 2
3 19 20 21
3 22 23 24
3 25 26 27
3 28 18 2
3 29 28 2
3 2 22 24
3 2 24 30
3 2 30 31
3 2 31 32
3 29 2 32
3 33 29 32
3 34 35 36
3 37 38 39
3 40 41 42
3 43 44 45
3 46 47 48
3 49 50 51
3 52 53 43
3 43 45 33
3 54 55 56
3 56 57 58
3 56 58 59
3 60 54 56
3 52 43 33
3 61 52 33
3 32 60 56
3 32 56 59
3 62 63 64
3 65 66 67
3 68 69 70
3 71 72 73
3 74 75 76
3 77 78 79
3 80 81 82
3 83 76 84
3 85 83 84
3 86 85 84
3 86 84 33
3 87 88 89
3 90 91 92
3 93 86 33
3 94 93 33
3 32 95 96
3 94 33 32
3 32 96 94
3 97 98 99
3 100 101 102
3 103 104 105
3 106 107 108
3 109 110 111
3 112 1 113
3 109 111 112
3 114 115 116
3 117 109 112
3 112 113 118
3 112 118 119
3 120 121 122
3 123 124 125
3 126 127 128
3 112 119 129
3 112 129 130
3 131 132 133
3 112 130 134
3 135 136 137
3 138 139 140
3 141 142 143
3 144 145 112
3 146 147 148
3 149 150 151
3 152 144 112
3 153 152 112
3 112 154 155
3 112 155 156
3 157 153 112
3 158 159 157
3 160 161 162
3 163 158 157
3 157 112 156
3 157 156 164
3 165 166 167
3 168 169 170
3 171 172 173
3 157 164 174
3 157 174 175
3 176 177 178
3 179 180 157
3 157 175 181
3 157 181 182
3 183 179 157
3 184 185 186
3 183 157 182
3 184 186 183
3 183 182 187
3 187 184 183
3 3 2 112
3 112 111 110
3 112 110 3
3 33 188 189
3 189 1 0
3 0 18 28
3 28 29 33
3 33 189 0
3 0 28 33
3 190 191 192
3 193 194 195
3 193 195 196
3 57 56 193
3 58 57 193
3 193 196 197
3 197 198 74
3 74 83 85
3 85 86 93
3 93 94 96
3 199 200 201
3 93 96 95
3 74 85 93
3 193 197 74
3 58 193 74
3 74 93 95
3 199 201 202
3 59 58 74
3 74 95 59
