ply
format ascii 1.0
comment Created by Blender 2.78 (sub 0) - www.blender.org, source file: 'soult.blend'
element vertex 121
property float x
property float y
property float z
property float nx
property float ny
property float nz
property float s
property float t
element face 53
property list uchar uint vertex_indices
end_header
-11.087990 -0.000000 -9.433647 0.000004 1.000000 0.000003 0.726563 0.598211
-10.315194 -0.000000 -10.495050 0.000004 1.000000 0.000003 0.689143 0.519284
-11.434806 0.000007 -11.298645 0.000004 1.000000 0.000003 0.772256 0.480568
-12.242778 0.000007 -10.224303 -0.000162 1.000000 -0.000178 0.811816 0.560776
-12.846539 -0.000000 -9.718211 -0.000162 1.000000 -0.000178 0.845040 0.601314
-12.925745 -0.000000 -9.646208 -0.000162 1.000000 -0.000178 0.849330 0.606998
-12.242778 0.000007 -10.224303 0.000004 1.000000 0.000003 0.811816 0.560776
-11.791059 0.000001 -8.424306 0.000052 1.000000 0.000035 0.760067 0.672871
-11.114777 -0.000000 -9.394157 0.000052 1.000000 0.000035 0.727827 0.601123
-11.087990 -0.000000 -9.433647 0.000052 1.000000 0.000035 0.726563 0.598211
-11.791059 0.000001 -8.424306 0.000005 1.000000 0.000002 0.760067 0.672871
-11.087990 -0.000000 -9.433647 0.000005 1.000000 0.000002 0.726563 0.598211
-12.242778 0.000007 -10.224303 0.000005 1.000000 0.000002 0.811816 0.560776
-11.791059 0.000001 -8.424306 -0.000007 1.000000 0.000005 0.760067 0.672871
-12.242778 0.000007 -10.224303 -0.000007 1.000000 0.000005 0.811816 0.560776
-12.925745 -0.000000 -9.646208 -0.000007 1.000000 0.000005 0.849330 0.606998
-11.892432 0.000001 -8.235080 -0.000001 1.000000 -0.000000 0.764362 0.686505
-11.791059 0.000001 -8.424306 -0.000001 1.000000 -0.000000 0.760067 0.672871
-12.925745 -0.000000 -9.646208 -0.000001 1.000000 -0.000000 0.849330 0.606998
-11.892432 0.000001 -8.235080 -0.000000 1.000000 -0.000001 0.764362 0.686505
-12.925745 -0.000000 -9.646208 -0.000000 1.000000 -0.000001 0.849330 0.606998
-13.297442 -0.000000 -9.562407 -0.000000 1.000000 -0.000001 0.872595 0.617065
-11.953256 -0.000000 -8.066128 -0.000004 1.000000 0.000004 0.766251 0.698293
-11.892432 0.000001 -8.235080 -0.000004 1.000000 0.000004 0.764362 0.686505
-13.297442 -0.000000 -9.562407 -0.000004 1.000000 0.000004 0.872595 0.617065
-11.953256 -0.000000 -8.066128 0.000000 1.000000 -0.000000 0.766251 0.698293
-13.297442 -0.000000 -9.562407 0.000000 1.000000 -0.000000 0.872595 0.617065
-13.626974 -0.000000 -9.579306 0.000000 1.000000 -0.000000 0.894346 0.620027
-11.960012 -0.000000 -7.903933 -0.000000 1.000000 -0.000000 0.764689 0.708978
-13.860169 -0.000000 -9.657037 0.000000 1.000000 -0.000000 0.910551 0.617824
-14.598669 -0.000000 -9.942636 0.000000 1.000000 -0.000000 0.962355 0.608268
-14.743088 -0.000000 -9.665253 0.000000 1.000000 -0.000000 0.968373 0.628185
-11.939739 0.000001 -7.748496 0.000006 1.000000 -0.000007 0.761446 0.718890
-11.960012 -0.000000 -7.903933 0.000006 1.000000 -0.000007 0.764689 0.708978
-13.860169 -0.000000 -9.657037 0.000006 1.000000 -0.000007 0.910551 0.617824
-14.885109 -0.000000 -9.381401 0.000000 1.000000 -0.000000 0.974154 0.648494
-15.027130 -0.000000 -9.097550 -0.000000 1.000000 -0.000000 0.979935 0.668804
-14.914373 -0.000000 -9.044677 -0.000000 1.000000 -0.000000 0.971911 0.670869
-14.863253 -0.000000 -9.023246 0.000000 1.000000 -0.000000 0.968304 0.671639
-11.939739 0.000001 -7.748496 -0.000000 1.000000 -0.000000 0.761446 0.718890
-11.872159 0.000002 -7.626851 0.000006 1.000000 -0.000011 0.755526 0.726007
-11.939739 0.000001 -7.748496 0.000006 1.000000 -0.000011 0.761446 0.718890
-14.885109 -0.000000 -9.381401 0.000006 1.000000 -0.000011 0.974154 0.648494
-14.768228 -0.000000 -8.970951 0.000000 1.000000 -0.000000 0.961447 0.673885
-14.514232 -0.000000 -8.812532 -0.000000 1.000000 0.000000 0.942886 0.681106
-11.770788 -0.000000 -7.511964 -0.000021 1.000000 0.000035 0.747483 0.732268
-11.872159 0.000002 -7.626851 -0.000021 1.000000 0.000035 0.755526 0.726007
-14.885109 -0.000000 -9.381401 -0.000021 1.000000 0.000035 0.974154 0.648494
-11.448700 -0.000000 -7.252670 -0.000420 1.000000 0.000521 0.723225 0.745244
-11.676173 0.000001 -7.437624 -0.000420 1.000000 0.000521 0.740379 0.735960
-11.770788 -0.000000 -7.511964 -0.000420 1.000000 0.000521 0.747483 0.732268
-11.707863 -0.000000 -6.942020 0.000000 1.000000 -0.000000 0.736333 0.768751
-11.609573 -0.000000 -6.938622 0.000000 1.000000 -0.000000 0.729866 0.767760
-11.448700 -0.000000 -7.252670 0.000000 1.000000 -0.000000 0.723225 0.745244
-11.805237 -0.000000 -6.928299 -0.000000 1.000000 -0.000000 0.742530 0.770850
-11.770788 -0.000000 -7.511964 0.000000 1.000000 -0.000000 0.747483 0.732268
-14.885109 -0.000000 -9.381401 0.000001 1.000000 -0.000001 0.974154 0.648494
-14.514232 -0.000000 -8.812532 0.000001 1.000000 -0.000001 0.942886 0.681106
-14.329722 -0.000000 -8.626567 0.000001 1.000000 -0.000001 0.928529 0.690986
-14.329722 -0.000000 -8.626567 0.000000 1.000000 -0.000000 0.928529 0.690986
-11.898758 -0.000000 -6.897881 -0.000000 1.000000 -0.000000 0.748268 0.773993
-11.985580 -0.000000 -6.851688 0.000000 1.000000 -0.000000 0.753374 0.778085
-14.196824 -0.000000 -8.400114 0.000000 1.000000 -0.000000 0.917045 0.704150
-14.156026 -0.000000 -8.130208 0.000000 1.000000 -0.000000 0.911047 0.721292
-12.632401 -0.000000 -6.514542 -0.000000 1.000000 -0.000000 0.791498 0.808109
-12.241920 -0.000000 -6.400181 -0.000000 1.000000 -0.000000 0.764559 0.810766
-12.177017 -0.000000 -6.594318 -0.000000 1.000000 -0.000000 0.762712 0.797273
-12.569278 0.000001 -6.843007 0.000001 1.000000 0.000003 0.791426 0.785857
-12.632401 -0.000000 -6.514542 0.000001 1.000000 0.000003 0.791498 0.808109
-12.177017 -0.000000 -6.594318 0.000001 1.000000 0.000003 0.762712 0.797273
-12.569278 0.000001 -6.843007 0.000002 1.000000 0.000001 0.791426 0.785857
-12.177017 -0.000000 -6.594318 0.000002 1.000000 0.000001 0.762712 0.797273
-12.078621 -0.000000 -6.776020 0.000002 1.000000 0.000001 0.758523 0.784180
-12.585970 0.000000 -7.053219 0.000002 1.000000 -0.000001 0.795112 0.772320
-12.569278 0.000001 -6.843007 0.000002 1.000000 -0.000001 0.791426 0.785857
-12.078621 -0.000000 -6.776020 0.000002 1.000000 -0.000001 0.758523 0.784180
-12.585970 0.000000 -7.053219 0.000001 1.000000 0.000001 0.795112 0.772320
-12.078621 -0.000000 -6.776020 0.000001 1.000000 0.000001 0.758523 0.784180
-12.063049 -0.000000 -6.791119 0.000001 1.000000 0.000001 0.757691 0.783001
-12.671557 0.000000 -7.208234 0.000002 1.000000 -0.000001 0.802620 0.763243
-12.063049 -0.000000 -6.791119 0.000002 1.000000 -0.000001 0.757691 0.783001
-14.228832 -0.000000 -7.429367 -0.000012 1.000000 -0.000002 0.907156 0.768007
-14.302048 -0.000000 -6.971276 -0.000012 1.000000 -0.000002 0.906288 0.798859
-14.427067 -0.000000 -6.158738 -0.000012 1.000000 -0.000002 0.904432 0.853521
-14.427067 -0.000000 -6.158738 -0.000000 1.000000 -0.000000 0.904432 0.853521
-14.503672 -0.000000 -5.757176 -0.000000 1.000000 -0.000000 0.904484 0.880719
-13.717010 -0.000000 -5.617111 -0.000000 1.000000 -0.000000 0.851327 0.880166
-14.427067 -0.000000 -6.158738 -0.000001 1.000000 0.000001 0.904432 0.853521
-13.717010 -0.000000 -5.617111 -0.000001 1.000000 0.000001 0.851327 0.880166
-13.445141 0.000002 -7.038628 -0.000001 1.000000 0.000001 0.851100 0.783879
-14.228832 -0.000000 -7.429367 -0.000002 1.000000 -0.000000 0.907156 0.768007
-14.427067 -0.000000 -6.158738 -0.000002 1.000000 -0.000000 0.904432 0.853521
-13.445141 0.000002 -7.038628 -0.000002 1.000000 -0.000000 0.851100 0.783879
-14.228832 -0.000000 -7.429367 -0.000001 1.000000 -0.000002 0.907156 0.768007
-13.445141 0.000002 -7.038628 -0.000001 1.000000 -0.000002 0.851100 0.783879
-13.341690 0.000001 -7.222007 -0.000001 1.000000 -0.000002 0.846600 0.770614
-14.176014 -0.000000 -7.846039 -0.000002 1.000000 -0.000000 0.908846 0.740116
-13.341690 0.000001 -7.222007 -0.000002 1.000000 -0.000000 0.846600 0.770614
-14.176014 -0.000000 -7.846039 -0.000000 1.000000 -0.000003 0.908846 0.740116
-13.341690 0.000001 -7.222007 -0.000000 1.000000 -0.000003 0.846600 0.770614
-13.187826 0.000001 -7.323542 -0.000000 1.000000 -0.000003 0.837794 0.762077
-12.671557 0.000000 -7.208234 0.000001 1.000000 0.000001 0.802620 0.763243
-11.985580 -0.000000 -6.851688 0.000001 1.000000 0.000001 0.753374 0.778085
-12.788819 0.000001 -7.282307 0.000004 1.000000 -0.000005 0.811201 0.759848
-12.671557 0.000000 -7.208234 0.000004 1.000000 -0.000005 0.802620 0.763243
-11.985580 -0.000000 -6.851688 0.000004 1.000000 -0.000005 0.753374 0.778085
-14.156026 -0.000000 -8.130208 -0.000001 1.000000 -0.000000 0.911047 0.721292
-14.176014 -0.000000 -7.846039 -0.000001 1.000000 -0.000000 0.908846 0.740116
-13.187826 0.000001 -7.323542 -0.000001 1.000000 -0.000000 0.837794 0.762077
-14.156026 -0.000000 -8.130208 0.000001 1.000000 -0.000003 0.911047 0.721292
-13.187826 0.000001 -7.323542 0.000001 1.000000 -0.000003 0.837794 0.762077
-13.057837 0.000001 -7.342391 0.000001 1.000000 -0.000003 0.829529 0.759240
-12.788819 0.000001 -7.282307 0.000012 1.000000 -0.000020 0.811201 0.759848
-11.985580 -0.000000 -6.851688 0.000012 1.000000 -0.000020 0.753374 0.778085
-14.156026 -0.000000 -8.130208 0.000012 1.000000 -0.000020 0.911047 0.721292
-14.156026 -0.000000 -8.130208 0.000002 1.000000 -0.000004 0.911047 0.721292
-13.057837 0.000001 -7.342391 0.000002 1.000000 -0.000004 0.829529 0.759240
-12.920450 0.000001 -7.334410 0.000002 1.000000 -0.000004 0.820449 0.758066
-14.156026 -0.000000 -8.130208 0.000003 1.000000 -0.000006 0.911047 0.721292
-12.920450 0.000001 -7.334410 0.000003 1.000000 -0.000006 0.820449 0.758066
-12.788819 0.000001 -7.282307 0.000003 1.000000 -0.000006 0.811201 0.759848
3 0 1 2
3 3 4 5
3 0 2 6
3 7 8 9
3 10 11 12
3 13 14 15
3 16 17 18
3 19 20 21
3 22 23 24
3 25 26 27
3 28 25 27
3 29 30 31
3 28 27 29
3 32 33 34
3 29 31 35
3 35 36 37
3 35 37 38
3 39 29 35
3 40 41 42
3 35 38 43
3 35 43 44
3 45 46 47
3 48 49 50
3 51 52 53
3 54 51 53
3 53 55 35
3 56 57 58
3 53 35 59
3 60 54 53
3 61 60 53
3 53 59 62
3 53 62 63
3 61 53 63
3 64 65 66
3 67 68 69
3 70 71 72
3 73 74 75
3 76 77 78
3 79 73 80
3 81 82 83
3 84 85 86
3 87 88 89
3 90 91 92
3 93 94 95
3 96 90 97
3 98 99 100
3 101 78 102
3 103 104 105
3 106 107 108
3 109 110 111
3 112 113 114
3 115 116 117
3 118 119 120
