ply
format ascii 1.0
comment Created by Blender 2.78 (sub 0) - www.blender.org, source file: 'soult.blend'
element vertex 64
property float x
property float y
property float z
property float nx
property float ny
property float nz
property float s
property float t
element face 16
property list uchar uint vertex_indices
end_header
-13.436743 0.177174 -5.540631 0.985285 0.000000 0.170918 0.820224 0.881988
-13.454702 0.177174 -5.437100 0.985285 0.000000 0.170918 0.793995 0.881988
-13.454702 0.062099 -5.437100 0.985285 0.000000 0.170918 0.793995 0.855759
-13.436743 0.062099 -5.540631 0.985285 0.000000 0.170918 0.820224 0.855759
-13.476204 0.062099 -5.322426 0.985285 0.000000 0.170918 0.793995 0.855759
-13.458244 0.062099 -5.425957 0.985285 0.000000 0.170918 0.820224 0.855759
-13.458244 0.177174 -5.425957 0.985285 0.000000 0.170918 0.820224 0.881988
-13.476204 0.177174 -5.322426 0.985285 0.000000 0.170918 0.793995 0.881988
-13.499139 0.062099 -5.202018 0.985285 0.000000 0.170918 0.793995 0.855759
-13.481179 0.062099 -5.305549 0.985285 0.000000 0.170918 0.820224 0.855759
-13.481179 0.177174 -5.305549 0.985285 0.000000 0.170918 0.820224 0.881988
-13.499139 0.177174 -5.202018 0.985285 0.000000 0.170918 0.793995 0.881988
-13.583711 0.062099 -4.762196 0.985285 0.000000 0.170918 0.793995 0.855759
-13.565751 0.062099 -4.865727 0.985285 0.000000 0.170918 0.820224 0.855759
-13.565751 0.177174 -4.865727 0.985285 0.000000 0.170918 0.820224 0.881988
-13.583711 0.177174 -4.762196 0.985285 0.000000 0.170918 0.793995 0.881988
-13.605212 0.062099 -4.647522 0.985285 0.000000 0.170918 0.793995 0.855759
-13.587253 0.062099 -4.751053 0.985285 0.000000 0.170918 0.820224 0.855759
-13.587253 0.177174 -4.751053 0.985285 0.000000 0.170918 0.820224 0.881988
-13.605212 0.177174 -4.647522 0.985285 0.000000 0.170918 0.793995 0.881988
-13.628147 0.062099 -4.527114 0.985285 0.000000 0.170918 0.793995 0.855759
-13.610188 0.062099 -4.630645 0.985285 0.000000 0.170918 0.820224 0.855759
-13.610188 0.177174 -4.630645 0.985285 0.000000 0.170918 0.820224 0.881988
-13.628147 0.177174 -4.527114 0.985285 0.000000 0.170918 0.793995 0.881988
-13.796497 0.062099 -4.664005 -0.986586 0.000000 -0.163240 0.793995 0.855759
-13.813650 0.062099 -4.560338 -0.986586 0.000000 -0.163240 0.820224 0.855759
-13.813650 0.177174 -4.560338 -0.986586 0.000000 -0.163240 0.820224 0.881988
-13.796497 0.177174 -4.664005 -0.986586 0.000000 -0.163240 0.793995 0.881988
-13.775890 0.062099 -4.778844 -0.986586 0.000000 -0.163240 0.793995 0.855759
-13.793043 0.062099 -4.675176 -0.986586 0.000000 -0.163240 0.820224 0.855759
-13.793043 0.177174 -4.675176 -0.986586 0.000000 -0.163240 0.820224 0.881988
-13.775890 0.177174 -4.778844 -0.986586 0.000000 -0.163240 0.793995 0.881988
-13.753894 0.062099 -4.899426 -0.986586 0.000000 -0.163240 0.793995 0.855759
-13.771047 0.062099 -4.795759 -0.986586 0.000000 -0.163240 0.820224 0.855759
-13.771047 0.177174 -4.795759 -0.986586 0.000000 -0.163240 0.820224 0.881988
-13.753894 0.177174 -4.899426 -0.986586 0.000000 -0.163240 0.793995 0.881988
-13.726399 0.062099 -5.050155 -0.986586 0.000000 -0.163240 0.793995 0.855759
-13.743552 0.062099 -4.946487 -0.986586 0.000000 -0.163240 0.820224 0.855759
-13.743552 0.177174 -4.946487 -0.986586 0.000000 -0.163240 0.820224 0.881988
-13.726399 0.177174 -5.050155 -0.986586 0.000000 -0.163240 0.793995 0.881988
-13.704738 0.062099 -5.182919 -0.986588 0.000000 -0.163231 0.793995 0.855759
-13.721889 0.062099 -5.079251 -0.986588 0.000000 -0.163231 0.820224 0.855759
-13.721889 0.177174 -5.079251 -0.986588 0.000000 -0.163231 0.820224 0.881988
-13.704738 0.177174 -5.182919 -0.986588 0.000000 -0.163231 0.793995 0.881988
-13.672751 0.062099 -5.339894 -0.986586 0.000000 -0.163240 0.793995 0.855759
-13.689904 0.062099 -5.236226 -0.986586 0.000000 -0.163240 0.820224 0.855759
-13.689904 0.177174 -5.236226 -0.986586 0.000000 -0.163240 0.820224 0.881988
-13.672751 0.177174 -5.339894 -0.986586 0.000000 -0.163240 0.793995 0.881988
-13.652144 0.062099 -5.454732 -0.986588 0.000000 -0.163230 0.793995 0.855759
-13.669296 0.062099 -5.351064 -0.986588 0.000000 -0.163230 0.820224 0.855759
-13.669296 0.177174 -5.351064 -0.986588 0.000000 -0.163230 0.820224 0.881988
-13.652144 0.177174 -5.454732 -0.986588 0.000000 -0.163230 0.793995 0.881988
-13.630148 0.062099 -5.575315 -0.986587 0.000000 -0.163239 0.793995 0.855759
-13.647301 0.062099 -5.471647 -0.986587 0.000000 -0.163239 0.820224 0.855759
-13.647301 0.177174 -5.471647 -0.986587 0.000000 -0.163239 0.820224 0.881988
-13.630148 0.177174 -5.575315 -0.986587 0.000000 -0.163239 0.793995 0.881988
-13.778236 0.062099 -4.521662 -0.160109 0.000000 0.987099 0.793995 0.855759
-13.674515 0.062099 -4.504838 -0.160109 0.000000 0.987099 0.820224 0.855759
-13.674515 0.177174 -4.504838 -0.160109 0.000000 0.987099 0.820224 0.881988
-13.778236 0.177174 -4.521662 -0.160109 0.000000 0.987099 0.793995 0.881988
-13.474982 0.062099 -5.579907 0.160109 0.000000 -0.987099 0.793995 0.855759
-13.578704 0.062099 -5.596731 0.160109 0.000000 -0.987099 0.820224 0.855759
-13.578704 0.177174 -5.596731 0.160109 0.000000 -0.987099 0.820224 0.881988
-13.474982 0.177174 -5.579907 0.160109 0.000000 -0.987099 0.793995 0.881988
4 0 1 2 3
4 4 5 6 7
4 8 9 10 11
4 12 13 14 15
4 16 17 18 19
4 20 21 22 23
4 24 25 26 27
4 28 29 30 31
4 32 33 34 35
4 36 37 38 39
4 40 41 42 43
4 44 45 46 47
4 48 49 50 51
4 52 53 54 55
4 56 57 58 59
4 60 61 62 63
