ply
format ascii 1.0
comment Created by Blender 2.78 (sub 0) - www.blender.org, source file: 'soult.blend'
element vertex 103
property float x
property float y
property float z
property float nx
property float ny
property float nz
property float s
property float t
element face 92
property list uchar uint vertex_indices
end_header
-11.609573 -0.000000 -6.938622 0.000000 1.000000 -0.000000 0.000000 0.000000
-11.707863 -0.000000 -6.942020 0.000000 1.000000 -0.000000 0.000000 0.000000
-11.805237 -0.000000 -6.928299 0.000000 1.000000 -0.000000 0.000000 0.000000
-11.898758 -0.000000 -6.897881 -0.000000 1.000000 -0.000000 0.000000 0.000000
-11.985580 -0.000000 -6.851688 -0.000000 1.000000 -0.000000 0.000000 0.000000
-12.063049 -0.000000 -6.791119 -0.000000 1.000000 -0.000000 0.000000 0.000000
-12.078621 -0.000000 -6.776020 -0.000000 1.000000 -0.000000 0.000000 0.000000
-12.177017 -0.000000 -6.594318 0.000000 1.000000 -0.000000 0.000000 0.000000
-12.241920 -0.000000 -6.400181 0.000000 1.000000 -0.000000 0.000000 0.000000
-12.378693 -0.000000 -5.714180 0.000000 1.000000 -0.000000 0.000000 0.000000
-11.789893 -0.000000 -5.621677 0.000000 1.000000 -0.000000 0.000000 0.000000
-11.595262 -0.000000 -6.570515 -0.000000 1.000000 -0.000000 0.000000 0.000000
-11.368191 -0.000000 -6.400211 -0.000000 1.000000 -0.000000 0.000000 0.000000
-11.158185 -0.000000 -6.621416 -0.000000 1.000000 -0.000000 0.000000 0.000000
-11.178619 -0.000000 -6.636440 -0.000000 1.000000 -0.000000 0.000000 0.000000
-11.436020 -0.000000 -6.839169 -0.000000 1.000000 -0.000000 0.000000 0.000000
-11.448700 -0.000000 -7.252670 0.000000 1.000000 -0.000000 0.000000 0.000000
-10.944691 -0.000000 -6.846297 0.000000 1.000000 -0.000000 0.000000 0.000000
-10.759959 -0.000000 -7.040877 0.000000 1.000000 -0.000000 0.000000 0.000000
-11.408737 -0.000000 -7.551792 0.000000 1.000000 -0.000000 0.000000 0.000000
-11.635559 -0.000000 -7.614021 -0.000000 1.000000 -0.000000 0.000000 0.000000
-11.623749 -0.000000 -7.581062 -0.000000 1.000000 -0.000000 0.000000 0.000000
-11.696892 -0.000000 -7.922882 0.000000 1.000000 -0.000000 0.000000 0.000000
-11.688927 -0.000000 -7.819649 0.000000 1.000000 -0.000000 0.000000 0.000000
-11.683212 -0.000000 -8.043633 -0.000000 1.000000 -0.000000 0.000000 0.000000
-11.696434 -0.000000 -7.940941 -0.000000 1.000000 -0.000000 0.000000 0.000000
-11.568100 -0.000000 -8.493599 -0.000000 1.000000 -0.000000 0.000000 0.000000
-11.683090 -0.000000 -8.044159 -0.000000 1.000000 -0.000000 0.000000 0.000000
-11.384438 -0.000000 -8.988403 0.000000 1.000000 -0.000000 0.000000 0.000000
-11.439400 -0.000000 -8.872482 0.000000 1.000000 -0.000000 0.000000 0.000000
-11.087990 -0.000000 -9.433647 0.000000 1.000000 -0.000000 0.000000 0.000000
-11.114777 -0.000000 -9.394157 0.000000 1.000000 -0.000000 0.000000 0.000000
-11.181667 -0.000000 -8.589836 0.000000 1.000000 -0.000000 0.000000 0.000000
-10.792401 -0.000000 -9.173735 0.000000 1.000000 -0.000000 0.000000 0.000000
-14.727036 0.000000 -5.796950 0.000000 1.000000 0.000000 0.000000 0.000000
-14.503671 0.000000 -5.757176 0.000000 1.000000 0.000000 0.000000 0.000000
-14.427067 0.000000 -6.158739 0.000000 1.000000 0.000000 0.000000 0.000000
-14.650434 0.000000 -6.198514 -0.000000 1.000000 0.000000 0.000000 0.000000
-14.758006 0.000000 -6.198953 -0.000000 1.000000 0.000000 0.000000 0.000000
-14.844377 0.000000 -6.213267 0.000000 1.000000 0.000000 0.000000 0.000000
-15.150961 0.000000 -4.514322 0.000000 1.000000 0.000000 0.000000 0.000000
-14.977556 0.000000 -4.483719 0.000000 1.000000 0.000000 0.000000 0.000000
-12.826330 0.000000 -5.805757 0.629072 -0.000000 0.777347 0.000000 0.000000
-12.826330 -0.000000 -5.805757 0.629072 -0.000000 0.777347 0.000000 0.000000
-12.758339 -0.000000 -5.860779 0.629072 -0.000000 0.777347 0.000000 0.000000
-12.632401 -0.000000 -6.514542 -0.000000 1.000000 -0.000000 0.000000 0.000000
-12.826330 0.000000 -5.805757 0.000004 1.000000 0.000001 0.000000 0.000000
-12.758339 -0.000000 -5.860779 0.000004 1.000000 0.000001 0.000000 0.000000
-12.632401 -0.000000 -6.514542 0.000004 1.000000 0.000001 0.000000 0.000000
-12.991382 0.000000 -5.672192 -0.000000 1.000000 -0.000001 0.000000 0.000000
-12.826330 0.000000 -5.805757 -0.000000 1.000000 -0.000001 0.000000 0.000000
-12.632401 -0.000000 -6.514542 -0.000000 1.000000 -0.000001 0.000000 0.000000
-11.087990 -0.000000 -9.433647 0.000004 1.000000 0.000003 0.000000 0.000000
-10.315194 -0.000000 -10.495050 0.000004 1.000000 0.000003 0.000000 0.000000
-11.434806 0.000007 -11.298645 0.000004 1.000000 0.000003 0.000000 0.000000
-12.242778 0.000007 -10.224303 -0.000162 1.000000 -0.000178 0.000000 0.000000
-12.846539 -0.000000 -9.718211 -0.000162 1.000000 -0.000178 0.000000 0.000000
-12.925745 -0.000000 -9.646208 -0.000162 1.000000 -0.000178 0.000000 0.000000
-12.242778 0.000007 -10.224303 0.000004 1.000000 0.000003 0.000000 0.000000
-11.114777 -0.000000 -9.394157 0.000005 1.000000 0.000003 0.000000 0.000000
-11.087990 -0.000000 -9.433647 0.000005 1.000000 0.000003 0.000000 0.000000
-12.242778 0.000007 -10.224303 0.000005 1.000000 0.000003 0.000000 0.000000
-11.114777 -0.000000 -9.394157 -0.000002 1.000000 0.000011 0.000000 0.000000
-12.242778 0.000007 -10.224303 -0.000002 1.000000 0.000011 0.000000 0.000000
-12.925745 -0.000000 -9.646208 -0.000002 1.000000 0.000011 0.000000 0.000000
-12.925745 -0.000000 -9.646208 -0.000000 1.000000 -0.000000 0.000000 0.000000
-13.297442 -0.000000 -9.562407 -0.000000 1.000000 -0.000000 0.000000 0.000000
-13.626974 -0.000000 -9.579306 0.000000 1.000000 -0.000000 0.000000 0.000000
-12.991382 0.000000 -5.672192 0.000000 1.000000 -0.000000 0.000000 0.000000
-13.860168 -0.000000 -9.657035 -0.000000 1.000000 -0.000000 0.000000 0.000000
-14.598668 -0.000000 -9.942636 -0.000000 1.000000 -0.000000 0.000000 0.000000
-14.743088 -0.000000 -9.665253 -0.000000 1.000000 -0.000000 0.000000 0.000000
-13.940960 0.000000 -4.500162 -0.000000 1.000000 -0.000000 0.000000 0.000000
-13.144766 0.000000 -4.367056 -0.000000 1.000000 -0.000000 0.000000 0.000000
-13.202332 0.000000 -4.623840 -0.000000 1.000000 -0.000000 0.000000 0.000000
-14.885109 -0.000000 -9.381401 0.000000 1.000000 -0.000000 0.000000 0.000000
-15.027130 -0.000000 -9.097550 -0.000000 1.000000 -0.000000 0.000000 0.000000
-14.914371 -0.000000 -9.044675 -0.000000 1.000000 -0.000000 0.000000 0.000000
-14.861451 -0.000000 -9.022022 0.000000 1.000000 -0.000000 0.000000 0.000000
-13.876193 0.000000 -4.797909 -0.000000 1.000000 0.000000 0.000000 0.000000
-13.717010 -0.000000 -5.617111 0.000159 1.000000 0.000030 0.000000 0.000000
-13.729213 0.000000 -5.559979 0.000159 1.000000 0.000030 0.000000 0.000000
-13.747500 0.000000 -5.461842 0.000159 1.000000 0.000030 0.000000 0.000000
-13.747500 0.000000 -5.461842 -0.000000 1.000000 -0.000000 0.000000 0.000000
-14.762411 -0.000000 -8.965427 0.000000 1.000000 -0.000000 0.000000 0.000000
-13.717010 -0.000000 -5.617111 0.000002 1.000000 -0.000001 0.000000 0.000000
-13.747500 0.000000 -5.461842 0.000002 1.000000 -0.000001 0.000000 0.000000
-13.202332 0.000000 -4.623840 0.000002 1.000000 -0.000001 0.000000 0.000000
-14.427068 -0.000000 -6.158738 -0.000000 1.000000 -0.000000 0.000000 0.000000
-14.503682 -0.000000 -5.757178 -0.000000 1.000000 -0.000000 0.000000 0.000000
-13.717010 -0.000000 -5.617111 -0.000000 1.000000 -0.000000 0.000000 0.000000
-14.228832 -0.000000 -7.429367 -0.000012 1.000000 -0.000002 0.000000 0.000000
-14.302048 -0.000000 -6.971276 -0.000012 1.000000 -0.000002 0.000000 0.000000
-14.427068 -0.000000 -6.158738 -0.000012 1.000000 -0.000002 0.000000 0.000000
-14.228832 -0.000000 -7.429367 0.000000 1.000000 -0.000000 0.000000 0.000000
-14.514232 -0.000000 -8.812532 -0.000000 1.000000 -0.000000 0.000000 0.000000
-14.329722 -0.000000 -8.626567 0.000000 1.000000 -0.000000 0.000000 0.000000
-14.176014 -0.000000 -7.846039 0.000001 1.000000 0.000000 0.000000 0.000000
-14.228832 -0.000000 -7.429367 0.000001 1.000000 0.000000 0.000000 0.000000
-13.860168 -0.000000 -9.657035 0.000001 1.000000 0.000000 0.000000 0.000000
-14.196824 -0.000000 -8.400114 0.000000 1.000000 -0.000000 0.000000 0.000000
-14.156026 -0.000000 -8.130208 0.000001 1.000000 0.000000 0.000000 0.000000
-14.156026 -0.000000 -8.130208 0.000000 1.000000 -0.000000 0.000000 0.000000
3 0 1 2
3 2 3 4
3 4 5 6
3 6 7 8
3 8 9 10
3 11 12 13
3 8 10 11
3 4 6 8
3 0 2 4
3 14 15 0
3 11 13 14
3 4 8 11
3 14 0 4
3 4 11 14
3 16 17 18
3 16 18 19
3 20 21 16
3 22 23 20
3 24 25 22
3 26 27 24
3 28 29 26
3 30 31 28
3 32 33 30
3 20 16 19
3 19 32 30
3 30 28 26
3 26 24 22
3 22 20 19
3 19 30 26
3 19 26 22
3 34 35 36
3 36 37 38
3 38 39 40
3 40 41 34
3 34 36 38
3 34 38 40
3 42 43 44
3 45 8 7
3 46 47 48
3 49 50 51
3 45 7 6
3 45 6 5
3 45 5 4
3 45 4 3
3 1 0 16
3 1 16 21
3 2 1 21
3 2 21 20
3 3 2 20
3 3 20 23
3 45 3 23
3 45 23 22
3 45 22 25
3 45 25 24
3 45 24 27
3 45 27 26
3 45 26 29
3 45 29 28
3 52 53 54
3 55 56 57
3 52 54 58
3 59 60 61
3 62 63 64
3 28 31 65
3 28 65 66
3 45 28 66
3 45 66 67
3 68 45 67
3 69 70 71
3 68 67 69
3 72 73 74
3 74 68 69
3 69 71 75
3 75 76 77
3 75 77 78
3 79 72 74
3 80 81 82
3 83 79 74
3 69 75 78
3 69 78 84
3 85 86 87
3 88 89 90
3 91 92 93
3 94 88 90
3 90 74 69
3 69 84 95
3 69 95 96
3 94 90 69
3 97 98 99
3 69 96 100
3 101 97 99
3 69 100 102
